G04 ================== begin FILE IDENTIFICATION RECORD ==================*
G04 Layout Name:  C:/DesigSync_WORKDIR/evm/em/CC2538_EM/Cadence/CC2538EM.brd*
G04 Film Name:    Layer3*
G04 File Format:  Gerber RS274X*
G04 File Origin:  Cadence Allegro 16.5-S010*
G04 Origin Date:  Mon Aug 27 15:01:23 2012*
G04 *
G04 Layer:  VIA CLASS/L3*
G04 Layer:  PIN/L3*
G04 Layer:  ETCH/L3*
G04 *
G04 Offset:    (0.000 0.000)*
G04 Mirror:    No*
G04 Mode:      Positive*
G04 Rotation:  0*
G04 FullContactRelief:  No*
G04 UndefLineWidth:     0.100*
G04 ================== end FILE IDENTIFICATION RECORD ====================*
%FSLAX44Y44*MOMM*%
%IR0*IPPOS*OFA0.00000B0.00000*MIA0B0*SFA1.00000B1.00000*%
%ADD12C,1.45*%
%ADD11C,.099*%
%ADD10C,.5*%
%ADD13C,.3*%
%ADD14C,.4*%
%ADD15C,.15*%
%ADD16C,.8*%
%ADD18C,1.806*%
%ADD17C,.758*%
G75*
%LPD*%
G75*
G36*
G01X1063790Y1327010D02*
G02X1064500Y1327300I705J-711D01*
G01X1464000D01*
G02X1464710Y1327010I5J-1001D01*
G02X1465000Y1326300I-711J-705D01*
G01Y901000D01*
G02X1464000Y900000I-1000J0D01*
G01X1215500D01*
G02X1214500Y901000I0J1000D01*
G01Y917000D01*
G03X1213500Y918000I-1000J0D01*
G01X1128500D01*
G03X1127500Y917000I0J-1000D01*
G01Y901000D01*
G02X1126500Y900000I-1000J0D01*
G01X1064500D01*
G02X1063500Y901000I0J1000D01*
G01Y1326300D01*
G02X1063790Y1327010I1001J5D01*
G37*
%LPC*%
G75*
G36*
G01X1381220Y1051970D02*
G02X1381150Y1046490I2581J-2773D01*
G03X1378380Y1046530I-1406J-1424D01*
G02X1378450Y1052010I-2581J2773D01*
G03X1381220Y1051970I1406J1424D01*
G37*
G36*
G01X1231120Y915650D02*
X1231180Y915820D01*
Y930530D01*
G03X1230890Y931230I-1000J-4D01*
G01X1220830Y941290D01*
G03X1220130Y941580I-704J-710D01*
G01X1154250D01*
G02X1153550Y941870I4J1000D01*
G01X1144370Y951050D01*
G02X1144080Y951750I710J704D01*
G01Y969480D01*
X1144020Y969650D01*
G02X1151180I3580J1250D01*
G01X1151120Y969480D01*
Y954670D01*
G03X1151410Y953970I1000J4D01*
G01X1156470Y948910D01*
G03X1157170Y948620I704J710D01*
G01X1223050D01*
G02X1223750Y948330I-4J-1000D01*
G01X1237930Y934150D01*
G02X1238220Y933450I-710J-704D01*
G01Y915820D01*
X1238280Y915650D01*
G02X1231120I-3580J-1250D01*
G37*
G36*
G01X1368090Y981990D02*
Y964310D01*
G02X1367090Y963310I-1000J0D01*
G01X1343710D01*
X1343320Y963700D01*
X1341810D01*
G02X1341110Y963990I4J1000D01*
G01X1320150Y984950D01*
G02X1319860Y985650I710J704D01*
G01Y1000590D01*
X1319930Y1000660D01*
Y1015330D01*
G02X1320220Y1016030I1000J-4D01*
G01X1339500Y1035300D01*
G03X1339790Y1036010I-710J704D01*
G01X1339710Y1059790D01*
G02X1340710Y1060790I1000J0D01*
G01X1341350D01*
G03X1342280Y1061410I4J1001D01*
G01X1342390Y1061690D01*
X1342280Y1062270D01*
X1335210Y1069340D01*
G03X1334510Y1069630I-704J-710D01*
G01X1330410D01*
G03X1329510Y1069060I2J-999D01*
G01X1328730Y1067430D01*
G03X1328850Y1066380I903J-429D01*
G02X1328490Y1061240I-2951J-2376D01*
G03X1328170Y1060510I680J-733D01*
G01Y1051190D01*
G02X1327880Y1050490I-1000J4D01*
G01X1313910Y1036520D01*
G02X1313210Y1036230I-704J710D01*
G01X1297550D01*
G03X1296850Y1035940I4J-1000D01*
G01X1283730Y1022820D01*
G02X1283030Y1022530I-704J710D01*
G01X1198450D01*
G03X1197750Y1022240I4J-1000D01*
G01X1182530Y1007020D01*
G02X1181830Y1006730I-704J710D01*
G01X1179190D01*
G03X1178460Y1006410I3J-1000D01*
G02X1172510Y1006960I-2761J2592D01*
G03X1171780Y1007410I-839J-543D01*
G01X1170230Y1007590D01*
G03X1169410Y1007300I-109J-995D01*
G01X1168330Y1006220D01*
G02X1167630Y1005930I-704J710D01*
G01X1157190D01*
G03X1156460Y1005610I3J-1000D01*
G02Y1010790I-2760J2590D01*
G03X1157190Y1010470I733J680D01*
G01X1165750D01*
G03X1166450Y1010760I-4J1000D01*
G01X1174670Y1018980D01*
G02X1175370Y1019270I704J-710D01*
G01X1175700D01*
G03X1176440Y1019590I7J1000D01*
G02X1182860Y1018000I2765J-2591D01*
G03X1183570Y1017290I967J257D01*
G01X1185230Y1016850D01*
G03X1186200Y1017110I261J965D01*
G01X1192920Y1023830D01*
G03X1193130Y1024920I-711J702D01*
G01X1193020Y1025200D01*
X1192520Y1025530D01*
X1157250D01*
G03X1156550Y1025240I4J-1000D01*
G01X1138660Y1007350D01*
G03X1138370Y1006650I710J-704D01*
G01Y981730D01*
G02X1138080Y981030I-1000J4D01*
G01X1133750Y976700D01*
G02X1133050Y976410I-704J710D01*
G01X1131490D01*
G03X1130760Y976090I3J-1000D01*
G02X1130390Y981630I-2760J2598D01*
G03X1131020Y981400I638J769D01*
G01X1131630Y981410D01*
G03X1132330Y981700I-4J999D01*
G01X1133540Y982910D01*
G03X1133830Y983610I-710J704D01*
G01Y1005010D01*
G03X1133210Y1005940I-1001J4D01*
G01X1132930Y1006050D01*
X1132350Y1005940D01*
X1129030Y1002620D01*
G02X1128330Y1002330I-704J710D01*
G01X1125750D01*
G03X1125050Y1002040I4J-1000D01*
G01X1116230Y993220D01*
X1116080Y992830D01*
X1116090Y992630D01*
G02X1112430Y996290I-3790J-130D01*
G01X1112630Y996280D01*
X1113020Y996430D01*
X1123170Y1006580D01*
G02X1123870Y1006870I704J-710D01*
G01X1126450D01*
G03X1127150Y1007160I-4J1000D01*
G01X1133520Y1013530D01*
G03X1133730Y1014620I-711J702D01*
G01X1133620Y1014900D01*
X1133120Y1015230D01*
X1119930D01*
G03X1119230Y1014940I4J-1000D01*
G01X1119050Y1014760D01*
G02X1118350Y1014470I-704J710D01*
G01X1116790D01*
G03X1116060Y1014150I3J-1000D01*
G02X1115690Y1019690I-2760J2598D01*
G03X1116320Y1019460I638J769D01*
G01X1116930Y1019470D01*
G03X1117630Y1019760I-4J999D01*
G01X1117640Y1019770D01*
X1133950D01*
G03X1134650Y1020060I-4J1000D01*
G01X1141440Y1026850D01*
G03X1141650Y1027940I-711J702D01*
G01X1141540Y1028220D01*
X1141040Y1028550D01*
X1116290D01*
G03X1115560Y1028230I3J-1000D01*
G02Y1033410I-2760J2590D01*
G03X1116290Y1033090I733J680D01*
G01X1134490D01*
G03X1135290Y1033490I0J1000D01*
G01X1136250Y1034770D01*
G03X1136410Y1035650I-800J600D01*
G02X1142440Y1039650I3642J1055D01*
G03X1143070Y1039420I638J769D01*
G01X1143680Y1039430D01*
G03X1144380Y1039720I-4J999D01*
G01X1146870Y1042210D01*
G03X1146880Y1043630I-701J715D01*
G01X1145870Y1044640D01*
G03X1145160Y1044930I-704J-710D01*
G01X1143540D01*
G03X1142810Y1044610I3J-1000D01*
G02X1136940Y1049370I-2763J2592D01*
G03X1137120Y1049990I-817J573D01*
G01X1137100Y1050580D01*
G03X1136810Y1051240I-1000J-46D01*
G01X1132610Y1055440D01*
G03X1131910Y1055730I-704J-710D01*
G01X1117870D01*
G02X1117160Y1056030I3J998D01*
G01X1114460Y1058730D01*
G03X1113750Y1059030I-713J-698D01*
G01X1094850D01*
G03X1094150Y1058740I4J-1000D01*
G01X1091630Y1056220D01*
X1091480Y1055830D01*
X1091490Y1055630D01*
G02X1087090Y1051760I-3788J-129D01*
G01X1087080D01*
G03X1086280Y1051530I-149J-988D01*
G01X1085120Y1050550D01*
G03X1084770Y1049790I651J-760D01*
G01Y1041330D01*
G03X1085060Y1040630I1000J4D01*
G01X1085260Y1040430D01*
X1085650Y1040280D01*
X1085850Y1040290D01*
G02X1083860Y1033360I130J-3788D01*
G03X1082890Y1033450I-566J-826D01*
G01X1082360Y1033210D01*
G03X1081770Y1032300I410J-912D01*
G01Y1031830D01*
G03X1082060Y1031130I1000J4D01*
G01X1085260Y1027930D01*
X1085650Y1027780D01*
X1085850Y1027790D01*
G02X1082190Y1024130I130J-3790D01*
G01X1082200Y1024330D01*
X1082050Y1024720D01*
X1080470Y1026300D01*
G03X1079380Y1026510I-702J-711D01*
G01X1079100Y1026400D01*
X1078770Y1025900D01*
Y1021830D01*
G03X1079060Y1021130I1000J4D01*
G01X1085260Y1014930D01*
X1085650Y1014780D01*
X1085850Y1014790D01*
G02X1082190Y1011130I130J-3790D01*
G01X1082200Y1011330D01*
X1082050Y1011720D01*
X1077470Y1016300D01*
G03X1076380Y1016510I-702J-711D01*
G01X1076100Y1016400D01*
X1075770Y1015900D01*
Y1012330D01*
G03X1076060Y1011630I1000J4D01*
G01X1085260Y1002430D01*
X1085650Y1002280D01*
X1085850Y1002290D01*
G02X1082190Y998630I130J-3790D01*
G01X1082200Y998830D01*
X1082050Y999220D01*
X1071520Y1009750D01*
G02X1071230Y1010450I710J704D01*
G01Y1104450D01*
X1071220Y1104460D01*
Y1113410D01*
G02X1071510Y1114110I1000J-4D01*
G01X1072030Y1114630D01*
Y1114640D01*
X1097290Y1139900D01*
X1097300D01*
X1097320Y1139920D01*
X1097680Y1140070D01*
X1128140D01*
G03X1128840Y1140360I-4J1000D01*
G01X1132650Y1144170D01*
X1132660D01*
X1136250Y1147760D01*
G02X1136950Y1148050I704J-710D01*
G01X1141420D01*
G03X1142220Y1148450I0J999D01*
G01X1143180Y1149720D01*
G03X1143350Y1150580I-794J604D01*
G01Y1150590D01*
G02X1148920Y1154880I3650J1022D01*
G03X1150150Y1155060I502J865D01*
G01X1150250Y1155160D01*
G03X1150230Y1156560I-724J690D01*
G01X1148020Y1158770D01*
G03X1147160Y1159060I-715J-701D01*
G01X1145570Y1158820D01*
G03X1144840Y1158310I147J-988D01*
G02X1138740Y1157510I-3337J1792D01*
G03X1138010Y1157830I-733J-680D01*
G01X1136450D01*
G02X1135750Y1158120I4J1000D01*
G01X1133430Y1160440D01*
G03X1132730Y1160730I-704J-710D01*
G01X1098900D01*
G03X1097960Y1160070I1J-1001D01*
G01Y1160060D01*
G02Y1165940I-8260J2940D01*
G01Y1165930D01*
G03X1098900Y1165270I941J341D01*
G01X1107210D01*
G03X1108140Y1165890I4J1001D01*
G01X1108250Y1166170D01*
X1108140Y1166750D01*
X1094610Y1180280D01*
G03X1093470Y1180480I-711J-703D01*
G02X1097620Y1184630I-3770J7920D01*
G03X1097820Y1183490I903J-429D01*
G01X1111650Y1169660D01*
G03X1112350Y1169370I704J710D01*
G01X1143430D01*
G02X1144130Y1169080I-4J-1000D01*
G01X1166880Y1146330D01*
X1167270Y1146180D01*
X1167470Y1146190D01*
G02X1169010Y1145920I129J-3789D01*
G01X1169240Y1145830D01*
X1169730Y1145880D01*
X1171310Y1146950D01*
G03X1171750Y1147780I-560J829D01*
G01Y1149350D01*
G02X1172040Y1150050I1000J-4D01*
G01X1173670Y1151680D01*
X1173820Y1152070D01*
X1173810Y1152270D01*
G02X1174960Y1155120I3789J128D01*
G01X1175110Y1155270D01*
X1175270Y1155640D01*
X1175240Y1157510D01*
X1175080Y1157880D01*
X1174920Y1158020D01*
G02X1174910Y1163560I2580J2775D01*
G03X1175230Y1164300I-680J733D01*
G01Y1171810D01*
G03X1174910Y1172540I-1000J-3D01*
G02X1180090I2590J2760D01*
G03X1179770Y1171810I680J-733D01*
G01Y1171050D01*
G03X1180220Y1170210I1000J-5D01*
G01X1181820Y1169150D01*
X1182310Y1169100D01*
X1182540Y1169200D01*
G02X1187780Y1166000I1460J-3499D01*
G01X1187790Y1165800D01*
X1187980Y1165440D01*
X1189400Y1164260D01*
X1189790Y1164150D01*
X1189990Y1164170D01*
G02X1191070Y1164130I401J-3769D01*
G03X1191890Y1164350I175J984D01*
G01X1193070Y1165330D01*
G03X1193430Y1166100I-640J768D01*
G01Y1179710D01*
G02X1193720Y1180410I1000J-4D01*
G01X1201060Y1187740D01*
G02X1206740Y1182060I2840J-2840D01*
G01X1201760Y1177070D01*
G03X1201470Y1176370I710J-704D01*
G01Y1135090D01*
G02X1201180Y1134390I-1000J4D01*
G01X1191810Y1125020D01*
G03X1191520Y1124320I710J-704D01*
G01Y1113180D01*
G03X1191810Y1112480I1000J4D01*
G01X1193880Y1110410D01*
G03X1194580Y1110120I704J710D01*
G01X1216880D01*
G03X1217810Y1110740I4J1001D01*
G01X1217920Y1111020D01*
X1217810Y1111600D01*
X1215880Y1113530D01*
Y1113540D01*
X1209020Y1120390D01*
G02X1208730Y1121090I710J704D01*
G01Y1127990D01*
G03X1208440Y1128690I-1000J-4D01*
G01X1205480Y1131660D01*
G02X1211160Y1137340I2840J2840D01*
G01X1216480Y1132030D01*
G02X1216770Y1131330I-710J-704D01*
G01Y1124430D01*
G03X1217060Y1123730I1000J4D01*
G01X1220570Y1120220D01*
G03X1221320Y1119930I705J709D01*
G01X1222780Y1119990D01*
G03X1223500Y1120340I-41J999D01*
G01X1223510Y1120350D01*
G02X1225530Y1121590I2893J-2448D01*
G01X1225660Y1121620D01*
X1225900Y1121750D01*
X1230720Y1126570D01*
G03X1231010Y1127270I-710J704D01*
G01Y1194990D01*
G02X1232010Y1195990I1000J0D01*
G01X1292500D01*
G03X1293500Y1196990I0J1000D01*
G01Y1205760D01*
G02X1293790Y1206460I1000J-4D01*
G01X1294440Y1207110D01*
G03X1294650Y1208200I-711J702D01*
G01X1294540Y1208480D01*
X1294040Y1208810D01*
X1280890D01*
G03X1280150Y1208490I-7J-1000D01*
G02X1275140Y1208030I-2764J2591D01*
G03X1274550Y1208220I-586J-810D01*
G01X1273940Y1208230D01*
G03X1273350Y1208040I-3J-1001D01*
G02X1270140Y1214760I-2234J3060D01*
G03X1270590Y1215020I-258J967D01*
G01X1274380Y1218800D01*
G02X1275080Y1219090I704J-710D01*
G01X1291590D01*
G03X1292290Y1219380I-4J1000D01*
G01X1301700Y1228790D01*
G02X1302400Y1229080I704J-710D01*
G01X1302460D01*
G03X1303160Y1229370I-4J1000D01*
G01X1303310Y1229520D01*
Y1229850D01*
G02X1309470Y1232750I3790J-59D01*
G01X1309620Y1232630D01*
X1309970Y1232510D01*
X1311700Y1232630D01*
X1312040Y1232790D01*
X1312160Y1232920D01*
G02X1314770Y1226510I2739J-2621D01*
G01X1314570Y1226520D01*
X1314180Y1226370D01*
X1313970Y1226160D01*
G03Y1224750I710J-705D01*
G01X1314100Y1224620D01*
X1314270Y1224550D01*
G02X1313490Y1217390I-1568J-3452D01*
G01X1313350Y1217360D01*
X1313090Y1217220D01*
X1299830Y1203960D01*
G03X1299540Y1203260I710J-704D01*
G01Y1195990D01*
X1299590D01*
Y1128020D01*
G03X1300590Y1127020I1000J0D01*
G01X1320060D01*
G02X1320760Y1126730I-4J-1000D01*
G01X1332880Y1114610D01*
G03X1333580Y1114320I704J710D01*
G01X1339880D01*
G02X1340580Y1114030I-4J-1000D01*
G01X1343100Y1111510D01*
G03X1343800Y1111220I704J710D01*
G01X1349880D01*
G03X1350810Y1111840I4J1001D01*
G01X1350920Y1112120D01*
X1350810Y1112700D01*
X1330570Y1132940D01*
G02X1330280Y1133640I710J704D01*
G01Y1156460D01*
X1330180Y1156560D01*
Y1164500D01*
G02X1336520Y1167780I4018J0D01*
G01X1336530D01*
G03X1337560Y1167710I573J817D01*
G01X1339140Y1168520D01*
G03X1339680Y1169410I-461J888D01*
G01Y1220060D01*
G02X1339970Y1220760I1000J-4D01*
G01X1356290Y1237080D01*
G03X1356580Y1237780I-710J704D01*
G01Y1259420D01*
G03X1356290Y1260120I-1000J-4D01*
G01X1353920Y1262490D01*
G03X1353220Y1262780I-704J-710D01*
G01X1321380D01*
G03X1320680Y1262490I4J-1000D01*
G01X1309680Y1251490D01*
G03X1309390Y1250790I710J-704D01*
G01Y1242230D01*
G02X1309100Y1241530I-1000J4D01*
G01X1304950Y1237380D01*
G02X1304250Y1237090I-704J710D01*
G01X1298760D01*
G03X1298060Y1236800I4J-1000D01*
G01X1297960Y1236700D01*
X1297470D01*
G03X1296770Y1236410I4J-1000D01*
G01X1296580Y1236220D01*
G03X1296290Y1235520I710J-704D01*
G01Y1234510D01*
G03X1296450Y1233970I1000J3D01*
G02X1290090I-3180J-2060D01*
G03X1290250Y1234510I-840J543D01*
G01Y1238020D01*
G02X1290540Y1238720I1000J-4D01*
G01X1294270Y1242450D01*
G02X1294970Y1242740I704J-710D01*
G01X1295050D01*
G03X1295750Y1243030I-4J1000D01*
G01X1295850Y1243130D01*
X1301750D01*
G03X1302450Y1243420I-4J1000D01*
G01X1303060Y1244030D01*
G03X1303350Y1244730I-710J704D01*
G01Y1250870D01*
G03X1303150Y1251470I-1001J0D01*
G02X1302470Y1252900I3218J2407D01*
G01X1302410Y1253160D01*
X1302030Y1253540D01*
X1300090Y1254080D01*
G03X1299120Y1253830I-269J-962D01*
G01X1292810Y1247520D01*
G03X1292520Y1246820I710J-704D01*
G01Y1245960D01*
G02X1292230Y1245260I-1000J4D01*
G01X1285840Y1238870D01*
G03X1285550Y1238170I710J-704D01*
G01Y1237160D01*
G02X1285260Y1236460I-1000J4D01*
G01X1283630Y1234830D01*
G03X1283370Y1233860I705J-709D01*
G02X1276520Y1234960I-3667J-959D01*
G03X1276680Y1235500I-840J543D01*
G01Y1236010D01*
G02X1276970Y1236710I1000J-4D01*
G01X1279220Y1238960D01*
G03X1279510Y1239660I-710J704D01*
G01Y1240670D01*
G02X1279800Y1241370I1000J-4D01*
G01X1285610Y1247180D01*
G03X1285820Y1248280I-707J705D01*
G01Y1248290D01*
G02X1286660Y1252740I3681J1609D01*
G01X1292760Y1258850D01*
G03X1292970Y1259940I-711J702D01*
G01X1292860Y1260220D01*
X1292360Y1260550D01*
X1291350D01*
G03X1290650Y1260260I4J-1000D01*
G01X1290030Y1259640D01*
G02X1289330Y1259350I-704J710D01*
G01X1246450D01*
G03X1245750Y1259060I4J-1000D01*
G01X1232110Y1245420D01*
G03X1231820Y1244720I710J-704D01*
G01Y1238140D01*
G02X1231530Y1237440I-1000J4D01*
G01X1230890Y1236800D01*
G03Y1235380I704J-710D01*
G01X1231290Y1234980D01*
X1231550Y1234840D01*
X1231690Y1234810D01*
G02X1227190Y1230310I-790J-3710D01*
G01X1227160Y1230450D01*
X1227020Y1230710D01*
X1225190Y1232540D01*
G03X1224640Y1232820I-707J-708D01*
G01X1224630D01*
G02X1222360Y1239640I572J3978D01*
G01X1223490Y1240780D01*
G03X1223780Y1241480I-710J704D01*
G01Y1248060D01*
G02X1224070Y1248760I1000J-4D01*
G01X1242410Y1267100D01*
G02X1243110Y1267390I704J-710D01*
G01X1285990D01*
G03X1286690Y1267680I-4J1000D01*
G01X1287310Y1268300D01*
G02X1288010Y1268590I704J-710D01*
G01X1288490D01*
G03X1289190Y1268880I-4J1000D01*
G01X1312240Y1291930D01*
G02X1312940Y1292220I704J-710D01*
G01X1374160D01*
G02X1374860Y1291930I-4J-1000D01*
G01X1386830Y1279960D01*
G02X1387120Y1279260I-710J-704D01*
G01Y1222940D01*
G02X1386830Y1222240I-1000J4D01*
G01X1370310Y1205720D01*
G03X1370020Y1205020I710J-704D01*
G01Y1201120D01*
G03X1370400Y1200340I1000J5D01*
G01X1371630Y1199360D01*
G03X1372500Y1199180I617J790D01*
G02X1375990Y1192740I895J-3681D01*
G03X1375670Y1192010I680J-733D01*
G01Y1190040D01*
X1375570Y1189940D01*
Y1188140D01*
G03X1376570Y1187140I1000J0D01*
G01X1376580D01*
G03X1377130Y1187300I7J1001D01*
G01X1377140Y1187310D01*
G02X1381610Y1187210I2167J-3110D01*
G01X1381910Y1186980D01*
X1382650Y1187020D01*
X1382920Y1187290D01*
G03Y1188710I-704J710D01*
G01X1382120Y1189510D01*
G02X1381830Y1190210I710J704D01*
G01Y1206210D01*
G03X1381510Y1206940I-1000J-3D01*
G02X1384380Y1213480I2593J2762D01*
G01X1384580Y1213470D01*
X1384950Y1213590D01*
X1386330Y1214790D01*
X1386510Y1215140D01*
X1386520Y1215340D01*
G02X1392890Y1212340I3780J-237D01*
G03X1392570Y1211600I680J-733D01*
G01Y1210050D01*
G02X1392280Y1209350I-1000J4D01*
G01X1391560Y1208630D01*
G03X1391270Y1207930I710J-704D01*
G01Y1207290D01*
G03X1391860Y1206380I1000J2D01*
G01X1392390Y1206140D01*
G03X1393360Y1206230I404J917D01*
G02X1399290Y1202970I2141J-3129D01*
G01X1399280Y1202770D01*
X1399430Y1202380D01*
X1401980Y1199830D01*
G02X1402270Y1199130I-710J-704D01*
G01Y1178510D01*
G03X1402560Y1177810I1000J4D01*
G01X1407330Y1173030D01*
X1407340D01*
X1430270Y1150110D01*
Y1150080D01*
X1453470Y1126880D01*
Y1126870D01*
X1455070Y1125270D01*
Y1125260D01*
X1455170Y1125160D01*
Y1071950D01*
G03X1455460Y1071250I1000J4D01*
G01X1458680Y1068030D01*
G02X1458970Y1067330I-710J-704D01*
G01Y1056870D01*
G02X1458680Y1056170I-1000J4D01*
G01X1456260Y1053750D01*
G03X1455970Y1053050I710J-704D01*
G01Y1006520D01*
G02X1455680Y1005820I-1000J4D01*
G01X1448780Y998920D01*
X1448630Y998530D01*
X1448640Y998330D01*
G02X1444980Y1001990I-3790J-130D01*
G01X1445180Y1001980D01*
X1445570Y1002130D01*
X1451140Y1007700D01*
G03X1451430Y1008400I-710J704D01*
G01Y1011860D01*
G03X1450810Y1012790I-1001J4D01*
G01X1450530Y1012900D01*
X1449950Y1012790D01*
X1448780Y1011620D01*
X1448630Y1011230D01*
X1448640Y1011030D01*
G02X1442640Y1007820I-3789J-131D01*
G03X1441600Y1007900I-585J-810D01*
G01X1440010Y1007090D01*
G03X1439470Y1006200I461J-888D01*
G01Y1002480D01*
G02X1439180Y1001780I-1000J4D01*
G01X1419280Y981880D01*
G03X1419020Y980910I706J-709D01*
G01X1419540Y978980D01*
X1419910Y978610D01*
X1420170Y978540D01*
G02X1409100Y967470I-2350J-8720D01*
G01X1409030Y967730D01*
X1408660Y968100D01*
X1406730Y968620D01*
G03X1405760Y968360I-261J-966D01*
G01X1390120Y952720D01*
G02X1389420Y952430I-704J710D01*
G01X1314470D01*
G02X1313770Y952720I4J1000D01*
G01X1278020Y988470D01*
X1277630Y988620D01*
X1277430Y988610D01*
G02X1281090Y992270I-130J3790D01*
G01X1281080Y992070D01*
X1281230Y991680D01*
X1300130Y972780D01*
G03X1301220Y972570I702J711D01*
G01X1301500Y972680D01*
X1301830Y973180D01*
Y977950D01*
G03X1301540Y978650I-1000J-4D01*
G01X1291120Y989070D01*
X1290730Y989220D01*
X1290530Y989210D01*
G02X1294190Y992870I-130J3790D01*
G01X1294180Y992670D01*
X1294330Y992280D01*
X1306080Y980530D01*
G02X1306370Y979830I-710J-704D01*
G01Y971990D01*
G03X1306660Y971290I1000J4D01*
G01X1317690Y960260D01*
G03X1318390Y959970I704J710D01*
G01X1380050D01*
G03X1380750Y960260I-4J1000D01*
G01X1418300Y997810D01*
G03X1418550Y998800I-710J706D01*
G01X1417950Y1000760D01*
X1417550Y1001130D01*
X1417270Y1001180D01*
G02X1418130Y1008690I723J3721D01*
G01X1418330Y1008680D01*
X1418720Y1008830D01*
X1421840Y1011950D01*
G03X1422130Y1012650I-710J704D01*
G01Y1013580D01*
G03X1421490Y1014510I-1000J-3D01*
G01X1420980Y1014710D01*
G03X1419980Y1014560I-372J-930D01*
G02X1414840Y1014910I-2382J2943D01*
G03X1414110Y1015230I-733J-680D01*
G01X1412000D01*
G02X1411300Y1015520I4J1000D01*
G01X1404320Y1022500D01*
G02X1404030Y1023200I710J704D01*
G01Y1028810D01*
G03X1403740Y1029510I-1000J-4D01*
G01X1402020Y1031230D01*
G02X1401730Y1031930I710J704D01*
G01Y1044110D01*
G03X1401110Y1045040I-1001J4D01*
G01X1400830Y1045150D01*
X1400250Y1045040D01*
X1392930Y1037720D01*
X1392780Y1037330D01*
X1392790Y1037130D01*
G02X1389130Y1040790I-3790J-130D01*
G01X1389330Y1040780D01*
X1389720Y1040930D01*
X1396740Y1047950D01*
G03X1397030Y1048650I-710J704D01*
G01Y1064950D01*
G03X1396740Y1065650I-1000J-4D01*
G01X1396650Y1065740D01*
G03X1395950Y1066030I-704J-710D01*
G01X1389080D01*
G03X1388250Y1065590I-1J-1000D01*
G01X1387320Y1064220D01*
G03X1387210Y1063300I828J-566D01*
G01X1387220Y1063290D01*
G02X1381110Y1059130I-3525J-1390D01*
G03X1380430Y1059400I-683J-729D01*
G01X1379070D01*
G03X1378390Y1059130I3J-999D01*
G02X1372280Y1063290I-2585J2770D01*
G01Y1063300D01*
X1372290D01*
G03X1372180Y1064220I-938J354D01*
G01X1371250Y1065590D01*
G03X1370420Y1066030I-829J-560D01*
G01X1368740D01*
G03X1367810Y1065410I-4J-1001D01*
G01X1367700Y1065130D01*
X1367810Y1064550D01*
X1369570Y1062790D01*
Y1062640D01*
X1369620Y1062590D01*
X1369770Y1062230D01*
Y1022830D01*
G03X1370060Y1022130I1000J4D01*
G01X1390060Y1002130D01*
X1390450Y1001980D01*
X1390650Y1001990D01*
G02X1386990Y998330I130J-3790D01*
G01X1387000Y998530D01*
X1386850Y998920D01*
X1368270Y1017500D01*
G03X1367180Y1017710I-702J-711D01*
G01X1366900Y1017600D01*
X1366570Y1017100D01*
Y1008650D01*
G03X1366860Y1007950I1000J4D01*
G01X1384590Y990220D01*
Y989940D01*
X1386360Y988160D01*
G03X1387070Y987870I704J710D01*
G01X1387380D01*
G03X1388080Y988160I-4J1000D01*
G01X1388090Y988170D01*
G02X1388020Y982910I2691J-2666D01*
G03X1387290Y983230I-733J-680D01*
G01X1385320D01*
X1385220Y983330D01*
X1385180D01*
G02X1384480Y983620I4J1000D01*
G01X1380050Y988060D01*
Y988340D01*
X1362320Y1006070D01*
G02X1362030Y1006770I710J704D01*
G01Y1059450D01*
X1361880Y1059810D01*
X1361760Y1059930D01*
X1357700D01*
G03X1356700Y1058920I-1J-999D01*
G01X1356890Y1028720D01*
G02X1355890Y1027710I-999J-11D01*
G01X1347930D01*
G03X1347230Y1027420I4J-1000D01*
G01X1331260Y1011450D01*
G03X1330970Y1010750I710J-704D01*
G01Y1002510D01*
G03X1331470Y1001650I999J6D01*
G01X1332960Y1000780D01*
G03X1333950Y1000770I504J863D01*
G02X1344670Y986430I4430J-7865D01*
G03X1344440Y985340I698J-717D01*
G01X1345140Y983620D01*
G03X1346060Y982990I928J369D01*
G01X1367090D01*
G02X1368090Y981990I0J-1000D01*
G37*
G54D18*
X1192330Y992910D03*
X1113020Y969820D03*
G54D17*
X1266000Y992600D03*
X1284600Y965880D03*
X1253100Y992800D03*
X1259000Y965880D03*
%LPD*%
G75*
G36*
G01X1156120Y1132690D02*
X1161940Y1126870D01*
G02X1162230Y1126170I-710J-704D01*
G01Y1086640D01*
G03X1162520Y1085940I1000J4D01*
G01X1184840Y1063620D01*
X1184850D01*
X1186050Y1062420D01*
G03X1186750Y1062130I704J710D01*
G01X1214630D01*
G02X1215330Y1061840I-4J-1000D01*
G01X1215750Y1061420D01*
G03X1216450Y1061130I704J710D01*
G01X1218010D01*
G02X1218740Y1060810I-3J-1000D01*
G03X1225270Y1063810I2763J2593D01*
G01X1225250Y1064040D01*
X1225390Y1064450D01*
X1225550Y1064620D01*
G02X1226970I710J-706D01*
G01X1227270Y1064320D01*
X1227420Y1063930D01*
X1227410Y1063730D01*
G03X1231070Y1067390I3790J-130D01*
G01X1230870Y1067380D01*
X1230480Y1067530D01*
X1230080Y1067930D01*
G02X1229870Y1069020I711J702D01*
G01X1229980Y1069300D01*
X1230480Y1069630D01*
X1245700D01*
G02X1246630Y1069010I4J-1001D01*
G01X1246740Y1068730D01*
X1246630Y1068150D01*
X1244850Y1066370D01*
X1244840D01*
X1235830Y1057360D01*
G02X1235130Y1057070I-704J710D01*
G01X1157400D01*
G02X1156700Y1057360I4J1000D01*
G01X1150840Y1063220D01*
X1150700D01*
X1149930Y1063990D01*
X1149920D01*
X1145810Y1068100D01*
G02X1145520Y1068800I710J704D01*
G01Y1071630D01*
G03X1145230Y1072330I-1000J-4D01*
G01X1143980Y1073580D01*
X1143830Y1073970D01*
X1143840Y1074170D01*
G03X1139650Y1070530I-3789J130D01*
G02X1140260Y1070240I-99J-995D01*
G01X1140690Y1069800D01*
G02X1140980Y1069100I-709J-704D01*
G01Y1067040D01*
G02X1140130Y1066050I-1000J-1D01*
G03X1137140Y1063590I575J-3746D01*
G01X1137060Y1063390D01*
X1136820Y1063150D01*
X1135990D01*
X1135860Y1063280D01*
G03X1135160Y1063570I-704J-710D01*
G01X1121130D01*
G02X1120420Y1063870I3J998D01*
G01X1117720Y1066570D01*
G03X1117010Y1066870I-713J-698D01*
G01X1092170D01*
G02X1091470Y1067160I4J1000D01*
G01X1091190Y1067440D01*
Y1067580D01*
G03X1086990Y1071370I-3791J21D01*
G02X1086210Y1071620I-112J993D01*
G01X1085100Y1072610D01*
G02X1084770Y1073360I671J743D01*
G01Y1075040D01*
G02X1085100Y1075780I1000J-2D01*
G01X1086180Y1076770D01*
G02X1086950Y1077030I677J-736D01*
G03X1089890Y1083560I345J3771D01*
G02X1089570Y1084290I680J733D01*
G01Y1085850D01*
G03X1089280Y1086550I-1000J-4D01*
G01X1088860Y1086970D01*
G02X1088570Y1087670I710J704D01*
G01Y1107350D01*
G02X1088860Y1108050I1000J-4D01*
G01X1103880Y1123070D01*
G02X1104580Y1123360I704J-710D01*
G01X1105360D01*
G02X1106360Y1122360I0J-1000D01*
G01Y1122350D01*
G02X1106130Y1121710I-1000J-2D01*
G03X1120860Y1120370I6896J-5830D01*
G01X1120730Y1120600D01*
Y1121140D01*
X1121730Y1122860D01*
G02X1122590Y1123360I866J-500D01*
G01X1127350D01*
G02X1128050Y1123070I-4J-1000D01*
G01X1132040Y1119080D01*
X1132400Y1118930D01*
X1132490D01*
X1132500Y1118920D01*
G03X1133200Y1118630I704J710D01*
G01X1135310D01*
G02X1136040Y1118310I-3J-1000D01*
G03X1142580Y1120700I2759J2594D01*
G01X1142590Y1120930D01*
X1142800Y1121310D01*
X1144240Y1122370D01*
G02X1145060Y1122530I584J-811D01*
G01X1145070D01*
G03X1145000Y1129850I936J3669D01*
G01X1144980D01*
X1144760Y1129790D01*
X1144340Y1129870D01*
X1142690Y1131050D01*
X1142480Y1131450D01*
X1142470Y1131680D01*
G03X1141640Y1133860I-3785J-193D01*
G02X1141620Y1133880I692J712D01*
G01Y1133890D01*
G02X1141420Y1134500I797J599D01*
G01X1141440Y1135970D01*
X1141570Y1136300D01*
X1141680Y1136430D01*
G03X1142320Y1137490I-2883J2464D01*
G01X1142390Y1137670D01*
X1142650Y1137940D01*
X1144100Y1138600D01*
G02X1144830Y1138630I403J-915D01*
G01X1144840D01*
G03X1148570Y1145070I1254J3574D01*
G01X1148380Y1145230D01*
X1148210Y1145680D01*
X1148390Y1147550D01*
G02X1148880Y1148320I996J-93D01*
G03X1150780Y1151330I-1879J3291D01*
G01Y1151340D01*
G02X1151430Y1152190I995J-87D01*
G01X1153130Y1152830D01*
G02X1154190Y1152600I352J-934D01*
G01X1157390Y1149400D01*
G02X1157660Y1148490I-709J-705D01*
G01X1157270Y1146600D01*
X1156940Y1146220D01*
X1156710Y1146130D01*
G03X1155510Y1139840I1391J-3525D01*
G02X1155830Y1139100I-680J-733D01*
G01Y1133390D01*
G03X1156120Y1132690I1000J4D01*
G37*
G36*
G01X1276760Y1089460D02*
X1265640Y1100580D01*
G03X1264940Y1100870I-704J-710D01*
G01X1238760D01*
G02X1237840Y1101490I5J999D01*
G01X1237720Y1101770D01*
X1237840Y1102350D01*
X1238170Y1102690D01*
G02X1238880Y1102980I705J-711D01*
G01X1286700D01*
G02X1287620Y1102360I-4J-998D01*
G01X1287740Y1102080D01*
X1287620Y1101500D01*
X1283770Y1097640D01*
G03X1283480Y1096940I710J-704D01*
G01Y1094660D01*
X1283400Y1094380D01*
X1283320Y1094260D01*
G03X1282770Y1091530I3180J-2061D01*
G01X1282810Y1091300D01*
X1282700Y1090880D01*
X1281570Y1089530D01*
G02X1280800Y1089170I-768J640D01*
G01X1277460D01*
G02X1276760Y1089460I4J1000D01*
G37*
G36*
G01X1325370Y1103710D02*
X1318360Y1110730D01*
G03X1317650Y1111020I-705J-711D01*
G01X1236810D01*
G02X1235890Y1111640I5J999D01*
G01X1235770Y1111920D01*
X1235890Y1112500D01*
X1236630Y1113240D01*
G03X1236920Y1113950I-711J705D01*
G01Y1114620D01*
G02X1237210Y1115330I1001J5D01*
G01X1240570Y1118690D01*
G02X1241280Y1118980I705J-711D01*
G01X1316720D01*
G02X1317430Y1118690I5J-1001D01*
G01X1328660Y1107460D01*
G03X1331500Y1106280I2840J2828D01*
G01X1336540D01*
G02X1337250Y1105990I5J-1001D01*
G01X1338110Y1105120D01*
G02X1338330Y1104030I-704J-709D01*
G01X1338210Y1103750D01*
X1337710Y1103420D01*
X1326080D01*
G02X1325370Y1103710I-5J1001D01*
G37*
G36*
G01X1233300Y1128700D02*
G02X1232300Y1129700I0J1000D01*
G01Y1193700D01*
G02X1233300Y1194700I1000J0D01*
G01X1297300D01*
G02X1298300Y1193700I0J-1000D01*
G01Y1129700D01*
G02X1297300Y1128700I-1000J0D01*
G01X1233300D01*
G37*
G36*
G01X1347720Y1214310D02*
Y1216720D01*
G02X1348010Y1217430I1001J5D01*
G01X1364330Y1233740D01*
G03X1364620Y1234450I-711J705D01*
G01Y1262750D01*
G03X1364330Y1263460I-1001J5D01*
G01X1357260Y1270530D01*
G03X1356550Y1270820I-705J-711D01*
G01X1318510D01*
G02X1317590Y1271440I5J999D01*
G01X1317470Y1271720D01*
X1317590Y1272300D01*
X1320870Y1275590D01*
G02X1321580Y1275880I705J-711D01*
G01X1361320D01*
G02X1362030Y1275590I5J-1001D01*
G01X1367390Y1270230D01*
G02X1367680Y1269520I-711J-705D01*
G01Y1232580D01*
G02X1367390Y1231870I-1001J-5D01*
G01X1349420Y1213910D01*
G02X1348330Y1213690I-709J704D01*
G01X1348050Y1213810D01*
X1347720Y1214310D01*
G37*
G36*
G01X1346000Y964600D02*
G02X1345000Y965600I0J1000D01*
G01Y980700D01*
G02X1346000Y981700I1000J0D01*
G01X1365800D01*
G02X1366800Y980700I0J-1000D01*
G01Y965600D01*
G02X1365800Y964600I-1000J0D01*
G01X1346000D01*
G37*
G36*
G01X1355080Y1059250D02*
G02X1355400Y1058650I-673J-744D01*
G02X1355410Y1058510I-990J-141D01*
G01X1355590Y1030010D01*
G02X1354590Y1029000I-999J-11D01*
G01X1342100D01*
G02X1341100Y1030000I0J1000D01*
G01X1341000Y1058500D01*
G02X1342000Y1059500I1000J0D01*
G01X1354410D01*
G02X1355080Y1059250I8J-1002D01*
G37*
G36*
G01X1388170Y1083700D02*
Y1086030D01*
X1388670Y1086590D01*
X1389050Y1086640D01*
G03X1389640Y1094040I-456J3760D01*
G01X1389310Y1094140D01*
X1388920Y1094660D01*
Y1095070D01*
G02X1389210Y1095770I1000J-4D01*
G01X1389510Y1096070D01*
X1389890Y1096220D01*
X1390100Y1096210D01*
G03X1386440Y1099870I130J3790D01*
G01X1386450Y1099660D01*
X1386300Y1099280D01*
X1384670Y1097650D01*
G03X1384380Y1096950I710J-704D01*
G01Y1096880D01*
X1382300Y1094800D01*
G02X1381210Y1094590I-703J713D01*
G01X1380920Y1094710D01*
X1380590Y1095200D01*
Y1122130D01*
X1380520Y1122200D01*
G02X1380220Y1122910I700J714D01*
G01Y1147460D01*
G02X1380560Y1148220I1001J8D01*
G01X1381870Y1149350D01*
X1382270Y1149470D01*
X1382490Y1149440D01*
G03X1385770Y1150610I508J3758D01*
G02X1386500Y1150930I733J-679D01*
G01X1388600D01*
G02X1389310Y1150640I6J-1000D01*
G01X1395450Y1144490D01*
X1395460D01*
X1401440Y1138520D01*
G02X1401730Y1137810I-710J-704D01*
G01Y1095570D01*
G02X1401440Y1094870I-1000J4D01*
G01X1389870Y1083300D01*
G02X1388780Y1083090I-702J711D01*
G01X1388500Y1083200D01*
X1388170Y1083700D01*
G37*
G36*
G01X1379300Y1120190D02*
Y1082400D01*
G02X1378300Y1081400I-1000J0D01*
G01X1365900D01*
G02X1364900Y1082400I0J1000D01*
G01X1365000Y1120110D01*
G02X1365730Y1121070I999J-2D01*
G02X1365990Y1121110I281J-959D01*
G01X1378290Y1121190D01*
G02X1379300Y1120190I11J-999D01*
G37*
G36*
G01X1362900Y1126090D02*
X1348010Y1140970D01*
G02X1347720Y1141680I711J705D01*
G01Y1150530D01*
G02X1348340Y1151460I1000J5D01*
G01X1348620Y1151570D01*
X1349200Y1151460D01*
X1353500Y1147150D01*
X1353650Y1146790D01*
Y1146690D01*
X1364090Y1136270D01*
G02X1364380Y1135560I-712J-705D01*
G01Y1127010D01*
G02X1363760Y1126090I-999J5D01*
G01X1363480Y1125970D01*
X1362900Y1126090D01*
G37*
G36*
G01X1370690Y1141030D02*
X1361690Y1150030D01*
Y1150320D01*
X1357910Y1154110D01*
G02X1357620Y1154820I710J704D01*
G01Y1210320D01*
G02X1357910Y1211030I1001J5D01*
G01X1375430Y1228540D01*
G03X1375720Y1229250I-711J705D01*
G01Y1272850D01*
G03X1375430Y1273560I-1001J5D01*
G01X1366510Y1282480D01*
G02X1366290Y1283570I704J709D01*
G01X1366410Y1283850D01*
X1366910Y1284180D01*
X1370820D01*
G02X1371530Y1283890I5J-1001D01*
G01X1378790Y1276630D01*
G02X1379080Y1275920I-711J-705D01*
G01Y1226280D01*
G02X1378790Y1225570I-1001J-5D01*
G01X1362270Y1209060D01*
G03X1361980Y1208350I711J-705D01*
G01Y1165250D01*
G03X1362270Y1164540I1001J-5D01*
G01X1371890Y1154930D01*
G02X1372180Y1154220I-711J-705D01*
G01Y1141950D01*
G02X1371560Y1141030I-1000J5D01*
G01X1371280Y1140910D01*
X1370690Y1141030D01*
G37*
G36*
G01X1409270Y1086880D02*
Y1107010D01*
G02X1409820Y1107900I1000J-3D01*
G01X1411670Y1108830D01*
X1412230Y1108780D01*
X1412460Y1108610D01*
G03X1426820Y1116620I5360J7269D01*
G01X1426790Y1116940D01*
X1427110Y1117480D01*
X1429100Y1118400D01*
G02X1430230Y1118200I423J-905D01*
G01X1430640Y1117790D01*
G02X1430930Y1117090I-710J-704D01*
G01Y1106850D01*
G02X1430640Y1106150I-1000J4D01*
G01X1410970Y1086480D01*
G02X1409880Y1086270I-702J711D01*
G01X1409600Y1086380D01*
X1409270Y1086880D01*
G37*
%LPC*%
G75*
G54D17*
X1280460Y1186730D03*
X1290460D03*
X1270440Y1186750D03*
X1260440D03*
X1260450Y1176830D03*
X1270450D03*
X1290470Y1176810D03*
X1280470D03*
Y1166880D03*
X1290470D03*
X1270460Y1166900D03*
X1260460D03*
X1260380Y1156790D03*
X1270380D03*
X1290400Y1156770D03*
X1280400D03*
X1280480Y1146730D03*
X1290480D03*
X1270460Y1146750D03*
X1260460D03*
X1280450Y1136770D03*
X1290450D03*
X1270430Y1136790D03*
X1260430D03*
X1250440Y1186750D03*
X1240440D03*
X1240450Y1176830D03*
X1250450D03*
X1250460Y1166900D03*
X1240460D03*
X1240380Y1156790D03*
X1250380D03*
X1250460Y1146750D03*
X1240460D03*
X1250430Y1136790D03*
X1240430D03*
%LPD*%
G75*
G54D10*
G01X1367200Y1099400D02*
X1324000D01*
X1316400Y1107000D01*
X1236800D01*
X1233150Y1103350D01*
X1220050D01*
X1217300Y1106100D01*
X1192500D01*
X1187500Y1111100D01*
Y1126400D01*
X1197450Y1136350D01*
Y1178450D01*
X1203900Y1184900D01*
G01X1208320Y1134500D02*
X1212750Y1130070D01*
Y1122350D01*
X1219900Y1115210D01*
Y1115200D01*
X1223700Y1111400D01*
X1223710D01*
X1224010Y1111100D01*
X1228790D01*
X1229090Y1111400D01*
X1229100D01*
X1232900Y1115200D01*
Y1116700D01*
X1239200Y1123000D01*
X1318800D01*
X1331500Y1110300D01*
G01X1371400Y1120100D02*
X1376200Y1124900D01*
Y1156300D01*
X1366000Y1166500D01*
Y1207100D01*
X1383100Y1224200D01*
Y1278000D01*
X1372900Y1288200D01*
X1314200D01*
X1290570Y1264570D01*
X1289270D01*
X1288070Y1263370D01*
X1244370D01*
X1227800Y1246800D01*
Y1239400D01*
X1225200Y1236800D01*
G01X1368400Y1114900D02*
Y1137640D01*
X1357670Y1148360D01*
Y1148660D01*
X1353600Y1152740D01*
Y1212400D01*
X1371700Y1230500D01*
Y1271600D01*
X1363400Y1279900D01*
X1319500D01*
X1289500Y1249900D01*
G01X1368400Y1114900D02*
X1343700Y1139600D01*
Y1218800D01*
X1360600Y1235700D01*
Y1261500D01*
X1355300Y1266800D01*
X1319300D01*
X1306370Y1253870D01*
G01X1368600Y1107200D02*
X1341720D01*
X1338620Y1110300D01*
X1331500D01*
G01X1334200Y1164500D02*
Y1158230D01*
X1334300Y1158130D01*
Y1134900D01*
X1354300Y1114900D01*
X1368400D01*
G01X1368200Y1100400D02*
X1367200Y1099400D01*
G01X1375600Y1115000D02*
X1370500Y1120100D01*
X1371400D01*
X1071870Y905560D03*
X1068570Y917560D03*
Y927560D03*
Y937720D03*
X1068550Y957690D03*
Y977850D03*
Y967690D03*
X1068570Y947720D03*
X1068560Y997880D03*
X1067550Y1028150D03*
Y1017990D03*
Y1007990D03*
X1068550Y987850D03*
X1067550Y1038150D03*
X1067650Y1048190D03*
Y1068350D03*
Y1058190D03*
Y1088590D03*
Y1108750D03*
Y1098590D03*
Y1118750D03*
Y1078350D03*
X1067660Y1128780D03*
X1069320Y1140080D03*
Y1150080D03*
Y1160240D03*
X1069330Y1180270D03*
X1069170Y1190050D03*
Y1200050D03*
X1069320Y1170240D03*
X1069150Y1230310D03*
Y1220150D03*
Y1240310D03*
Y1250340D03*
Y1210150D03*
X1068990Y1270130D03*
Y1290280D03*
Y1280280D03*
Y1260130D03*
X1068960Y1320470D03*
Y1310310D03*
X1069000Y1300320D03*
X1083470Y914760D03*
X1105470Y913260D03*
X1117070Y905560D03*
X1096870Y905260D03*
X1084970Y905560D03*
X1083170Y928760D03*
X1108770Y928160D03*
X1098070Y939460D03*
X1088570Y954360D03*
X1109070Y953160D03*
X1084670Y969560D03*
X1100000Y978680D03*
X1113300Y1016740D03*
X1112300Y992500D03*
X1085980Y1024000D03*
Y1011000D03*
Y998500D03*
X1087400Y1067600D03*
X1087700Y1055500D03*
X1112800Y1030820D03*
X1085980Y1036500D03*
X1100000Y1107300D03*
X1087300Y1080800D03*
X1112300Y1144100D03*
X1079570Y1135570D03*
X1116300Y1189000D03*
X1100970Y1224270D03*
X1088470Y1236170D03*
X1081370Y1217070D03*
X1102000Y1213100D03*
X1112600Y1279500D03*
X1111800Y1297500D03*
X1100370Y1267670D03*
X1092670Y1285570D03*
X1116300Y1257500D03*
X1090870Y1255770D03*
X1115110Y1323400D03*
X1095110D03*
X1105110D03*
X1086410D03*
X1076910D03*
X1125600Y932100D03*
X1127100Y956400D03*
X1138500Y967220D03*
X1147300Y981580D03*
X1128000Y978680D03*
X1147600Y970900D03*
X1153700Y1008200D03*
X1140050Y1074300D03*
X1140700Y1062300D03*
X1140050Y1047200D03*
Y1036700D03*
X1147600Y1106700D03*
X1145700Y1082400D03*
X1134870Y1111870D03*
X1155070Y1112770D03*
X1153670Y1076170D03*
X1141500Y1160100D03*
X1147000Y1151610D03*
X1158100Y1142600D03*
X1138800Y1120900D03*
X1146000Y1126200D03*
X1138680Y1131500D03*
X1138800Y1138900D03*
X1146100Y1142200D03*
X1130100Y1206700D03*
X1138470Y1177270D03*
X1137800Y1189300D03*
X1121300Y1178400D03*
X1133070Y1227270D03*
X1137730Y1245100D03*
X1151500Y1231330D03*
X1119970Y1243870D03*
X1121770Y1217070D03*
X1153600Y1217900D03*
X1138830Y1213100D03*
X1145200Y1219520D03*
X1130300Y1277800D03*
X1151500Y1287330D03*
Y1258870D03*
X1124500Y1309100D03*
X1156240Y1323170D03*
X1146240D03*
X1136240D03*
X1125110Y1323400D03*
X1151500Y1314870D03*
X1137730Y1301100D03*
X1195420Y974500D03*
X1194900Y1010400D03*
X1164800Y1019220D03*
X1179200Y1017000D03*
X1175700Y1009000D03*
X1179000Y1061200D03*
X1166170Y1065970D03*
X1198380Y1114900D03*
X1206600Y1093000D03*
X1191400Y1098600D03*
X1196600Y1088000D03*
X1177500Y1160800D03*
X1167600Y1142400D03*
X1198200Y1124500D03*
X1190400Y1160400D03*
X1179600Y1142500D03*
X1177600Y1152400D03*
X1208320Y1134500D03*
X1177500Y1175300D03*
X1189600Y1200100D03*
X1183570Y1189870D03*
X1196880Y1205500D03*
X1198400Y1190100D03*
X1198000Y1198000D03*
X1184000Y1165700D03*
X1203900Y1184900D03*
X1204600Y1222300D03*
X1193730Y1245100D03*
X1207400Y1231330D03*
X1188100Y1228800D03*
X1165270Y1245100D03*
X1169200Y1227600D03*
X1203700Y1212570D03*
X1179900Y1219720D03*
X1186470Y1213300D03*
X1207500Y1287330D03*
Y1258870D03*
X1206140Y1323070D03*
X1196140D03*
X1186240Y1323170D03*
X1176240D03*
X1166240D03*
X1193730Y1301100D03*
X1207500Y1314870D03*
X1165270Y1301100D03*
X1240020Y904700D03*
X1225010Y904710D03*
X1217650Y931950D03*
X1243330Y930500D03*
X1252200Y938920D03*
X1239800Y938680D03*
X1234700Y914400D03*
X1233610Y966110D03*
X1214750Y956450D03*
X1253100Y992800D03*
X1227940Y1018600D03*
X1231200Y1063600D03*
X1221500Y1063400D03*
X1250580Y1043980D03*
X1252800Y1093000D03*
X1226400Y1117900D03*
X1240380Y1156790D03*
X1250380D03*
X1250460Y1146750D03*
X1240460D03*
X1250430Y1136790D03*
X1240430D03*
X1250440Y1186750D03*
X1240440D03*
X1240450Y1176830D03*
X1250450D03*
X1250460Y1166900D03*
X1240460D03*
X1240870Y1226270D03*
X1241470Y1217170D03*
X1243200Y1245270D03*
X1236680Y1238800D03*
X1241820Y1232700D03*
X1221500Y1229500D03*
X1218480Y1223300D03*
X1218380Y1214800D03*
X1221270Y1245100D03*
X1230900Y1231100D03*
X1244500Y1272500D03*
X1235800Y1278300D03*
X1244000Y1302700D03*
X1234300Y1306800D03*
X1237300Y1318400D03*
X1221270Y1301000D03*
X1292000Y914000D03*
X1275500Y905000D03*
X1285070Y904690D03*
X1255090Y904740D03*
X1259000Y965880D03*
X1297110Y964990D03*
X1284600Y965880D03*
X1297110Y1020290D03*
X1290400Y993000D03*
X1277300Y992400D03*
X1266000Y992600D03*
X1289800Y1064800D03*
X1297100Y1063850D03*
X1279100Y1066500D03*
X1269200Y1063500D03*
X1260300Y1049600D03*
X1277700Y1093290D03*
X1286500Y1092200D03*
X1260380Y1156790D03*
X1270380D03*
X1290400Y1156770D03*
X1280400D03*
X1280480Y1146730D03*
X1290480D03*
X1270460Y1146750D03*
X1260460D03*
X1280450Y1136770D03*
X1290450D03*
X1270430Y1136790D03*
X1260430D03*
X1280460Y1186730D03*
X1290460D03*
X1270440Y1186750D03*
X1260440D03*
X1260450Y1176830D03*
X1270450D03*
X1290470Y1176810D03*
X1280470D03*
Y1166880D03*
X1290470D03*
X1270460Y1166900D03*
X1260460D03*
X1280470Y1252070D03*
X1268000Y1245270D03*
X1274720Y1238920D03*
X1272100Y1233220D03*
X1286500Y1232500D03*
X1293270Y1231910D03*
X1279700Y1232900D03*
X1277390Y1211080D03*
X1271120Y1211100D03*
X1287070Y1271070D03*
X1290970Y1285070D03*
X1263700Y1287770D03*
X1263600Y1274830D03*
X1270220Y1281300D03*
X1282300Y1310800D03*
X1267060Y1322950D03*
X1285760D03*
X1275760D03*
X1295760D03*
X1287370Y1298970D03*
X1263700Y1300330D03*
Y1313270D03*
X1270220Y1306800D03*
X1330010Y904760D03*
X1315160Y904720D03*
X1300080Y904680D03*
X1337900Y1007700D03*
X1313370Y1026470D03*
X1333570Y1056770D03*
X1328270Y1040470D03*
X1307900Y1049800D03*
X1308400Y1057900D03*
X1314000Y1063900D03*
X1319800Y1057400D03*
X1325900Y1064000D03*
X1304370Y1116070D03*
X1311370Y1114070D03*
X1309000Y1094300D03*
X1309180Y1087250D03*
X1299500Y1091800D03*
X1303100Y1085700D03*
X1331500Y1110300D03*
X1334010Y1120200D03*
X1332420Y1174200D03*
X1332220Y1194400D03*
X1334200Y1164500D03*
X1312930Y1244200D03*
X1319400Y1237780D03*
X1326180Y1230800D03*
X1332700Y1224330D03*
X1299870Y1245770D03*
X1299800Y1233610D03*
X1312700Y1221100D03*
X1314900Y1230300D03*
X1307100Y1229790D03*
X1341000Y1273400D03*
X1328300D03*
X1313900Y1295500D03*
X1330800Y1301900D03*
X1307400Y1313600D03*
X1305760Y1322950D03*
X1316890Y1322720D03*
X1326890D03*
X1336890D03*
X1299970Y1307270D03*
X1375060Y904740D03*
X1359990Y904710D03*
X1345170D03*
X1387600Y972700D03*
X1351980Y977220D03*
X1360000Y977200D03*
Y969200D03*
X1351980Y969220D03*
X1356300Y1021000D03*
X1348800Y1013700D03*
X1359300Y1009270D03*
X1351580Y1000500D03*
X1360100Y991730D03*
X1344900Y1074600D03*
X1353000D03*
X1345200Y1047100D03*
Y1040200D03*
X1345100Y1033000D03*
X1351800Y1033100D03*
Y1040000D03*
Y1047100D03*
X1351700Y1054800D03*
X1345600D03*
X1383800Y1049200D03*
X1383700Y1061900D03*
X1375800Y1049300D03*
Y1061900D03*
X1375600Y1115000D03*
X1368400Y1114900D03*
X1375400Y1107300D03*
X1368600Y1107200D03*
X1375300Y1100400D03*
X1368200D03*
X1375300Y1093100D03*
X1368100Y1093200D03*
X1368500Y1086300D03*
X1375100D03*
X1360170Y1161970D03*
X1367570Y1148970D03*
X1351170Y1145970D03*
X1360070Y1136770D03*
X1387400Y1139420D03*
X1383000Y1153200D03*
X1378900Y1176400D03*
X1379300Y1184200D03*
X1383600Y1169500D03*
X1373400Y1195500D03*
X1351500Y1240700D03*
X1349500Y1250900D03*
X1384100Y1209700D03*
X1361600Y1270900D03*
X1349910Y1259200D03*
X1384000Y1302600D03*
X1356890Y1322720D03*
X1386570Y1322760D03*
X1376570D03*
X1366570D03*
X1346890Y1322720D03*
X1349600Y1299200D03*
X1370300Y1300800D03*
X1416000Y917700D03*
X1420110Y904710D03*
X1405040Y904680D03*
X1390070Y904740D03*
X1412870Y937170D03*
X1420770Y957970D03*
X1430840Y977840D03*
X1390780Y985500D03*
X1417800Y1030400D03*
X1418000Y1004900D03*
X1390780Y998200D03*
X1417600Y1017500D03*
X1417800Y1042800D03*
X1389000Y1037000D03*
X1425710Y1107490D03*
X1390800Y1076500D03*
X1417800Y1080600D03*
X1390230Y1100000D03*
X1388600Y1090400D03*
X1396170Y1130900D03*
X1401470Y1209070D03*
X1421700Y1206200D03*
X1412470Y1190670D03*
X1421970Y1175770D03*
X1394600Y1192800D03*
X1395500Y1203100D03*
X1396600Y1232900D03*
X1422900Y1235300D03*
X1408870Y1242370D03*
X1405870Y1222170D03*
X1394000Y1243000D03*
X1389870Y1222170D03*
X1390300Y1215100D03*
X1405400Y1296200D03*
X1417200Y1262200D03*
X1416570Y1287570D03*
X1397570Y1285870D03*
X1403870Y1267070D03*
X1388400Y1313200D03*
X1406000Y1308700D03*
X1396570Y1322760D03*
X1406570D03*
X1417360Y1322790D03*
X1427360D03*
X1392500Y1299000D03*
X1459570Y910670D03*
X1450120Y904710D03*
X1435120D03*
X1460470Y938670D03*
Y930370D03*
X1433500Y954700D03*
X1460480Y968860D03*
X1460320Y978640D03*
X1446370Y973770D03*
X1460470Y958830D03*
Y948830D03*
X1447970Y951770D03*
X1460470Y1018030D03*
Y1008030D03*
X1460480Y1028060D03*
X1460470Y997870D03*
Y987870D03*
X1444850Y1010900D03*
Y998200D03*
X1461970Y1069030D03*
Y1058870D03*
Y1048870D03*
X1460320Y1037840D03*
X1445400Y1062100D03*
Y1049400D03*
X1461820Y1098840D03*
X1459020Y1119230D03*
Y1109230D03*
X1461980Y1089060D03*
X1461970Y1079030D03*
X1458870Y1159210D03*
X1459030Y1149420D03*
X1443370Y1150170D03*
X1459030Y1129390D03*
Y1139390D03*
Y1199530D03*
Y1189530D03*
Y1179370D03*
X1438670Y1188270D03*
X1440370Y1165070D03*
X1459030Y1169370D03*
X1440100Y1245300D03*
X1458860Y1239450D03*
Y1249450D03*
X1458870Y1219350D03*
Y1229350D03*
X1459040Y1209560D03*
X1442770Y1213870D03*
X1442170Y1276270D03*
X1458860Y1279640D03*
X1458700Y1289420D03*
X1458860Y1269600D03*
Y1259600D03*
X1440400Y1256000D03*
X1458700Y1309580D03*
X1447160Y1322790D03*
X1458360Y1320490D03*
X1437360Y1322790D03*
X1458700Y1299420D03*
G54D11*
X1113020Y969820D03*
Y1115880D03*
X1192330Y992910D03*
X1338390D03*
X1417820Y969820D03*
Y1115880D03*
G54D12*
X1089700Y1163000D03*
Y1188400D03*
G54D13*
G01X1237800Y1130600D02*
X1234800Y1127600D01*
Y1126380D01*
X1227400Y1118980D01*
Y1118900D01*
X1226400Y1117900D01*
G01X1296520Y1132720D02*
X1294400Y1130600D01*
X1237800D01*
G01X1225200Y1236800D02*
X1230900Y1231100D01*
G01X1367200Y1099400D02*
X1360700Y1092900D01*
X1317900D01*
X1314500Y1096300D01*
Y1096580D01*
X1311280Y1099800D01*
X1290200D01*
X1286500Y1096100D01*
Y1092200D01*
G01X1312700Y1221100D02*
X1296520Y1204920D01*
Y1132720D01*
G01X1289500Y1249900D02*
Y1246800D01*
X1282530Y1239830D01*
Y1238000D01*
X1279700Y1235170D01*
Y1232900D01*
G01X1306370Y1253870D02*
Y1243070D01*
X1303410Y1240110D01*
X1297100D01*
X1296710Y1239720D01*
X1295810D01*
X1293270Y1237180D01*
Y1231910D01*
G54D14*
G01X1234700Y914400D02*
Y932400D01*
X1222000Y945100D01*
X1155300D01*
X1147600Y952800D01*
Y970900D01*
G54D15*
G01X1113300Y1016740D02*
X1117820D01*
X1118580Y1017500D01*
X1135300D01*
X1151600Y1033800D01*
X1277500D01*
X1293500Y1049800D01*
X1307900D01*
G01X1314000Y1063900D02*
Y1049020D01*
X1309510Y1044500D01*
X1293200D01*
X1279500Y1030800D01*
X1154660D01*
X1154560Y1030700D01*
X1153900D01*
X1127800Y1004600D01*
X1124400D01*
X1112300Y992500D01*
G01X1138680Y1131500D02*
X1133620D01*
X1133310Y1131800D01*
X1100910D01*
X1100740Y1131630D01*
X1100730D01*
X1080300Y1111200D01*
Y1111190D01*
X1079500Y1110390D01*
Y1030480D01*
X1085980Y1024000D01*
G01X1138800Y1138900D02*
X1134840D01*
X1130740Y1134800D01*
X1099660D01*
X1099490Y1134630D01*
X1099480D01*
X1077300Y1112450D01*
Y1112440D01*
X1076490Y1111630D01*
Y1106650D01*
X1076500Y1106640D01*
Y1020480D01*
X1085980Y1011000D01*
G01X1146100Y1142200D02*
X1142520Y1145780D01*
X1137480D01*
X1133600Y1141900D01*
X1133590D01*
X1129490Y1137800D01*
X1098410D01*
X1098240Y1137630D01*
X1098230D01*
X1074300Y1113700D01*
Y1113690D01*
X1073490Y1112880D01*
Y1105400D01*
X1073500Y1105390D01*
Y1010980D01*
X1085980Y998500D01*
G01X1289800Y1064800D02*
X1283100Y1058100D01*
X1248280D01*
X1242500Y1052320D01*
Y1052310D01*
X1238990Y1048800D01*
X1153550D01*
X1147400Y1054950D01*
X1140560D01*
X1134510Y1061000D01*
X1119640D01*
X1116360Y1064300D01*
X1090700D01*
X1087400Y1067600D01*
G01X1297100Y1063850D02*
X1288360Y1055100D01*
X1249530D01*
X1245500Y1051070D01*
Y1051060D01*
X1240240Y1045800D01*
X1152300D01*
X1146150Y1051950D01*
X1139310D01*
X1133260Y1058000D01*
X1118390D01*
X1115110Y1061300D01*
X1093500D01*
X1087700Y1055500D01*
G01X1308400Y1057900D02*
X1296100D01*
X1275000Y1036800D01*
X1150200D01*
X1144220Y1030820D01*
X1112800D01*
G01X1146000Y1126200D02*
X1133100D01*
X1130670Y1128630D01*
X1101980D01*
X1083300Y1109950D01*
Y1109940D01*
X1082500Y1109140D01*
Y1039980D01*
X1085980Y1036500D01*
G01X1087300Y1080800D02*
Y1085320D01*
X1086300Y1086320D01*
Y1108700D01*
X1103230Y1125630D01*
X1128700D01*
X1133130Y1121200D01*
X1133430D01*
X1133730Y1120900D01*
X1138800D01*
G01X1089700Y1188400D02*
X1111000Y1167100D01*
X1142900D01*
X1167600Y1142400D01*
G01X1089700Y1163000D02*
X1134080D01*
X1136980Y1160100D01*
X1141500D01*
G01X1319800Y1057400D02*
Y1049870D01*
X1311430Y1041500D01*
X1294600D01*
X1280900Y1027800D01*
X1155900D01*
X1136100Y1008000D01*
Y982260D01*
X1132520Y978680D01*
X1128000D01*
G01X1179200Y1017000D02*
X1175900D01*
X1167100Y1008200D01*
X1153700D01*
G01X1140050Y1074300D02*
X1143250Y1071100D01*
Y1067450D01*
X1148980Y1061720D01*
X1148990D01*
X1149760Y1060950D01*
X1149900D01*
X1156050Y1054800D01*
X1236480D01*
X1245780Y1064100D01*
X1245790D01*
X1248190Y1066500D01*
X1248200D01*
X1250500Y1068800D01*
X1271730D01*
X1274030Y1066500D01*
X1279100D01*
G01X1269200Y1063500D02*
X1249440D01*
X1247040Y1061100D01*
X1247030D01*
X1237730Y1051800D01*
X1154800D01*
X1148650Y1057950D01*
X1148510D01*
X1147740Y1058720D01*
X1144280D01*
X1140700Y1062300D01*
G01X1140050Y1047200D02*
X1146520D01*
X1150920Y1042800D01*
X1241500D01*
X1248300Y1049600D01*
X1260300D01*
G01X1140050Y1036700D02*
X1144570D01*
X1147670Y1039800D01*
X1246400D01*
X1250580Y1043980D01*
G01X1158100Y1142600D02*
Y1133920D01*
X1164500Y1127520D01*
Y1087170D01*
X1185780Y1065890D01*
X1185790D01*
X1187280Y1064400D01*
X1215980D01*
X1216980Y1063400D01*
X1221500D01*
G01X1175700Y1009000D02*
X1181300D01*
X1197100Y1024800D01*
X1282500D01*
X1296200Y1038500D01*
X1312680D01*
X1325900Y1051720D01*
Y1064000D01*
G01X1231200Y1063600D02*
X1226500Y1068300D01*
X1187630D01*
X1187040Y1068890D01*
X1187030D01*
X1167500Y1088420D01*
Y1135640D01*
X1167600Y1135740D01*
Y1142400D01*
G01X1390780Y985500D02*
X1386260D01*
X1386160Y985600D01*
X1385710D01*
X1382320Y989000D01*
Y989280D01*
X1364300Y1007300D01*
Y1060600D01*
X1362700Y1062200D01*
X1345560D01*
X1335860Y1071900D01*
X1188270D01*
X1170500Y1089670D01*
Y1134390D01*
X1174020Y1137910D01*
Y1148820D01*
X1177600Y1152400D01*
G01X1390230Y1100000D02*
X1386650Y1096420D01*
Y1095940D01*
X1383300Y1092600D01*
Y1092590D01*
X1382900Y1092190D01*
Y1080510D01*
X1380190Y1077800D01*
X1361550D01*
X1356450Y1082900D01*
X1341450D01*
X1339460Y1080900D01*
X1192020D01*
X1179500Y1093420D01*
Y1130640D01*
X1183020Y1134160D01*
Y1134170D01*
X1183820Y1134960D01*
X1185600Y1136700D01*
Y1136760D01*
X1187700Y1138850D01*
Y1140420D01*
X1190400Y1143130D01*
Y1160400D01*
G01X1184000Y1165700D02*
Y1160630D01*
X1184900Y1159730D01*
Y1141870D01*
X1184700Y1141660D01*
Y1140100D01*
X1182600Y1138010D01*
Y1137970D01*
X1181710Y1137100D01*
X1180020Y1135420D01*
Y1135410D01*
X1176500Y1131890D01*
Y1092170D01*
X1190770Y1077900D01*
X1340710D01*
X1342700Y1079900D01*
X1355200D01*
X1360290Y1074800D01*
X1381440D01*
X1385900Y1079260D01*
Y1087700D01*
X1388600Y1090400D01*
G01X1390780Y998200D02*
X1367500Y1021480D01*
Y1061500D01*
X1367300Y1061700D01*
Y1061850D01*
X1363950Y1065200D01*
X1363940D01*
X1363840Y1065300D01*
X1346710D01*
X1337110Y1074900D01*
X1189520D01*
X1173500Y1090920D01*
Y1133140D01*
X1177020Y1136660D01*
Y1136670D01*
X1179300Y1138950D01*
Y1138960D01*
X1179600Y1139250D01*
Y1142500D01*
G01X1299500Y1091800D02*
X1296300Y1088600D01*
X1296200D01*
X1294500Y1086900D01*
X1276110D01*
X1264410Y1098600D01*
X1191400D01*
G01X1303100Y1085700D02*
X1298580D01*
X1296780Y1083900D01*
X1200700D01*
X1196600Y1088000D01*
G01X1177500Y1175300D02*
Y1160800D01*
G01X1206600Y1093000D02*
X1252800D01*
G01X1277300Y992400D02*
X1315000Y954700D01*
X1388890D01*
X1437200Y1003010D01*
Y1040000D01*
X1441820Y1044620D01*
Y1045820D01*
X1445400Y1049400D01*
G01Y1062100D02*
X1441820Y1058520D01*
X1440820D01*
X1433100Y1050800D01*
Y1009400D01*
X1381400Y957700D01*
X1317040D01*
X1304100Y970640D01*
Y979300D01*
X1290400Y993000D01*
G01X1314900Y1230300D02*
X1309500Y1224900D01*
X1307000D01*
X1293180Y1211080D01*
X1277390D01*
G01X1307100Y1229790D02*
X1303900Y1226590D01*
X1303020D01*
X1293030Y1216600D01*
X1275700D01*
X1271120Y1212020D01*
Y1211100D01*
G01X1344900Y1074600D02*
X1348480Y1071020D01*
X1349080D01*
X1351800Y1068300D01*
X1397300D01*
X1399300Y1066300D01*
Y1047300D01*
X1389000Y1037000D01*
G01X1353000Y1074600D02*
X1356200Y1071400D01*
X1403200D01*
X1404000Y1070600D01*
Y1032460D01*
X1406300Y1030160D01*
Y1023730D01*
X1412530Y1017500D01*
X1417600D01*
G01X1390800Y1076500D02*
Y1081020D01*
X1404000Y1094220D01*
Y1139170D01*
X1396400Y1146760D01*
X1396390D01*
X1389960Y1153200D01*
X1383000D01*
G01X1418000Y1004900D02*
X1424400Y1011300D01*
Y1020100D01*
X1421700Y1022800D01*
X1417910D01*
X1407000Y1033710D01*
Y1140420D01*
X1397650Y1149760D01*
X1397640D01*
X1391210Y1156200D01*
X1391200D01*
X1388100Y1159300D01*
X1382840D01*
X1380390Y1161750D01*
X1380380D01*
X1375850Y1166280D01*
Y1166290D01*
X1373300Y1168840D01*
Y1190880D01*
X1373400Y1190980D01*
Y1195500D01*
G01X1417800Y1042800D02*
X1412300Y1048300D01*
Y1084600D01*
X1433200Y1105500D01*
Y1118440D01*
X1410000Y1141640D01*
Y1141670D01*
X1398900Y1152760D01*
X1398890D01*
X1392460Y1159200D01*
X1392450D01*
X1389350Y1162300D01*
X1384090D01*
X1381640Y1164750D01*
X1381630D01*
X1378850Y1167530D01*
Y1171470D01*
X1378900Y1171520D01*
Y1176400D01*
G01X1384100Y1209700D02*
Y1190740D01*
X1387800Y1187040D01*
Y1176580D01*
X1393080Y1171300D01*
X1393100D01*
X1396200Y1168200D01*
X1396210D01*
X1402640Y1161760D01*
X1402650D01*
X1419000Y1145420D01*
Y1145390D01*
X1442200Y1122190D01*
Y1122180D01*
X1443800Y1120580D01*
Y1120570D01*
X1443900Y1120470D01*
Y1066850D01*
X1445400Y1065350D01*
Y1062100D01*
G01X1417800Y1030400D02*
X1423100Y1035700D01*
Y1048590D01*
X1438400Y1063890D01*
Y1063900D01*
X1440800Y1066300D01*
Y1119330D01*
X1439200Y1120930D01*
Y1120940D01*
X1416000Y1144140D01*
Y1144170D01*
X1401400Y1158760D01*
X1401390D01*
X1394960Y1165200D01*
X1394950D01*
X1391850Y1168300D01*
X1391830D01*
X1383900Y1176230D01*
Y1179600D01*
X1379300Y1184200D01*
G01X1417800Y1080600D02*
X1437000Y1099800D01*
Y1118880D01*
X1436200Y1119680D01*
Y1119690D01*
X1413000Y1142890D01*
Y1142920D01*
X1400150Y1155760D01*
X1400140D01*
X1393710Y1162200D01*
X1393700D01*
X1390600Y1165300D01*
X1390580D01*
X1389580Y1166300D01*
X1386800D01*
X1383600Y1169500D01*
G01X1394600Y1192800D02*
Y1178300D01*
X1398700Y1174200D01*
X1398710D01*
X1405140Y1167760D01*
X1405150D01*
X1425000Y1147920D01*
Y1147890D01*
X1448200Y1124690D01*
Y1124680D01*
X1449800Y1123080D01*
Y1123070D01*
X1449900Y1122970D01*
Y1069350D01*
X1453700Y1065550D01*
Y1058650D01*
X1450700Y1055650D01*
Y1016750D01*
X1444850Y1010900D01*
G01X1395500Y1203100D02*
X1400000Y1198600D01*
Y1177160D01*
X1406390Y1170760D01*
X1406400D01*
X1428000Y1149170D01*
Y1149140D01*
X1451200Y1125940D01*
Y1125930D01*
X1452800Y1124330D01*
Y1124320D01*
X1452900Y1124220D01*
Y1070600D01*
X1456700Y1066800D01*
Y1057400D01*
X1453700Y1054400D01*
Y1007050D01*
X1444850Y998200D01*
G01X1390300Y1215100D02*
Y1210580D01*
X1389000Y1209280D01*
Y1190090D01*
X1391600Y1187490D01*
Y1177030D01*
X1394330Y1174300D01*
X1394350D01*
X1397450Y1171200D01*
X1397460D01*
X1403890Y1164760D01*
X1403900D01*
X1422000Y1146670D01*
Y1146640D01*
X1445200Y1123440D01*
Y1123430D01*
X1446800Y1121830D01*
Y1121820D01*
X1446900Y1121720D01*
Y1068100D01*
X1450700Y1064300D01*
Y1059900D01*
X1445400Y1054610D01*
Y1049400D01*
G54D16*
G01X1346200Y1034200D02*
X1325450Y1013450D01*
Y998370D01*
X1325380Y998300D01*
Y987530D01*
X1343690Y969220D01*
X1351980D01*
G01X1345600Y1054800D02*
X1346200Y1054200D01*
Y1034200D01*
M02*
