G04 ================== begin FILE IDENTIFICATION RECORD ==================*
G04 Layout Name:  C:/DesigSync_WORKDIR/evm/em/CC2538_EM/Cadence/CC2538EM.brd*
G04 Film Name:    Layer2*
G04 File Format:  Gerber RS274X*
G04 File Origin:  Cadence Allegro 16.5-S010*
G04 Origin Date:  Mon Aug 27 15:01:23 2012*
G04 *
G04 Layer:  VIA CLASS/L2*
G04 Layer:  PIN/L2*
G04 Layer:  ETCH/L2*
G04 *
G04 Offset:    (0.000 0.000)*
G04 Mirror:    No*
G04 Mode:      Positive*
G04 Rotation:  0*
G04 FullContactRelief:  No*
G04 UndefLineWidth:     0.100*
G04 ================== end FILE IDENTIFICATION RECORD ====================*
%FSLAX44Y44*MOMM*%
%IR0*IPPOS*OFA0.00000B0.00000*MIA0B0*SFA1.00000B1.00000*%
%ADD12C,1.45*%
%ADD11C,.099*%
%ADD10C,.5*%
%ADD13C,.6*%
%ADD15C,1.806*%
%ADD16C,1.754*%
%ADD14C,.758*%
G75*
%LPD*%
G75*
G36*
G01X1063790Y1327010D02*
G02X1064500Y1327300I705J-711D01*
G01X1464000D01*
G02X1464710Y1327010I5J-1001D01*
G02X1465000Y1326300I-711J-705D01*
G01Y901000D01*
G02X1464000Y900000I-1000J0D01*
G01X1215600D01*
G02X1214600Y901000I0J1000D01*
G01Y917000D01*
G03X1213600Y918000I-1000J0D01*
G01X1128500D01*
G03X1127500Y917000I0J-1000D01*
G01Y901000D01*
G02X1126500Y900000I-1000J0D01*
G01X1064500D01*
G02X1063500Y901000I0J1000D01*
G01Y1326300D01*
G02X1063790Y1327010I1001J5D01*
G37*
%LPC*%
G75*
G36*
G01X1362740Y971820D02*
G02X1357370Y966470I-2740J-2620D01*
G01X1357220Y966610D01*
X1356880Y966750D01*
X1355090Y966760D01*
X1354740Y966620D01*
X1354600Y966480D01*
G02X1349240Y971840I-2620J2740D01*
G03X1349520Y972530I-721J694D01*
G01Y973910D01*
G03X1349240Y974600I-1001J-4D01*
G02X1354610Y979950I2740J2620D01*
G01X1354760Y979810D01*
X1355100Y979670D01*
X1356890Y979660D01*
X1357240Y979800D01*
X1357380Y979940D01*
G02X1362740Y974580I2620J-2740D01*
G03X1362460Y973890I721J-694D01*
G01Y972510D01*
G03X1362740Y971820I1001J4D01*
G37*
G36*
G01X1179130Y1010620D02*
G02X1174570Y1012620I-3429J-1619D01*
G03X1175770Y1015380I-605J1904D01*
G02X1180330Y1013380I3429J1619D01*
G03X1179130Y1010620I605J-1904D01*
G37*
G36*
G01X1355890Y1027710D02*
X1340810D01*
G02X1339810Y1028710I0J1000D01*
G01Y1049010D01*
X1339710D01*
Y1060790D01*
X1339810D01*
Y1060890D01*
X1354680D01*
G03X1355680Y1061890I0J1000D01*
G01Y1068850D01*
G03X1355340Y1069600I-1000J-1D01*
G01X1354060Y1070740D01*
X1353660Y1070860D01*
X1353450Y1070840D01*
G02X1350350Y1071890I-454J3762D01*
G03X1349650Y1072180I-705J-711D01*
G01X1348250D01*
G03X1347550Y1071890I5J-1001D01*
G02Y1077310I-2650J2710D01*
G03X1348250Y1077020I705J711D01*
G01X1349650D01*
G03X1350350Y1077310I-5J1001D01*
G02X1353450Y1078360I2646J-2712D01*
G01X1353660Y1078340D01*
X1354060Y1078460D01*
X1355340Y1079600D01*
G03X1355680Y1080350I-660J751D01*
G01Y1084560D01*
G02X1355970Y1085270I1002J5D01*
G01X1360730Y1090030D01*
G02X1361440Y1090320I705J-712D01*
G01X1362610D01*
G03X1363610Y1091320I0J1000D01*
G01Y1121490D01*
G02X1364610Y1122490I1000J0D01*
G01X1379690D01*
G02X1380690Y1121490I0J-1000D01*
G01X1380590Y1081110D01*
G02X1379590Y1080110I-1000J0D01*
G01X1366070D01*
G03X1365070Y1079110I0J-1000D01*
G01Y1070010D01*
G02X1364780Y1069300I-1002J-5D01*
G01X1364720Y1069250D01*
Y1055940D01*
G02X1364430Y1055230I-1002J-5D01*
G01X1359370Y1050170D01*
G02X1358660Y1049880I-705J712D01*
G01X1357830D01*
G03X1356830Y1048880I0J-1000D01*
G01X1356890Y1028710D01*
G02X1355890Y1027710I-1000J0D01*
G37*
G36*
G01X1381220Y1051970D02*
G02X1381150Y1046490I2581J-2773D01*
G03X1378380Y1046530I-1406J-1424D01*
G02X1378450Y1052010I-2581J2773D01*
G03X1381220Y1051970I1406J1424D01*
G37*
G36*
G01X1310630Y1052430D02*
X1310760Y1052280D01*
G02X1305370Y1052620I-2862J-2481D01*
G01X1305510Y1052750D01*
X1305680Y1053100D01*
X1305790Y1054900D01*
X1305670Y1055270D01*
X1305540Y1055420D01*
G02X1308280Y1061690I2862J2483D01*
G01X1308480D01*
X1308840Y1061850D01*
X1310080Y1063190D01*
X1310220Y1063550D01*
X1310210Y1063760D01*
G02X1317760Y1063430I3788J136D01*
G01X1317730Y1063210D01*
X1317860Y1062810D01*
X1319160Y1061360D01*
X1319540Y1061190D01*
X1319760D01*
G02X1320040Y1061180I5J-3789D01*
G01X1320270Y1061170D01*
X1320690Y1061340D01*
X1322050Y1062810D01*
X1322180Y1063240D01*
X1322150Y1063460D01*
G02X1325660Y1060220I3750J541D01*
G01X1325430Y1060230D01*
X1325010Y1060060D01*
X1323650Y1058590D01*
X1323520Y1058160D01*
X1323550Y1057940D01*
G02X1316040Y1057870I-3750J-543D01*
G01X1316070Y1058090D01*
X1315940Y1058490D01*
X1314640Y1059940D01*
X1314260Y1060110D01*
X1314040D01*
G02X1313210Y1060190I-53J3791D01*
G03X1312040Y1058940I-207J-979D01*
G02X1310930Y1055080I-3642J-1042D01*
G01X1310790Y1054950D01*
X1310620Y1054600D01*
X1310510Y1052800D01*
X1310630Y1052430D01*
G37*
G36*
G01X1378390Y1059130D02*
G02Y1064670I-2590J2770D01*
G03X1381110I1360J1463D01*
G02Y1059130I2590J-2770D01*
G03X1378390I-1360J-1463D01*
G37*
G36*
G01X1142600Y1120930D02*
X1142580Y1120700D01*
G02X1139730Y1124570I-3782J199D01*
G01X1139950Y1124520D01*
X1140380Y1124600D01*
X1142000Y1125790D01*
X1142200Y1126170D01*
X1142220Y1126400D01*
G02X1142370Y1127280I3783J-192D01*
G03X1140840Y1128380I-959J280D01*
G02X1135800Y1133970I-2168J3112D01*
G03X1135850Y1136530I-1512J1310D01*
G02X1140060Y1142470I2956J2367D01*
G01X1140250Y1142410D01*
X1140620Y1142420D01*
X1142250Y1143160D01*
X1142510Y1143430D01*
X1142580Y1143610D01*
G02X1144220Y1145490I3517J-1413D01*
G01X1144430Y1145610D01*
X1144690Y1146010D01*
X1144890Y1148130D01*
X1144710Y1148580D01*
X1144530Y1148740D01*
G02X1148880Y1148320I2472J2871D01*
G01X1148670Y1148200D01*
X1148410Y1147800D01*
X1148210Y1145680D01*
X1148390Y1145230D01*
X1148570Y1145070D01*
G02X1144840Y1138630I-2476J-2866D01*
G01X1144650Y1138690D01*
X1144280Y1138680D01*
X1142650Y1137940D01*
X1142390Y1137670D01*
X1142320Y1137490D01*
G02X1141680Y1136430I-3523J1404D01*
G03X1141630Y1133870I1512J-1310D01*
G02X1142470Y1131680I-2944J-2385D01*
G01X1142480Y1131450D01*
X1142690Y1131060D01*
X1144330Y1129870D01*
X1144770Y1129790D01*
X1144990Y1129850D01*
G02X1145070Y1122530I1014J-3649D01*
G01X1144850Y1122580D01*
X1144420Y1122500D01*
X1142800Y1121310D01*
X1142600Y1120930D01*
G37*
G36*
G01X1164540Y1144630D02*
G02X1164450Y1140300I3062J-2230D01*
G03X1161160Y1140370I-1669J-1106D01*
G02X1161250Y1144700I-3062J2230D01*
G03X1164540Y1144630I1669J1106D01*
G37*
G36*
G01X1180020Y1155320D02*
X1180180Y1155180D01*
G02X1174960Y1155120I-2578J-2779D01*
G01X1175110Y1155260D01*
X1175260Y1155640D01*
X1175240Y1157510D01*
X1175080Y1157880D01*
X1174920Y1158020D01*
G02X1178000Y1164560I2577J2782D01*
G01X1178200Y1164530D01*
X1178580Y1164630D01*
X1180020Y1165720D01*
X1180220Y1166050D01*
X1180250Y1166250D01*
G02X1187780Y1166000I3751J-547D01*
G01X1187790Y1165800D01*
X1187980Y1165440D01*
X1189400Y1164260D01*
X1189790Y1164150D01*
X1189990Y1164170D01*
G02X1186620Y1160100I409J-3769D01*
G01X1186610Y1160300D01*
X1186420Y1160660D01*
X1185000Y1161840D01*
X1184610Y1161950D01*
X1184410Y1161930D01*
G02X1183500Y1161940I-414J3769D01*
G01X1183300Y1161970D01*
X1182920Y1161870D01*
X1181480Y1160780D01*
X1181280Y1160450D01*
X1181250Y1160250D01*
G02X1180140Y1158080I-3750J549D01*
G01X1179990Y1157940D01*
X1179840Y1157560D01*
X1179860Y1155690D01*
X1180020Y1155320D01*
G37*
G36*
G01X1384030Y1173270D02*
X1384230Y1173240D01*
G02X1379890Y1170280I-630J-3739D01*
G01X1379930Y1170480D01*
X1379850Y1170880D01*
X1378810Y1172410D01*
X1378470Y1172630D01*
X1378270Y1172660D01*
G02X1376240Y1179100I629J3738D01*
G01X1376370Y1179230D01*
X1376520Y1179570D01*
X1376610Y1181290D01*
X1376490Y1181650D01*
X1376370Y1181790D01*
G02X1381960Y1181500I2928J2409D01*
G01X1381830Y1181370D01*
X1381680Y1181030D01*
X1381590Y1179310D01*
X1381710Y1178950D01*
X1381830Y1178810D01*
G02X1382610Y1175620I-2930J-2407D01*
G01X1382570Y1175420D01*
X1382650Y1175020D01*
X1383690Y1173490D01*
X1384030Y1173270D01*
G37*
G36*
G01X1387880Y1209460D02*
G02X1384380Y1213480I-3782J241D01*
G03X1386520Y1215340I144J1995D01*
G02X1390020Y1211320I3782J-241D01*
G03X1387880Y1209460I-144J-1995D01*
G37*
G36*
G01X1315380Y1223790D02*
X1315550Y1223600D01*
G02X1311290Y1224620I-2851J-2499D01*
G01X1311520Y1224710D01*
X1311840Y1225070D01*
X1312330Y1227150D01*
X1312220Y1227610D01*
X1312050Y1227800D01*
G02X1311960Y1227910I2887J2454D01*
G03X1310330Y1227810I-780J-627D01*
G02X1309470Y1232750I-3230J1982D01*
G01X1309620Y1232630D01*
X1309970Y1232520D01*
X1311700Y1232630D01*
X1312030Y1232790D01*
X1312160Y1232920D01*
G02X1316310Y1226780I2738J-2622D01*
G01X1316080Y1226690D01*
X1315760Y1226330D01*
X1315270Y1224250D01*
X1315380Y1223790D01*
G37*
G36*
G01X1292570Y1067390D02*
G03X1295090Y1067060I1461J1366D01*
G02X1294330Y1061260I2010J-3213D01*
G03X1291810Y1061590I-1461J-1366D01*
G02X1292570Y1067390I-2010J3213D01*
G37*
G36*
G01X1299300Y1086660D02*
X1298500Y1088010D01*
X1298260Y1088220D01*
X1298100Y1088280D01*
G02X1303260Y1091330I1400J3521D01*
G01X1303240Y1091160D01*
X1303300Y1090840D01*
X1304100Y1089490D01*
X1304340Y1089280D01*
X1304500Y1089220D01*
X1304520D01*
G03X1305140Y1089170I386J922D01*
G01X1306070Y1089410D01*
G02X1306120Y1089480I3107J-2166D01*
G01X1306220Y1089620D01*
X1306310Y1089930D01*
X1306270Y1091480D01*
X1306160Y1091780D01*
X1306050Y1091920D01*
G02X1312060Y1092070I2947J2381D01*
G01X1311960Y1091930D01*
X1311870Y1091620D01*
X1311910Y1090070D01*
X1312020Y1089770D01*
X1312130Y1089630D01*
G02X1307760Y1083730I-2948J-2385D01*
G03X1307140Y1083780I-386J-922D01*
G01X1306550Y1083620D01*
G03X1306030Y1083290I248J-966D01*
G02X1299340Y1086170I-2929J2407D01*
G01X1299360Y1086340D01*
X1299300Y1086660D01*
G37*
G36*
G01X1273610Y1213960D02*
G03X1274920Y1213950I661J751D01*
G02X1274900Y1208220I2470J-2874D01*
G03X1273590Y1208230I-661J-751D01*
G02X1273610Y1213960I-2470J2874D01*
G37*
G54D15*
X1417820Y1115880D03*
Y969820D03*
X1338390Y992910D03*
X1192330D03*
X1113020Y1115880D03*
Y969820D03*
G54D16*
X1089700Y1188400D03*
Y1163000D03*
G54D14*
X1445400Y1049400D03*
Y1062100D03*
X1444850Y998200D03*
Y1010900D03*
X1395500Y1203100D03*
X1394600Y1192800D03*
X1417800Y1080600D03*
Y1042800D03*
X1417600Y1017500D03*
X1418000Y1004900D03*
X1417800Y1030400D03*
X1373400Y1195500D03*
X1383000Y1153200D03*
X1388600Y1090400D03*
X1390230Y1100000D03*
X1389000Y1037000D03*
X1390800Y1076500D03*
X1390780Y998200D03*
Y985500D03*
X1334200Y1164500D03*
X1331500Y1110300D03*
X1279700Y1232900D03*
X1293270Y1231910D03*
X1286500Y1092200D03*
X1260300Y1049600D03*
X1269200Y1063500D03*
X1279100Y1066500D03*
X1266000Y992600D03*
X1277300Y992400D03*
X1290400Y993000D03*
X1284600Y965880D03*
X1230900Y1231100D03*
X1226400Y1117900D03*
X1252800Y1093000D03*
X1250580Y1043980D03*
X1221500Y1063400D03*
X1231200Y1063600D03*
X1253100Y992800D03*
X1259000Y965880D03*
X1234700Y914400D03*
X1203900Y1184900D03*
X1177500Y1175300D03*
X1208320Y1134500D03*
X1179600Y1142500D03*
X1196600Y1088000D03*
X1191400Y1098600D03*
X1206600Y1093000D03*
X1141500Y1160100D03*
X1140050Y1036700D03*
Y1047200D03*
X1140700Y1062300D03*
X1140050Y1074300D03*
X1153700Y1008200D03*
X1147600Y970900D03*
X1128000Y978680D03*
X1087300Y1080800D03*
X1085980Y1036500D03*
X1087700Y1055500D03*
X1087400Y1067600D03*
X1085980Y998500D03*
Y1011000D03*
Y1024000D03*
X1112300Y992500D03*
X1112800Y1030820D03*
X1113300Y1016740D03*
%LPD*%
G75*
G36*
G01X1342000Y1050300D02*
G02X1341000Y1051300I0J1000D01*
G01Y1058500D01*
G02X1342000Y1059500I1000J0D01*
G01X1354400D01*
G02X1355400Y1058500I0J-1000D01*
G01Y1051300D01*
G02X1354400Y1050300I-1000J0D01*
G01X1342000D01*
G37*
G36*
G01X1342100Y1029000D02*
G02X1341100Y1030000I0J1000D01*
G01Y1058600D01*
G02X1342100Y1059600I1000J0D01*
G01X1354500D01*
G02X1355500Y1058600I0J-1000D01*
G01X1355600Y1030000D01*
G02X1354600Y1029000I-1000J0D01*
G01X1342100D01*
G37*
G36*
G01X1379300Y1082400D02*
G02X1378300Y1081400I-1000J0D01*
G01X1365900D01*
G02X1364900Y1082400I0J1000D01*
G01Y1120200D01*
G02X1365900Y1121200I1000J0D01*
G01X1378400D01*
G02X1379400Y1120200I0J-1000D01*
G01X1379300Y1082400D01*
G37*
G54D10*
X1071870Y905560D03*
X1068570Y917560D03*
Y927560D03*
Y937720D03*
X1068550Y957690D03*
Y977850D03*
Y967690D03*
X1068570Y947720D03*
X1068560Y997880D03*
X1067550Y1028150D03*
Y1017990D03*
Y1007990D03*
X1068550Y987850D03*
X1067550Y1038150D03*
X1067650Y1048190D03*
Y1068350D03*
Y1058190D03*
Y1088590D03*
Y1108750D03*
Y1098590D03*
Y1118750D03*
Y1078350D03*
X1067660Y1128780D03*
X1069320Y1140080D03*
Y1150080D03*
Y1160240D03*
X1069330Y1180270D03*
X1069170Y1190050D03*
Y1200050D03*
X1069320Y1170240D03*
X1069150Y1230310D03*
Y1220150D03*
Y1240310D03*
Y1250340D03*
Y1210150D03*
X1068990Y1270130D03*
Y1290280D03*
Y1280280D03*
Y1260130D03*
X1068960Y1320470D03*
Y1310310D03*
X1069000Y1300320D03*
X1083470Y914760D03*
X1105470Y913260D03*
X1117070Y905560D03*
X1096870Y905260D03*
X1084970Y905560D03*
X1083170Y928760D03*
X1108770Y928160D03*
X1098070Y939460D03*
X1088570Y954360D03*
X1109070Y953160D03*
X1084670Y969560D03*
X1100000Y978680D03*
X1113300Y1016740D03*
X1112300Y992500D03*
X1085980Y1024000D03*
Y1011000D03*
Y998500D03*
X1087400Y1067600D03*
X1087700Y1055500D03*
X1112800Y1030820D03*
X1085980Y1036500D03*
X1100000Y1107300D03*
X1087300Y1080800D03*
X1112300Y1144100D03*
X1079570Y1135570D03*
X1116300Y1189000D03*
X1100970Y1224270D03*
X1088470Y1236170D03*
X1081370Y1217070D03*
X1102000Y1213100D03*
X1112600Y1279500D03*
X1111800Y1297500D03*
X1100370Y1267670D03*
X1092670Y1285570D03*
X1116300Y1257500D03*
X1090870Y1255770D03*
X1115110Y1323400D03*
X1095110D03*
X1105110D03*
X1086410D03*
X1076910D03*
X1125600Y932100D03*
X1127100Y956400D03*
X1138500Y967220D03*
X1147300Y981580D03*
X1128000Y978680D03*
X1147600Y970900D03*
X1153700Y1008200D03*
X1140050Y1074300D03*
X1140700Y1062300D03*
X1140050Y1047200D03*
Y1036700D03*
X1147600Y1106700D03*
X1145700Y1082400D03*
X1134870Y1111870D03*
X1155070Y1112770D03*
X1153670Y1076170D03*
X1141500Y1160100D03*
X1147000Y1151610D03*
X1158100Y1142600D03*
X1138800Y1120900D03*
X1146000Y1126200D03*
X1138680Y1131500D03*
X1138800Y1138900D03*
X1146100Y1142200D03*
X1130100Y1206700D03*
X1138470Y1177270D03*
X1137800Y1189300D03*
X1121300Y1178400D03*
X1133070Y1227270D03*
X1137730Y1245100D03*
X1151500Y1231330D03*
X1119970Y1243870D03*
X1121770Y1217070D03*
X1153600Y1217900D03*
X1138830Y1213100D03*
X1145200Y1219520D03*
X1130300Y1277800D03*
X1151500Y1287330D03*
Y1258870D03*
X1124500Y1309100D03*
X1156240Y1323170D03*
X1146240D03*
X1136240D03*
X1125110Y1323400D03*
X1151500Y1314870D03*
X1137730Y1301100D03*
X1195420Y974500D03*
X1194900Y1010400D03*
X1164800Y1019220D03*
X1179200Y1017000D03*
X1175700Y1009000D03*
X1179000Y1061200D03*
X1166170Y1065970D03*
X1198380Y1114900D03*
X1206600Y1093000D03*
X1191400Y1098600D03*
X1196600Y1088000D03*
X1177500Y1160800D03*
X1167600Y1142400D03*
X1198200Y1124500D03*
X1190400Y1160400D03*
X1179600Y1142500D03*
X1177600Y1152400D03*
X1208320Y1134500D03*
X1177500Y1175300D03*
X1189600Y1200100D03*
X1183570Y1189870D03*
X1196880Y1205500D03*
X1198400Y1190100D03*
X1198000Y1198000D03*
X1184000Y1165700D03*
X1203900Y1184900D03*
X1204600Y1222300D03*
X1193730Y1245100D03*
X1207400Y1231330D03*
X1188100Y1228800D03*
X1165270Y1245100D03*
X1169200Y1227600D03*
X1203700Y1212570D03*
X1179900Y1219720D03*
X1186470Y1213300D03*
X1207500Y1287330D03*
Y1258870D03*
X1206140Y1323070D03*
X1196140D03*
X1186240Y1323170D03*
X1176240D03*
X1166240D03*
X1193730Y1301100D03*
X1207500Y1314870D03*
X1165270Y1301100D03*
X1240020Y904700D03*
X1225010Y904710D03*
X1217650Y931950D03*
X1243330Y930500D03*
X1252200Y938920D03*
X1239800Y938680D03*
X1234700Y914400D03*
X1233610Y966110D03*
X1214750Y956450D03*
X1253100Y992800D03*
X1227940Y1018600D03*
X1231200Y1063600D03*
X1221500Y1063400D03*
X1250580Y1043980D03*
X1252800Y1093000D03*
X1226400Y1117900D03*
X1240380Y1156790D03*
X1250380D03*
X1250460Y1146750D03*
X1240460D03*
X1250430Y1136790D03*
X1240430D03*
X1250440Y1186750D03*
X1240440D03*
X1240450Y1176830D03*
X1250450D03*
X1250460Y1166900D03*
X1240460D03*
X1240870Y1226270D03*
X1241470Y1217170D03*
X1243200Y1245270D03*
X1236680Y1238800D03*
X1241820Y1232700D03*
X1221500Y1229500D03*
X1218480Y1223300D03*
X1218380Y1214800D03*
X1221270Y1245100D03*
X1230900Y1231100D03*
X1244500Y1272500D03*
X1235800Y1278300D03*
X1244000Y1302700D03*
X1234300Y1306800D03*
X1237300Y1318400D03*
X1221270Y1301000D03*
X1292000Y914000D03*
X1275500Y905000D03*
X1285070Y904690D03*
X1255090Y904740D03*
X1259000Y965880D03*
X1297110Y964990D03*
X1284600Y965880D03*
X1297110Y1020290D03*
X1290400Y993000D03*
X1277300Y992400D03*
X1266000Y992600D03*
X1289800Y1064800D03*
X1297100Y1063850D03*
X1279100Y1066500D03*
X1269200Y1063500D03*
X1260300Y1049600D03*
X1277700Y1093290D03*
X1286500Y1092200D03*
X1260380Y1156790D03*
X1270380D03*
X1290400Y1156770D03*
X1280400D03*
X1280480Y1146730D03*
X1290480D03*
X1270460Y1146750D03*
X1260460D03*
X1280450Y1136770D03*
X1290450D03*
X1270430Y1136790D03*
X1260430D03*
X1280460Y1186730D03*
X1290460D03*
X1270440Y1186750D03*
X1260440D03*
X1260450Y1176830D03*
X1270450D03*
X1290470Y1176810D03*
X1280470D03*
Y1166880D03*
X1290470D03*
X1270460Y1166900D03*
X1260460D03*
X1280470Y1252070D03*
X1268000Y1245270D03*
X1274720Y1238920D03*
X1272100Y1233220D03*
X1286500Y1232500D03*
X1293270Y1231910D03*
X1279700Y1232900D03*
X1277390Y1211080D03*
X1271120Y1211100D03*
X1287070Y1271070D03*
X1290970Y1285070D03*
X1263700Y1287770D03*
X1263600Y1274830D03*
X1270220Y1281300D03*
X1282300Y1310800D03*
X1267060Y1322950D03*
X1285760D03*
X1275760D03*
X1295760D03*
X1287370Y1298970D03*
X1263700Y1300330D03*
Y1313270D03*
X1270220Y1306800D03*
X1330010Y904760D03*
X1315160Y904720D03*
X1300080Y904680D03*
X1337900Y1007700D03*
X1313370Y1026470D03*
X1333570Y1056770D03*
X1328270Y1040470D03*
X1307900Y1049800D03*
X1308400Y1057900D03*
X1314000Y1063900D03*
X1319800Y1057400D03*
X1325900Y1064000D03*
X1304370Y1116070D03*
X1311370Y1114070D03*
X1309000Y1094300D03*
X1309180Y1087250D03*
X1299500Y1091800D03*
X1303100Y1085700D03*
X1331500Y1110300D03*
X1334010Y1120200D03*
X1332420Y1174200D03*
X1332220Y1194400D03*
X1334200Y1164500D03*
X1312930Y1244200D03*
X1319400Y1237780D03*
X1326180Y1230800D03*
X1332700Y1224330D03*
X1299870Y1245770D03*
X1299800Y1233610D03*
X1312700Y1221100D03*
X1314900Y1230300D03*
X1307100Y1229790D03*
X1341000Y1273400D03*
X1328300D03*
X1313900Y1295500D03*
X1330800Y1301900D03*
X1307400Y1313600D03*
X1305760Y1322950D03*
X1316890Y1322720D03*
X1326890D03*
X1336890D03*
X1299970Y1307270D03*
X1375060Y904740D03*
X1359990Y904710D03*
X1345170D03*
X1387600Y972700D03*
X1351980Y977220D03*
X1360000Y977200D03*
Y969200D03*
X1351980Y969220D03*
X1356300Y1021000D03*
X1348800Y1013700D03*
X1359300Y1009270D03*
X1351580Y1000500D03*
X1360100Y991730D03*
X1344900Y1074600D03*
X1353000D03*
X1345200Y1047100D03*
Y1040200D03*
X1345100Y1033000D03*
X1351800Y1033100D03*
Y1040000D03*
Y1047100D03*
X1351700Y1054800D03*
X1345600D03*
X1383800Y1049200D03*
X1383700Y1061900D03*
X1375800Y1049300D03*
Y1061900D03*
X1375600Y1115000D03*
X1368400Y1114900D03*
X1375400Y1107300D03*
X1368600Y1107200D03*
X1375300Y1100400D03*
X1368200D03*
X1375300Y1093100D03*
X1368100Y1093200D03*
X1368500Y1086300D03*
X1375100D03*
X1360170Y1161970D03*
X1367570Y1148970D03*
X1351170Y1145970D03*
X1360070Y1136770D03*
X1387400Y1139420D03*
X1383000Y1153200D03*
X1378900Y1176400D03*
X1379300Y1184200D03*
X1383600Y1169500D03*
X1373400Y1195500D03*
X1351500Y1240700D03*
X1349500Y1250900D03*
X1384100Y1209700D03*
X1361600Y1270900D03*
X1349910Y1259200D03*
X1384000Y1302600D03*
X1356890Y1322720D03*
X1386570Y1322760D03*
X1376570D03*
X1366570D03*
X1346890Y1322720D03*
X1349600Y1299200D03*
X1370300Y1300800D03*
X1416000Y917700D03*
X1420110Y904710D03*
X1405040Y904680D03*
X1390070Y904740D03*
X1412870Y937170D03*
X1420770Y957970D03*
X1430840Y977840D03*
X1390780Y985500D03*
X1417800Y1030400D03*
X1418000Y1004900D03*
X1390780Y998200D03*
X1417600Y1017500D03*
X1417800Y1042800D03*
X1389000Y1037000D03*
X1425710Y1107490D03*
X1390800Y1076500D03*
X1417800Y1080600D03*
X1390230Y1100000D03*
X1388600Y1090400D03*
X1396170Y1130900D03*
X1401470Y1209070D03*
X1421700Y1206200D03*
X1412470Y1190670D03*
X1421970Y1175770D03*
X1394600Y1192800D03*
X1395500Y1203100D03*
X1396600Y1232900D03*
X1422900Y1235300D03*
X1408870Y1242370D03*
X1405870Y1222170D03*
X1394000Y1243000D03*
X1389870Y1222170D03*
X1390300Y1215100D03*
X1405400Y1296200D03*
X1417200Y1262200D03*
X1416570Y1287570D03*
X1397570Y1285870D03*
X1403870Y1267070D03*
X1388400Y1313200D03*
X1406000Y1308700D03*
X1396570Y1322760D03*
X1406570D03*
X1417360Y1322790D03*
X1427360D03*
X1392500Y1299000D03*
X1459570Y910670D03*
X1450120Y904710D03*
X1435120D03*
X1460470Y938670D03*
Y930370D03*
X1433500Y954700D03*
X1460480Y968860D03*
X1460320Y978640D03*
X1446370Y973770D03*
X1460470Y958830D03*
Y948830D03*
X1447970Y951770D03*
X1460470Y1018030D03*
Y1008030D03*
X1460480Y1028060D03*
X1460470Y997870D03*
Y987870D03*
X1444850Y1010900D03*
Y998200D03*
X1461970Y1069030D03*
Y1058870D03*
Y1048870D03*
X1460320Y1037840D03*
X1445400Y1062100D03*
Y1049400D03*
X1461820Y1098840D03*
X1459020Y1119230D03*
Y1109230D03*
X1461980Y1089060D03*
X1461970Y1079030D03*
X1458870Y1159210D03*
X1459030Y1149420D03*
X1443370Y1150170D03*
X1459030Y1129390D03*
Y1139390D03*
Y1199530D03*
Y1189530D03*
Y1179370D03*
X1438670Y1188270D03*
X1440370Y1165070D03*
X1459030Y1169370D03*
X1440100Y1245300D03*
X1458860Y1239450D03*
Y1249450D03*
X1458870Y1219350D03*
Y1229350D03*
X1459040Y1209560D03*
X1442770Y1213870D03*
X1442170Y1276270D03*
X1458860Y1279640D03*
X1458700Y1289420D03*
X1458860Y1269600D03*
Y1259600D03*
X1440400Y1256000D03*
X1458700Y1309580D03*
X1447160Y1322790D03*
X1458360Y1320490D03*
X1437360Y1322790D03*
X1458700Y1299420D03*
G54D11*
X1113020Y969820D03*
Y1115880D03*
X1192330Y992910D03*
X1338390D03*
X1417820Y969820D03*
Y1115880D03*
G54D12*
X1089700Y1163000D03*
Y1188400D03*
G54D13*
G01X1351700Y1054800D02*
X1352100Y1054400D01*
G01D02*
X1357200D01*
X1360200Y1057400D01*
Y1071120D01*
X1360550Y1071470D01*
Y1077730D01*
X1360200Y1078080D01*
Y1083100D01*
X1362900Y1085800D01*
X1368000D01*
G01X1368500Y1086300D02*
X1368000Y1085800D01*
M02*
