G04 ================== begin FILE IDENTIFICATION RECORD ==================*
G04 Layout Name:  C:/DesigSync_WORKDIR/evm/em/CC2538_EM/Cadence/CC2538EM.brd*
G04 Film Name:    Layer1*
G04 File Format:  Gerber RS274X*
G04 File Origin:  Cadence Allegro 16.5-S010*
G04 Origin Date:  Mon Aug 27 15:01:23 2012*
G04 *
G04 Layer:  DRAWING FORMAT/ANTENNA_GROUND*
G04 Layer:  VIA CLASS/TOP*
G04 Layer:  PIN/TOP*
G04 Layer:  ETCH/TOP*
G04 *
G04 Offset:    (0.000 0.000)*
G04 Mirror:    No*
G04 Mode:      Positive*
G04 Rotation:  0*
G04 FullContactRelief:  No*
G04 UndefLineWidth:     0.100*
G04 ================== end FILE IDENTIFICATION RECORD ====================*
%FSLAX44Y44*MOMM*%
%IR0*IPPOS*OFA0.00000B0.00000*MIA0B0*SFA1.00000B1.00000*%
%AMMACRO26*
4,1,40,-.239,.5,
.239,.5,
.280218,.496131,
.320138,.485164,
.357547,.467431,
.391309,.443471,
.420397,.414013,
.443928,.379951,
.461186,.342321,
.471648,.302265,
.475,.262,
.475,-.262,
.471479,-.303249,
.460849,-.343261,
.443432,-.380818,
.419759,-.414781,
.390547,-.444116,
.356685,-.467934,
.319202,-.485509,
.279236,-.496309,
.239,-.5,
-.239,-.5,
-.280218,-.496131,
-.320138,-.485164,
-.357547,-.467431,
-.391309,-.443471,
-.420397,-.414013,
-.443928,-.379951,
-.461186,-.342321,
-.471648,-.302265,
-.475,-.262,
-.475,.262,
-.471479,.303249,
-.460849,.343261,
-.443432,.380818,
-.419759,.414781,
-.390547,.444116,
-.356685,.467934,
-.319202,.485509,
-.279236,.496309,
-.239,.5,
0.0*
%
%ADD26MACRO26*%
%ADD30R,1.X.5*%
%AMMACRO23*
4,1,40,.275,.135,
.275,-.135,
.272949,-.158443,
.266859,-.181173,
.256913,-.2025,
.243416,-.221776,
.226776,-.238416,
.2075,-.251913,
.186173,-.261859,
.163443,-.267949,
.14,-.27,
-.14,-.27,
-.163443,-.267949,
-.186173,-.261859,
-.2075,-.251913,
-.226776,-.238416,
-.243416,-.221776,
-.256913,-.2025,
-.266859,-.181173,
-.272949,-.158443,
-.275,-.135,
-.275,.135,
-.272949,.158443,
-.266859,.181173,
-.256913,.2025,
-.243416,.221776,
-.226776,.238416,
-.2075,.251913,
-.186173,.261859,
-.163443,.267949,
-.14,.27,
.14,.27,
.163443,.267949,
.186173,.261859,
.2075,.251913,
.226776,.238416,
.243416,.221776,
.256913,.2025,
.266859,.181173,
.272949,.158443,
.275,.135,
0.0*
%
%ADD23MACRO23*%
%AMMACRO18*
4,1,40,.135,-.275,
-.135,-.275,
-.158443,-.272949,
-.181173,-.266859,
-.2025,-.256913,
-.221776,-.243416,
-.238416,-.226776,
-.251913,-.2075,
-.261859,-.186173,
-.267949,-.163443,
-.27,-.14,
-.27,.14,
-.267949,.163443,
-.261859,.186173,
-.251913,.2075,
-.238416,.226776,
-.221776,.243416,
-.2025,.256913,
-.181173,.266859,
-.158443,.272949,
-.135,.275,
.135,.275,
.158443,.272949,
.181173,.266859,
.2025,.256913,
.221776,.243416,
.238416,.226776,
.251913,.2075,
.261859,.186173,
.267949,.163443,
.27,.14,
.27,-.14,
.267949,-.163443,
.261859,-.186173,
.251913,-.2075,
.238416,-.226776,
.221776,-.243416,
.2025,-.256913,
.181173,-.266859,
.158443,-.272949,
.135,-.275,
0.0*
%
%ADD18MACRO18*%
%ADD31O,.549X1.001*%
%ADD24C,1.801*%
%ADD12C,1.45*%
%ADD11C,.099*%
%AMMACRO16*
4,1,41,-.8,0.0,
-.8,-.35,
-.794683,-.410777,
-.778892,-.469707,
-.753109,-.525,
-.718116,-.574976,
-.674976,-.618116,
-.625,-.653109,
-.569707,-.678892,
-.510777,-.694683,
-.45,-.7,
.45,-.7,
.510777,-.694683,
.569707,-.678892,
.625,-.653109,
.674976,-.618116,
.718116,-.574976,
.753109,-.525,
.778892,-.469707,
.794683,-.410777,
.8,-.35,
.8,.35,
.794683,.410777,
.778892,.469707,
.753109,.525,
.718116,.574976,
.674976,.618116,
.625,.653109,
.569707,.678892,
.510777,.694683,
.45,.7,
-.45,.7,
-.510777,.694683,
-.569707,.678892,
-.625,.653109,
-.674976,.618116,
-.718116,.574976,
-.753109,.525,
-.778892,.469707,
-.794683,.410777,
-.8,.35,
-.8,0.0,
0.0*
%
%ADD16MACRO16*%
%ADD29R,6.599X6.599*%
%AMMACRO15*
4,1,41,-.725,0.0,
-.725,-.325,
-.720063,-.381436,
-.7054,-.436157,
-.681458,-.4875,
-.648964,-.533906,
-.608906,-.573964,
-.5625,-.606458,
-.511157,-.6304,
-.456436,-.645063,
-.4,-.65,
.4,-.65,
.456436,-.645063,
.511157,-.6304,
.5625,-.606458,
.608906,-.573964,
.648964,-.533906,
.681458,-.4875,
.7054,-.436157,
.720063,-.381436,
.725,-.325,
.725,.325,
.720063,.381436,
.7054,.436157,
.681458,.4875,
.648964,.533906,
.608906,.573964,
.5625,.606458,
.511157,.6304,
.456436,.645063,
.4,.65,
-.4,.65,
-.456436,.645063,
-.511157,.6304,
-.5625,.606458,
-.608906,.573964,
-.648964,.533906,
-.681458,.4875,
-.7054,.436157,
-.720063,.381436,
-.725,.325,
-.725,0.0,
0.0*
%
%ADD15MACRO15*%
%ADD13O,1.X1.*%
%AMMACRO33*
4,1,45,-1.725,0.0,
-1.725,-.262,
-1.721099,-.30759,
-1.70934,-.35181,
-1.690082,-.393317,
-1.663908,-.430849,
-1.631615,-.463265,
-1.594183,-.489582,
-1.55275,-.508998,
-1.508575,-.520925,
-1.463,-.525,
-1.462,-.525,
1.462,-.525,
1.50759,-.521099,
1.55181,-.50934,
1.593317,-.490082,
1.630849,-.463908,
1.663265,-.431615,
1.689582,-.394183,
1.708998,-.35275,
1.720925,-.308575,
1.725,-.263,
1.725,-.262,
1.725,.262,
1.721099,.30759,
1.70934,.35181,
1.690082,.393317,
1.663908,.430849,
1.631615,.463265,
1.594183,.489582,
1.55275,.508998,
1.508575,.520925,
1.463,.525,
1.462,.525,
-1.462,.525,
-1.50759,.521099,
-1.55181,.50934,
-1.593317,.490082,
-1.630849,.463908,
-1.663265,.431615,
-1.689582,.394183,
-1.708998,.35275,
-1.720925,.308575,
-1.725,.263,
-1.725,.262,
-1.725,0.0,
0.0*
%
%ADD33MACRO33*%
%AMMACRO17*
4,1,41,0.0,-.675,
.1,-.675,
.117365,-.673481,
.134202,-.668969,
.15,-.661603,
.164279,-.651604,
.176604,-.639279,
.186603,-.625,
.193969,-.609202,
.198481,-.592365,
.2,-.575,
.2,.575,
.198481,.592365,
.193969,.609202,
.186603,.625,
.176604,.639279,
.164279,.651604,
.15,.661603,
.134202,.668969,
.117365,.673481,
.1,.675,
-.1,.675,
-.117365,.673481,
-.134202,.668969,
-.15,.661603,
-.164279,.651604,
-.176604,.639279,
-.186603,.625,
-.193969,.609202,
-.198481,.592365,
-.2,.575,
-.2,-.575,
-.198481,-.592365,
-.193969,-.609202,
-.186603,-.625,
-.176604,-.639279,
-.164279,-.651604,
-.15,-.661603,
-.134202,-.668969,
-.117365,-.673481,
-.1,-.675,
0.0,-.675,
0.0*
%
%ADD17MACRO17*%
%AMMACRO25*
4,1,40,.5,.239,
.5,-.239,
.496131,-.280218,
.485164,-.320138,
.467431,-.357547,
.443471,-.391309,
.414013,-.420397,
.379951,-.443928,
.342321,-.461186,
.302265,-.471648,
.262,-.475,
-.262,-.475,
-.303249,-.471479,
-.343261,-.460849,
-.380818,-.443432,
-.414781,-.419759,
-.444116,-.390547,
-.467934,-.356685,
-.485509,-.319202,
-.496309,-.279236,
-.5,-.239,
-.5,.239,
-.496131,.280218,
-.485164,.320138,
-.467431,.357547,
-.443471,.391309,
-.414013,.420397,
-.379951,.443928,
-.342321,.461186,
-.302265,.471648,
-.262,.475,
.262,.475,
.303249,.471479,
.343261,.460849,
.380818,.443432,
.414781,.419759,
.444116,.390547,
.467934,.356685,
.485509,.319202,
.496309,.279236,
.5,.239,
0.0*
%
%ADD25MACRO25*%
%AMMACRO14*
4,1,41,-.95,0.0,
-.95,-.494,
-.943025,-.573223,
-.922399,-.650032,
-.888749,-.722092,
-.843097,-.787213,
-.78683,-.843418,
-.721658,-.888999,
-.649562,-.92257,
-.572731,-.943112,
-.494,-.95,
.494,-.95,
.573223,-.943025,
.650032,-.922399,
.722092,-.888749,
.787213,-.843097,
.843418,-.78683,
.888999,-.721658,
.92257,-.649562,
.943112,-.572731,
.95,-.494,
.95,.494,
.943025,.573223,
.922399,.650032,
.888749,.722092,
.843097,.787213,
.78683,.843418,
.721658,.888999,
.649562,.92257,
.572731,.943112,
.494,.95,
-.494,.95,
-.573223,.943025,
-.650032,.922399,
-.722092,.888749,
-.787213,.843097,
-.843418,.78683,
-.888999,.721658,
-.92257,.649562,
-.943112,.572731,
-.95,.494,
-.95,0.0,
0.0*
%
%ADD14MACRO14*%
%AMMACRO22*
4,1,40,-.275,-.135,
-.275,.135,
-.272949,.158443,
-.266859,.181173,
-.256913,.2025,
-.243416,.221776,
-.226776,.238416,
-.2075,.251913,
-.186173,.261859,
-.163443,.267949,
-.14,.27,
.14,.27,
.163443,.267949,
.186173,.261859,
.2075,.251913,
.226776,.238416,
.243416,.221776,
.256913,.2025,
.266859,.181173,
.272949,.158443,
.275,.135,
.275,-.135,
.272949,-.158443,
.266859,-.181173,
.256913,-.2025,
.243416,-.221776,
.226776,-.238416,
.2075,-.251913,
.186173,-.261859,
.163443,-.267949,
.14,-.27,
-.14,-.27,
-.163443,-.267949,
-.186173,-.261859,
-.2075,-.251913,
-.226776,-.238416,
-.243416,-.221776,
-.256913,-.2025,
-.266859,-.181173,
-.272949,-.158443,
-.275,-.135,
0.0*
%
%ADD22MACRO22*%
%AMMACRO20*
4,1,40,-.135,.275,
.135,.275,
.158443,.272949,
.181173,.266859,
.2025,.256913,
.221776,.243416,
.238416,.226776,
.251913,.2075,
.261859,.186173,
.267949,.163443,
.27,.14,
.27,-.14,
.267949,-.163443,
.261859,-.186173,
.251913,-.2075,
.238416,-.226776,
.221776,-.243416,
.2025,-.256913,
.181173,-.266859,
.158443,-.272949,
.135,-.275,
-.135,-.275,
-.158443,-.272949,
-.181173,-.266859,
-.2025,-.256913,
-.221776,-.243416,
-.238416,-.226776,
-.251913,-.2075,
-.261859,-.186173,
-.267949,-.163443,
-.27,-.14,
-.27,.14,
-.267949,.163443,
-.261859,.186173,
-.251913,.2075,
-.238416,.226776,
-.221776,.243416,
-.2025,.256913,
-.181173,.266859,
-.158443,.272949,
-.135,.275,
0.0*
%
%ADD20MACRO20*%
%AMMACRO34*
4,1,41,0.0,.475,
-.231,.475,
-.264581,.471988,
-.297129,.46319,
-.327655,.448875,
-.355231,.429476,
-.37902,.405583,
-.398298,.377922,
-.41248,.347334,
-.421135,.314748,
-.424,.282,
-.424,-.282,
-.420988,-.315581,
-.41219,-.348129,
-.397875,-.378655,
-.378476,-.406231,
-.354583,-.43002,
-.326922,-.449298,
-.296334,-.46348,
-.263748,-.472135,
-.231,-.475,
.231,-.475,
.264581,-.471988,
.297129,-.46319,
.327655,-.448875,
.355231,-.429476,
.37902,-.405583,
.398298,-.377922,
.41248,-.347334,
.421135,-.314748,
.424,-.282,
.424,.282,
.420988,.315581,
.41219,.348129,
.397875,.378655,
.378476,.406231,
.354583,.43002,
.326922,.449298,
.296334,.46348,
.263748,.472135,
.231,.475,
0.0,.475,
0.0*
%
%ADD34MACRO34*%
%ADD28O,.851X.3*%
%ADD10C,.5*%
%ADD27O,.3X.851*%
%ADD32R,.46X.5*%
%AMMACRO21*
4,1,41,0.0,-1.,
.519,-1.,
.602564,-.992645,
.683582,-.970892,
.759592,-.9354,
.828283,-.887248,
.88757,-.8279,
.93565,-.759158,
.971063,-.683112,
.992732,-.602072,
1.,-.519,
1.,.519,
.992645,.602564,
.970892,.683582,
.9354,.759592,
.887248,.828283,
.8279,.88757,
.759158,.93565,
.683112,.971063,
.602072,.992732,
.519,1.,
-.519,1.,
-.602564,.992645,
-.683582,.970892,
-.759592,.9354,
-.828283,.887248,
-.88757,.8279,
-.93565,.759158,
-.971063,.683112,
-.992732,.602072,
-1.,.519,
-1.,-.519,
-.992645,-.602564,
-.970892,-.683582,
-.9354,-.759592,
-.887248,-.828283,
-.8279,-.88757,
-.759158,-.93565,
-.683112,-.971063,
-.602072,-.992732,
-.519,-1.,
0.0,-1.,
0.0*
%
%ADD21MACRO21*%
%AMMACRO19*
4,1,41,0.0,.701,
-.175,.701,
-.205441,.698278,
-.234948,.690312,
-.262622,.677343,
-.287624,.659765,
-.309194,.638113,
-.326677,.613044,
-.33954,.58532,
-.347394,.555784,
-.35,.526,
-.35,-.526,
-.347278,-.556441,
-.339312,-.585948,
-.326343,-.613622,
-.308765,-.638624,
-.287113,-.660194,
-.262044,-.677677,
-.23432,-.69054,
-.204784,-.698394,
-.175,-.701,
.175,-.701,
.205441,-.698278,
.234948,-.690312,
.262622,-.677343,
.287624,-.659765,
.309194,-.638113,
.326677,-.613044,
.33954,-.58532,
.347394,-.555784,
.35,-.526,
.35,.526,
.347278,.556441,
.339312,.585948,
.326343,.613622,
.308765,.638624,
.287113,.660194,
.262044,.677677,
.23432,.69054,
.204784,.698394,
.175,.701,
0.0,.701,
0.0*
%
%ADD19MACRO19*%
%ADD35C,.2*%
%ADD36C,.3*%
%ADD37C,.4*%
%ADD38C,.6*%
%ADD39C,.15*%
%ADD40C,1.806*%
%ADD42C,1.754*%
%ADD41C,.758*%
G75*
%LPD*%
G75*
G36*
G01X1163450Y1016970D02*
G03X1160580Y1014100I0J-2870D01*
G01Y1011290D01*
G03X1161020Y1009790I2867J27D01*
G01X1161040Y1009770D01*
X1161140Y1009600D01*
X1161310Y1009320D01*
X1161340Y1009160D01*
X1161390Y1008950D01*
X1161330Y1008600D01*
G03X1161320Y1008460I990J-141D01*
G01Y1008220D01*
X1161240Y1007950D01*
X1161150Y1007820D01*
X1160990Y1007580D01*
G03X1160580Y1006110I2461J-1479D01*
G01Y1003300D01*
G03X1160980Y1001850I2867J11D01*
G01X1161110Y1001640D01*
G02X1161310Y1000990I-801J-602D01*
G01X1161290Y1000330D01*
G02X1161000Y999650I-999J24D01*
G01X1160950Y999600D01*
G02X1159710Y999450I-714J702D01*
G01X1159560Y999550D01*
X1159510Y999600D01*
G03X1159170Y999850I-1860J-2174D01*
G01X1159010Y999950D01*
X1158790Y1000100D01*
X1158690Y1000260D01*
X1158590Y1000400D01*
X1158510Y1000680D01*
X1158470Y1000740D01*
X1158430Y1000900D01*
G03X1158180Y1001330I-962J-271D01*
G01X1156260Y1003250D01*
G02X1155970Y1003950I710J704D01*
G01Y1004600D01*
X1156000Y1004840D01*
X1156030Y1004960D01*
G02X1156120Y1005190I969J-247D01*
G01X1156200Y1005340D01*
X1156340Y1005480D01*
G03X1149910Y1008160I-2640J2720D01*
G01Y1008030D01*
G02X1149620Y1007330I-1000J4D01*
G01X1145520Y1003230D01*
G03X1145230Y1002530I710J-704D01*
G01Y1000780D01*
X1145170Y1000550D01*
X1145110Y1000440D01*
X1145030Y1000260D01*
X1144820Y1000030D01*
X1144690Y999950D01*
G03X1143280Y997500I1424J-2450D01*
G01Y994690D01*
G03X1143720Y993190I2867J27D01*
G01X1143740Y993170D01*
X1143840Y993000D01*
X1144010Y992720D01*
X1144040Y992560D01*
X1144090Y992350D01*
X1144030Y992000D01*
G03X1144020Y991860I990J-141D01*
G01Y991620D01*
X1143940Y991350D01*
X1143850Y991220D01*
X1143690Y990980D01*
G03X1143280Y989510I2461J-1479D01*
G01Y986700D01*
G03X1146150Y983830I2870J0D01*
G01X1148850D01*
G03X1150620Y984440I0J2873D01*
G01X1150760Y984550D01*
X1151060Y984650D01*
X1152460D01*
G02X1152770Y984600I-2J-1000D01*
G01X1152950Y984540D01*
X1153080Y984440D01*
X1153220Y984360D01*
X1153440Y984090D01*
G02X1153660Y983610I-764J-641D01*
G01X1153680Y983510D01*
Y982630D01*
X1153600Y982550D01*
Y975140D01*
G02X1152480Y974130I-1003J-13D01*
G01X1152300Y974160D01*
X1151890Y974340D01*
G03X1151500Y974420I-392J-920D01*
G01X1149020D01*
X1148850Y974480D01*
G03X1148290Y967170I-1247J-3581D01*
G01X1148380Y967190D01*
X1148490Y967210D01*
X1148750D01*
G02X1149450Y966920I-4J-1000D01*
G01X1154090Y962280D01*
G02X1154380Y961580I-710J-704D01*
G01Y952950D01*
G03X1156900Y950430I2520J0D01*
G01X1158910D01*
G03X1160070Y950730I-33J2520D01*
G01X1160180Y950790D01*
X1160410Y950850D01*
X1160590D01*
X1160710Y950930D01*
X1160980Y951010D01*
X1161300D01*
G02X1161600Y950960I-12J-999D01*
G01X1161990Y950840D01*
X1162090Y950780D01*
G03X1163390Y950420I1299J2162D01*
G01X1165400D01*
G03X1166610Y950730I0J2516D01*
G01X1166830Y950850D01*
X1167090D01*
X1167210Y950930D01*
X1167480Y951010D01*
X1167800D01*
G02X1168100Y950960I-12J-999D01*
G01X1168490Y950840D01*
X1168590Y950780D01*
G03X1169890Y950420I1299J2162D01*
G01X1171900D01*
G03X1173110Y950730I0J2516D01*
G01X1173330Y950850D01*
X1173590D01*
X1173710Y950930D01*
X1173980Y951010D01*
X1174300D01*
G02X1174600Y950960I-12J-999D01*
G01X1174990Y950840D01*
X1175090Y950780D01*
G03X1176390Y950420I1299J2162D01*
G01X1178400D01*
G03X1179610Y950730I0J2516D01*
G01X1179830Y950850D01*
X1180090D01*
X1180210Y950930D01*
X1180480Y951010D01*
X1180980D01*
G03X1181000I10J1000D01*
G01X1181280Y951020D01*
G02X1181960Y950800I51J-1003D01*
G01X1182340Y950500D01*
G03X1182890Y950430I591J2448D01*
G01X1184900D01*
G03X1187420Y952950I0J2520D01*
G01Y964450D01*
G03X1184900Y966970I-2520J0D01*
G01X1182880D01*
G03X1182590Y966950I28J-2520D01*
G01X1182520Y966940D01*
X1182440Y966930D01*
X1182130Y966870D01*
X1181910Y966940D01*
X1181760Y966970D01*
X1181550Y967080D01*
X1181460Y967150D01*
X1180350Y968030D01*
X1180300Y968070D01*
X1180210Y968160D01*
G02X1179920Y968860I710J704D01*
G01Y968980D01*
G02X1180210Y969680I1000J-4D01*
G01X1180220Y969690D01*
G02X1180920Y969980I704J-710D01*
G01X1181810D01*
G03X1183490Y970530I-10J2871D01*
G01X1183620Y970630D01*
X1183910Y970720D01*
X1184880D01*
X1185150Y970640D01*
X1185280Y970550D01*
X1185520Y970390D01*
G03X1186990Y969980I1479J2461D01*
G01X1189800D01*
G03X1192670Y972850I0J2870D01*
G01Y975550D01*
G03X1189800Y978420I-2870J0D01*
G01X1186990D01*
G03X1185310Y977870I10J-2871D01*
G01X1185180Y977770D01*
X1184890Y977680D01*
X1183920D01*
X1183650Y977760D01*
X1183520Y977850D01*
X1183280Y978010D01*
G03X1181810Y978420I-1479J-2461D01*
G01X1179000D01*
G03X1176130Y975550I0J-2870D01*
G01Y974890D01*
G02X1175840Y974190I-1000J4D01*
G01X1175120Y973470D01*
G02X1174030Y973260I-702J711D01*
G01X1173750Y973370D01*
X1173420Y973870D01*
Y975330D01*
G03X1173130Y976030I-1000J-4D01*
G01X1167560Y981600D01*
G02X1167320Y982250I761J650D01*
G01Y982530D01*
X1167220Y982630D01*
Y983410D01*
G02X1167280Y983740I999J-11D01*
G01X1167380Y984040D01*
X1167500Y984170D01*
G03X1167860Y984410I-1434J2542D01*
G02X1168470Y984620I613J-790D01*
G01X1169630D01*
G02X1169940Y984570I-2J-1000D01*
G01X1170120Y984510D01*
X1170250Y984410D01*
G03X1171950Y983830I1725J2274D01*
G01X1174650D01*
G03X1177520Y986700I0J2870D01*
G01Y989510D01*
G03X1177060Y991040I-2867J-28D01*
G01X1177040Y991070D01*
X1176880Y991320D01*
G02X1176750Y992110I838J544D01*
G01X1176770Y992200D01*
G03X1176780Y992340I-990J141D01*
G01Y992580D01*
X1176860Y992850D01*
X1176950Y992980D01*
X1177110Y993220D01*
G03X1177520Y994690I-2461J1479D01*
G01Y997500D01*
G03X1177170Y998860I-2869J-13D01*
G01X1177110Y998960D01*
X1177060Y999050D01*
X1176990Y999150D01*
X1176880Y999310D01*
X1176640Y999950D01*
X1176650Y1000150D01*
Y1000160D01*
X1176700Y1001350D01*
G02X1176990Y1002010I1000J-46D01*
G01X1177680Y1002700D01*
G03X1177970Y1003400I-710J704D01*
G01Y1005510D01*
X1177990Y1005610D01*
X1178030Y1005850D01*
X1178120Y1006020D01*
G02X1178300Y1006260I881J-473D01*
G01X1178340Y1006300D01*
G03X1179170Y1010540I-2638J2718D01*
G01X1179130Y1010630D01*
X1179040Y1010910D01*
X1179060Y1011100D01*
X1179070Y1011280D01*
X1179590Y1012570D01*
G02X1179940Y1013020I933J-364D01*
G01X1180320Y1013370D01*
X1180510Y1013440D01*
G03X1181840Y1019720I-1309J3558D01*
G02X1181830Y1019730I702J712D01*
G01X1181760Y1019800D01*
G02X1181470Y1020500I710J704D01*
G01Y1020720D01*
G02X1181760Y1021420I1000J-4D01*
G01X1196280Y1035940D01*
G03X1196570Y1036640I-710J704D01*
G01Y1055110D01*
G02X1196860Y1055810I1000J-4D01*
G01X1209680Y1068630D01*
G02X1210770Y1068840I702J-711D01*
G01X1211050Y1068730D01*
X1211380Y1068230D01*
Y1041370D01*
G03X1211670Y1040670I1000J4D01*
G01X1238790Y1013550D01*
G02X1239080Y1012850I-710J-704D01*
G01Y969470D01*
G03X1239370Y968770I1000J4D01*
G01X1245170Y962970D01*
G02X1245460Y962230I-708J-704D01*
G01X1245410Y960800D01*
G02X1245120Y960130I-998J34D01*
G01X1245010Y960020D01*
G03X1244350Y959150I2740J-2764D01*
G01X1244180Y958840D01*
G02X1243590Y958360I-880J479D01*
G01X1243410Y958310D01*
G03X1243310Y958270I320J-946D01*
G01X1242630Y957960D01*
X1242550Y957940D01*
X1242320Y957870D01*
X1242070Y957860D01*
X1241850Y957900D01*
X1241840D01*
X1241740Y957920D01*
G03X1241250Y957970I-535J-2814D01*
G01X1238550D01*
G03X1235680Y955100I0J-2870D01*
G01Y952290D01*
G03X1236120Y950790I2867J27D01*
G01X1236140Y950770D01*
X1236240Y950600D01*
X1236410Y950320D01*
X1236440Y950160D01*
X1236490Y949950D01*
X1236430Y949600D01*
G03X1236420Y949460I990J-141D01*
G01Y949220D01*
X1236340Y948950D01*
X1236250Y948820D01*
X1236090Y948580D01*
G03X1235680Y947110I2461J-1479D01*
G01Y944300D01*
G03X1238550Y941430I2870J0D01*
G01X1241250D01*
G03X1244120Y944300I0J2870D01*
G01Y947100D01*
G03X1244060Y947680I-2870J-4D01*
G02X1245590Y948720I980J204D01*
G03X1247710Y948080I2139J3254D01*
G01X1252490D01*
G03X1256370Y951970I-15J3895D01*
G01Y957360D01*
G02X1256660Y958060I1000J-4D01*
G01X1256670Y958070D01*
G02X1257370Y958360I704J-710D01*
G01X1258620D01*
G02X1259320Y958070I-4J-1000D01*
G01X1259840Y957550D01*
G03X1259830Y957230I3886J-282D01*
G01Y951970D01*
G03X1261810Y948580I3896J2D01*
G01X1261990Y948470D01*
X1262170Y948230D01*
X1262260Y948050D01*
X1262690Y946380D01*
X1262650Y946160D01*
X1262620Y945940D01*
X1262480Y945710D01*
X1262380Y945540D01*
G03X1261840Y943470I3721J-2076D01*
G01Y938940D01*
G03X1270360I4260J0D01*
G01Y943470D01*
G03X1269820Y945540I-4261J-6D01*
G01X1269720Y945710D01*
X1269550Y946060D01*
X1269520Y946410D01*
X1269570Y946590D01*
X1269930Y947930D01*
Y947940D01*
G02X1270230Y948420I964J-269D01*
G01X1270330Y948510D01*
X1270430Y948570D01*
G03X1271860Y950060I-2001J3351D01*
G01X1271990Y950300D01*
X1272460Y950580D01*
X1284620D01*
G02X1285320Y950290I-4J-1000D01*
G01X1286200Y949410D01*
G02X1286410Y948320I-711J-702D01*
G01X1286300Y948040D01*
X1285800Y947710D01*
X1285150D01*
X1285140D01*
G03X1280840Y943460I-50J-4250D01*
G01Y938940D01*
G03X1289360I4260J0D01*
G01Y943500D01*
X1289350Y943550D01*
Y943840D01*
G02X1289840Y944700I1000J0D01*
G01X1290070Y944840D01*
X1290590Y944850D01*
X1290840Y944710D01*
G02X1291070Y944540I-473J-881D01*
G01X1297490Y938120D01*
G02X1297780Y937420I-710J-704D01*
G01Y932940D01*
G03X1298070Y932240I1000J4D01*
G01X1307740Y922570D01*
G02X1308030Y921870I-710J-704D01*
G01Y918570D01*
G03X1312170Y914430I4145J5D01*
G01X1341430D01*
G03X1345570Y918570I-5J4145D01*
G01Y923830D01*
G03X1341430Y927970I-4145J-5D01*
G01X1314130D01*
G02X1313430Y928260I4J1000D01*
G01X1306110Y935580D01*
G02X1305820Y936280I710J704D01*
G01Y940760D01*
G03X1305530Y941460I-1000J-4D01*
G01X1288660Y958330D01*
G03X1287960Y958620I-704J-710D01*
G01X1272740D01*
G02X1271870Y959130I2J1000D01*
G03X1268490Y961120I-3397J-1904D01*
G01X1263810D01*
G02X1263110Y961410I4J1000D01*
G01X1262180Y962340D01*
G02X1261990Y963490I707J707D01*
G01X1262070Y963650D01*
X1262150Y963770D01*
X1262250Y963940D01*
G03X1261590Y968640I-3252J1940D01*
G02X1261270Y969370I680J733D01*
G01Y973530D01*
G03X1260980Y974230I-1000J-4D01*
G01X1250760Y984450D01*
G02X1250470Y985150I710J704D01*
G01Y987050D01*
G02X1250600Y987550I1001J7D01*
G01X1250690Y987710D01*
X1251910Y988760D01*
G02X1252200Y988940I663J-745D01*
G01X1252380Y989010D01*
X1253050D01*
G03X1255690Y995600I38J3809D01*
G02X1255370Y996340I681J734D01*
G01Y1022230D01*
G03X1255080Y1022930I-1000J-4D01*
G01X1231860Y1046150D01*
G02X1231570Y1046850I710J704D01*
G01Y1055280D01*
G02X1231860Y1055980I1000J-4D01*
G01X1233180Y1057300D01*
G03X1233470Y1058000I-710J704D01*
G01Y1060020D01*
G02X1233520Y1060330I1000J-2D01*
G01X1233550Y1060420D01*
X1233580Y1060520D01*
X1233710Y1060760D01*
X1233830Y1060880D01*
G03X1228560I-2635J2721D01*
G02X1228570Y1060870I-702J-712D01*
G01X1228640Y1060800D01*
G02X1228930Y1060100I-710J-704D01*
G01Y1059880D01*
G02X1228640Y1059180I-1000J4D01*
G01X1227320Y1057860D01*
G03X1227030Y1057160I710J-704D01*
G01Y1044890D01*
G02X1226410Y1043960I-1001J-4D01*
G01X1226130Y1043850D01*
X1225550Y1043960D01*
X1224060Y1045450D01*
G02X1223770Y1046150I710J704D01*
G01Y1059800D01*
X1223800Y1060040D01*
X1223830Y1060160D01*
G02X1223920Y1060390I969J-247D01*
G01X1224000Y1060540D01*
X1224140Y1060680D01*
G03X1218320Y1065490I-2649J2720D01*
G01X1218260Y1065400D01*
X1218120Y1065260D01*
G02X1217030Y1065050I-702J711D01*
G01X1216750Y1065160D01*
X1216420Y1065660D01*
Y1067050D01*
G02X1216710Y1067750I1000J-4D01*
G01X1248830Y1099870D01*
G02X1249920Y1100080I702J-711D01*
G01X1250200Y1099970D01*
X1250530Y1099470D01*
Y1096490D01*
G02X1250210Y1095760I-1000J3D01*
G03X1255390I2590J-2760D01*
G02X1255070Y1096490I680J733D01*
G01Y1097360D01*
X1255150Y1097440D01*
Y1112940D01*
G02X1255880Y1113900I1000J-3D01*
G01X1255890D01*
G02X1256370Y1113920I280J-960D01*
G01X1256420Y1113900D01*
G02X1256920Y1113630I-205J-978D01*
G01X1259260Y1111260D01*
G02X1259550Y1110560I-709J-704D01*
G01Y1069320D01*
G02X1259260Y1068620I-1000J4D01*
G01X1258570Y1067930D01*
Y1067910D01*
X1248540Y1057880D01*
G03X1248250Y1057180I710J-704D01*
G01Y1047620D01*
G02X1248170Y1047220I-1000J-8D01*
G01X1247950Y1046710D01*
X1247830Y1046580D01*
G03X1253330I2750J-2600D01*
G01X1253210Y1046710D01*
X1252990Y1047220D01*
G02X1252910Y1047620I920J392D01*
G01Y1055240D01*
G02X1253200Y1055940I1000J-4D01*
G01X1256330Y1059070D01*
G02X1257420Y1059280I702J-711D01*
G01X1257700Y1059170D01*
X1258030Y1058670D01*
Y1053090D01*
G02X1257710Y1052360I-1000J3D01*
G03X1261140Y1045910I2597J-2756D01*
G01X1261250Y1045930D01*
X1261520D01*
X1261690Y1045900D01*
X1261820Y1045880D01*
X1262050Y1045780D01*
X1263340Y1044760D01*
G02X1263670Y1044280I-623J-782D01*
G01X1263730Y1044090D01*
Y996090D01*
G02X1263410Y995360I-1000J3D01*
G03X1266570Y988850I2592J-2764D01*
G01X1266650Y988860D01*
X1266880D01*
X1267050Y988830D01*
X1267290Y988790D01*
X1267600Y988560D01*
X1267640Y988530D01*
X1268210Y988050D01*
G02X1268270Y987990I-677J-737D01*
G01X1268740Y987520D01*
G02X1269030Y986820I-710J-704D01*
G01Y973870D01*
G03X1269320Y973170I1000J4D01*
G01X1278760Y963730D01*
X1279020D01*
X1279140Y963610D01*
X1281010D01*
G02X1281250Y963580I-3J-1000D01*
G01X1281370Y963550D01*
G02X1281600Y963460I-247J-969D01*
G01X1281750Y963380D01*
X1281880Y963250D01*
G03X1281920Y968560I2722J2635D01*
G01X1281780Y968420D01*
X1281420Y968270D01*
X1281050D01*
G02X1280350Y968560I4J1000D01*
G01X1273860Y975050D01*
G02X1273570Y975750I710J704D01*
G01Y986820D01*
G02X1273980Y987690I1001J60D01*
G01X1275160Y988560D01*
X1275180D01*
X1275340Y988680D01*
X1275650Y988750D01*
G02X1275880Y988780I243J-968D01*
G01X1276110D01*
X1276250Y988740D01*
G03Y996060I1050J3660D01*
G01X1276110Y996020D01*
X1275820D01*
G02X1275510Y996070I2J1000D01*
G01X1275300Y996140D01*
X1273900Y997170D01*
X1273810Y997270D01*
G02X1273570Y997930I762J651D01*
G01Y1052280D01*
G02X1273860Y1052980I1000J-4D01*
G01X1281080Y1060200D01*
G03X1281370Y1060900I-710J704D01*
G01Y1062900D01*
X1281400Y1063140D01*
X1281430Y1063260D01*
G02X1281520Y1063490I969J-247D01*
G01X1281600Y1063640D01*
X1281740Y1063780D01*
G03X1279060Y1070290I-2640J2720D01*
G01X1278930D01*
G02X1278230Y1070580I4J1000D01*
G01X1273460Y1075350D01*
G02X1273170Y1076050I710J704D01*
G01Y1095200D01*
G02X1273330Y1095750I1001J7D01*
G01X1273430Y1095910D01*
X1274800Y1096930D01*
G02X1275400Y1097130I600J-800D01*
G01X1275560D01*
X1275740Y1097110D01*
X1275800Y1097100D01*
G03X1276450Y1097030I630J2794D01*
G01X1279150D01*
G03X1281570Y1098370I0J2855D01*
G01X1281680Y1098550D01*
X1282180Y1098900D01*
G02X1282600Y1099070I576J-820D01*
G01X1283960Y1099280D01*
G02X1284550Y1099200I166J-988D01*
G01X1284730Y1099110D01*
X1285740Y1098100D01*
G02X1286030Y1097400I-710J-704D01*
G01Y1096430D01*
X1285650Y1095910D01*
X1285340Y1095810D01*
G03X1288970Y1089320I1165J-3609D01*
G01X1289040Y1089380D01*
X1289240Y1089500D01*
G02X1289780Y1089630I495J-870D01*
G01X1291070Y1089590D01*
X1291350Y1089580D01*
X1291650Y1089390D01*
G02X1291820Y1089250I-547J-838D01*
G01X1297350Y1083720D01*
G03X1298050Y1083430I704J710D01*
G01X1299500D01*
X1299650Y1083410D01*
X1299720Y1083390D01*
X1299940Y1083350D01*
X1300240Y1083200D01*
X1300380Y1083060D01*
G03X1306010Y1083280I2716J2641D01*
G03X1306020Y1083290I-698J708D01*
G02X1306660Y1083660I787J-623D01*
G01X1307260Y1083810D01*
X1307420Y1083800D01*
X1307650Y1083790D01*
X1307810Y1083720D01*
G03X1307980Y1083660I1340J3527D01*
G01X1308200Y1083590D01*
X1308370Y1083420D01*
G02Y1082000I-704J-710D01*
G01X1297630Y1071260D01*
G02X1296930Y1070970I-704J710D01*
G01X1293450D01*
G03X1292750Y1070680I4J-1000D01*
G01X1292490Y1070420D01*
X1292330Y1070340D01*
G03X1291700Y1069900I966J-2054D01*
G01X1290770Y1068970D01*
G03X1290760Y1068960I702J-712D01*
G01X1290600Y1068800D01*
X1290210Y1068650D01*
X1290000Y1068660D01*
X1289840D01*
G03X1291630Y1061390I-45J-3866D01*
G01X1291740Y1061450D01*
X1292110Y1061550D01*
G02X1292380Y1061590I280J-959D01*
G01X1293500D01*
X1293620Y1061570D01*
X1293700Y1061560D01*
G02X1294320Y1061270I-88J-995D01*
G01X1294380Y1061210D01*
G03X1297770Y1060120I2719J2640D01*
G02X1298630Y1059870I180J-986D01*
G01X1299270Y1059340D01*
G02X1299330Y1059280I-677J-737D01*
G01X1299840Y1058770D01*
G02X1300130Y1058070I-710J-704D01*
G01Y1054770D01*
G03X1300420Y1054070I1000J4D01*
G01X1303970Y1050520D01*
X1304120Y1050130D01*
X1304110Y1049930D01*
G03X1310950Y1052030I3784J-137D01*
G01X1310700Y1052370D01*
G02X1310510Y1053040I807J591D01*
G01X1310590Y1054010D01*
X1310510Y1054210D01*
X1310950Y1055090D01*
X1311070Y1055210D01*
G03X1312190Y1057940I-2670J2690D01*
G01Y1058080D01*
G02X1312460Y1058760I1000J-3D01*
G01X1313260Y1059620D01*
X1313390Y1059760D01*
X1314110Y1060110D01*
X1314300Y1060120D01*
G03X1314920Y1060240I-406J3758D01*
G01X1314990Y1060260D01*
X1315220Y1060290D01*
X1315230D01*
X1315440Y1060330D01*
X1315870Y1060200D01*
X1316050Y1060040D01*
G02X1316370Y1059180I-673J-740D01*
G01X1316350Y1059010D01*
X1316290Y1058820D01*
X1316270Y1058780D01*
G03X1323570Y1057550I3519J-1391D01*
G01Y1057780D01*
X1323560Y1058080D01*
G02X1323830Y1058790I999J26D01*
G01X1325000Y1060060D01*
X1325210Y1060140D01*
X1325400Y1060220D01*
X1325850D01*
X1325860D01*
G03X1329690Y1064050I43J3787D01*
G01Y1064060D01*
Y1064170D01*
G02X1329980Y1064870I1000J-4D01*
G01X1331460Y1066350D01*
G03X1331750Y1067050I-710J704D01*
G01Y1070930D01*
G02X1332040Y1071630I1000J-4D01*
G01X1332450Y1072040D01*
G02X1333150Y1072330I704J-710D01*
G01X1341210D01*
G02X1341360Y1072320I9J-1000D01*
G01X1341750Y1072260D01*
X1341900Y1072180D01*
X1342040Y1072110D01*
X1342180Y1071970D01*
G02X1342190Y1071960I-702J-712D01*
G03X1347450Y1071780I2723J2639D01*
G01X1347580Y1071890D01*
X1348080Y1072100D01*
G02X1348470Y1072180I392J-920D01*
G01X1349630D01*
X1349820Y1072100D01*
X1350320Y1071890D01*
X1350450Y1071780D01*
G03Y1077420I2550J2820D01*
G01X1350320Y1077310D01*
X1349820Y1077100D01*
X1349630Y1077020D01*
X1348270D01*
X1348080Y1077100D01*
X1347580Y1077310D01*
X1347450Y1077420D01*
G03X1342190Y1077240I-2537J-2819D01*
G02X1342180Y1077230I-712J702D01*
G01X1342110Y1077160D01*
G02X1341410Y1076870I-704J710D01*
G01X1335440D01*
G02X1334510Y1077490I-4J1001D01*
G01X1334400Y1077770D01*
X1334510Y1078350D01*
X1358080Y1101920D01*
G03X1358370Y1102620I-710J704D01*
G01Y1105260D01*
X1358380Y1105280D01*
Y1118710D01*
X1358370Y1118720D01*
Y1130250D01*
G03X1358080Y1130950I-1000J-4D01*
G01X1337880Y1151150D01*
G02X1337800Y1152490I702J714D01*
G01X1337870Y1152570D01*
X1338920Y1153620D01*
G02X1339620Y1153910I704J-710D01*
G01X1378810D01*
X1379170Y1153760D01*
X1379220Y1152970D01*
G03X1383130Y1156990I3783J232D01*
G01X1382940D01*
X1382580Y1157140D01*
X1381120Y1158600D01*
G03X1380420Y1158890I-704J-710D01*
G01X1343900D01*
G02X1342970Y1159510I-4J1001D01*
G01X1342860Y1159790D01*
X1342970Y1160370D01*
X1349540Y1166940D01*
G02X1350240Y1167230I704J-710D01*
G01X1379930D01*
X1380130Y1167220D01*
X1380220Y1167190D01*
X1380440Y1167150D01*
X1380740Y1167000D01*
X1380880Y1166860D01*
G03X1384240Y1173240I2719J2643D01*
G01X1384030Y1173280D01*
X1383860Y1173390D01*
X1383680Y1173500D01*
X1383560Y1173680D01*
X1382770Y1174840D01*
X1382670Y1174990D01*
X1382580Y1175340D01*
X1382610Y1175600D01*
X1382620Y1175660D01*
X1382630Y1175760D01*
X1382640Y1175850D01*
Y1175870D01*
X1382650Y1175940D01*
G03X1381960Y1178650I-3757J486D01*
G01X1381840Y1178820D01*
X1381650Y1179210D01*
X1381600Y1179440D01*
Y1179620D01*
X1381670Y1180710D01*
Y1180780D01*
X1381700Y1180970D01*
G02X1381980Y1181520I988J-157D01*
G01X1381990Y1181530D01*
G03X1382000Y1181540I-702J712D01*
G03X1383060Y1184660I-2701J2658D01*
G01X1383050Y1184700D01*
X1383030Y1185010D01*
X1383020Y1185210D01*
X1383080Y1185400D01*
G02X1383380Y1185860I959J-298D01*
G01X1383600Y1186110D01*
G02X1383640Y1186150I727J-687D01*
G01X1384130Y1186640D01*
G02X1384830Y1186930I704J-710D01*
G01X1391950D01*
G03X1392650Y1187220I-4J1000D01*
G01X1394080Y1188640D01*
X1394170Y1188730D01*
X1394600Y1188990D01*
X1394850Y1189010D01*
G03X1390820Y1193010I-245J3783D01*
G01X1390790Y1192470D01*
X1390650Y1192150D01*
X1390570Y1192070D01*
X1378720D01*
G02X1378020Y1192360I4J1000D01*
G01X1377900Y1192480D01*
X1377220Y1193400D01*
G02X1377090Y1193640I804J591D01*
G02X1377020Y1194010I931J368D01*
G01Y1194210D01*
X1377050Y1194450D01*
X1377070Y1194520D01*
G03X1376960Y1196790I-3668J960D01*
G01X1376810Y1197190D01*
X1376830Y1197420D01*
X1376850Y1197680D01*
X1377910Y1199280D01*
G02X1378770Y1199730I836J-551D01*
G01X1390410D01*
G03X1391110Y1200020I-4J1000D01*
G01X1391150Y1200060D01*
G02X1391680Y1200340I711J-705D01*
G01X1391920Y1200380D01*
X1392270D01*
G02X1392410Y1200370I-1J-1001D01*
G01X1392560Y1200350D01*
X1393090Y1200150D01*
X1393210Y1200060D01*
G03X1392870Y1205820I2289J3025D01*
G01X1392740Y1205690D01*
X1392180Y1205450D01*
G02X1391790Y1205370I-392J920D01*
G01X1390450D01*
G03X1389750Y1205080I4J-1000D01*
G01X1389230Y1204560D01*
G02X1388530Y1204270I-704J710D01*
G01X1385950D01*
G02X1384950Y1205270I0J1000D01*
G01Y1205570D01*
X1385280Y1206070D01*
X1385560Y1206190D01*
G03X1387880Y1209450I-1466J3499D01*
G01Y1209460D01*
G02X1388220Y1210140I997J-74D01*
G01X1389400Y1211170D01*
X1389570Y1211230D01*
X1389820Y1211330D01*
X1390020Y1211320D01*
G03X1387700Y1217890I266J3789D01*
G01X1387570Y1217770D01*
X1387060Y1217550D01*
G02X1386660Y1217470I-392J920D01*
G01X1338690D01*
G02X1337760Y1218090I-4J1001D01*
G01X1337650Y1218370D01*
X1337760Y1218950D01*
X1342680Y1223870D01*
G03X1342970Y1224570I-710J704D01*
G01Y1226010D01*
G02X1343150Y1226580I1000J-2D01*
G01X1343320Y1226830D01*
X1343500Y1226920D01*
X1343570Y1226970D01*
X1343600Y1226990D01*
G03X1344980Y1229450I-1503J2460D01*
G01Y1232150D01*
G03X1344960Y1232500I-2881J11D01*
G01X1344950Y1232530D01*
X1344930Y1232720D01*
G02X1344920Y1232920I990J150D01*
G01Y1234660D01*
G02X1345090Y1235220I1000J2D01*
G01X1345170Y1235340D01*
X1345400Y1235540D01*
X1345550Y1235600D01*
G03X1347660Y1238780I-1345J3182D01*
G01Y1244420D01*
G03X1346220Y1247220I-3454J-6D01*
G01X1346070Y1247330D01*
X1345970Y1247480D01*
X1345880Y1247610D01*
X1345800Y1247880D01*
Y1249660D01*
G02X1346050Y1250320I1000J-1D01*
G01X1346130Y1250410D01*
X1346220Y1250480D01*
G03X1347660Y1253280I-2014J2806D01*
G01Y1258920D01*
G03X1344210Y1262370I-3454J-4D01*
G01X1339590D01*
G03X1338100Y1262010I44J-3446D01*
G01X1337940Y1261930D01*
X1337670Y1261780D01*
G03X1337640Y1261760I542J-846D01*
G01X1337600Y1261720D01*
X1337430Y1261620D01*
X1337310Y1261510D01*
X1336960Y1261370D01*
X1335500D01*
G02X1334980Y1261520I7J999D01*
G01X1334860Y1261590D01*
X1334810Y1261630D01*
G03X1332700Y1262370I-2135J-2710D01*
G01X1328080D01*
G03X1324630Y1258920I4J-3454D01*
G01Y1258310D01*
G02X1324340Y1257610I-1000J4D01*
G01X1323290Y1256560D01*
G02X1322590Y1256270I-704J710D01*
G01X1322050D01*
X1321860Y1256350D01*
G03X1320760Y1256570I-1104J-2662D01*
G01X1318050D01*
G03X1315590Y1255200I0J-2894D01*
G01X1315530Y1255100D01*
X1315450Y1254970D01*
X1315180Y1254710D01*
X1314970Y1254640D01*
X1314790Y1254570D01*
X1311570D01*
G03X1310870Y1254280I4J-1000D01*
G01X1305050Y1248460D01*
G03X1304760Y1247760I710J-704D01*
G01Y1233430D01*
G02X1304680Y1233030I-1000J-8D01*
G01X1304460Y1232520D01*
X1304340Y1232390D01*
G03X1303610Y1231270I2761J-2597D01*
G01X1303550Y1231130D01*
X1303160Y1230640D01*
X1303000Y1230550D01*
X1302190Y1230060D01*
G02X1301580Y1229860I-601J801D01*
G01X1301340D01*
X1301290Y1229870D01*
X1298550D01*
G03X1298290Y1229840I197J-2848D01*
G01X1298200Y1229820D01*
X1297970D01*
G02X1296970Y1230820I0J1000D01*
G01Y1230950D01*
X1296990Y1231130D01*
X1297000Y1231180D01*
G03X1290680Y1229140I-3724J727D01*
G02X1291000Y1228410I-680J-733D01*
G01Y1226670D01*
G02X1290710Y1225970I-1000J4D01*
G01X1290700Y1225960D01*
G02X1289310Y1225940I-705J709D01*
G01X1289180Y1226060D01*
X1289020Y1226380D01*
X1289000Y1226550D01*
G03X1286150Y1229070I-2850J-352D01*
G01X1285200D01*
G02X1284540Y1229320I1J1000D01*
G01X1284440Y1229410D01*
X1283530Y1230690D01*
G02X1283300Y1231340I772J639D01*
G01Y1231690D01*
X1283340Y1231830D01*
G03X1275910Y1233070I-3641J1060D01*
G01Y1233010D01*
X1275880Y1232770D01*
X1275850Y1232650D01*
G02X1275470Y1232090I-973J251D01*
G01X1274510Y1231220D01*
X1274160Y1230900D01*
G03X1273550Y1230970I-630J-2801D01*
G01X1270800D01*
G03X1270770I-15J-1000D01*
G01X1270570Y1230940D01*
X1270340D01*
G02X1269500Y1231390I-4J1002D01*
G01X1269450Y1231460D01*
X1269320Y1231700D01*
G03X1269130Y1231940I-871J-494D01*
G01X1268830Y1232210D01*
G02X1268500Y1232950I670J743D01*
G01Y1233170D01*
G02X1268790Y1233870I1000J-4D01*
G01X1269260Y1234340D01*
X1269380Y1234430D01*
X1269640Y1234580D01*
X1269850Y1234610D01*
G03X1272370Y1237450I-340J2840D01*
G01Y1240150D01*
G03X1269500Y1243020I-2870J0D01*
G01X1267040D01*
G02X1266340Y1243310I4J1000D01*
G01X1266180Y1243470D01*
X1266030Y1243830D01*
Y1244030D01*
X1265900Y1263180D01*
G03X1264860Y1264170I-1001J-10D01*
G01X1262570Y1264080D01*
G02X1262530I-20J1000D01*
G01X1262400D01*
G02X1261400Y1265080I0J1000D01*
G01X1261380Y1276070D01*
G02X1261670Y1276780I1000J6D01*
G01X1261680Y1276790D01*
G02X1262380Y1277080I704J-710D01*
G01X1265100D01*
G03X1267970Y1279950I0J2870D01*
G01Y1282650D01*
G03X1265100Y1285520I-2870J0D01*
G01X1262370D01*
G02X1261370Y1286520I0J1000D01*
G01X1261340Y1301570D01*
G02X1261630Y1302280I1000J6D01*
G01X1261640Y1302290D01*
G02X1262340Y1302580I704J-710D01*
G01X1265100D01*
G03X1267970Y1305450I0J2870D01*
G01Y1308150D01*
G03X1265100Y1311020I-2870J0D01*
G01X1262330D01*
G02X1261330Y1312020I0J1000D01*
G01X1261300Y1326290D01*
G02X1261590Y1327000I1000J6D01*
G01X1261600Y1327010D01*
G02X1262300Y1327300I704J-710D01*
G01X1464000D01*
G02X1464700Y1327010I-4J-1000D01*
G01X1464710Y1327000D01*
G02X1465000Y1326300I-710J-704D01*
G01Y901000D01*
G02X1464000Y900000I-1000J0D01*
G01X1215500D01*
G02X1214500Y901000I0J1000D01*
G01Y917000D01*
G03X1213500Y918000I-1000J0D01*
G01X1128500D01*
G03X1127500Y917000I0J-1000D01*
G01Y901000D01*
G02X1126500Y900000I-1000J0D01*
G01X1064500D01*
G02X1063500Y901000I0J1000D01*
G01Y1326300D01*
G02X1063790Y1327000I1000J-4D01*
G01X1063800Y1327010D01*
G02X1064500Y1327300I704J-710D01*
G01X1214480D01*
G02X1215180Y1327010I-4J-1000D01*
G01X1215190Y1327000D01*
G02X1215480Y1326300I-710J-704D01*
G01Y1321780D01*
G03X1216480Y1320780I1000J0D01*
G01X1227520D01*
G03X1228520Y1321780I0J1000D01*
G01Y1326300D01*
G02X1228810Y1327000I1000J-4D01*
G01X1228820Y1327010D01*
G02X1229520Y1327300I704J-710D01*
G01X1236480D01*
G02X1237180Y1327010I-4J-1000D01*
G01X1237190Y1327000D01*
G02X1237480Y1326300I-710J-704D01*
G01Y1321780D01*
G03X1238480Y1320780I1000J0D01*
G01X1248100D01*
G02X1248800Y1320490I-4J-1000D01*
G01X1248810Y1320480D01*
G02X1249100Y1319780I-710J-704D01*
G01Y1296500D01*
G02X1248100Y1295500I-1000J0D01*
G01X1230110D01*
G03X1229410Y1295210I4J-1000D01*
G01X1213890Y1279690D01*
G02X1213190Y1279400I-704J710D01*
G01X1193400D01*
G02X1192400Y1280400I0J1000D01*
G01Y1286300D01*
G03X1191400Y1287300I-1000J0D01*
G01X1165200D01*
G03X1164200Y1286300I0J-1000D01*
G01Y1259700D01*
G03X1165200Y1258700I1000J0D01*
G01X1191400D01*
G03X1192400Y1259700I0J1000D01*
G01Y1266300D01*
G02X1192690Y1267000I1000J-4D01*
G01X1192700Y1267010D01*
G02X1193400Y1267300I704J-710D01*
G01X1218690D01*
G03X1219390Y1267590I-4J1000D01*
G01X1236010Y1284210D01*
G02X1236710Y1284500I704J-710D01*
G01X1248100D01*
G02X1248800Y1284210I-4J-1000D01*
G01X1248810Y1284200D01*
G02X1249100Y1283500I-710J-704D01*
G01Y1283490D01*
X1249010Y1265100D01*
Y1264680D01*
X1248430Y1264100D01*
X1246370D01*
G03X1245370Y1263110I-1J-999D01*
G01X1245130Y1244430D01*
G02X1244830Y1243730I-1001J15D01*
G01X1244410Y1243310D01*
G02X1243710Y1243020I-704J710D01*
G01X1241800D01*
G03X1238930Y1240150I0J-2870D01*
G01Y1237450D01*
G03X1241800Y1234580I2870J0D01*
G01X1244000D01*
G02X1245000Y1233570I-1J-1001D01*
G01X1244700Y1210160D01*
G02X1244080Y1209250I-1000J15D01*
G01X1243800Y1209140D01*
X1243220Y1209250D01*
X1240340Y1212130D01*
G03X1239820Y1212400I-700J-713D01*
G01X1239670Y1212430D01*
X1239540Y1212500D01*
G02X1239290Y1212680I452J891D01*
G01X1237460Y1214510D01*
G02X1237170Y1215210I710J704D01*
G01Y1216150D01*
G03X1236240Y1218240I-2847J-15D01*
G02X1235920Y1218980I682J734D01*
G01Y1219110D01*
X1235940Y1219210D01*
X1235990Y1219500D01*
X1236100Y1219670D01*
X1236170Y1219780D01*
X1236290Y1219890D01*
X1236300Y1219900D01*
G03X1237270Y1222050I-1898J2150D01*
G01Y1224750D01*
G03X1237010Y1225940I-2869J-3D01*
G01X1236920Y1226140D01*
Y1228940D01*
G03X1236630Y1229640I-1000J-4D01*
G01X1234880Y1231390D01*
G02X1234710Y1231620I711J703D01*
G01X1234640Y1231750D01*
X1234610Y1231890D01*
G03X1227620Y1229190I-3708J-799D01*
G01X1227690Y1229070D01*
X1227750Y1228860D01*
G02X1227040Y1227630I-966J-262D01*
G01X1226830Y1227580D01*
G03X1226400Y1227620I-480J-2827D01*
G01X1223600D01*
G03X1220730Y1224750I0J-2870D01*
G01Y1222040D01*
G03X1221220Y1220450I2858J10D01*
G01X1221300Y1220330D01*
X1221430Y1219920D01*
X1221490Y1219750D01*
X1221470Y1218550D01*
G02X1221260Y1217940I-999J3D01*
G01X1221250Y1217930D01*
G03X1220630Y1216150I2245J-1780D01*
G01Y1213450D01*
G03X1223500Y1210580I2870J0D01*
G01X1226310D01*
G03X1227990Y1211130I-10J2871D01*
G01X1228120Y1211230D01*
X1228410Y1211320D01*
X1229380D01*
X1229650Y1211240D01*
X1229780Y1211150D01*
X1230020Y1210990D01*
G03X1231490Y1210580I1479J2461D01*
G01X1232440D01*
G02X1233140Y1210290I-4J-1000D01*
G01X1233270Y1210160D01*
X1233340Y1210040D01*
G02X1233430Y1209260I-869J-495D01*
G01X1232870Y1207330D01*
X1232480Y1206960D01*
X1232210Y1206900D01*
G03X1229890Y1204340I678J-2945D01*
G01X1229840Y1203970D01*
X1229280Y1203470D01*
X1228450D01*
G02X1227750Y1203760I4J1000D01*
G01X1224030Y1207480D01*
G03X1223330Y1207770I-704J-710D01*
G01X1219200D01*
X1219100Y1207870D01*
X1216570D01*
X1216410Y1207910D01*
X1216210Y1207960D01*
X1215910Y1208180D01*
X1215810Y1208340D01*
X1215720Y1208480D01*
G03X1213300Y1209820I-2420J-1515D01*
G01X1210490D01*
G03X1208810Y1209270I10J-2871D01*
G01X1208680Y1209170D01*
X1208390Y1209080D01*
X1207420D01*
X1207150Y1209160D01*
X1207020Y1209250D01*
X1206780Y1209410D01*
G03X1205310Y1209820I-1479J-2461D01*
G01X1202500D01*
G03X1199630Y1206950I0J-2870D01*
G01Y1204250D01*
G03X1202500Y1201380I2870J0D01*
G01X1205310D01*
G03X1206990Y1201930I-10J2871D01*
G01X1207120Y1202030D01*
X1207410Y1202120D01*
X1208380D01*
X1208650Y1202040D01*
X1208780Y1201950D01*
X1209020Y1201790D01*
G03X1210490Y1201380I1479J2461D01*
G01X1213300D01*
G03X1215790Y1202830I0J2863D01*
G01X1215920Y1203060D01*
X1216380Y1203330D01*
X1217220D01*
X1217320Y1203230D01*
X1221450D01*
G02X1222150Y1202940I-4J-1000D01*
G01X1226180Y1198910D01*
G02X1226390Y1197820I-711J-702D01*
G01X1226280Y1197540D01*
X1225780Y1197210D01*
X1223110D01*
G03X1221530Y1196760I7J-3022D01*
G02X1221510Y1196740I-696J676D01*
G01X1221330Y1196640D01*
X1221090Y1196610D01*
G02X1220660Y1196640I-147J990D01*
G01X1220450Y1196710D01*
X1220340Y1196740D01*
X1220260Y1196750D01*
X1220210Y1196760D01*
G03X1220100Y1196770I-145J-987D01*
G01X1217630D01*
G02X1216930Y1197060I4J1000D01*
G01X1216750Y1197240D01*
X1216690Y1197330D01*
G03X1214300Y1198620I-2390J-1569D01*
G01X1211490D01*
G03X1209810Y1198070I10J-2871D01*
G01X1209680Y1197970D01*
X1209390Y1197880D01*
X1208420D01*
X1208150Y1197960D01*
X1208020Y1198050D01*
X1207780Y1198210D01*
G03X1206310Y1198620I-1479J-2461D01*
G01X1203500D01*
G03X1200630Y1195750I0J-2870D01*
G01Y1193040D01*
G03X1201500Y1190990I2871J9D01*
G01X1201630Y1190860D01*
G02X1201920Y1190130I-709J-704D01*
G01X1201890Y1188610D01*
G02X1201600Y1187930I-1000J25D01*
G01X1201500Y1187830D01*
X1201460Y1187800D01*
G03X1202050Y1181600I2442J-2896D01*
G01X1202180Y1181530D01*
X1202270Y1181480D01*
X1202590Y1181230D01*
X1202660Y1181140D01*
X1202850Y1180910D01*
X1202930Y1180820D01*
X1203010Y1180660D01*
X1203080Y1180530D01*
X1203350Y1179060D01*
Y1179040D01*
X1203400Y1178800D01*
X1203310Y1178530D01*
G02X1203070Y1178150I-945J331D01*
G01X1201680Y1176760D01*
G02X1200980Y1176470I-704J710D01*
G01X1188650D01*
G02X1187950Y1176760I4J1000D01*
G01X1182030Y1182680D01*
G03X1181330Y1182970I-704J-710D01*
G01X1172220D01*
G02X1171220Y1183970I0J1000D01*
G01Y1184700D01*
G03X1169770Y1187190I-2863J0D01*
G01X1169540Y1187320D01*
X1169270Y1187780D01*
Y1188850D01*
G02X1169560Y1189550I1000J-4D01*
G01X1171980Y1191970D01*
G03X1172270Y1192670I-710J704D01*
G01Y1194520D01*
X1172320Y1194730D01*
X1172390Y1194890D01*
X1172420Y1194970D01*
G03X1172470Y1195270I-951J313D01*
G01Y1195890D01*
X1172540Y1196070D01*
X1172610Y1196280D01*
X1172920Y1196610D01*
X1173130Y1196690D01*
G03X1175220Y1199740I-1184J3052D01*
G01Y1200790D01*
G02X1176220Y1201790I1000J0D01*
G01X1176390D01*
X1176710Y1201680D01*
X1176850Y1201570D01*
G03X1178650Y1200930I1806J2228D01*
G01X1181350D01*
G03X1184220Y1203800I0J2870D01*
G01Y1206610D01*
G03X1183760Y1208140I-2867J-28D01*
G01X1183740Y1208170D01*
X1183580Y1208420D01*
G02X1183450Y1209210I838J544D01*
G01X1183470Y1209300D01*
G03X1183480Y1209440I-990J141D01*
G01Y1209680D01*
X1183560Y1209950D01*
X1183650Y1210080D01*
X1183810Y1210320D01*
G03X1184220Y1211790I-2461J1479D01*
G01Y1214600D01*
G03X1181350Y1217470I-2870J0D01*
G01X1178650D01*
G03X1175780Y1214600I0J-2870D01*
G01Y1214110D01*
G02X1175140Y1213160I-1001J-16D01*
G01X1174980Y1213100D01*
X1174790Y1213020D01*
X1174030D01*
G02X1173720Y1213070I2J1000D01*
G01X1173540Y1213130D01*
X1173470Y1213170D01*
G03X1171980Y1213530I-1494J-2919D01*
G01X1168450D01*
G03X1165180Y1210260I3J-3273D01*
G01Y1199740D01*
G03X1167130Y1196750I3273J4D01*
G01X1167410Y1196630D01*
X1167730Y1196140D01*
Y1194550D01*
G02X1167440Y1193850I-1000J4D01*
G01X1165020Y1191430D01*
G03X1164730Y1190730I710J-704D01*
G01Y1188120D01*
G02X1164650Y1187720I-1001J-8D01*
G01X1164560Y1187520D01*
X1164320Y1187240D01*
X1164140Y1187150D01*
G03X1164090Y1187120I487J-869D01*
G03X1163980Y1187040I1636J-2366D01*
G01X1163860Y1186950D01*
X1163230Y1186720D01*
X1163000Y1186740D01*
X1162780Y1186760D01*
X1162740Y1186770D01*
X1162720D01*
X1161830Y1186780D01*
X1161510Y1186900D01*
X1161380Y1187010D01*
G03X1160970Y1187300I-1857J-2191D01*
G02X1160470Y1188170I500J866D01*
G01Y1191730D01*
G03X1160180Y1192430I-1000J-4D01*
G01X1157760Y1194850D01*
G02X1157470Y1195550I710J704D01*
G01Y1195620D01*
G02X1157760Y1196320I1000J-4D01*
G01X1158120Y1196680D01*
X1158290Y1196760D01*
G03X1160220Y1199740I-1343J2985D01*
G01Y1210260D01*
G03X1156950Y1213530I-3273J-3D01*
G01X1153420D01*
G03X1151740Y1213040I43J-3271D01*
G01X1151600Y1212950D01*
X1151360Y1212900D01*
X1151200Y1212860D01*
G02X1150540Y1212930I-230J975D01*
G01X1150090Y1213150D01*
G02X1149520Y1214050I429J902D01*
G01Y1214400D01*
G03X1146650Y1217270I-2870J0D01*
G01X1143950D01*
G03X1141080Y1214400I0J-2870D01*
G01Y1211590D01*
G03X1141520Y1210090I2867J27D01*
G01X1141540Y1210070D01*
X1141640Y1209900D01*
X1141810Y1209620D01*
X1141840Y1209460D01*
X1141890Y1209250D01*
X1141830Y1208900D01*
G03X1141820Y1208760I990J-141D01*
G01Y1208530D01*
X1141730Y1208240D01*
X1141630Y1208110D01*
G03X1141070Y1206410I2322J-1707D01*
G01Y1203600D01*
G03X1143950Y1200720I2880J0D01*
G01X1146660D01*
G03X1148140Y1201130I-3J2888D01*
G01X1148160Y1201150D01*
X1148240Y1201190D01*
X1148480Y1201340D01*
X1148630Y1201380D01*
X1148820Y1201430D01*
X1149240Y1201400D01*
X1149420Y1201390D01*
X1149580Y1201320D01*
G02X1149880Y1201110I-414J-911D01*
G01X1149890Y1201100D01*
G02X1150180Y1200400I-710J-704D01*
G01Y1199730D01*
G03X1152100Y1196750I3277J3D01*
G01X1152220Y1196710D01*
G02X1152780Y1196210I-338J-942D01*
G03X1152800Y1196170I898J424D01*
G01X1152860Y1196060D01*
X1152930Y1195820D01*
Y1193670D01*
G03X1153220Y1192970I1000J4D01*
G01X1155640Y1190550D01*
G02X1155930Y1189850I-710J-704D01*
G01Y1188080D01*
X1155870Y1187850D01*
X1155810Y1187740D01*
X1155730Y1187560D01*
X1155520Y1187330D01*
X1155390Y1187250D01*
G03X1153980Y1184800I1424J-2450D01*
G01Y1181990D01*
G03X1154420Y1180490I2867J27D01*
G01X1154440Y1180470D01*
X1154540Y1180300D01*
X1154710Y1180020D01*
X1154740Y1179860D01*
X1154790Y1179650D01*
X1154730Y1179300D01*
G03X1154720Y1179160I990J-141D01*
G01Y1178920D01*
X1154640Y1178650D01*
X1154550Y1178520D01*
X1154390Y1178280D01*
G03X1153980Y1176810I2461J-1479D01*
G01Y1174000D01*
G03X1155270Y1171600I2878J0D01*
G01X1155360Y1171540D01*
X1155540Y1171360D01*
G02X1155830Y1170660I-710J-704D01*
G01Y1165280D01*
X1155770Y1165050D01*
X1155710Y1164940D01*
X1155630Y1164760D01*
X1155420Y1164530D01*
X1155290Y1164450D01*
G03X1153880Y1162000I1424J-2450D01*
G01Y1161500D01*
G02X1153260Y1160570I-1001J-4D01*
G01X1152980Y1160460D01*
X1152400Y1160570D01*
X1150890Y1162080D01*
G03X1150190Y1162370I-704J-710D01*
G01X1144990D01*
G02X1144260Y1162690I3J1000D01*
G03X1144270Y1157510I-2758J-2595D01*
G02X1145010Y1157830I734J-681D01*
G01X1148310D01*
G02X1149010Y1157540I-4J-1000D01*
G01X1149870Y1156680D01*
G02X1150080Y1155590I-711J-702D01*
G01X1149970Y1155310D01*
X1149470Y1154980D01*
X1148780D01*
X1148580Y1155070D01*
G03X1144360Y1148890I-1573J-3457D01*
G01X1144580Y1148670D01*
G02X1144870Y1147970I-710J-704D01*
G01Y1147890D01*
X1144740Y1146480D01*
X1144650Y1146300D01*
X1144470Y1145900D01*
X1144400Y1145750D01*
X1144200Y1145530D01*
X1144080Y1145450D01*
X1144070D01*
G03X1142580Y1143620I2061J-3200D01*
G01X1142500Y1143420D01*
X1142350Y1143270D01*
G02X1142050Y1143060I-714J701D01*
G01X1140930Y1142560D01*
X1140730Y1142470D01*
X1140070D01*
X1139920Y1142510D01*
G03X1135850Y1136530I-1114J-3617D01*
G01X1135960Y1136390D01*
X1136070Y1136070D01*
X1136040Y1134760D01*
Y1134670D01*
X1136000Y1134440D01*
X1135890Y1134080D01*
X1135760Y1133920D01*
G03X1139700Y1127840I2926J-2421D01*
G02X1140130Y1127860I260J-966D01*
G01X1140370Y1127820D01*
X1141990Y1126650D01*
X1142200Y1126270D01*
X1142210Y1126040D01*
G03X1142310Y1125360I3782J209D01*
G01X1142320Y1125320D01*
X1142350Y1125120D01*
G02X1142030Y1124230I-989J-147D01*
G01X1141850Y1124060D01*
X1141350Y1123950D01*
X1140880Y1124080D01*
X1140760Y1124150D01*
G03X1141500Y1118250I-1961J-3242D01*
G01X1141580Y1118330D01*
X1141790Y1118470D01*
G02X1142340Y1118630I543J-841D01*
G01X1149130D01*
G03X1149830Y1118920I-4J1000D01*
G01X1153270Y1122360D01*
X1153330Y1122400D01*
G02X1153950Y1122610I614J-791D01*
G01X1154200D01*
X1154290Y1122700D01*
X1155120D01*
X1155330Y1122740D01*
X1188870D01*
X1188900Y1122770D01*
X1189820D01*
X1190080Y1122790D01*
G03X1190690Y1123080I-100J996D01*
G01X1201640Y1134030D01*
X1201850Y1134110D01*
G02X1202900Y1133890I352J-937D01*
G01X1203320Y1133910D01*
G02X1203580Y1133890I54J-997D01*
G01X1203900Y1133820D01*
G02X1204400Y1133550I-205J-978D01*
G01X1204580Y1133370D01*
G02X1204750Y1133140I-711J-703D01*
G01X1204910Y1132840D01*
X1204950Y1132750D01*
X1204990Y1132670D01*
G02X1204950Y1131700I-894J-449D01*
G01X1204940Y1131690D01*
G02X1204090Y1131220I-848J529D01*
G01X1203600D01*
G03X1200730Y1128350I0J-2870D01*
G01Y1125650D01*
G03X1203600Y1122780I2870J0D01*
G01X1206410D01*
G03X1208090Y1123330I-10J2871D01*
G01X1208220Y1123430D01*
X1208510Y1123520D01*
X1209480D01*
X1209750Y1123440D01*
X1209880Y1123350D01*
X1210120Y1123190D01*
G03X1211590Y1122780I1479J2461D01*
G01X1214400D01*
G03X1217270Y1125650I0J2870D01*
G01Y1127600D01*
G02X1217560Y1128300I1000J-4D01*
G01X1218450Y1129190D01*
G02X1219310Y1129470I706J-708D01*
G01X1219550Y1129430D01*
X1219940Y1129150D01*
X1220110Y1128800D01*
X1220140Y1128650D01*
Y1128640D01*
G03X1220180Y1128450I2986J529D01*
G01X1220220Y1128290D01*
X1220190Y1127970D01*
X1220130Y1127820D01*
G02X1219910Y1127490I-926J379D01*
G01X1219880Y1127460D01*
Y1119100D01*
G02X1219590Y1118400I-1000J4D01*
G01X1218650Y1117460D01*
G02X1217950Y1117170I-704J710D01*
G01X1217680D01*
G02X1217440Y1117200I3J1000D01*
G01X1217200Y1117260D01*
X1216880Y1117500D01*
X1216780Y1117680D01*
G03X1214300Y1119120I-2480J-1416D01*
G01X1211490D01*
G03X1209810Y1118570I10J-2871D01*
G01X1209680Y1118470D01*
X1209390Y1118380D01*
X1208420D01*
X1208150Y1118460D01*
X1208020Y1118550D01*
X1207780Y1118710D01*
G03X1206310Y1119120I-1479J-2461D01*
G01X1203500D01*
G03X1200630Y1116250I0J-2870D01*
G01Y1113550D01*
G03X1203500Y1110680I2870J0D01*
G01X1206310D01*
G03X1207990Y1111230I-10J2871D01*
G01X1208120Y1111330D01*
X1208410Y1111420D01*
X1209380D01*
X1209650Y1111340D01*
X1209780Y1111250D01*
X1210020Y1111090D01*
G03X1211490Y1110680I1479J2461D01*
G01X1214300D01*
G03X1216790Y1112130I0J2863D01*
G01X1216920Y1112360D01*
X1217380Y1112630D01*
X1219830D01*
G03X1220530Y1112920I-4J1000D01*
G01X1222200Y1114590D01*
G02X1222900Y1114880I704J-710D01*
G01X1223840D01*
X1223970Y1114850D01*
X1224170Y1114820D01*
X1224350Y1114700D01*
G03X1229430Y1115630I2040J3197D01*
G01X1229450Y1115660D01*
X1229570Y1115820D01*
X1229940Y1116100D01*
G02X1230220Y1116250I606J-795D01*
G01X1231080Y1116550D01*
G02X1231410Y1116600I313J-951D01*
G01X1231740D01*
X1231810Y1116590D01*
X1231990Y1116570D01*
X1232070Y1116550D01*
G03X1233280Y1116460I824J2905D01*
G01X1233430Y1116480D01*
X1233770Y1116430D01*
X1233910Y1116370D01*
X1234090Y1116290D01*
X1235370Y1115180D01*
X1235450Y1115070D01*
G02X1235630Y1114490I-822J-573D01*
G01Y1105750D01*
G02X1235340Y1105050I-1000J4D01*
G01X1221760Y1091470D01*
X1221750D01*
X1217630Y1087350D01*
Y1087250D01*
X1215850Y1085470D01*
X1215750D01*
X1189120Y1058840D01*
G03X1188830Y1058140I710J-704D01*
G01Y1042050D01*
G02X1188540Y1041350I-1000J4D01*
G01X1173220Y1026030D01*
G03X1172930Y1025330I710J-704D01*
G01Y1023220D01*
G02X1172640Y1022520I-1000J4D01*
G01X1167360Y1017240D01*
G02X1166660Y1016950I-704J710D01*
G01X1166520D01*
X1166410Y1016960D01*
G03X1166170Y1016970I-239J-2861D01*
G01X1163450D01*
G37*
G36*
G01X1147200Y1334700D02*
Y1396400D01*
X1403000D01*
Y1384300D01*
X1239000D01*
Y1366300D01*
X1249000D01*
Y1361280D01*
X1258100Y1348080D01*
Y1327300D01*
X1253500D01*
Y1346650D01*
X1248290Y1354200D01*
X1217000D01*
Y1366300D01*
X1227000D01*
Y1374300D01*
X1169000D01*
Y1347600D01*
X1249000D01*
Y1327300D01*
X1239000D01*
Y1334700D01*
X1227000D01*
Y1327300D01*
X1217000D01*
Y1334700D01*
X1147200D01*
G37*
G36*
G01X1213300Y1327300D02*
Y1319500D01*
X1249000D01*
Y1327300D01*
X1213300D01*
G37*
G36*
G01X1338540Y1112170D02*
X1338010Y1111640D01*
G02X1337160Y1111350I-714J702D01*
G01X1335330Y1111620D01*
X1334950Y1111890D01*
X1334830Y1112100D01*
G03X1328730Y1112890I-3334J-1800D01*
G02X1328000Y1112570I-733J679D01*
G01X1324030D01*
G02X1323330Y1112860I4J1000D01*
G01X1321090Y1115100D01*
G02Y1116520I704J710D01*
G01X1321130Y1116560D01*
X1321180Y1116600D01*
G03X1321330Y1116720I-1717J2300D01*
G01X1322320D01*
G02X1322910Y1116530I4J-998D01*
G03X1324600Y1115980I1690J2321D01*
G01X1327400D01*
G03X1330270Y1118850I0J2870D01*
G01Y1121550D01*
G03X1327400Y1124420I-2870J0D01*
G01X1324600D01*
G03X1322910Y1123870I0J-2871D01*
G02X1322320Y1123680I-586J808D01*
G01X1321680D01*
G02X1321090Y1123870I-4J998D01*
G03X1319400Y1124420I-1690J-2321D01*
G01X1316600D01*
G03X1314110Y1122970I0J-2863D01*
G01X1313970Y1122740D01*
X1313510Y1122470D01*
X1311730D01*
G02X1311030Y1122760I4J1000D01*
G01X1309670Y1124110D01*
G02X1309380Y1124840I711J705D01*
G01X1309410Y1126480D01*
X1309570Y1126850D01*
X1309720Y1126990D01*
G03X1310640Y1129640I-2065J2202D01*
G01X1310610Y1129850D01*
X1310730Y1130270D01*
X1311860Y1131580D01*
G02X1312620Y1131930I760J-650D01*
G01X1329020D01*
G02X1329720Y1131640I-4J-1000D01*
G01X1338540Y1122820D01*
G02X1338830Y1122120I-710J-704D01*
G01Y1112870D01*
G02X1338540Y1112170I-1000J4D01*
G37*
G36*
G01X1314610Y1088760D02*
X1312840Y1088930D01*
X1312460Y1089160D01*
X1312340Y1089350D01*
G03X1312130Y1089630I-3135J-2133D01*
G01X1312020Y1089770D01*
X1311910Y1090070D01*
X1311870Y1091620D01*
X1311960Y1091930D01*
X1312060Y1092070D01*
G03X1311590Y1097070I-3061J2234D01*
G02X1311270Y1097800I679J733D01*
G01Y1102330D01*
G03X1310980Y1103030I-1000J-4D01*
G01X1300450Y1113560D01*
G02X1300160Y1114260I710J704D01*
G01Y1117280D01*
X1300250Y1117570D01*
X1300350Y1117700D01*
G03X1300910Y1119460I-2461J1752D01*
G01Y1124040D01*
G02X1301530Y1124960I999J-4D01*
G01X1301810Y1125080D01*
X1302400Y1124960D01*
X1309150Y1118220D01*
G03X1309850Y1117930I704J710D01*
G01X1313510D01*
X1313970Y1117660D01*
X1314110Y1117430D01*
G03X1315210Y1116340I2494J1417D01*
G01X1315460Y1116200D01*
X1315730Y1115740D01*
Y1114450D01*
G03X1316020Y1113750I1000J4D01*
G01X1321450Y1108320D01*
G03X1322150Y1108030I704J710D01*
G01X1328000D01*
G02X1328730Y1107710I-3J-999D01*
G03X1329700Y1106970I2753J2603D01*
G01X1329910Y1106850D01*
X1330180Y1106470D01*
X1330440Y1104640D01*
G02X1330160Y1103790I-988J-146D01*
G01X1315410Y1089040D01*
G02X1314610Y1088760I-699J714D01*
G37*
G36*
G01X1337610Y1111240D02*
X1336900Y1110530D01*
G02X1335490I-705J708D01*
G01X1335380Y1110640D01*
X1335250Y1110890D01*
X1335220Y1111040D01*
G03X1328730Y1112890I-3719J-738D01*
G02X1328000Y1112570I-733J679D01*
G01X1324030D01*
G02X1323330Y1112860I4J1000D01*
G01X1321090Y1115100D01*
G02Y1116520I704J710D01*
G01X1321130Y1116560D01*
X1321180Y1116600D01*
G03X1321330Y1116720I-1717J2300D01*
G01X1322320D01*
G02X1322910Y1116530I4J-998D01*
G03X1324600Y1115980I1690J2321D01*
G01X1327400D01*
G03X1330270Y1118850I0J2870D01*
G01Y1121550D01*
G03X1327400Y1124420I-2870J0D01*
G01X1324600D01*
G03X1322910Y1123870I0J-2871D01*
G02X1322320Y1123680I-586J808D01*
G01X1321680D01*
G02X1321090Y1123870I-4J998D01*
G03X1319400Y1124420I-1690J-2321D01*
G01X1316600D01*
G03X1314110Y1122970I0J-2863D01*
G01X1313970Y1122740D01*
X1313510Y1122470D01*
X1311730D01*
G02X1311030Y1122760I4J1000D01*
G01X1308850Y1124940D01*
G02X1308840Y1126350I703J710D01*
G01X1308950Y1126460D01*
X1309080Y1126530D01*
G03X1309280Y1126640I-1354J2699D01*
G01X1309410Y1126720D01*
X1309660Y1126800D01*
X1334150D01*
G02X1334850Y1126510I-4J-1000D01*
G01X1337610Y1123750D01*
G02X1337900Y1123050I-710J-704D01*
G01Y1111940D01*
G02X1337610Y1111240I-999J4D01*
G37*
G36*
G01X1313520Y1090540D02*
X1312460Y1092130D01*
X1312410Y1092630D01*
X1312510Y1092860D01*
G03X1311590Y1097070I-3508J1439D01*
G02X1311270Y1097800I679J733D01*
G01Y1102330D01*
G03X1310980Y1103030I-1000J-4D01*
G01X1300450Y1113560D01*
G02X1300160Y1114260I710J704D01*
G01Y1117280D01*
X1300250Y1117570D01*
X1300350Y1117700D01*
G03X1300910Y1119460I-2461J1752D01*
G01Y1124040D01*
G02X1301530Y1124960I999J-4D01*
G01X1301810Y1125080D01*
X1302400Y1124960D01*
X1309150Y1118220D01*
G03X1309850Y1117930I704J710D01*
G01X1313510D01*
X1313970Y1117660D01*
X1314110Y1117430D01*
G03X1315210Y1116340I2494J1417D01*
G01X1315460Y1116200D01*
X1315730Y1115740D01*
Y1114450D01*
G03X1316020Y1113750I1000J4D01*
G01X1321450Y1108320D01*
G03X1322150Y1108030I704J710D01*
G01X1328000D01*
G02X1328730Y1107710I-3J-999D01*
G03X1329700Y1106970I2753J2603D01*
G01X1329910Y1106850D01*
X1330180Y1106470D01*
X1330440Y1104640D01*
G02X1330160Y1103790I-988J-146D01*
G01X1316760Y1090390D01*
G02X1316060Y1090100I-704J710D01*
G01X1314360D01*
G02X1313520Y1090540I-10J1002D01*
G37*
G36*
G01X1329910Y1192770D02*
Y1192860D01*
X1329930Y1192950D01*
G03X1329970Y1193450I-2832J478D01*
G01Y1196150D01*
G03X1329720Y1197310I-2868J-11D01*
G01X1329660Y1197460D01*
X1329630Y1197770D01*
X1329940Y1199240D01*
X1330090Y1199500D01*
X1330220Y1199610D01*
G03X1330790Y1200330I-1937J2119D01*
G01X1330930Y1200560D01*
X1331390Y1200830D01*
X1343990D01*
X1344090Y1200730D01*
X1364550D01*
G02X1365250Y1200440I-4J-1000D01*
G01X1369470Y1196220D01*
X1369620Y1195840D01*
X1369610Y1195630D01*
G03X1369780Y1194370I3789J-130D01*
G01X1369860Y1194130D01*
X1369780Y1193670D01*
X1368680Y1192180D01*
G02X1367870Y1191770I-807J589D01*
G01X1330910D01*
G02X1329910Y1192770I0J1000D01*
G37*
G36*
G01X1340170Y1164660D02*
X1338250Y1165110D01*
X1337880Y1165450D01*
X1337790Y1165700D01*
G03X1330550Y1165500I-3589J-1206D01*
G01X1330450Y1165170D01*
X1329920Y1164770D01*
X1328750D01*
X1328730Y1164750D01*
X1326670D01*
X1326650Y1164770D01*
X1323350D01*
G02X1322650Y1165060I4J1000D01*
G01X1320460Y1167250D01*
G02X1320170Y1167950I710J704D01*
G01Y1169740D01*
X1320440Y1170200D01*
X1320690Y1170340D01*
G03X1320990Y1170530I-1383J2515D01*
G02X1321580Y1170720I586J-808D01*
G01X1322220D01*
G02X1322810Y1170530I4J-998D01*
G03X1324500Y1169980I1690J2321D01*
G01X1327300D01*
G03X1330170Y1172850I0J2870D01*
G01Y1175550D01*
G03X1330080Y1176250I-2868J-13D01*
G01X1330030Y1176480D01*
X1330120Y1176920D01*
X1331240Y1178350D01*
G02X1332020Y1178730I785J-620D01*
G01X1372950D01*
G02X1373650Y1178440I-4J-1000D01*
G01X1374970Y1177120D01*
X1375120Y1176740D01*
X1375110Y1176530D01*
G03X1375520Y1174680I3789J-131D01*
G01X1375650Y1174440D01*
X1375630Y1173930D01*
X1374590Y1172250D01*
G02X1373740Y1171770I-853J518D01*
G01X1348360D01*
G03X1347660Y1171480I4J-1000D01*
G01X1341100Y1164920D01*
G02X1340170Y1164660I-701J713D01*
G37*
G36*
G01X1311560Y1232140D02*
G02X1310040Y1232180I-743J668D01*
G03X1309690Y1232550I-2920J-2412D01*
G02X1309370Y1233290I681J734D01*
G01Y1235250D01*
X1309300Y1235320D01*
Y1245880D01*
G02X1309590Y1246580I1000J-4D01*
G01X1312750Y1249740D01*
G02X1313450Y1250030I704J-710D01*
G01X1314660D01*
G02X1315540Y1249520I7J-1002D01*
G01Y1249510D01*
G03X1315730Y1249200I2540J1344D01*
G02X1315920Y1248620I-809J-586D01*
G01Y1247980D01*
G02X1315730Y1247390I-1001J-3D01*
G03X1315180Y1245710I2321J-1690D01*
G01Y1242900D01*
G03X1318050Y1240030I2870J0D01*
G01X1320760D01*
G03X1322890Y1240980I-4J2873D01*
G01X1323020Y1241140D01*
X1323420Y1241320D01*
X1323630D01*
G02X1324630Y1240320I0J-1000D01*
G01Y1238780D01*
G03X1328080Y1235330I3454J4D01*
G01X1328100D01*
G02X1329100Y1234330I0J-1000D01*
G01Y1234170D01*
X1329020Y1233900D01*
X1328930Y1233770D01*
G03X1328430Y1232150I2374J-1620D01*
G01Y1229450D01*
G03X1331300Y1226580I2870J0D01*
G01X1334110D01*
G03X1335790Y1227130I-10J2871D01*
G02X1336380Y1227320I587J-811D01*
G01X1337020D01*
G02X1337600Y1227130I-6J-998D01*
G03X1337730Y1227050I1569J2405D01*
G01X1337820Y1226990D01*
X1337990Y1226820D01*
G02X1338280Y1226120I-710J-704D01*
G01Y1226100D01*
X1334190Y1222010D01*
G02X1333490Y1221720I-704J710D01*
G01X1327310D01*
G02X1326610Y1222010I4J1000D01*
G01X1318680Y1229940D01*
X1318690Y1230170D01*
G03X1311670Y1232280I-3788J130D01*
G02X1311560Y1232140I-836J544D01*
G37*
%LPC*%
G75*
G36*
G01X1390030Y1124630D02*
X1384770D01*
G02X1380880Y1128510I5J3895D01*
G01Y1133290D01*
G02X1384770Y1137170I3895J-15D01*
G01X1390030D01*
G02X1393920Y1133290I-5J-3895D01*
G01Y1128510D01*
G02X1390030Y1124630I-3895J15D01*
G37*
G36*
G01X1366370Y1003130D02*
Y997870D01*
G02X1362490Y993980I-3895J5D01*
G01X1357710D01*
G02X1353830Y997870I15J3895D01*
G01Y1003130D01*
G02X1357710Y1007020I3895J-5D01*
G01X1362490D01*
G02X1366370Y1003130I-15J-3895D01*
G37*
G36*
G01X1400070Y923830D02*
Y918570D01*
G02X1395930Y914430I-4145J5D01*
G01X1366670D01*
G02X1362530Y918570I5J4145D01*
G01Y923830D01*
G02X1366670Y927970I4145J-5D01*
G01X1395930D01*
G02X1400070Y923830I-5J-4145D01*
G37*
G36*
G01X1254730Y924130D02*
X1249470D01*
G02X1245580Y928010I5J3895D01*
G01Y932790D01*
G02X1249470Y936670I3895J-15D01*
G01X1254730D01*
G02X1258620Y932790I-5J-3895D01*
G01Y928010D01*
G02X1254730Y924130I-3895J15D01*
G37*
G36*
G01X1212690Y1289580D02*
X1202310D01*
G02X1195980Y1295910I3J6333D01*
G01Y1306290D01*
G02X1202310Y1312620I6333J-2D01*
G01X1212690D01*
G02X1219020Y1306290I-3J-6333D01*
G01Y1295910D01*
G02X1212690Y1289580I-6333J2D01*
G37*
G36*
G01Y1233580D02*
X1202310D01*
G02X1195980Y1239910I3J6333D01*
G01Y1250290D01*
G02X1202310Y1256620I6333J-2D01*
G01X1212690D01*
G02X1219020Y1250290I-3J-6333D01*
G01Y1239910D01*
G02X1212690Y1233580I-6333J2D01*
G37*
G36*
G01X1193350Y952950D02*
Y959950D01*
G02X1198370Y964970I5020J0D01*
G01X1207370D01*
G02X1212390Y959950I0J-5020D01*
G01Y952950D01*
G02X1207370Y947930I-5020J0D01*
G01X1198370D01*
G02X1193350Y952950I0J5020D01*
G37*
G36*
G01X1196350Y928700D02*
Y935200D01*
G02X1201120Y939970I4770J0D01*
G01X1209120D01*
G02X1213890Y935200I0J-4770D01*
G01Y928700D01*
G02X1209120Y923930I-4770J0D01*
G01X1201120D01*
G02X1196350Y928700I0J4770D01*
G37*
G36*
G01X1156690Y1289580D02*
X1146310D01*
G02X1139980Y1295910I2J6333D01*
G01Y1306290D01*
G02X1146310Y1312620I6332J-2D01*
G01X1156690D01*
G02X1163020Y1306290I-2J-6333D01*
G01Y1295910D01*
G02X1156690Y1289580I-6333J2D01*
G37*
G36*
G01Y1233580D02*
X1146310D01*
G02X1139980Y1239910I2J6333D01*
G01Y1250290D01*
G02X1146310Y1256620I6332J-2D01*
G01X1156690D01*
G02X1163020Y1250290I-2J-6333D01*
G01Y1239910D01*
G02X1156690Y1233580I-6333J2D01*
G37*
G36*
G01X1129350Y952950D02*
Y959950D01*
G02X1134370Y964970I5020J0D01*
G01X1143370D01*
G02X1148390Y959950I0J-5020D01*
G01Y952950D01*
G02X1143370Y947930I-5020J0D01*
G01X1134370D01*
G02X1129350Y952950I0J5020D01*
G37*
G36*
G01X1127850Y928700D02*
Y935200D01*
G02X1132620Y939970I4770J0D01*
G01X1140620D01*
G02X1145390Y935200I0J-4770D01*
G01Y928700D01*
G02X1140620Y923930I-4770J0D01*
G01X1132620D01*
G02X1127850Y928700I0J4770D01*
G37*
G36*
G01X1091600Y1315720D02*
X1092600D01*
G02X1092100Y1295680I-507J-10014D01*
G02X1091600Y1315720I7J10026D01*
G37*
G36*
G01X1434600Y1312820D02*
X1435600D01*
G02X1435100Y1292780I-507J-10014D01*
G02X1434600Y1312820I7J10026D01*
G37*
G36*
G01X1384770Y1121170D02*
X1390030D01*
G02X1393920Y1117290I-5J-3895D01*
G01Y1112510D01*
G02X1390030Y1108630I-3895J15D01*
G01X1384770D01*
G02X1383330Y1108910I10J3894D01*
G01X1383320D01*
X1383090Y1109000D01*
X1382620Y1108950D01*
X1381030Y1107880D01*
G03X1380590Y1107050I561J-829D01*
G01Y1103150D01*
G02X1380320Y1102470I-1000J3D01*
G01X1379200Y1101260D01*
X1379070Y1100880D01*
X1379080Y1100670D01*
G02X1378240Y1098010I-3780J-269D01*
G03X1378020Y1097380I781J-626D01*
G01Y1096120D01*
G03X1378240Y1095490I1001J-4D01*
G02X1378130Y1090580I-2940J-2390D01*
G03X1377880Y1089940I750J-662D01*
G01X1377860Y1089300D01*
G03X1378080Y1088650I999J-24D01*
G02X1372740Y1083330I-2973J-2355D01*
G03X1372120Y1083550I-626J-779D01*
G01X1371480D01*
G03X1370860Y1083330I6J-999D01*
G02X1365330Y1088380I-2363J2965D01*
G01X1365420Y1088520D01*
X1365510Y1088830D01*
X1365430Y1090190D01*
G03X1365210Y1090760I-999J-58D01*
G01X1365200Y1090770D01*
G02X1365160Y1095600I2900J2439D01*
G01X1365270Y1095730D01*
X1365390Y1096050D01*
X1365410Y1097640D01*
X1365310Y1097940D01*
X1365200Y1098080D01*
G02X1364580Y1101520I3000J2317D01*
G01X1364620Y1101660D01*
Y1102230D01*
X1364040Y1102810D01*
X1363670D01*
X1363710Y1121490D01*
G02X1364700Y1122490I1000J0D01*
G01X1380590Y1122600D01*
Y1122500D01*
X1380820Y1122060D01*
X1382410Y1120990D01*
G03X1383330Y1120890I556J831D01*
G02X1384770Y1121170I1450J-3614D01*
G37*
G36*
G01X1378530Y1025030D02*
X1373270D01*
G02X1369380Y1028910I5J3895D01*
G01Y1033690D01*
G02X1370970Y1036820I3896J-10D01*
G03X1371380Y1037630I-590J807D01*
G01Y1042830D01*
X1371280Y1042930D01*
Y1044510D01*
X1371110D01*
Y1065790D01*
G02X1372110Y1066790I1000J0D01*
G01X1387990D01*
G02X1388990Y1065790I0J-1000D01*
G01Y1045510D01*
G02X1387990Y1044510I-1000J0D01*
G01X1381420D01*
G03X1380420Y1043510I0J-1000D01*
G01Y1037630D01*
G03X1380830Y1036820I1000J-3D01*
G02X1382420Y1033690I-2306J-3140D01*
G01Y1028910D01*
G02X1378530Y1025030I-3895J15D01*
G37*
G36*
G01X1395930Y939830D02*
X1366670D01*
G02X1362530Y943970I5J4145D01*
G01Y949230D01*
G02X1366670Y953370I4145J-5D01*
G01X1375450D01*
G03X1376380Y953990I4J1001D01*
G01X1376490Y954270D01*
X1376380Y954850D01*
X1372370Y958860D01*
G02X1372080Y959560I710J704D01*
G01Y993760D01*
G03X1371630Y994600I-1002J4D01*
G01X1371620D01*
G02X1369830Y997870I2104J3277D01*
G01Y1003130D01*
G02X1371060Y1005970I3896J-1D01*
G03X1371380Y1006700I-680J733D01*
G01Y1008970D01*
G03X1370970Y1009780I-1000J3D01*
G02X1369380Y1012910I2306J3140D01*
G01Y1017690D01*
G02X1373270Y1021570I3895J-15D01*
G01X1378530D01*
G02X1382420Y1017690I-5J-3895D01*
G01Y1012910D01*
G02X1380830Y1009780I-3896J10D01*
G03X1380420Y1008970I590J-807D01*
G01Y1007040D01*
G03X1380820Y1006240I1000J0D01*
G02X1382370Y1003130I-2346J-3111D01*
G01Y997870D01*
G02X1380580Y994600I-3894J7D01*
G01X1380570D01*
G03X1380120Y993760I552J-836D01*
G01Y962900D01*
G03X1380410Y962200I1000J4D01*
G01X1385030Y957580D01*
G02X1385320Y956880I-710J-704D01*
G01Y954370D01*
G03X1386320Y953370I1000J0D01*
G01X1395930D01*
G02X1400070Y949230I-5J-4145D01*
G01Y943970D01*
G02X1395930Y939830I-4145J5D01*
G37*
G36*
G01X1341430D02*
X1312170D01*
G02X1308030Y943970I5J4145D01*
G01Y949230D01*
G02X1312170Y953370I4145J-5D01*
G01X1331370D01*
G03X1332070Y953660I-4J1000D01*
G01X1340190Y961780D01*
G03X1340480Y962480I-710J704D01*
G01Y963700D01*
G02X1340770Y964400I1000J-4D01*
G01X1343420Y967050D01*
G03X1343710Y967750I-710J704D01*
G01Y981990D01*
G02X1344710Y982990I1000J0D01*
G01X1367090D01*
G02X1368090Y981990I0J-1000D01*
G01Y964310D01*
G02X1367090Y963310I-1000J0D01*
G01X1352870D01*
G03X1352170Y963020I4J-1000D01*
G01X1349810Y960660D01*
G03X1349520Y959960I710J-704D01*
G01Y958740D01*
G02X1349230Y958040I-1000J4D01*
G01X1344270Y953080D01*
X1344250Y952280D01*
X1344520Y951990D01*
G02X1345570Y949230I-3097J-2758D01*
G01Y943970D01*
G02X1341430Y939830I-4145J5D01*
G37*
G36*
G01X1434500Y938320D02*
X1435500D01*
G02X1435000Y918280I-507J-10014D01*
G02X1434500Y938320I7J10026D01*
G37*
G36*
G01X1342160Y1035400D02*
X1342270Y1035530D01*
X1342390Y1035850D01*
X1342410Y1037440D01*
X1342310Y1037740D01*
X1342200Y1037880D01*
G02X1342160Y1042460I3000J2316D01*
G01X1342260Y1042590D01*
X1342350Y1042880D01*
Y1044420D01*
X1342260Y1044710D01*
X1342160Y1044840D01*
G02X1342510Y1049770I3041J2262D01*
G01X1342650Y1049910D01*
X1342790Y1050230D01*
X1342860Y1051760D01*
G03X1342660Y1052420I-998J58D01*
G01X1342650Y1052430D01*
G02X1347770Y1057900I2952J2368D01*
G03X1348350Y1057720I573J821D01*
G01X1348950D01*
G03X1349530Y1057900I7J1001D01*
G02X1354560Y1052320I2168J-3102D01*
G03X1354320Y1051650I758J-650D01*
G01X1354340Y1050130D01*
X1354470Y1049800D01*
X1354600Y1049660D01*
G02X1354790Y1044780I-2800J-2553D01*
G03X1354580Y1044160I791J-613D01*
G01Y1042940D01*
G03X1354790Y1042320I1000J-7D01*
G02X1354840Y1037740I-2992J-2323D01*
G01X1354740Y1037610D01*
X1354650Y1037320D01*
Y1035780D01*
X1354740Y1035490D01*
X1354840Y1035360D01*
G02X1349450Y1030130I-3044J-2255D01*
G03X1348810Y1030340I-613J-789D01*
G01X1348170D01*
G03X1347540Y1030100I21J-1001D01*
G02X1342160Y1035400I-2442J2902D01*
G37*
G36*
G01X1163810Y920930D02*
X1153930D01*
G02X1147850Y927010I2J6082D01*
G01Y936890D01*
G02X1153930Y942970I6082J-2D01*
G01X1163810D01*
G02X1169120Y939840I-7J-6081D01*
G01X1169260Y939600D01*
X1169720Y939330D01*
X1171750D01*
G03X1172620Y939840I-2J1000D01*
G02X1177930Y942970I5317J-2951D01*
G01X1187810D01*
G02X1193890Y936890I-3J-6083D01*
G01Y927010D01*
G02X1187810Y920930I-6083J3D01*
G01X1177930D01*
G02X1172620Y924060I7J6081D01*
G01X1172480Y924300D01*
X1172020Y924570D01*
X1169990D01*
G03X1169120Y924060I2J-1000D01*
G02X1163810Y920930I-5317J2951D01*
G37*
G36*
G01X1262170Y910270D02*
X1262060Y910550D01*
X1261560Y910880D01*
X1258840D01*
X1258350Y910570D01*
X1258230Y910320D01*
G02X1254730Y908130I-3503J1706D01*
G01X1249470D01*
G02X1245970Y910320I3J3896D01*
G01X1245850Y910570D01*
X1245360Y910880D01*
X1236120D01*
X1235950Y910820D01*
G02Y917980I-1250J3580D01*
G01X1236120Y917920D01*
X1245360D01*
X1245850Y918230D01*
X1245970Y918480D01*
G02X1249470Y920670I3503J-1706D01*
G01X1254730D01*
G02X1258230Y918480I-3J-3896D01*
G01X1258350Y918230D01*
X1258840Y917920D01*
X1261730D01*
X1262200Y918200D01*
X1262330Y918450D01*
G02X1269330Y919240I3769J-1992D01*
G03X1270090Y918890I760J650D01*
G01X1271610D01*
G03X1272370Y919240I0J1000D01*
G02X1278830I3230J-2780D01*
G03X1279590Y918890I760J650D01*
G01X1281110D01*
G03X1281870Y919240I0J1000D01*
G02X1289360Y916460I3229J-2780D01*
G01Y911940D01*
G02X1281870Y909160I-4261J0D01*
G03X1281110Y909510I-760J-650D01*
G01X1279590D01*
G03X1278830Y909160I0J-1000D01*
G02X1272370I-3230J2780D01*
G03X1271610Y909510I-760J-650D01*
G01X1270090D01*
G03X1269330Y909160I0J-1000D01*
G02X1262170Y910270I-3235J2780D01*
G37*
G54D40*
X1113020Y969820D03*
Y1115880D03*
X1192330Y992910D03*
X1338390D03*
X1417820Y969820D03*
Y1115880D03*
G54D42*
X1089700Y1163000D03*
Y1188400D03*
G54D41*
X1113300Y1016740D03*
X1112800Y1030820D03*
X1112300Y992500D03*
X1085980Y1024000D03*
Y1011000D03*
Y998500D03*
X1087400Y1067600D03*
X1087700Y1055500D03*
X1085980Y1036500D03*
X1087300Y1080800D03*
X1128000Y978680D03*
X1140050Y1074300D03*
X1140700Y1062300D03*
X1140050Y1047200D03*
Y1036700D03*
X1206600Y1093000D03*
X1191400Y1098600D03*
X1196600Y1088000D03*
X1290400Y993000D03*
X1390780Y985500D03*
Y998200D03*
X1390800Y1076500D03*
X1389000Y1037000D03*
X1390230Y1100000D03*
X1388600Y1090400D03*
X1417800Y1030400D03*
X1418000Y1004900D03*
X1417600Y1017500D03*
X1417800Y1042800D03*
Y1080600D03*
X1444850Y1010900D03*
Y998200D03*
X1445400Y1062100D03*
Y1049400D03*
%LPD*%
G75*
G36*
G01X1345000Y980700D02*
G02X1346000Y981700I1000J0D01*
G01X1365800D01*
G02X1366800Y980700I0J-1000D01*
G01Y965600D01*
G02X1365800Y964600I-1000J0D01*
G01X1346000D01*
G02X1345000Y965600I0J1000D01*
G01Y980700D01*
G37*
G36*
G01X1372400Y1064500D02*
G02X1373400Y1065500I1000J0D01*
G01X1386700D01*
G02X1387700Y1064500I0J-1000D01*
G01Y1046800D01*
G02X1386700Y1045800I-1000J0D01*
G01X1373400D01*
G02X1372400Y1046800I0J1000D01*
G01Y1064500D01*
G37*
G36*
G01X1379300Y1120290D02*
Y1105100D01*
G02X1378300Y1104100I-1000J0D01*
G01X1365960D01*
G02X1364960Y1105100I0J1000D01*
G01X1365000Y1120210D01*
G02X1365760Y1121180I1000J-1D01*
G02X1365990Y1121210I243J-970D01*
G01X1378290Y1121290D01*
G02X1379300Y1120290I11J-999D01*
G37*
G54D10*
G01X1326800Y921200D02*
X1314800D01*
X1301800Y934200D01*
Y939500D01*
X1286700Y954600D01*
X1266100D01*
G01X1376100Y1000500D02*
Y960820D01*
X1381300Y955620D01*
Y946600D01*
G01X1375600Y1115000D02*
X1387300D01*
X1387400Y1114900D01*
X1071870Y905560D03*
X1068570Y917560D03*
Y927560D03*
Y937720D03*
X1068550Y957690D03*
Y977850D03*
Y967690D03*
X1068570Y947720D03*
X1068560Y997880D03*
X1067550Y1028150D03*
Y1017990D03*
Y1007990D03*
X1068550Y987850D03*
X1067550Y1038150D03*
X1067650Y1048190D03*
Y1068350D03*
Y1058190D03*
Y1088590D03*
Y1108750D03*
Y1098590D03*
Y1118750D03*
Y1078350D03*
X1067660Y1128780D03*
X1069320Y1140080D03*
Y1150080D03*
Y1160240D03*
X1069330Y1180270D03*
X1069170Y1190050D03*
Y1200050D03*
X1069320Y1170240D03*
X1069150Y1230310D03*
Y1220150D03*
Y1240310D03*
Y1250340D03*
Y1210150D03*
X1068990Y1270130D03*
Y1290280D03*
Y1280280D03*
Y1260130D03*
X1068960Y1320470D03*
Y1310310D03*
X1069000Y1300320D03*
X1083470Y914760D03*
X1105470Y913260D03*
X1117070Y905560D03*
X1096870Y905260D03*
X1084970Y905560D03*
X1083170Y928760D03*
X1108770Y928160D03*
X1098070Y939460D03*
X1088570Y954360D03*
X1109070Y953160D03*
X1084670Y969560D03*
X1100000Y978680D03*
X1113300Y1016740D03*
X1112300Y992500D03*
X1085980Y1024000D03*
Y1011000D03*
Y998500D03*
X1087400Y1067600D03*
X1087700Y1055500D03*
X1112800Y1030820D03*
X1085980Y1036500D03*
X1100000Y1107300D03*
X1087300Y1080800D03*
X1112300Y1144100D03*
X1079570Y1135570D03*
X1116300Y1189000D03*
X1100970Y1224270D03*
X1088470Y1236170D03*
X1081370Y1217070D03*
X1102000Y1213100D03*
X1112600Y1279500D03*
X1111800Y1297500D03*
X1100370Y1267670D03*
X1092670Y1285570D03*
X1116300Y1257500D03*
X1090870Y1255770D03*
X1115110Y1323400D03*
X1095110D03*
X1105110D03*
X1086410D03*
X1076910D03*
X1125600Y932100D03*
X1127100Y956400D03*
X1138500Y967220D03*
X1147300Y981580D03*
X1128000Y978680D03*
X1147600Y970900D03*
X1153700Y1008200D03*
X1140050Y1074300D03*
X1140700Y1062300D03*
X1140050Y1047200D03*
Y1036700D03*
X1147600Y1106700D03*
X1145700Y1082400D03*
X1134870Y1111870D03*
X1155070Y1112770D03*
X1153670Y1076170D03*
X1141500Y1160100D03*
X1147000Y1151610D03*
X1158100Y1142600D03*
X1138800Y1120900D03*
X1146000Y1126200D03*
X1138680Y1131500D03*
X1138800Y1138900D03*
X1146100Y1142200D03*
X1130100Y1206700D03*
X1138470Y1177270D03*
X1137800Y1189300D03*
X1121300Y1178400D03*
X1133070Y1227270D03*
X1137730Y1245100D03*
X1151500Y1231330D03*
X1119970Y1243870D03*
X1121770Y1217070D03*
X1153600Y1217900D03*
X1138830Y1213100D03*
X1145200Y1219520D03*
X1130300Y1277800D03*
X1151500Y1287330D03*
Y1258870D03*
X1124500Y1309100D03*
X1156240Y1323170D03*
X1146240D03*
X1136240D03*
X1125110Y1323400D03*
X1151500Y1314870D03*
X1137730Y1301100D03*
X1195420Y974500D03*
X1194900Y1010400D03*
X1164800Y1019220D03*
X1179200Y1017000D03*
X1175700Y1009000D03*
X1179000Y1061200D03*
X1166170Y1065970D03*
X1198380Y1114900D03*
X1206600Y1093000D03*
X1191400Y1098600D03*
X1196600Y1088000D03*
X1177500Y1160800D03*
X1167600Y1142400D03*
X1198200Y1124500D03*
X1190400Y1160400D03*
X1179600Y1142500D03*
X1177600Y1152400D03*
X1208320Y1134500D03*
X1177500Y1175300D03*
X1189600Y1200100D03*
X1183570Y1189870D03*
X1196880Y1205500D03*
X1198400Y1190100D03*
X1198000Y1198000D03*
X1184000Y1165700D03*
X1203900Y1184900D03*
X1204600Y1222300D03*
X1193730Y1245100D03*
X1207400Y1231330D03*
X1188100Y1228800D03*
X1165270Y1245100D03*
X1169200Y1227600D03*
X1203700Y1212570D03*
X1179900Y1219720D03*
X1186470Y1213300D03*
X1207500Y1287330D03*
Y1258870D03*
X1206140Y1323070D03*
X1196140D03*
X1186240Y1323170D03*
X1176240D03*
X1166240D03*
X1193730Y1301100D03*
X1207500Y1314870D03*
X1165270Y1301100D03*
X1240020Y904700D03*
X1225010Y904710D03*
X1217650Y931950D03*
X1243330Y930500D03*
X1252200Y938920D03*
X1239800Y938680D03*
X1234700Y914400D03*
X1233610Y966110D03*
X1214750Y956450D03*
X1253100Y992800D03*
X1227940Y1018600D03*
X1231200Y1063600D03*
X1221500Y1063400D03*
X1250580Y1043980D03*
X1252800Y1093000D03*
X1226400Y1117900D03*
X1240380Y1156790D03*
X1250380D03*
X1250460Y1146750D03*
X1240460D03*
X1250430Y1136790D03*
X1240430D03*
X1250440Y1186750D03*
X1240440D03*
X1240450Y1176830D03*
X1250450D03*
X1250460Y1166900D03*
X1240460D03*
X1240870Y1226270D03*
X1241470Y1217170D03*
X1243200Y1245270D03*
X1236680Y1238800D03*
X1241820Y1232700D03*
X1221500Y1229500D03*
X1218480Y1223300D03*
X1218380Y1214800D03*
X1221270Y1245100D03*
X1230900Y1231100D03*
X1244500Y1272500D03*
X1235800Y1278300D03*
X1244000Y1302700D03*
X1234300Y1306800D03*
X1237300Y1318400D03*
X1221270Y1301000D03*
X1292000Y914000D03*
X1275500Y905000D03*
X1285070Y904690D03*
X1255090Y904740D03*
X1259000Y965880D03*
X1297110Y964990D03*
X1284600Y965880D03*
X1297110Y1020290D03*
X1290400Y993000D03*
X1277300Y992400D03*
X1266000Y992600D03*
X1289800Y1064800D03*
X1297100Y1063850D03*
X1279100Y1066500D03*
X1269200Y1063500D03*
X1260300Y1049600D03*
X1277700Y1093290D03*
X1286500Y1092200D03*
X1260380Y1156790D03*
X1270380D03*
X1290400Y1156770D03*
X1280400D03*
X1280480Y1146730D03*
X1290480D03*
X1270460Y1146750D03*
X1260460D03*
X1280450Y1136770D03*
X1290450D03*
X1270430Y1136790D03*
X1260430D03*
X1280460Y1186730D03*
X1290460D03*
X1270440Y1186750D03*
X1260440D03*
X1260450Y1176830D03*
X1270450D03*
X1290470Y1176810D03*
X1280470D03*
Y1166880D03*
X1290470D03*
X1270460Y1166900D03*
X1260460D03*
X1280470Y1252070D03*
X1268000Y1245270D03*
X1274720Y1238920D03*
X1272100Y1233220D03*
X1286500Y1232500D03*
X1293270Y1231910D03*
X1279700Y1232900D03*
X1277390Y1211080D03*
X1271120Y1211100D03*
X1287070Y1271070D03*
X1290970Y1285070D03*
X1263700Y1287770D03*
X1263600Y1274830D03*
X1270220Y1281300D03*
X1282300Y1310800D03*
X1267060Y1322950D03*
X1285760D03*
X1275760D03*
X1295760D03*
X1287370Y1298970D03*
X1263700Y1300330D03*
Y1313270D03*
X1270220Y1306800D03*
X1330010Y904760D03*
X1315160Y904720D03*
X1300080Y904680D03*
X1337900Y1007700D03*
X1313370Y1026470D03*
X1333570Y1056770D03*
X1328270Y1040470D03*
X1307900Y1049800D03*
X1308400Y1057900D03*
X1314000Y1063900D03*
X1319800Y1057400D03*
X1325900Y1064000D03*
X1304370Y1116070D03*
X1311370Y1114070D03*
X1309000Y1094300D03*
X1309180Y1087250D03*
X1299500Y1091800D03*
X1303100Y1085700D03*
X1331500Y1110300D03*
X1334010Y1120200D03*
X1332420Y1174200D03*
X1332220Y1194400D03*
X1334200Y1164500D03*
X1312930Y1244200D03*
X1319400Y1237780D03*
X1326180Y1230800D03*
X1332700Y1224330D03*
X1299870Y1245770D03*
X1299800Y1233610D03*
X1312700Y1221100D03*
X1314900Y1230300D03*
X1307100Y1229790D03*
X1341000Y1273400D03*
X1328300D03*
X1313900Y1295500D03*
X1330800Y1301900D03*
X1307400Y1313600D03*
X1305760Y1322950D03*
X1316890Y1322720D03*
X1326890D03*
X1336890D03*
X1299970Y1307270D03*
X1375060Y904740D03*
X1359990Y904710D03*
X1345170D03*
X1387600Y972700D03*
X1351980Y977220D03*
X1360000Y977200D03*
Y969200D03*
X1351980Y969220D03*
X1356300Y1021000D03*
X1348800Y1013700D03*
X1359300Y1009270D03*
X1351580Y1000500D03*
X1360100Y991730D03*
X1344900Y1074600D03*
X1353000D03*
X1345200Y1047100D03*
Y1040200D03*
X1345100Y1033000D03*
X1351800Y1033100D03*
Y1040000D03*
Y1047100D03*
X1351700Y1054800D03*
X1345600D03*
X1383800Y1049200D03*
X1383700Y1061900D03*
X1375800Y1049300D03*
Y1061900D03*
X1375600Y1115000D03*
X1368400Y1114900D03*
X1375400Y1107300D03*
X1368600Y1107200D03*
X1375300Y1100400D03*
X1368200D03*
X1375300Y1093100D03*
X1368100Y1093200D03*
X1368500Y1086300D03*
X1375100D03*
X1360170Y1161970D03*
X1367570Y1148970D03*
X1351170Y1145970D03*
X1360070Y1136770D03*
X1387400Y1139420D03*
X1383000Y1153200D03*
X1378900Y1176400D03*
X1379300Y1184200D03*
X1383600Y1169500D03*
X1373400Y1195500D03*
X1351500Y1240700D03*
X1349500Y1250900D03*
X1384100Y1209700D03*
X1361600Y1270900D03*
X1349910Y1259200D03*
X1384000Y1302600D03*
X1356890Y1322720D03*
X1386570Y1322760D03*
X1376570D03*
X1366570D03*
X1346890Y1322720D03*
X1349600Y1299200D03*
X1370300Y1300800D03*
X1416000Y917700D03*
X1420110Y904710D03*
X1405040Y904680D03*
X1390070Y904740D03*
X1412870Y937170D03*
X1420770Y957970D03*
X1430840Y977840D03*
X1390780Y985500D03*
X1417800Y1030400D03*
X1418000Y1004900D03*
X1390780Y998200D03*
X1417600Y1017500D03*
X1417800Y1042800D03*
X1389000Y1037000D03*
X1425710Y1107490D03*
X1390800Y1076500D03*
X1417800Y1080600D03*
X1390230Y1100000D03*
X1388600Y1090400D03*
X1396170Y1130900D03*
X1401470Y1209070D03*
X1421700Y1206200D03*
X1412470Y1190670D03*
X1421970Y1175770D03*
X1394600Y1192800D03*
X1395500Y1203100D03*
X1396600Y1232900D03*
X1422900Y1235300D03*
X1408870Y1242370D03*
X1405870Y1222170D03*
X1394000Y1243000D03*
X1389870Y1222170D03*
X1390300Y1215100D03*
X1405400Y1296200D03*
X1417200Y1262200D03*
X1416570Y1287570D03*
X1397570Y1285870D03*
X1403870Y1267070D03*
X1388400Y1313200D03*
X1406000Y1308700D03*
X1396570Y1322760D03*
X1406570D03*
X1417360Y1322790D03*
X1427360D03*
X1392500Y1299000D03*
X1459570Y910670D03*
X1450120Y904710D03*
X1435120D03*
X1460470Y938670D03*
Y930370D03*
X1433500Y954700D03*
X1460480Y968860D03*
X1460320Y978640D03*
X1446370Y973770D03*
X1460470Y958830D03*
Y948830D03*
X1447970Y951770D03*
X1460470Y1018030D03*
Y1008030D03*
X1460480Y1028060D03*
X1460470Y997870D03*
Y987870D03*
X1444850Y1010900D03*
Y998200D03*
X1461970Y1069030D03*
Y1058870D03*
Y1048870D03*
X1460320Y1037840D03*
X1445400Y1062100D03*
Y1049400D03*
X1461820Y1098840D03*
X1459020Y1119230D03*
Y1109230D03*
X1461980Y1089060D03*
X1461970Y1079030D03*
X1458870Y1159210D03*
X1459030Y1149420D03*
X1443370Y1150170D03*
X1459030Y1129390D03*
Y1139390D03*
Y1199530D03*
Y1189530D03*
Y1179370D03*
X1438670Y1188270D03*
X1440370Y1165070D03*
X1459030Y1169370D03*
X1440100Y1245300D03*
X1458860Y1239450D03*
Y1249450D03*
X1458870Y1219350D03*
Y1229350D03*
X1459040Y1209560D03*
X1442770Y1213870D03*
X1442170Y1276270D03*
X1458860Y1279640D03*
X1458700Y1289420D03*
X1458860Y1269600D03*
Y1259600D03*
X1440400Y1256000D03*
X1458700Y1309580D03*
X1447160Y1322790D03*
X1458360Y1320490D03*
X1437360Y1322790D03*
X1458700Y1299420D03*
G54D20*
X1158200Y1183400D03*
Y1175400D03*
X1145300Y1205000D03*
Y1213000D03*
X1173300Y996100D03*
Y988100D03*
X1164800Y1012700D03*
Y1004700D03*
X1167000Y1183300D03*
Y1175300D03*
X1180000Y1205200D03*
Y1213200D03*
X1239900Y953700D03*
Y945700D03*
X1250700Y1247200D03*
X1251200Y1224700D03*
Y1216700D03*
X1250700Y1255200D03*
X1260500Y1247200D03*
X1260100Y1224700D03*
Y1216700D03*
X1272200Y1226700D03*
Y1218700D03*
X1284800Y1224800D03*
Y1216800D03*
X1255700Y1290100D03*
Y1272500D03*
Y1264500D03*
X1260500Y1255200D03*
X1255700Y1298100D03*
X1299900Y1225600D03*
Y1217600D03*
G54D11*
X1113020Y969820D03*
Y1115880D03*
X1192330Y992910D03*
X1338390D03*
X1417820Y969820D03*
Y1115880D03*
G54D21*
X1151500Y1245100D03*
Y1301100D03*
X1207500Y1245100D03*
Y1301100D03*
G54D12*
X1089700Y1163000D03*
Y1188400D03*
G54D30*
X1222000Y1324800D03*
X1244000D03*
G54D22*
X1180400Y974200D03*
X1188400D03*
X1204900Y1114900D03*
X1205000Y1127000D03*
X1204900Y1194400D03*
X1212900Y1114900D03*
X1213000Y1127000D03*
X1212900Y1194400D03*
X1224900Y1214800D03*
X1232900D03*
X1243200Y1238800D03*
X1251200D03*
X1225000Y1223400D03*
X1233000D03*
X1260100Y1238800D03*
X1268100D03*
X1318900Y1203100D03*
X1326900D03*
X1332700Y1230800D03*
X1340700D03*
G54D13*
X1092100Y1305700D03*
X1435000Y928300D03*
X1435100Y1302800D03*
G54D31*
X1266100Y914200D03*
X1275600D03*
X1285100D03*
Y941200D03*
X1266100D03*
G54D32*
X1255800Y1324800D03*
G54D14*
X1158870Y931950D03*
X1182870D03*
G54D23*
X1203900Y1205600D03*
X1211900D03*
X1247700Y1290000D03*
X1255700D03*
X1263700Y1281300D03*
X1255700D03*
X1263700Y1306800D03*
X1255700D03*
X1326000Y1120200D03*
X1318000D03*
X1325700Y1194800D03*
X1317700D03*
X1325900Y1174200D03*
X1317900D03*
G54D33*
X1326800Y921200D03*
Y946600D03*
X1381300Y921200D03*
Y946600D03*
G54D15*
X1136620Y931950D03*
X1205120D03*
G54D24*
X1179500Y1273100D03*
G54D34*
X1341900Y1241600D03*
X1330390D03*
X1341900Y1256100D03*
X1330390D03*
G54D25*
X1252100Y914400D03*
Y930400D03*
X1375900Y1031300D03*
Y1015300D03*
X1387400Y1114900D03*
Y1130900D03*
G54D16*
X1138870Y956450D03*
X1202870D03*
G54D35*
G01X1156200Y987110D02*
Y981590D01*
X1156120Y981510D01*
Y976000D01*
X1164400Y967720D01*
Y958700D01*
G01X1179410Y974200D02*
X1177400Y972190D01*
Y962500D01*
G01X1164700Y987110D02*
Y981590D01*
X1164800Y981490D01*
Y980800D01*
X1170900Y974700D01*
Y958700D01*
G01X1247900Y1122210D02*
Y1102500D01*
X1213900Y1068500D01*
Y1042000D01*
X1241600Y1014300D01*
Y970100D01*
X1249600Y962100D01*
X1255700D01*
X1256930Y960880D01*
X1260080D01*
X1266100Y954850D01*
Y954600D01*
G01Y941200D02*
Y954600D01*
G01X1282900Y1201200D02*
X1282910D01*
Y1205010D01*
X1293400Y1215500D01*
X1296310D01*
X1296460Y1215650D01*
X1297950D01*
X1299900Y1217600D01*
G01X1326800Y921200D02*
X1326700Y921100D01*
G54D17*
X1157900Y958700D03*
X1183900D03*
X1177400D03*
X1170900D03*
X1164400D03*
G54D26*
X1250100Y954600D03*
X1266100D03*
X1376100Y1000500D03*
X1360100D03*
G54D36*
G01X1125600Y932100D02*
X1127800D01*
G01D02*
X1127950Y931950D01*
X1136620D01*
G01X1127100Y956400D02*
X1129500D01*
X1129550Y956450D01*
X1138870D01*
G01X1147500Y988100D02*
Y981900D01*
G01X1138870Y956450D02*
Y965630D01*
G01D02*
X1138500Y966000D01*
Y967220D01*
G01X1147500Y981900D02*
X1147300Y981700D01*
Y981580D01*
G01X1155200Y1205000D02*
X1145300D01*
G01X1151500Y1245100D02*
X1165270D01*
G01X1151500D02*
Y1231330D01*
G01Y1245100D02*
X1137730D01*
G01X1151500D02*
Y1258870D01*
G01X1145300Y1213000D02*
X1148700D01*
X1153600Y1217900D01*
G01X1138830Y1213100D02*
X1139900D01*
X1140000Y1213000D01*
G01X1145300D02*
Y1218100D01*
G01D02*
X1145200Y1218200D01*
Y1219520D01*
G01X1140000Y1213000D02*
X1145300D01*
G01X1151500Y1301100D02*
Y1287330D01*
G01Y1301100D02*
X1137730D01*
G01X1151500D02*
Y1314870D01*
G01Y1301100D02*
X1165270D01*
G01X1205120Y931950D02*
X1217650D01*
G01X1202870Y956450D02*
X1214750D01*
G01X1188400Y974200D02*
X1194000D01*
G01D02*
X1194300Y974500D01*
X1195420D01*
G01X1164800Y1012700D02*
Y1019220D01*
G01X1204900Y1114900D02*
X1198380D01*
G01X1198200Y1124500D02*
X1200700Y1127000D01*
G01D02*
X1205000D01*
G01X1203900Y1205600D02*
X1197100D01*
G01X1204600Y1194400D02*
X1204900D01*
G01X1197100Y1205600D02*
X1197000Y1205500D01*
X1196880D01*
G01X1204600Y1194400D02*
X1200300Y1190100D01*
G01X1204600Y1194400D02*
X1198900D01*
G01X1203900Y1205600D02*
Y1211300D01*
G01X1200300Y1190100D02*
X1198400D01*
G01X1198900Y1194400D02*
X1198000Y1195300D01*
Y1198000D01*
G01X1197100Y1205600D02*
X1197000Y1205700D01*
X1196880D01*
G01X1180000Y1205200D02*
X1179800Y1205000D01*
X1170200D01*
G01X1207500Y1245100D02*
X1193730D01*
G01X1180000Y1213200D02*
Y1217200D01*
X1179900Y1217300D01*
Y1219720D01*
G01X1180000Y1213200D02*
X1185600D01*
G01X1203900Y1211300D02*
X1203700Y1211500D01*
Y1212570D01*
G01X1207500Y1232700D02*
X1207400Y1232600D01*
Y1231330D01*
G01X1185600Y1213200D02*
X1185700Y1213300D01*
X1186470D01*
G01X1181300Y1273400D02*
X1216600D01*
X1233200Y1290000D01*
X1247700D01*
G01X1207500Y1301100D02*
X1193730D01*
G01X1252100Y930400D02*
X1244500D01*
G01D02*
X1244400Y930500D01*
X1243330D01*
G01X1239900Y940700D02*
X1239800Y940600D01*
Y938680D01*
G01X1239900Y945700D02*
Y940700D01*
G01Y953700D02*
X1249200D01*
G01X1232890Y1122210D02*
Y1115690D01*
G01D02*
X1229600Y1112400D01*
G01X1226400Y1117900D02*
X1223500D01*
X1222900Y1118500D01*
G01X1225880Y1129190D02*
X1222900Y1126210D01*
Y1118500D01*
G01X1237890Y1201200D02*
X1242900D01*
G01D02*
X1247900D01*
G01X1242900D02*
Y1205300D01*
X1238800Y1209400D01*
X1238300D01*
X1232900Y1214800D01*
G01X1224900D02*
X1218380D01*
G01X1207500Y1245100D02*
X1221270D01*
G01X1207500D02*
Y1258870D01*
G01X1221500Y1229500D02*
X1221700D01*
G01X1225000Y1223400D02*
X1220200D01*
G01X1207500Y1245100D02*
Y1232700D01*
G01X1220200Y1223400D02*
X1220100Y1223300D01*
X1218480D01*
G01X1221700Y1229500D02*
X1225000Y1226200D01*
Y1223400D01*
G01X1233000D02*
X1233900Y1224300D01*
Y1228100D01*
X1230900Y1231100D01*
G01X1232900Y1214800D02*
Y1223300D01*
X1233000Y1223400D01*
G01X1207500Y1301100D02*
Y1287330D01*
G01Y1301100D02*
Y1314870D01*
G01Y1301100D02*
X1219700D01*
G01D02*
X1219800Y1301000D01*
X1221270D01*
G01X1285070Y904690D02*
X1285100Y904720D01*
G01X1275500Y905000D02*
X1275600Y905100D01*
G01X1252100Y930400D02*
Y938000D01*
G01D02*
X1252200Y938100D01*
Y938920D01*
G01X1275600Y905100D02*
Y914200D01*
G01X1285100Y904720D02*
Y914200D01*
G01X1277700Y1093290D02*
X1277800Y1093390D01*
G01D02*
Y1101300D01*
G01X1286500Y1232500D02*
X1284800Y1230800D01*
G01D02*
Y1224800D01*
G01X1255800Y1324800D02*
Y1306900D01*
X1255700Y1306800D01*
G01X1326990Y1120200D02*
X1334010D01*
G01X1325900Y1174200D02*
X1332420D01*
G01X1332220Y1194400D02*
X1332000D01*
X1331600Y1194800D01*
G01D02*
X1325700D01*
G01X1312930Y1244200D02*
X1317400D01*
X1317500Y1244300D01*
X1319400D01*
G01D02*
Y1237780D01*
G01Y1244300D02*
X1319890Y1243810D01*
X1328180D01*
X1330390Y1241600D01*
G01X1332700Y1230800D02*
X1333000Y1231100D01*
Y1236270D01*
X1330390Y1238880D01*
Y1241600D01*
G01X1332700Y1230800D02*
Y1224330D01*
G01Y1230800D02*
X1326180D01*
G01X1299800Y1233610D02*
X1299900Y1233510D01*
G01D02*
Y1225600D01*
G01Y1217600D02*
X1305870D01*
X1308170Y1219900D01*
X1311500D01*
X1312700Y1221100D01*
G01X1341900Y1241600D02*
Y1232000D01*
X1340700Y1230800D01*
G01X1330390Y1256100D02*
X1327100D01*
X1323100Y1252100D01*
X1319600D01*
X1319400Y1252300D01*
G01X1360100Y1000500D02*
X1351580D01*
G01X1360100D02*
Y991730D01*
G01X1359300Y1009270D02*
Y1007800D01*
G01D02*
X1360100Y1007000D01*
Y1000500D01*
G01X1344300Y1256100D02*
X1349500Y1250900D01*
G01X1341900Y1256100D02*
X1344300D01*
G01D02*
X1346200D01*
X1349300Y1259200D01*
G01D02*
X1349910D01*
G01X1387400Y1130900D02*
Y1139420D01*
G01Y1130900D02*
X1396170D01*
G54D27*
X1232890Y1122210D03*
X1237890D03*
X1242900D03*
X1247900D03*
Y1201200D03*
X1242900D03*
X1237890D03*
X1232890D03*
X1252880Y1122210D03*
X1257880D03*
X1262890D03*
X1267890D03*
X1272890D03*
X1277900D03*
X1282900D03*
X1287880D03*
X1292890D03*
Y1201200D03*
X1287880D03*
X1282900D03*
X1277900D03*
X1272890D03*
X1267890D03*
X1262890D03*
X1257880D03*
X1252880D03*
X1297890Y1122210D03*
Y1201200D03*
G54D18*
X1156200Y988100D03*
Y996100D03*
X1147500Y988100D03*
Y996100D03*
X1158100Y1152600D03*
Y1160600D03*
X1164700Y988100D03*
Y996100D03*
X1167600Y1152600D03*
Y1160600D03*
X1277800Y1101300D03*
Y1109300D03*
X1319400Y1244300D03*
Y1252300D03*
G54D37*
G01X1147600Y970900D02*
X1150450D01*
X1157900Y963450D01*
Y958700D01*
G01X1234700Y914400D02*
X1252100D01*
G01D02*
X1265900D01*
X1266100Y914200D01*
G54D19*
X1155200Y1205000D03*
X1170200D03*
G54D28*
X1225880Y1159190D03*
Y1154210D03*
Y1149210D03*
Y1144200D03*
Y1139200D03*
Y1134200D03*
Y1129190D03*
Y1194190D03*
Y1189190D03*
Y1184210D03*
Y1179210D03*
Y1174200D03*
Y1169200D03*
Y1164190D03*
X1304900Y1129190D03*
Y1134200D03*
Y1139200D03*
Y1144200D03*
Y1149210D03*
Y1154210D03*
Y1159190D03*
Y1164190D03*
Y1169200D03*
Y1174200D03*
Y1179210D03*
Y1184210D03*
Y1189190D03*
Y1194190D03*
G54D38*
G01X1351980Y969220D02*
X1345000Y962240D01*
Y960200D01*
X1331400Y946600D01*
X1326800D01*
G01X1375900Y1015300D02*
Y1000700D01*
X1376100Y1000500D01*
G01X1375800Y1049300D02*
Y1044800D01*
X1375900Y1044700D01*
Y1031300D01*
G01X1375800Y1061900D02*
Y1049300D01*
G54D29*
X1265400Y1161700D03*
G54D39*
G01X1136620Y931950D02*
X1146390D01*
G01X1136620Y922930D02*
Y931950D01*
G01D02*
Y940970D01*
G01X1146850Y931950D02*
X1158870D01*
G01Y919930D02*
Y931950D01*
G01D02*
Y943970D01*
G01X1138870Y956450D02*
X1149390D01*
G01X1138870Y946930D02*
Y956450D01*
G01X1156200Y988100D02*
Y987110D01*
G01X1147500Y996100D02*
Y1002000D01*
X1153700Y1008200D01*
G01X1156200Y996100D02*
Y1000100D01*
X1153700Y1002600D01*
Y1008200D01*
G01X1158100Y1151610D02*
Y1142600D01*
G01X1147000Y1151610D02*
X1158100D01*
G01Y1151660D02*
X1149660Y1160100D01*
X1141500D01*
G01X1158100Y1151660D02*
Y1151610D01*
G01Y1152600D02*
Y1151660D01*
G01X1138800Y1120900D02*
X1148600D01*
X1152000Y1124300D01*
X1152030D01*
X1152470Y1124600D01*
X1152550D01*
X1152980Y1124880D01*
X1153260D01*
X1153350Y1124970D01*
X1154910D01*
X1155120Y1125010D01*
X1187930D01*
X1187960Y1125040D01*
X1188790D01*
X1188810Y1125060D01*
X1189460D01*
X1204200Y1139800D01*
X1210520D01*
X1211110Y1139200D01*
X1225880D01*
G01Y1144200D02*
X1216590D01*
X1215490Y1143100D01*
X1202600D01*
X1187540Y1128040D01*
X1186710D01*
X1186680Y1128010D01*
X1154830D01*
X1154620Y1127970D01*
X1152100D01*
X1151880Y1127750D01*
X1151650Y1127600D01*
X1151050D01*
X1150580Y1127130D01*
X1150560Y1127120D01*
X1149640Y1126200D01*
X1146000D01*
G01X1225880Y1149210D02*
X1217350D01*
X1214240Y1146100D01*
X1201300D01*
X1186260Y1131060D01*
X1148470D01*
X1147370Y1131500D01*
X1138680D01*
G01X1225880Y1154210D02*
X1218110D01*
X1216110Y1152210D01*
X1216100D01*
X1212990Y1149100D01*
X1200050D01*
X1185010Y1134060D01*
X1149050D01*
X1149000Y1134080D01*
X1147760Y1135320D01*
X1142380D01*
X1138800Y1138900D01*
G01X1225880Y1159190D02*
X1218850D01*
X1216870Y1157210D01*
X1216860D01*
X1214860Y1155210D01*
X1214850D01*
X1211740Y1152100D01*
X1198080D01*
X1195080Y1149100D01*
X1195000D01*
X1182960Y1137060D01*
X1151620D01*
X1150800Y1137500D01*
X1146100Y1142200D01*
G01X1158100Y1160600D02*
Y1170030D01*
X1158200Y1170130D01*
Y1175350D01*
G01Y1183400D02*
Y1191200D01*
X1155200Y1194200D01*
Y1205000D01*
G01X1158200Y1175350D02*
X1163750Y1169800D01*
X1180610D01*
X1182010Y1171200D01*
X1204100D01*
X1217110Y1184210D01*
X1225880D01*
G01X1158200Y1175350D02*
Y1175400D01*
G01X1195350Y931950D02*
X1205120D01*
G01Y922930D02*
Y931950D01*
G01D02*
Y940970D01*
G01X1182870Y931950D02*
X1194890D01*
G01X1182870Y919930D02*
Y931950D01*
G01D02*
Y943970D01*
G01X1183900Y949430D02*
Y958700D01*
G01D02*
Y967970D01*
G01Y958700D02*
X1188420D01*
G01X1192350Y956450D02*
X1202870D01*
G01Y946930D02*
Y956450D01*
G01D02*
Y965970D01*
G01X1188400Y968980D02*
Y974200D01*
G01D02*
Y979420D01*
G01X1180400Y974200D02*
X1179410D01*
G01X1177400Y962500D02*
Y958700D01*
G01X1164700Y988100D02*
Y987110D01*
G01X1242900Y1122210D02*
Y1105060D01*
X1194300Y1056460D01*
Y1037170D01*
X1179200Y1022070D01*
Y1017000D01*
G01X1164800Y1004700D02*
Y1004750D01*
X1170250Y1010200D01*
Y1016920D01*
X1175200Y1021870D01*
Y1024800D01*
X1191100Y1040700D01*
Y1057610D01*
X1216690Y1083200D01*
X1216790D01*
X1219900Y1086310D01*
Y1086410D01*
X1222690Y1089200D01*
X1222700D01*
X1237900Y1104400D01*
Y1122210D01*
X1237890D01*
G01X1164700Y996100D02*
Y1004600D01*
X1164800Y1004700D01*
G01X1173300Y996100D02*
Y997500D01*
X1173500Y997700D01*
Y1001730D01*
X1175700Y1003930D01*
Y1009000D01*
G01X1173300Y988100D02*
X1164700D01*
G01X1204900Y1109680D02*
Y1114900D01*
G01D02*
Y1120120D01*
G01X1167600Y1160600D02*
X1167800Y1160800D01*
X1177500D01*
G01X1167600Y1152600D02*
Y1142400D01*
G01X1190400Y1160400D02*
X1193570D01*
X1194270Y1161100D01*
X1194570D01*
X1196170Y1162700D01*
X1205540D01*
X1205740Y1162900D01*
X1207100D01*
X1218400Y1174200D01*
X1225880D01*
G01Y1164190D02*
X1219590D01*
X1213610Y1158210D01*
X1213600D01*
X1210490Y1155100D01*
X1196830D01*
X1193830Y1152100D01*
X1193750D01*
X1187730Y1146080D01*
X1183180D01*
X1179600Y1142500D01*
G01X1177600Y1152400D02*
X1189800D01*
X1192500Y1155100D01*
X1192580D01*
X1195580Y1158100D01*
X1195810D01*
X1196510Y1158800D01*
X1208800D01*
X1219200Y1169200D01*
X1225880D01*
G01X1177500Y1175300D02*
X1167000D01*
G01D02*
Y1175350D01*
X1172350Y1180700D01*
X1180800D01*
X1187300Y1174200D01*
X1202330D01*
X1217320Y1189190D01*
X1225880D01*
G01X1167000Y1183300D02*
Y1190200D01*
X1170000Y1193200D01*
Y1195770D01*
X1170200Y1195970D01*
Y1205000D01*
G01X1184000Y1165700D02*
X1204300D01*
X1217810Y1179210D01*
X1225880D01*
G01X1212900Y1194400D02*
X1212850D01*
X1203900Y1185450D01*
Y1184900D01*
G01X1179500Y1273100D02*
X1181000D01*
X1181300Y1273400D01*
G01X1259000Y965880D02*
Y973000D01*
X1248200Y983800D01*
Y1018100D01*
X1221500Y1044800D01*
Y1063400D01*
G01X1234680Y945700D02*
X1239900D01*
G01D02*
X1245120D01*
G01X1249200Y953700D02*
X1250100Y954600D01*
G01X1253100Y992800D02*
Y1021700D01*
X1229300Y1045500D01*
Y1056630D01*
X1231200Y1058530D01*
Y1063600D01*
G01X1257880Y1122210D02*
X1257890D01*
Y1115930D01*
X1261700Y1112120D01*
Y1111680D01*
X1261760Y1111530D01*
X1261880Y1110900D01*
Y1068940D01*
X1261760Y1068360D01*
X1261700Y1068210D01*
Y1067750D01*
X1260900Y1066960D01*
Y1066940D01*
X1250580Y1056620D01*
Y1043980D01*
G01X1212900Y1114900D02*
X1219300D01*
X1222900Y1118500D01*
G01X1232890Y1122210D02*
Y1129190D01*
X1235970Y1132270D01*
X1242310D01*
X1244950Y1134910D01*
Y1141250D01*
X1245940Y1142240D01*
Y1148630D01*
X1249580Y1152270D01*
X1262260D01*
X1264900Y1154910D01*
Y1161200D01*
X1265400Y1161700D01*
G01X1225880Y1134200D02*
X1220250D01*
X1213050Y1127000D01*
X1213000D01*
G01D02*
X1212950D01*
X1208320Y1131630D01*
Y1134500D01*
G01X1211900Y1205600D02*
X1218160D01*
X1218260Y1205500D01*
X1222800D01*
X1227100Y1201200D01*
X1232890D01*
G01X1225880Y1194190D02*
X1219610D01*
X1219400Y1194400D01*
X1212900D01*
G01X1243200Y1238800D02*
X1236680D01*
G01X1243200D02*
Y1245270D01*
G01X1241820Y1232700D02*
X1243200Y1234080D01*
G01D02*
Y1238800D01*
G01X1251200D02*
Y1246700D01*
X1250700Y1247200D01*
G01Y1255200D02*
Y1259500D01*
X1255700Y1264500D01*
G01X1244000Y1319780D02*
Y1324800D01*
G01X1236480D02*
X1244000D01*
G01X1222000Y1319780D02*
Y1324800D01*
G01X1214480D02*
X1222000D01*
G01D02*
X1229520D01*
G01X1285100Y914200D02*
Y921730D01*
G01Y914200D02*
X1290370D01*
G01X1252100Y930400D02*
X1259620D01*
G01X1252100Y923130D02*
Y930400D01*
G01X1284600Y965880D02*
X1280080D01*
X1279960Y966000D01*
X1279700D01*
X1271300Y974400D01*
Y1053630D01*
X1279100Y1061430D01*
Y1066500D01*
G01X1266000Y992600D02*
Y1055230D01*
X1269200Y1058430D01*
Y1063500D01*
G01X1289800Y1064800D02*
X1293300Y1068290D01*
X1293790Y1068510D01*
X1293980Y1068700D01*
X1298280D01*
X1333690Y1104110D01*
X1333700D01*
X1341100Y1111520D01*
Y1123470D01*
X1330370Y1134200D01*
X1304900D01*
G01X1279100Y1066500D02*
X1270900Y1074700D01*
Y1112030D01*
X1272900Y1114030D01*
Y1122210D01*
X1272890D01*
G01X1267890D02*
Y1115930D01*
X1267900D01*
Y1069870D01*
X1269200Y1068570D01*
Y1063500D01*
G01X1260300Y1049600D02*
Y1062090D01*
X1263900Y1065690D01*
Y1065700D01*
X1264880Y1066670D01*
Y1111190D01*
X1264700Y1112130D01*
Y1114120D01*
X1262890Y1115930D01*
Y1122210D01*
G01X1252800Y1093000D02*
Y1098300D01*
X1252880Y1098380D01*
Y1122210D01*
G01X1309180Y1087250D02*
X1305980Y1090450D01*
X1305900D01*
X1304250Y1092100D01*
Y1101150D01*
X1292890Y1112510D01*
Y1122210D01*
G01X1299500Y1091800D02*
Y1101400D01*
X1297300Y1103600D01*
Y1103670D01*
X1287880Y1113090D01*
Y1122210D01*
G01X1282900D02*
Y1115930D01*
X1282910Y1115920D01*
Y1113830D01*
X1283250Y1113480D01*
X1284880Y1111850D01*
Y1111840D01*
X1291300Y1105420D01*
Y1092980D01*
X1298580Y1085700D01*
X1303100D01*
G01X1277900Y1122210D02*
Y1115930D01*
X1277800Y1115830D01*
Y1109300D01*
G01D02*
Y1109250D01*
X1288300Y1098750D01*
Y1094000D01*
X1286500Y1092200D01*
G01X1384100Y1209700D02*
X1379580D01*
X1379180Y1209300D01*
X1359200D01*
X1356510Y1211990D01*
X1313050D01*
X1308960Y1207900D01*
X1296100D01*
X1292890Y1204690D01*
Y1201200D01*
G01X1390300Y1215100D02*
X1385780D01*
X1385680Y1215200D01*
X1308780D01*
X1305670Y1212100D01*
X1295310D01*
X1287880Y1204690D01*
Y1201200D01*
G01X1262890D02*
Y1207480D01*
X1266370Y1210960D01*
Y1213070D01*
X1272000Y1218700D01*
X1272200D01*
G01X1277900Y1201200D02*
Y1204870D01*
X1284800Y1211770D01*
Y1216800D01*
G01X1260100Y1216700D02*
Y1209690D01*
X1257890Y1207480D01*
Y1201200D01*
X1257880D01*
G01X1251200Y1216700D02*
Y1209500D01*
X1252880Y1207820D01*
Y1201200D01*
G01X1277390Y1211080D02*
X1276900Y1210580D01*
Y1208260D01*
X1272900Y1204260D01*
Y1201200D01*
X1272890D01*
G01X1271120Y1211100D02*
X1267890Y1207870D01*
Y1201200D01*
G01X1268100Y1238800D02*
Y1237220D01*
X1272100Y1233220D01*
G01X1268100Y1238800D02*
Y1242700D01*
X1268000Y1242800D01*
Y1245270D01*
G01X1268100Y1238800D02*
X1274400D01*
G01X1272200Y1226700D02*
Y1231100D01*
G01D02*
X1272100Y1231200D01*
Y1233220D01*
G01X1274400Y1238800D02*
X1274520Y1238920D01*
X1274720D01*
G01X1251200Y1224700D02*
Y1238800D01*
G01X1260100D02*
Y1246800D01*
X1260500Y1247200D01*
G01X1260100Y1224700D02*
Y1238800D01*
G01X1272200Y1218700D02*
Y1218750D01*
X1279350Y1225900D01*
Y1229980D01*
X1279700Y1230320D01*
Y1232900D01*
G01X1284800Y1216800D02*
Y1216850D01*
X1293270Y1225320D01*
Y1231910D01*
G01X1263700Y1281300D02*
X1270220D01*
G01X1263700D02*
Y1287770D01*
G01Y1281300D02*
Y1276500D01*
G01D02*
X1263600Y1276400D01*
Y1274830D01*
G01X1255700Y1290000D02*
Y1290100D01*
G01Y1281300D02*
Y1290000D01*
G01Y1272500D02*
Y1281300D01*
G01X1260500Y1255200D02*
Y1259700D01*
X1255700Y1264500D01*
G01X1263700Y1306800D02*
Y1313270D01*
G01Y1306800D02*
X1270220D01*
G01X1263700D02*
Y1300330D01*
G01X1255700Y1298100D02*
Y1306800D01*
G01X1297100Y1063850D02*
X1297160Y1063900D01*
X1297730D01*
X1334940Y1101110D01*
X1334950D01*
X1344100Y1110270D01*
Y1124720D01*
X1331320Y1137500D01*
X1312880D01*
X1311180Y1139200D01*
X1304900D01*
G01X1307900Y1049800D02*
X1302400Y1055300D01*
Y1064320D01*
X1336190Y1098110D01*
X1336200D01*
X1347110Y1109030D01*
Y1114020D01*
X1347100Y1114030D01*
Y1125970D01*
X1332570Y1140500D01*
X1314880D01*
X1311180Y1144200D01*
X1304900D01*
G01X1308400Y1057900D02*
Y1066070D01*
X1337440Y1095110D01*
X1337450D01*
X1350110Y1107780D01*
Y1115270D01*
X1350100Y1115280D01*
Y1127220D01*
X1333820Y1143500D01*
X1333810D01*
X1333410Y1143900D01*
X1316480D01*
X1311180Y1149210D01*
X1304900D01*
G01Y1154210D02*
X1311180D01*
X1318090Y1147300D01*
X1319800D01*
X1319900Y1147200D01*
X1334360D01*
X1335070Y1146490D01*
X1335080D01*
X1353100Y1128470D01*
Y1116530D01*
X1353110Y1116520D01*
Y1106530D01*
X1353100Y1106510D01*
Y1104400D01*
X1314000Y1065300D01*
Y1063900D01*
G01X1304900Y1159190D02*
X1312110D01*
X1320700Y1150600D01*
X1320750D01*
X1321150Y1150200D01*
X1335610D01*
X1336310Y1149500D01*
X1336320D01*
X1356100Y1129720D01*
Y1117780D01*
X1356110Y1117770D01*
Y1105820D01*
X1356100Y1105800D01*
Y1103150D01*
X1319800Y1066850D01*
Y1057400D01*
G01X1344900Y1074600D02*
X1331800D01*
X1329480Y1072280D01*
Y1067580D01*
X1325900Y1064000D01*
G01X1326000Y1114980D02*
Y1120200D01*
G01X1309000Y1094300D02*
Y1101800D01*
X1297890Y1112910D01*
Y1122210D01*
G01X1318000Y1120200D02*
Y1114980D01*
X1322680Y1110300D01*
X1331500D01*
G01X1326000Y1120200D02*
Y1125420D01*
G01X1383000Y1153200D02*
X1379800Y1156400D01*
X1338180D01*
X1334980Y1153200D01*
X1322400D01*
X1311410Y1164190D01*
X1304900D01*
G01Y1169200D02*
X1311180D01*
X1314900Y1165480D01*
Y1165350D01*
X1320750Y1159500D01*
X1324460D01*
X1324480Y1159480D01*
X1330920D01*
X1330940Y1159500D01*
X1338890D01*
X1348890Y1169500D01*
X1383600D01*
G01X1304900Y1129190D02*
Y1125670D01*
X1310380Y1120200D01*
X1318000D01*
G01X1378900Y1176400D02*
X1374300Y1181000D01*
X1315060D01*
X1313270Y1179210D01*
X1304900D01*
G01X1394600Y1192800D02*
X1391300Y1189500D01*
X1331030D01*
X1330880Y1189350D01*
X1313520D01*
X1313360Y1189190D01*
X1304900D01*
G01X1395500Y1203100D02*
X1390980D01*
X1389880Y1202000D01*
X1375880D01*
X1371880Y1206000D01*
X1354800D01*
X1351810Y1208990D01*
X1314790D01*
X1307000Y1201200D01*
X1297890D01*
G01X1379300Y1184200D02*
X1374780D01*
X1374770Y1184210D01*
X1304900D01*
G01X1326900Y1203100D02*
X1344930D01*
X1345030Y1203000D01*
X1365900D01*
X1373400Y1195500D01*
G01X1317700Y1194800D02*
X1317910Y1195010D01*
Y1203100D01*
G01D02*
X1316610Y1201800D01*
X1313300D01*
X1310150Y1198650D01*
Y1196680D01*
X1307660Y1194190D01*
X1304900D01*
G01X1318900Y1203100D02*
X1317910D01*
G01X1334200Y1164500D02*
X1332200Y1162500D01*
X1329690D01*
X1329670Y1162480D01*
X1325730D01*
X1325710Y1162500D01*
X1322000D01*
X1317900Y1166600D01*
Y1174200D01*
G01D02*
X1304900D01*
G01X1314900Y1230300D02*
X1325900Y1219300D01*
X1334900D01*
X1340700Y1225100D01*
Y1230800D01*
G01X1319400Y1252300D02*
X1312100D01*
X1307030Y1247230D01*
Y1234380D01*
X1307100Y1234310D01*
Y1229790D01*
G01X1379880Y1130900D02*
X1387400D01*
G01Y1123630D02*
Y1130900D01*
M02*
