G04 (created by PCBNEW (2013-mar-13)-testing) date Wed 18 Dec 2013 12:45:34 PM CET*
%MOIN*%
G04 Gerber Fmt 3.4, Leading zero omitted, Abs format*
%FSLAX34Y34*%
G01*
G70*
G90*
G04 APERTURE LIST*
%ADD10C,0.005906*%
%ADD11C,0.006000*%
%ADD12C,0.015000*%
%ADD13C,0.005000*%
G04 APERTURE END LIST*
G54D10*
G54D11*
X28193Y-34124D02*
X41330Y-34124D01*
X28173Y-30097D02*
G75*
G03X27829Y-29753I-344J0D01*
G74*
G01*
X27829Y-30441D02*
G75*
G03X28173Y-30097I0J344D01*
G74*
G01*
X28193Y-33700D02*
G75*
G03X27829Y-33336I-364J0D01*
G74*
G01*
X27829Y-25284D02*
G75*
G03X28193Y-24920I0J364D01*
G74*
G01*
X25100Y-33336D02*
X27829Y-33336D01*
X25100Y-30441D02*
X25100Y-33336D01*
X27829Y-30441D02*
X25100Y-30441D01*
X25100Y-29753D02*
X27829Y-29753D01*
X25100Y-25284D02*
X25100Y-29753D01*
X27829Y-25284D02*
X25100Y-25284D01*
X28193Y-17724D02*
X28193Y-24920D01*
X41330Y-17724D02*
X41330Y-34124D01*
X28193Y-17724D02*
X41330Y-17724D01*
X28193Y-33700D02*
X28193Y-34124D01*
G54D12*
X36109Y-26175D02*
X40305Y-26175D01*
X35530Y-21667D02*
X35530Y-20939D01*
X35530Y-20939D02*
X40884Y-20939D01*
X40884Y-21667D02*
X40884Y-20939D01*
X40884Y-24935D02*
X40884Y-23085D01*
X35530Y-24935D02*
X35530Y-23085D01*
G54D13*
X37092Y-23960D02*
X37092Y-24122D01*
X37082Y-24141D01*
X37073Y-24150D01*
X37054Y-24160D01*
X37016Y-24160D01*
X36997Y-24150D01*
X36987Y-24141D01*
X36978Y-24122D01*
X36978Y-23960D01*
X36854Y-24046D02*
X36873Y-24036D01*
X36882Y-24027D01*
X36892Y-24008D01*
X36892Y-23998D01*
X36882Y-23979D01*
X36873Y-23970D01*
X36854Y-23960D01*
X36816Y-23960D01*
X36797Y-23970D01*
X36787Y-23979D01*
X36778Y-23998D01*
X36778Y-24008D01*
X36787Y-24027D01*
X36797Y-24036D01*
X36816Y-24046D01*
X36854Y-24046D01*
X36873Y-24055D01*
X36882Y-24065D01*
X36892Y-24084D01*
X36892Y-24122D01*
X36882Y-24141D01*
X36873Y-24150D01*
X36854Y-24160D01*
X36816Y-24160D01*
X36797Y-24150D01*
X36787Y-24141D01*
X36778Y-24122D01*
X36778Y-24084D01*
X36787Y-24065D01*
X36797Y-24055D01*
X36816Y-24046D01*
M02*
