G04 (created by PCBNEW (2013-mar-13)-testing) date Wed 18 Dec 2013 12:45:34 PM CET*
%MOIN*%
G04 Gerber Fmt 3.4, Leading zero omitted, Abs format*
%FSLAX34Y34*%
G01*
G70*
G90*
G04 APERTURE LIST*
%ADD10C,0.005906*%
%ADD11C,0.006000*%
%ADD12R,0.021300X0.021700*%
%ADD13R,0.021700X0.021300*%
%ADD14R,0.039370X0.021654*%
%ADD15R,0.031500X0.019700*%
%ADD16R,0.037402X0.033465*%
%ADD17R,0.165354X0.027559*%
%ADD18O,0.017717X0.043307*%
%ADD19R,0.161417X0.094488*%
%ADD20R,0.259843X0.259843*%
%ADD21O,0.009449X0.023622*%
%ADD22O,0.023622X0.009449*%
%ADD23R,0.045000X0.025000*%
%ADD24R,0.025000X0.045000*%
%ADD25R,0.059055X0.059055*%
%ADD26R,0.009449X0.035433*%
%ADD27R,0.035433X0.009449*%
%ADD28R,0.011800X0.019700*%
%ADD29R,0.055118X0.027559*%
G04 APERTURE END LIST*
G54D10*
G54D11*
X28193Y-34124D02*
X41330Y-34124D01*
X28173Y-30097D02*
G75*
G03X27829Y-29753I-344J0D01*
G74*
G01*
X27829Y-30441D02*
G75*
G03X28173Y-30097I0J344D01*
G74*
G01*
X28193Y-33700D02*
G75*
G03X27829Y-33336I-364J0D01*
G74*
G01*
X27829Y-25284D02*
G75*
G03X28193Y-24920I0J364D01*
G74*
G01*
X25100Y-33336D02*
X27829Y-33336D01*
X25100Y-30441D02*
X25100Y-33336D01*
X27829Y-30441D02*
X25100Y-30441D01*
X25100Y-29753D02*
X27829Y-29753D01*
X25100Y-25284D02*
X25100Y-29753D01*
X27829Y-25284D02*
X25100Y-25284D01*
X28193Y-17724D02*
X28193Y-24920D01*
X41330Y-17724D02*
X41330Y-34124D01*
X28193Y-17724D02*
X41330Y-17724D01*
X28193Y-33700D02*
X28193Y-34124D01*
G54D12*
X33230Y-25130D03*
X33230Y-24815D03*
X33247Y-23930D03*
X33247Y-23615D03*
G54D13*
X33057Y-22587D03*
X33372Y-22587D03*
X33057Y-21583D03*
X33372Y-21583D03*
G54D12*
X32860Y-23930D03*
X32860Y-23615D03*
G54D13*
X32880Y-24260D03*
X32565Y-24260D03*
X33230Y-24260D03*
X33545Y-24260D03*
G54D12*
X33057Y-23249D03*
X33057Y-22934D03*
X33057Y-21926D03*
X33057Y-22241D03*
X32880Y-25130D03*
X32880Y-24815D03*
X33872Y-31770D03*
X33872Y-32085D03*
X33005Y-31771D03*
X33005Y-32086D03*
X33975Y-22933D03*
X33975Y-22618D03*
G54D13*
X34778Y-23447D03*
X35093Y-23447D03*
G54D12*
X33930Y-29752D03*
X33930Y-30067D03*
X34497Y-24588D03*
X34497Y-24273D03*
X34010Y-24588D03*
X34010Y-24273D03*
X32204Y-24736D03*
X32204Y-24421D03*
X31850Y-24736D03*
X31850Y-24421D03*
X33530Y-32085D03*
X33530Y-31770D03*
X32615Y-32086D03*
X32615Y-31771D03*
X38579Y-33583D03*
X38579Y-33268D03*
G54D13*
X40104Y-28387D03*
X40419Y-28387D03*
X40105Y-28014D03*
X40420Y-28014D03*
X40105Y-27647D03*
X40420Y-27647D03*
G54D14*
X36400Y-32966D03*
X36400Y-33715D03*
X37463Y-32966D03*
X36400Y-33340D03*
X37463Y-33715D03*
G54D15*
X37314Y-21762D03*
X37314Y-22254D03*
X37314Y-23238D03*
X37314Y-22746D03*
X36526Y-22746D03*
X36526Y-23238D03*
X36526Y-22254D03*
X36526Y-21762D03*
G54D16*
X34489Y-22961D03*
X35060Y-22961D03*
X35060Y-22508D03*
X34489Y-22508D03*
G54D13*
X39688Y-28387D03*
X39373Y-28387D03*
X39688Y-28017D03*
X39373Y-28017D03*
X39688Y-27647D03*
X39373Y-27647D03*
G54D17*
X26116Y-33069D03*
X26116Y-32675D03*
X26116Y-32282D03*
X26116Y-31888D03*
X26116Y-31494D03*
X26116Y-31100D03*
X26116Y-30707D03*
X26116Y-25549D03*
X26116Y-25943D03*
X26116Y-26337D03*
X26116Y-26730D03*
X26116Y-27124D03*
X26116Y-27518D03*
X26116Y-27911D03*
X26116Y-28305D03*
X26116Y-28699D03*
X26116Y-29093D03*
X26116Y-29486D03*
X26116Y-29486D03*
X26116Y-29093D03*
X26116Y-28699D03*
X26116Y-28305D03*
X26116Y-27911D03*
X26116Y-27518D03*
X26116Y-27124D03*
X26116Y-26730D03*
X26116Y-26337D03*
X26116Y-25943D03*
X26116Y-25549D03*
X26116Y-30707D03*
X26116Y-31100D03*
X26116Y-31494D03*
X26116Y-31888D03*
X26116Y-32282D03*
X26116Y-32675D03*
X26116Y-33069D03*
G54D18*
X38230Y-21457D03*
X38730Y-21457D03*
X39230Y-21457D03*
X39730Y-21457D03*
G54D19*
X38980Y-22560D03*
G54D18*
X39730Y-23662D03*
X39230Y-23662D03*
X38730Y-23662D03*
X38230Y-23662D03*
G54D20*
X33439Y-27277D03*
G54D21*
X33340Y-28812D03*
X33143Y-28812D03*
X32946Y-28812D03*
X32750Y-28812D03*
X32553Y-28812D03*
X32356Y-28812D03*
X32159Y-28812D03*
X33537Y-28812D03*
X33734Y-28812D03*
X33931Y-28812D03*
X34127Y-28812D03*
X34324Y-28812D03*
X34521Y-28812D03*
X34718Y-28812D03*
X34718Y-25741D03*
X34521Y-25741D03*
X34324Y-25741D03*
X34127Y-25741D03*
X33931Y-25741D03*
X33734Y-25741D03*
X33537Y-25741D03*
X33340Y-25741D03*
X33143Y-25741D03*
X32946Y-25741D03*
X32750Y-25741D03*
X32553Y-25741D03*
X32356Y-25741D03*
X32159Y-25741D03*
G54D22*
X34974Y-28556D03*
X34974Y-28359D03*
X34974Y-28162D03*
X34974Y-27965D03*
X34974Y-27769D03*
X34974Y-27572D03*
X34974Y-27375D03*
X34974Y-27178D03*
X34974Y-26981D03*
X34974Y-26784D03*
X34974Y-26588D03*
X34974Y-26391D03*
X34974Y-26194D03*
X34974Y-25997D03*
X31903Y-25997D03*
X31903Y-26194D03*
X31903Y-26391D03*
X31903Y-26588D03*
X31903Y-26784D03*
X31903Y-26981D03*
X31903Y-27178D03*
X31903Y-27375D03*
X31903Y-27572D03*
X31903Y-27769D03*
X31903Y-27965D03*
X31903Y-28162D03*
X31903Y-28359D03*
X31903Y-28556D03*
G54D13*
X31804Y-23457D03*
X32119Y-23457D03*
X32140Y-21377D03*
X31825Y-21377D03*
X32125Y-22907D03*
X31810Y-22907D03*
G54D23*
X38075Y-32969D03*
X38075Y-33569D03*
G54D12*
X35882Y-22252D03*
X35882Y-22567D03*
X29477Y-26080D03*
X29477Y-25765D03*
G54D13*
X36151Y-28790D03*
X36466Y-28790D03*
X36151Y-26782D03*
X36466Y-26782D03*
X36273Y-25820D03*
X35958Y-25820D03*
G54D12*
X34920Y-24586D03*
X34920Y-24271D03*
X31240Y-25487D03*
X31240Y-25172D03*
G54D13*
X31006Y-28494D03*
X30691Y-28494D03*
X31003Y-28884D03*
X30688Y-28884D03*
G54D24*
X29167Y-33655D03*
X28567Y-33655D03*
G54D13*
X38312Y-25140D03*
X38627Y-25140D03*
X38322Y-25600D03*
X38637Y-25600D03*
X30625Y-24384D03*
X30940Y-24384D03*
G54D12*
X29865Y-26080D03*
X29865Y-25765D03*
G54D13*
X35957Y-25475D03*
X36272Y-25475D03*
G54D12*
X31482Y-24736D03*
X31482Y-24421D03*
G54D25*
X30450Y-23050D03*
G54D26*
X30745Y-22439D03*
X30548Y-22439D03*
X30351Y-22439D03*
X30154Y-22439D03*
X30154Y-23660D03*
X30351Y-23660D03*
X30548Y-23660D03*
X30745Y-23660D03*
G54D27*
X29839Y-22754D03*
X29839Y-22951D03*
X29839Y-23148D03*
X29839Y-23345D03*
X31060Y-23345D03*
X31060Y-23148D03*
X31060Y-22951D03*
X31060Y-22754D03*
G54D28*
X29462Y-26487D03*
X29856Y-26487D03*
X29856Y-27117D03*
X29659Y-27117D03*
X29462Y-27117D03*
G54D29*
X31990Y-21853D03*
X31990Y-22444D03*
G54D24*
X29590Y-33655D03*
X30190Y-33655D03*
G54D21*
X32946Y-25741D03*
X33143Y-25741D03*
M02*
