M48
;DRILL file {Pcbnew (2013-mar-13)-testing} date Wed 18 Dec 2013 12:45:37 PM CET
;FORMAT={-:-/ absolute / inch / decimal}
FMAT,2
INCH,TZ
T1C0.016
T2C0.024
T3C0.026
T4C0.039
T5C0.047
%
G90
G05
M72
T1
X2.7146Y-3.0919
X2.7196Y-2.5714
X2.7222Y-3.2128
X2.7268Y-2.9186
X2.7299Y-2.7555
X2.7344Y-2.6239
X2.7411Y-2.6881
X2.7468Y-3.1691
X2.7539Y-2.5694
X2.7639Y-2.8161
X2.7873Y-2.7652
X2.8046Y-3.1687
X2.8071Y-2.6385
X2.8251Y-2.8102
X2.8304Y-2.5432
X2.8634Y-2.7457
X2.88Y-2.338
X2.884Y-2.225
X2.892Y-3.3129
X2.8946Y-2.797
X2.8965Y-3.1662
X2.8985Y-2.6863
X2.9Y-3.08
X2.9332Y-2.8415
X2.94Y-2.2749
X2.9585Y-2.8888
X2.959Y-3.3212
X2.9623Y-2.2256
X2.9649Y-2.8251
X2.9661Y-2.427
X2.9764Y-2.7538
X2.9799Y-3.1662
X2.9925Y-2.1434
X3.Y-3.08
X3.0063Y-2.9518
X3.0084Y-3.3126
X3.0141Y-2.6909
X3.0212Y-2.5634
X3.0268Y-2.7748
X3.0314Y-2.8505
X3.0315Y-2.6209
X3.0359Y-2.8869
X3.0399Y-2.4741
X3.0414Y-2.7287
X3.045Y-2.305
X3.0538Y-2.8141
X3.0636Y-3.1662
X3.066Y-2.499
X3.0684Y-2.9939
X3.08Y-3.08
X3.085Y-2.639
X3.0893Y-2.7253
X3.0966Y-2.774
X3.0968Y-2.4057
X3.0982Y-2.1462
X3.1338Y-2.8494
X3.1364Y-2.359
X3.1563Y-2.5512
X3.1576Y-2.8884
X3.1577Y-2.6425
X3.16Y-3.34
X3.2204Y-2.5049
X3.245Y-2.345
X3.25Y-2.63
X3.25Y-2.73
X3.25Y-2.82
X3.2508Y-2.9181
X3.255Y-2.13
X3.255Y-2.19
X3.255Y-2.265
X3.3129Y-2.9168
X3.3168Y-3.0114
X3.34Y-2.63
X3.34Y-2.82
X3.3439Y-2.7277
X3.3499Y-2.9794
X3.3618Y-3.0762
X3.3647Y-3.0285
X3.3698Y-2.4587
X3.375Y-2.195
X3.38Y-2.365
X3.3802Y-2.4928
X3.3931Y-2.943
X3.395Y-2.122
X3.414Y-2.3265
X3.4155Y-2.4944
X3.4326Y-3.0945
X3.4362Y-2.9988
X3.44Y-2.63
X3.44Y-2.73
X3.44Y-2.82
X3.4461Y-2.3397
X3.458Y-3.177
X3.459Y-2.181
X3.4653Y-2.4899
X3.4661Y-2.9655
X3.485Y-3.34
X3.4903Y-3.0974
X3.5022Y-2.5373
X3.5035Y-2.5721
X3.504Y-2.124
X3.5453Y-2.6325
X3.5598Y-2.7578
X3.5624Y-2.4883
X3.5624Y-3.1636
X3.5721Y-2.1567
X3.5838Y-2.6784
X3.5838Y-2.8791
X3.59Y-2.31
X3.5996Y-2.1069
X3.6133Y-2.7649
X3.6304Y-3.0415
X3.6321Y-2.8031
X3.6346Y-2.4219
X3.635Y-2.975
X3.6437Y-2.5141
X3.648Y-3.142
X3.6546Y-2.7326
X3.6755Y-2.7785
X3.6837Y-2.9039
X3.6849Y-2.8382
X3.687Y-3.056
X3.695Y-3.289
X3.695Y-3.371
X3.696Y-3.334
X3.7107Y-2.7425
X3.7121Y-2.1051
X3.7168Y-2.5267
X3.721Y-2.622
X3.728Y-2.683
X3.748Y-3.335
X3.758Y-2.571
X3.766Y-2.756
X3.774Y-2.3691
X3.775Y-3.
X3.775Y-3.1
X3.775Y-3.2
X3.7881Y-2.9034
X3.797Y-2.673
X3.817Y-2.757
X3.8454Y-2.2341
X3.846Y-2.2782
X3.847Y-2.636
X3.8482Y-2.5964
X3.865Y-3.257
X3.873Y-2.756
X3.8952Y-2.861
X3.898Y-2.256
X3.9Y-2.925
X3.9Y-3.
X3.9Y-3.1
X3.9Y-3.2
X3.9043Y-2.4102
X3.9114Y-2.5407
X3.9129Y-2.6295
X3.925Y-3.325
X3.9516Y-2.2326
X3.9518Y-2.277
X3.9949Y-2.926
X4.Y-3.325
X4.05Y-3.
X4.05Y-3.1
X4.05Y-3.2
X4.0621Y-2.1287
X4.0775Y-2.3359
X4.0789Y-2.4507
X4.083Y-2.675
X4.0898Y-2.926
X4.0922Y-2.8056
T2
X3.1872Y-3.2531
X3.2856Y-3.2531
X3.3644Y-3.2531
X3.4628Y-3.2531
T3
X3.6664Y-3.2283
X3.7164Y-3.2283
T5
X3.2344Y-3.3358
X3.4156Y-3.3358
T4
X3.0888Y-3.3653G85X3.0888Y-3.3062
G05
X3.5612Y-3.3653G85X3.5612Y-3.3062
G05
T0
M30
