G04 (created by PCBNEW (2013-mar-13)-testing) date Wed 18 Dec 2013 12:45:34 PM CET*
%MOIN*%
G04 Gerber Fmt 3.4, Leading zero omitted, Abs format*
%FSLAX34Y34*%
G01*
G70*
G90*
G04 APERTURE LIST*
%ADD10C,0.005906*%
%ADD11C,0.006000*%
%ADD12R,0.021300X0.021700*%
%ADD13R,0.057087X0.078740*%
%ADD14R,0.031496X0.059055*%
%ADD15R,0.025000X0.045000*%
G04 APERTURE END LIST*
G54D10*
G54D11*
X28193Y-34124D02*
X41330Y-34124D01*
X28173Y-30097D02*
G75*
G03X27829Y-29753I-344J0D01*
G74*
G01*
X27829Y-30441D02*
G75*
G03X28173Y-30097I0J344D01*
G74*
G01*
X28193Y-33700D02*
G75*
G03X27829Y-33336I-364J0D01*
G74*
G01*
X27829Y-25284D02*
G75*
G03X28193Y-24920I0J364D01*
G74*
G01*
X25100Y-33336D02*
X27829Y-33336D01*
X25100Y-30441D02*
X25100Y-33336D01*
X27829Y-30441D02*
X25100Y-30441D01*
X25100Y-29753D02*
X27829Y-29753D01*
X25100Y-25284D02*
X25100Y-29753D01*
X27829Y-25284D02*
X25100Y-25284D01*
X28193Y-17724D02*
X28193Y-24920D01*
X41330Y-17724D02*
X41330Y-34124D01*
X28193Y-17724D02*
X41330Y-17724D01*
X28193Y-33700D02*
X28193Y-34124D01*
G54D12*
X36902Y-27079D03*
X36902Y-26764D03*
X37652Y-27079D03*
X37652Y-26764D03*
X38402Y-27079D03*
X38402Y-26764D03*
X39152Y-27079D03*
X39152Y-26764D03*
X39902Y-27079D03*
X39902Y-26764D03*
G54D13*
X40884Y-22376D03*
X35530Y-22376D03*
X35530Y-25644D03*
X40884Y-25644D03*
G54D14*
X36947Y-24620D03*
X37380Y-24620D03*
X37813Y-24620D03*
X38246Y-24620D03*
X38679Y-24620D03*
X39113Y-24620D03*
X39546Y-24620D03*
X39979Y-24620D03*
G54D15*
X33550Y-33355D03*
X32950Y-33355D03*
M02*
