G04 (created by PCBNEW (2013-mar-13)-testing) date Fri 20 Dec 2013 03:08:07 PM CET*
%MOIN*%
G04 Gerber Fmt 3.4, Leading zero omitted, Abs format*
%FSLAX34Y34*%
G01*
G70*
G90*
G04 APERTURE LIST*
%ADD10C,0.005906*%
%ADD11R,0.033300X0.033700*%
%ADD12R,0.069087X0.090740*%
%ADD13R,0.043496X0.071055*%
%ADD14R,0.037000X0.057000*%
%ADD15C,0.078740*%
%ADD16O,0.071055X0.130110*%
%ADD17C,0.059244*%
%ADD18C,0.051370*%
%ADD19C,0.043000*%
%ADD20R,0.043000X0.043000*%
%ADD21R,0.033700X0.033300*%
%ADD22R,0.090740X0.069087*%
%ADD23R,0.071055X0.043496*%
%ADD24C,0.104000*%
%ADD25R,0.071100X0.071100*%
%ADD26C,0.071100*%
%ADD27C,0.042000*%
%ADD28R,0.106488X0.045071*%
%ADD29R,0.021843X0.031685*%
%ADD30O,0.130110X0.071055*%
G04 APERTURE END LIST*
G54D10*
G54D11*
X62039Y-47099D03*
X62039Y-46784D03*
X62789Y-47099D03*
X62789Y-46784D03*
X63539Y-47099D03*
X63539Y-46784D03*
X64289Y-47099D03*
X64289Y-46784D03*
X65039Y-47099D03*
X65039Y-46784D03*
G54D12*
X66021Y-42396D03*
X60667Y-42396D03*
X60667Y-45664D03*
X66021Y-45664D03*
G54D13*
X62084Y-44640D03*
X62517Y-44640D03*
X62950Y-44640D03*
X63383Y-44640D03*
X63816Y-44640D03*
X64250Y-44640D03*
X64683Y-44640D03*
X65116Y-44640D03*
G54D14*
X58687Y-53375D03*
X58087Y-53375D03*
G54D15*
X54087Y-41520D03*
X65862Y-53545D03*
G54D16*
X56024Y-53377D03*
X60749Y-53377D03*
G54D17*
X59292Y-53377D03*
X57481Y-53377D03*
G54D18*
X59764Y-52550D03*
X58780Y-52550D03*
X57993Y-52550D03*
X57009Y-52550D03*
G54D19*
X61801Y-52302D03*
G54D20*
X62301Y-52302D03*
G54D11*
X78977Y-47054D03*
X78977Y-46739D03*
X79727Y-47054D03*
X79727Y-46739D03*
X80477Y-47054D03*
X80477Y-46739D03*
X81227Y-47054D03*
X81227Y-46739D03*
X81977Y-47054D03*
X81977Y-46739D03*
G54D12*
X82959Y-42351D03*
X77605Y-42351D03*
X77605Y-45619D03*
X82959Y-45619D03*
G54D13*
X79022Y-44595D03*
X79455Y-44595D03*
X79888Y-44595D03*
X80321Y-44595D03*
X80754Y-44595D03*
X81188Y-44595D03*
X81621Y-44595D03*
X82054Y-44595D03*
G54D14*
X75625Y-53330D03*
X75025Y-53330D03*
G54D15*
X71025Y-41475D03*
X82800Y-53500D03*
G54D16*
X72962Y-53332D03*
X77687Y-53332D03*
G54D17*
X76230Y-53332D03*
X74419Y-53332D03*
G54D18*
X76702Y-52505D03*
X75718Y-52505D03*
X74931Y-52505D03*
X73947Y-52505D03*
G54D19*
X78739Y-52257D03*
G54D20*
X79239Y-52257D03*
G54D21*
X63673Y-31004D03*
X63358Y-31004D03*
X63673Y-31384D03*
X63358Y-31384D03*
G54D22*
X61639Y-35140D03*
X58371Y-29785D03*
G54D23*
X59395Y-31203D03*
X59395Y-31636D03*
X59395Y-32069D03*
X59395Y-32502D03*
X59395Y-32935D03*
X59395Y-33368D03*
X59395Y-33801D03*
X59395Y-34234D03*
G54D24*
X77352Y-29937D03*
X77352Y-35937D03*
G54D25*
X78244Y-36150D03*
G54D26*
X78260Y-29744D03*
G54D27*
X68261Y-34409D03*
X68261Y-33659D03*
X68261Y-35159D03*
G54D21*
X76992Y-34014D03*
X76677Y-34014D03*
G54D11*
X75869Y-34575D03*
X75869Y-34890D03*
G54D21*
X76561Y-35658D03*
X76246Y-35658D03*
G54D11*
X75869Y-35569D03*
X75869Y-35254D03*
G54D21*
X75919Y-33696D03*
X76234Y-33696D03*
G54D11*
X77467Y-34017D03*
X77467Y-34332D03*
G54D28*
X76679Y-34761D03*
G54D29*
X77072Y-35135D03*
X76875Y-35135D03*
X76679Y-35135D03*
X76482Y-35135D03*
X76285Y-35135D03*
X76285Y-34386D03*
X76482Y-34386D03*
X76679Y-34386D03*
X76875Y-34386D03*
X77072Y-34386D03*
G54D15*
X78986Y-34534D03*
X78986Y-31344D03*
G54D30*
X78795Y-30574D03*
X78795Y-35299D03*
G54D17*
X78795Y-33842D03*
X78795Y-32031D03*
G54D18*
X77968Y-34314D03*
X77968Y-33330D03*
X77968Y-32543D03*
X77968Y-31559D03*
G54D20*
X72426Y-32534D03*
X76926Y-32534D03*
X76426Y-32534D03*
X75926Y-32534D03*
X75426Y-32534D03*
X74926Y-32534D03*
X74426Y-32534D03*
X73926Y-32534D03*
X73426Y-32534D03*
X72926Y-32534D03*
X76334Y-32034D03*
X75834Y-32034D03*
X75334Y-32034D03*
X74834Y-32034D03*
X74334Y-32034D03*
X73834Y-32034D03*
X73334Y-32034D03*
X72834Y-32034D03*
G54D19*
X73923Y-35242D03*
X73923Y-34742D03*
X73923Y-34242D03*
X73923Y-33742D03*
X73923Y-33242D03*
X74423Y-34242D03*
X74423Y-33742D03*
X74423Y-33242D03*
X74423Y-34742D03*
X74423Y-35242D03*
X73423Y-35242D03*
X73423Y-34742D03*
X73423Y-34242D03*
X73423Y-33742D03*
X73423Y-33242D03*
X72923Y-35242D03*
X72923Y-34742D03*
X72923Y-34242D03*
X72923Y-33742D03*
X72923Y-33242D03*
X74923Y-35242D03*
X75423Y-35242D03*
X75423Y-34742D03*
X74923Y-34742D03*
X74923Y-34242D03*
X75423Y-34242D03*
X74923Y-33742D03*
X75423Y-33742D03*
X74923Y-33242D03*
X75423Y-33242D03*
X72423Y-35242D03*
X72423Y-34742D03*
X72423Y-34242D03*
X72423Y-33742D03*
X71923Y-33742D03*
X71923Y-34242D03*
X71923Y-34742D03*
X71923Y-35242D03*
X71423Y-35242D03*
X71423Y-34742D03*
X71423Y-34242D03*
X71423Y-33742D03*
X70923Y-33742D03*
X70923Y-34242D03*
X70923Y-34742D03*
X70923Y-35242D03*
X70423Y-35242D03*
X70423Y-34742D03*
X70423Y-34242D03*
X70423Y-33742D03*
X69923Y-33742D03*
X69923Y-34242D03*
X69923Y-34742D03*
X69923Y-35242D03*
X69423Y-35242D03*
X69423Y-34742D03*
X69423Y-34242D03*
X68923Y-34242D03*
X68923Y-34742D03*
X68923Y-35242D03*
X68923Y-33742D03*
X69423Y-33742D03*
X76061Y-36306D03*
G54D20*
X76561Y-36306D03*
X63316Y-36614D03*
X62816Y-36614D03*
X62316Y-36614D03*
X61816Y-36614D03*
X61316Y-36614D03*
X60816Y-36614D03*
X60316Y-36614D03*
X59816Y-36614D03*
X59316Y-36614D03*
X67816Y-36614D03*
X67316Y-36614D03*
X66816Y-36614D03*
X66316Y-36614D03*
X65816Y-36614D03*
X65316Y-36614D03*
X64816Y-36614D03*
X64316Y-36614D03*
X63816Y-36614D03*
X63288Y-29253D03*
X62788Y-29253D03*
X62288Y-29253D03*
X61788Y-29253D03*
X61288Y-29253D03*
X60788Y-29253D03*
X60288Y-29253D03*
X59788Y-29253D03*
X59288Y-29253D03*
X67788Y-29253D03*
X67288Y-29253D03*
X66788Y-29253D03*
X66288Y-29253D03*
X65788Y-29253D03*
X65288Y-29253D03*
X64788Y-29253D03*
X64288Y-29253D03*
X63788Y-29253D03*
X69066Y-32534D03*
X69566Y-32534D03*
X70066Y-32534D03*
X70566Y-32534D03*
X71066Y-32534D03*
X71566Y-32534D03*
X69316Y-32034D03*
X69816Y-32034D03*
X70316Y-32034D03*
X70816Y-32034D03*
X71316Y-32034D03*
G54D21*
X63693Y-23046D03*
X63378Y-23046D03*
X63693Y-23426D03*
X63378Y-23426D03*
G54D22*
X61659Y-27182D03*
X58391Y-21827D03*
G54D23*
X59415Y-23245D03*
X59415Y-23678D03*
X59415Y-24111D03*
X59415Y-24544D03*
X59415Y-24977D03*
X59415Y-25410D03*
X59415Y-25843D03*
X59415Y-26276D03*
G54D24*
X77372Y-21979D03*
X77372Y-27979D03*
G54D25*
X78264Y-28192D03*
G54D26*
X78280Y-21786D03*
G54D27*
X68281Y-26451D03*
X68281Y-25701D03*
X68281Y-27201D03*
G54D21*
X77012Y-26056D03*
X76697Y-26056D03*
G54D11*
X75889Y-26617D03*
X75889Y-26932D03*
G54D21*
X76581Y-27700D03*
X76266Y-27700D03*
G54D11*
X75889Y-27611D03*
X75889Y-27296D03*
G54D21*
X75939Y-25738D03*
X76254Y-25738D03*
G54D11*
X77487Y-26059D03*
X77487Y-26374D03*
G54D28*
X76699Y-26803D03*
G54D29*
X77092Y-27177D03*
X76895Y-27177D03*
X76699Y-27177D03*
X76502Y-27177D03*
X76305Y-27177D03*
X76305Y-26428D03*
X76502Y-26428D03*
X76699Y-26428D03*
X76895Y-26428D03*
X77092Y-26428D03*
G54D15*
X79006Y-26576D03*
X79006Y-23386D03*
G54D30*
X78815Y-22616D03*
X78815Y-27341D03*
G54D17*
X78815Y-25884D03*
X78815Y-24073D03*
G54D18*
X77988Y-26356D03*
X77988Y-25372D03*
X77988Y-24585D03*
X77988Y-23601D03*
G54D20*
X72446Y-24576D03*
X76946Y-24576D03*
X76446Y-24576D03*
X75946Y-24576D03*
X75446Y-24576D03*
X74946Y-24576D03*
X74446Y-24576D03*
X73946Y-24576D03*
X73446Y-24576D03*
X72946Y-24576D03*
X76354Y-24076D03*
X75854Y-24076D03*
X75354Y-24076D03*
X74854Y-24076D03*
X74354Y-24076D03*
X73854Y-24076D03*
X73354Y-24076D03*
X72854Y-24076D03*
G54D19*
X73943Y-27284D03*
X73943Y-26784D03*
X73943Y-26284D03*
X73943Y-25784D03*
X73943Y-25284D03*
X74443Y-26284D03*
X74443Y-25784D03*
X74443Y-25284D03*
X74443Y-26784D03*
X74443Y-27284D03*
X73443Y-27284D03*
X73443Y-26784D03*
X73443Y-26284D03*
X73443Y-25784D03*
X73443Y-25284D03*
X72943Y-27284D03*
X72943Y-26784D03*
X72943Y-26284D03*
X72943Y-25784D03*
X72943Y-25284D03*
X74943Y-27284D03*
X75443Y-27284D03*
X75443Y-26784D03*
X74943Y-26784D03*
X74943Y-26284D03*
X75443Y-26284D03*
X74943Y-25784D03*
X75443Y-25784D03*
X74943Y-25284D03*
X75443Y-25284D03*
X72443Y-27284D03*
X72443Y-26784D03*
X72443Y-26284D03*
X72443Y-25784D03*
X71943Y-25784D03*
X71943Y-26284D03*
X71943Y-26784D03*
X71943Y-27284D03*
X71443Y-27284D03*
X71443Y-26784D03*
X71443Y-26284D03*
X71443Y-25784D03*
X70943Y-25784D03*
X70943Y-26284D03*
X70943Y-26784D03*
X70943Y-27284D03*
X70443Y-27284D03*
X70443Y-26784D03*
X70443Y-26284D03*
X70443Y-25784D03*
X69943Y-25784D03*
X69943Y-26284D03*
X69943Y-26784D03*
X69943Y-27284D03*
X69443Y-27284D03*
X69443Y-26784D03*
X69443Y-26284D03*
X68943Y-26284D03*
X68943Y-26784D03*
X68943Y-27284D03*
X68943Y-25784D03*
X69443Y-25784D03*
X76081Y-28348D03*
G54D20*
X76581Y-28348D03*
X63336Y-28656D03*
X62836Y-28656D03*
X62336Y-28656D03*
X61836Y-28656D03*
X61336Y-28656D03*
X60836Y-28656D03*
X60336Y-28656D03*
X59836Y-28656D03*
X59336Y-28656D03*
X67836Y-28656D03*
X67336Y-28656D03*
X66836Y-28656D03*
X66336Y-28656D03*
X65836Y-28656D03*
X65336Y-28656D03*
X64836Y-28656D03*
X64336Y-28656D03*
X63836Y-28656D03*
X63308Y-21295D03*
X62808Y-21295D03*
X62308Y-21295D03*
X61808Y-21295D03*
X61308Y-21295D03*
X60808Y-21295D03*
X60308Y-21295D03*
X59808Y-21295D03*
X59308Y-21295D03*
X67808Y-21295D03*
X67308Y-21295D03*
X66808Y-21295D03*
X66308Y-21295D03*
X65808Y-21295D03*
X65308Y-21295D03*
X64808Y-21295D03*
X64308Y-21295D03*
X63808Y-21295D03*
X69086Y-24576D03*
X69586Y-24576D03*
X70086Y-24576D03*
X70586Y-24576D03*
X71086Y-24576D03*
X71586Y-24576D03*
X69336Y-24076D03*
X69836Y-24076D03*
X70336Y-24076D03*
X70836Y-24076D03*
X71336Y-24076D03*
M02*
