M48
;DRILL file {Pcbnew (2013-mar-13)-testing} date Fri 20 Dec 2013 03:08:09 PM CET
;FORMAT={-:-/ absolute / inch / decimal}
FMAT,2
INCH,TZ
T1C0.016
T2C0.016
T3C0.024
T4C0.030
T5C0.039
T6C0.039
T7C0.047
T8C0.092
%
G90
G05
M72
T1
X5.9288Y-2.9253
X5.9308Y-2.1295
X5.9316Y-3.6614
X5.9336Y-2.8656
X5.9788Y-2.9253
X5.9808Y-2.1295
X5.9816Y-3.6614
X5.9836Y-2.8656
X6.0288Y-2.9253
X6.0308Y-2.1295
X6.0316Y-3.6614
X6.0336Y-2.8656
X6.0788Y-2.9253
X6.0808Y-2.1295
X6.0816Y-3.6614
X6.0836Y-2.8656
X6.1288Y-2.9253
X6.1308Y-2.1295
X6.1316Y-3.6614
X6.1336Y-2.8656
X6.1788Y-2.9253
X6.1801Y-5.2303
X6.1808Y-2.1295
X6.1816Y-3.6614
X6.1836Y-2.8656
X6.2288Y-2.9253
X6.2301Y-5.2303
X6.2308Y-2.1295
X6.2316Y-3.6614
X6.2336Y-2.8656
X6.2788Y-2.9253
X6.2808Y-2.1295
X6.2816Y-3.6614
X6.2836Y-2.8656
X6.3288Y-2.9253
X6.3308Y-2.1295
X6.3316Y-3.6614
X6.3336Y-2.8656
X6.3788Y-2.9253
X6.3808Y-2.1295
X6.3816Y-3.6614
X6.3836Y-2.8656
X6.4288Y-2.9253
X6.4308Y-2.1295
X6.4316Y-3.6614
X6.4336Y-2.8656
X6.4788Y-2.9253
X6.4808Y-2.1295
X6.4816Y-3.6614
X6.4836Y-2.8656
X6.5288Y-2.9253
X6.5308Y-2.1295
X6.5316Y-3.6614
X6.5336Y-2.8656
X6.5788Y-2.9253
X6.5808Y-2.1295
X6.5816Y-3.6614
X6.5836Y-2.8656
X6.6288Y-2.9253
X6.6308Y-2.1295
X6.6316Y-3.6614
X6.6336Y-2.8656
X6.6788Y-2.9253
X6.6808Y-2.1295
X6.6816Y-3.6614
X6.6836Y-2.8656
X6.7288Y-2.9253
X6.7308Y-2.1295
X6.7316Y-3.6614
X6.7336Y-2.8656
X6.7788Y-2.9253
X6.7808Y-2.1295
X6.7816Y-3.6614
X6.7836Y-2.8656
X6.8923Y-3.3742
X6.8923Y-3.4242
X6.8923Y-3.4742
X6.8923Y-3.5242
X6.8943Y-2.5784
X6.8943Y-2.6284
X6.8943Y-2.6784
X6.8943Y-2.7284
X6.9066Y-3.2534
X6.9086Y-2.4576
X6.9316Y-3.2034
X6.9336Y-2.4076
X6.9423Y-3.3742
X6.9423Y-3.4242
X6.9423Y-3.4742
X6.9423Y-3.5242
X6.9443Y-2.5784
X6.9443Y-2.6284
X6.9443Y-2.6784
X6.9443Y-2.7284
X6.9566Y-3.2534
X6.9586Y-2.4576
X6.9816Y-3.2034
X6.9836Y-2.4076
X6.9923Y-3.3742
X6.9923Y-3.4242
X6.9923Y-3.4742
X6.9923Y-3.5242
X6.9943Y-2.5784
X6.9943Y-2.6284
X6.9943Y-2.6784
X6.9943Y-2.7284
X7.0066Y-3.2534
X7.0086Y-2.4576
X7.0316Y-3.2034
X7.0336Y-2.4076
X7.0423Y-3.3742
X7.0423Y-3.4242
X7.0423Y-3.4742
X7.0423Y-3.5242
X7.0443Y-2.5784
X7.0443Y-2.6284
X7.0443Y-2.6784
X7.0443Y-2.7284
X7.0566Y-3.2534
X7.0586Y-2.4576
X7.0816Y-3.2034
X7.0836Y-2.4076
X7.0923Y-3.3742
X7.0923Y-3.4242
X7.0923Y-3.4742
X7.0923Y-3.5242
X7.0943Y-2.5784
X7.0943Y-2.6284
X7.0943Y-2.6784
X7.0943Y-2.7284
X7.1066Y-3.2534
X7.1086Y-2.4576
X7.1316Y-3.2034
X7.1336Y-2.4076
X7.1423Y-3.3742
X7.1423Y-3.4242
X7.1423Y-3.4742
X7.1423Y-3.5242
X7.1443Y-2.5784
X7.1443Y-2.6284
X7.1443Y-2.6784
X7.1443Y-2.7284
X7.1566Y-3.2534
X7.1586Y-2.4576
X7.1923Y-3.3742
X7.1923Y-3.4242
X7.1923Y-3.4742
X7.1923Y-3.5242
X7.1943Y-2.5784
X7.1943Y-2.6284
X7.1943Y-2.6784
X7.1943Y-2.7284
X7.2423Y-3.3742
X7.2423Y-3.4242
X7.2423Y-3.4742
X7.2423Y-3.5242
X7.2426Y-3.2534
X7.2443Y-2.5784
X7.2443Y-2.6284
X7.2443Y-2.6784
X7.2443Y-2.7284
X7.2446Y-2.4576
X7.2834Y-3.2034
X7.2854Y-2.4076
X7.2923Y-3.3242
X7.2923Y-3.3742
X7.2923Y-3.4242
X7.2923Y-3.4742
X7.2923Y-3.5242
X7.2926Y-3.2534
X7.2943Y-2.5284
X7.2943Y-2.5784
X7.2943Y-2.6284
X7.2943Y-2.6784
X7.2943Y-2.7284
X7.2946Y-2.4576
X7.3334Y-3.2034
X7.3354Y-2.4076
X7.3423Y-3.3242
X7.3423Y-3.3742
X7.3423Y-3.4242
X7.3423Y-3.4742
X7.3423Y-3.5242
X7.3426Y-3.2534
X7.3443Y-2.5284
X7.3443Y-2.5784
X7.3443Y-2.6284
X7.3443Y-2.6784
X7.3443Y-2.7284
X7.3446Y-2.4576
X7.3834Y-3.2034
X7.3854Y-2.4076
X7.3923Y-3.3242
X7.3923Y-3.3742
X7.3923Y-3.4242
X7.3923Y-3.4742
X7.3923Y-3.5242
X7.3926Y-3.2534
X7.3943Y-2.5284
X7.3943Y-2.5784
X7.3943Y-2.6284
X7.3943Y-2.6784
X7.3943Y-2.7284
X7.3946Y-2.4576
X7.4334Y-3.2034
X7.4354Y-2.4076
X7.4423Y-3.3242
X7.4423Y-3.3742
X7.4423Y-3.4242
X7.4423Y-3.4742
X7.4423Y-3.5242
X7.4426Y-3.2534
X7.4443Y-2.5284
X7.4443Y-2.5784
X7.4443Y-2.6284
X7.4443Y-2.6784
X7.4443Y-2.7284
X7.4446Y-2.4576
X7.4834Y-3.2034
X7.4854Y-2.4076
X7.4923Y-3.3242
X7.4923Y-3.3742
X7.4923Y-3.4242
X7.4923Y-3.4742
X7.4923Y-3.5242
X7.4926Y-3.2534
X7.4943Y-2.5284
X7.4943Y-2.5784
X7.4943Y-2.6284
X7.4943Y-2.6784
X7.4943Y-2.7284
X7.4946Y-2.4576
X7.5334Y-3.2034
X7.5354Y-2.4076
X7.5423Y-3.3242
X7.5423Y-3.3742
X7.5423Y-3.4242
X7.5423Y-3.4742
X7.5423Y-3.5242
X7.5426Y-3.2534
X7.5443Y-2.5284
X7.5443Y-2.5784
X7.5443Y-2.6284
X7.5443Y-2.6784
X7.5443Y-2.7284
X7.5446Y-2.4576
X7.5834Y-3.2034
X7.5854Y-2.4076
X7.5926Y-3.2534
X7.5946Y-2.4576
X7.6061Y-3.6306
X7.6081Y-2.8348
X7.6334Y-3.2034
X7.6354Y-2.4076
X7.6426Y-3.2534
X7.6446Y-2.4576
X7.6561Y-3.6306
X7.6581Y-2.8348
X7.6926Y-3.2534
X7.6946Y-2.4576
X7.8739Y-5.2258
X7.9239Y-5.2258
T2
X5.2283Y-5.0939
X5.2333Y-4.5734
X5.2359Y-5.2148
X5.2405Y-4.9206
X5.2436Y-4.7575
X5.2481Y-4.6259
X5.2548Y-4.6901
X5.2605Y-5.1711
X5.2676Y-4.5714
X5.2776Y-4.8181
X5.301Y-4.7672
X5.3183Y-5.1707
X5.3208Y-4.6405
X5.3388Y-4.8122
X5.3441Y-4.5452
X5.3771Y-4.7477
X5.3937Y-4.34
X5.3977Y-4.227
X5.4057Y-5.3149
X5.4083Y-4.799
X5.4102Y-5.1682
X5.4122Y-4.6883
X5.4137Y-5.082
X5.4469Y-4.8435
X5.4537Y-4.2769
X5.4722Y-4.8908
X5.4727Y-5.3232
X5.476Y-4.2276
X5.4786Y-4.8271
X5.4798Y-4.429
X5.4901Y-4.7558
X5.4936Y-5.1682
X5.5062Y-4.1454
X5.5137Y-5.082
X5.52Y-4.9538
X5.5221Y-5.3146
X5.5278Y-4.6929
X5.5349Y-4.5654
X5.5405Y-4.7768
X5.5451Y-4.8525
X5.5452Y-4.6229
X5.5496Y-4.8889
X5.5536Y-4.4761
X5.5551Y-4.7307
X5.5587Y-4.307
X5.5675Y-4.8161
X5.5773Y-5.1682
X5.5797Y-4.501
X5.5821Y-4.9959
X5.5937Y-5.082
X5.5987Y-4.641
X5.603Y-4.7273
X5.6103Y-4.776
X5.6105Y-4.4077
X5.6119Y-4.1482
X5.6475Y-4.8514
X5.6501Y-4.361
X5.67Y-4.5532
X5.6713Y-4.8904
X5.6714Y-4.6445
X5.6737Y-5.342
X5.7341Y-4.5069
X5.7499Y-3.5174
X5.7519Y-2.7216
X5.7568Y-3.1702
X5.757Y-2.9546
X5.7587Y-4.347
X5.7588Y-2.3744
X5.759Y-2.1588
X5.7637Y-4.632
X5.7637Y-4.732
X5.7637Y-4.822
X5.7645Y-4.9201
X5.7687Y-4.132
X5.7687Y-4.192
X5.7687Y-4.267
X5.7721Y-3.5706
X5.7741Y-2.7748
X5.783Y-3.5306
X5.785Y-2.7348
X5.8048Y-3.3457
X5.805Y-3.165
X5.8068Y-2.5499
X5.807Y-2.3692
X5.8266Y-4.9188
X5.8279Y-3.4789
X5.8296Y-3.5879
X5.8297Y-3.6228
X5.8299Y-2.6831
X5.8305Y-5.0134
X5.8316Y-2.7921
X5.8317Y-2.827
X5.8537Y-4.632
X5.8537Y-4.822
X5.8576Y-4.7297
X5.8636Y-3.1084
X5.8636Y-4.9814
X5.8656Y-2.3126
X5.8712Y-3.6398
X5.8732Y-2.844
X5.8755Y-5.0782
X5.8784Y-5.0305
X5.8816Y-3.0634
X5.8818Y-3.4723
X5.8835Y-4.4607
X5.8836Y-2.2676
X5.8838Y-2.6765
X5.8841Y-3.5334
X5.8861Y-2.7376
X5.8887Y-4.197
X5.8937Y-4.367
X5.8939Y-4.4948
X5.9036Y-3.0184
X5.9056Y-2.2226
X5.9068Y-4.945
X5.9087Y-4.124
X5.9277Y-4.3285
X5.9292Y-4.4964
X5.9391Y-3.4889
X5.94Y-3.6052
X5.9411Y-2.6931
X5.942Y-2.8094
X5.9463Y-5.0965
X5.9499Y-5.0008
X5.9537Y-4.632
X5.9537Y-4.732
X5.9537Y-4.822
X5.958Y-3.4596
X5.9598Y-4.3417
X5.96Y-2.6638
X5.9717Y-5.179
X5.9727Y-4.183
X5.9746Y-3.6066
X5.9766Y-2.8108
X5.979Y-4.4919
X5.9798Y-4.9675
X5.9904Y-3.2131
X5.9924Y-2.4173
X5.9956Y-3.1696
X5.9976Y-2.3738
X5.9987Y-5.342
X6.004Y-5.0994
X6.0159Y-4.5393
X6.0172Y-4.5741
X6.0177Y-4.126
X6.0196Y-3.0633
X6.0216Y-2.2675
X6.059Y-4.6345
X6.0711Y-3.4471
X6.0731Y-2.6513
X6.0735Y-4.7598
X6.0736Y-3.5444
X6.0756Y-2.7486
X6.0761Y-4.4903
X6.0761Y-5.1656
X6.0858Y-4.1587
X6.0866Y-3.0944
X6.0886Y-2.2986
X6.0975Y-4.6804
X6.0975Y-4.8811
X6.1016Y-3.4979
X6.1031Y-3.4599
X6.1036Y-2.7021
X6.1037Y-4.312
X6.1051Y-2.6641
X6.1133Y-4.1089
X6.1229Y-3.027
X6.123Y-3.0611
X6.1249Y-2.2312
X6.125Y-2.2653
X6.127Y-4.7669
X6.138Y-3.2546
X6.139Y-3.2107
X6.14Y-2.4588
X6.141Y-2.4149
X6.1441Y-5.0435
X6.1458Y-4.8051
X6.1477Y-3.4305
X6.1483Y-4.4239
X6.1487Y-4.977
X6.1497Y-2.6347
X6.1574Y-4.5161
X6.1617Y-5.144
X6.1683Y-4.7346
X6.1892Y-4.7805
X6.1935Y-3.0371
X6.1955Y-2.2413
X6.1974Y-4.9059
X6.1986Y-4.8402
X6.1993Y-3.1764
X6.2007Y-5.058
X6.2013Y-2.3806
X6.2087Y-5.291
X6.2087Y-5.373
X6.2089Y-3.4065
X6.2097Y-5.336
X6.2109Y-2.6107
X6.2244Y-4.7445
X6.2258Y-4.1071
X6.2305Y-4.5287
X6.2347Y-4.624
X6.2349Y-3.1833
X6.2356Y-3.1431
X6.237Y-2.3874
X6.2376Y-2.3473
X6.2388Y-3.533
X6.2397Y-3.2428
X6.2408Y-2.7372
X6.2417Y-2.447
X6.2417Y-4.685
X6.2509Y-3.4473
X6.2526Y-3.2756
X6.2529Y-2.6515
X6.2546Y-2.4798
X6.2617Y-5.337
X6.2628Y-3.1182
X6.2648Y-2.3224
X6.2717Y-4.573
X6.2797Y-4.758
X6.2821Y-3.0477
X6.2841Y-2.2519
X6.2877Y-4.3711
X6.2887Y-5.002
X6.2887Y-5.102
X6.2887Y-5.202
X6.2894Y-3.0955
X6.2914Y-2.2997
X6.3018Y-4.9054
X6.3076Y-3.513
X6.3096Y-2.7172
X6.3107Y-4.675
X6.3307Y-4.759
X6.3468Y-3.2088
X6.3468Y-3.2984
X6.347Y-3.3886
X6.3488Y-2.413
X6.3488Y-2.5026
X6.349Y-2.5928
X6.3549Y-3.0363
X6.3569Y-2.2405
X6.3591Y-4.2361
X6.3597Y-4.2802
X6.3607Y-4.638
X6.3619Y-4.5984
X6.3787Y-5.259
X6.3867Y-4.758
X6.392Y-3.5482
X6.3936Y-3.2084
X6.3936Y-3.2984
X6.3936Y-3.3884
X6.394Y-2.7524
X6.3956Y-2.4126
X6.3956Y-2.5026
X6.3956Y-2.5926
X6.4089Y-4.863
X6.4096Y-3.4899
X6.4116Y-2.6941
X6.4117Y-4.258
X6.4126Y-3.1081
X6.4127Y-3.0613
X6.4137Y-4.927
X6.4137Y-5.002
X6.4137Y-5.102
X6.4137Y-5.202
X6.4146Y-2.3123
X6.4147Y-2.2655
X6.418Y-4.4122
X6.4251Y-4.5427
X6.4264Y-3.5412
X6.4266Y-4.6315
X6.4284Y-2.7454
X6.4387Y-5.327
X6.4436Y-3.2084
X6.4436Y-3.3884
X6.4456Y-2.4126
X6.4456Y-2.5926
X6.4457Y-3.2994
X6.4477Y-2.5036
X6.4591Y-3.4854
X6.4611Y-2.6896
X6.4653Y-4.2346
X6.4655Y-4.279
X6.4936Y-3.2084
X6.4936Y-3.2984
X6.4936Y-3.3884
X6.4956Y-2.4126
X6.4956Y-2.5026
X6.4956Y-2.5926
X6.5086Y-4.928
X6.5137Y-5.327
X6.5257Y-3.5487
X6.5277Y-2.7529
X6.5344Y-3.0383
X6.5364Y-2.2425
X6.5436Y-3.2084
X6.5436Y-3.2994
X6.5436Y-3.3884
X6.5456Y-2.4126
X6.5456Y-2.5036
X6.5456Y-2.5926
X6.5614Y-3.5481
X6.5634Y-2.7523
X6.5637Y-5.002
X6.5637Y-5.102
X6.5637Y-5.202
X6.5737Y-3.1
X6.5757Y-2.3042
X6.5758Y-4.1307
X6.5833Y-3.4885
X6.5853Y-2.6927
X6.5912Y-4.3379
X6.5926Y-4.4527
X6.5949Y-3.453
X6.5967Y-4.677
X6.5969Y-2.6572
X6.6001Y-3.5486
X6.6021Y-2.7528
X6.6035Y-4.928
X6.6059Y-4.8076
X6.6341Y-3.3663
X6.6361Y-2.5705
X6.6366Y-3.4024
X6.6386Y-2.6066
X6.6408Y-3.4372
X6.6424Y-3.255
X6.6428Y-2.6414
X6.6444Y-2.4592
X6.6601Y-2.9989
X6.6611Y-3.0459
X6.6611Y-3.1244
X6.6611Y-3.1644
X6.6611Y-3.2029
X6.6621Y-2.2031
X6.6631Y-2.2501
X6.6631Y-2.3286
X6.6631Y-2.3686
X6.6631Y-2.4071
X6.67Y-3.3642
X6.672Y-2.5684
X6.7241Y-3.2905
X6.7261Y-2.4947
X6.771Y-2.9737
X6.773Y-2.1779
X6.7753Y-3.4413
X6.7771Y-3.5232
X6.7773Y-2.6455
X6.7791Y-2.7274
X6.8261Y-3.4034
X6.8261Y-3.4784
X6.8281Y-2.6076
X6.8281Y-2.6826
X6.9221Y-5.0894
X6.9271Y-4.5689
X6.9297Y-5.2103
X6.9343Y-4.9161
X6.9374Y-4.753
X6.9419Y-4.6214
X6.9486Y-4.6856
X6.9543Y-5.1666
X6.9614Y-4.5669
X6.9714Y-4.8136
X6.9948Y-4.7627
X7.0121Y-5.1662
X7.0146Y-4.636
X7.0326Y-4.8077
X7.0379Y-4.5407
X7.0709Y-4.7432
X7.0875Y-4.3355
X7.0915Y-4.2225
X7.0995Y-5.3104
X7.1021Y-4.7945
X7.104Y-5.1637
X7.106Y-4.6838
X7.1075Y-5.0775
X7.1407Y-4.839
X7.1475Y-4.2724
X7.1534Y-3.1272
X7.1554Y-2.3314
X7.166Y-4.8863
X7.1665Y-5.3187
X7.1698Y-4.2231
X7.1724Y-4.8226
X7.1736Y-4.4245
X7.1839Y-4.7513
X7.1874Y-5.1637
X7.2Y-4.1409
X7.2075Y-5.0775
X7.2138Y-4.9493
X7.2159Y-5.3101
X7.2216Y-4.6884
X7.2287Y-4.5609
X7.2343Y-4.7723
X7.2348Y-3.3343
X7.2368Y-2.5385
X7.2389Y-4.848
X7.239Y-4.6184
X7.2434Y-4.8844
X7.2474Y-4.4716
X7.2489Y-4.7262
X7.2525Y-4.3025
X7.2587Y-3.3016
X7.2607Y-2.5058
X7.2613Y-4.8116
X7.2711Y-5.1637
X7.2735Y-4.4965
X7.2759Y-4.9914
X7.2875Y-5.0775
X7.2925Y-4.6365
X7.2968Y-4.7228
X7.3041Y-4.7715
X7.3043Y-4.4032
X7.3057Y-4.1437
X7.3413Y-4.8469
X7.3439Y-4.3565
X7.3638Y-4.5487
X7.3651Y-4.8859
X7.3652Y-4.64
X7.3675Y-5.3375
X7.4279Y-4.5024
X7.4525Y-4.3425
X7.4575Y-4.6275
X7.4575Y-4.7275
X7.4575Y-4.8175
X7.4583Y-4.9156
X7.4625Y-4.1275
X7.4625Y-4.1875
X7.4625Y-4.2625
X7.5204Y-4.9143
X7.5243Y-5.0089
X7.5475Y-4.6275
X7.5475Y-4.8175
X7.5514Y-4.7252
X7.5574Y-4.9769
X7.5693Y-5.0737
X7.5722Y-5.026
X7.5773Y-4.4562
X7.5825Y-4.1925
X7.5875Y-4.3625
X7.5877Y-4.4903
X7.5909Y-3.4179
X7.5929Y-2.6221
X7.6006Y-4.9405
X7.6025Y-4.1195
X7.6176Y-3.2867
X7.6196Y-2.4909
X7.6215Y-4.324
X7.623Y-4.4919
X7.6401Y-5.092
X7.6437Y-4.9963
X7.6475Y-4.6275
X7.6475Y-4.7275
X7.6475Y-4.8175
X7.6536Y-4.3372
X7.6655Y-5.1745
X7.6665Y-4.1785
X7.6676Y-3.2869
X7.6696Y-2.4911
X7.6728Y-4.4874
X7.6736Y-4.963
X7.6925Y-5.3375
X7.6978Y-5.0949
X7.7097Y-4.5348
X7.711Y-4.5696
X7.7115Y-4.1215
X7.7248Y-3.3718
X7.725Y-3.2934
X7.7268Y-2.576
X7.727Y-2.4976
X7.7528Y-4.63
X7.7673Y-4.7553
X7.7699Y-4.4858
X7.7699Y-5.1611
X7.7796Y-4.1542
X7.7858Y-3.547
X7.7878Y-2.7512
X7.7913Y-4.6759
X7.7913Y-4.8766
X7.7975Y-4.3075
X7.8071Y-4.1044
X7.8208Y-4.7624
X7.8379Y-5.039
X7.8396Y-4.8006
X7.8421Y-4.4194
X7.8425Y-4.9725
X7.8506Y-3.4794
X7.8512Y-4.5116
X7.8526Y-2.6836
X7.8555Y-5.1395
X7.8621Y-4.7301
X7.883Y-4.776
X7.8912Y-4.9014
X7.8924Y-4.8357
X7.8945Y-5.0535
X7.9025Y-5.2865
X7.9025Y-5.3685
X7.9035Y-5.3315
X7.9182Y-4.74
X7.9196Y-4.1026
X7.9243Y-4.5242
X7.9285Y-4.6195
X7.9355Y-4.6805
X7.9555Y-5.3325
X7.9655Y-4.5685
X7.9735Y-4.7535
X7.9815Y-4.3666
X7.9825Y-4.9975
X7.9825Y-5.0975
X7.9825Y-5.1975
X7.9956Y-4.9009
X8.0045Y-4.6705
X8.0245Y-4.7545
X8.0529Y-4.2316
X8.0535Y-4.2757
X8.0545Y-4.6335
X8.0557Y-4.5939
X8.0725Y-5.2545
X8.0805Y-4.7535
X8.1027Y-4.8585
X8.1055Y-4.2535
X8.1075Y-4.9225
X8.1075Y-4.9975
X8.1075Y-5.0975
X8.1075Y-5.1975
X8.1118Y-4.4077
X8.1189Y-4.5382
X8.1204Y-4.627
X8.1325Y-5.3225
X8.1591Y-4.2301
X8.1593Y-4.2745
X8.2024Y-4.9235
X8.2075Y-5.3225
X8.2575Y-4.9975
X8.2575Y-5.0975
X8.2575Y-5.1975
X8.2696Y-4.1262
X8.285Y-4.3334
X8.2864Y-4.4482
X8.2905Y-4.6725
X8.2973Y-4.9235
X8.2997Y-4.8031
T3
X5.7009Y-5.2551
X5.7993Y-5.2551
X5.8781Y-5.2551
X5.9765Y-5.2551
X7.3947Y-5.2506
X7.4931Y-5.2506
X7.5719Y-5.2506
X7.6703Y-5.2506
X7.7969Y-3.1559
X7.7969Y-3.2543
X7.7969Y-3.3331
X7.7969Y-3.4315
X7.7989Y-2.3601
X7.7989Y-2.4585
X7.7989Y-2.5373
X7.7989Y-2.6357
T4
X6.8261Y-3.3659
X6.8261Y-3.4409
X6.8261Y-3.5159
X6.8281Y-2.5701
X6.8281Y-2.6451
X6.8281Y-2.7201
T6
X7.8244Y-3.615
X7.826Y-2.9744
X7.8264Y-2.8192
X7.828Y-2.1786
T7
X5.7481Y-5.3378
X5.9293Y-5.3378
X7.4419Y-5.3333
X7.6231Y-5.3333
X7.8796Y-3.2031
X7.8796Y-3.3843
X7.8816Y-2.4073
X7.8816Y-2.5885
T8
X7.7352Y-2.9937
X7.7352Y-3.5937
X7.7372Y-2.1979
X7.7372Y-2.7979
T5
X5.6025Y-5.3673G85X5.6025Y-5.3082
G05
X6.0749Y-5.3673G85X6.0749Y-5.3082
G05
X7.2963Y-5.3628G85X7.2963Y-5.3037
G05
X7.7687Y-5.3628G85X7.7687Y-5.3037
G05
X7.85Y-3.0575G85X7.9091Y-3.0575
G05
X7.85Y-3.5299G85X7.9091Y-3.5299
G05
X7.852Y-2.2617G85X7.9111Y-2.2617
G05
X7.852Y-2.7341G85X7.9111Y-2.7341
G05
T0
M30
