G04 (created by PCBNEW (2013-mar-13)-testing) date Fri 20 Dec 2013 03:08:06 PM CET*
%MOIN*%
G04 Gerber Fmt 3.4, Leading zero omitted, Abs format*
%FSLAX34Y34*%
G01*
G70*
G90*
G04 APERTURE LIST*
%ADD10C,0.005906*%
%ADD11R,0.021300X0.021700*%
%ADD12R,0.021700X0.021300*%
%ADD13R,0.039370X0.021654*%
%ADD14R,0.031500X0.019700*%
%ADD15R,0.037402X0.033465*%
%ADD16R,0.165354X0.027559*%
%ADD17O,0.017717X0.043307*%
%ADD18R,0.161417X0.094488*%
%ADD19R,0.259843X0.259843*%
%ADD20O,0.009449X0.023622*%
%ADD21O,0.023622X0.009449*%
%ADD22R,0.045000X0.025000*%
%ADD23R,0.025000X0.045000*%
%ADD24R,0.059055X0.059055*%
%ADD25R,0.009449X0.035433*%
%ADD26R,0.035433X0.009449*%
%ADD27R,0.011800X0.019700*%
%ADD28R,0.055118X0.027559*%
%ADD29R,0.023600X0.019700*%
%ADD30R,0.019700X0.023600*%
%ADD31R,0.019700X0.031500*%
%ADD32R,0.019700X0.011800*%
%ADD33R,0.033465X0.037402*%
%ADD34R,0.021654X0.039370*%
%ADD35R,0.027559X0.165354*%
%ADD36O,0.043307X0.017717*%
%ADD37R,0.094488X0.161417*%
G04 APERTURE END LIST*
G54D10*
G54D11*
X58367Y-45150D03*
X58367Y-44835D03*
X58384Y-43950D03*
X58384Y-43635D03*
G54D12*
X58194Y-42607D03*
X58509Y-42607D03*
X58194Y-41603D03*
X58509Y-41603D03*
G54D11*
X57997Y-43950D03*
X57997Y-43635D03*
G54D12*
X58017Y-44280D03*
X57702Y-44280D03*
X58367Y-44280D03*
X58682Y-44280D03*
G54D11*
X58194Y-43269D03*
X58194Y-42954D03*
X58194Y-41946D03*
X58194Y-42261D03*
X58017Y-45150D03*
X58017Y-44835D03*
X59009Y-51790D03*
X59009Y-52105D03*
X58142Y-51791D03*
X58142Y-52106D03*
X59112Y-42953D03*
X59112Y-42638D03*
G54D12*
X59915Y-43467D03*
X60230Y-43467D03*
G54D11*
X59067Y-49772D03*
X59067Y-50087D03*
X59634Y-44608D03*
X59634Y-44293D03*
X59147Y-44608D03*
X59147Y-44293D03*
X57341Y-44756D03*
X57341Y-44441D03*
X56987Y-44756D03*
X56987Y-44441D03*
X58667Y-52105D03*
X58667Y-51790D03*
X57752Y-52106D03*
X57752Y-51791D03*
X63716Y-53603D03*
X63716Y-53288D03*
G54D12*
X65241Y-48407D03*
X65556Y-48407D03*
X65242Y-48034D03*
X65557Y-48034D03*
X65242Y-47667D03*
X65557Y-47667D03*
G54D13*
X61537Y-52986D03*
X61537Y-53735D03*
X62600Y-52986D03*
X61537Y-53360D03*
X62600Y-53735D03*
G54D14*
X62451Y-41782D03*
X62451Y-42274D03*
X62451Y-43258D03*
X62451Y-42766D03*
X61663Y-42766D03*
X61663Y-43258D03*
X61663Y-42274D03*
X61663Y-41782D03*
G54D15*
X59626Y-42981D03*
X60197Y-42981D03*
X60197Y-42528D03*
X59626Y-42528D03*
G54D12*
X64825Y-48407D03*
X64510Y-48407D03*
X64825Y-48037D03*
X64510Y-48037D03*
X64825Y-47667D03*
X64510Y-47667D03*
G54D16*
X51253Y-53089D03*
X51253Y-52695D03*
X51253Y-52302D03*
X51253Y-51908D03*
X51253Y-51514D03*
X51253Y-51120D03*
X51253Y-50727D03*
X51253Y-45569D03*
X51253Y-45963D03*
X51253Y-46357D03*
X51253Y-46750D03*
X51253Y-47144D03*
X51253Y-47538D03*
X51253Y-47931D03*
X51253Y-48325D03*
X51253Y-48719D03*
X51253Y-49113D03*
X51253Y-49506D03*
X51253Y-49506D03*
X51253Y-49113D03*
X51253Y-48719D03*
X51253Y-48325D03*
X51253Y-47931D03*
X51253Y-47538D03*
X51253Y-47144D03*
X51253Y-46750D03*
X51253Y-46357D03*
X51253Y-45963D03*
X51253Y-45569D03*
X51253Y-50727D03*
X51253Y-51120D03*
X51253Y-51514D03*
X51253Y-51908D03*
X51253Y-52302D03*
X51253Y-52695D03*
X51253Y-53089D03*
G54D17*
X63367Y-41477D03*
X63867Y-41477D03*
X64367Y-41477D03*
X64867Y-41477D03*
G54D18*
X64117Y-42580D03*
G54D17*
X64867Y-43682D03*
X64367Y-43682D03*
X63867Y-43682D03*
X63367Y-43682D03*
G54D19*
X58576Y-47297D03*
G54D20*
X58477Y-48832D03*
X58280Y-48832D03*
X58083Y-48832D03*
X57887Y-48832D03*
X57690Y-48832D03*
X57493Y-48832D03*
X57296Y-48832D03*
X58674Y-48832D03*
X58871Y-48832D03*
X59068Y-48832D03*
X59264Y-48832D03*
X59461Y-48832D03*
X59658Y-48832D03*
X59855Y-48832D03*
X59855Y-45761D03*
X59658Y-45761D03*
X59461Y-45761D03*
X59264Y-45761D03*
X59068Y-45761D03*
X58871Y-45761D03*
X58674Y-45761D03*
X58477Y-45761D03*
X58280Y-45761D03*
X58083Y-45761D03*
X57887Y-45761D03*
X57690Y-45761D03*
X57493Y-45761D03*
X57296Y-45761D03*
G54D21*
X60111Y-48576D03*
X60111Y-48379D03*
X60111Y-48182D03*
X60111Y-47985D03*
X60111Y-47789D03*
X60111Y-47592D03*
X60111Y-47395D03*
X60111Y-47198D03*
X60111Y-47001D03*
X60111Y-46804D03*
X60111Y-46608D03*
X60111Y-46411D03*
X60111Y-46214D03*
X60111Y-46017D03*
X57040Y-46017D03*
X57040Y-46214D03*
X57040Y-46411D03*
X57040Y-46608D03*
X57040Y-46804D03*
X57040Y-47001D03*
X57040Y-47198D03*
X57040Y-47395D03*
X57040Y-47592D03*
X57040Y-47789D03*
X57040Y-47985D03*
X57040Y-48182D03*
X57040Y-48379D03*
X57040Y-48576D03*
G54D12*
X56941Y-43477D03*
X57256Y-43477D03*
X57277Y-41397D03*
X56962Y-41397D03*
X57262Y-42927D03*
X56947Y-42927D03*
G54D22*
X63212Y-52989D03*
X63212Y-53589D03*
G54D11*
X61019Y-42272D03*
X61019Y-42587D03*
X54614Y-46100D03*
X54614Y-45785D03*
G54D12*
X61288Y-48810D03*
X61603Y-48810D03*
X61288Y-46802D03*
X61603Y-46802D03*
X61410Y-45840D03*
X61095Y-45840D03*
G54D11*
X60057Y-44606D03*
X60057Y-44291D03*
X56377Y-45507D03*
X56377Y-45192D03*
G54D12*
X56143Y-48514D03*
X55828Y-48514D03*
X56140Y-48904D03*
X55825Y-48904D03*
G54D23*
X54304Y-53675D03*
X53704Y-53675D03*
G54D12*
X63449Y-45160D03*
X63764Y-45160D03*
X63459Y-45620D03*
X63774Y-45620D03*
X55762Y-44404D03*
X56077Y-44404D03*
G54D11*
X55002Y-46100D03*
X55002Y-45785D03*
G54D12*
X61094Y-45495D03*
X61409Y-45495D03*
G54D11*
X56619Y-44756D03*
X56619Y-44441D03*
G54D24*
X55587Y-43070D03*
G54D25*
X55882Y-42459D03*
X55685Y-42459D03*
X55488Y-42459D03*
X55291Y-42459D03*
X55291Y-43680D03*
X55488Y-43680D03*
X55685Y-43680D03*
X55882Y-43680D03*
G54D26*
X54976Y-42774D03*
X54976Y-42971D03*
X54976Y-43168D03*
X54976Y-43365D03*
X56197Y-43365D03*
X56197Y-43168D03*
X56197Y-42971D03*
X56197Y-42774D03*
G54D27*
X54599Y-46507D03*
X54993Y-46507D03*
X54993Y-47137D03*
X54796Y-47137D03*
X54599Y-47137D03*
G54D28*
X57127Y-41873D03*
X57127Y-42464D03*
G54D23*
X54727Y-53675D03*
X55327Y-53675D03*
G54D20*
X58083Y-45761D03*
X58280Y-45761D03*
G54D11*
X75305Y-45105D03*
X75305Y-44790D03*
X75322Y-43905D03*
X75322Y-43590D03*
G54D12*
X75132Y-42562D03*
X75447Y-42562D03*
X75132Y-41558D03*
X75447Y-41558D03*
G54D11*
X74935Y-43905D03*
X74935Y-43590D03*
G54D12*
X74955Y-44235D03*
X74640Y-44235D03*
X75305Y-44235D03*
X75620Y-44235D03*
G54D11*
X75132Y-43224D03*
X75132Y-42909D03*
X75132Y-41901D03*
X75132Y-42216D03*
X74955Y-45105D03*
X74955Y-44790D03*
X75947Y-51745D03*
X75947Y-52060D03*
X75080Y-51746D03*
X75080Y-52061D03*
X76050Y-42908D03*
X76050Y-42593D03*
G54D12*
X76853Y-43422D03*
X77168Y-43422D03*
G54D11*
X76005Y-49727D03*
X76005Y-50042D03*
X76572Y-44563D03*
X76572Y-44248D03*
X76085Y-44563D03*
X76085Y-44248D03*
X74279Y-44711D03*
X74279Y-44396D03*
X73925Y-44711D03*
X73925Y-44396D03*
X75605Y-52060D03*
X75605Y-51745D03*
X74690Y-52061D03*
X74690Y-51746D03*
X80654Y-53558D03*
X80654Y-53243D03*
G54D12*
X82179Y-48362D03*
X82494Y-48362D03*
X82180Y-47989D03*
X82495Y-47989D03*
X82180Y-47622D03*
X82495Y-47622D03*
G54D13*
X78475Y-52941D03*
X78475Y-53690D03*
X79538Y-52941D03*
X78475Y-53315D03*
X79538Y-53690D03*
G54D14*
X79389Y-41737D03*
X79389Y-42229D03*
X79389Y-43213D03*
X79389Y-42721D03*
X78601Y-42721D03*
X78601Y-43213D03*
X78601Y-42229D03*
X78601Y-41737D03*
G54D15*
X76564Y-42936D03*
X77135Y-42936D03*
X77135Y-42483D03*
X76564Y-42483D03*
G54D12*
X81763Y-48362D03*
X81448Y-48362D03*
X81763Y-47992D03*
X81448Y-47992D03*
X81763Y-47622D03*
X81448Y-47622D03*
G54D16*
X68191Y-53044D03*
X68191Y-52650D03*
X68191Y-52257D03*
X68191Y-51863D03*
X68191Y-51469D03*
X68191Y-51075D03*
X68191Y-50682D03*
X68191Y-45524D03*
X68191Y-45918D03*
X68191Y-46312D03*
X68191Y-46705D03*
X68191Y-47099D03*
X68191Y-47493D03*
X68191Y-47886D03*
X68191Y-48280D03*
X68191Y-48674D03*
X68191Y-49068D03*
X68191Y-49461D03*
X68191Y-49461D03*
X68191Y-49068D03*
X68191Y-48674D03*
X68191Y-48280D03*
X68191Y-47886D03*
X68191Y-47493D03*
X68191Y-47099D03*
X68191Y-46705D03*
X68191Y-46312D03*
X68191Y-45918D03*
X68191Y-45524D03*
X68191Y-50682D03*
X68191Y-51075D03*
X68191Y-51469D03*
X68191Y-51863D03*
X68191Y-52257D03*
X68191Y-52650D03*
X68191Y-53044D03*
G54D17*
X80305Y-41432D03*
X80805Y-41432D03*
X81305Y-41432D03*
X81805Y-41432D03*
G54D18*
X81055Y-42535D03*
G54D17*
X81805Y-43637D03*
X81305Y-43637D03*
X80805Y-43637D03*
X80305Y-43637D03*
G54D19*
X75514Y-47252D03*
G54D20*
X75415Y-48787D03*
X75218Y-48787D03*
X75021Y-48787D03*
X74825Y-48787D03*
X74628Y-48787D03*
X74431Y-48787D03*
X74234Y-48787D03*
X75612Y-48787D03*
X75809Y-48787D03*
X76006Y-48787D03*
X76202Y-48787D03*
X76399Y-48787D03*
X76596Y-48787D03*
X76793Y-48787D03*
X76793Y-45716D03*
X76596Y-45716D03*
X76399Y-45716D03*
X76202Y-45716D03*
X76006Y-45716D03*
X75809Y-45716D03*
X75612Y-45716D03*
X75415Y-45716D03*
X75218Y-45716D03*
X75021Y-45716D03*
X74825Y-45716D03*
X74628Y-45716D03*
X74431Y-45716D03*
X74234Y-45716D03*
G54D21*
X77049Y-48531D03*
X77049Y-48334D03*
X77049Y-48137D03*
X77049Y-47940D03*
X77049Y-47744D03*
X77049Y-47547D03*
X77049Y-47350D03*
X77049Y-47153D03*
X77049Y-46956D03*
X77049Y-46759D03*
X77049Y-46563D03*
X77049Y-46366D03*
X77049Y-46169D03*
X77049Y-45972D03*
X73978Y-45972D03*
X73978Y-46169D03*
X73978Y-46366D03*
X73978Y-46563D03*
X73978Y-46759D03*
X73978Y-46956D03*
X73978Y-47153D03*
X73978Y-47350D03*
X73978Y-47547D03*
X73978Y-47744D03*
X73978Y-47940D03*
X73978Y-48137D03*
X73978Y-48334D03*
X73978Y-48531D03*
G54D12*
X73879Y-43432D03*
X74194Y-43432D03*
X74215Y-41352D03*
X73900Y-41352D03*
X74200Y-42882D03*
X73885Y-42882D03*
G54D22*
X80150Y-52944D03*
X80150Y-53544D03*
G54D11*
X77957Y-42227D03*
X77957Y-42542D03*
X71552Y-46055D03*
X71552Y-45740D03*
G54D12*
X78226Y-48765D03*
X78541Y-48765D03*
X78226Y-46757D03*
X78541Y-46757D03*
X78348Y-45795D03*
X78033Y-45795D03*
G54D11*
X76995Y-44561D03*
X76995Y-44246D03*
X73315Y-45462D03*
X73315Y-45147D03*
G54D12*
X73081Y-48469D03*
X72766Y-48469D03*
X73078Y-48859D03*
X72763Y-48859D03*
G54D23*
X71242Y-53630D03*
X70642Y-53630D03*
G54D12*
X80387Y-45115D03*
X80702Y-45115D03*
X80397Y-45575D03*
X80712Y-45575D03*
X72700Y-44359D03*
X73015Y-44359D03*
G54D11*
X71940Y-46055D03*
X71940Y-45740D03*
G54D12*
X78032Y-45450D03*
X78347Y-45450D03*
G54D11*
X73557Y-44711D03*
X73557Y-44396D03*
G54D24*
X72525Y-43025D03*
G54D25*
X72820Y-42414D03*
X72623Y-42414D03*
X72426Y-42414D03*
X72229Y-42414D03*
X72229Y-43635D03*
X72426Y-43635D03*
X72623Y-43635D03*
X72820Y-43635D03*
G54D26*
X71914Y-42729D03*
X71914Y-42926D03*
X71914Y-43123D03*
X71914Y-43320D03*
X73135Y-43320D03*
X73135Y-43123D03*
X73135Y-42926D03*
X73135Y-42729D03*
G54D27*
X71537Y-46462D03*
X71931Y-46462D03*
X71931Y-47092D03*
X71734Y-47092D03*
X71537Y-47092D03*
G54D28*
X74065Y-41828D03*
X74065Y-42419D03*
G54D23*
X71665Y-53630D03*
X72265Y-53630D03*
G54D20*
X75021Y-45716D03*
X75218Y-45716D03*
G54D12*
X57979Y-36363D03*
X57664Y-36363D03*
X60296Y-34251D03*
X59981Y-34251D03*
X60373Y-35570D03*
X60058Y-35570D03*
X77861Y-33723D03*
X78176Y-33723D03*
X77864Y-32937D03*
X78179Y-32937D03*
G54D22*
X78836Y-33244D03*
X78836Y-32644D03*
G54D12*
X60972Y-32659D03*
X60657Y-32659D03*
G54D11*
X62200Y-30397D03*
X62200Y-30712D03*
X61533Y-31645D03*
X61533Y-31330D03*
G54D22*
X77467Y-35197D03*
X77467Y-34597D03*
G54D23*
X76557Y-34997D03*
X75957Y-34997D03*
G54D12*
X66788Y-32565D03*
X67103Y-32565D03*
G54D11*
X65614Y-30698D03*
X65614Y-30383D03*
G54D29*
X62534Y-33218D03*
X62101Y-33218D03*
G54D30*
X61757Y-32721D03*
X61757Y-33154D03*
X60567Y-34145D03*
X60567Y-33712D03*
X60147Y-32601D03*
X60147Y-33034D03*
G54D29*
X62100Y-33528D03*
X62533Y-33528D03*
G54D11*
X63882Y-30671D03*
X63882Y-30356D03*
G54D29*
X60985Y-33598D03*
X61418Y-33598D03*
G54D12*
X62081Y-32077D03*
X61766Y-32077D03*
G54D11*
X62696Y-35091D03*
X62696Y-35406D03*
G54D12*
X62081Y-32418D03*
X61766Y-32418D03*
X62088Y-34482D03*
X61773Y-34482D03*
X62088Y-34836D03*
X61773Y-34836D03*
G54D23*
X76558Y-35589D03*
X75958Y-35589D03*
G54D29*
X61414Y-33159D03*
X60981Y-33159D03*
X60573Y-33378D03*
X60140Y-33378D03*
G54D30*
X61757Y-34034D03*
X61757Y-33601D03*
G54D11*
X77563Y-33403D03*
X77563Y-33718D03*
X77563Y-32617D03*
X77563Y-32932D03*
G54D12*
X57979Y-36019D03*
X57664Y-36019D03*
G54D11*
X62509Y-30712D03*
X62509Y-30397D03*
G54D12*
X62039Y-35269D03*
X61724Y-35269D03*
G54D30*
X57747Y-34342D03*
X57747Y-34775D03*
X57747Y-33925D03*
X57747Y-33492D03*
G54D11*
X77919Y-34745D03*
X77919Y-35060D03*
G54D12*
X61073Y-35504D03*
X61388Y-35504D03*
X67343Y-30239D03*
X67658Y-30239D03*
X67343Y-30974D03*
X67658Y-30974D03*
X67343Y-31704D03*
X67658Y-31704D03*
G54D11*
X60919Y-30289D03*
X60919Y-30604D03*
X60550Y-30541D03*
X60550Y-30856D03*
G54D31*
X57781Y-32090D03*
X58273Y-32090D03*
X59257Y-32090D03*
X58765Y-32090D03*
X58765Y-32878D03*
X59257Y-32878D03*
X58273Y-32878D03*
X57781Y-32878D03*
G54D32*
X60716Y-35069D03*
X60716Y-34675D03*
X61346Y-34675D03*
X61346Y-34872D03*
X61346Y-35069D03*
G54D33*
X61011Y-32127D03*
X61011Y-31556D03*
X60558Y-31556D03*
X60558Y-32127D03*
G54D28*
X60226Y-34614D03*
X60226Y-35205D03*
G54D19*
X64457Y-32993D03*
G54D21*
X65992Y-33092D03*
X65992Y-33288D03*
X65992Y-33485D03*
X65992Y-33682D03*
X65992Y-33879D03*
X65992Y-34076D03*
X65992Y-34273D03*
X65992Y-32895D03*
X65992Y-32698D03*
X65992Y-32501D03*
X65992Y-32304D03*
X65992Y-32107D03*
X65992Y-31911D03*
X65992Y-31714D03*
X62921Y-31714D03*
X62921Y-31911D03*
X62921Y-32107D03*
X62921Y-32304D03*
X62921Y-32501D03*
X62921Y-32698D03*
X62921Y-32895D03*
X62921Y-33092D03*
X62921Y-33288D03*
X62921Y-33485D03*
X62921Y-33682D03*
X62921Y-33879D03*
X62921Y-34076D03*
X62921Y-34273D03*
G54D20*
X65736Y-31458D03*
X65539Y-31458D03*
X65342Y-31458D03*
X65145Y-31458D03*
X64949Y-31458D03*
X64752Y-31458D03*
X64555Y-31458D03*
X64358Y-31458D03*
X64161Y-31458D03*
X63964Y-31458D03*
X63768Y-31458D03*
X63571Y-31458D03*
X63374Y-31458D03*
X63177Y-31458D03*
X63177Y-34529D03*
X63374Y-34529D03*
X63571Y-34529D03*
X63768Y-34529D03*
X63964Y-34529D03*
X64161Y-34529D03*
X64358Y-34529D03*
X64555Y-34529D03*
X64752Y-34529D03*
X64949Y-34529D03*
X65145Y-34529D03*
X65342Y-34529D03*
X65539Y-34529D03*
X65736Y-34529D03*
G54D34*
X77030Y-33312D03*
X76281Y-33312D03*
X77030Y-34375D03*
X76656Y-33312D03*
X76281Y-34375D03*
G54D12*
X58484Y-33480D03*
X58799Y-33480D03*
G54D11*
X61672Y-30685D03*
X61672Y-30370D03*
X65584Y-34885D03*
X65584Y-35200D03*
X66160Y-34860D03*
X66160Y-35175D03*
G54D35*
X69136Y-30243D03*
X69530Y-30243D03*
X69923Y-30243D03*
X70317Y-30243D03*
X70711Y-30243D03*
X71105Y-30243D03*
X71498Y-30243D03*
X76656Y-30243D03*
X76262Y-30243D03*
X75868Y-30243D03*
X75475Y-30243D03*
X75081Y-30243D03*
X74687Y-30243D03*
X74294Y-30243D03*
X73900Y-30243D03*
X73506Y-30243D03*
X73112Y-30243D03*
X72719Y-30243D03*
X72719Y-30243D03*
X73112Y-30243D03*
X73506Y-30243D03*
X73900Y-30243D03*
X74294Y-30243D03*
X74687Y-30243D03*
X75081Y-30243D03*
X75475Y-30243D03*
X75868Y-30243D03*
X76262Y-30243D03*
X76656Y-30243D03*
X71498Y-30243D03*
X71105Y-30243D03*
X70711Y-30243D03*
X70317Y-30243D03*
X69923Y-30243D03*
X69530Y-30243D03*
X69136Y-30243D03*
G54D36*
X57713Y-31384D03*
X57713Y-30884D03*
X57713Y-30384D03*
X57713Y-29884D03*
G54D37*
X58816Y-30634D03*
G54D36*
X59918Y-29884D03*
X59918Y-30384D03*
X59918Y-30884D03*
X59918Y-31384D03*
G54D24*
X58841Y-35334D03*
G54D26*
X59451Y-35629D03*
X59451Y-35432D03*
X59451Y-35235D03*
X59451Y-35038D03*
X58230Y-35038D03*
X58230Y-35235D03*
X58230Y-35432D03*
X58230Y-35629D03*
G54D25*
X59136Y-34723D03*
X58545Y-34723D03*
X58545Y-35944D03*
X58742Y-35944D03*
X58939Y-35944D03*
X59136Y-35944D03*
G54D12*
X61333Y-34284D03*
X61018Y-34284D03*
G54D11*
X67909Y-33911D03*
X67909Y-33596D03*
G54D12*
X67028Y-32024D03*
X67343Y-32024D03*
X67028Y-31294D03*
X67343Y-31294D03*
X67028Y-30559D03*
X67343Y-30559D03*
X57999Y-28405D03*
X57684Y-28405D03*
X60316Y-26293D03*
X60001Y-26293D03*
X60393Y-27612D03*
X60078Y-27612D03*
X77881Y-25765D03*
X78196Y-25765D03*
X77884Y-24979D03*
X78199Y-24979D03*
G54D22*
X78856Y-25286D03*
X78856Y-24686D03*
G54D12*
X60992Y-24701D03*
X60677Y-24701D03*
G54D11*
X62220Y-22439D03*
X62220Y-22754D03*
X61553Y-23687D03*
X61553Y-23372D03*
G54D22*
X77487Y-27239D03*
X77487Y-26639D03*
G54D23*
X76577Y-27039D03*
X75977Y-27039D03*
G54D12*
X66808Y-24607D03*
X67123Y-24607D03*
G54D11*
X65634Y-22740D03*
X65634Y-22425D03*
G54D29*
X62554Y-25260D03*
X62121Y-25260D03*
G54D30*
X61777Y-24763D03*
X61777Y-25196D03*
X60587Y-26187D03*
X60587Y-25754D03*
X60167Y-24643D03*
X60167Y-25076D03*
G54D29*
X62120Y-25570D03*
X62553Y-25570D03*
G54D11*
X63902Y-22713D03*
X63902Y-22398D03*
G54D29*
X61005Y-25640D03*
X61438Y-25640D03*
G54D12*
X62101Y-24119D03*
X61786Y-24119D03*
G54D11*
X62716Y-27133D03*
X62716Y-27448D03*
G54D12*
X62101Y-24460D03*
X61786Y-24460D03*
X62108Y-26524D03*
X61793Y-26524D03*
X62108Y-26878D03*
X61793Y-26878D03*
G54D23*
X76578Y-27631D03*
X75978Y-27631D03*
G54D29*
X61434Y-25201D03*
X61001Y-25201D03*
X60593Y-25420D03*
X60160Y-25420D03*
G54D30*
X61777Y-26076D03*
X61777Y-25643D03*
G54D11*
X77583Y-25445D03*
X77583Y-25760D03*
X77583Y-24659D03*
X77583Y-24974D03*
G54D12*
X57999Y-28061D03*
X57684Y-28061D03*
G54D11*
X62529Y-22754D03*
X62529Y-22439D03*
G54D12*
X62059Y-27311D03*
X61744Y-27311D03*
G54D30*
X57767Y-26384D03*
X57767Y-26817D03*
X57767Y-25967D03*
X57767Y-25534D03*
G54D11*
X77939Y-26787D03*
X77939Y-27102D03*
G54D12*
X61093Y-27546D03*
X61408Y-27546D03*
X67363Y-22281D03*
X67678Y-22281D03*
X67363Y-23016D03*
X67678Y-23016D03*
X67363Y-23746D03*
X67678Y-23746D03*
G54D11*
X60939Y-22331D03*
X60939Y-22646D03*
X60570Y-22583D03*
X60570Y-22898D03*
G54D31*
X57801Y-24132D03*
X58293Y-24132D03*
X59277Y-24132D03*
X58785Y-24132D03*
X58785Y-24920D03*
X59277Y-24920D03*
X58293Y-24920D03*
X57801Y-24920D03*
G54D32*
X60736Y-27111D03*
X60736Y-26717D03*
X61366Y-26717D03*
X61366Y-26914D03*
X61366Y-27111D03*
G54D33*
X61031Y-24169D03*
X61031Y-23598D03*
X60578Y-23598D03*
X60578Y-24169D03*
G54D28*
X60246Y-26656D03*
X60246Y-27247D03*
G54D19*
X64477Y-25035D03*
G54D21*
X66012Y-25134D03*
X66012Y-25330D03*
X66012Y-25527D03*
X66012Y-25724D03*
X66012Y-25921D03*
X66012Y-26118D03*
X66012Y-26315D03*
X66012Y-24937D03*
X66012Y-24740D03*
X66012Y-24543D03*
X66012Y-24346D03*
X66012Y-24149D03*
X66012Y-23953D03*
X66012Y-23756D03*
X62941Y-23756D03*
X62941Y-23953D03*
X62941Y-24149D03*
X62941Y-24346D03*
X62941Y-24543D03*
X62941Y-24740D03*
X62941Y-24937D03*
X62941Y-25134D03*
X62941Y-25330D03*
X62941Y-25527D03*
X62941Y-25724D03*
X62941Y-25921D03*
X62941Y-26118D03*
X62941Y-26315D03*
G54D20*
X65756Y-23500D03*
X65559Y-23500D03*
X65362Y-23500D03*
X65165Y-23500D03*
X64969Y-23500D03*
X64772Y-23500D03*
X64575Y-23500D03*
X64378Y-23500D03*
X64181Y-23500D03*
X63984Y-23500D03*
X63788Y-23500D03*
X63591Y-23500D03*
X63394Y-23500D03*
X63197Y-23500D03*
X63197Y-26571D03*
X63394Y-26571D03*
X63591Y-26571D03*
X63788Y-26571D03*
X63984Y-26571D03*
X64181Y-26571D03*
X64378Y-26571D03*
X64575Y-26571D03*
X64772Y-26571D03*
X64969Y-26571D03*
X65165Y-26571D03*
X65362Y-26571D03*
X65559Y-26571D03*
X65756Y-26571D03*
G54D34*
X77050Y-25354D03*
X76301Y-25354D03*
X77050Y-26417D03*
X76676Y-25354D03*
X76301Y-26417D03*
G54D12*
X58504Y-25522D03*
X58819Y-25522D03*
G54D11*
X61692Y-22727D03*
X61692Y-22412D03*
X65604Y-26927D03*
X65604Y-27242D03*
X66180Y-26902D03*
X66180Y-27217D03*
G54D35*
X69156Y-22285D03*
X69550Y-22285D03*
X69943Y-22285D03*
X70337Y-22285D03*
X70731Y-22285D03*
X71125Y-22285D03*
X71518Y-22285D03*
X76676Y-22285D03*
X76282Y-22285D03*
X75888Y-22285D03*
X75495Y-22285D03*
X75101Y-22285D03*
X74707Y-22285D03*
X74314Y-22285D03*
X73920Y-22285D03*
X73526Y-22285D03*
X73132Y-22285D03*
X72739Y-22285D03*
X72739Y-22285D03*
X73132Y-22285D03*
X73526Y-22285D03*
X73920Y-22285D03*
X74314Y-22285D03*
X74707Y-22285D03*
X75101Y-22285D03*
X75495Y-22285D03*
X75888Y-22285D03*
X76282Y-22285D03*
X76676Y-22285D03*
X71518Y-22285D03*
X71125Y-22285D03*
X70731Y-22285D03*
X70337Y-22285D03*
X69943Y-22285D03*
X69550Y-22285D03*
X69156Y-22285D03*
G54D36*
X57733Y-23426D03*
X57733Y-22926D03*
X57733Y-22426D03*
X57733Y-21926D03*
G54D37*
X58836Y-22676D03*
G54D36*
X59938Y-21926D03*
X59938Y-22426D03*
X59938Y-22926D03*
X59938Y-23426D03*
G54D24*
X58861Y-27376D03*
G54D26*
X59471Y-27671D03*
X59471Y-27474D03*
X59471Y-27277D03*
X59471Y-27080D03*
X58250Y-27080D03*
X58250Y-27277D03*
X58250Y-27474D03*
X58250Y-27671D03*
G54D25*
X59156Y-26765D03*
X58565Y-26765D03*
X58565Y-27986D03*
X58762Y-27986D03*
X58959Y-27986D03*
X59156Y-27986D03*
G54D12*
X61353Y-26326D03*
X61038Y-26326D03*
G54D11*
X67929Y-25953D03*
X67929Y-25638D03*
G54D12*
X67048Y-24066D03*
X67363Y-24066D03*
X67048Y-23336D03*
X67363Y-23336D03*
X67048Y-22601D03*
X67363Y-22601D03*
M02*
