G04 (created by PCBNEW (2013-mar-13)-testing) date Fri 20 Dec 2013 02:45:34 PM CET*
%MOIN*%
G04 Gerber Fmt 3.4, Leading zero omitted, Abs format*
%FSLAX34Y34*%
G01*
G70*
G90*
G04 APERTURE LIST*
%ADD10C,0.003937*%
%ADD11R,0.021300X0.021700*%
%ADD12R,0.057087X0.078740*%
%ADD13R,0.031496X0.059055*%
%ADD14C,0.092000*%
%ADD15R,0.059100X0.059100*%
%ADD16C,0.059100*%
%ADD17R,0.165354X0.027559*%
%ADD18C,0.030000*%
%ADD19R,0.021700X0.021300*%
%ADD20R,0.033071X0.094488*%
%ADD21R,0.019685X0.009843*%
%ADD22C,0.039370*%
%ADD23O,0.059055X0.118110*%
%ADD24C,0.047244*%
%ADD25R,0.031000X0.031000*%
%ADD26C,0.031000*%
%ADD27C,0.028000*%
%ADD28C,0.006000*%
G04 APERTURE END LIST*
G54D10*
G54D11*
X30880Y-24537D03*
X30880Y-24222D03*
X30500Y-24537D03*
X30500Y-24222D03*
G54D12*
X26743Y-22503D03*
X32098Y-19235D03*
G54D13*
X30680Y-20259D03*
X30247Y-20259D03*
X29814Y-20259D03*
X29381Y-20259D03*
X28948Y-20259D03*
X28515Y-20259D03*
X28082Y-20259D03*
X27649Y-20259D03*
G54D14*
X31947Y-38216D03*
X25947Y-38216D03*
G54D15*
X25734Y-39108D03*
G54D16*
X32140Y-39124D03*
G54D17*
X31640Y-30000D03*
X31640Y-30394D03*
X31640Y-30787D03*
X31640Y-31181D03*
X31640Y-31575D03*
X31640Y-31969D03*
X31640Y-32362D03*
X31640Y-37520D03*
X31640Y-37126D03*
X31640Y-36732D03*
X31640Y-36339D03*
X31640Y-35945D03*
X31640Y-35551D03*
X31640Y-35158D03*
X31640Y-34764D03*
X31640Y-34370D03*
X31640Y-33976D03*
X31640Y-33583D03*
G54D18*
X27475Y-29125D03*
X28225Y-29125D03*
X26725Y-29125D03*
G54D11*
X27870Y-37856D03*
X27870Y-37541D03*
G54D19*
X27308Y-36733D03*
X26993Y-36733D03*
G54D11*
X26226Y-37425D03*
X26226Y-37110D03*
G54D19*
X26314Y-36733D03*
X26629Y-36733D03*
G54D11*
X28188Y-36783D03*
X28188Y-37098D03*
G54D19*
X27866Y-38331D03*
X27551Y-38331D03*
G54D20*
X27123Y-37543D03*
G54D21*
X26748Y-37936D03*
X26748Y-37739D03*
X26748Y-37543D03*
X26748Y-37346D03*
X26748Y-37149D03*
X27497Y-37149D03*
X27497Y-37346D03*
X27497Y-37543D03*
X27497Y-37739D03*
X27497Y-37936D03*
G54D22*
X27350Y-39850D03*
X30540Y-39850D03*
G54D23*
X31309Y-39659D03*
X26584Y-39659D03*
G54D24*
X28041Y-39659D03*
X29852Y-39659D03*
G54D22*
X27569Y-38832D03*
X28553Y-38832D03*
X29340Y-38832D03*
X30324Y-38832D03*
G54D25*
X29350Y-33290D03*
X29350Y-37790D03*
X29350Y-37290D03*
X29350Y-36790D03*
X29350Y-36290D03*
X29350Y-35790D03*
X29350Y-35290D03*
X29350Y-34790D03*
X29350Y-34290D03*
X29350Y-33790D03*
X29850Y-37198D03*
X29850Y-36698D03*
X29850Y-36198D03*
X29850Y-35698D03*
X29850Y-35198D03*
X29850Y-34698D03*
X29850Y-34198D03*
X29850Y-33698D03*
G54D26*
X26642Y-34787D03*
X27142Y-34787D03*
X27642Y-34787D03*
X28142Y-34787D03*
X28642Y-34787D03*
X27642Y-35287D03*
X28142Y-35287D03*
X28642Y-35287D03*
X27142Y-35287D03*
X26642Y-35287D03*
X26642Y-34287D03*
X27142Y-34287D03*
X27642Y-34287D03*
X28142Y-34287D03*
X28642Y-34287D03*
X26642Y-33787D03*
X27142Y-33787D03*
X27642Y-33787D03*
X28142Y-33787D03*
X28642Y-33787D03*
X26642Y-35787D03*
X26642Y-36287D03*
X27142Y-36287D03*
X27142Y-35787D03*
X27642Y-35787D03*
X27642Y-36287D03*
X28142Y-35787D03*
X28142Y-36287D03*
X28642Y-35787D03*
X28642Y-36287D03*
X26642Y-33287D03*
X27142Y-33287D03*
X27642Y-33287D03*
X28142Y-33287D03*
X28142Y-32787D03*
X27642Y-32787D03*
X27142Y-32787D03*
X26642Y-32787D03*
X26642Y-32287D03*
X27142Y-32287D03*
X27642Y-32287D03*
X28142Y-32287D03*
X28142Y-31787D03*
X27642Y-31787D03*
X27142Y-31787D03*
X26642Y-31787D03*
X26642Y-31287D03*
X27142Y-31287D03*
X27642Y-31287D03*
X28142Y-31287D03*
X28142Y-30787D03*
X27642Y-30787D03*
X27142Y-30787D03*
X26642Y-30787D03*
X26642Y-30287D03*
X27142Y-30287D03*
X27642Y-30287D03*
X27642Y-29787D03*
X27142Y-29787D03*
X26642Y-29787D03*
X28142Y-29787D03*
X28142Y-30287D03*
X25578Y-36925D03*
G54D25*
X25578Y-37425D03*
X25270Y-24180D03*
X25270Y-23680D03*
X25270Y-23180D03*
X25270Y-22680D03*
X25270Y-22180D03*
X25270Y-21680D03*
X25270Y-21180D03*
X25270Y-20680D03*
X25270Y-20180D03*
X25270Y-28680D03*
X25270Y-28180D03*
X25270Y-27680D03*
X25270Y-27180D03*
X25270Y-26680D03*
X25270Y-26180D03*
X25270Y-25680D03*
X25270Y-25180D03*
X25270Y-24680D03*
X32631Y-24152D03*
X32631Y-23652D03*
X32631Y-23152D03*
X32631Y-22652D03*
X32631Y-22152D03*
X32631Y-21652D03*
X32631Y-21152D03*
X32631Y-20652D03*
X32631Y-20152D03*
X32631Y-28652D03*
X32631Y-28152D03*
X32631Y-27652D03*
X32631Y-27152D03*
X32631Y-26652D03*
X32631Y-26152D03*
X32631Y-25652D03*
X32631Y-25152D03*
X32631Y-24652D03*
X29350Y-29930D03*
X29350Y-30430D03*
X29350Y-30930D03*
X29350Y-31430D03*
X29350Y-31930D03*
X29350Y-32430D03*
X29850Y-30180D03*
X29850Y-30680D03*
X29850Y-31180D03*
X29850Y-31680D03*
X29850Y-32180D03*
G54D27*
X31895Y-27465D03*
X30612Y-32398D03*
X30803Y-24990D03*
X27579Y-22341D03*
X26440Y-21600D03*
X29753Y-20768D03*
X30453Y-23220D03*
X26005Y-19160D03*
X31251Y-21060D03*
X30702Y-23492D03*
X32338Y-18434D03*
X26178Y-18585D03*
X26710Y-18363D03*
X28541Y-33212D03*
X27850Y-29125D03*
X26414Y-38722D03*
X27090Y-39370D03*
X27705Y-36773D03*
X27471Y-28617D03*
X31513Y-22799D03*
X27100Y-29125D03*
X26403Y-26478D03*
X26550Y-19705D03*
X30800Y-19500D03*
X31250Y-19680D03*
X31700Y-19900D03*
X27411Y-23373D03*
X32147Y-28574D03*
X31501Y-26208D03*
X28979Y-28105D03*
X25486Y-19576D03*
X28427Y-18912D03*
X31521Y-24413D03*
X28900Y-25800D03*
X28000Y-24800D03*
X29800Y-24800D03*
X28890Y-26300D03*
X29800Y-25800D03*
X28000Y-25800D03*
X27998Y-24334D03*
X29796Y-24332D03*
X28000Y-26300D03*
X29800Y-26300D03*
X29800Y-25300D03*
X28000Y-25300D03*
X28900Y-24800D03*
X28900Y-24332D03*
X28890Y-25321D03*
X29015Y-37540D03*
X29017Y-37040D03*
X30640Y-27475D03*
X30240Y-27475D03*
X29855Y-27475D03*
X26905Y-21880D03*
X26402Y-24784D03*
X26554Y-23252D03*
X25818Y-20610D03*
X27285Y-21895D03*
X26985Y-24960D03*
X25832Y-20264D03*
X27413Y-21575D03*
X27161Y-19682D03*
X30188Y-20820D03*
X27095Y-19143D03*
X27354Y-26813D03*
X30051Y-23213D03*
X26995Y-20255D03*
X27030Y-25455D03*
X27288Y-20444D03*
X26472Y-25128D03*
X26578Y-18694D03*
X31425Y-27475D03*
X31273Y-22094D03*
X30234Y-18914D03*
X31407Y-23685D03*
X28868Y-33451D03*
X30182Y-18432D03*
X30940Y-21730D03*
X30929Y-23758D03*
X28242Y-27564D03*
X28166Y-38112D03*
X27860Y-27230D03*
X26397Y-26121D03*
X27512Y-27272D03*
X26398Y-26865D03*
X28950Y-38114D03*
X26652Y-28635D03*
X26754Y-23940D03*
X31614Y-22093D03*
X30884Y-26601D03*
X26999Y-26697D03*
X31271Y-24991D03*
X25656Y-19161D03*
X29334Y-27288D03*
X30120Y-22857D03*
X27819Y-22953D03*
X28221Y-27205D03*
X29777Y-22254D03*
X29456Y-23261D03*
X29338Y-22244D03*
X29128Y-23390D03*
G54D28*
X31640Y-31969D02*
X30858Y-31969D01*
X30612Y-32216D02*
X30612Y-32398D01*
X30858Y-31969D02*
X30612Y-32216D01*
X28600Y-29267D02*
X28600Y-29086D01*
X28600Y-29086D02*
X29610Y-28076D01*
X28600Y-32540D02*
X28850Y-32790D01*
X28600Y-29267D02*
X28600Y-32540D01*
X29610Y-28076D02*
X29610Y-27126D01*
X30803Y-24990D02*
X30803Y-25893D01*
X29610Y-27086D02*
X29610Y-27126D01*
X30803Y-25893D02*
X29610Y-27086D01*
X28850Y-32790D02*
X29350Y-33290D01*
X31640Y-34764D02*
X29916Y-34764D01*
X29916Y-34764D02*
X29850Y-34698D01*
X29850Y-32180D02*
X30036Y-32180D01*
X30640Y-31575D02*
X31640Y-31575D01*
X30036Y-32180D02*
X30640Y-31575D01*
X30800Y-19500D02*
X30800Y-19259D01*
X31625Y-18434D02*
X32338Y-18434D01*
X30800Y-19259D02*
X31625Y-18434D01*
X26178Y-18585D02*
X26178Y-18515D01*
X26330Y-18363D02*
X26710Y-18363D01*
X26178Y-18515D02*
X26330Y-18363D01*
X26748Y-37543D02*
X26651Y-37543D01*
X26372Y-37110D02*
X26226Y-37110D01*
X26430Y-37168D02*
X26372Y-37110D01*
X26430Y-37322D02*
X26430Y-37168D01*
X26651Y-37543D02*
X26430Y-37322D01*
X26286Y-37123D02*
X26226Y-37123D01*
X27471Y-28646D02*
X27471Y-28617D01*
X27471Y-28646D02*
X27850Y-29025D01*
X27850Y-29025D02*
X27850Y-29125D01*
X27308Y-36733D02*
X27665Y-36733D01*
X27665Y-36733D02*
X27705Y-36773D01*
X26748Y-37543D02*
X27123Y-37543D01*
X27471Y-28617D02*
X27471Y-28629D01*
X27100Y-29000D02*
X27100Y-29125D01*
X27471Y-28629D02*
X27100Y-29000D01*
X29850Y-30180D02*
X30076Y-30180D01*
X30255Y-30000D02*
X31640Y-30000D01*
X30076Y-30180D02*
X30255Y-30000D01*
X28182Y-19413D02*
X28182Y-19157D01*
X28182Y-19157D02*
X28427Y-18912D01*
X26550Y-19705D02*
X26550Y-19685D01*
X26550Y-19685D02*
X26822Y-19413D01*
X26822Y-19413D02*
X28182Y-19413D01*
X28182Y-19413D02*
X28515Y-19746D01*
X28515Y-19746D02*
X28515Y-20259D01*
X28000Y-25800D02*
X28900Y-25800D01*
X28900Y-25800D02*
X29800Y-25800D01*
X28890Y-26300D02*
X28900Y-26300D01*
X28000Y-26300D02*
X28900Y-26300D01*
X28900Y-26300D02*
X29800Y-26300D01*
X28900Y-24800D02*
X29800Y-24800D01*
X28000Y-24800D02*
X28900Y-24800D01*
X28000Y-25300D02*
X28000Y-25800D01*
X28000Y-25800D02*
X28000Y-26300D01*
X28900Y-24332D02*
X27998Y-24334D01*
X27998Y-24334D02*
X28000Y-24800D01*
X28000Y-24800D02*
X28000Y-25300D01*
X28900Y-24332D02*
X29796Y-24332D01*
X29796Y-24332D02*
X29800Y-24800D01*
X29800Y-24800D02*
X29800Y-25300D01*
X28890Y-25321D02*
X28021Y-25321D01*
X28021Y-25321D02*
X28000Y-25300D01*
X29800Y-25300D02*
X28911Y-25300D01*
X28911Y-25300D02*
X28890Y-25321D01*
X29800Y-25300D02*
X29800Y-25800D01*
X29800Y-25800D02*
X29800Y-26300D01*
X28890Y-25321D02*
X28890Y-24809D01*
X28890Y-24809D02*
X28900Y-24800D01*
X28890Y-25321D02*
X28890Y-24341D01*
X28890Y-24341D02*
X28900Y-24332D01*
X28890Y-25321D02*
X28891Y-25321D01*
X31640Y-37520D02*
X30741Y-37520D01*
X30741Y-37520D02*
X30602Y-37660D01*
X30602Y-37660D02*
X29662Y-37660D01*
X29662Y-37660D02*
X29542Y-37540D01*
X29542Y-37540D02*
X29015Y-37540D01*
X30581Y-37126D02*
X31640Y-37126D01*
X29017Y-37040D02*
X29542Y-37040D01*
X29542Y-37040D02*
X29600Y-37098D01*
X29600Y-37098D02*
X29600Y-37398D01*
X29600Y-37398D02*
X29724Y-37522D01*
X29724Y-37522D02*
X30186Y-37522D01*
X30186Y-37522D02*
X30581Y-37126D01*
X29102Y-29299D02*
X29176Y-29225D01*
X30527Y-27874D02*
X31909Y-27874D01*
X29176Y-29225D02*
X30527Y-27874D01*
X32631Y-27152D02*
X31909Y-27874D01*
X29154Y-30680D02*
X29102Y-30628D01*
X29102Y-30628D02*
X29102Y-29299D01*
X29158Y-30680D02*
X29850Y-30680D01*
X29158Y-30680D02*
X29154Y-30680D01*
X29850Y-30680D02*
X30008Y-30680D01*
X30293Y-30394D02*
X31640Y-30394D01*
X30008Y-30680D02*
X30293Y-30394D01*
X31640Y-35551D02*
X30396Y-35551D01*
X30250Y-35698D02*
X29850Y-35698D01*
X30396Y-35551D02*
X30250Y-35698D01*
X29156Y-31180D02*
X29084Y-31180D01*
X29850Y-31180D02*
X29156Y-31180D01*
X30640Y-27578D02*
X29103Y-29115D01*
X30640Y-27578D02*
X30640Y-27475D01*
X28980Y-29238D02*
X29103Y-29115D01*
X28980Y-31076D02*
X28980Y-29238D01*
X29084Y-31180D02*
X28980Y-31076D01*
X32631Y-26152D02*
X31963Y-26152D01*
X31963Y-26152D02*
X30640Y-27475D01*
X29850Y-31180D02*
X30064Y-31180D01*
X30456Y-30787D02*
X31640Y-30787D01*
X30064Y-31180D02*
X30456Y-30787D01*
X30240Y-27475D02*
X30240Y-27802D01*
X29092Y-31430D02*
X29350Y-31430D01*
X28855Y-31193D02*
X29092Y-31430D01*
X28855Y-29187D02*
X28855Y-31193D01*
X30240Y-27802D02*
X28855Y-29187D01*
X31485Y-25652D02*
X32631Y-25652D01*
X30240Y-26897D02*
X31485Y-25652D01*
X30240Y-27475D02*
X30240Y-26897D01*
X28730Y-29310D02*
X28730Y-29136D01*
X28730Y-29136D02*
X29855Y-28011D01*
X29124Y-31680D02*
X29071Y-31680D01*
X29850Y-31680D02*
X29124Y-31680D01*
X29855Y-28011D02*
X29855Y-27475D01*
X28730Y-31339D02*
X28730Y-29310D01*
X29071Y-31680D02*
X28730Y-31339D01*
X31439Y-25494D02*
X31418Y-25494D01*
X32308Y-25152D02*
X31966Y-25494D01*
X31966Y-25494D02*
X31439Y-25494D01*
X32631Y-25152D02*
X32308Y-25152D01*
X31418Y-25494D02*
X31308Y-25604D01*
X29855Y-27057D02*
X31308Y-25604D01*
X29855Y-27057D02*
X29855Y-27475D01*
X29850Y-31680D02*
X30114Y-31680D01*
X30612Y-31181D02*
X31640Y-31181D01*
X30114Y-31680D02*
X30612Y-31181D01*
X25500Y-26680D02*
X25270Y-26680D01*
X26313Y-22472D02*
X26313Y-22009D01*
X26313Y-22009D02*
X26442Y-21880D01*
X26442Y-21880D02*
X26905Y-21880D01*
X26313Y-24507D02*
X26313Y-22472D01*
X25845Y-26335D02*
X25500Y-26680D01*
X25845Y-24975D02*
X25845Y-26335D01*
X26313Y-24507D02*
X25845Y-24975D01*
X31640Y-35945D02*
X30508Y-35945D01*
X30256Y-36198D02*
X29850Y-36198D01*
X30508Y-35945D02*
X30256Y-36198D01*
X25598Y-23180D02*
X25270Y-23180D01*
X25794Y-22984D02*
X25598Y-23180D01*
X25794Y-20634D02*
X25794Y-22984D01*
X25818Y-20610D02*
X25794Y-20634D01*
X25497Y-22680D02*
X25270Y-22680D01*
X25574Y-22603D02*
X25497Y-22680D01*
X25574Y-20522D02*
X25574Y-22603D01*
X25832Y-20264D02*
X25574Y-20522D01*
X27161Y-19682D02*
X27844Y-19682D01*
X27844Y-19682D02*
X28082Y-19920D01*
X28082Y-19920D02*
X28082Y-20259D01*
X26630Y-20213D02*
X26630Y-20214D01*
X27161Y-19682D02*
X26630Y-20213D01*
X26630Y-20214D02*
X26630Y-20860D01*
X25700Y-24680D02*
X25270Y-24680D01*
X26190Y-24190D02*
X25700Y-24680D01*
X26190Y-21300D02*
X26190Y-24190D01*
X26630Y-20860D02*
X26190Y-21300D01*
X31640Y-36339D02*
X30600Y-36339D01*
X30242Y-36698D02*
X29850Y-36698D01*
X30600Y-36339D02*
X30242Y-36698D01*
X30188Y-20820D02*
X29814Y-20446D01*
X29814Y-20446D02*
X29814Y-20259D01*
X26306Y-20644D02*
X26306Y-19482D01*
X26306Y-19482D02*
X26455Y-19333D01*
X25595Y-24180D02*
X25270Y-24180D01*
X26056Y-23719D02*
X25595Y-24180D01*
X26056Y-20894D02*
X26056Y-23719D01*
X26306Y-20644D02*
X26056Y-20894D01*
X26645Y-19143D02*
X26455Y-19333D01*
X27095Y-19143D02*
X26645Y-19143D01*
X26748Y-37346D02*
X26666Y-37346D01*
X26314Y-36770D02*
X26314Y-36733D01*
X26555Y-37011D02*
X26314Y-36770D01*
X26555Y-37235D02*
X26555Y-37011D01*
X26666Y-37346D02*
X26555Y-37235D01*
X26314Y-36766D02*
X26314Y-36733D01*
X27870Y-37856D02*
X27870Y-38327D01*
X27870Y-38327D02*
X27866Y-38331D01*
X27497Y-37543D02*
X27868Y-37543D01*
X27868Y-37543D02*
X27870Y-37541D01*
X27497Y-37346D02*
X27668Y-37346D01*
X28188Y-37231D02*
X28188Y-37098D01*
X28139Y-37280D02*
X28188Y-37231D01*
X27735Y-37280D02*
X28139Y-37280D01*
X27668Y-37346D02*
X27735Y-37280D01*
X27497Y-37149D02*
X27744Y-37149D01*
X28110Y-36783D02*
X28188Y-36783D01*
X27744Y-37149D02*
X28110Y-36783D01*
X26629Y-36733D02*
X26993Y-36733D01*
X26748Y-37149D02*
X26748Y-36990D01*
X26629Y-36871D02*
X26629Y-36733D01*
X26748Y-36990D02*
X26629Y-36871D01*
X27203Y-39146D02*
X27727Y-39146D01*
X27981Y-38893D02*
X27981Y-38602D01*
X27727Y-39146D02*
X27981Y-38893D01*
X27551Y-38331D02*
X27551Y-38373D01*
X27551Y-38373D02*
X27711Y-38533D01*
X27711Y-38533D02*
X27912Y-38533D01*
X27912Y-38533D02*
X27981Y-38602D01*
X25887Y-38955D02*
X25734Y-39108D01*
X27012Y-38955D02*
X25887Y-38955D01*
X27203Y-39146D02*
X27012Y-38955D01*
X27497Y-37936D02*
X27497Y-38276D01*
X27497Y-38276D02*
X27551Y-38331D01*
X26226Y-37438D02*
X26321Y-37438D01*
X26622Y-37739D02*
X26748Y-37739D01*
X26321Y-37438D02*
X26622Y-37739D01*
X30500Y-24222D02*
X30500Y-24186D01*
X30500Y-24186D02*
X30155Y-23841D01*
X30155Y-23841D02*
X29128Y-23841D01*
X29128Y-23841D02*
X28463Y-23176D01*
X28463Y-23176D02*
X28463Y-21402D01*
X28463Y-21402D02*
X27649Y-20588D01*
X27649Y-20588D02*
X27649Y-20259D01*
X30880Y-24222D02*
X30885Y-24222D01*
X30885Y-24222D02*
X31168Y-23940D01*
X31168Y-23940D02*
X31168Y-23202D01*
X31168Y-23202D02*
X30680Y-22714D01*
X30680Y-22714D02*
X30680Y-20259D01*
X29850Y-33698D02*
X30156Y-33698D01*
X30156Y-33698D02*
X30434Y-33976D01*
X30434Y-33976D02*
X31640Y-33976D01*
X26995Y-20255D02*
X26995Y-20493D01*
X26995Y-20493D02*
X28105Y-21603D01*
X27030Y-25455D02*
X27285Y-25200D01*
X28105Y-23180D02*
X28105Y-21603D01*
X27285Y-24000D02*
X28105Y-23180D01*
X27285Y-25200D02*
X27285Y-24000D01*
X27288Y-20444D02*
X27288Y-20606D01*
X27288Y-20606D02*
X28280Y-21598D01*
X28280Y-21674D02*
X28280Y-21598D01*
X27410Y-24055D02*
X27410Y-25435D01*
X28280Y-23185D02*
X27410Y-24055D01*
X28280Y-21674D02*
X28280Y-23185D01*
X27140Y-25705D02*
X26940Y-25705D01*
X27410Y-25435D02*
X27140Y-25705D01*
X26934Y-25705D02*
X26940Y-25705D01*
X26472Y-25243D02*
X26934Y-25705D01*
X26472Y-25128D02*
X26472Y-25243D01*
X25920Y-20839D02*
X25924Y-20839D01*
X26183Y-20580D02*
X26183Y-19348D01*
X25924Y-20839D02*
X26183Y-20580D01*
X25920Y-23420D02*
X25920Y-20839D01*
X25270Y-23680D02*
X25660Y-23680D01*
X25660Y-23680D02*
X25920Y-23420D01*
X28948Y-19606D02*
X28948Y-19048D01*
X28948Y-19048D02*
X28557Y-18657D01*
X28557Y-18657D02*
X26615Y-18657D01*
X26615Y-18657D02*
X26578Y-18694D01*
X28948Y-19606D02*
X28948Y-20259D01*
X26240Y-19032D02*
X26240Y-19291D01*
X26240Y-19291D02*
X26183Y-19348D01*
X26578Y-18694D02*
X26240Y-19032D01*
X29850Y-34198D02*
X29600Y-33948D01*
X29600Y-33602D02*
X29600Y-33948D01*
X29536Y-33538D02*
X29600Y-33602D01*
X29488Y-33538D02*
X29536Y-33538D01*
X28955Y-33538D02*
X29488Y-33538D01*
X28868Y-33451D02*
X28955Y-33538D01*
X29850Y-34198D02*
X30120Y-34198D01*
X30292Y-34370D02*
X31640Y-34370D01*
X30120Y-34198D02*
X30292Y-34370D01*
X29426Y-26631D02*
X29175Y-26631D01*
X29175Y-26631D02*
X28242Y-27564D01*
X29426Y-26631D02*
X29818Y-26631D01*
X29818Y-26631D02*
X30342Y-26107D01*
X30342Y-26107D02*
X30342Y-25008D01*
X30342Y-25008D02*
X30600Y-24750D01*
X30600Y-24750D02*
X30922Y-24750D01*
X30922Y-24750D02*
X31037Y-24865D01*
X31037Y-24865D02*
X31037Y-25178D01*
X31037Y-25178D02*
X31113Y-25254D01*
X31113Y-25254D02*
X31596Y-25254D01*
X31596Y-25254D02*
X32009Y-24841D01*
X32009Y-24841D02*
X32009Y-20849D01*
X32009Y-20849D02*
X30970Y-19810D01*
X30970Y-19810D02*
X30412Y-19810D01*
X30412Y-19810D02*
X30247Y-19974D01*
X30247Y-20259D02*
X30247Y-19974D01*
X29850Y-37147D02*
X29850Y-37198D01*
X29600Y-36897D02*
X29850Y-37147D01*
X29600Y-36600D02*
X29600Y-36897D01*
X29540Y-36540D02*
X29600Y-36600D01*
X28905Y-36540D02*
X29540Y-36540D01*
X28623Y-36822D02*
X28905Y-36540D01*
X28623Y-37655D02*
X28623Y-36822D01*
X28166Y-38112D02*
X28623Y-37655D01*
X31640Y-36732D02*
X30663Y-36732D01*
X30663Y-36732D02*
X30198Y-37198D01*
X30198Y-37198D02*
X29850Y-37198D01*
X29350Y-36790D02*
X28901Y-36790D01*
X28776Y-37940D02*
X28950Y-38114D01*
X28776Y-36915D02*
X28776Y-37940D01*
X28901Y-36790D02*
X28776Y-36915D01*
X26748Y-37936D02*
X26748Y-38145D01*
X27435Y-38832D02*
X27569Y-38832D01*
X26748Y-38145D02*
X27435Y-38832D01*
X25501Y-36672D02*
X25501Y-36848D01*
X25501Y-36848D02*
X25578Y-36925D01*
X26007Y-28635D02*
X25501Y-29141D01*
X25501Y-29141D02*
X25501Y-36190D01*
X26007Y-28635D02*
X26652Y-28635D01*
X25501Y-36190D02*
X25501Y-36451D01*
X25501Y-36684D02*
X25501Y-36672D01*
X25501Y-36672D02*
X25501Y-36451D01*
X26999Y-28288D02*
X26999Y-26697D01*
X26652Y-28635D02*
X26999Y-28288D01*
X31271Y-24991D02*
X31271Y-24715D01*
X31271Y-24715D02*
X31093Y-24537D01*
X31093Y-24537D02*
X30880Y-24537D01*
X30500Y-24537D02*
X30880Y-24537D01*
X30120Y-22857D02*
X30120Y-22125D01*
X30120Y-22125D02*
X29381Y-21386D01*
X29381Y-21386D02*
X29381Y-20259D01*
X25578Y-37425D02*
X25578Y-37397D01*
X25839Y-36573D02*
X25704Y-36438D01*
X25839Y-37136D02*
X25839Y-36573D01*
X25578Y-37397D02*
X25839Y-37136D01*
X25704Y-36334D02*
X25704Y-36438D01*
X25704Y-36169D02*
X25704Y-36334D01*
X28221Y-27228D02*
X27972Y-27477D01*
X27972Y-27477D02*
X27972Y-27666D01*
X27972Y-27666D02*
X26767Y-28871D01*
X26767Y-28871D02*
X26044Y-28871D01*
X26044Y-28871D02*
X25704Y-29211D01*
X25704Y-29211D02*
X25704Y-36169D01*
X28221Y-27205D02*
X28221Y-27228D01*
X31640Y-35158D02*
X29889Y-35158D01*
X29889Y-35158D02*
X29850Y-35198D01*
G54D10*
G36*
X27960Y-22735D02*
X27869Y-22698D01*
X27834Y-22698D01*
X27834Y-22290D01*
X27795Y-22196D01*
X27723Y-22124D01*
X27629Y-22086D01*
X27528Y-22085D01*
X27434Y-22124D01*
X27362Y-22196D01*
X27324Y-22290D01*
X27323Y-22391D01*
X27362Y-22485D01*
X27434Y-22557D01*
X27528Y-22595D01*
X27629Y-22596D01*
X27723Y-22557D01*
X27795Y-22485D01*
X27833Y-22391D01*
X27834Y-22290D01*
X27834Y-22698D01*
X27768Y-22697D01*
X27674Y-22736D01*
X27602Y-22808D01*
X27564Y-22902D01*
X27563Y-23003D01*
X27602Y-23097D01*
X27674Y-23169D01*
X27768Y-23207D01*
X27869Y-23208D01*
X27873Y-23206D01*
X27182Y-23897D01*
X27151Y-23944D01*
X27149Y-23953D01*
X27140Y-24000D01*
X27140Y-24754D01*
X27129Y-24743D01*
X27035Y-24705D01*
X27009Y-24705D01*
X27009Y-23889D01*
X26970Y-23795D01*
X26898Y-23723D01*
X26804Y-23685D01*
X26703Y-23684D01*
X26609Y-23723D01*
X26537Y-23795D01*
X26499Y-23889D01*
X26498Y-23990D01*
X26537Y-24084D01*
X26609Y-24156D01*
X26703Y-24194D01*
X26804Y-24195D01*
X26898Y-24156D01*
X26970Y-24084D01*
X27008Y-23990D01*
X27009Y-23889D01*
X27009Y-24705D01*
X26934Y-24704D01*
X26840Y-24743D01*
X26768Y-24815D01*
X26730Y-24909D01*
X26729Y-25010D01*
X26768Y-25104D01*
X26840Y-25176D01*
X26934Y-25214D01*
X26943Y-25214D01*
X26885Y-25238D01*
X26813Y-25310D01*
X26793Y-25359D01*
X26693Y-25259D01*
X26726Y-25178D01*
X26727Y-25077D01*
X26688Y-24983D01*
X26622Y-24917D01*
X26656Y-24834D01*
X26657Y-24733D01*
X26618Y-24639D01*
X26546Y-24567D01*
X26453Y-24529D01*
X26457Y-24507D01*
X26458Y-24507D01*
X26458Y-23488D01*
X26503Y-23506D01*
X26604Y-23507D01*
X26698Y-23468D01*
X26770Y-23396D01*
X26808Y-23302D01*
X26809Y-23201D01*
X26770Y-23107D01*
X26698Y-23035D01*
X26640Y-23011D01*
X27052Y-23011D01*
X27094Y-22994D01*
X27126Y-22961D01*
X27144Y-22919D01*
X27144Y-22873D01*
X27144Y-22112D01*
X27234Y-22149D01*
X27335Y-22150D01*
X27429Y-22111D01*
X27501Y-22039D01*
X27539Y-21945D01*
X27540Y-21844D01*
X27523Y-21805D01*
X27557Y-21791D01*
X27629Y-21719D01*
X27667Y-21625D01*
X27668Y-21524D01*
X27629Y-21430D01*
X27557Y-21358D01*
X27463Y-21320D01*
X27362Y-21319D01*
X27268Y-21358D01*
X27196Y-21430D01*
X27158Y-21524D01*
X27157Y-21625D01*
X27174Y-21664D01*
X27140Y-21678D01*
X27102Y-21716D01*
X27049Y-21663D01*
X26955Y-21625D01*
X26854Y-21624D01*
X26760Y-21663D01*
X26689Y-21735D01*
X26660Y-21735D01*
X26694Y-21650D01*
X26695Y-21549D01*
X26656Y-21455D01*
X26584Y-21383D01*
X26490Y-21345D01*
X26389Y-21344D01*
X26335Y-21367D01*
X26335Y-21360D01*
X26732Y-20962D01*
X26763Y-20915D01*
X26763Y-20915D01*
X26765Y-20906D01*
X26774Y-20860D01*
X26775Y-20860D01*
X26775Y-20390D01*
X26778Y-20399D01*
X26850Y-20470D01*
X26850Y-20493D01*
X26859Y-20539D01*
X26861Y-20548D01*
X26892Y-20595D01*
X27960Y-21663D01*
X27960Y-22735D01*
X27960Y-22735D01*
G37*
G54D28*
X27960Y-22735D02*
X27869Y-22698D01*
X27834Y-22698D01*
X27834Y-22290D01*
X27795Y-22196D01*
X27723Y-22124D01*
X27629Y-22086D01*
X27528Y-22085D01*
X27434Y-22124D01*
X27362Y-22196D01*
X27324Y-22290D01*
X27323Y-22391D01*
X27362Y-22485D01*
X27434Y-22557D01*
X27528Y-22595D01*
X27629Y-22596D01*
X27723Y-22557D01*
X27795Y-22485D01*
X27833Y-22391D01*
X27834Y-22290D01*
X27834Y-22698D01*
X27768Y-22697D01*
X27674Y-22736D01*
X27602Y-22808D01*
X27564Y-22902D01*
X27563Y-23003D01*
X27602Y-23097D01*
X27674Y-23169D01*
X27768Y-23207D01*
X27869Y-23208D01*
X27873Y-23206D01*
X27182Y-23897D01*
X27151Y-23944D01*
X27149Y-23953D01*
X27140Y-24000D01*
X27140Y-24754D01*
X27129Y-24743D01*
X27035Y-24705D01*
X27009Y-24705D01*
X27009Y-23889D01*
X26970Y-23795D01*
X26898Y-23723D01*
X26804Y-23685D01*
X26703Y-23684D01*
X26609Y-23723D01*
X26537Y-23795D01*
X26499Y-23889D01*
X26498Y-23990D01*
X26537Y-24084D01*
X26609Y-24156D01*
X26703Y-24194D01*
X26804Y-24195D01*
X26898Y-24156D01*
X26970Y-24084D01*
X27008Y-23990D01*
X27009Y-23889D01*
X27009Y-24705D01*
X26934Y-24704D01*
X26840Y-24743D01*
X26768Y-24815D01*
X26730Y-24909D01*
X26729Y-25010D01*
X26768Y-25104D01*
X26840Y-25176D01*
X26934Y-25214D01*
X26943Y-25214D01*
X26885Y-25238D01*
X26813Y-25310D01*
X26793Y-25359D01*
X26693Y-25259D01*
X26726Y-25178D01*
X26727Y-25077D01*
X26688Y-24983D01*
X26622Y-24917D01*
X26656Y-24834D01*
X26657Y-24733D01*
X26618Y-24639D01*
X26546Y-24567D01*
X26453Y-24529D01*
X26457Y-24507D01*
X26458Y-24507D01*
X26458Y-23488D01*
X26503Y-23506D01*
X26604Y-23507D01*
X26698Y-23468D01*
X26770Y-23396D01*
X26808Y-23302D01*
X26809Y-23201D01*
X26770Y-23107D01*
X26698Y-23035D01*
X26640Y-23011D01*
X27052Y-23011D01*
X27094Y-22994D01*
X27126Y-22961D01*
X27144Y-22919D01*
X27144Y-22873D01*
X27144Y-22112D01*
X27234Y-22149D01*
X27335Y-22150D01*
X27429Y-22111D01*
X27501Y-22039D01*
X27539Y-21945D01*
X27540Y-21844D01*
X27523Y-21805D01*
X27557Y-21791D01*
X27629Y-21719D01*
X27667Y-21625D01*
X27668Y-21524D01*
X27629Y-21430D01*
X27557Y-21358D01*
X27463Y-21320D01*
X27362Y-21319D01*
X27268Y-21358D01*
X27196Y-21430D01*
X27158Y-21524D01*
X27157Y-21625D01*
X27174Y-21664D01*
X27140Y-21678D01*
X27102Y-21716D01*
X27049Y-21663D01*
X26955Y-21625D01*
X26854Y-21624D01*
X26760Y-21663D01*
X26689Y-21735D01*
X26660Y-21735D01*
X26694Y-21650D01*
X26695Y-21549D01*
X26656Y-21455D01*
X26584Y-21383D01*
X26490Y-21345D01*
X26389Y-21344D01*
X26335Y-21367D01*
X26335Y-21360D01*
X26732Y-20962D01*
X26763Y-20915D01*
X26763Y-20915D01*
X26765Y-20906D01*
X26774Y-20860D01*
X26775Y-20860D01*
X26775Y-20390D01*
X26778Y-20399D01*
X26850Y-20470D01*
X26850Y-20493D01*
X26859Y-20539D01*
X26861Y-20548D01*
X26892Y-20595D01*
X27960Y-21663D01*
X27960Y-22735D01*
G54D10*
G36*
X28682Y-36557D02*
X28520Y-36719D01*
X28489Y-36766D01*
X28487Y-36775D01*
X28478Y-36822D01*
X28478Y-37594D01*
X28215Y-37857D01*
X28115Y-37856D01*
X28091Y-37866D01*
X28091Y-37725D01*
X28080Y-37698D01*
X28091Y-37672D01*
X28091Y-37627D01*
X28091Y-37425D01*
X28139Y-37425D01*
X28139Y-37424D01*
X28185Y-37415D01*
X28194Y-37413D01*
X28194Y-37413D01*
X28241Y-37382D01*
X28290Y-37333D01*
X28298Y-37322D01*
X28317Y-37322D01*
X28359Y-37304D01*
X28391Y-37272D01*
X28409Y-37229D01*
X28409Y-37184D01*
X28409Y-36967D01*
X28398Y-36940D01*
X28409Y-36914D01*
X28409Y-36869D01*
X28409Y-36652D01*
X28391Y-36609D01*
X28359Y-36577D01*
X28317Y-36560D01*
X28271Y-36560D01*
X28058Y-36560D01*
X28016Y-36577D01*
X27984Y-36609D01*
X27966Y-36652D01*
X27966Y-36697D01*
X27966Y-36722D01*
X27684Y-37004D01*
X27662Y-37004D01*
X27660Y-37002D01*
X27618Y-36985D01*
X27572Y-36985D01*
X27532Y-36985D01*
X27532Y-36862D01*
X27532Y-36816D01*
X27532Y-36781D01*
X27532Y-36684D01*
X27532Y-36649D01*
X27532Y-36603D01*
X27514Y-36561D01*
X27482Y-36529D01*
X27439Y-36511D01*
X27357Y-36511D01*
X27328Y-36540D01*
X27328Y-36713D01*
X27503Y-36713D01*
X27532Y-36684D01*
X27532Y-36781D01*
X27503Y-36753D01*
X27328Y-36753D01*
X27328Y-36925D01*
X27357Y-36954D01*
X27439Y-36954D01*
X27482Y-36936D01*
X27514Y-36904D01*
X27532Y-36862D01*
X27532Y-36985D01*
X27375Y-36985D01*
X27368Y-36988D01*
X27353Y-36973D01*
X27311Y-36955D01*
X27171Y-36955D01*
X27143Y-36984D01*
X27143Y-37523D01*
X27150Y-37523D01*
X27150Y-37563D01*
X27143Y-37563D01*
X27143Y-38101D01*
X27171Y-38130D01*
X27311Y-38130D01*
X27352Y-38113D01*
X27352Y-38152D01*
X27345Y-38159D01*
X27328Y-38201D01*
X27328Y-38247D01*
X27328Y-38460D01*
X27345Y-38502D01*
X27377Y-38534D01*
X27420Y-38552D01*
X27430Y-38552D01*
X27392Y-38568D01*
X27384Y-38576D01*
X26938Y-38130D01*
X27074Y-38130D01*
X27103Y-38101D01*
X27103Y-37563D01*
X26933Y-37563D01*
X26871Y-37563D01*
X26768Y-37563D01*
X26768Y-37570D01*
X26728Y-37570D01*
X26728Y-37563D01*
X26721Y-37563D01*
X26721Y-37523D01*
X26728Y-37523D01*
X26728Y-37515D01*
X26768Y-37515D01*
X26768Y-37523D01*
X26871Y-37523D01*
X26933Y-37523D01*
X27103Y-37523D01*
X27103Y-36984D01*
X27074Y-36955D01*
X26934Y-36955D01*
X26892Y-36973D01*
X26890Y-36974D01*
X26886Y-36954D01*
X26907Y-36954D01*
X27124Y-36954D01*
X27151Y-36943D01*
X27177Y-36954D01*
X27259Y-36954D01*
X27288Y-36925D01*
X27288Y-36753D01*
X27280Y-36753D01*
X27280Y-36713D01*
X27288Y-36713D01*
X27288Y-36540D01*
X27273Y-36524D01*
X27294Y-36516D01*
X27370Y-36440D01*
X27392Y-36388D01*
X27412Y-36439D01*
X27488Y-36515D01*
X27588Y-36556D01*
X27695Y-36557D01*
X27794Y-36516D01*
X27870Y-36440D01*
X27892Y-36388D01*
X27912Y-36439D01*
X27988Y-36515D01*
X28088Y-36556D01*
X28195Y-36557D01*
X28294Y-36516D01*
X28370Y-36440D01*
X28392Y-36388D01*
X28412Y-36439D01*
X28488Y-36515D01*
X28588Y-36556D01*
X28682Y-36557D01*
X28682Y-36557D01*
G37*
G54D28*
X28682Y-36557D02*
X28520Y-36719D01*
X28489Y-36766D01*
X28487Y-36775D01*
X28478Y-36822D01*
X28478Y-37594D01*
X28215Y-37857D01*
X28115Y-37856D01*
X28091Y-37866D01*
X28091Y-37725D01*
X28080Y-37698D01*
X28091Y-37672D01*
X28091Y-37627D01*
X28091Y-37425D01*
X28139Y-37425D01*
X28139Y-37424D01*
X28185Y-37415D01*
X28194Y-37413D01*
X28194Y-37413D01*
X28241Y-37382D01*
X28290Y-37333D01*
X28298Y-37322D01*
X28317Y-37322D01*
X28359Y-37304D01*
X28391Y-37272D01*
X28409Y-37229D01*
X28409Y-37184D01*
X28409Y-36967D01*
X28398Y-36940D01*
X28409Y-36914D01*
X28409Y-36869D01*
X28409Y-36652D01*
X28391Y-36609D01*
X28359Y-36577D01*
X28317Y-36560D01*
X28271Y-36560D01*
X28058Y-36560D01*
X28016Y-36577D01*
X27984Y-36609D01*
X27966Y-36652D01*
X27966Y-36697D01*
X27966Y-36722D01*
X27684Y-37004D01*
X27662Y-37004D01*
X27660Y-37002D01*
X27618Y-36985D01*
X27572Y-36985D01*
X27532Y-36985D01*
X27532Y-36862D01*
X27532Y-36816D01*
X27532Y-36781D01*
X27532Y-36684D01*
X27532Y-36649D01*
X27532Y-36603D01*
X27514Y-36561D01*
X27482Y-36529D01*
X27439Y-36511D01*
X27357Y-36511D01*
X27328Y-36540D01*
X27328Y-36713D01*
X27503Y-36713D01*
X27532Y-36684D01*
X27532Y-36781D01*
X27503Y-36753D01*
X27328Y-36753D01*
X27328Y-36925D01*
X27357Y-36954D01*
X27439Y-36954D01*
X27482Y-36936D01*
X27514Y-36904D01*
X27532Y-36862D01*
X27532Y-36985D01*
X27375Y-36985D01*
X27368Y-36988D01*
X27353Y-36973D01*
X27311Y-36955D01*
X27171Y-36955D01*
X27143Y-36984D01*
X27143Y-37523D01*
X27150Y-37523D01*
X27150Y-37563D01*
X27143Y-37563D01*
X27143Y-38101D01*
X27171Y-38130D01*
X27311Y-38130D01*
X27352Y-38113D01*
X27352Y-38152D01*
X27345Y-38159D01*
X27328Y-38201D01*
X27328Y-38247D01*
X27328Y-38460D01*
X27345Y-38502D01*
X27377Y-38534D01*
X27420Y-38552D01*
X27430Y-38552D01*
X27392Y-38568D01*
X27384Y-38576D01*
X26938Y-38130D01*
X27074Y-38130D01*
X27103Y-38101D01*
X27103Y-37563D01*
X26933Y-37563D01*
X26871Y-37563D01*
X26768Y-37563D01*
X26768Y-37570D01*
X26728Y-37570D01*
X26728Y-37563D01*
X26721Y-37563D01*
X26721Y-37523D01*
X26728Y-37523D01*
X26728Y-37515D01*
X26768Y-37515D01*
X26768Y-37523D01*
X26871Y-37523D01*
X26933Y-37523D01*
X27103Y-37523D01*
X27103Y-36984D01*
X27074Y-36955D01*
X26934Y-36955D01*
X26892Y-36973D01*
X26890Y-36974D01*
X26886Y-36954D01*
X26907Y-36954D01*
X27124Y-36954D01*
X27151Y-36943D01*
X27177Y-36954D01*
X27259Y-36954D01*
X27288Y-36925D01*
X27288Y-36753D01*
X27280Y-36753D01*
X27280Y-36713D01*
X27288Y-36713D01*
X27288Y-36540D01*
X27273Y-36524D01*
X27294Y-36516D01*
X27370Y-36440D01*
X27392Y-36388D01*
X27412Y-36439D01*
X27488Y-36515D01*
X27588Y-36556D01*
X27695Y-36557D01*
X27794Y-36516D01*
X27870Y-36440D01*
X27892Y-36388D01*
X27912Y-36439D01*
X27988Y-36515D01*
X28088Y-36556D01*
X28195Y-36557D01*
X28294Y-36516D01*
X28370Y-36440D01*
X28392Y-36388D01*
X28412Y-36439D01*
X28488Y-36515D01*
X28588Y-36556D01*
X28682Y-36557D01*
G54D10*
G36*
X29714Y-26776D02*
X29507Y-26983D01*
X29476Y-27030D01*
X29474Y-27039D01*
X29468Y-27067D01*
X29384Y-27033D01*
X29283Y-27032D01*
X29189Y-27071D01*
X29117Y-27143D01*
X29079Y-27237D01*
X29078Y-27338D01*
X29117Y-27432D01*
X29189Y-27504D01*
X29283Y-27542D01*
X29384Y-27543D01*
X29465Y-27509D01*
X29465Y-28015D01*
X28497Y-28983D01*
X28470Y-29024D01*
X28449Y-28975D01*
X28375Y-28900D01*
X28277Y-28860D01*
X28172Y-28859D01*
X28075Y-28900D01*
X28000Y-28974D01*
X27960Y-29072D01*
X27959Y-29177D01*
X28000Y-29274D01*
X28074Y-29349D01*
X28172Y-29389D01*
X28277Y-29390D01*
X28374Y-29349D01*
X28449Y-29275D01*
X28455Y-29262D01*
X28455Y-29267D01*
X28455Y-32540D01*
X28464Y-32586D01*
X28466Y-32595D01*
X28497Y-32642D01*
X28747Y-32892D01*
X28747Y-32892D01*
X29080Y-33225D01*
X29080Y-33302D01*
X29012Y-33234D01*
X28918Y-33196D01*
X28817Y-33195D01*
X28723Y-33234D01*
X28651Y-33306D01*
X28613Y-33400D01*
X28612Y-33501D01*
X28619Y-33516D01*
X28588Y-33516D01*
X28489Y-33557D01*
X28413Y-33633D01*
X28391Y-33685D01*
X28371Y-33634D01*
X28295Y-33558D01*
X28243Y-33536D01*
X28294Y-33516D01*
X28370Y-33440D01*
X28411Y-33340D01*
X28412Y-33233D01*
X28371Y-33134D01*
X28295Y-33058D01*
X28243Y-33036D01*
X28294Y-33016D01*
X28370Y-32940D01*
X28411Y-32840D01*
X28412Y-32733D01*
X28371Y-32634D01*
X28295Y-32558D01*
X28243Y-32536D01*
X28294Y-32516D01*
X28370Y-32440D01*
X28411Y-32340D01*
X28412Y-32233D01*
X28371Y-32134D01*
X28295Y-32058D01*
X28243Y-32036D01*
X28294Y-32016D01*
X28370Y-31940D01*
X28411Y-31840D01*
X28412Y-31733D01*
X28371Y-31634D01*
X28295Y-31558D01*
X28243Y-31536D01*
X28294Y-31516D01*
X28370Y-31440D01*
X28411Y-31340D01*
X28412Y-31233D01*
X28371Y-31134D01*
X28295Y-31058D01*
X28243Y-31036D01*
X28294Y-31016D01*
X28370Y-30940D01*
X28411Y-30840D01*
X28412Y-30733D01*
X28371Y-30634D01*
X28295Y-30558D01*
X28243Y-30536D01*
X28294Y-30516D01*
X28370Y-30440D01*
X28411Y-30340D01*
X28412Y-30233D01*
X28371Y-30134D01*
X28295Y-30058D01*
X28243Y-30036D01*
X28294Y-30016D01*
X28370Y-29940D01*
X28411Y-29840D01*
X28412Y-29733D01*
X28371Y-29634D01*
X28295Y-29558D01*
X28195Y-29517D01*
X28088Y-29516D01*
X27989Y-29557D01*
X27913Y-29633D01*
X27891Y-29685D01*
X27871Y-29634D01*
X27795Y-29558D01*
X27740Y-29535D01*
X27740Y-29072D01*
X27699Y-28975D01*
X27625Y-28900D01*
X27527Y-28860D01*
X27422Y-28859D01*
X27325Y-28900D01*
X27250Y-28974D01*
X27210Y-29072D01*
X27209Y-29177D01*
X27250Y-29274D01*
X27324Y-29349D01*
X27422Y-29389D01*
X27527Y-29390D01*
X27624Y-29349D01*
X27699Y-29275D01*
X27739Y-29177D01*
X27740Y-29072D01*
X27740Y-29535D01*
X27695Y-29517D01*
X27588Y-29516D01*
X27489Y-29557D01*
X27413Y-29633D01*
X27391Y-29685D01*
X27371Y-29634D01*
X27295Y-29558D01*
X27195Y-29517D01*
X27088Y-29516D01*
X26989Y-29557D01*
X26913Y-29633D01*
X26891Y-29685D01*
X26871Y-29634D01*
X26795Y-29558D01*
X26695Y-29517D01*
X26588Y-29516D01*
X26489Y-29557D01*
X26413Y-29633D01*
X26372Y-29733D01*
X26371Y-29840D01*
X26412Y-29939D01*
X26488Y-30015D01*
X26540Y-30037D01*
X26489Y-30057D01*
X26413Y-30133D01*
X26372Y-30233D01*
X26371Y-30340D01*
X26412Y-30439D01*
X26488Y-30515D01*
X26540Y-30537D01*
X26489Y-30557D01*
X26413Y-30633D01*
X26372Y-30733D01*
X26371Y-30840D01*
X26412Y-30939D01*
X26488Y-31015D01*
X26540Y-31037D01*
X26489Y-31057D01*
X26413Y-31133D01*
X26372Y-31233D01*
X26371Y-31340D01*
X26412Y-31439D01*
X26488Y-31515D01*
X26540Y-31537D01*
X26489Y-31557D01*
X26413Y-31633D01*
X26372Y-31733D01*
X26371Y-31840D01*
X26412Y-31939D01*
X26488Y-32015D01*
X26540Y-32037D01*
X26489Y-32057D01*
X26413Y-32133D01*
X26372Y-32233D01*
X26371Y-32340D01*
X26412Y-32439D01*
X26488Y-32515D01*
X26540Y-32537D01*
X26489Y-32557D01*
X26413Y-32633D01*
X26372Y-32733D01*
X26371Y-32840D01*
X26412Y-32939D01*
X26488Y-33015D01*
X26540Y-33037D01*
X26489Y-33057D01*
X26413Y-33133D01*
X26372Y-33233D01*
X26371Y-33340D01*
X26412Y-33439D01*
X26488Y-33515D01*
X26540Y-33537D01*
X26489Y-33557D01*
X26413Y-33633D01*
X26372Y-33733D01*
X26371Y-33840D01*
X26412Y-33939D01*
X26488Y-34015D01*
X26540Y-34037D01*
X26489Y-34057D01*
X26413Y-34133D01*
X26372Y-34233D01*
X26371Y-34340D01*
X26412Y-34439D01*
X26488Y-34515D01*
X26540Y-34537D01*
X26489Y-34557D01*
X26413Y-34633D01*
X26372Y-34733D01*
X26371Y-34840D01*
X26412Y-34939D01*
X26488Y-35015D01*
X26540Y-35037D01*
X26489Y-35057D01*
X26413Y-35133D01*
X26372Y-35233D01*
X26371Y-35340D01*
X26412Y-35439D01*
X26488Y-35515D01*
X26540Y-35537D01*
X26489Y-35557D01*
X26413Y-35633D01*
X26372Y-35733D01*
X26371Y-35840D01*
X26412Y-35939D01*
X26488Y-36015D01*
X26540Y-36037D01*
X26489Y-36057D01*
X26413Y-36133D01*
X26372Y-36233D01*
X26371Y-36340D01*
X26412Y-36439D01*
X26488Y-36515D01*
X26471Y-36522D01*
X26445Y-36511D01*
X26400Y-36511D01*
X26183Y-36511D01*
X26140Y-36529D01*
X26108Y-36561D01*
X26091Y-36603D01*
X26091Y-36649D01*
X26091Y-36862D01*
X26101Y-36887D01*
X26096Y-36887D01*
X26054Y-36904D01*
X26022Y-36936D01*
X26004Y-36979D01*
X26004Y-37061D01*
X26033Y-37090D01*
X26206Y-37090D01*
X26206Y-37082D01*
X26246Y-37082D01*
X26246Y-37090D01*
X26253Y-37090D01*
X26253Y-37130D01*
X26246Y-37130D01*
X26246Y-37138D01*
X26206Y-37138D01*
X26206Y-37130D01*
X26033Y-37130D01*
X26004Y-37159D01*
X26004Y-37241D01*
X26015Y-37268D01*
X26004Y-37294D01*
X26004Y-37339D01*
X26004Y-37556D01*
X26022Y-37599D01*
X26054Y-37631D01*
X26096Y-37649D01*
X26142Y-37649D01*
X26326Y-37649D01*
X26520Y-37842D01*
X26520Y-37842D01*
X26539Y-37855D01*
X26535Y-37864D01*
X26535Y-37910D01*
X26535Y-38008D01*
X26553Y-38051D01*
X26585Y-38083D01*
X26603Y-38091D01*
X26603Y-38145D01*
X26613Y-38192D01*
X26615Y-38201D01*
X26646Y-38248D01*
X27257Y-38859D01*
X27257Y-38894D01*
X27301Y-39001D01*
X27263Y-39001D01*
X27114Y-38852D01*
X27067Y-38821D01*
X27058Y-38819D01*
X27012Y-38810D01*
X26144Y-38810D01*
X26144Y-38789D01*
X26132Y-38761D01*
X26272Y-38703D01*
X26434Y-38542D01*
X26521Y-38330D01*
X26522Y-38102D01*
X26434Y-37890D01*
X26273Y-37728D01*
X26061Y-37641D01*
X25833Y-37640D01*
X25832Y-37641D01*
X25848Y-37602D01*
X25848Y-37557D01*
X25848Y-37332D01*
X25941Y-37238D01*
X25941Y-37238D01*
X25972Y-37191D01*
X25984Y-37136D01*
X25984Y-36573D01*
X25972Y-36517D01*
X25972Y-36517D01*
X25941Y-36470D01*
X25849Y-36377D01*
X25849Y-36334D01*
X25849Y-36169D01*
X25849Y-29271D01*
X26104Y-29016D01*
X26483Y-29016D01*
X26460Y-29072D01*
X26459Y-29177D01*
X26500Y-29274D01*
X26574Y-29349D01*
X26672Y-29389D01*
X26777Y-29390D01*
X26874Y-29349D01*
X26949Y-29275D01*
X26989Y-29177D01*
X26990Y-29072D01*
X26949Y-28975D01*
X26908Y-28934D01*
X28074Y-27768D01*
X28074Y-27768D01*
X28079Y-27761D01*
X28097Y-27780D01*
X28191Y-27818D01*
X28292Y-27819D01*
X28386Y-27780D01*
X28458Y-27708D01*
X28496Y-27614D01*
X28497Y-27514D01*
X29235Y-26776D01*
X29426Y-26776D01*
X29714Y-26776D01*
X29714Y-26776D01*
G37*
G54D28*
X29714Y-26776D02*
X29507Y-26983D01*
X29476Y-27030D01*
X29474Y-27039D01*
X29468Y-27067D01*
X29384Y-27033D01*
X29283Y-27032D01*
X29189Y-27071D01*
X29117Y-27143D01*
X29079Y-27237D01*
X29078Y-27338D01*
X29117Y-27432D01*
X29189Y-27504D01*
X29283Y-27542D01*
X29384Y-27543D01*
X29465Y-27509D01*
X29465Y-28015D01*
X28497Y-28983D01*
X28470Y-29024D01*
X28449Y-28975D01*
X28375Y-28900D01*
X28277Y-28860D01*
X28172Y-28859D01*
X28075Y-28900D01*
X28000Y-28974D01*
X27960Y-29072D01*
X27959Y-29177D01*
X28000Y-29274D01*
X28074Y-29349D01*
X28172Y-29389D01*
X28277Y-29390D01*
X28374Y-29349D01*
X28449Y-29275D01*
X28455Y-29262D01*
X28455Y-29267D01*
X28455Y-32540D01*
X28464Y-32586D01*
X28466Y-32595D01*
X28497Y-32642D01*
X28747Y-32892D01*
X28747Y-32892D01*
X29080Y-33225D01*
X29080Y-33302D01*
X29012Y-33234D01*
X28918Y-33196D01*
X28817Y-33195D01*
X28723Y-33234D01*
X28651Y-33306D01*
X28613Y-33400D01*
X28612Y-33501D01*
X28619Y-33516D01*
X28588Y-33516D01*
X28489Y-33557D01*
X28413Y-33633D01*
X28391Y-33685D01*
X28371Y-33634D01*
X28295Y-33558D01*
X28243Y-33536D01*
X28294Y-33516D01*
X28370Y-33440D01*
X28411Y-33340D01*
X28412Y-33233D01*
X28371Y-33134D01*
X28295Y-33058D01*
X28243Y-33036D01*
X28294Y-33016D01*
X28370Y-32940D01*
X28411Y-32840D01*
X28412Y-32733D01*
X28371Y-32634D01*
X28295Y-32558D01*
X28243Y-32536D01*
X28294Y-32516D01*
X28370Y-32440D01*
X28411Y-32340D01*
X28412Y-32233D01*
X28371Y-32134D01*
X28295Y-32058D01*
X28243Y-32036D01*
X28294Y-32016D01*
X28370Y-31940D01*
X28411Y-31840D01*
X28412Y-31733D01*
X28371Y-31634D01*
X28295Y-31558D01*
X28243Y-31536D01*
X28294Y-31516D01*
X28370Y-31440D01*
X28411Y-31340D01*
X28412Y-31233D01*
X28371Y-31134D01*
X28295Y-31058D01*
X28243Y-31036D01*
X28294Y-31016D01*
X28370Y-30940D01*
X28411Y-30840D01*
X28412Y-30733D01*
X28371Y-30634D01*
X28295Y-30558D01*
X28243Y-30536D01*
X28294Y-30516D01*
X28370Y-30440D01*
X28411Y-30340D01*
X28412Y-30233D01*
X28371Y-30134D01*
X28295Y-30058D01*
X28243Y-30036D01*
X28294Y-30016D01*
X28370Y-29940D01*
X28411Y-29840D01*
X28412Y-29733D01*
X28371Y-29634D01*
X28295Y-29558D01*
X28195Y-29517D01*
X28088Y-29516D01*
X27989Y-29557D01*
X27913Y-29633D01*
X27891Y-29685D01*
X27871Y-29634D01*
X27795Y-29558D01*
X27740Y-29535D01*
X27740Y-29072D01*
X27699Y-28975D01*
X27625Y-28900D01*
X27527Y-28860D01*
X27422Y-28859D01*
X27325Y-28900D01*
X27250Y-28974D01*
X27210Y-29072D01*
X27209Y-29177D01*
X27250Y-29274D01*
X27324Y-29349D01*
X27422Y-29389D01*
X27527Y-29390D01*
X27624Y-29349D01*
X27699Y-29275D01*
X27739Y-29177D01*
X27740Y-29072D01*
X27740Y-29535D01*
X27695Y-29517D01*
X27588Y-29516D01*
X27489Y-29557D01*
X27413Y-29633D01*
X27391Y-29685D01*
X27371Y-29634D01*
X27295Y-29558D01*
X27195Y-29517D01*
X27088Y-29516D01*
X26989Y-29557D01*
X26913Y-29633D01*
X26891Y-29685D01*
X26871Y-29634D01*
X26795Y-29558D01*
X26695Y-29517D01*
X26588Y-29516D01*
X26489Y-29557D01*
X26413Y-29633D01*
X26372Y-29733D01*
X26371Y-29840D01*
X26412Y-29939D01*
X26488Y-30015D01*
X26540Y-30037D01*
X26489Y-30057D01*
X26413Y-30133D01*
X26372Y-30233D01*
X26371Y-30340D01*
X26412Y-30439D01*
X26488Y-30515D01*
X26540Y-30537D01*
X26489Y-30557D01*
X26413Y-30633D01*
X26372Y-30733D01*
X26371Y-30840D01*
X26412Y-30939D01*
X26488Y-31015D01*
X26540Y-31037D01*
X26489Y-31057D01*
X26413Y-31133D01*
X26372Y-31233D01*
X26371Y-31340D01*
X26412Y-31439D01*
X26488Y-31515D01*
X26540Y-31537D01*
X26489Y-31557D01*
X26413Y-31633D01*
X26372Y-31733D01*
X26371Y-31840D01*
X26412Y-31939D01*
X26488Y-32015D01*
X26540Y-32037D01*
X26489Y-32057D01*
X26413Y-32133D01*
X26372Y-32233D01*
X26371Y-32340D01*
X26412Y-32439D01*
X26488Y-32515D01*
X26540Y-32537D01*
X26489Y-32557D01*
X26413Y-32633D01*
X26372Y-32733D01*
X26371Y-32840D01*
X26412Y-32939D01*
X26488Y-33015D01*
X26540Y-33037D01*
X26489Y-33057D01*
X26413Y-33133D01*
X26372Y-33233D01*
X26371Y-33340D01*
X26412Y-33439D01*
X26488Y-33515D01*
X26540Y-33537D01*
X26489Y-33557D01*
X26413Y-33633D01*
X26372Y-33733D01*
X26371Y-33840D01*
X26412Y-33939D01*
X26488Y-34015D01*
X26540Y-34037D01*
X26489Y-34057D01*
X26413Y-34133D01*
X26372Y-34233D01*
X26371Y-34340D01*
X26412Y-34439D01*
X26488Y-34515D01*
X26540Y-34537D01*
X26489Y-34557D01*
X26413Y-34633D01*
X26372Y-34733D01*
X26371Y-34840D01*
X26412Y-34939D01*
X26488Y-35015D01*
X26540Y-35037D01*
X26489Y-35057D01*
X26413Y-35133D01*
X26372Y-35233D01*
X26371Y-35340D01*
X26412Y-35439D01*
X26488Y-35515D01*
X26540Y-35537D01*
X26489Y-35557D01*
X26413Y-35633D01*
X26372Y-35733D01*
X26371Y-35840D01*
X26412Y-35939D01*
X26488Y-36015D01*
X26540Y-36037D01*
X26489Y-36057D01*
X26413Y-36133D01*
X26372Y-36233D01*
X26371Y-36340D01*
X26412Y-36439D01*
X26488Y-36515D01*
X26471Y-36522D01*
X26445Y-36511D01*
X26400Y-36511D01*
X26183Y-36511D01*
X26140Y-36529D01*
X26108Y-36561D01*
X26091Y-36603D01*
X26091Y-36649D01*
X26091Y-36862D01*
X26101Y-36887D01*
X26096Y-36887D01*
X26054Y-36904D01*
X26022Y-36936D01*
X26004Y-36979D01*
X26004Y-37061D01*
X26033Y-37090D01*
X26206Y-37090D01*
X26206Y-37082D01*
X26246Y-37082D01*
X26246Y-37090D01*
X26253Y-37090D01*
X26253Y-37130D01*
X26246Y-37130D01*
X26246Y-37138D01*
X26206Y-37138D01*
X26206Y-37130D01*
X26033Y-37130D01*
X26004Y-37159D01*
X26004Y-37241D01*
X26015Y-37268D01*
X26004Y-37294D01*
X26004Y-37339D01*
X26004Y-37556D01*
X26022Y-37599D01*
X26054Y-37631D01*
X26096Y-37649D01*
X26142Y-37649D01*
X26326Y-37649D01*
X26520Y-37842D01*
X26520Y-37842D01*
X26539Y-37855D01*
X26535Y-37864D01*
X26535Y-37910D01*
X26535Y-38008D01*
X26553Y-38051D01*
X26585Y-38083D01*
X26603Y-38091D01*
X26603Y-38145D01*
X26613Y-38192D01*
X26615Y-38201D01*
X26646Y-38248D01*
X27257Y-38859D01*
X27257Y-38894D01*
X27301Y-39001D01*
X27263Y-39001D01*
X27114Y-38852D01*
X27067Y-38821D01*
X27058Y-38819D01*
X27012Y-38810D01*
X26144Y-38810D01*
X26144Y-38789D01*
X26132Y-38761D01*
X26272Y-38703D01*
X26434Y-38542D01*
X26521Y-38330D01*
X26522Y-38102D01*
X26434Y-37890D01*
X26273Y-37728D01*
X26061Y-37641D01*
X25833Y-37640D01*
X25832Y-37641D01*
X25848Y-37602D01*
X25848Y-37557D01*
X25848Y-37332D01*
X25941Y-37238D01*
X25941Y-37238D01*
X25972Y-37191D01*
X25984Y-37136D01*
X25984Y-36573D01*
X25972Y-36517D01*
X25972Y-36517D01*
X25941Y-36470D01*
X25849Y-36377D01*
X25849Y-36334D01*
X25849Y-36169D01*
X25849Y-29271D01*
X26104Y-29016D01*
X26483Y-29016D01*
X26460Y-29072D01*
X26459Y-29177D01*
X26500Y-29274D01*
X26574Y-29349D01*
X26672Y-29389D01*
X26777Y-29390D01*
X26874Y-29349D01*
X26949Y-29275D01*
X26989Y-29177D01*
X26990Y-29072D01*
X26949Y-28975D01*
X26908Y-28934D01*
X28074Y-27768D01*
X28074Y-27768D01*
X28079Y-27761D01*
X28097Y-27780D01*
X28191Y-27818D01*
X28292Y-27819D01*
X28386Y-27780D01*
X28458Y-27708D01*
X28496Y-27614D01*
X28497Y-27514D01*
X29235Y-26776D01*
X29426Y-26776D01*
X29714Y-26776D01*
G54D10*
G36*
X30383Y-24761D02*
X30239Y-24905D01*
X30208Y-24952D01*
X30206Y-24961D01*
X30197Y-25008D01*
X30197Y-26046D01*
X29757Y-26486D01*
X29426Y-26486D01*
X29175Y-26486D01*
X29119Y-26497D01*
X29072Y-26528D01*
X28467Y-27133D01*
X28437Y-27060D01*
X28365Y-26988D01*
X28271Y-26950D01*
X28170Y-26949D01*
X28076Y-26988D01*
X28027Y-27037D01*
X28004Y-27013D01*
X27910Y-26975D01*
X27809Y-26974D01*
X27715Y-27013D01*
X27665Y-27064D01*
X27656Y-27055D01*
X27562Y-27017D01*
X27510Y-27016D01*
X27570Y-26957D01*
X27608Y-26863D01*
X27609Y-26762D01*
X27570Y-26668D01*
X27498Y-26596D01*
X27404Y-26558D01*
X27303Y-26557D01*
X27230Y-26588D01*
X27215Y-26552D01*
X27143Y-26480D01*
X27049Y-26442D01*
X26948Y-26441D01*
X26854Y-26480D01*
X26782Y-26552D01*
X26744Y-26646D01*
X26743Y-26747D01*
X26782Y-26841D01*
X26854Y-26912D01*
X26854Y-28227D01*
X26701Y-28380D01*
X26653Y-28380D01*
X26653Y-26814D01*
X26652Y-26812D01*
X26652Y-26070D01*
X26613Y-25976D01*
X26541Y-25904D01*
X26447Y-25866D01*
X26346Y-25865D01*
X26252Y-25904D01*
X26180Y-25976D01*
X26142Y-26070D01*
X26141Y-26171D01*
X26180Y-26265D01*
X26252Y-26337D01*
X26346Y-26375D01*
X26447Y-26376D01*
X26541Y-26337D01*
X26613Y-26265D01*
X26651Y-26171D01*
X26652Y-26070D01*
X26652Y-26812D01*
X26614Y-26720D01*
X26542Y-26648D01*
X26448Y-26610D01*
X26347Y-26609D01*
X26253Y-26648D01*
X26181Y-26720D01*
X26143Y-26814D01*
X26142Y-26915D01*
X26181Y-27009D01*
X26253Y-27081D01*
X26347Y-27119D01*
X26448Y-27120D01*
X26542Y-27081D01*
X26614Y-27009D01*
X26652Y-26915D01*
X26653Y-26814D01*
X26653Y-28380D01*
X26601Y-28379D01*
X26507Y-28418D01*
X26436Y-28490D01*
X26007Y-28490D01*
X25951Y-28501D01*
X25904Y-28532D01*
X25398Y-29038D01*
X25380Y-29066D01*
X25380Y-28950D01*
X25447Y-28950D01*
X25490Y-28932D01*
X25522Y-28900D01*
X25540Y-28857D01*
X25540Y-28812D01*
X25540Y-28502D01*
X25522Y-28459D01*
X25492Y-28430D01*
X25522Y-28400D01*
X25540Y-28357D01*
X25540Y-28312D01*
X25540Y-28002D01*
X25522Y-27959D01*
X25492Y-27930D01*
X25522Y-27900D01*
X25540Y-27857D01*
X25540Y-27812D01*
X25540Y-27502D01*
X25522Y-27459D01*
X25492Y-27430D01*
X25522Y-27400D01*
X25540Y-27357D01*
X25540Y-27312D01*
X25540Y-27002D01*
X25522Y-26959D01*
X25492Y-26930D01*
X25522Y-26900D01*
X25540Y-26857D01*
X25540Y-26817D01*
X25546Y-26815D01*
X25555Y-26813D01*
X25555Y-26813D01*
X25602Y-26782D01*
X25947Y-26437D01*
X25947Y-26437D01*
X25968Y-26406D01*
X25978Y-26390D01*
X25978Y-26390D01*
X25989Y-26335D01*
X25990Y-26335D01*
X25990Y-25035D01*
X26159Y-24865D01*
X26185Y-24928D01*
X26251Y-24994D01*
X26217Y-25077D01*
X26216Y-25178D01*
X26255Y-25272D01*
X26327Y-25344D01*
X26396Y-25372D01*
X26831Y-25807D01*
X26831Y-25807D01*
X26862Y-25828D01*
X26878Y-25838D01*
X26878Y-25838D01*
X26934Y-25850D01*
X26940Y-25850D01*
X27140Y-25850D01*
X27140Y-25849D01*
X27186Y-25840D01*
X27195Y-25838D01*
X27195Y-25838D01*
X27242Y-25807D01*
X27512Y-25537D01*
X27512Y-25537D01*
X27543Y-25490D01*
X27555Y-25435D01*
X27555Y-24115D01*
X28376Y-23294D01*
X29025Y-23943D01*
X29025Y-23943D01*
X29072Y-23974D01*
X29072Y-23974D01*
X29081Y-23976D01*
X29128Y-23986D01*
X30094Y-23986D01*
X30278Y-24169D01*
X30278Y-24353D01*
X30289Y-24380D01*
X30278Y-24406D01*
X30278Y-24451D01*
X30278Y-24668D01*
X30296Y-24711D01*
X30328Y-24743D01*
X30370Y-24761D01*
X30383Y-24761D01*
X30383Y-24761D01*
G37*
G54D28*
X30383Y-24761D02*
X30239Y-24905D01*
X30208Y-24952D01*
X30206Y-24961D01*
X30197Y-25008D01*
X30197Y-26046D01*
X29757Y-26486D01*
X29426Y-26486D01*
X29175Y-26486D01*
X29119Y-26497D01*
X29072Y-26528D01*
X28467Y-27133D01*
X28437Y-27060D01*
X28365Y-26988D01*
X28271Y-26950D01*
X28170Y-26949D01*
X28076Y-26988D01*
X28027Y-27037D01*
X28004Y-27013D01*
X27910Y-26975D01*
X27809Y-26974D01*
X27715Y-27013D01*
X27665Y-27064D01*
X27656Y-27055D01*
X27562Y-27017D01*
X27510Y-27016D01*
X27570Y-26957D01*
X27608Y-26863D01*
X27609Y-26762D01*
X27570Y-26668D01*
X27498Y-26596D01*
X27404Y-26558D01*
X27303Y-26557D01*
X27230Y-26588D01*
X27215Y-26552D01*
X27143Y-26480D01*
X27049Y-26442D01*
X26948Y-26441D01*
X26854Y-26480D01*
X26782Y-26552D01*
X26744Y-26646D01*
X26743Y-26747D01*
X26782Y-26841D01*
X26854Y-26912D01*
X26854Y-28227D01*
X26701Y-28380D01*
X26653Y-28380D01*
X26653Y-26814D01*
X26652Y-26812D01*
X26652Y-26070D01*
X26613Y-25976D01*
X26541Y-25904D01*
X26447Y-25866D01*
X26346Y-25865D01*
X26252Y-25904D01*
X26180Y-25976D01*
X26142Y-26070D01*
X26141Y-26171D01*
X26180Y-26265D01*
X26252Y-26337D01*
X26346Y-26375D01*
X26447Y-26376D01*
X26541Y-26337D01*
X26613Y-26265D01*
X26651Y-26171D01*
X26652Y-26070D01*
X26652Y-26812D01*
X26614Y-26720D01*
X26542Y-26648D01*
X26448Y-26610D01*
X26347Y-26609D01*
X26253Y-26648D01*
X26181Y-26720D01*
X26143Y-26814D01*
X26142Y-26915D01*
X26181Y-27009D01*
X26253Y-27081D01*
X26347Y-27119D01*
X26448Y-27120D01*
X26542Y-27081D01*
X26614Y-27009D01*
X26652Y-26915D01*
X26653Y-26814D01*
X26653Y-28380D01*
X26601Y-28379D01*
X26507Y-28418D01*
X26436Y-28490D01*
X26007Y-28490D01*
X25951Y-28501D01*
X25904Y-28532D01*
X25398Y-29038D01*
X25380Y-29066D01*
X25380Y-28950D01*
X25447Y-28950D01*
X25490Y-28932D01*
X25522Y-28900D01*
X25540Y-28857D01*
X25540Y-28812D01*
X25540Y-28502D01*
X25522Y-28459D01*
X25492Y-28430D01*
X25522Y-28400D01*
X25540Y-28357D01*
X25540Y-28312D01*
X25540Y-28002D01*
X25522Y-27959D01*
X25492Y-27930D01*
X25522Y-27900D01*
X25540Y-27857D01*
X25540Y-27812D01*
X25540Y-27502D01*
X25522Y-27459D01*
X25492Y-27430D01*
X25522Y-27400D01*
X25540Y-27357D01*
X25540Y-27312D01*
X25540Y-27002D01*
X25522Y-26959D01*
X25492Y-26930D01*
X25522Y-26900D01*
X25540Y-26857D01*
X25540Y-26817D01*
X25546Y-26815D01*
X25555Y-26813D01*
X25555Y-26813D01*
X25602Y-26782D01*
X25947Y-26437D01*
X25947Y-26437D01*
X25968Y-26406D01*
X25978Y-26390D01*
X25978Y-26390D01*
X25989Y-26335D01*
X25990Y-26335D01*
X25990Y-25035D01*
X26159Y-24865D01*
X26185Y-24928D01*
X26251Y-24994D01*
X26217Y-25077D01*
X26216Y-25178D01*
X26255Y-25272D01*
X26327Y-25344D01*
X26396Y-25372D01*
X26831Y-25807D01*
X26831Y-25807D01*
X26862Y-25828D01*
X26878Y-25838D01*
X26878Y-25838D01*
X26934Y-25850D01*
X26940Y-25850D01*
X27140Y-25850D01*
X27140Y-25849D01*
X27186Y-25840D01*
X27195Y-25838D01*
X27195Y-25838D01*
X27242Y-25807D01*
X27512Y-25537D01*
X27512Y-25537D01*
X27543Y-25490D01*
X27555Y-25435D01*
X27555Y-24115D01*
X28376Y-23294D01*
X29025Y-23943D01*
X29025Y-23943D01*
X29072Y-23974D01*
X29072Y-23974D01*
X29081Y-23976D01*
X29128Y-23986D01*
X30094Y-23986D01*
X30278Y-24169D01*
X30278Y-24353D01*
X30289Y-24380D01*
X30278Y-24406D01*
X30278Y-24451D01*
X30278Y-24668D01*
X30296Y-24711D01*
X30328Y-24743D01*
X30370Y-24761D01*
X30383Y-24761D01*
G54D10*
G36*
X30844Y-23999D02*
X30750Y-23999D01*
X30708Y-24016D01*
X30690Y-24034D01*
X30671Y-24016D01*
X30629Y-23999D01*
X30583Y-23999D01*
X30518Y-23999D01*
X30257Y-23738D01*
X30210Y-23707D01*
X30201Y-23705D01*
X30155Y-23696D01*
X29188Y-23696D01*
X29137Y-23645D01*
X29178Y-23645D01*
X29272Y-23606D01*
X29344Y-23534D01*
X29359Y-23497D01*
X29405Y-23515D01*
X29506Y-23516D01*
X29600Y-23477D01*
X29672Y-23405D01*
X29710Y-23311D01*
X29711Y-23210D01*
X29672Y-23116D01*
X29600Y-23044D01*
X29506Y-23006D01*
X29405Y-23005D01*
X29311Y-23044D01*
X29239Y-23116D01*
X29224Y-23153D01*
X29178Y-23135D01*
X29077Y-23134D01*
X28983Y-23173D01*
X28911Y-23245D01*
X28873Y-23339D01*
X28873Y-23380D01*
X28608Y-23115D01*
X28608Y-21402D01*
X28598Y-21355D01*
X28596Y-21346D01*
X28596Y-21346D01*
X28565Y-21299D01*
X27935Y-20669D01*
X27947Y-20669D01*
X28262Y-20669D01*
X28298Y-20654D01*
X28335Y-20669D01*
X28466Y-20669D01*
X28495Y-20640D01*
X28495Y-20279D01*
X28487Y-20279D01*
X28487Y-20239D01*
X28495Y-20239D01*
X28495Y-19877D01*
X28466Y-19848D01*
X28335Y-19848D01*
X28298Y-19863D01*
X28262Y-19848D01*
X28217Y-19848D01*
X28205Y-19848D01*
X28184Y-19817D01*
X28184Y-19817D01*
X27946Y-19579D01*
X27899Y-19548D01*
X27890Y-19546D01*
X27844Y-19537D01*
X27376Y-19537D01*
X27305Y-19465D01*
X27211Y-19427D01*
X27110Y-19426D01*
X27016Y-19465D01*
X26944Y-19537D01*
X26906Y-19631D01*
X26905Y-19731D01*
X26527Y-20110D01*
X26496Y-20157D01*
X26494Y-20166D01*
X26485Y-20213D01*
X26485Y-20214D01*
X26485Y-20799D01*
X26201Y-21083D01*
X26201Y-20954D01*
X26408Y-20746D01*
X26408Y-20746D01*
X26439Y-20699D01*
X26451Y-20644D01*
X26451Y-19542D01*
X26557Y-19435D01*
X26557Y-19435D01*
X26557Y-19435D01*
X26705Y-19288D01*
X26879Y-19288D01*
X26950Y-19359D01*
X27044Y-19397D01*
X27145Y-19398D01*
X27239Y-19359D01*
X27311Y-19287D01*
X27349Y-19193D01*
X27350Y-19092D01*
X27311Y-18998D01*
X27239Y-18926D01*
X27145Y-18888D01*
X27044Y-18887D01*
X26950Y-18926D01*
X26879Y-18998D01*
X26645Y-18998D01*
X26589Y-19009D01*
X26573Y-19019D01*
X26542Y-19040D01*
X26385Y-19197D01*
X26385Y-19092D01*
X26528Y-18948D01*
X26628Y-18949D01*
X26722Y-18910D01*
X26794Y-18838D01*
X26809Y-18802D01*
X28496Y-18802D01*
X28803Y-19108D01*
X28803Y-19606D01*
X28803Y-19848D01*
X28768Y-19848D01*
X28732Y-19863D01*
X28695Y-19848D01*
X28564Y-19848D01*
X28535Y-19877D01*
X28535Y-20239D01*
X28543Y-20239D01*
X28543Y-20279D01*
X28535Y-20279D01*
X28535Y-20640D01*
X28564Y-20669D01*
X28695Y-20669D01*
X28732Y-20654D01*
X28768Y-20669D01*
X28813Y-20669D01*
X29128Y-20669D01*
X29165Y-20654D01*
X29201Y-20669D01*
X29236Y-20669D01*
X29236Y-21386D01*
X29245Y-21432D01*
X29247Y-21442D01*
X29279Y-21489D01*
X29788Y-21999D01*
X29726Y-21998D01*
X29632Y-22037D01*
X29560Y-22109D01*
X29559Y-22112D01*
X29554Y-22099D01*
X29482Y-22027D01*
X29388Y-21989D01*
X29287Y-21988D01*
X29193Y-22027D01*
X29121Y-22099D01*
X29083Y-22193D01*
X29082Y-22294D01*
X29121Y-22388D01*
X29193Y-22460D01*
X29287Y-22498D01*
X29388Y-22499D01*
X29482Y-22460D01*
X29554Y-22388D01*
X29555Y-22385D01*
X29560Y-22398D01*
X29632Y-22470D01*
X29726Y-22508D01*
X29827Y-22509D01*
X29921Y-22470D01*
X29975Y-22416D01*
X29975Y-22641D01*
X29903Y-22712D01*
X29865Y-22806D01*
X29864Y-22907D01*
X29903Y-23000D01*
X29835Y-23068D01*
X29796Y-23162D01*
X29796Y-23264D01*
X29835Y-23357D01*
X29906Y-23429D01*
X30000Y-23468D01*
X30102Y-23468D01*
X30195Y-23429D01*
X30249Y-23376D01*
X30308Y-23436D01*
X30402Y-23474D01*
X30447Y-23474D01*
X30446Y-23542D01*
X30485Y-23636D01*
X30557Y-23708D01*
X30651Y-23746D01*
X30674Y-23746D01*
X30673Y-23808D01*
X30712Y-23902D01*
X30784Y-23974D01*
X30844Y-23999D01*
X30844Y-23999D01*
G37*
G54D28*
X30844Y-23999D02*
X30750Y-23999D01*
X30708Y-24016D01*
X30690Y-24034D01*
X30671Y-24016D01*
X30629Y-23999D01*
X30583Y-23999D01*
X30518Y-23999D01*
X30257Y-23738D01*
X30210Y-23707D01*
X30201Y-23705D01*
X30155Y-23696D01*
X29188Y-23696D01*
X29137Y-23645D01*
X29178Y-23645D01*
X29272Y-23606D01*
X29344Y-23534D01*
X29359Y-23497D01*
X29405Y-23515D01*
X29506Y-23516D01*
X29600Y-23477D01*
X29672Y-23405D01*
X29710Y-23311D01*
X29711Y-23210D01*
X29672Y-23116D01*
X29600Y-23044D01*
X29506Y-23006D01*
X29405Y-23005D01*
X29311Y-23044D01*
X29239Y-23116D01*
X29224Y-23153D01*
X29178Y-23135D01*
X29077Y-23134D01*
X28983Y-23173D01*
X28911Y-23245D01*
X28873Y-23339D01*
X28873Y-23380D01*
X28608Y-23115D01*
X28608Y-21402D01*
X28598Y-21355D01*
X28596Y-21346D01*
X28596Y-21346D01*
X28565Y-21299D01*
X27935Y-20669D01*
X27947Y-20669D01*
X28262Y-20669D01*
X28298Y-20654D01*
X28335Y-20669D01*
X28466Y-20669D01*
X28495Y-20640D01*
X28495Y-20279D01*
X28487Y-20279D01*
X28487Y-20239D01*
X28495Y-20239D01*
X28495Y-19877D01*
X28466Y-19848D01*
X28335Y-19848D01*
X28298Y-19863D01*
X28262Y-19848D01*
X28217Y-19848D01*
X28205Y-19848D01*
X28184Y-19817D01*
X28184Y-19817D01*
X27946Y-19579D01*
X27899Y-19548D01*
X27890Y-19546D01*
X27844Y-19537D01*
X27376Y-19537D01*
X27305Y-19465D01*
X27211Y-19427D01*
X27110Y-19426D01*
X27016Y-19465D01*
X26944Y-19537D01*
X26906Y-19631D01*
X26905Y-19731D01*
X26527Y-20110D01*
X26496Y-20157D01*
X26494Y-20166D01*
X26485Y-20213D01*
X26485Y-20214D01*
X26485Y-20799D01*
X26201Y-21083D01*
X26201Y-20954D01*
X26408Y-20746D01*
X26408Y-20746D01*
X26439Y-20699D01*
X26451Y-20644D01*
X26451Y-19542D01*
X26557Y-19435D01*
X26557Y-19435D01*
X26557Y-19435D01*
X26705Y-19288D01*
X26879Y-19288D01*
X26950Y-19359D01*
X27044Y-19397D01*
X27145Y-19398D01*
X27239Y-19359D01*
X27311Y-19287D01*
X27349Y-19193D01*
X27350Y-19092D01*
X27311Y-18998D01*
X27239Y-18926D01*
X27145Y-18888D01*
X27044Y-18887D01*
X26950Y-18926D01*
X26879Y-18998D01*
X26645Y-18998D01*
X26589Y-19009D01*
X26573Y-19019D01*
X26542Y-19040D01*
X26385Y-19197D01*
X26385Y-19092D01*
X26528Y-18948D01*
X26628Y-18949D01*
X26722Y-18910D01*
X26794Y-18838D01*
X26809Y-18802D01*
X28496Y-18802D01*
X28803Y-19108D01*
X28803Y-19606D01*
X28803Y-19848D01*
X28768Y-19848D01*
X28732Y-19863D01*
X28695Y-19848D01*
X28564Y-19848D01*
X28535Y-19877D01*
X28535Y-20239D01*
X28543Y-20239D01*
X28543Y-20279D01*
X28535Y-20279D01*
X28535Y-20640D01*
X28564Y-20669D01*
X28695Y-20669D01*
X28732Y-20654D01*
X28768Y-20669D01*
X28813Y-20669D01*
X29128Y-20669D01*
X29165Y-20654D01*
X29201Y-20669D01*
X29236Y-20669D01*
X29236Y-21386D01*
X29245Y-21432D01*
X29247Y-21442D01*
X29279Y-21489D01*
X29788Y-21999D01*
X29726Y-21998D01*
X29632Y-22037D01*
X29560Y-22109D01*
X29559Y-22112D01*
X29554Y-22099D01*
X29482Y-22027D01*
X29388Y-21989D01*
X29287Y-21988D01*
X29193Y-22027D01*
X29121Y-22099D01*
X29083Y-22193D01*
X29082Y-22294D01*
X29121Y-22388D01*
X29193Y-22460D01*
X29287Y-22498D01*
X29388Y-22499D01*
X29482Y-22460D01*
X29554Y-22388D01*
X29555Y-22385D01*
X29560Y-22398D01*
X29632Y-22470D01*
X29726Y-22508D01*
X29827Y-22509D01*
X29921Y-22470D01*
X29975Y-22416D01*
X29975Y-22641D01*
X29903Y-22712D01*
X29865Y-22806D01*
X29864Y-22907D01*
X29903Y-23000D01*
X29835Y-23068D01*
X29796Y-23162D01*
X29796Y-23264D01*
X29835Y-23357D01*
X29906Y-23429D01*
X30000Y-23468D01*
X30102Y-23468D01*
X30195Y-23429D01*
X30249Y-23376D01*
X30308Y-23436D01*
X30402Y-23474D01*
X30447Y-23474D01*
X30446Y-23542D01*
X30485Y-23636D01*
X30557Y-23708D01*
X30651Y-23746D01*
X30674Y-23746D01*
X30673Y-23808D01*
X30712Y-23902D01*
X30784Y-23974D01*
X30844Y-23999D01*
G54D10*
G36*
X31668Y-30020D02*
X31660Y-30020D01*
X31660Y-30028D01*
X31620Y-30028D01*
X31620Y-30020D01*
X30727Y-30020D01*
X30698Y-30049D01*
X30698Y-30161D01*
X30713Y-30197D01*
X30698Y-30233D01*
X30698Y-30249D01*
X30293Y-30249D01*
X30247Y-30258D01*
X30238Y-30260D01*
X30191Y-30291D01*
X30116Y-30366D01*
X30120Y-30357D01*
X30120Y-30228D01*
X30120Y-30131D01*
X30120Y-30002D01*
X30102Y-29959D01*
X30070Y-29927D01*
X30027Y-29910D01*
X29982Y-29910D01*
X29898Y-29910D01*
X29870Y-29938D01*
X29870Y-30160D01*
X30091Y-30160D01*
X30120Y-30131D01*
X30120Y-30228D01*
X30091Y-30200D01*
X29870Y-30200D01*
X29870Y-30207D01*
X29830Y-30207D01*
X29830Y-30200D01*
X29608Y-30200D01*
X29600Y-30208D01*
X29572Y-30180D01*
X29600Y-30151D01*
X29608Y-30160D01*
X29830Y-30160D01*
X29830Y-29938D01*
X29801Y-29910D01*
X29717Y-29910D01*
X29672Y-29910D01*
X29629Y-29927D01*
X29620Y-29937D01*
X29620Y-29767D01*
X29709Y-29827D01*
X29762Y-29849D01*
X29762Y-29849D01*
X29901Y-29877D01*
X29915Y-29877D01*
X29930Y-29880D01*
X30698Y-29880D01*
X30698Y-29951D01*
X30727Y-29980D01*
X31620Y-29980D01*
X31620Y-29972D01*
X31660Y-29972D01*
X31660Y-29980D01*
X31668Y-29980D01*
X31668Y-30020D01*
X31668Y-30020D01*
G37*
G54D28*
X31668Y-30020D02*
X31660Y-30020D01*
X31660Y-30028D01*
X31620Y-30028D01*
X31620Y-30020D01*
X30727Y-30020D01*
X30698Y-30049D01*
X30698Y-30161D01*
X30713Y-30197D01*
X30698Y-30233D01*
X30698Y-30249D01*
X30293Y-30249D01*
X30247Y-30258D01*
X30238Y-30260D01*
X30191Y-30291D01*
X30116Y-30366D01*
X30120Y-30357D01*
X30120Y-30228D01*
X30120Y-30131D01*
X30120Y-30002D01*
X30102Y-29959D01*
X30070Y-29927D01*
X30027Y-29910D01*
X29982Y-29910D01*
X29898Y-29910D01*
X29870Y-29938D01*
X29870Y-30160D01*
X30091Y-30160D01*
X30120Y-30131D01*
X30120Y-30228D01*
X30091Y-30200D01*
X29870Y-30200D01*
X29870Y-30207D01*
X29830Y-30207D01*
X29830Y-30200D01*
X29608Y-30200D01*
X29600Y-30208D01*
X29572Y-30180D01*
X29600Y-30151D01*
X29608Y-30160D01*
X29830Y-30160D01*
X29830Y-29938D01*
X29801Y-29910D01*
X29717Y-29910D01*
X29672Y-29910D01*
X29629Y-29927D01*
X29620Y-29937D01*
X29620Y-29767D01*
X29709Y-29827D01*
X29762Y-29849D01*
X29762Y-29849D01*
X29901Y-29877D01*
X29915Y-29877D01*
X29930Y-29880D01*
X30698Y-29880D01*
X30698Y-29951D01*
X30727Y-29980D01*
X31620Y-29980D01*
X31620Y-29972D01*
X31660Y-29972D01*
X31660Y-29980D01*
X31668Y-29980D01*
X31668Y-30020D01*
G54D10*
G36*
X31864Y-24780D02*
X31535Y-25109D01*
X31498Y-25109D01*
X31525Y-25041D01*
X31526Y-24940D01*
X31487Y-24846D01*
X31416Y-24775D01*
X31416Y-24715D01*
X31406Y-24668D01*
X31404Y-24659D01*
X31404Y-24659D01*
X31373Y-24612D01*
X31373Y-24612D01*
X31196Y-24434D01*
X31148Y-24403D01*
X31139Y-24401D01*
X31096Y-24393D01*
X31090Y-24379D01*
X31101Y-24353D01*
X31101Y-24308D01*
X31101Y-24211D01*
X31270Y-24042D01*
X31301Y-23995D01*
X31301Y-23995D01*
X31303Y-23986D01*
X31312Y-23940D01*
X31313Y-23940D01*
X31313Y-23922D01*
X31356Y-23939D01*
X31457Y-23940D01*
X31551Y-23901D01*
X31623Y-23829D01*
X31661Y-23735D01*
X31662Y-23634D01*
X31623Y-23540D01*
X31551Y-23468D01*
X31457Y-23430D01*
X31356Y-23429D01*
X31313Y-23447D01*
X31313Y-23202D01*
X31301Y-23146D01*
X31270Y-23099D01*
X30825Y-22654D01*
X30825Y-21958D01*
X30889Y-21984D01*
X30990Y-21985D01*
X31052Y-21959D01*
X31018Y-22043D01*
X31017Y-22144D01*
X31056Y-22238D01*
X31128Y-22310D01*
X31222Y-22348D01*
X31323Y-22349D01*
X31417Y-22310D01*
X31443Y-22283D01*
X31469Y-22309D01*
X31563Y-22347D01*
X31664Y-22348D01*
X31758Y-22309D01*
X31830Y-22237D01*
X31864Y-22155D01*
X31864Y-24780D01*
X31864Y-24780D01*
G37*
G54D28*
X31864Y-24780D02*
X31535Y-25109D01*
X31498Y-25109D01*
X31525Y-25041D01*
X31526Y-24940D01*
X31487Y-24846D01*
X31416Y-24775D01*
X31416Y-24715D01*
X31406Y-24668D01*
X31404Y-24659D01*
X31404Y-24659D01*
X31373Y-24612D01*
X31373Y-24612D01*
X31196Y-24434D01*
X31148Y-24403D01*
X31139Y-24401D01*
X31096Y-24393D01*
X31090Y-24379D01*
X31101Y-24353D01*
X31101Y-24308D01*
X31101Y-24211D01*
X31270Y-24042D01*
X31301Y-23995D01*
X31301Y-23995D01*
X31303Y-23986D01*
X31312Y-23940D01*
X31313Y-23940D01*
X31313Y-23922D01*
X31356Y-23939D01*
X31457Y-23940D01*
X31551Y-23901D01*
X31623Y-23829D01*
X31661Y-23735D01*
X31662Y-23634D01*
X31623Y-23540D01*
X31551Y-23468D01*
X31457Y-23430D01*
X31356Y-23429D01*
X31313Y-23447D01*
X31313Y-23202D01*
X31301Y-23146D01*
X31270Y-23099D01*
X30825Y-22654D01*
X30825Y-21958D01*
X30889Y-21984D01*
X30990Y-21985D01*
X31052Y-21959D01*
X31018Y-22043D01*
X31017Y-22144D01*
X31056Y-22238D01*
X31128Y-22310D01*
X31222Y-22348D01*
X31323Y-22349D01*
X31417Y-22310D01*
X31443Y-22283D01*
X31469Y-22309D01*
X31563Y-22347D01*
X31664Y-22348D01*
X31758Y-22309D01*
X31830Y-22237D01*
X31864Y-22155D01*
X31864Y-24780D01*
G54D10*
G36*
X32408Y-25902D02*
X32378Y-25931D01*
X32361Y-25974D01*
X32361Y-26007D01*
X31963Y-26007D01*
X31907Y-26018D01*
X31860Y-26049D01*
X30689Y-27220D01*
X30589Y-27219D01*
X30495Y-27258D01*
X30439Y-27314D01*
X30385Y-27259D01*
X30385Y-26957D01*
X30646Y-26695D01*
X30667Y-26745D01*
X30739Y-26817D01*
X30833Y-26855D01*
X30934Y-26856D01*
X31028Y-26817D01*
X31100Y-26745D01*
X31138Y-26651D01*
X31139Y-26550D01*
X31100Y-26456D01*
X31028Y-26384D01*
X30978Y-26363D01*
X31545Y-25797D01*
X32361Y-25797D01*
X32361Y-25829D01*
X32378Y-25872D01*
X32408Y-25902D01*
X32408Y-25902D01*
G37*
G54D28*
X32408Y-25902D02*
X32378Y-25931D01*
X32361Y-25974D01*
X32361Y-26007D01*
X31963Y-26007D01*
X31907Y-26018D01*
X31860Y-26049D01*
X30689Y-27220D01*
X30589Y-27219D01*
X30495Y-27258D01*
X30439Y-27314D01*
X30385Y-27259D01*
X30385Y-26957D01*
X30646Y-26695D01*
X30667Y-26745D01*
X30739Y-26817D01*
X30833Y-26855D01*
X30934Y-26856D01*
X31028Y-26817D01*
X31100Y-26745D01*
X31138Y-26651D01*
X31139Y-26550D01*
X31100Y-26456D01*
X31028Y-26384D01*
X30978Y-26363D01*
X31545Y-25797D01*
X32361Y-25797D01*
X32361Y-25829D01*
X32378Y-25872D01*
X32408Y-25902D01*
G54D10*
G36*
X32510Y-19882D02*
X32498Y-19882D01*
X32498Y-19651D01*
X32498Y-19606D01*
X32498Y-18818D01*
X32481Y-18776D01*
X32448Y-18744D01*
X32406Y-18726D01*
X32360Y-18726D01*
X31789Y-18726D01*
X31747Y-18744D01*
X31715Y-18776D01*
X31697Y-18818D01*
X31697Y-18864D01*
X31697Y-19651D01*
X31715Y-19694D01*
X31747Y-19726D01*
X31789Y-19744D01*
X31835Y-19744D01*
X32406Y-19744D01*
X32448Y-19726D01*
X32481Y-19694D01*
X32498Y-19651D01*
X32498Y-19882D01*
X32453Y-19882D01*
X32410Y-19899D01*
X32378Y-19931D01*
X32361Y-19974D01*
X32361Y-20019D01*
X32361Y-20329D01*
X32378Y-20372D01*
X32408Y-20402D01*
X32378Y-20431D01*
X32361Y-20474D01*
X32361Y-20519D01*
X32361Y-20829D01*
X32378Y-20872D01*
X32408Y-20902D01*
X32378Y-20931D01*
X32361Y-20974D01*
X32361Y-21019D01*
X32361Y-21329D01*
X32378Y-21372D01*
X32408Y-21402D01*
X32378Y-21431D01*
X32361Y-21474D01*
X32361Y-21519D01*
X32361Y-21829D01*
X32378Y-21872D01*
X32408Y-21902D01*
X32378Y-21931D01*
X32361Y-21974D01*
X32361Y-22019D01*
X32361Y-22329D01*
X32378Y-22372D01*
X32408Y-22402D01*
X32378Y-22431D01*
X32361Y-22474D01*
X32361Y-22519D01*
X32361Y-22829D01*
X32378Y-22872D01*
X32408Y-22902D01*
X32378Y-22931D01*
X32361Y-22974D01*
X32361Y-23019D01*
X32361Y-23329D01*
X32378Y-23372D01*
X32408Y-23402D01*
X32378Y-23431D01*
X32361Y-23474D01*
X32361Y-23519D01*
X32361Y-23829D01*
X32378Y-23872D01*
X32408Y-23902D01*
X32378Y-23931D01*
X32361Y-23974D01*
X32361Y-24019D01*
X32361Y-24329D01*
X32378Y-24372D01*
X32408Y-24402D01*
X32378Y-24431D01*
X32361Y-24474D01*
X32361Y-24519D01*
X32361Y-24829D01*
X32378Y-24872D01*
X32408Y-24902D01*
X32378Y-24931D01*
X32361Y-24974D01*
X32361Y-25007D01*
X32308Y-25007D01*
X32261Y-25016D01*
X32252Y-25018D01*
X32205Y-25049D01*
X31905Y-25349D01*
X31706Y-25349D01*
X32111Y-24943D01*
X32111Y-24943D01*
X32142Y-24896D01*
X32142Y-24896D01*
X32144Y-24887D01*
X32153Y-24841D01*
X32154Y-24841D01*
X32154Y-20849D01*
X32142Y-20793D01*
X32142Y-20793D01*
X32132Y-20777D01*
X32111Y-20746D01*
X32111Y-20746D01*
X31072Y-19707D01*
X31025Y-19676D01*
X31016Y-19674D01*
X30970Y-19665D01*
X30489Y-19665D01*
X30489Y-18863D01*
X30450Y-18769D01*
X30378Y-18697D01*
X30292Y-18662D01*
X30326Y-18648D01*
X30398Y-18576D01*
X30436Y-18482D01*
X30437Y-18381D01*
X30398Y-18287D01*
X30326Y-18215D01*
X30232Y-18177D01*
X30131Y-18176D01*
X30037Y-18215D01*
X29965Y-18287D01*
X29927Y-18381D01*
X29926Y-18482D01*
X29965Y-18576D01*
X30037Y-18648D01*
X30123Y-18683D01*
X30089Y-18697D01*
X30017Y-18769D01*
X29979Y-18863D01*
X29978Y-18964D01*
X30017Y-19058D01*
X30089Y-19130D01*
X30183Y-19168D01*
X30284Y-19169D01*
X30378Y-19130D01*
X30450Y-19058D01*
X30488Y-18964D01*
X30489Y-18863D01*
X30489Y-19665D01*
X30412Y-19665D01*
X30365Y-19674D01*
X30356Y-19676D01*
X30309Y-19707D01*
X30168Y-19848D01*
X30067Y-19848D01*
X30031Y-19863D01*
X29995Y-19848D01*
X29949Y-19848D01*
X29634Y-19848D01*
X29598Y-19863D01*
X29561Y-19848D01*
X29516Y-19848D01*
X29201Y-19848D01*
X29165Y-19863D01*
X29128Y-19848D01*
X29093Y-19848D01*
X29093Y-19606D01*
X29093Y-19048D01*
X29084Y-19002D01*
X29082Y-18993D01*
X29082Y-18993D01*
X29051Y-18946D01*
X29051Y-18946D01*
X28659Y-18554D01*
X28612Y-18523D01*
X28603Y-18521D01*
X28557Y-18512D01*
X26756Y-18512D01*
X26722Y-18477D01*
X26628Y-18439D01*
X26527Y-18438D01*
X26433Y-18477D01*
X26361Y-18549D01*
X26323Y-18643D01*
X26322Y-18743D01*
X26137Y-18929D01*
X26132Y-18936D01*
X26132Y-18936D01*
X26055Y-18905D01*
X25954Y-18904D01*
X25860Y-18943D01*
X25830Y-18974D01*
X25800Y-18944D01*
X25706Y-18906D01*
X25605Y-18905D01*
X25511Y-18944D01*
X25439Y-19016D01*
X25401Y-19110D01*
X25400Y-19211D01*
X25439Y-19305D01*
X25511Y-19377D01*
X25605Y-19415D01*
X25706Y-19416D01*
X25800Y-19377D01*
X25830Y-19346D01*
X25860Y-19376D01*
X25954Y-19414D01*
X26038Y-19415D01*
X26038Y-20109D01*
X25976Y-20047D01*
X25882Y-20009D01*
X25781Y-20008D01*
X25687Y-20047D01*
X25615Y-20119D01*
X25577Y-20213D01*
X25576Y-20313D01*
X25540Y-20350D01*
X25540Y-20312D01*
X25540Y-20002D01*
X25522Y-19959D01*
X25490Y-19927D01*
X25447Y-19910D01*
X25402Y-19910D01*
X25380Y-19910D01*
X25380Y-18132D01*
X32510Y-18132D01*
X32510Y-19882D01*
X32510Y-19882D01*
G37*
G54D28*
X32510Y-19882D02*
X32498Y-19882D01*
X32498Y-19651D01*
X32498Y-19606D01*
X32498Y-18818D01*
X32481Y-18776D01*
X32448Y-18744D01*
X32406Y-18726D01*
X32360Y-18726D01*
X31789Y-18726D01*
X31747Y-18744D01*
X31715Y-18776D01*
X31697Y-18818D01*
X31697Y-18864D01*
X31697Y-19651D01*
X31715Y-19694D01*
X31747Y-19726D01*
X31789Y-19744D01*
X31835Y-19744D01*
X32406Y-19744D01*
X32448Y-19726D01*
X32481Y-19694D01*
X32498Y-19651D01*
X32498Y-19882D01*
X32453Y-19882D01*
X32410Y-19899D01*
X32378Y-19931D01*
X32361Y-19974D01*
X32361Y-20019D01*
X32361Y-20329D01*
X32378Y-20372D01*
X32408Y-20402D01*
X32378Y-20431D01*
X32361Y-20474D01*
X32361Y-20519D01*
X32361Y-20829D01*
X32378Y-20872D01*
X32408Y-20902D01*
X32378Y-20931D01*
X32361Y-20974D01*
X32361Y-21019D01*
X32361Y-21329D01*
X32378Y-21372D01*
X32408Y-21402D01*
X32378Y-21431D01*
X32361Y-21474D01*
X32361Y-21519D01*
X32361Y-21829D01*
X32378Y-21872D01*
X32408Y-21902D01*
X32378Y-21931D01*
X32361Y-21974D01*
X32361Y-22019D01*
X32361Y-22329D01*
X32378Y-22372D01*
X32408Y-22402D01*
X32378Y-22431D01*
X32361Y-22474D01*
X32361Y-22519D01*
X32361Y-22829D01*
X32378Y-22872D01*
X32408Y-22902D01*
X32378Y-22931D01*
X32361Y-22974D01*
X32361Y-23019D01*
X32361Y-23329D01*
X32378Y-23372D01*
X32408Y-23402D01*
X32378Y-23431D01*
X32361Y-23474D01*
X32361Y-23519D01*
X32361Y-23829D01*
X32378Y-23872D01*
X32408Y-23902D01*
X32378Y-23931D01*
X32361Y-23974D01*
X32361Y-24019D01*
X32361Y-24329D01*
X32378Y-24372D01*
X32408Y-24402D01*
X32378Y-24431D01*
X32361Y-24474D01*
X32361Y-24519D01*
X32361Y-24829D01*
X32378Y-24872D01*
X32408Y-24902D01*
X32378Y-24931D01*
X32361Y-24974D01*
X32361Y-25007D01*
X32308Y-25007D01*
X32261Y-25016D01*
X32252Y-25018D01*
X32205Y-25049D01*
X31905Y-25349D01*
X31706Y-25349D01*
X32111Y-24943D01*
X32111Y-24943D01*
X32142Y-24896D01*
X32142Y-24896D01*
X32144Y-24887D01*
X32153Y-24841D01*
X32154Y-24841D01*
X32154Y-20849D01*
X32142Y-20793D01*
X32142Y-20793D01*
X32132Y-20777D01*
X32111Y-20746D01*
X32111Y-20746D01*
X31072Y-19707D01*
X31025Y-19676D01*
X31016Y-19674D01*
X30970Y-19665D01*
X30489Y-19665D01*
X30489Y-18863D01*
X30450Y-18769D01*
X30378Y-18697D01*
X30292Y-18662D01*
X30326Y-18648D01*
X30398Y-18576D01*
X30436Y-18482D01*
X30437Y-18381D01*
X30398Y-18287D01*
X30326Y-18215D01*
X30232Y-18177D01*
X30131Y-18176D01*
X30037Y-18215D01*
X29965Y-18287D01*
X29927Y-18381D01*
X29926Y-18482D01*
X29965Y-18576D01*
X30037Y-18648D01*
X30123Y-18683D01*
X30089Y-18697D01*
X30017Y-18769D01*
X29979Y-18863D01*
X29978Y-18964D01*
X30017Y-19058D01*
X30089Y-19130D01*
X30183Y-19168D01*
X30284Y-19169D01*
X30378Y-19130D01*
X30450Y-19058D01*
X30488Y-18964D01*
X30489Y-18863D01*
X30489Y-19665D01*
X30412Y-19665D01*
X30365Y-19674D01*
X30356Y-19676D01*
X30309Y-19707D01*
X30168Y-19848D01*
X30067Y-19848D01*
X30031Y-19863D01*
X29995Y-19848D01*
X29949Y-19848D01*
X29634Y-19848D01*
X29598Y-19863D01*
X29561Y-19848D01*
X29516Y-19848D01*
X29201Y-19848D01*
X29165Y-19863D01*
X29128Y-19848D01*
X29093Y-19848D01*
X29093Y-19606D01*
X29093Y-19048D01*
X29084Y-19002D01*
X29082Y-18993D01*
X29082Y-18993D01*
X29051Y-18946D01*
X29051Y-18946D01*
X28659Y-18554D01*
X28612Y-18523D01*
X28603Y-18521D01*
X28557Y-18512D01*
X26756Y-18512D01*
X26722Y-18477D01*
X26628Y-18439D01*
X26527Y-18438D01*
X26433Y-18477D01*
X26361Y-18549D01*
X26323Y-18643D01*
X26322Y-18743D01*
X26137Y-18929D01*
X26132Y-18936D01*
X26132Y-18936D01*
X26055Y-18905D01*
X25954Y-18904D01*
X25860Y-18943D01*
X25830Y-18974D01*
X25800Y-18944D01*
X25706Y-18906D01*
X25605Y-18905D01*
X25511Y-18944D01*
X25439Y-19016D01*
X25401Y-19110D01*
X25400Y-19211D01*
X25439Y-19305D01*
X25511Y-19377D01*
X25605Y-19415D01*
X25706Y-19416D01*
X25800Y-19377D01*
X25830Y-19346D01*
X25860Y-19376D01*
X25954Y-19414D01*
X26038Y-19415D01*
X26038Y-20109D01*
X25976Y-20047D01*
X25882Y-20009D01*
X25781Y-20008D01*
X25687Y-20047D01*
X25615Y-20119D01*
X25577Y-20213D01*
X25576Y-20313D01*
X25540Y-20350D01*
X25540Y-20312D01*
X25540Y-20002D01*
X25522Y-19959D01*
X25490Y-19927D01*
X25447Y-19910D01*
X25402Y-19910D01*
X25380Y-19910D01*
X25380Y-18132D01*
X32510Y-18132D01*
X32510Y-19882D01*
G54D10*
G36*
X32510Y-28172D02*
X32389Y-28172D01*
X32361Y-28200D01*
X32361Y-28329D01*
X32378Y-28372D01*
X32408Y-28402D01*
X32378Y-28431D01*
X32361Y-28474D01*
X32361Y-28519D01*
X32361Y-28829D01*
X32373Y-28860D01*
X29930Y-28860D01*
X29915Y-28862D01*
X29901Y-28862D01*
X29762Y-28890D01*
X29762Y-28890D01*
X29709Y-28912D01*
X29661Y-28944D01*
X30587Y-28019D01*
X31909Y-28019D01*
X31909Y-28018D01*
X31955Y-28009D01*
X31964Y-28007D01*
X31964Y-28007D01*
X32011Y-27976D01*
X32361Y-27627D01*
X32361Y-27829D01*
X32378Y-27872D01*
X32408Y-27902D01*
X32378Y-27931D01*
X32361Y-27974D01*
X32361Y-28103D01*
X32389Y-28132D01*
X32510Y-28132D01*
X32510Y-28172D01*
X32510Y-28172D01*
G37*
G54D28*
X32510Y-28172D02*
X32389Y-28172D01*
X32361Y-28200D01*
X32361Y-28329D01*
X32378Y-28372D01*
X32408Y-28402D01*
X32378Y-28431D01*
X32361Y-28474D01*
X32361Y-28519D01*
X32361Y-28829D01*
X32373Y-28860D01*
X29930Y-28860D01*
X29915Y-28862D01*
X29901Y-28862D01*
X29762Y-28890D01*
X29762Y-28890D01*
X29709Y-28912D01*
X29661Y-28944D01*
X30587Y-28019D01*
X31909Y-28019D01*
X31909Y-28018D01*
X31955Y-28009D01*
X31964Y-28007D01*
X31964Y-28007D01*
X32011Y-27976D01*
X32361Y-27627D01*
X32361Y-27829D01*
X32378Y-27872D01*
X32408Y-27902D01*
X32378Y-27931D01*
X32361Y-27974D01*
X32361Y-28103D01*
X32389Y-28132D01*
X32510Y-28132D01*
X32510Y-28172D01*
G54D10*
G36*
X32510Y-38942D02*
X32489Y-38894D01*
X32429Y-38862D01*
X32168Y-39124D01*
X32173Y-39129D01*
X32145Y-39157D01*
X32140Y-39152D01*
X32111Y-39180D01*
X32111Y-39124D01*
X31850Y-38862D01*
X31790Y-38894D01*
X31728Y-39045D01*
X31730Y-39209D01*
X31790Y-39353D01*
X31850Y-39385D01*
X32111Y-39124D01*
X32111Y-39180D01*
X31878Y-39413D01*
X31910Y-39473D01*
X32018Y-39517D01*
X31940Y-39570D01*
X31940Y-39570D01*
X31920Y-39590D01*
X31900Y-39610D01*
X31900Y-39610D01*
X31770Y-39804D01*
X31770Y-39804D01*
X31748Y-39857D01*
X31702Y-40086D01*
X31702Y-40100D01*
X31700Y-40115D01*
X31700Y-40200D01*
X31638Y-40200D01*
X31688Y-40125D01*
X31719Y-39968D01*
X31719Y-39350D01*
X31688Y-39193D01*
X31599Y-39060D01*
X31466Y-38971D01*
X31309Y-38940D01*
X31152Y-38971D01*
X31019Y-39060D01*
X30930Y-39193D01*
X30898Y-39350D01*
X30898Y-39609D01*
X30780Y-39491D01*
X30624Y-39426D01*
X30514Y-39426D01*
X30514Y-39051D01*
X30324Y-38861D01*
X30135Y-39051D01*
X30154Y-39101D01*
X30270Y-39146D01*
X30394Y-39143D01*
X30495Y-39101D01*
X30514Y-39051D01*
X30514Y-39426D01*
X30456Y-39426D01*
X30300Y-39490D01*
X30202Y-39587D01*
X30150Y-39460D01*
X30051Y-39362D01*
X29922Y-39308D01*
X29782Y-39308D01*
X29653Y-39361D01*
X29652Y-39362D01*
X29652Y-38771D01*
X29605Y-38656D01*
X29517Y-38568D01*
X29403Y-38521D01*
X29278Y-38520D01*
X29164Y-38568D01*
X29076Y-38655D01*
X29028Y-38770D01*
X29028Y-38894D01*
X29076Y-39009D01*
X29163Y-39097D01*
X29278Y-39144D01*
X29402Y-39144D01*
X29517Y-39097D01*
X29604Y-39009D01*
X29652Y-38895D01*
X29652Y-38771D01*
X29652Y-39362D01*
X29554Y-39460D01*
X29501Y-39589D01*
X29501Y-39729D01*
X29554Y-39858D01*
X29653Y-39957D01*
X29782Y-40010D01*
X29922Y-40010D01*
X30051Y-39957D01*
X30116Y-39892D01*
X30116Y-39933D01*
X30180Y-40089D01*
X30290Y-40200D01*
X28865Y-40200D01*
X28865Y-38771D01*
X28817Y-38656D01*
X28730Y-38568D01*
X28615Y-38521D01*
X28491Y-38520D01*
X28376Y-38568D01*
X28289Y-38655D01*
X28241Y-38770D01*
X28241Y-38894D01*
X28288Y-39009D01*
X28376Y-39097D01*
X28490Y-39144D01*
X28615Y-39144D01*
X28729Y-39097D01*
X28817Y-39009D01*
X28865Y-38895D01*
X28865Y-38771D01*
X28865Y-40200D01*
X27599Y-40200D01*
X27708Y-40090D01*
X27773Y-39934D01*
X27773Y-39888D01*
X27842Y-39957D01*
X27971Y-40010D01*
X28111Y-40010D01*
X28240Y-39957D01*
X28339Y-39858D01*
X28392Y-39729D01*
X28392Y-39590D01*
X28339Y-39460D01*
X28240Y-39362D01*
X28111Y-39308D01*
X27971Y-39308D01*
X27842Y-39361D01*
X27743Y-39460D01*
X27690Y-39589D01*
X27690Y-39591D01*
X27590Y-39491D01*
X27434Y-39426D01*
X27266Y-39426D01*
X27110Y-39490D01*
X26995Y-39605D01*
X26995Y-39350D01*
X26963Y-39193D01*
X26901Y-39100D01*
X26951Y-39100D01*
X27100Y-39249D01*
X27148Y-39280D01*
X27203Y-39291D01*
X27727Y-39291D01*
X27727Y-39291D01*
X27773Y-39282D01*
X27782Y-39280D01*
X27782Y-39280D01*
X27830Y-39249D01*
X28083Y-38995D01*
X28114Y-38948D01*
X28114Y-38948D01*
X28116Y-38939D01*
X28125Y-38893D01*
X28126Y-38893D01*
X28126Y-38602D01*
X28116Y-38555D01*
X28114Y-38546D01*
X28114Y-38546D01*
X28083Y-38499D01*
X28076Y-38492D01*
X28090Y-38460D01*
X28090Y-38414D01*
X28090Y-38356D01*
X28115Y-38366D01*
X28216Y-38367D01*
X28310Y-38328D01*
X28382Y-38256D01*
X28420Y-38162D01*
X28421Y-38062D01*
X28631Y-37852D01*
X28631Y-37940D01*
X28640Y-37986D01*
X28642Y-37995D01*
X28673Y-38042D01*
X28695Y-38064D01*
X28694Y-38164D01*
X28733Y-38258D01*
X28805Y-38330D01*
X28899Y-38368D01*
X29000Y-38369D01*
X29094Y-38330D01*
X29166Y-38258D01*
X29204Y-38164D01*
X29205Y-38063D01*
X29203Y-38060D01*
X29217Y-38060D01*
X29435Y-38060D01*
X29422Y-38121D01*
X29422Y-38121D01*
X29422Y-38121D01*
X29422Y-38178D01*
X29422Y-38178D01*
X29450Y-38317D01*
X29472Y-38370D01*
X29472Y-38370D01*
X29472Y-38370D01*
X29551Y-38488D01*
X29591Y-38528D01*
X29591Y-38528D01*
X29591Y-38528D01*
X29709Y-38607D01*
X29762Y-38629D01*
X29762Y-38629D01*
X29901Y-38657D01*
X29915Y-38657D01*
X29930Y-38660D01*
X30062Y-38660D01*
X30056Y-38662D01*
X30011Y-38778D01*
X30014Y-38902D01*
X30056Y-39003D01*
X30106Y-39022D01*
X30296Y-38832D01*
X30291Y-38827D01*
X30319Y-38799D01*
X30324Y-38804D01*
X30330Y-38799D01*
X30358Y-38827D01*
X30353Y-38832D01*
X30543Y-39022D01*
X30593Y-39003D01*
X30638Y-38887D01*
X30635Y-38763D01*
X30593Y-38662D01*
X30586Y-38660D01*
X31577Y-38660D01*
X31620Y-38703D01*
X31832Y-38790D01*
X31901Y-38790D01*
X31878Y-38834D01*
X32140Y-39095D01*
X32401Y-38834D01*
X32369Y-38774D01*
X32234Y-38719D01*
X32272Y-38703D01*
X32316Y-38660D01*
X32510Y-38660D01*
X32510Y-38942D01*
X32510Y-38942D01*
G37*
G54D28*
X32510Y-38942D02*
X32489Y-38894D01*
X32429Y-38862D01*
X32168Y-39124D01*
X32173Y-39129D01*
X32145Y-39157D01*
X32140Y-39152D01*
X32111Y-39180D01*
X32111Y-39124D01*
X31850Y-38862D01*
X31790Y-38894D01*
X31728Y-39045D01*
X31730Y-39209D01*
X31790Y-39353D01*
X31850Y-39385D01*
X32111Y-39124D01*
X32111Y-39180D01*
X31878Y-39413D01*
X31910Y-39473D01*
X32018Y-39517D01*
X31940Y-39570D01*
X31940Y-39570D01*
X31920Y-39590D01*
X31900Y-39610D01*
X31900Y-39610D01*
X31770Y-39804D01*
X31770Y-39804D01*
X31748Y-39857D01*
X31702Y-40086D01*
X31702Y-40100D01*
X31700Y-40115D01*
X31700Y-40200D01*
X31638Y-40200D01*
X31688Y-40125D01*
X31719Y-39968D01*
X31719Y-39350D01*
X31688Y-39193D01*
X31599Y-39060D01*
X31466Y-38971D01*
X31309Y-38940D01*
X31152Y-38971D01*
X31019Y-39060D01*
X30930Y-39193D01*
X30898Y-39350D01*
X30898Y-39609D01*
X30780Y-39491D01*
X30624Y-39426D01*
X30514Y-39426D01*
X30514Y-39051D01*
X30324Y-38861D01*
X30135Y-39051D01*
X30154Y-39101D01*
X30270Y-39146D01*
X30394Y-39143D01*
X30495Y-39101D01*
X30514Y-39051D01*
X30514Y-39426D01*
X30456Y-39426D01*
X30300Y-39490D01*
X30202Y-39587D01*
X30150Y-39460D01*
X30051Y-39362D01*
X29922Y-39308D01*
X29782Y-39308D01*
X29653Y-39361D01*
X29652Y-39362D01*
X29652Y-38771D01*
X29605Y-38656D01*
X29517Y-38568D01*
X29403Y-38521D01*
X29278Y-38520D01*
X29164Y-38568D01*
X29076Y-38655D01*
X29028Y-38770D01*
X29028Y-38894D01*
X29076Y-39009D01*
X29163Y-39097D01*
X29278Y-39144D01*
X29402Y-39144D01*
X29517Y-39097D01*
X29604Y-39009D01*
X29652Y-38895D01*
X29652Y-38771D01*
X29652Y-39362D01*
X29554Y-39460D01*
X29501Y-39589D01*
X29501Y-39729D01*
X29554Y-39858D01*
X29653Y-39957D01*
X29782Y-40010D01*
X29922Y-40010D01*
X30051Y-39957D01*
X30116Y-39892D01*
X30116Y-39933D01*
X30180Y-40089D01*
X30290Y-40200D01*
X28865Y-40200D01*
X28865Y-38771D01*
X28817Y-38656D01*
X28730Y-38568D01*
X28615Y-38521D01*
X28491Y-38520D01*
X28376Y-38568D01*
X28289Y-38655D01*
X28241Y-38770D01*
X28241Y-38894D01*
X28288Y-39009D01*
X28376Y-39097D01*
X28490Y-39144D01*
X28615Y-39144D01*
X28729Y-39097D01*
X28817Y-39009D01*
X28865Y-38895D01*
X28865Y-38771D01*
X28865Y-40200D01*
X27599Y-40200D01*
X27708Y-40090D01*
X27773Y-39934D01*
X27773Y-39888D01*
X27842Y-39957D01*
X27971Y-40010D01*
X28111Y-40010D01*
X28240Y-39957D01*
X28339Y-39858D01*
X28392Y-39729D01*
X28392Y-39590D01*
X28339Y-39460D01*
X28240Y-39362D01*
X28111Y-39308D01*
X27971Y-39308D01*
X27842Y-39361D01*
X27743Y-39460D01*
X27690Y-39589D01*
X27690Y-39591D01*
X27590Y-39491D01*
X27434Y-39426D01*
X27266Y-39426D01*
X27110Y-39490D01*
X26995Y-39605D01*
X26995Y-39350D01*
X26963Y-39193D01*
X26901Y-39100D01*
X26951Y-39100D01*
X27100Y-39249D01*
X27148Y-39280D01*
X27203Y-39291D01*
X27727Y-39291D01*
X27727Y-39291D01*
X27773Y-39282D01*
X27782Y-39280D01*
X27782Y-39280D01*
X27830Y-39249D01*
X28083Y-38995D01*
X28114Y-38948D01*
X28114Y-38948D01*
X28116Y-38939D01*
X28125Y-38893D01*
X28126Y-38893D01*
X28126Y-38602D01*
X28116Y-38555D01*
X28114Y-38546D01*
X28114Y-38546D01*
X28083Y-38499D01*
X28076Y-38492D01*
X28090Y-38460D01*
X28090Y-38414D01*
X28090Y-38356D01*
X28115Y-38366D01*
X28216Y-38367D01*
X28310Y-38328D01*
X28382Y-38256D01*
X28420Y-38162D01*
X28421Y-38062D01*
X28631Y-37852D01*
X28631Y-37940D01*
X28640Y-37986D01*
X28642Y-37995D01*
X28673Y-38042D01*
X28695Y-38064D01*
X28694Y-38164D01*
X28733Y-38258D01*
X28805Y-38330D01*
X28899Y-38368D01*
X29000Y-38369D01*
X29094Y-38330D01*
X29166Y-38258D01*
X29204Y-38164D01*
X29205Y-38063D01*
X29203Y-38060D01*
X29217Y-38060D01*
X29435Y-38060D01*
X29422Y-38121D01*
X29422Y-38121D01*
X29422Y-38121D01*
X29422Y-38178D01*
X29422Y-38178D01*
X29450Y-38317D01*
X29472Y-38370D01*
X29472Y-38370D01*
X29472Y-38370D01*
X29551Y-38488D01*
X29591Y-38528D01*
X29591Y-38528D01*
X29591Y-38528D01*
X29709Y-38607D01*
X29762Y-38629D01*
X29762Y-38629D01*
X29901Y-38657D01*
X29915Y-38657D01*
X29930Y-38660D01*
X30062Y-38660D01*
X30056Y-38662D01*
X30011Y-38778D01*
X30014Y-38902D01*
X30056Y-39003D01*
X30106Y-39022D01*
X30296Y-38832D01*
X30291Y-38827D01*
X30319Y-38799D01*
X30324Y-38804D01*
X30330Y-38799D01*
X30358Y-38827D01*
X30353Y-38832D01*
X30543Y-39022D01*
X30593Y-39003D01*
X30638Y-38887D01*
X30635Y-38763D01*
X30593Y-38662D01*
X30586Y-38660D01*
X31577Y-38660D01*
X31620Y-38703D01*
X31832Y-38790D01*
X31901Y-38790D01*
X31878Y-38834D01*
X32140Y-39095D01*
X32401Y-38834D01*
X32369Y-38774D01*
X32234Y-38719D01*
X32272Y-38703D01*
X32316Y-38660D01*
X32510Y-38660D01*
X32510Y-38942D01*
M02*
