G04 (created by PCBNEW (2013-mar-13)-testing) date Fri 20 Dec 2013 02:45:34 PM CET*
%MOIN*%
G04 Gerber Fmt 3.4, Leading zero omitted, Abs format*
%FSLAX34Y34*%
G01*
G70*
G90*
G04 APERTURE LIST*
%ADD10C,0.003937*%
%ADD11R,0.021300X0.021700*%
%ADD12R,0.025000X0.045000*%
%ADD13R,0.021700X0.021300*%
%ADD14R,0.045000X0.025000*%
%ADD15R,0.019700X0.023600*%
%ADD16R,0.023600X0.019700*%
%ADD17R,0.031500X0.019700*%
%ADD18R,0.011800X0.019700*%
%ADD19R,0.037402X0.033465*%
%ADD20R,0.027559X0.055118*%
%ADD21R,0.259843X0.259843*%
%ADD22O,0.009449X0.023622*%
%ADD23O,0.023622X0.009449*%
%ADD24R,0.039370X0.021654*%
%ADD25R,0.165354X0.027559*%
%ADD26O,0.017717X0.043307*%
%ADD27R,0.161417X0.094488*%
%ADD28R,0.059055X0.059055*%
%ADD29R,0.009449X0.035433*%
%ADD30R,0.035433X0.009449*%
G04 APERTURE END LIST*
G54D10*
G54D11*
X25521Y-18843D03*
X25521Y-18528D03*
X27633Y-21160D03*
X27633Y-20845D03*
X26314Y-21237D03*
X26314Y-20922D03*
X28161Y-38725D03*
X28161Y-39040D03*
X28947Y-38728D03*
X28947Y-39043D03*
G54D12*
X28640Y-39700D03*
X29240Y-39700D03*
G54D11*
X29225Y-21836D03*
X29225Y-21521D03*
G54D13*
X31486Y-23064D03*
X31171Y-23064D03*
X30238Y-22397D03*
X30553Y-22397D03*
G54D12*
X26687Y-38331D03*
X27287Y-38331D03*
G54D14*
X26887Y-37421D03*
X26887Y-36821D03*
G54D11*
X29319Y-27652D03*
X29319Y-27967D03*
G54D13*
X31185Y-26478D03*
X31500Y-26478D03*
G54D15*
X28666Y-23398D03*
X28666Y-22965D03*
G54D16*
X29163Y-22621D03*
X28730Y-22621D03*
X27739Y-21431D03*
X28172Y-21431D03*
X29283Y-21011D03*
X28850Y-21011D03*
G54D15*
X28356Y-22964D03*
X28356Y-23397D03*
G54D13*
X31212Y-24746D03*
X31527Y-24746D03*
G54D15*
X28286Y-21849D03*
X28286Y-22282D03*
G54D11*
X29807Y-22945D03*
X29807Y-22630D03*
G54D13*
X26792Y-23560D03*
X26477Y-23560D03*
G54D11*
X29466Y-22945D03*
X29466Y-22630D03*
X27401Y-22952D03*
X27401Y-22637D03*
X27047Y-22952D03*
X27047Y-22637D03*
G54D14*
X26295Y-37422D03*
X26295Y-36822D03*
G54D15*
X28725Y-22278D03*
X28725Y-21845D03*
X28506Y-21437D03*
X28506Y-21004D03*
G54D16*
X27850Y-22621D03*
X28283Y-22621D03*
G54D13*
X28480Y-38427D03*
X28165Y-38427D03*
X29266Y-38427D03*
X28951Y-38427D03*
G54D11*
X25865Y-18843D03*
X25865Y-18528D03*
G54D13*
X31171Y-23373D03*
X31486Y-23373D03*
G54D11*
X26615Y-22903D03*
X26615Y-22588D03*
G54D16*
X27542Y-18611D03*
X27109Y-18611D03*
X27959Y-18611D03*
X28392Y-18611D03*
G54D13*
X27138Y-38783D03*
X26823Y-38783D03*
G54D11*
X26380Y-21937D03*
X26380Y-22252D03*
X31645Y-28207D03*
X31645Y-28522D03*
X30910Y-28207D03*
X30910Y-28522D03*
X30180Y-28207D03*
X30180Y-28522D03*
G54D13*
X31594Y-21783D03*
X31279Y-21783D03*
X31342Y-21414D03*
X31027Y-21414D03*
G54D17*
X29794Y-18645D03*
X29794Y-19137D03*
X29794Y-20121D03*
X29794Y-19629D03*
X29006Y-19629D03*
X29006Y-20121D03*
X29006Y-19137D03*
X29006Y-18645D03*
G54D18*
X26815Y-21580D03*
X27209Y-21580D03*
X27209Y-22210D03*
X27012Y-22210D03*
X26815Y-22210D03*
G54D19*
X29756Y-21875D03*
X30327Y-21875D03*
X30327Y-21422D03*
X29756Y-21422D03*
G54D20*
X27269Y-21090D03*
X26678Y-21090D03*
G54D21*
X28890Y-25321D03*
G54D22*
X28791Y-26856D03*
X28595Y-26856D03*
X28398Y-26856D03*
X28201Y-26856D03*
X28004Y-26856D03*
X27807Y-26856D03*
X27610Y-26856D03*
X28988Y-26856D03*
X29185Y-26856D03*
X29382Y-26856D03*
X29579Y-26856D03*
X29776Y-26856D03*
X29972Y-26856D03*
X30169Y-26856D03*
X30169Y-23785D03*
X29972Y-23785D03*
X29776Y-23785D03*
X29579Y-23785D03*
X29382Y-23785D03*
X29185Y-23785D03*
X28988Y-23785D03*
X28791Y-23785D03*
X28595Y-23785D03*
X28398Y-23785D03*
X28201Y-23785D03*
X28004Y-23785D03*
X27807Y-23785D03*
X27610Y-23785D03*
G54D23*
X30425Y-26600D03*
X30425Y-26403D03*
X30425Y-26206D03*
X30425Y-26009D03*
X30425Y-25813D03*
X30425Y-25616D03*
X30425Y-25419D03*
X30425Y-25222D03*
X30425Y-25025D03*
X30425Y-24828D03*
X30425Y-24632D03*
X30425Y-24435D03*
X30425Y-24238D03*
X30425Y-24041D03*
X27354Y-24041D03*
X27354Y-24238D03*
X27354Y-24435D03*
X27354Y-24632D03*
X27354Y-24828D03*
X27354Y-25025D03*
X27354Y-25222D03*
X27354Y-25419D03*
X27354Y-25616D03*
X27354Y-25813D03*
X27354Y-26009D03*
X27354Y-26206D03*
X27354Y-26403D03*
X27354Y-26600D03*
G54D24*
X28571Y-37894D03*
X28571Y-37145D03*
X27508Y-37894D03*
X28571Y-37520D03*
X27508Y-37145D03*
G54D11*
X28404Y-19348D03*
X28404Y-19663D03*
G54D13*
X31198Y-22536D03*
X31513Y-22536D03*
X26998Y-26448D03*
X26683Y-26448D03*
X27023Y-27024D03*
X26708Y-27024D03*
G54D25*
X31640Y-30000D03*
X31640Y-30394D03*
X31640Y-30787D03*
X31640Y-31181D03*
X31640Y-31575D03*
X31640Y-31969D03*
X31640Y-32362D03*
X31640Y-37520D03*
X31640Y-37126D03*
X31640Y-36732D03*
X31640Y-36339D03*
X31640Y-35945D03*
X31640Y-35551D03*
X31640Y-35158D03*
X31640Y-34764D03*
X31640Y-34370D03*
X31640Y-33976D03*
X31640Y-33583D03*
X31640Y-33583D03*
X31640Y-33976D03*
X31640Y-34370D03*
X31640Y-34764D03*
X31640Y-35158D03*
X31640Y-35551D03*
X31640Y-35945D03*
X31640Y-36339D03*
X31640Y-36732D03*
X31640Y-37126D03*
X31640Y-37520D03*
X31640Y-32362D03*
X31640Y-31969D03*
X31640Y-31575D03*
X31640Y-31181D03*
X31640Y-30787D03*
X31640Y-30394D03*
X31640Y-30000D03*
G54D26*
X30500Y-18577D03*
X31000Y-18577D03*
X31500Y-18577D03*
X32000Y-18577D03*
G54D27*
X31250Y-19680D03*
G54D26*
X32000Y-20782D03*
X31500Y-20782D03*
X31000Y-20782D03*
X30500Y-20782D03*
G54D28*
X26550Y-19705D03*
G54D29*
X26254Y-20315D03*
X26451Y-20315D03*
X26648Y-20315D03*
X26845Y-20315D03*
X26845Y-19094D03*
X26648Y-19094D03*
X26451Y-19094D03*
X26254Y-19094D03*
G54D30*
X27160Y-20000D03*
X27160Y-19409D03*
X25939Y-19409D03*
X25939Y-19606D03*
X25939Y-19803D03*
X25939Y-20000D03*
G54D11*
X27600Y-22197D03*
X27600Y-21882D03*
G54D13*
X27972Y-28773D03*
X28287Y-28773D03*
G54D11*
X29860Y-27892D03*
X29860Y-28207D03*
X30590Y-27892D03*
X30590Y-28207D03*
X31325Y-27892D03*
X31325Y-28207D03*
M02*
