M48
;DRILL file {Pcbnew (2013-mar-13)-testing} date Fri 20 Dec 2013 02:45:36 PM CET
;FORMAT={-:-/ absolute / inch / decimal}
FMAT,2
INCH,TZ
T1C0.016
T2C0.016
T3C0.024
T4C0.030
T5C0.039
T6C0.039
T7C0.047
T8C0.092
%
G90
G05
M72
T1
X2.527Y-2.018
X2.527Y-2.068
X2.527Y-2.118
X2.527Y-2.168
X2.527Y-2.218
X2.527Y-2.268
X2.527Y-2.318
X2.527Y-2.368
X2.527Y-2.418
X2.527Y-2.468
X2.527Y-2.518
X2.527Y-2.568
X2.527Y-2.618
X2.527Y-2.668
X2.527Y-2.718
X2.527Y-2.768
X2.527Y-2.818
X2.527Y-2.868
X2.5578Y-3.6925
X2.5578Y-3.7425
X2.6642Y-2.9787
X2.6642Y-3.0287
X2.6642Y-3.0787
X2.6642Y-3.1287
X2.6642Y-3.1787
X2.6642Y-3.2287
X2.6642Y-3.2787
X2.6642Y-3.3287
X2.6642Y-3.3787
X2.6642Y-3.4287
X2.6642Y-3.4787
X2.6642Y-3.5287
X2.6642Y-3.5787
X2.6642Y-3.6287
X2.7142Y-2.9787
X2.7142Y-3.0287
X2.7142Y-3.0787
X2.7142Y-3.1287
X2.7142Y-3.1787
X2.7142Y-3.2287
X2.7142Y-3.2787
X2.7142Y-3.3287
X2.7142Y-3.3787
X2.7142Y-3.4287
X2.7142Y-3.4787
X2.7142Y-3.5287
X2.7142Y-3.5787
X2.7142Y-3.6287
X2.7642Y-2.9787
X2.7642Y-3.0287
X2.7642Y-3.0787
X2.7642Y-3.1287
X2.7642Y-3.1787
X2.7642Y-3.2287
X2.7642Y-3.2787
X2.7642Y-3.3287
X2.7642Y-3.3787
X2.7642Y-3.4287
X2.7642Y-3.4787
X2.7642Y-3.5287
X2.7642Y-3.5787
X2.7642Y-3.6287
X2.8142Y-2.9787
X2.8142Y-3.0287
X2.8142Y-3.0787
X2.8142Y-3.1287
X2.8142Y-3.1787
X2.8142Y-3.2287
X2.8142Y-3.2787
X2.8142Y-3.3287
X2.8142Y-3.3787
X2.8142Y-3.4287
X2.8142Y-3.4787
X2.8142Y-3.5287
X2.8142Y-3.5787
X2.8142Y-3.6287
X2.8642Y-3.3787
X2.8642Y-3.4287
X2.8642Y-3.4787
X2.8642Y-3.5287
X2.8642Y-3.5787
X2.8642Y-3.6287
X2.935Y-2.993
X2.935Y-3.043
X2.935Y-3.093
X2.935Y-3.143
X2.935Y-3.193
X2.935Y-3.243
X2.935Y-3.329
X2.935Y-3.379
X2.935Y-3.429
X2.935Y-3.479
X2.935Y-3.529
X2.935Y-3.579
X2.935Y-3.629
X2.935Y-3.679
X2.935Y-3.729
X2.935Y-3.779
X2.985Y-3.018
X2.985Y-3.068
X2.985Y-3.118
X2.985Y-3.168
X2.985Y-3.218
X2.985Y-3.3698
X2.985Y-3.4198
X2.985Y-3.4698
X2.985Y-3.5198
X2.985Y-3.5698
X2.985Y-3.6198
X2.985Y-3.6698
X2.985Y-3.7198
X3.2631Y-2.0152
X3.2631Y-2.0652
X3.2631Y-2.1152
X3.2631Y-2.1652
X3.2631Y-2.2152
X3.2631Y-2.2652
X3.2631Y-2.3152
X3.2631Y-2.3652
X3.2631Y-2.4152
X3.2631Y-2.4652
X3.2631Y-2.5152
X3.2631Y-2.5652
X3.2631Y-2.6152
X3.2631Y-2.6652
X3.2631Y-2.7152
X3.2631Y-2.7652
X3.2631Y-2.8152
X3.2631Y-2.8652
T2
X2.5486Y-1.9576
X2.5656Y-1.9161
X2.5818Y-2.061
X2.5832Y-2.0264
X2.6005Y-1.916
X2.6178Y-1.8585
X2.6397Y-2.6121
X2.6398Y-2.6865
X2.6402Y-2.4784
X2.6403Y-2.6478
X2.6414Y-3.8722
X2.644Y-2.16
X2.6472Y-2.5128
X2.655Y-1.9705
X2.6554Y-2.3252
X2.6578Y-1.8694
X2.6652Y-2.8635
X2.671Y-1.8363
X2.6754Y-2.394
X2.6905Y-2.188
X2.6985Y-2.496
X2.6995Y-2.0255
X2.6999Y-2.6697
X2.703Y-2.5455
X2.709Y-3.937
X2.7095Y-1.9143
X2.71Y-2.9125
X2.7161Y-1.9682
X2.7285Y-2.1895
X2.7288Y-2.0444
X2.7354Y-2.6813
X2.7411Y-2.3373
X2.7413Y-2.1575
X2.7471Y-2.8617
X2.7512Y-2.7272
X2.7579Y-2.2341
X2.7705Y-3.6773
X2.7819Y-2.2953
X2.785Y-2.9125
X2.786Y-2.723
X2.7998Y-2.4334
X2.8Y-2.48
X2.8Y-2.53
X2.8Y-2.58
X2.8Y-2.63
X2.8166Y-3.8112
X2.8221Y-2.7205
X2.8242Y-2.7564
X2.8427Y-1.8912
X2.8541Y-3.3212
X2.8868Y-3.3451
X2.889Y-2.5321
X2.889Y-2.63
X2.89Y-2.4332
X2.89Y-2.48
X2.89Y-2.58
X2.895Y-3.8114
X2.8979Y-2.8105
X2.9015Y-3.754
X2.9017Y-3.704
X2.9128Y-2.339
X2.9334Y-2.7288
X2.9338Y-2.2244
X2.9456Y-2.3261
X2.9753Y-2.0768
X2.9777Y-2.2254
X2.9796Y-2.4332
X2.98Y-2.48
X2.98Y-2.53
X2.98Y-2.58
X2.98Y-2.63
X2.9855Y-2.7475
X3.0051Y-2.3213
X3.012Y-2.2857
X3.0182Y-1.8432
X3.0188Y-2.082
X3.0234Y-1.8914
X3.024Y-2.7475
X3.0453Y-2.322
X3.0612Y-3.2398
X3.064Y-2.7475
X3.0702Y-2.3492
X3.08Y-1.95
X3.0803Y-2.499
X3.0884Y-2.6601
X3.0929Y-2.3758
X3.094Y-2.173
X3.125Y-1.968
X3.1251Y-2.106
X3.1271Y-2.4991
X3.1273Y-2.2094
X3.1407Y-2.3685
X3.1425Y-2.7475
X3.1501Y-2.6208
X3.1513Y-2.2799
X3.1521Y-2.4413
X3.1614Y-2.2093
X3.17Y-1.99
X3.1895Y-2.7465
X3.2147Y-2.8574
X3.2338Y-1.8434
T3
X2.7569Y-3.8833
X2.8553Y-3.8833
X2.9341Y-3.8833
X3.0325Y-3.8833
T4
X2.6725Y-2.9125
X2.7475Y-2.9125
X2.8225Y-2.9125
T6
X2.5734Y-3.9108
X3.214Y-3.9124
T7
X2.8041Y-3.966
X2.9853Y-3.966
T8
X2.5947Y-3.8216
X3.1947Y-3.8216
T5
X2.6585Y-3.9364G85X2.6585Y-3.9955
G05
X3.1309Y-3.9364G85X3.1309Y-3.9955
G05
T0
M30
