G04 (created by PCBNEW (2013-mar-13)-testing) date Fri 20 Dec 2013 02:45:34 PM CET*
%MOIN*%
G04 Gerber Fmt 3.4, Leading zero omitted, Abs format*
%FSLAX34Y34*%
G01*
G70*
G90*
G04 APERTURE LIST*
%ADD10C,0.003937*%
%ADD11C,0.092000*%
%ADD12R,0.059100X0.059100*%
%ADD13C,0.059100*%
%ADD14C,0.030000*%
%ADD15O,0.059055X0.118110*%
%ADD16C,0.047244*%
%ADD17C,0.039370*%
%ADD18R,0.031000X0.031000*%
%ADD19C,0.031000*%
%ADD20C,0.028000*%
%ADD21C,0.006000*%
G04 APERTURE END LIST*
G54D10*
G54D11*
X31947Y-38216D03*
X25947Y-38216D03*
G54D12*
X25734Y-39108D03*
G54D13*
X32140Y-39124D03*
G54D14*
X27475Y-29125D03*
X28225Y-29125D03*
X26725Y-29125D03*
G54D15*
X31309Y-39659D03*
X26584Y-39659D03*
G54D16*
X28041Y-39659D03*
X29852Y-39659D03*
G54D17*
X27569Y-38832D03*
X28553Y-38832D03*
X29340Y-38832D03*
X30324Y-38832D03*
G54D18*
X29350Y-33290D03*
X29350Y-37790D03*
X29350Y-37290D03*
X29350Y-36790D03*
X29350Y-36290D03*
X29350Y-35790D03*
X29350Y-35290D03*
X29350Y-34790D03*
X29350Y-34290D03*
X29350Y-33790D03*
X29850Y-37198D03*
X29850Y-36698D03*
X29850Y-36198D03*
X29850Y-35698D03*
X29850Y-35198D03*
X29850Y-34698D03*
X29850Y-34198D03*
X29850Y-33698D03*
G54D19*
X26642Y-34787D03*
X27142Y-34787D03*
X27642Y-34787D03*
X28142Y-34787D03*
X28642Y-34787D03*
X27642Y-35287D03*
X28142Y-35287D03*
X28642Y-35287D03*
X27142Y-35287D03*
X26642Y-35287D03*
X26642Y-34287D03*
X27142Y-34287D03*
X27642Y-34287D03*
X28142Y-34287D03*
X28642Y-34287D03*
X26642Y-33787D03*
X27142Y-33787D03*
X27642Y-33787D03*
X28142Y-33787D03*
X28642Y-33787D03*
X26642Y-35787D03*
X26642Y-36287D03*
X27142Y-36287D03*
X27142Y-35787D03*
X27642Y-35787D03*
X27642Y-36287D03*
X28142Y-35787D03*
X28142Y-36287D03*
X28642Y-35787D03*
X28642Y-36287D03*
X26642Y-33287D03*
X27142Y-33287D03*
X27642Y-33287D03*
X28142Y-33287D03*
X28142Y-32787D03*
X27642Y-32787D03*
X27142Y-32787D03*
X26642Y-32787D03*
X26642Y-32287D03*
X27142Y-32287D03*
X27642Y-32287D03*
X28142Y-32287D03*
X28142Y-31787D03*
X27642Y-31787D03*
X27142Y-31787D03*
X26642Y-31787D03*
X26642Y-31287D03*
X27142Y-31287D03*
X27642Y-31287D03*
X28142Y-31287D03*
X28142Y-30787D03*
X27642Y-30787D03*
X27142Y-30787D03*
X26642Y-30787D03*
X26642Y-30287D03*
X27142Y-30287D03*
X27642Y-30287D03*
X27642Y-29787D03*
X27142Y-29787D03*
X26642Y-29787D03*
X28142Y-29787D03*
X28142Y-30287D03*
X25578Y-36925D03*
G54D18*
X25578Y-37425D03*
X25270Y-24180D03*
X25270Y-23680D03*
X25270Y-23180D03*
X25270Y-22680D03*
X25270Y-22180D03*
X25270Y-21680D03*
X25270Y-21180D03*
X25270Y-20680D03*
X25270Y-20180D03*
X25270Y-28680D03*
X25270Y-28180D03*
X25270Y-27680D03*
X25270Y-27180D03*
X25270Y-26680D03*
X25270Y-26180D03*
X25270Y-25680D03*
X25270Y-25180D03*
X25270Y-24680D03*
X32631Y-24152D03*
X32631Y-23652D03*
X32631Y-23152D03*
X32631Y-22652D03*
X32631Y-22152D03*
X32631Y-21652D03*
X32631Y-21152D03*
X32631Y-20652D03*
X32631Y-20152D03*
X32631Y-28652D03*
X32631Y-28152D03*
X32631Y-27652D03*
X32631Y-27152D03*
X32631Y-26652D03*
X32631Y-26152D03*
X32631Y-25652D03*
X32631Y-25152D03*
X32631Y-24652D03*
X29350Y-29930D03*
X29350Y-30430D03*
X29350Y-30930D03*
X29350Y-31430D03*
X29350Y-31930D03*
X29350Y-32430D03*
X29850Y-30180D03*
X29850Y-30680D03*
X29850Y-31180D03*
X29850Y-31680D03*
X29850Y-32180D03*
G54D20*
X31895Y-27465D03*
X30612Y-32398D03*
X30803Y-24990D03*
X27579Y-22341D03*
X26440Y-21600D03*
X29753Y-20768D03*
X30453Y-23220D03*
X26005Y-19160D03*
X31251Y-21060D03*
X30702Y-23492D03*
X32338Y-18434D03*
X26178Y-18585D03*
X26710Y-18363D03*
X28541Y-33212D03*
X27850Y-29125D03*
X26414Y-38722D03*
X27090Y-39370D03*
X27705Y-36773D03*
X27471Y-28617D03*
X31513Y-22799D03*
X27100Y-29125D03*
X26403Y-26478D03*
X26550Y-19705D03*
X30800Y-19500D03*
X31250Y-19680D03*
X31700Y-19900D03*
X27411Y-23373D03*
X32147Y-28574D03*
X31501Y-26208D03*
X28979Y-28105D03*
X25486Y-19576D03*
X28427Y-18912D03*
X31521Y-24413D03*
X28900Y-25800D03*
X28000Y-24800D03*
X29800Y-24800D03*
X28890Y-26300D03*
X29800Y-25800D03*
X28000Y-25800D03*
X27998Y-24334D03*
X29796Y-24332D03*
X28000Y-26300D03*
X29800Y-26300D03*
X29800Y-25300D03*
X28000Y-25300D03*
X28900Y-24800D03*
X28900Y-24332D03*
X28890Y-25321D03*
X29015Y-37540D03*
X29017Y-37040D03*
X30640Y-27475D03*
X30240Y-27475D03*
X29855Y-27475D03*
X26905Y-21880D03*
X26402Y-24784D03*
X26554Y-23252D03*
X25818Y-20610D03*
X27285Y-21895D03*
X26985Y-24960D03*
X25832Y-20264D03*
X27413Y-21575D03*
X27161Y-19682D03*
X30188Y-20820D03*
X27095Y-19143D03*
X27354Y-26813D03*
X30051Y-23213D03*
X26995Y-20255D03*
X27030Y-25455D03*
X27288Y-20444D03*
X26472Y-25128D03*
X26578Y-18694D03*
X31425Y-27475D03*
X31273Y-22094D03*
X30234Y-18914D03*
X31407Y-23685D03*
X28868Y-33451D03*
X30182Y-18432D03*
X30940Y-21730D03*
X30929Y-23758D03*
X28242Y-27564D03*
X28166Y-38112D03*
X27860Y-27230D03*
X26397Y-26121D03*
X27512Y-27272D03*
X26398Y-26865D03*
X28950Y-38114D03*
X26652Y-28635D03*
X26754Y-23940D03*
X31614Y-22093D03*
X30884Y-26601D03*
X26999Y-26697D03*
X31271Y-24991D03*
X25656Y-19161D03*
X29334Y-27288D03*
X30120Y-22857D03*
X27819Y-22953D03*
X28221Y-27205D03*
X29777Y-22254D03*
X29456Y-23261D03*
X29338Y-22244D03*
X29128Y-23390D03*
G54D21*
X31895Y-27465D02*
X31895Y-28081D01*
X31895Y-28081D02*
X31346Y-28630D01*
X30176Y-32456D02*
X30554Y-32456D01*
X31346Y-28630D02*
X29615Y-28630D01*
X29615Y-28630D02*
X28855Y-29390D01*
X28855Y-29390D02*
X28855Y-31935D01*
X28855Y-32503D02*
X29086Y-32734D01*
X29086Y-32734D02*
X29500Y-32734D01*
X29500Y-32734D02*
X29778Y-32456D01*
X29778Y-32456D02*
X30176Y-32456D01*
X28855Y-31935D02*
X28855Y-32503D01*
X30554Y-32456D02*
X30612Y-32398D01*
X30803Y-24990D02*
X30803Y-24667D01*
X30891Y-24579D02*
X32040Y-23430D01*
X32040Y-23430D02*
X32040Y-23013D01*
X32040Y-23013D02*
X32401Y-22652D01*
X32401Y-22652D02*
X32631Y-22652D01*
X30803Y-24667D02*
X30891Y-24579D01*
X27801Y-21334D02*
X27801Y-22119D01*
X27579Y-22341D02*
X27801Y-22119D01*
X32631Y-24652D02*
X32631Y-24704D01*
X28979Y-31559D02*
X29350Y-31930D01*
X28979Y-29440D02*
X28979Y-31559D01*
X29665Y-28755D02*
X28979Y-29440D01*
X31406Y-28755D02*
X29665Y-28755D01*
X32255Y-27906D02*
X31406Y-28755D01*
X32255Y-26905D02*
X32255Y-27906D01*
X32380Y-26780D02*
X32255Y-26905D01*
X32380Y-24955D02*
X32380Y-26780D01*
X32631Y-24704D02*
X32380Y-24955D01*
X26585Y-21455D02*
X26706Y-21334D01*
X26706Y-21334D02*
X27801Y-21334D01*
X27801Y-21334D02*
X28239Y-21334D01*
X28239Y-21334D02*
X28360Y-21455D01*
X28825Y-23275D02*
X28825Y-23505D01*
X26440Y-21600D02*
X26585Y-21455D01*
X28360Y-21455D02*
X28825Y-21920D01*
X28825Y-21920D02*
X28825Y-23275D01*
X29410Y-23860D02*
X30140Y-23860D01*
X30140Y-23860D02*
X30463Y-24183D01*
X30463Y-24183D02*
X30463Y-25091D01*
X30463Y-25091D02*
X30632Y-25260D01*
X30632Y-25260D02*
X31550Y-25260D01*
X31550Y-25260D02*
X32158Y-24652D01*
X32631Y-24652D02*
X32158Y-24652D01*
X29180Y-23860D02*
X29410Y-23860D01*
X28825Y-23505D02*
X29180Y-23860D01*
X29753Y-20768D02*
X30453Y-21468D01*
X30453Y-21468D02*
X30449Y-21468D01*
X30449Y-21468D02*
X30453Y-21468D01*
X30453Y-23220D02*
X30453Y-21468D01*
X25270Y-20180D02*
X25491Y-20180D01*
X26005Y-19160D02*
X26007Y-19162D01*
X26007Y-19162D02*
X26007Y-19664D01*
X26007Y-19664D02*
X25604Y-20067D01*
X25491Y-20180D02*
X25604Y-20067D01*
X30704Y-21607D02*
X31251Y-21060D01*
X30704Y-23490D02*
X30704Y-21607D01*
X30702Y-23492D02*
X30704Y-23490D01*
X27850Y-29336D02*
X27967Y-29453D01*
X27967Y-29453D02*
X28321Y-29453D01*
X28321Y-29453D02*
X28497Y-29629D01*
X28497Y-29629D02*
X28497Y-33168D01*
X28497Y-33168D02*
X28541Y-33212D01*
X27850Y-29125D02*
X27850Y-29336D01*
X27090Y-39370D02*
X27593Y-39370D01*
X27593Y-39370D02*
X27732Y-39231D01*
X27732Y-39231D02*
X29926Y-39231D01*
X29926Y-39231D02*
X30324Y-38832D01*
X31250Y-19680D02*
X30980Y-19680D01*
X30980Y-19680D02*
X30800Y-19500D01*
X31250Y-19680D02*
X31480Y-19680D01*
X31480Y-19680D02*
X31700Y-19900D01*
X27998Y-24334D02*
X28000Y-23962D01*
X28000Y-23962D02*
X27411Y-23373D01*
X29350Y-37290D02*
X26665Y-37290D01*
X26665Y-37290D02*
X25520Y-36145D01*
X25340Y-27680D02*
X25520Y-27860D01*
X25340Y-27680D02*
X25270Y-27680D01*
X25520Y-27860D02*
X25520Y-36145D01*
X29350Y-30930D02*
X29350Y-30876D01*
X31492Y-28880D02*
X29720Y-28880D01*
X32380Y-27992D02*
X31492Y-28880D01*
X32380Y-26960D02*
X32380Y-27992D01*
X32631Y-26709D02*
X32380Y-26960D01*
X32631Y-26709D02*
X32631Y-26652D01*
X29102Y-29498D02*
X29720Y-28880D01*
X29102Y-30628D02*
X29102Y-29498D01*
X29350Y-30876D02*
X29102Y-30628D01*
X29350Y-30880D02*
X29350Y-30930D01*
X29350Y-37790D02*
X26909Y-37790D01*
X26909Y-37790D02*
X25360Y-36241D01*
X25270Y-28680D02*
X25270Y-28730D01*
X25270Y-28730D02*
X25360Y-28820D01*
X25360Y-28820D02*
X25360Y-36241D01*
X29350Y-34790D02*
X29350Y-34776D01*
X29111Y-34537D02*
X28662Y-34537D01*
X29350Y-34776D02*
X29111Y-34537D01*
X26008Y-25768D02*
X26008Y-22418D01*
X26008Y-25768D02*
X26008Y-27463D01*
X26008Y-27463D02*
X26133Y-27588D01*
X26133Y-27588D02*
X26133Y-34337D01*
X26133Y-34337D02*
X26333Y-34537D01*
X26333Y-34537D02*
X28662Y-34537D01*
X26008Y-22418D02*
X25270Y-21680D01*
X26454Y-23352D02*
X26554Y-23252D01*
X26402Y-24784D02*
X26454Y-24732D01*
X26454Y-24732D02*
X26454Y-23352D01*
X26999Y-22589D02*
X26999Y-24946D01*
X26812Y-21575D02*
X26661Y-21726D01*
X26661Y-21726D02*
X26661Y-22251D01*
X26661Y-22251D02*
X26999Y-22589D01*
X26812Y-21575D02*
X27413Y-21575D01*
X26999Y-24946D02*
X26985Y-24960D01*
X29350Y-35290D02*
X29350Y-35274D01*
X29113Y-35037D02*
X28677Y-35037D01*
X29350Y-35274D02*
X29113Y-35037D01*
X25886Y-25820D02*
X25886Y-23296D01*
X25886Y-23296D02*
X25270Y-22680D01*
X26010Y-34870D02*
X26010Y-34880D01*
X26167Y-35037D02*
X28677Y-35037D01*
X26010Y-34880D02*
X26167Y-35037D01*
X26009Y-27650D02*
X26010Y-27650D01*
X26009Y-27641D02*
X26009Y-27650D01*
X25886Y-27518D02*
X26009Y-27641D01*
X25886Y-25820D02*
X25886Y-27518D01*
X26010Y-27650D02*
X26010Y-34870D01*
X27413Y-21575D02*
X27412Y-21576D01*
X29350Y-36290D02*
X29298Y-36290D01*
X25766Y-35798D02*
X25766Y-27746D01*
X25766Y-35798D02*
X25766Y-35837D01*
X25969Y-36040D02*
X25766Y-35837D01*
X29048Y-36040D02*
X25969Y-36040D01*
X29298Y-36290D02*
X29048Y-36040D01*
X29350Y-36290D02*
X29350Y-36286D01*
X25642Y-25928D02*
X25642Y-25052D01*
X25642Y-25928D02*
X25642Y-27622D01*
X25642Y-27622D02*
X25766Y-27746D01*
X25642Y-25052D02*
X25270Y-24680D01*
X27095Y-19143D02*
X28511Y-19143D01*
X28511Y-19143D02*
X30188Y-20820D01*
X25887Y-27694D02*
X25887Y-35197D01*
X25764Y-25874D02*
X25764Y-24174D01*
X25270Y-23680D02*
X25764Y-24174D01*
X25764Y-27571D02*
X25887Y-27694D01*
X25764Y-25874D02*
X25764Y-27571D01*
X26230Y-35540D02*
X26275Y-35540D01*
X25887Y-35197D02*
X26230Y-35540D01*
X29335Y-35790D02*
X29085Y-35540D01*
X29085Y-35540D02*
X26275Y-35540D01*
X29335Y-35790D02*
X29350Y-35790D01*
X29350Y-35790D02*
X29342Y-35790D01*
X31425Y-27475D02*
X31425Y-28165D01*
X31425Y-28165D02*
X31085Y-28505D01*
X29100Y-33540D02*
X29350Y-33790D01*
X29100Y-33354D02*
X29100Y-33540D01*
X28730Y-32984D02*
X29100Y-33354D01*
X28730Y-29335D02*
X28730Y-32984D01*
X29560Y-28505D02*
X28730Y-29335D01*
X31085Y-28505D02*
X29560Y-28505D01*
X32631Y-20652D02*
X30613Y-20652D01*
X30234Y-20273D02*
X30234Y-18914D01*
X30613Y-20652D02*
X30234Y-20273D01*
X31274Y-22116D02*
X31274Y-21450D01*
X32072Y-20652D02*
X32631Y-20652D01*
X31274Y-21450D02*
X32072Y-20652D01*
X31274Y-23552D02*
X31274Y-22116D01*
X31407Y-23685D02*
X31274Y-23552D01*
X30182Y-18432D02*
X30911Y-18432D01*
X30911Y-18432D02*
X32631Y-20152D01*
X30940Y-23747D02*
X30940Y-21730D01*
X30929Y-23758D02*
X30940Y-23747D01*
X27543Y-26207D02*
X26483Y-26207D01*
X27858Y-26526D02*
X27858Y-26522D01*
X27860Y-26524D02*
X27858Y-26526D01*
X27858Y-26522D02*
X27543Y-26207D01*
X27860Y-27230D02*
X27860Y-26524D01*
X26483Y-26207D02*
X26397Y-26121D01*
X29350Y-36790D02*
X29250Y-36790D01*
X29000Y-36540D02*
X26127Y-36540D01*
X29250Y-36790D02*
X29000Y-36540D01*
X26821Y-26442D02*
X27473Y-26442D01*
X27630Y-26997D02*
X27630Y-26599D01*
X27473Y-26442D02*
X27630Y-26599D01*
X27512Y-27272D02*
X27630Y-27154D01*
X27630Y-27154D02*
X27630Y-26997D01*
X26398Y-26865D02*
X26821Y-26442D01*
X25643Y-27798D02*
X25643Y-36056D01*
X26127Y-36540D02*
X25643Y-36056D01*
X25518Y-25987D02*
X25518Y-27673D01*
X25518Y-27673D02*
X25643Y-27798D01*
X25270Y-25680D02*
X25518Y-25928D01*
X25518Y-25987D02*
X25518Y-25928D01*
X26258Y-33730D02*
X26258Y-33847D01*
X28640Y-34040D02*
X26570Y-34040D01*
X26130Y-27408D02*
X26130Y-25717D01*
X26258Y-27536D02*
X26130Y-27408D01*
X25270Y-20680D02*
X26130Y-21540D01*
X26130Y-25717D02*
X26130Y-21540D01*
X29100Y-34040D02*
X28640Y-34040D01*
X29100Y-34040D02*
X29350Y-34290D01*
X26258Y-33730D02*
X26258Y-27536D01*
X26451Y-34040D02*
X26570Y-34040D01*
X26258Y-33847D02*
X26451Y-34040D01*
X29777Y-22254D02*
X29456Y-22575D01*
X29456Y-22575D02*
X29456Y-23261D01*
X29128Y-22454D02*
X29128Y-23390D01*
X29338Y-22244D02*
X29128Y-22454D01*
G54D10*
G36*
X26705Y-26352D02*
X26447Y-26610D01*
X26347Y-26609D01*
X26275Y-26639D01*
X26275Y-26346D01*
X26346Y-26375D01*
X26447Y-26376D01*
X26505Y-26352D01*
X26705Y-26352D01*
X26705Y-26352D01*
G37*
G54D21*
X26705Y-26352D02*
X26447Y-26610D01*
X26347Y-26609D01*
X26275Y-26639D01*
X26275Y-26346D01*
X26346Y-26375D01*
X26447Y-26376D01*
X26505Y-26352D01*
X26705Y-26352D01*
G54D10*
G36*
X29039Y-36785D02*
X28966Y-36784D01*
X28872Y-36823D01*
X28800Y-36895D01*
X28762Y-36989D01*
X28761Y-37090D01*
X28784Y-37145D01*
X26725Y-37145D01*
X26265Y-36685D01*
X28939Y-36685D01*
X29039Y-36785D01*
X29039Y-36785D01*
G37*
G54D21*
X29039Y-36785D02*
X28966Y-36784D01*
X28872Y-36823D01*
X28800Y-36895D01*
X28762Y-36989D01*
X28761Y-37090D01*
X28784Y-37145D01*
X26725Y-37145D01*
X26265Y-36685D01*
X28939Y-36685D01*
X29039Y-36785D01*
G54D10*
G36*
X32332Y-24797D02*
X32277Y-24852D01*
X32246Y-24899D01*
X32244Y-24908D01*
X32235Y-24955D01*
X32235Y-26719D01*
X32152Y-26802D01*
X32121Y-26849D01*
X32119Y-26858D01*
X32110Y-26905D01*
X32110Y-27319D01*
X32039Y-27248D01*
X31945Y-27210D01*
X31844Y-27209D01*
X31750Y-27248D01*
X31678Y-27320D01*
X31657Y-27370D01*
X31641Y-27330D01*
X31569Y-27258D01*
X31475Y-27220D01*
X31374Y-27219D01*
X31280Y-27258D01*
X31208Y-27330D01*
X31170Y-27424D01*
X31169Y-27525D01*
X31208Y-27619D01*
X31280Y-27690D01*
X31280Y-28104D01*
X31139Y-28245D01*
X31139Y-26550D01*
X31100Y-26456D01*
X31028Y-26384D01*
X30934Y-26346D01*
X30833Y-26345D01*
X30739Y-26384D01*
X30667Y-26456D01*
X30629Y-26550D01*
X30628Y-26651D01*
X30667Y-26745D01*
X30739Y-26817D01*
X30833Y-26855D01*
X30934Y-26856D01*
X31028Y-26817D01*
X31100Y-26745D01*
X31138Y-26651D01*
X31139Y-26550D01*
X31139Y-28245D01*
X31024Y-28360D01*
X30895Y-28360D01*
X30895Y-27424D01*
X30856Y-27330D01*
X30784Y-27258D01*
X30690Y-27220D01*
X30589Y-27219D01*
X30495Y-27258D01*
X30439Y-27314D01*
X30384Y-27258D01*
X30290Y-27220D01*
X30189Y-27219D01*
X30095Y-27258D01*
X30047Y-27306D01*
X29999Y-27258D01*
X29905Y-27220D01*
X29804Y-27219D01*
X29710Y-27258D01*
X29638Y-27330D01*
X29600Y-27424D01*
X29599Y-27525D01*
X29638Y-27619D01*
X29710Y-27691D01*
X29804Y-27729D01*
X29905Y-27730D01*
X29999Y-27691D01*
X30047Y-27643D01*
X30095Y-27691D01*
X30189Y-27729D01*
X30290Y-27730D01*
X30384Y-27691D01*
X30440Y-27635D01*
X30495Y-27691D01*
X30589Y-27729D01*
X30690Y-27730D01*
X30784Y-27691D01*
X30856Y-27619D01*
X30894Y-27525D01*
X30895Y-27424D01*
X30895Y-28360D01*
X29589Y-28360D01*
X29589Y-27237D01*
X29550Y-27143D01*
X29478Y-27071D01*
X29384Y-27033D01*
X29283Y-27032D01*
X29189Y-27071D01*
X29117Y-27143D01*
X29079Y-27237D01*
X29078Y-27338D01*
X29117Y-27432D01*
X29189Y-27504D01*
X29283Y-27542D01*
X29384Y-27543D01*
X29478Y-27504D01*
X29550Y-27432D01*
X29588Y-27338D01*
X29589Y-27237D01*
X29589Y-28360D01*
X29560Y-28360D01*
X29513Y-28369D01*
X29504Y-28371D01*
X29457Y-28402D01*
X28627Y-29232D01*
X28596Y-29279D01*
X28594Y-29288D01*
X28585Y-29335D01*
X28585Y-32984D01*
X28594Y-33030D01*
X28596Y-33039D01*
X28627Y-33086D01*
X28760Y-33219D01*
X28723Y-33234D01*
X28651Y-33306D01*
X28613Y-33400D01*
X28612Y-33501D01*
X28619Y-33516D01*
X28588Y-33516D01*
X28490Y-33557D01*
X28490Y-29072D01*
X28449Y-28975D01*
X28375Y-28900D01*
X28277Y-28860D01*
X28172Y-28859D01*
X28075Y-28900D01*
X28000Y-28974D01*
X27960Y-29072D01*
X27959Y-29177D01*
X28000Y-29274D01*
X28074Y-29349D01*
X28172Y-29389D01*
X28277Y-29390D01*
X28374Y-29349D01*
X28449Y-29275D01*
X28489Y-29177D01*
X28490Y-29072D01*
X28490Y-33557D01*
X28489Y-33557D01*
X28413Y-33633D01*
X28391Y-33685D01*
X28371Y-33634D01*
X28295Y-33558D01*
X28243Y-33536D01*
X28294Y-33516D01*
X28370Y-33440D01*
X28411Y-33340D01*
X28412Y-33233D01*
X28371Y-33134D01*
X28295Y-33058D01*
X28243Y-33036D01*
X28294Y-33016D01*
X28370Y-32940D01*
X28411Y-32840D01*
X28412Y-32733D01*
X28371Y-32634D01*
X28295Y-32558D01*
X28243Y-32536D01*
X28294Y-32516D01*
X28370Y-32440D01*
X28411Y-32340D01*
X28412Y-32233D01*
X28371Y-32134D01*
X28295Y-32058D01*
X28243Y-32036D01*
X28294Y-32016D01*
X28370Y-31940D01*
X28411Y-31840D01*
X28412Y-31733D01*
X28371Y-31634D01*
X28295Y-31558D01*
X28243Y-31536D01*
X28294Y-31516D01*
X28370Y-31440D01*
X28411Y-31340D01*
X28412Y-31233D01*
X28371Y-31134D01*
X28295Y-31058D01*
X28243Y-31036D01*
X28294Y-31016D01*
X28370Y-30940D01*
X28411Y-30840D01*
X28412Y-30733D01*
X28371Y-30634D01*
X28295Y-30558D01*
X28243Y-30536D01*
X28294Y-30516D01*
X28370Y-30440D01*
X28411Y-30340D01*
X28412Y-30233D01*
X28371Y-30134D01*
X28295Y-30058D01*
X28243Y-30036D01*
X28294Y-30016D01*
X28370Y-29940D01*
X28411Y-29840D01*
X28412Y-29733D01*
X28371Y-29634D01*
X28295Y-29558D01*
X28195Y-29517D01*
X28088Y-29516D01*
X27989Y-29557D01*
X27913Y-29633D01*
X27891Y-29685D01*
X27871Y-29634D01*
X27795Y-29558D01*
X27740Y-29535D01*
X27740Y-29072D01*
X27699Y-28975D01*
X27625Y-28900D01*
X27527Y-28860D01*
X27422Y-28859D01*
X27325Y-28900D01*
X27250Y-28974D01*
X27210Y-29072D01*
X27209Y-29177D01*
X27250Y-29274D01*
X27324Y-29349D01*
X27422Y-29389D01*
X27527Y-29390D01*
X27624Y-29349D01*
X27699Y-29275D01*
X27739Y-29177D01*
X27740Y-29072D01*
X27740Y-29535D01*
X27695Y-29517D01*
X27588Y-29516D01*
X27489Y-29557D01*
X27413Y-29633D01*
X27391Y-29685D01*
X27371Y-29634D01*
X27295Y-29558D01*
X27195Y-29517D01*
X27088Y-29516D01*
X26989Y-29557D01*
X26913Y-29633D01*
X26891Y-29685D01*
X26871Y-29634D01*
X26795Y-29558D01*
X26695Y-29517D01*
X26588Y-29516D01*
X26489Y-29557D01*
X26413Y-29633D01*
X26403Y-29658D01*
X26403Y-28700D01*
X26435Y-28779D01*
X26507Y-28851D01*
X26600Y-28889D01*
X26575Y-28900D01*
X26500Y-28974D01*
X26460Y-29072D01*
X26459Y-29177D01*
X26500Y-29274D01*
X26574Y-29349D01*
X26672Y-29389D01*
X26777Y-29390D01*
X26874Y-29349D01*
X26949Y-29275D01*
X26989Y-29177D01*
X26990Y-29072D01*
X26949Y-28975D01*
X26875Y-28900D01*
X26777Y-28860D01*
X26775Y-28860D01*
X26796Y-28851D01*
X26868Y-28779D01*
X26906Y-28685D01*
X26907Y-28584D01*
X26868Y-28490D01*
X26796Y-28418D01*
X26702Y-28380D01*
X26601Y-28379D01*
X26507Y-28418D01*
X26435Y-28490D01*
X26403Y-28569D01*
X26403Y-27536D01*
X26393Y-27489D01*
X26391Y-27480D01*
X26391Y-27480D01*
X26360Y-27433D01*
X26360Y-27433D01*
X26275Y-27347D01*
X26275Y-27090D01*
X26347Y-27119D01*
X26448Y-27120D01*
X26542Y-27081D01*
X26614Y-27009D01*
X26652Y-26915D01*
X26653Y-26815D01*
X26743Y-26724D01*
X26743Y-26747D01*
X26782Y-26841D01*
X26854Y-26913D01*
X26948Y-26951D01*
X27049Y-26952D01*
X27122Y-26921D01*
X27137Y-26957D01*
X27209Y-27029D01*
X27303Y-27067D01*
X27355Y-27068D01*
X27295Y-27127D01*
X27257Y-27221D01*
X27256Y-27322D01*
X27295Y-27416D01*
X27367Y-27488D01*
X27461Y-27526D01*
X27562Y-27527D01*
X27656Y-27488D01*
X27706Y-27437D01*
X27715Y-27446D01*
X27809Y-27484D01*
X27910Y-27485D01*
X28004Y-27446D01*
X28022Y-27428D01*
X27987Y-27513D01*
X27986Y-27614D01*
X28025Y-27708D01*
X28097Y-27780D01*
X28191Y-27818D01*
X28292Y-27819D01*
X28386Y-27780D01*
X28458Y-27708D01*
X28496Y-27614D01*
X28497Y-27513D01*
X28458Y-27419D01*
X28412Y-27374D01*
X28437Y-27349D01*
X28475Y-27255D01*
X28476Y-27154D01*
X28437Y-27060D01*
X28365Y-26988D01*
X28271Y-26950D01*
X28170Y-26949D01*
X28076Y-26988D01*
X28074Y-26991D01*
X28074Y-22902D01*
X28035Y-22808D01*
X27963Y-22736D01*
X27869Y-22698D01*
X27768Y-22697D01*
X27674Y-22736D01*
X27602Y-22808D01*
X27564Y-22902D01*
X27563Y-23003D01*
X27602Y-23097D01*
X27674Y-23169D01*
X27768Y-23207D01*
X27869Y-23208D01*
X27963Y-23169D01*
X28035Y-23097D01*
X28073Y-23003D01*
X28074Y-22902D01*
X28074Y-26991D01*
X28027Y-27037D01*
X28005Y-27014D01*
X28005Y-26524D01*
X27995Y-26477D01*
X27993Y-26468D01*
X27993Y-26468D01*
X27962Y-26421D01*
X27961Y-26420D01*
X27960Y-26419D01*
X27960Y-26419D01*
X27645Y-26104D01*
X27598Y-26073D01*
X27589Y-26071D01*
X27543Y-26062D01*
X26648Y-26062D01*
X26613Y-25976D01*
X26541Y-25904D01*
X26447Y-25866D01*
X26346Y-25865D01*
X26275Y-25895D01*
X26275Y-25717D01*
X26275Y-25291D01*
X26327Y-25344D01*
X26421Y-25382D01*
X26522Y-25383D01*
X26616Y-25344D01*
X26688Y-25272D01*
X26726Y-25178D01*
X26727Y-25077D01*
X26688Y-24983D01*
X26622Y-24917D01*
X26656Y-24834D01*
X26657Y-24733D01*
X26618Y-24639D01*
X26599Y-24620D01*
X26599Y-24145D01*
X26609Y-24156D01*
X26703Y-24194D01*
X26804Y-24195D01*
X26854Y-24174D01*
X26854Y-24738D01*
X26840Y-24743D01*
X26768Y-24815D01*
X26730Y-24909D01*
X26729Y-25010D01*
X26768Y-25104D01*
X26840Y-25176D01*
X26934Y-25214D01*
X26943Y-25214D01*
X26885Y-25238D01*
X26813Y-25310D01*
X26775Y-25404D01*
X26774Y-25505D01*
X26813Y-25599D01*
X26885Y-25671D01*
X26979Y-25709D01*
X27080Y-25710D01*
X27174Y-25671D01*
X27246Y-25599D01*
X27284Y-25505D01*
X27285Y-25404D01*
X27246Y-25310D01*
X27174Y-25238D01*
X27080Y-25200D01*
X27071Y-25200D01*
X27129Y-25176D01*
X27201Y-25104D01*
X27239Y-25010D01*
X27240Y-24909D01*
X27201Y-24815D01*
X27144Y-24758D01*
X27144Y-22589D01*
X27132Y-22533D01*
X27101Y-22486D01*
X26806Y-22190D01*
X26806Y-22115D01*
X26854Y-22134D01*
X26955Y-22135D01*
X27049Y-22096D01*
X27087Y-22058D01*
X27140Y-22111D01*
X27234Y-22149D01*
X27335Y-22150D01*
X27429Y-22111D01*
X27501Y-22039D01*
X27539Y-21945D01*
X27540Y-21844D01*
X27523Y-21805D01*
X27557Y-21791D01*
X27629Y-21719D01*
X27656Y-21654D01*
X27656Y-22058D01*
X27628Y-22086D01*
X27528Y-22085D01*
X27434Y-22124D01*
X27362Y-22196D01*
X27324Y-22290D01*
X27323Y-22391D01*
X27362Y-22485D01*
X27434Y-22557D01*
X27528Y-22595D01*
X27629Y-22596D01*
X27723Y-22557D01*
X27795Y-22485D01*
X27833Y-22391D01*
X27834Y-22291D01*
X27903Y-22221D01*
X27903Y-22221D01*
X27934Y-22174D01*
X27946Y-22119D01*
X27946Y-21479D01*
X28178Y-21479D01*
X28257Y-21557D01*
X28257Y-21557D01*
X28257Y-21557D01*
X28680Y-21980D01*
X28680Y-23275D01*
X28680Y-23505D01*
X28689Y-23551D01*
X28691Y-23560D01*
X28722Y-23607D01*
X29077Y-23962D01*
X29077Y-23962D01*
X29108Y-23983D01*
X29124Y-23993D01*
X29124Y-23993D01*
X29180Y-24005D01*
X29410Y-24005D01*
X30079Y-24005D01*
X30318Y-24243D01*
X30318Y-25091D01*
X30327Y-25137D01*
X30329Y-25146D01*
X30360Y-25193D01*
X30529Y-25362D01*
X30529Y-25362D01*
X30576Y-25393D01*
X30576Y-25393D01*
X30585Y-25395D01*
X30632Y-25405D01*
X31550Y-25405D01*
X31550Y-25404D01*
X31596Y-25395D01*
X31605Y-25393D01*
X31605Y-25393D01*
X31652Y-25362D01*
X32218Y-24797D01*
X32332Y-24797D01*
X32332Y-24797D01*
G37*
G54D21*
X32332Y-24797D02*
X32277Y-24852D01*
X32246Y-24899D01*
X32244Y-24908D01*
X32235Y-24955D01*
X32235Y-26719D01*
X32152Y-26802D01*
X32121Y-26849D01*
X32119Y-26858D01*
X32110Y-26905D01*
X32110Y-27319D01*
X32039Y-27248D01*
X31945Y-27210D01*
X31844Y-27209D01*
X31750Y-27248D01*
X31678Y-27320D01*
X31657Y-27370D01*
X31641Y-27330D01*
X31569Y-27258D01*
X31475Y-27220D01*
X31374Y-27219D01*
X31280Y-27258D01*
X31208Y-27330D01*
X31170Y-27424D01*
X31169Y-27525D01*
X31208Y-27619D01*
X31280Y-27690D01*
X31280Y-28104D01*
X31139Y-28245D01*
X31139Y-26550D01*
X31100Y-26456D01*
X31028Y-26384D01*
X30934Y-26346D01*
X30833Y-26345D01*
X30739Y-26384D01*
X30667Y-26456D01*
X30629Y-26550D01*
X30628Y-26651D01*
X30667Y-26745D01*
X30739Y-26817D01*
X30833Y-26855D01*
X30934Y-26856D01*
X31028Y-26817D01*
X31100Y-26745D01*
X31138Y-26651D01*
X31139Y-26550D01*
X31139Y-28245D01*
X31024Y-28360D01*
X30895Y-28360D01*
X30895Y-27424D01*
X30856Y-27330D01*
X30784Y-27258D01*
X30690Y-27220D01*
X30589Y-27219D01*
X30495Y-27258D01*
X30439Y-27314D01*
X30384Y-27258D01*
X30290Y-27220D01*
X30189Y-27219D01*
X30095Y-27258D01*
X30047Y-27306D01*
X29999Y-27258D01*
X29905Y-27220D01*
X29804Y-27219D01*
X29710Y-27258D01*
X29638Y-27330D01*
X29600Y-27424D01*
X29599Y-27525D01*
X29638Y-27619D01*
X29710Y-27691D01*
X29804Y-27729D01*
X29905Y-27730D01*
X29999Y-27691D01*
X30047Y-27643D01*
X30095Y-27691D01*
X30189Y-27729D01*
X30290Y-27730D01*
X30384Y-27691D01*
X30440Y-27635D01*
X30495Y-27691D01*
X30589Y-27729D01*
X30690Y-27730D01*
X30784Y-27691D01*
X30856Y-27619D01*
X30894Y-27525D01*
X30895Y-27424D01*
X30895Y-28360D01*
X29589Y-28360D01*
X29589Y-27237D01*
X29550Y-27143D01*
X29478Y-27071D01*
X29384Y-27033D01*
X29283Y-27032D01*
X29189Y-27071D01*
X29117Y-27143D01*
X29079Y-27237D01*
X29078Y-27338D01*
X29117Y-27432D01*
X29189Y-27504D01*
X29283Y-27542D01*
X29384Y-27543D01*
X29478Y-27504D01*
X29550Y-27432D01*
X29588Y-27338D01*
X29589Y-27237D01*
X29589Y-28360D01*
X29560Y-28360D01*
X29513Y-28369D01*
X29504Y-28371D01*
X29457Y-28402D01*
X28627Y-29232D01*
X28596Y-29279D01*
X28594Y-29288D01*
X28585Y-29335D01*
X28585Y-32984D01*
X28594Y-33030D01*
X28596Y-33039D01*
X28627Y-33086D01*
X28760Y-33219D01*
X28723Y-33234D01*
X28651Y-33306D01*
X28613Y-33400D01*
X28612Y-33501D01*
X28619Y-33516D01*
X28588Y-33516D01*
X28490Y-33557D01*
X28490Y-29072D01*
X28449Y-28975D01*
X28375Y-28900D01*
X28277Y-28860D01*
X28172Y-28859D01*
X28075Y-28900D01*
X28000Y-28974D01*
X27960Y-29072D01*
X27959Y-29177D01*
X28000Y-29274D01*
X28074Y-29349D01*
X28172Y-29389D01*
X28277Y-29390D01*
X28374Y-29349D01*
X28449Y-29275D01*
X28489Y-29177D01*
X28490Y-29072D01*
X28490Y-33557D01*
X28489Y-33557D01*
X28413Y-33633D01*
X28391Y-33685D01*
X28371Y-33634D01*
X28295Y-33558D01*
X28243Y-33536D01*
X28294Y-33516D01*
X28370Y-33440D01*
X28411Y-33340D01*
X28412Y-33233D01*
X28371Y-33134D01*
X28295Y-33058D01*
X28243Y-33036D01*
X28294Y-33016D01*
X28370Y-32940D01*
X28411Y-32840D01*
X28412Y-32733D01*
X28371Y-32634D01*
X28295Y-32558D01*
X28243Y-32536D01*
X28294Y-32516D01*
X28370Y-32440D01*
X28411Y-32340D01*
X28412Y-32233D01*
X28371Y-32134D01*
X28295Y-32058D01*
X28243Y-32036D01*
X28294Y-32016D01*
X28370Y-31940D01*
X28411Y-31840D01*
X28412Y-31733D01*
X28371Y-31634D01*
X28295Y-31558D01*
X28243Y-31536D01*
X28294Y-31516D01*
X28370Y-31440D01*
X28411Y-31340D01*
X28412Y-31233D01*
X28371Y-31134D01*
X28295Y-31058D01*
X28243Y-31036D01*
X28294Y-31016D01*
X28370Y-30940D01*
X28411Y-30840D01*
X28412Y-30733D01*
X28371Y-30634D01*
X28295Y-30558D01*
X28243Y-30536D01*
X28294Y-30516D01*
X28370Y-30440D01*
X28411Y-30340D01*
X28412Y-30233D01*
X28371Y-30134D01*
X28295Y-30058D01*
X28243Y-30036D01*
X28294Y-30016D01*
X28370Y-29940D01*
X28411Y-29840D01*
X28412Y-29733D01*
X28371Y-29634D01*
X28295Y-29558D01*
X28195Y-29517D01*
X28088Y-29516D01*
X27989Y-29557D01*
X27913Y-29633D01*
X27891Y-29685D01*
X27871Y-29634D01*
X27795Y-29558D01*
X27740Y-29535D01*
X27740Y-29072D01*
X27699Y-28975D01*
X27625Y-28900D01*
X27527Y-28860D01*
X27422Y-28859D01*
X27325Y-28900D01*
X27250Y-28974D01*
X27210Y-29072D01*
X27209Y-29177D01*
X27250Y-29274D01*
X27324Y-29349D01*
X27422Y-29389D01*
X27527Y-29390D01*
X27624Y-29349D01*
X27699Y-29275D01*
X27739Y-29177D01*
X27740Y-29072D01*
X27740Y-29535D01*
X27695Y-29517D01*
X27588Y-29516D01*
X27489Y-29557D01*
X27413Y-29633D01*
X27391Y-29685D01*
X27371Y-29634D01*
X27295Y-29558D01*
X27195Y-29517D01*
X27088Y-29516D01*
X26989Y-29557D01*
X26913Y-29633D01*
X26891Y-29685D01*
X26871Y-29634D01*
X26795Y-29558D01*
X26695Y-29517D01*
X26588Y-29516D01*
X26489Y-29557D01*
X26413Y-29633D01*
X26403Y-29658D01*
X26403Y-28700D01*
X26435Y-28779D01*
X26507Y-28851D01*
X26600Y-28889D01*
X26575Y-28900D01*
X26500Y-28974D01*
X26460Y-29072D01*
X26459Y-29177D01*
X26500Y-29274D01*
X26574Y-29349D01*
X26672Y-29389D01*
X26777Y-29390D01*
X26874Y-29349D01*
X26949Y-29275D01*
X26989Y-29177D01*
X26990Y-29072D01*
X26949Y-28975D01*
X26875Y-28900D01*
X26777Y-28860D01*
X26775Y-28860D01*
X26796Y-28851D01*
X26868Y-28779D01*
X26906Y-28685D01*
X26907Y-28584D01*
X26868Y-28490D01*
X26796Y-28418D01*
X26702Y-28380D01*
X26601Y-28379D01*
X26507Y-28418D01*
X26435Y-28490D01*
X26403Y-28569D01*
X26403Y-27536D01*
X26393Y-27489D01*
X26391Y-27480D01*
X26391Y-27480D01*
X26360Y-27433D01*
X26360Y-27433D01*
X26275Y-27347D01*
X26275Y-27090D01*
X26347Y-27119D01*
X26448Y-27120D01*
X26542Y-27081D01*
X26614Y-27009D01*
X26652Y-26915D01*
X26653Y-26815D01*
X26743Y-26724D01*
X26743Y-26747D01*
X26782Y-26841D01*
X26854Y-26913D01*
X26948Y-26951D01*
X27049Y-26952D01*
X27122Y-26921D01*
X27137Y-26957D01*
X27209Y-27029D01*
X27303Y-27067D01*
X27355Y-27068D01*
X27295Y-27127D01*
X27257Y-27221D01*
X27256Y-27322D01*
X27295Y-27416D01*
X27367Y-27488D01*
X27461Y-27526D01*
X27562Y-27527D01*
X27656Y-27488D01*
X27706Y-27437D01*
X27715Y-27446D01*
X27809Y-27484D01*
X27910Y-27485D01*
X28004Y-27446D01*
X28022Y-27428D01*
X27987Y-27513D01*
X27986Y-27614D01*
X28025Y-27708D01*
X28097Y-27780D01*
X28191Y-27818D01*
X28292Y-27819D01*
X28386Y-27780D01*
X28458Y-27708D01*
X28496Y-27614D01*
X28497Y-27513D01*
X28458Y-27419D01*
X28412Y-27374D01*
X28437Y-27349D01*
X28475Y-27255D01*
X28476Y-27154D01*
X28437Y-27060D01*
X28365Y-26988D01*
X28271Y-26950D01*
X28170Y-26949D01*
X28076Y-26988D01*
X28074Y-26991D01*
X28074Y-22902D01*
X28035Y-22808D01*
X27963Y-22736D01*
X27869Y-22698D01*
X27768Y-22697D01*
X27674Y-22736D01*
X27602Y-22808D01*
X27564Y-22902D01*
X27563Y-23003D01*
X27602Y-23097D01*
X27674Y-23169D01*
X27768Y-23207D01*
X27869Y-23208D01*
X27963Y-23169D01*
X28035Y-23097D01*
X28073Y-23003D01*
X28074Y-22902D01*
X28074Y-26991D01*
X28027Y-27037D01*
X28005Y-27014D01*
X28005Y-26524D01*
X27995Y-26477D01*
X27993Y-26468D01*
X27993Y-26468D01*
X27962Y-26421D01*
X27961Y-26420D01*
X27960Y-26419D01*
X27960Y-26419D01*
X27645Y-26104D01*
X27598Y-26073D01*
X27589Y-26071D01*
X27543Y-26062D01*
X26648Y-26062D01*
X26613Y-25976D01*
X26541Y-25904D01*
X26447Y-25866D01*
X26346Y-25865D01*
X26275Y-25895D01*
X26275Y-25717D01*
X26275Y-25291D01*
X26327Y-25344D01*
X26421Y-25382D01*
X26522Y-25383D01*
X26616Y-25344D01*
X26688Y-25272D01*
X26726Y-25178D01*
X26727Y-25077D01*
X26688Y-24983D01*
X26622Y-24917D01*
X26656Y-24834D01*
X26657Y-24733D01*
X26618Y-24639D01*
X26599Y-24620D01*
X26599Y-24145D01*
X26609Y-24156D01*
X26703Y-24194D01*
X26804Y-24195D01*
X26854Y-24174D01*
X26854Y-24738D01*
X26840Y-24743D01*
X26768Y-24815D01*
X26730Y-24909D01*
X26729Y-25010D01*
X26768Y-25104D01*
X26840Y-25176D01*
X26934Y-25214D01*
X26943Y-25214D01*
X26885Y-25238D01*
X26813Y-25310D01*
X26775Y-25404D01*
X26774Y-25505D01*
X26813Y-25599D01*
X26885Y-25671D01*
X26979Y-25709D01*
X27080Y-25710D01*
X27174Y-25671D01*
X27246Y-25599D01*
X27284Y-25505D01*
X27285Y-25404D01*
X27246Y-25310D01*
X27174Y-25238D01*
X27080Y-25200D01*
X27071Y-25200D01*
X27129Y-25176D01*
X27201Y-25104D01*
X27239Y-25010D01*
X27240Y-24909D01*
X27201Y-24815D01*
X27144Y-24758D01*
X27144Y-22589D01*
X27132Y-22533D01*
X27101Y-22486D01*
X26806Y-22190D01*
X26806Y-22115D01*
X26854Y-22134D01*
X26955Y-22135D01*
X27049Y-22096D01*
X27087Y-22058D01*
X27140Y-22111D01*
X27234Y-22149D01*
X27335Y-22150D01*
X27429Y-22111D01*
X27501Y-22039D01*
X27539Y-21945D01*
X27540Y-21844D01*
X27523Y-21805D01*
X27557Y-21791D01*
X27629Y-21719D01*
X27656Y-21654D01*
X27656Y-22058D01*
X27628Y-22086D01*
X27528Y-22085D01*
X27434Y-22124D01*
X27362Y-22196D01*
X27324Y-22290D01*
X27323Y-22391D01*
X27362Y-22485D01*
X27434Y-22557D01*
X27528Y-22595D01*
X27629Y-22596D01*
X27723Y-22557D01*
X27795Y-22485D01*
X27833Y-22391D01*
X27834Y-22291D01*
X27903Y-22221D01*
X27903Y-22221D01*
X27934Y-22174D01*
X27946Y-22119D01*
X27946Y-21479D01*
X28178Y-21479D01*
X28257Y-21557D01*
X28257Y-21557D01*
X28257Y-21557D01*
X28680Y-21980D01*
X28680Y-23275D01*
X28680Y-23505D01*
X28689Y-23551D01*
X28691Y-23560D01*
X28722Y-23607D01*
X29077Y-23962D01*
X29077Y-23962D01*
X29108Y-23983D01*
X29124Y-23993D01*
X29124Y-23993D01*
X29180Y-24005D01*
X29410Y-24005D01*
X30079Y-24005D01*
X30318Y-24243D01*
X30318Y-25091D01*
X30327Y-25137D01*
X30329Y-25146D01*
X30360Y-25193D01*
X30529Y-25362D01*
X30529Y-25362D01*
X30576Y-25393D01*
X30576Y-25393D01*
X30585Y-25395D01*
X30632Y-25405D01*
X31550Y-25405D01*
X31550Y-25404D01*
X31596Y-25395D01*
X31605Y-25393D01*
X31605Y-25393D01*
X31652Y-25362D01*
X32218Y-24797D01*
X32332Y-24797D01*
G54D10*
G36*
X32408Y-20402D02*
X32378Y-20431D01*
X32361Y-20474D01*
X32361Y-20507D01*
X32072Y-20507D01*
X30673Y-20507D01*
X30379Y-20212D01*
X30379Y-19129D01*
X30450Y-19058D01*
X30488Y-18964D01*
X30489Y-18863D01*
X30450Y-18769D01*
X30378Y-18697D01*
X30292Y-18662D01*
X30326Y-18648D01*
X30397Y-18577D01*
X30850Y-18577D01*
X32361Y-20087D01*
X32361Y-20329D01*
X32378Y-20372D01*
X32408Y-20402D01*
X32408Y-20402D01*
G37*
G54D21*
X32408Y-20402D02*
X32378Y-20431D01*
X32361Y-20474D01*
X32361Y-20507D01*
X32072Y-20507D01*
X30673Y-20507D01*
X30379Y-20212D01*
X30379Y-19129D01*
X30450Y-19058D01*
X30488Y-18964D01*
X30489Y-18863D01*
X30450Y-18769D01*
X30378Y-18697D01*
X30292Y-18662D01*
X30326Y-18648D01*
X30397Y-18577D01*
X30850Y-18577D01*
X32361Y-20087D01*
X32361Y-20329D01*
X32378Y-20372D01*
X32408Y-20402D01*
G54D10*
G36*
X32408Y-22402D02*
X32378Y-22431D01*
X32361Y-22474D01*
X32361Y-22514D01*
X32354Y-22516D01*
X32345Y-22518D01*
X32298Y-22549D01*
X31937Y-22910D01*
X31906Y-22957D01*
X31904Y-22966D01*
X31895Y-23013D01*
X31895Y-23369D01*
X31652Y-23612D01*
X31623Y-23540D01*
X31551Y-23468D01*
X31457Y-23430D01*
X31419Y-23430D01*
X31419Y-22308D01*
X31443Y-22283D01*
X31469Y-22309D01*
X31563Y-22347D01*
X31664Y-22348D01*
X31758Y-22309D01*
X31830Y-22237D01*
X31868Y-22143D01*
X31869Y-22042D01*
X31830Y-21948D01*
X31758Y-21876D01*
X31664Y-21838D01*
X31563Y-21837D01*
X31469Y-21876D01*
X31443Y-21903D01*
X31419Y-21879D01*
X31419Y-21510D01*
X32132Y-20797D01*
X32361Y-20797D01*
X32361Y-20829D01*
X32378Y-20872D01*
X32408Y-20902D01*
X32378Y-20931D01*
X32361Y-20974D01*
X32361Y-21019D01*
X32361Y-21329D01*
X32378Y-21372D01*
X32408Y-21402D01*
X32378Y-21431D01*
X32361Y-21474D01*
X32361Y-21519D01*
X32361Y-21829D01*
X32378Y-21872D01*
X32408Y-21902D01*
X32378Y-21931D01*
X32361Y-21974D01*
X32361Y-22019D01*
X32361Y-22329D01*
X32378Y-22372D01*
X32408Y-22402D01*
X32408Y-22402D01*
G37*
G54D21*
X32408Y-22402D02*
X32378Y-22431D01*
X32361Y-22474D01*
X32361Y-22514D01*
X32354Y-22516D01*
X32345Y-22518D01*
X32298Y-22549D01*
X31937Y-22910D01*
X31906Y-22957D01*
X31904Y-22966D01*
X31895Y-23013D01*
X31895Y-23369D01*
X31652Y-23612D01*
X31623Y-23540D01*
X31551Y-23468D01*
X31457Y-23430D01*
X31419Y-23430D01*
X31419Y-22308D01*
X31443Y-22283D01*
X31469Y-22309D01*
X31563Y-22347D01*
X31664Y-22348D01*
X31758Y-22309D01*
X31830Y-22237D01*
X31868Y-22143D01*
X31869Y-22042D01*
X31830Y-21948D01*
X31758Y-21876D01*
X31664Y-21838D01*
X31563Y-21837D01*
X31469Y-21876D01*
X31443Y-21903D01*
X31419Y-21879D01*
X31419Y-21510D01*
X32132Y-20797D01*
X32361Y-20797D01*
X32361Y-20829D01*
X32378Y-20872D01*
X32408Y-20902D01*
X32378Y-20931D01*
X32361Y-20974D01*
X32361Y-21019D01*
X32361Y-21329D01*
X32378Y-21372D01*
X32408Y-21402D01*
X32378Y-21431D01*
X32361Y-21474D01*
X32361Y-21519D01*
X32361Y-21829D01*
X32378Y-21872D01*
X32408Y-21902D01*
X32378Y-21931D01*
X32361Y-21974D01*
X32361Y-22019D01*
X32361Y-22329D01*
X32378Y-22372D01*
X32408Y-22402D01*
G54D10*
G36*
X32408Y-24402D02*
X32378Y-24431D01*
X32361Y-24474D01*
X32361Y-24507D01*
X32158Y-24507D01*
X32111Y-24516D01*
X32102Y-24518D01*
X32055Y-24549D01*
X31499Y-25105D01*
X31525Y-25041D01*
X31526Y-24940D01*
X31487Y-24846D01*
X31415Y-24774D01*
X31321Y-24736D01*
X31220Y-24735D01*
X31126Y-24774D01*
X31054Y-24846D01*
X31037Y-24889D01*
X31019Y-24845D01*
X30948Y-24774D01*
X30948Y-24727D01*
X30993Y-24681D01*
X32142Y-23532D01*
X32142Y-23532D01*
X32173Y-23485D01*
X32185Y-23430D01*
X32185Y-23073D01*
X32382Y-22875D01*
X32408Y-22902D01*
X32378Y-22931D01*
X32361Y-22974D01*
X32361Y-23019D01*
X32361Y-23329D01*
X32378Y-23372D01*
X32408Y-23402D01*
X32378Y-23431D01*
X32361Y-23474D01*
X32361Y-23519D01*
X32361Y-23829D01*
X32378Y-23872D01*
X32408Y-23902D01*
X32378Y-23931D01*
X32361Y-23974D01*
X32361Y-24019D01*
X32361Y-24329D01*
X32378Y-24372D01*
X32408Y-24402D01*
X32408Y-24402D01*
G37*
G54D21*
X32408Y-24402D02*
X32378Y-24431D01*
X32361Y-24474D01*
X32361Y-24507D01*
X32158Y-24507D01*
X32111Y-24516D01*
X32102Y-24518D01*
X32055Y-24549D01*
X31499Y-25105D01*
X31525Y-25041D01*
X31526Y-24940D01*
X31487Y-24846D01*
X31415Y-24774D01*
X31321Y-24736D01*
X31220Y-24735D01*
X31126Y-24774D01*
X31054Y-24846D01*
X31037Y-24889D01*
X31019Y-24845D01*
X30948Y-24774D01*
X30948Y-24727D01*
X30993Y-24681D01*
X32142Y-23532D01*
X32142Y-23532D01*
X32173Y-23485D01*
X32185Y-23430D01*
X32185Y-23073D01*
X32382Y-22875D01*
X32408Y-22902D01*
X32378Y-22931D01*
X32361Y-22974D01*
X32361Y-23019D01*
X32361Y-23329D01*
X32378Y-23372D01*
X32408Y-23402D01*
X32378Y-23431D01*
X32361Y-23474D01*
X32361Y-23519D01*
X32361Y-23829D01*
X32378Y-23872D01*
X32408Y-23902D01*
X32378Y-23931D01*
X32361Y-23974D01*
X32361Y-24019D01*
X32361Y-24329D01*
X32378Y-24372D01*
X32408Y-24402D01*
G54D10*
G36*
X32408Y-28402D02*
X32378Y-28431D01*
X32361Y-28474D01*
X32361Y-28519D01*
X32361Y-28829D01*
X32373Y-28860D01*
X31717Y-28860D01*
X32361Y-28216D01*
X32361Y-28329D01*
X32378Y-28372D01*
X32408Y-28402D01*
X32408Y-28402D01*
G37*
G54D21*
X32408Y-28402D02*
X32378Y-28431D01*
X32361Y-28474D01*
X32361Y-28519D01*
X32361Y-28829D01*
X32373Y-28860D01*
X31717Y-28860D01*
X32361Y-28216D01*
X32361Y-28329D01*
X32378Y-28372D01*
X32408Y-28402D01*
G54D10*
G36*
X32510Y-19825D02*
X31013Y-18329D01*
X30966Y-18298D01*
X30957Y-18296D01*
X30911Y-18287D01*
X30397Y-18287D01*
X30326Y-18215D01*
X30232Y-18177D01*
X30131Y-18176D01*
X30037Y-18215D01*
X29965Y-18287D01*
X29927Y-18381D01*
X29926Y-18482D01*
X29965Y-18576D01*
X30037Y-18648D01*
X30123Y-18683D01*
X30089Y-18697D01*
X30017Y-18769D01*
X29979Y-18863D01*
X29978Y-18964D01*
X30017Y-19058D01*
X30089Y-19129D01*
X30089Y-20273D01*
X30098Y-20319D01*
X30100Y-20328D01*
X30131Y-20375D01*
X30510Y-20754D01*
X30557Y-20785D01*
X30557Y-20785D01*
X30613Y-20797D01*
X31721Y-20797D01*
X31506Y-21012D01*
X31506Y-21009D01*
X31467Y-20915D01*
X31395Y-20843D01*
X31301Y-20805D01*
X31200Y-20804D01*
X31106Y-20843D01*
X31034Y-20915D01*
X30996Y-21009D01*
X30995Y-21109D01*
X30601Y-21504D01*
X30598Y-21509D01*
X30598Y-21468D01*
X30586Y-21412D01*
X30555Y-21365D01*
X30257Y-21067D01*
X30332Y-21036D01*
X30404Y-20964D01*
X30442Y-20870D01*
X30443Y-20769D01*
X30404Y-20675D01*
X30332Y-20603D01*
X30238Y-20565D01*
X30138Y-20564D01*
X28613Y-19040D01*
X28566Y-19009D01*
X28557Y-19007D01*
X28511Y-18998D01*
X27310Y-18998D01*
X27239Y-18926D01*
X27145Y-18888D01*
X27044Y-18887D01*
X26950Y-18926D01*
X26878Y-18998D01*
X26840Y-19092D01*
X26839Y-19193D01*
X26878Y-19287D01*
X26950Y-19359D01*
X27044Y-19397D01*
X27145Y-19398D01*
X27239Y-19359D01*
X27310Y-19288D01*
X28450Y-19288D01*
X29683Y-20520D01*
X29608Y-20551D01*
X29536Y-20623D01*
X29498Y-20717D01*
X29497Y-20818D01*
X29536Y-20912D01*
X29608Y-20984D01*
X29702Y-21022D01*
X29802Y-21023D01*
X30308Y-21528D01*
X30308Y-22684D01*
X30264Y-22640D01*
X30170Y-22602D01*
X30069Y-22601D01*
X29975Y-22640D01*
X29903Y-22712D01*
X29865Y-22806D01*
X29864Y-22907D01*
X29903Y-23000D01*
X29835Y-23068D01*
X29796Y-23162D01*
X29796Y-23264D01*
X29835Y-23357D01*
X29906Y-23429D01*
X30000Y-23468D01*
X30102Y-23468D01*
X30195Y-23429D01*
X30249Y-23376D01*
X30308Y-23436D01*
X30402Y-23474D01*
X30447Y-23474D01*
X30446Y-23542D01*
X30485Y-23636D01*
X30557Y-23708D01*
X30651Y-23746D01*
X30674Y-23746D01*
X30673Y-23808D01*
X30712Y-23902D01*
X30784Y-23974D01*
X30878Y-24012D01*
X30979Y-24013D01*
X31073Y-23974D01*
X31145Y-23902D01*
X31183Y-23810D01*
X31190Y-23829D01*
X31262Y-23901D01*
X31334Y-23930D01*
X30788Y-24476D01*
X30700Y-24564D01*
X30669Y-24611D01*
X30667Y-24620D01*
X30658Y-24667D01*
X30658Y-24774D01*
X30608Y-24824D01*
X30608Y-24183D01*
X30598Y-24136D01*
X30596Y-24127D01*
X30596Y-24127D01*
X30565Y-24080D01*
X30242Y-23757D01*
X30195Y-23726D01*
X30186Y-23724D01*
X30140Y-23715D01*
X29410Y-23715D01*
X29240Y-23715D01*
X29170Y-23645D01*
X29178Y-23645D01*
X29272Y-23606D01*
X29344Y-23534D01*
X29359Y-23497D01*
X29405Y-23515D01*
X29506Y-23516D01*
X29600Y-23477D01*
X29672Y-23405D01*
X29710Y-23311D01*
X29711Y-23210D01*
X29672Y-23116D01*
X29601Y-23045D01*
X29601Y-22635D01*
X29727Y-22508D01*
X29827Y-22509D01*
X29921Y-22470D01*
X29993Y-22398D01*
X30031Y-22304D01*
X30032Y-22203D01*
X29993Y-22109D01*
X29921Y-22037D01*
X29827Y-21999D01*
X29726Y-21998D01*
X29632Y-22037D01*
X29560Y-22109D01*
X29559Y-22112D01*
X29554Y-22099D01*
X29482Y-22027D01*
X29388Y-21989D01*
X29287Y-21988D01*
X29193Y-22027D01*
X29121Y-22099D01*
X29083Y-22193D01*
X29082Y-22293D01*
X29025Y-22351D01*
X28994Y-22398D01*
X28992Y-22407D01*
X28983Y-22454D01*
X28983Y-23174D01*
X28970Y-23187D01*
X28970Y-21920D01*
X28958Y-21864D01*
X28927Y-21817D01*
X28462Y-21352D01*
X28462Y-21352D01*
X28462Y-21352D01*
X28341Y-21231D01*
X28294Y-21200D01*
X28285Y-21198D01*
X28239Y-21189D01*
X27801Y-21189D01*
X27543Y-21189D01*
X27543Y-20393D01*
X27504Y-20299D01*
X27432Y-20227D01*
X27416Y-20221D01*
X27416Y-19631D01*
X27377Y-19537D01*
X27305Y-19465D01*
X27211Y-19427D01*
X27110Y-19426D01*
X27016Y-19465D01*
X26944Y-19537D01*
X26906Y-19631D01*
X26905Y-19732D01*
X26944Y-19826D01*
X27016Y-19898D01*
X27110Y-19936D01*
X27211Y-19937D01*
X27305Y-19898D01*
X27377Y-19826D01*
X27415Y-19732D01*
X27416Y-19631D01*
X27416Y-20221D01*
X27338Y-20189D01*
X27243Y-20188D01*
X27211Y-20110D01*
X27139Y-20038D01*
X27045Y-20000D01*
X26944Y-19999D01*
X26850Y-20038D01*
X26833Y-20056D01*
X26833Y-18643D01*
X26794Y-18549D01*
X26722Y-18477D01*
X26628Y-18439D01*
X26527Y-18438D01*
X26433Y-18477D01*
X26361Y-18549D01*
X26323Y-18643D01*
X26322Y-18744D01*
X26361Y-18838D01*
X26433Y-18910D01*
X26527Y-18948D01*
X26628Y-18949D01*
X26722Y-18910D01*
X26794Y-18838D01*
X26832Y-18744D01*
X26833Y-18643D01*
X26833Y-20056D01*
X26778Y-20110D01*
X26740Y-20204D01*
X26739Y-20305D01*
X26778Y-20399D01*
X26850Y-20471D01*
X26944Y-20509D01*
X27039Y-20510D01*
X27071Y-20588D01*
X27143Y-20660D01*
X27237Y-20698D01*
X27338Y-20699D01*
X27432Y-20660D01*
X27504Y-20588D01*
X27542Y-20494D01*
X27543Y-20393D01*
X27543Y-21189D01*
X26706Y-21189D01*
X26650Y-21200D01*
X26634Y-21210D01*
X26603Y-21231D01*
X26489Y-21345D01*
X26389Y-21344D01*
X26295Y-21383D01*
X26236Y-21443D01*
X26236Y-21443D01*
X26232Y-21437D01*
X26232Y-21437D01*
X25540Y-20744D01*
X25540Y-20502D01*
X25522Y-20459D01*
X25492Y-20430D01*
X25522Y-20400D01*
X25540Y-20357D01*
X25540Y-20315D01*
X25546Y-20313D01*
X25546Y-20313D01*
X25576Y-20293D01*
X25576Y-20314D01*
X25615Y-20408D01*
X25637Y-20429D01*
X25601Y-20465D01*
X25563Y-20559D01*
X25562Y-20660D01*
X25601Y-20754D01*
X25673Y-20826D01*
X25767Y-20864D01*
X25868Y-20865D01*
X25962Y-20826D01*
X26034Y-20754D01*
X26072Y-20660D01*
X26073Y-20559D01*
X26034Y-20465D01*
X26012Y-20444D01*
X26048Y-20408D01*
X26086Y-20314D01*
X26087Y-20213D01*
X26048Y-20119D01*
X25976Y-20047D01*
X25882Y-20009D01*
X25867Y-20009D01*
X26109Y-19766D01*
X26109Y-19766D01*
X26140Y-19719D01*
X26140Y-19719D01*
X26142Y-19710D01*
X26151Y-19664D01*
X26152Y-19664D01*
X26152Y-19373D01*
X26221Y-19304D01*
X26259Y-19210D01*
X26260Y-19109D01*
X26221Y-19015D01*
X26149Y-18943D01*
X26055Y-18905D01*
X25954Y-18904D01*
X25860Y-18943D01*
X25830Y-18974D01*
X25800Y-18944D01*
X25706Y-18906D01*
X25605Y-18905D01*
X25511Y-18944D01*
X25439Y-19016D01*
X25401Y-19110D01*
X25400Y-19211D01*
X25439Y-19305D01*
X25511Y-19377D01*
X25605Y-19415D01*
X25706Y-19416D01*
X25800Y-19377D01*
X25830Y-19346D01*
X25860Y-19376D01*
X25862Y-19376D01*
X25862Y-19603D01*
X25514Y-19951D01*
X25490Y-19927D01*
X25447Y-19910D01*
X25402Y-19910D01*
X25380Y-19910D01*
X25380Y-18132D01*
X32510Y-18132D01*
X32510Y-19825D01*
X32510Y-19825D01*
G37*
G54D21*
X32510Y-19825D02*
X31013Y-18329D01*
X30966Y-18298D01*
X30957Y-18296D01*
X30911Y-18287D01*
X30397Y-18287D01*
X30326Y-18215D01*
X30232Y-18177D01*
X30131Y-18176D01*
X30037Y-18215D01*
X29965Y-18287D01*
X29927Y-18381D01*
X29926Y-18482D01*
X29965Y-18576D01*
X30037Y-18648D01*
X30123Y-18683D01*
X30089Y-18697D01*
X30017Y-18769D01*
X29979Y-18863D01*
X29978Y-18964D01*
X30017Y-19058D01*
X30089Y-19129D01*
X30089Y-20273D01*
X30098Y-20319D01*
X30100Y-20328D01*
X30131Y-20375D01*
X30510Y-20754D01*
X30557Y-20785D01*
X30557Y-20785D01*
X30613Y-20797D01*
X31721Y-20797D01*
X31506Y-21012D01*
X31506Y-21009D01*
X31467Y-20915D01*
X31395Y-20843D01*
X31301Y-20805D01*
X31200Y-20804D01*
X31106Y-20843D01*
X31034Y-20915D01*
X30996Y-21009D01*
X30995Y-21109D01*
X30601Y-21504D01*
X30598Y-21509D01*
X30598Y-21468D01*
X30586Y-21412D01*
X30555Y-21365D01*
X30257Y-21067D01*
X30332Y-21036D01*
X30404Y-20964D01*
X30442Y-20870D01*
X30443Y-20769D01*
X30404Y-20675D01*
X30332Y-20603D01*
X30238Y-20565D01*
X30138Y-20564D01*
X28613Y-19040D01*
X28566Y-19009D01*
X28557Y-19007D01*
X28511Y-18998D01*
X27310Y-18998D01*
X27239Y-18926D01*
X27145Y-18888D01*
X27044Y-18887D01*
X26950Y-18926D01*
X26878Y-18998D01*
X26840Y-19092D01*
X26839Y-19193D01*
X26878Y-19287D01*
X26950Y-19359D01*
X27044Y-19397D01*
X27145Y-19398D01*
X27239Y-19359D01*
X27310Y-19288D01*
X28450Y-19288D01*
X29683Y-20520D01*
X29608Y-20551D01*
X29536Y-20623D01*
X29498Y-20717D01*
X29497Y-20818D01*
X29536Y-20912D01*
X29608Y-20984D01*
X29702Y-21022D01*
X29802Y-21023D01*
X30308Y-21528D01*
X30308Y-22684D01*
X30264Y-22640D01*
X30170Y-22602D01*
X30069Y-22601D01*
X29975Y-22640D01*
X29903Y-22712D01*
X29865Y-22806D01*
X29864Y-22907D01*
X29903Y-23000D01*
X29835Y-23068D01*
X29796Y-23162D01*
X29796Y-23264D01*
X29835Y-23357D01*
X29906Y-23429D01*
X30000Y-23468D01*
X30102Y-23468D01*
X30195Y-23429D01*
X30249Y-23376D01*
X30308Y-23436D01*
X30402Y-23474D01*
X30447Y-23474D01*
X30446Y-23542D01*
X30485Y-23636D01*
X30557Y-23708D01*
X30651Y-23746D01*
X30674Y-23746D01*
X30673Y-23808D01*
X30712Y-23902D01*
X30784Y-23974D01*
X30878Y-24012D01*
X30979Y-24013D01*
X31073Y-23974D01*
X31145Y-23902D01*
X31183Y-23810D01*
X31190Y-23829D01*
X31262Y-23901D01*
X31334Y-23930D01*
X30788Y-24476D01*
X30700Y-24564D01*
X30669Y-24611D01*
X30667Y-24620D01*
X30658Y-24667D01*
X30658Y-24774D01*
X30608Y-24824D01*
X30608Y-24183D01*
X30598Y-24136D01*
X30596Y-24127D01*
X30596Y-24127D01*
X30565Y-24080D01*
X30242Y-23757D01*
X30195Y-23726D01*
X30186Y-23724D01*
X30140Y-23715D01*
X29410Y-23715D01*
X29240Y-23715D01*
X29170Y-23645D01*
X29178Y-23645D01*
X29272Y-23606D01*
X29344Y-23534D01*
X29359Y-23497D01*
X29405Y-23515D01*
X29506Y-23516D01*
X29600Y-23477D01*
X29672Y-23405D01*
X29710Y-23311D01*
X29711Y-23210D01*
X29672Y-23116D01*
X29601Y-23045D01*
X29601Y-22635D01*
X29727Y-22508D01*
X29827Y-22509D01*
X29921Y-22470D01*
X29993Y-22398D01*
X30031Y-22304D01*
X30032Y-22203D01*
X29993Y-22109D01*
X29921Y-22037D01*
X29827Y-21999D01*
X29726Y-21998D01*
X29632Y-22037D01*
X29560Y-22109D01*
X29559Y-22112D01*
X29554Y-22099D01*
X29482Y-22027D01*
X29388Y-21989D01*
X29287Y-21988D01*
X29193Y-22027D01*
X29121Y-22099D01*
X29083Y-22193D01*
X29082Y-22293D01*
X29025Y-22351D01*
X28994Y-22398D01*
X28992Y-22407D01*
X28983Y-22454D01*
X28983Y-23174D01*
X28970Y-23187D01*
X28970Y-21920D01*
X28958Y-21864D01*
X28927Y-21817D01*
X28462Y-21352D01*
X28462Y-21352D01*
X28462Y-21352D01*
X28341Y-21231D01*
X28294Y-21200D01*
X28285Y-21198D01*
X28239Y-21189D01*
X27801Y-21189D01*
X27543Y-21189D01*
X27543Y-20393D01*
X27504Y-20299D01*
X27432Y-20227D01*
X27416Y-20221D01*
X27416Y-19631D01*
X27377Y-19537D01*
X27305Y-19465D01*
X27211Y-19427D01*
X27110Y-19426D01*
X27016Y-19465D01*
X26944Y-19537D01*
X26906Y-19631D01*
X26905Y-19732D01*
X26944Y-19826D01*
X27016Y-19898D01*
X27110Y-19936D01*
X27211Y-19937D01*
X27305Y-19898D01*
X27377Y-19826D01*
X27415Y-19732D01*
X27416Y-19631D01*
X27416Y-20221D01*
X27338Y-20189D01*
X27243Y-20188D01*
X27211Y-20110D01*
X27139Y-20038D01*
X27045Y-20000D01*
X26944Y-19999D01*
X26850Y-20038D01*
X26833Y-20056D01*
X26833Y-18643D01*
X26794Y-18549D01*
X26722Y-18477D01*
X26628Y-18439D01*
X26527Y-18438D01*
X26433Y-18477D01*
X26361Y-18549D01*
X26323Y-18643D01*
X26322Y-18744D01*
X26361Y-18838D01*
X26433Y-18910D01*
X26527Y-18948D01*
X26628Y-18949D01*
X26722Y-18910D01*
X26794Y-18838D01*
X26832Y-18744D01*
X26833Y-18643D01*
X26833Y-20056D01*
X26778Y-20110D01*
X26740Y-20204D01*
X26739Y-20305D01*
X26778Y-20399D01*
X26850Y-20471D01*
X26944Y-20509D01*
X27039Y-20510D01*
X27071Y-20588D01*
X27143Y-20660D01*
X27237Y-20698D01*
X27338Y-20699D01*
X27432Y-20660D01*
X27504Y-20588D01*
X27542Y-20494D01*
X27543Y-20393D01*
X27543Y-21189D01*
X26706Y-21189D01*
X26650Y-21200D01*
X26634Y-21210D01*
X26603Y-21231D01*
X26489Y-21345D01*
X26389Y-21344D01*
X26295Y-21383D01*
X26236Y-21443D01*
X26236Y-21443D01*
X26232Y-21437D01*
X26232Y-21437D01*
X25540Y-20744D01*
X25540Y-20502D01*
X25522Y-20459D01*
X25492Y-20430D01*
X25522Y-20400D01*
X25540Y-20357D01*
X25540Y-20315D01*
X25546Y-20313D01*
X25546Y-20313D01*
X25576Y-20293D01*
X25576Y-20314D01*
X25615Y-20408D01*
X25637Y-20429D01*
X25601Y-20465D01*
X25563Y-20559D01*
X25562Y-20660D01*
X25601Y-20754D01*
X25673Y-20826D01*
X25767Y-20864D01*
X25868Y-20865D01*
X25962Y-20826D01*
X26034Y-20754D01*
X26072Y-20660D01*
X26073Y-20559D01*
X26034Y-20465D01*
X26012Y-20444D01*
X26048Y-20408D01*
X26086Y-20314D01*
X26087Y-20213D01*
X26048Y-20119D01*
X25976Y-20047D01*
X25882Y-20009D01*
X25867Y-20009D01*
X26109Y-19766D01*
X26109Y-19766D01*
X26140Y-19719D01*
X26140Y-19719D01*
X26142Y-19710D01*
X26151Y-19664D01*
X26152Y-19664D01*
X26152Y-19373D01*
X26221Y-19304D01*
X26259Y-19210D01*
X26260Y-19109D01*
X26221Y-19015D01*
X26149Y-18943D01*
X26055Y-18905D01*
X25954Y-18904D01*
X25860Y-18943D01*
X25830Y-18974D01*
X25800Y-18944D01*
X25706Y-18906D01*
X25605Y-18905D01*
X25511Y-18944D01*
X25439Y-19016D01*
X25401Y-19110D01*
X25400Y-19211D01*
X25439Y-19305D01*
X25511Y-19377D01*
X25605Y-19415D01*
X25706Y-19416D01*
X25800Y-19377D01*
X25830Y-19346D01*
X25860Y-19376D01*
X25862Y-19376D01*
X25862Y-19603D01*
X25514Y-19951D01*
X25490Y-19927D01*
X25447Y-19910D01*
X25402Y-19910D01*
X25380Y-19910D01*
X25380Y-18132D01*
X32510Y-18132D01*
X32510Y-19825D01*
G54D10*
G36*
X32510Y-32485D02*
X30851Y-32485D01*
X30866Y-32448D01*
X30867Y-32347D01*
X30828Y-32253D01*
X30756Y-32181D01*
X30662Y-32143D01*
X30561Y-32142D01*
X30467Y-32181D01*
X30395Y-32253D01*
X30372Y-32311D01*
X30176Y-32311D01*
X30120Y-32311D01*
X30120Y-32002D01*
X30102Y-31959D01*
X30072Y-31930D01*
X30102Y-31900D01*
X30120Y-31857D01*
X30120Y-31812D01*
X30120Y-31502D01*
X30102Y-31459D01*
X30072Y-31430D01*
X30102Y-31400D01*
X30120Y-31357D01*
X30120Y-31312D01*
X30120Y-31002D01*
X30102Y-30959D01*
X30072Y-30930D01*
X30102Y-30900D01*
X30120Y-30857D01*
X30120Y-30812D01*
X30120Y-30502D01*
X30102Y-30459D01*
X30072Y-30430D01*
X30102Y-30400D01*
X30120Y-30357D01*
X30120Y-30228D01*
X30120Y-30131D01*
X30120Y-30002D01*
X30102Y-29959D01*
X30070Y-29927D01*
X30027Y-29910D01*
X29982Y-29910D01*
X29898Y-29910D01*
X29870Y-29938D01*
X29870Y-30160D01*
X30091Y-30160D01*
X30120Y-30131D01*
X30120Y-30228D01*
X30091Y-30200D01*
X29870Y-30200D01*
X29870Y-30207D01*
X29830Y-30207D01*
X29830Y-30200D01*
X29608Y-30200D01*
X29600Y-30208D01*
X29572Y-30180D01*
X29600Y-30151D01*
X29608Y-30160D01*
X29830Y-30160D01*
X29830Y-29938D01*
X29801Y-29910D01*
X29717Y-29910D01*
X29672Y-29910D01*
X29629Y-29927D01*
X29620Y-29937D01*
X29620Y-29767D01*
X29709Y-29827D01*
X29762Y-29849D01*
X29762Y-29849D01*
X29901Y-29877D01*
X29915Y-29877D01*
X29930Y-29880D01*
X32510Y-29880D01*
X32510Y-32485D01*
X32510Y-32485D01*
G37*
G54D21*
X32510Y-32485D02*
X30851Y-32485D01*
X30866Y-32448D01*
X30867Y-32347D01*
X30828Y-32253D01*
X30756Y-32181D01*
X30662Y-32143D01*
X30561Y-32142D01*
X30467Y-32181D01*
X30395Y-32253D01*
X30372Y-32311D01*
X30176Y-32311D01*
X30120Y-32311D01*
X30120Y-32002D01*
X30102Y-31959D01*
X30072Y-31930D01*
X30102Y-31900D01*
X30120Y-31857D01*
X30120Y-31812D01*
X30120Y-31502D01*
X30102Y-31459D01*
X30072Y-31430D01*
X30102Y-31400D01*
X30120Y-31357D01*
X30120Y-31312D01*
X30120Y-31002D01*
X30102Y-30959D01*
X30072Y-30930D01*
X30102Y-30900D01*
X30120Y-30857D01*
X30120Y-30812D01*
X30120Y-30502D01*
X30102Y-30459D01*
X30072Y-30430D01*
X30102Y-30400D01*
X30120Y-30357D01*
X30120Y-30228D01*
X30120Y-30131D01*
X30120Y-30002D01*
X30102Y-29959D01*
X30070Y-29927D01*
X30027Y-29910D01*
X29982Y-29910D01*
X29898Y-29910D01*
X29870Y-29938D01*
X29870Y-30160D01*
X30091Y-30160D01*
X30120Y-30131D01*
X30120Y-30228D01*
X30091Y-30200D01*
X29870Y-30200D01*
X29870Y-30207D01*
X29830Y-30207D01*
X29830Y-30200D01*
X29608Y-30200D01*
X29600Y-30208D01*
X29572Y-30180D01*
X29600Y-30151D01*
X29608Y-30160D01*
X29830Y-30160D01*
X29830Y-29938D01*
X29801Y-29910D01*
X29717Y-29910D01*
X29672Y-29910D01*
X29629Y-29927D01*
X29620Y-29937D01*
X29620Y-29767D01*
X29709Y-29827D01*
X29762Y-29849D01*
X29762Y-29849D01*
X29901Y-29877D01*
X29915Y-29877D01*
X29930Y-29880D01*
X32510Y-29880D01*
X32510Y-32485D01*
G54D10*
G36*
X32510Y-38942D02*
X32489Y-38894D01*
X32429Y-38862D01*
X32168Y-39124D01*
X32173Y-39129D01*
X32145Y-39157D01*
X32140Y-39152D01*
X32111Y-39180D01*
X32111Y-39124D01*
X31850Y-38862D01*
X31790Y-38894D01*
X31728Y-39045D01*
X31730Y-39209D01*
X31790Y-39353D01*
X31850Y-39385D01*
X32111Y-39124D01*
X32111Y-39180D01*
X31878Y-39413D01*
X31910Y-39473D01*
X32018Y-39517D01*
X31940Y-39570D01*
X31940Y-39570D01*
X31920Y-39590D01*
X31900Y-39610D01*
X31900Y-39610D01*
X31770Y-39804D01*
X31770Y-39804D01*
X31748Y-39857D01*
X31702Y-40086D01*
X31702Y-40100D01*
X31700Y-40115D01*
X31700Y-40200D01*
X31638Y-40200D01*
X31688Y-40125D01*
X31719Y-39968D01*
X31719Y-39350D01*
X31688Y-39193D01*
X31599Y-39060D01*
X31466Y-38971D01*
X31309Y-38940D01*
X31152Y-38971D01*
X31019Y-39060D01*
X30930Y-39193D01*
X30898Y-39350D01*
X30898Y-39968D01*
X30930Y-40125D01*
X30979Y-40200D01*
X30514Y-40200D01*
X30514Y-39051D01*
X30324Y-38861D01*
X30135Y-39051D01*
X30154Y-39101D01*
X30270Y-39146D01*
X30394Y-39143D01*
X30495Y-39101D01*
X30514Y-39051D01*
X30514Y-40200D01*
X30203Y-40200D01*
X30203Y-39590D01*
X30150Y-39460D01*
X30051Y-39362D01*
X29922Y-39308D01*
X29782Y-39308D01*
X29653Y-39361D01*
X29652Y-39362D01*
X29652Y-38771D01*
X29605Y-38656D01*
X29517Y-38568D01*
X29403Y-38521D01*
X29278Y-38520D01*
X29164Y-38568D01*
X29076Y-38655D01*
X29028Y-38770D01*
X29028Y-38894D01*
X29076Y-39009D01*
X29163Y-39097D01*
X29278Y-39144D01*
X29402Y-39144D01*
X29517Y-39097D01*
X29604Y-39009D01*
X29652Y-38895D01*
X29652Y-38771D01*
X29652Y-39362D01*
X29554Y-39460D01*
X29501Y-39589D01*
X29501Y-39729D01*
X29554Y-39858D01*
X29653Y-39957D01*
X29782Y-40010D01*
X29922Y-40010D01*
X30051Y-39957D01*
X30150Y-39858D01*
X30203Y-39729D01*
X30203Y-39590D01*
X30203Y-40200D01*
X28865Y-40200D01*
X28865Y-38771D01*
X28817Y-38656D01*
X28730Y-38568D01*
X28615Y-38521D01*
X28491Y-38520D01*
X28376Y-38568D01*
X28289Y-38655D01*
X28241Y-38770D01*
X28241Y-38894D01*
X28288Y-39009D01*
X28376Y-39097D01*
X28490Y-39144D01*
X28615Y-39144D01*
X28729Y-39097D01*
X28817Y-39009D01*
X28865Y-38895D01*
X28865Y-38771D01*
X28865Y-40200D01*
X28392Y-40200D01*
X28392Y-39590D01*
X28339Y-39460D01*
X28240Y-39362D01*
X28111Y-39308D01*
X27971Y-39308D01*
X27880Y-39345D01*
X27880Y-38771D01*
X27833Y-38656D01*
X27745Y-38568D01*
X27631Y-38521D01*
X27507Y-38520D01*
X27392Y-38568D01*
X27304Y-38655D01*
X27257Y-38770D01*
X27257Y-38894D01*
X27304Y-39009D01*
X27392Y-39097D01*
X27506Y-39144D01*
X27630Y-39144D01*
X27745Y-39097D01*
X27833Y-39009D01*
X27880Y-38895D01*
X27880Y-38771D01*
X27880Y-39345D01*
X27842Y-39361D01*
X27743Y-39460D01*
X27690Y-39589D01*
X27690Y-39729D01*
X27743Y-39858D01*
X27842Y-39957D01*
X27971Y-40010D01*
X28111Y-40010D01*
X28240Y-39957D01*
X28339Y-39858D01*
X28392Y-39729D01*
X28392Y-39590D01*
X28392Y-40200D01*
X26914Y-40200D01*
X26963Y-40125D01*
X26995Y-39968D01*
X26995Y-39350D01*
X26963Y-39193D01*
X26874Y-39060D01*
X26741Y-38971D01*
X26584Y-38940D01*
X26427Y-38971D01*
X26294Y-39060D01*
X26205Y-39193D01*
X26174Y-39350D01*
X26174Y-39968D01*
X26205Y-40125D01*
X26255Y-40200D01*
X26190Y-40200D01*
X26190Y-40115D01*
X26187Y-40100D01*
X26187Y-40086D01*
X26141Y-39857D01*
X26119Y-39804D01*
X25989Y-39610D01*
X25989Y-39610D01*
X25989Y-39610D01*
X25969Y-39590D01*
X25949Y-39570D01*
X25949Y-39570D01*
X25872Y-39518D01*
X26052Y-39518D01*
X26094Y-39500D01*
X26126Y-39468D01*
X26144Y-39426D01*
X26144Y-39380D01*
X26144Y-38789D01*
X26132Y-38761D01*
X26272Y-38703D01*
X26434Y-38542D01*
X26521Y-38330D01*
X26522Y-38102D01*
X26434Y-37890D01*
X26273Y-37728D01*
X26061Y-37641D01*
X25833Y-37640D01*
X25832Y-37641D01*
X25848Y-37602D01*
X25848Y-37557D01*
X25848Y-37247D01*
X25830Y-37204D01*
X25798Y-37172D01*
X25755Y-37155D01*
X25728Y-37155D01*
X25730Y-37154D01*
X25806Y-37078D01*
X25847Y-36978D01*
X25847Y-36934D01*
X26806Y-37892D01*
X26853Y-37923D01*
X26909Y-37935D01*
X27982Y-37935D01*
X27949Y-37967D01*
X27911Y-38061D01*
X27910Y-38162D01*
X27949Y-38256D01*
X28021Y-38328D01*
X28115Y-38366D01*
X28216Y-38367D01*
X28310Y-38328D01*
X28382Y-38256D01*
X28420Y-38162D01*
X28421Y-38061D01*
X28382Y-37967D01*
X28349Y-37935D01*
X28768Y-37935D01*
X28733Y-37969D01*
X28695Y-38063D01*
X28694Y-38164D01*
X28733Y-38258D01*
X28805Y-38330D01*
X28899Y-38368D01*
X29000Y-38369D01*
X29094Y-38330D01*
X29166Y-38258D01*
X29204Y-38164D01*
X29205Y-38063D01*
X29203Y-38060D01*
X29217Y-38060D01*
X29435Y-38060D01*
X29422Y-38121D01*
X29422Y-38121D01*
X29422Y-38121D01*
X29422Y-38178D01*
X29422Y-38178D01*
X29450Y-38317D01*
X29472Y-38370D01*
X29472Y-38370D01*
X29472Y-38370D01*
X29551Y-38488D01*
X29591Y-38528D01*
X29591Y-38528D01*
X29591Y-38528D01*
X29709Y-38607D01*
X29762Y-38629D01*
X29762Y-38629D01*
X29901Y-38657D01*
X29915Y-38657D01*
X29930Y-38660D01*
X30062Y-38660D01*
X30056Y-38662D01*
X30011Y-38778D01*
X30014Y-38902D01*
X30056Y-39003D01*
X30106Y-39022D01*
X30296Y-38832D01*
X30291Y-38827D01*
X30319Y-38799D01*
X30324Y-38804D01*
X30330Y-38799D01*
X30358Y-38827D01*
X30353Y-38832D01*
X30543Y-39022D01*
X30593Y-39003D01*
X30638Y-38887D01*
X30635Y-38763D01*
X30593Y-38662D01*
X30586Y-38660D01*
X31577Y-38660D01*
X31620Y-38703D01*
X31832Y-38790D01*
X31901Y-38790D01*
X31878Y-38834D01*
X32140Y-39095D01*
X32401Y-38834D01*
X32369Y-38774D01*
X32234Y-38719D01*
X32272Y-38703D01*
X32316Y-38660D01*
X32510Y-38660D01*
X32510Y-38942D01*
X32510Y-38942D01*
G37*
G54D21*
X32510Y-38942D02*
X32489Y-38894D01*
X32429Y-38862D01*
X32168Y-39124D01*
X32173Y-39129D01*
X32145Y-39157D01*
X32140Y-39152D01*
X32111Y-39180D01*
X32111Y-39124D01*
X31850Y-38862D01*
X31790Y-38894D01*
X31728Y-39045D01*
X31730Y-39209D01*
X31790Y-39353D01*
X31850Y-39385D01*
X32111Y-39124D01*
X32111Y-39180D01*
X31878Y-39413D01*
X31910Y-39473D01*
X32018Y-39517D01*
X31940Y-39570D01*
X31940Y-39570D01*
X31920Y-39590D01*
X31900Y-39610D01*
X31900Y-39610D01*
X31770Y-39804D01*
X31770Y-39804D01*
X31748Y-39857D01*
X31702Y-40086D01*
X31702Y-40100D01*
X31700Y-40115D01*
X31700Y-40200D01*
X31638Y-40200D01*
X31688Y-40125D01*
X31719Y-39968D01*
X31719Y-39350D01*
X31688Y-39193D01*
X31599Y-39060D01*
X31466Y-38971D01*
X31309Y-38940D01*
X31152Y-38971D01*
X31019Y-39060D01*
X30930Y-39193D01*
X30898Y-39350D01*
X30898Y-39968D01*
X30930Y-40125D01*
X30979Y-40200D01*
X30514Y-40200D01*
X30514Y-39051D01*
X30324Y-38861D01*
X30135Y-39051D01*
X30154Y-39101D01*
X30270Y-39146D01*
X30394Y-39143D01*
X30495Y-39101D01*
X30514Y-39051D01*
X30514Y-40200D01*
X30203Y-40200D01*
X30203Y-39590D01*
X30150Y-39460D01*
X30051Y-39362D01*
X29922Y-39308D01*
X29782Y-39308D01*
X29653Y-39361D01*
X29652Y-39362D01*
X29652Y-38771D01*
X29605Y-38656D01*
X29517Y-38568D01*
X29403Y-38521D01*
X29278Y-38520D01*
X29164Y-38568D01*
X29076Y-38655D01*
X29028Y-38770D01*
X29028Y-38894D01*
X29076Y-39009D01*
X29163Y-39097D01*
X29278Y-39144D01*
X29402Y-39144D01*
X29517Y-39097D01*
X29604Y-39009D01*
X29652Y-38895D01*
X29652Y-38771D01*
X29652Y-39362D01*
X29554Y-39460D01*
X29501Y-39589D01*
X29501Y-39729D01*
X29554Y-39858D01*
X29653Y-39957D01*
X29782Y-40010D01*
X29922Y-40010D01*
X30051Y-39957D01*
X30150Y-39858D01*
X30203Y-39729D01*
X30203Y-39590D01*
X30203Y-40200D01*
X28865Y-40200D01*
X28865Y-38771D01*
X28817Y-38656D01*
X28730Y-38568D01*
X28615Y-38521D01*
X28491Y-38520D01*
X28376Y-38568D01*
X28289Y-38655D01*
X28241Y-38770D01*
X28241Y-38894D01*
X28288Y-39009D01*
X28376Y-39097D01*
X28490Y-39144D01*
X28615Y-39144D01*
X28729Y-39097D01*
X28817Y-39009D01*
X28865Y-38895D01*
X28865Y-38771D01*
X28865Y-40200D01*
X28392Y-40200D01*
X28392Y-39590D01*
X28339Y-39460D01*
X28240Y-39362D01*
X28111Y-39308D01*
X27971Y-39308D01*
X27880Y-39345D01*
X27880Y-38771D01*
X27833Y-38656D01*
X27745Y-38568D01*
X27631Y-38521D01*
X27507Y-38520D01*
X27392Y-38568D01*
X27304Y-38655D01*
X27257Y-38770D01*
X27257Y-38894D01*
X27304Y-39009D01*
X27392Y-39097D01*
X27506Y-39144D01*
X27630Y-39144D01*
X27745Y-39097D01*
X27833Y-39009D01*
X27880Y-38895D01*
X27880Y-38771D01*
X27880Y-39345D01*
X27842Y-39361D01*
X27743Y-39460D01*
X27690Y-39589D01*
X27690Y-39729D01*
X27743Y-39858D01*
X27842Y-39957D01*
X27971Y-40010D01*
X28111Y-40010D01*
X28240Y-39957D01*
X28339Y-39858D01*
X28392Y-39729D01*
X28392Y-39590D01*
X28392Y-40200D01*
X26914Y-40200D01*
X26963Y-40125D01*
X26995Y-39968D01*
X26995Y-39350D01*
X26963Y-39193D01*
X26874Y-39060D01*
X26741Y-38971D01*
X26584Y-38940D01*
X26427Y-38971D01*
X26294Y-39060D01*
X26205Y-39193D01*
X26174Y-39350D01*
X26174Y-39968D01*
X26205Y-40125D01*
X26255Y-40200D01*
X26190Y-40200D01*
X26190Y-40115D01*
X26187Y-40100D01*
X26187Y-40086D01*
X26141Y-39857D01*
X26119Y-39804D01*
X25989Y-39610D01*
X25989Y-39610D01*
X25989Y-39610D01*
X25969Y-39590D01*
X25949Y-39570D01*
X25949Y-39570D01*
X25872Y-39518D01*
X26052Y-39518D01*
X26094Y-39500D01*
X26126Y-39468D01*
X26144Y-39426D01*
X26144Y-39380D01*
X26144Y-38789D01*
X26132Y-38761D01*
X26272Y-38703D01*
X26434Y-38542D01*
X26521Y-38330D01*
X26522Y-38102D01*
X26434Y-37890D01*
X26273Y-37728D01*
X26061Y-37641D01*
X25833Y-37640D01*
X25832Y-37641D01*
X25848Y-37602D01*
X25848Y-37557D01*
X25848Y-37247D01*
X25830Y-37204D01*
X25798Y-37172D01*
X25755Y-37155D01*
X25728Y-37155D01*
X25730Y-37154D01*
X25806Y-37078D01*
X25847Y-36978D01*
X25847Y-36934D01*
X26806Y-37892D01*
X26853Y-37923D01*
X26909Y-37935D01*
X27982Y-37935D01*
X27949Y-37967D01*
X27911Y-38061D01*
X27910Y-38162D01*
X27949Y-38256D01*
X28021Y-38328D01*
X28115Y-38366D01*
X28216Y-38367D01*
X28310Y-38328D01*
X28382Y-38256D01*
X28420Y-38162D01*
X28421Y-38061D01*
X28382Y-37967D01*
X28349Y-37935D01*
X28768Y-37935D01*
X28733Y-37969D01*
X28695Y-38063D01*
X28694Y-38164D01*
X28733Y-38258D01*
X28805Y-38330D01*
X28899Y-38368D01*
X29000Y-38369D01*
X29094Y-38330D01*
X29166Y-38258D01*
X29204Y-38164D01*
X29205Y-38063D01*
X29203Y-38060D01*
X29217Y-38060D01*
X29435Y-38060D01*
X29422Y-38121D01*
X29422Y-38121D01*
X29422Y-38121D01*
X29422Y-38178D01*
X29422Y-38178D01*
X29450Y-38317D01*
X29472Y-38370D01*
X29472Y-38370D01*
X29472Y-38370D01*
X29551Y-38488D01*
X29591Y-38528D01*
X29591Y-38528D01*
X29591Y-38528D01*
X29709Y-38607D01*
X29762Y-38629D01*
X29762Y-38629D01*
X29901Y-38657D01*
X29915Y-38657D01*
X29930Y-38660D01*
X30062Y-38660D01*
X30056Y-38662D01*
X30011Y-38778D01*
X30014Y-38902D01*
X30056Y-39003D01*
X30106Y-39022D01*
X30296Y-38832D01*
X30291Y-38827D01*
X30319Y-38799D01*
X30324Y-38804D01*
X30330Y-38799D01*
X30358Y-38827D01*
X30353Y-38832D01*
X30543Y-39022D01*
X30593Y-39003D01*
X30638Y-38887D01*
X30635Y-38763D01*
X30593Y-38662D01*
X30586Y-38660D01*
X31577Y-38660D01*
X31620Y-38703D01*
X31832Y-38790D01*
X31901Y-38790D01*
X31878Y-38834D01*
X32140Y-39095D01*
X32401Y-38834D01*
X32369Y-38774D01*
X32234Y-38719D01*
X32272Y-38703D01*
X32316Y-38660D01*
X32510Y-38660D01*
X32510Y-38942D01*
M02*
