G04 (created by PCBNEW (2013-mar-13)-testing) date Fri 20 Dec 2013 02:45:34 PM CET*
%MOIN*%
G04 Gerber Fmt 3.4, Leading zero omitted, Abs format*
%FSLAX34Y34*%
G01*
G70*
G90*
G04 APERTURE LIST*
%ADD10C,0.003937*%
%ADD11C,0.001000*%
%ADD12R,0.021300X0.021700*%
%ADD13R,0.025000X0.045000*%
%ADD14R,0.021700X0.021300*%
%ADD15R,0.045000X0.025000*%
%ADD16R,0.019700X0.023600*%
%ADD17R,0.023600X0.019700*%
%ADD18C,0.039370*%
%ADD19R,0.031500X0.019700*%
%ADD20R,0.011800X0.019700*%
%ADD21R,0.037402X0.033465*%
%ADD22R,0.027559X0.055118*%
%ADD23R,0.259843X0.259843*%
%ADD24O,0.009449X0.023622*%
%ADD25O,0.023622X0.009449*%
%ADD26R,0.039370X0.021654*%
%ADD27C,0.092000*%
%ADD28R,0.059100X0.059100*%
%ADD29C,0.059100*%
%ADD30R,0.165354X0.027559*%
%ADD31O,0.017717X0.043307*%
%ADD32R,0.161417X0.094488*%
%ADD33R,0.059055X0.059055*%
%ADD34R,0.009449X0.035433*%
%ADD35R,0.035433X0.009449*%
%ADD36R,0.019700X0.051200*%
%ADD37R,0.035500X0.051200*%
%ADD38R,0.196900X0.019700*%
%ADD39R,0.035500X0.160000*%
%ADD40R,0.019700X0.160000*%
%ADD41R,0.019700X0.084200*%
%ADD42R,0.118100X0.019700*%
%ADD43R,0.106300X0.019700*%
%ADD44R,0.019700X0.155100*%
%ADD45C,0.030000*%
%ADD46O,0.059055X0.118110*%
%ADD47C,0.047244*%
%ADD48R,0.031000X0.031000*%
%ADD49C,0.031000*%
%ADD50C,0.028000*%
%ADD51C,0.006000*%
%ADD52C,0.008000*%
%ADD53C,0.017000*%
%ADD54C,0.010000*%
%ADD55C,0.012000*%
G04 APERTURE END LIST*
G54D10*
G54D11*
X26467Y-18375D02*
X26112Y-18375D01*
X27215Y-18375D02*
X27018Y-18375D01*
X31585Y-18001D02*
X31782Y-18001D01*
X31782Y-18001D02*
X31782Y-16253D01*
X31585Y-18001D02*
X31585Y-16253D01*
X30719Y-16253D02*
X31782Y-16253D01*
X30719Y-16450D02*
X31782Y-16450D01*
X29734Y-17292D02*
X30915Y-17292D01*
X30915Y-16253D02*
X30915Y-17489D01*
X30719Y-16253D02*
X30719Y-17489D01*
X28868Y-16450D02*
X29931Y-16450D01*
X29734Y-17489D02*
X30915Y-17489D01*
X28868Y-16253D02*
X29931Y-16253D01*
X29734Y-17489D02*
X29734Y-16253D01*
X29931Y-17489D02*
X29931Y-16253D01*
X29065Y-17489D02*
X29065Y-16253D01*
X28868Y-17489D02*
X28868Y-16253D01*
X27884Y-17292D02*
X29065Y-17292D01*
X27884Y-17489D02*
X29065Y-17489D01*
X27884Y-16253D02*
X27884Y-17489D01*
X28081Y-16253D02*
X28081Y-17489D01*
X26112Y-16450D02*
X28081Y-16450D01*
X26112Y-16253D02*
X28081Y-16253D01*
X26112Y-18375D02*
X26112Y-16253D01*
X26467Y-18375D02*
X26467Y-16253D01*
X27018Y-18375D02*
X27018Y-16253D01*
X27215Y-18375D02*
X27215Y-16253D01*
G54D12*
X25521Y-18843D03*
X25521Y-18528D03*
X27633Y-21160D03*
X27633Y-20845D03*
X26314Y-21237D03*
X26314Y-20922D03*
X28161Y-38725D03*
X28161Y-39040D03*
X28947Y-38728D03*
X28947Y-39043D03*
G54D13*
X28640Y-39700D03*
X29240Y-39700D03*
G54D12*
X29225Y-21836D03*
X29225Y-21521D03*
G54D14*
X31486Y-23064D03*
X31171Y-23064D03*
X30238Y-22397D03*
X30553Y-22397D03*
G54D13*
X26687Y-38331D03*
X27287Y-38331D03*
G54D15*
X26887Y-37421D03*
X26887Y-36821D03*
G54D12*
X29319Y-27652D03*
X29319Y-27967D03*
G54D14*
X31185Y-26478D03*
X31500Y-26478D03*
G54D16*
X28666Y-23398D03*
X28666Y-22965D03*
G54D17*
X29163Y-22621D03*
X28730Y-22621D03*
X27739Y-21431D03*
X28172Y-21431D03*
X29283Y-21011D03*
X28850Y-21011D03*
G54D16*
X28356Y-22964D03*
X28356Y-23397D03*
G54D14*
X31212Y-24746D03*
X31527Y-24746D03*
G54D16*
X28286Y-21849D03*
X28286Y-22282D03*
G54D12*
X29807Y-22945D03*
X29807Y-22630D03*
G54D14*
X26792Y-23560D03*
X26477Y-23560D03*
G54D12*
X29466Y-22945D03*
X29466Y-22630D03*
X27401Y-22952D03*
X27401Y-22637D03*
X27047Y-22952D03*
X27047Y-22637D03*
G54D15*
X26295Y-37422D03*
X26295Y-36822D03*
G54D16*
X28725Y-22278D03*
X28725Y-21845D03*
X28506Y-21437D03*
X28506Y-21004D03*
G54D17*
X27850Y-22621D03*
X28283Y-22621D03*
G54D18*
X27350Y-39850D03*
X30540Y-39850D03*
G54D14*
X28480Y-38427D03*
X28165Y-38427D03*
X29266Y-38427D03*
X28951Y-38427D03*
G54D12*
X25865Y-18843D03*
X25865Y-18528D03*
G54D14*
X31171Y-23373D03*
X31486Y-23373D03*
G54D12*
X26615Y-22903D03*
X26615Y-22588D03*
G54D17*
X27542Y-18611D03*
X27109Y-18611D03*
X27959Y-18611D03*
X28392Y-18611D03*
G54D14*
X27138Y-38783D03*
X26823Y-38783D03*
G54D12*
X26380Y-21937D03*
X26380Y-22252D03*
X31645Y-28207D03*
X31645Y-28522D03*
X30910Y-28207D03*
X30910Y-28522D03*
X30180Y-28207D03*
X30180Y-28522D03*
G54D14*
X31594Y-21783D03*
X31279Y-21783D03*
X31342Y-21414D03*
X31027Y-21414D03*
G54D19*
X29794Y-18645D03*
X29794Y-19137D03*
X29794Y-20121D03*
X29794Y-19629D03*
X29006Y-19629D03*
X29006Y-20121D03*
X29006Y-19137D03*
X29006Y-18645D03*
G54D20*
X26815Y-21580D03*
X27209Y-21580D03*
X27209Y-22210D03*
X27012Y-22210D03*
X26815Y-22210D03*
G54D21*
X29756Y-21875D03*
X30327Y-21875D03*
X30327Y-21422D03*
X29756Y-21422D03*
G54D22*
X27269Y-21090D03*
X26678Y-21090D03*
G54D23*
X28890Y-25321D03*
G54D24*
X28791Y-26856D03*
X28595Y-26856D03*
X28398Y-26856D03*
X28201Y-26856D03*
X28004Y-26856D03*
X27807Y-26856D03*
X27610Y-26856D03*
X28988Y-26856D03*
X29185Y-26856D03*
X29382Y-26856D03*
X29579Y-26856D03*
X29776Y-26856D03*
X29972Y-26856D03*
X30169Y-26856D03*
X30169Y-23785D03*
X29972Y-23785D03*
X29776Y-23785D03*
X29579Y-23785D03*
X29382Y-23785D03*
X29185Y-23785D03*
X28988Y-23785D03*
X28791Y-23785D03*
X28595Y-23785D03*
X28398Y-23785D03*
X28201Y-23785D03*
X28004Y-23785D03*
X27807Y-23785D03*
X27610Y-23785D03*
G54D25*
X30425Y-26600D03*
X30425Y-26403D03*
X30425Y-26206D03*
X30425Y-26009D03*
X30425Y-25813D03*
X30425Y-25616D03*
X30425Y-25419D03*
X30425Y-25222D03*
X30425Y-25025D03*
X30425Y-24828D03*
X30425Y-24632D03*
X30425Y-24435D03*
X30425Y-24238D03*
X30425Y-24041D03*
X27354Y-24041D03*
X27354Y-24238D03*
X27354Y-24435D03*
X27354Y-24632D03*
X27354Y-24828D03*
X27354Y-25025D03*
X27354Y-25222D03*
X27354Y-25419D03*
X27354Y-25616D03*
X27354Y-25813D03*
X27354Y-26009D03*
X27354Y-26206D03*
X27354Y-26403D03*
X27354Y-26600D03*
G54D26*
X28571Y-37894D03*
X28571Y-37145D03*
X27508Y-37894D03*
X28571Y-37520D03*
X27508Y-37145D03*
G54D12*
X28404Y-19348D03*
X28404Y-19663D03*
G54D14*
X31198Y-22536D03*
X31513Y-22536D03*
X26998Y-26448D03*
X26683Y-26448D03*
X27023Y-27024D03*
X26708Y-27024D03*
G54D27*
X31947Y-38216D03*
X25947Y-38216D03*
G54D28*
X25734Y-39108D03*
G54D29*
X32140Y-39124D03*
G54D30*
X31640Y-33583D03*
X31640Y-33976D03*
X31640Y-34370D03*
X31640Y-34764D03*
X31640Y-35158D03*
X31640Y-35551D03*
X31640Y-35945D03*
X31640Y-36339D03*
X31640Y-36732D03*
X31640Y-37126D03*
X31640Y-37520D03*
X31640Y-32362D03*
X31640Y-31969D03*
X31640Y-31575D03*
X31640Y-31181D03*
X31640Y-30787D03*
X31640Y-30394D03*
X31640Y-30000D03*
G54D31*
X30500Y-18577D03*
X31000Y-18577D03*
X31500Y-18577D03*
X32000Y-18577D03*
G54D32*
X31250Y-19680D03*
G54D31*
X32000Y-20782D03*
X31500Y-20782D03*
X31000Y-20782D03*
X30500Y-20782D03*
G54D33*
X26550Y-19705D03*
G54D34*
X26254Y-20315D03*
X26451Y-20315D03*
X26648Y-20315D03*
X26845Y-20315D03*
X26845Y-19094D03*
X26648Y-19094D03*
X26451Y-19094D03*
X26254Y-19094D03*
G54D35*
X27160Y-20000D03*
X27160Y-19409D03*
X25939Y-19409D03*
X25939Y-19606D03*
X25939Y-19803D03*
X25939Y-20000D03*
G54D36*
X27115Y-18119D03*
G54D37*
X26288Y-18119D03*
G54D38*
X27097Y-16351D03*
G54D39*
X26288Y-17111D03*
G54D40*
X27115Y-17111D03*
G54D41*
X27983Y-16873D03*
X28967Y-16871D03*
X29833Y-16871D03*
X30817Y-16871D03*
G54D42*
X28475Y-17389D03*
X30325Y-17389D03*
G54D43*
X29401Y-16351D03*
X31250Y-16350D03*
G54D44*
X31683Y-17222D03*
G54D12*
X27600Y-22197D03*
X27600Y-21882D03*
G54D14*
X27972Y-28773D03*
X28287Y-28773D03*
G54D45*
X27475Y-29125D03*
X28225Y-29125D03*
X26725Y-29125D03*
G54D12*
X29860Y-27892D03*
X29860Y-28207D03*
X30590Y-27892D03*
X30590Y-28207D03*
X31325Y-27892D03*
X31325Y-28207D03*
G54D46*
X31309Y-39659D03*
X26584Y-39659D03*
G54D47*
X28041Y-39659D03*
X29852Y-39659D03*
G54D18*
X27569Y-38832D03*
X28553Y-38832D03*
X29340Y-38832D03*
X30324Y-38832D03*
G54D48*
X29350Y-33290D03*
X29350Y-37790D03*
X29350Y-37290D03*
X29350Y-36790D03*
X29350Y-36290D03*
X29350Y-35790D03*
X29350Y-35290D03*
X29350Y-34790D03*
X29350Y-34290D03*
X29350Y-33790D03*
X29850Y-37198D03*
X29850Y-36698D03*
X29850Y-36198D03*
X29850Y-35698D03*
X29850Y-35198D03*
X29850Y-34698D03*
X29850Y-34198D03*
X29850Y-33698D03*
G54D49*
X26642Y-34787D03*
X27142Y-34787D03*
X27642Y-34787D03*
X28142Y-34787D03*
X28642Y-34787D03*
X27642Y-35287D03*
X28142Y-35287D03*
X28642Y-35287D03*
X27142Y-35287D03*
X26642Y-35287D03*
X26642Y-34287D03*
X27142Y-34287D03*
X27642Y-34287D03*
X28142Y-34287D03*
X28642Y-34287D03*
X26642Y-33787D03*
X27142Y-33787D03*
X27642Y-33787D03*
X28142Y-33787D03*
X28642Y-33787D03*
X26642Y-35787D03*
X26642Y-36287D03*
X27142Y-36287D03*
X27142Y-35787D03*
X27642Y-35787D03*
X27642Y-36287D03*
X28142Y-35787D03*
X28142Y-36287D03*
X28642Y-35787D03*
X28642Y-36287D03*
X26642Y-33287D03*
X27142Y-33287D03*
X27642Y-33287D03*
X28142Y-33287D03*
X28142Y-32787D03*
X27642Y-32787D03*
X27142Y-32787D03*
X26642Y-32787D03*
X26642Y-32287D03*
X27142Y-32287D03*
X27642Y-32287D03*
X28142Y-32287D03*
X28142Y-31787D03*
X27642Y-31787D03*
X27142Y-31787D03*
X26642Y-31787D03*
X26642Y-31287D03*
X27142Y-31287D03*
X27642Y-31287D03*
X28142Y-31287D03*
X28142Y-30787D03*
X27642Y-30787D03*
X27142Y-30787D03*
X26642Y-30787D03*
X26642Y-30287D03*
X27142Y-30287D03*
X27642Y-30287D03*
X27642Y-29787D03*
X27142Y-29787D03*
X26642Y-29787D03*
X28142Y-29787D03*
X28142Y-30287D03*
X25578Y-36925D03*
G54D48*
X25578Y-37425D03*
X25270Y-24180D03*
X25270Y-23680D03*
X25270Y-23180D03*
X25270Y-22680D03*
X25270Y-22180D03*
X25270Y-21680D03*
X25270Y-21180D03*
X25270Y-20680D03*
X25270Y-20180D03*
X25270Y-28680D03*
X25270Y-28180D03*
X25270Y-27680D03*
X25270Y-27180D03*
X25270Y-26680D03*
X25270Y-26180D03*
X25270Y-25680D03*
X25270Y-25180D03*
X25270Y-24680D03*
X32631Y-24152D03*
X32631Y-23652D03*
X32631Y-23152D03*
X32631Y-22652D03*
X32631Y-22152D03*
X32631Y-21652D03*
X32631Y-21152D03*
X32631Y-20652D03*
X32631Y-20152D03*
X32631Y-28652D03*
X32631Y-28152D03*
X32631Y-27652D03*
X32631Y-27152D03*
X32631Y-26652D03*
X32631Y-26152D03*
X32631Y-25652D03*
X32631Y-25152D03*
X32631Y-24652D03*
X29350Y-29930D03*
X29350Y-30430D03*
X29350Y-30930D03*
X29350Y-31430D03*
X29350Y-31930D03*
X29350Y-32430D03*
X29850Y-30180D03*
X29850Y-30680D03*
X29850Y-31180D03*
X29850Y-31680D03*
X29850Y-32180D03*
G54D50*
X31895Y-27465D03*
X30612Y-32398D03*
X30803Y-24990D03*
X27579Y-22341D03*
X26440Y-21600D03*
X29753Y-20768D03*
X30453Y-23220D03*
X26005Y-19160D03*
X31251Y-21060D03*
X30702Y-23492D03*
X32338Y-18434D03*
X26178Y-18585D03*
X26710Y-18363D03*
X28541Y-33212D03*
X27850Y-29125D03*
X26414Y-38722D03*
X27090Y-39370D03*
X27705Y-36773D03*
X27471Y-28617D03*
X31513Y-22799D03*
X27100Y-29125D03*
X26403Y-26478D03*
X26550Y-19705D03*
X30800Y-19500D03*
X31250Y-19680D03*
X31700Y-19900D03*
X27411Y-23373D03*
X32147Y-28574D03*
X31501Y-26208D03*
X28979Y-28105D03*
X25486Y-19576D03*
X28427Y-18912D03*
X31521Y-24413D03*
X28900Y-25800D03*
X28000Y-24800D03*
X29800Y-24800D03*
X28890Y-26300D03*
X29800Y-25800D03*
X28000Y-25800D03*
X27998Y-24334D03*
X29796Y-24332D03*
X28000Y-26300D03*
X29800Y-26300D03*
X29800Y-25300D03*
X28000Y-25300D03*
X28900Y-24800D03*
X28900Y-24332D03*
X28890Y-25321D03*
X29015Y-37540D03*
X29017Y-37040D03*
X30640Y-27475D03*
X30240Y-27475D03*
X29855Y-27475D03*
X26905Y-21880D03*
X26402Y-24784D03*
X26554Y-23252D03*
X25818Y-20610D03*
X27285Y-21895D03*
X26985Y-24960D03*
X25832Y-20264D03*
X27413Y-21575D03*
X27161Y-19682D03*
X30188Y-20820D03*
X27095Y-19143D03*
X27354Y-26813D03*
X30051Y-23213D03*
X26995Y-20255D03*
X27030Y-25455D03*
X27288Y-20444D03*
X26472Y-25128D03*
X26578Y-18694D03*
X31425Y-27475D03*
X31273Y-22094D03*
X30234Y-18914D03*
X31407Y-23685D03*
X28868Y-33451D03*
X30182Y-18432D03*
X30940Y-21730D03*
X30929Y-23758D03*
X28242Y-27564D03*
X28166Y-38112D03*
X27860Y-27230D03*
X26397Y-26121D03*
X27512Y-27272D03*
X26398Y-26865D03*
X28950Y-38114D03*
X26652Y-28635D03*
X26754Y-23940D03*
X31614Y-22093D03*
X30884Y-26601D03*
X26999Y-26697D03*
X31271Y-24991D03*
X25656Y-19161D03*
X29334Y-27288D03*
X30120Y-22857D03*
X27819Y-22953D03*
X28221Y-27205D03*
X29777Y-22254D03*
X29456Y-23261D03*
X29338Y-22244D03*
X29128Y-23390D03*
G54D51*
X30425Y-25222D02*
X31566Y-25222D01*
X32631Y-23189D02*
X32631Y-23152D01*
X31806Y-24014D02*
X32631Y-23189D01*
X31806Y-24983D02*
X31806Y-24014D01*
X31566Y-25222D02*
X31806Y-24983D01*
X32631Y-23152D02*
X32631Y-23154D01*
X32622Y-23152D02*
X32631Y-23152D01*
X30425Y-25025D02*
X30767Y-25025D01*
X30767Y-25025D02*
X30803Y-24990D01*
X29350Y-33290D02*
X29556Y-33290D01*
X29558Y-33292D02*
X29714Y-33448D01*
X29714Y-33448D02*
X30052Y-33448D01*
X30052Y-33448D02*
X30580Y-33976D01*
X30580Y-33976D02*
X31640Y-33976D01*
X29556Y-33290D02*
X29558Y-33292D01*
X29350Y-33290D02*
X29452Y-33290D01*
X32631Y-24652D02*
X32395Y-24652D01*
X30793Y-25601D02*
X30740Y-25654D01*
X31761Y-25601D02*
X30793Y-25601D01*
X32212Y-25150D02*
X31761Y-25601D01*
X32212Y-24835D02*
X32212Y-25150D01*
X32395Y-24652D02*
X32212Y-24835D01*
X30425Y-25813D02*
X30580Y-25813D01*
X30580Y-25813D02*
X30740Y-25654D01*
X27579Y-22341D02*
X27579Y-22218D01*
X27579Y-22218D02*
X27600Y-22197D01*
X29350Y-31930D02*
X30142Y-31930D01*
X30496Y-31575D02*
X31640Y-31575D01*
X30142Y-31930D02*
X30496Y-31575D01*
X26440Y-21600D02*
X26795Y-21600D01*
X26795Y-21600D02*
X26815Y-21580D01*
X26380Y-21660D02*
X26440Y-21600D01*
X26380Y-21660D02*
X26380Y-21937D01*
X29794Y-20121D02*
X29794Y-20727D01*
X29794Y-20727D02*
X29753Y-20768D01*
X29006Y-18645D02*
X29006Y-18697D01*
X29385Y-19076D02*
X29385Y-20121D01*
X29006Y-18697D02*
X29385Y-19076D01*
X29794Y-20121D02*
X29385Y-20121D01*
X29385Y-20121D02*
X29006Y-20121D01*
X29776Y-23785D02*
X29776Y-23713D01*
X29776Y-23713D02*
X30040Y-23450D01*
X30223Y-23450D02*
X30453Y-23220D01*
X30040Y-23450D02*
X30223Y-23450D01*
X26070Y-19094D02*
X26005Y-19160D01*
X26070Y-19094D02*
X26254Y-19094D01*
X32631Y-24152D02*
X32328Y-24152D01*
X30695Y-25475D02*
X30554Y-25616D01*
X31711Y-25475D02*
X30695Y-25475D01*
X32084Y-25102D02*
X31711Y-25475D01*
X32084Y-24396D02*
X32084Y-25102D01*
X32328Y-24152D02*
X32084Y-24396D01*
X30425Y-25616D02*
X30554Y-25616D01*
X32631Y-23652D02*
X32568Y-23652D01*
X30621Y-25349D02*
X30551Y-25419D01*
X31653Y-25349D02*
X30621Y-25349D01*
X31944Y-25058D02*
X31653Y-25349D01*
X31944Y-24276D02*
X31944Y-25058D01*
X32568Y-23652D02*
X31944Y-24276D01*
X30551Y-25419D02*
X30425Y-25419D01*
X29350Y-32430D02*
X30088Y-32430D01*
X30548Y-31969D02*
X31640Y-31969D01*
X30088Y-32430D02*
X30548Y-31969D01*
X29972Y-23785D02*
X29972Y-23714D01*
X31500Y-20811D02*
X31500Y-20782D01*
X31251Y-21060D02*
X31500Y-20811D01*
X30617Y-23577D02*
X30702Y-23492D01*
X30110Y-23577D02*
X30617Y-23577D01*
X29972Y-23714D02*
X30110Y-23577D01*
X32000Y-18577D02*
X32000Y-18763D01*
X32160Y-20622D02*
X32000Y-20782D01*
X32160Y-18923D02*
X32160Y-20622D01*
X32000Y-18763D02*
X32160Y-18923D01*
X31500Y-20782D02*
X32000Y-20782D01*
X31000Y-20782D02*
X31500Y-20782D01*
X25865Y-18528D02*
X26121Y-18528D01*
X26121Y-18528D02*
X26178Y-18585D01*
X29850Y-30180D02*
X28952Y-30180D01*
X28746Y-33007D02*
X28541Y-33212D01*
X28746Y-30386D02*
X28746Y-33007D01*
X28952Y-30180D02*
X28746Y-30386D01*
X26414Y-38722D02*
X26450Y-38722D01*
X26511Y-38783D02*
X26823Y-38783D01*
X26450Y-38722D02*
X26511Y-38783D01*
X26823Y-38783D02*
X26823Y-38963D01*
X27090Y-39230D02*
X27090Y-39370D01*
X26823Y-38963D02*
X27090Y-39230D01*
X28702Y-28614D02*
X28675Y-28614D01*
X28999Y-28522D02*
X28793Y-28522D01*
X30180Y-28522D02*
X28999Y-28522D01*
X28793Y-28522D02*
X28702Y-28614D01*
X28675Y-28614D02*
X28588Y-28527D01*
X28588Y-28527D02*
X27561Y-28527D01*
X27561Y-28527D02*
X27471Y-28617D01*
X29225Y-21521D02*
X29029Y-21521D01*
X29163Y-22446D02*
X29163Y-22621D01*
X29097Y-22380D02*
X29163Y-22446D01*
X29097Y-22355D02*
X29097Y-22380D01*
X28999Y-22257D02*
X29097Y-22355D01*
X28999Y-21552D02*
X28999Y-22257D01*
X29029Y-21521D02*
X28999Y-21552D01*
X28161Y-39040D02*
X28334Y-39040D01*
X28768Y-39043D02*
X28947Y-39043D01*
X28638Y-39174D02*
X28768Y-39043D01*
X28468Y-39174D02*
X28638Y-39174D01*
X28334Y-39040D02*
X28468Y-39174D01*
X30553Y-22397D02*
X30769Y-22397D01*
X31513Y-22353D02*
X31513Y-22536D01*
X31494Y-22334D02*
X31513Y-22353D01*
X30833Y-22334D02*
X31494Y-22334D01*
X30769Y-22397D02*
X30833Y-22334D01*
X26380Y-22252D02*
X26148Y-22252D01*
X26132Y-21260D02*
X26132Y-21237D01*
X26105Y-21287D02*
X26132Y-21260D01*
X26105Y-21356D02*
X26105Y-21287D01*
X26105Y-21435D02*
X26105Y-21356D01*
X26138Y-21468D02*
X26105Y-21435D01*
X26138Y-22242D02*
X26138Y-21468D01*
X26148Y-22252D02*
X26138Y-22242D01*
X26314Y-21237D02*
X26132Y-21237D01*
X26132Y-21237D02*
X26069Y-21237D01*
X25568Y-20736D02*
X25568Y-20718D01*
X26069Y-21237D02*
X25568Y-20736D01*
X31513Y-22536D02*
X31702Y-22536D01*
X31702Y-22536D02*
X31728Y-22562D01*
X31664Y-23064D02*
X31711Y-23017D01*
X31628Y-22799D02*
X31513Y-22799D01*
X31728Y-22699D02*
X31628Y-22799D01*
X31728Y-22562D02*
X31728Y-22699D01*
X31486Y-23064D02*
X31664Y-23064D01*
X31661Y-22799D02*
X31513Y-22799D01*
X31711Y-22849D02*
X31661Y-22799D01*
X31711Y-23017D02*
X31711Y-22849D01*
X30553Y-22397D02*
X30553Y-22560D01*
X29819Y-22618D02*
X29807Y-22630D01*
X30496Y-22618D02*
X29819Y-22618D01*
X30553Y-22560D02*
X30496Y-22618D01*
X27850Y-21874D02*
X27608Y-21874D01*
X27608Y-21874D02*
X27600Y-21882D01*
X27739Y-21431D02*
X27739Y-21612D01*
X27850Y-21866D02*
X27850Y-21874D01*
X27850Y-21874D02*
X27850Y-22621D01*
X27850Y-21723D02*
X27850Y-21866D01*
X27739Y-21612D02*
X27850Y-21723D01*
X26615Y-22588D02*
X26694Y-22588D01*
X26694Y-22588D02*
X26743Y-22637D01*
X26743Y-22637D02*
X27047Y-22637D01*
X30324Y-38832D02*
X30022Y-38832D01*
X30022Y-38832D02*
X29240Y-39615D01*
X29240Y-39615D02*
X29240Y-39700D01*
X27600Y-21882D02*
X27611Y-21882D01*
X26683Y-26448D02*
X26433Y-26448D01*
X26433Y-26448D02*
X26403Y-26478D01*
X30980Y-19680D02*
X31250Y-19680D01*
X30800Y-19500D02*
X30980Y-19680D01*
X31480Y-19680D02*
X31250Y-19680D01*
X31700Y-19900D02*
X31480Y-19680D01*
X27411Y-23373D02*
X27411Y-23367D01*
X30910Y-28522D02*
X30180Y-28522D01*
X31500Y-26478D02*
X31500Y-26208D01*
X31500Y-26208D02*
X31501Y-26208D01*
X26708Y-27024D02*
X26708Y-27222D01*
X27476Y-27044D02*
X27391Y-27044D01*
X27610Y-26909D02*
X27476Y-27044D01*
X27610Y-26909D02*
X27610Y-26856D01*
X27106Y-27329D02*
X27391Y-27044D01*
X26815Y-27329D02*
X27106Y-27329D01*
X26708Y-27222D02*
X26815Y-27329D01*
X26683Y-26448D02*
X26683Y-26572D01*
X26722Y-27010D02*
X26708Y-27024D01*
X26722Y-26611D02*
X26722Y-27010D01*
X26683Y-26572D02*
X26722Y-26611D01*
X29319Y-27967D02*
X29116Y-27967D01*
X29116Y-27967D02*
X28979Y-28105D01*
X30910Y-28522D02*
X31645Y-28522D01*
X31645Y-28522D02*
X31647Y-28520D01*
X32173Y-28152D02*
X32631Y-28152D01*
X31805Y-28520D02*
X32173Y-28152D01*
X31647Y-28520D02*
X31805Y-28520D01*
X25568Y-20718D02*
X25568Y-19658D01*
X25568Y-19658D02*
X25486Y-19576D01*
X28427Y-18912D02*
X28392Y-18877D01*
X28392Y-18877D02*
X28392Y-18611D01*
X31527Y-24746D02*
X31527Y-24419D01*
X31527Y-24419D02*
X31521Y-24413D01*
G54D52*
X25865Y-18528D02*
X26282Y-18528D01*
X26282Y-18528D02*
X26288Y-18522D01*
X26288Y-18522D02*
X26288Y-18119D01*
G54D51*
X27739Y-21431D02*
X27739Y-21245D01*
X27739Y-21245D02*
X27654Y-21160D01*
X31500Y-18577D02*
X31500Y-19430D01*
X31500Y-19430D02*
X31250Y-19680D01*
X26550Y-19705D02*
X26565Y-19705D01*
X26860Y-20000D02*
X27160Y-20000D01*
X26565Y-19705D02*
X26860Y-20000D01*
X28404Y-19663D02*
X28971Y-19663D01*
X28971Y-19663D02*
X29006Y-19629D01*
X28571Y-37520D02*
X28571Y-37145D01*
X28890Y-25790D02*
X28900Y-25800D01*
X28890Y-25321D02*
X28890Y-25790D01*
X28890Y-25321D02*
X28521Y-25321D01*
X28521Y-25321D02*
X28000Y-24800D01*
X28890Y-25321D02*
X29279Y-25321D01*
X29279Y-25321D02*
X29800Y-24800D01*
X28890Y-26300D02*
X28890Y-25321D01*
X29321Y-25321D02*
X29800Y-25800D01*
X28890Y-25321D02*
X29321Y-25321D01*
X28479Y-25321D02*
X28000Y-25800D01*
X28890Y-25321D02*
X28479Y-25321D01*
X28890Y-25321D02*
X28890Y-25190D01*
X28890Y-25190D02*
X27998Y-24334D01*
X28890Y-25321D02*
X28890Y-25209D01*
X28890Y-25209D02*
X29796Y-24332D01*
X28879Y-25321D02*
X28000Y-26300D01*
X28890Y-25321D02*
X28879Y-25321D01*
X28921Y-25321D02*
X28890Y-25321D01*
X29800Y-26300D02*
X28921Y-25321D01*
X29779Y-25321D02*
X28890Y-25321D01*
X29800Y-25300D02*
X29779Y-25321D01*
X28021Y-25321D02*
X28890Y-25321D01*
X28000Y-25300D02*
X28021Y-25321D01*
X28890Y-24809D02*
X28890Y-25321D01*
X28900Y-24800D02*
X28890Y-24809D01*
X28890Y-24341D02*
X28890Y-25321D01*
X28900Y-24332D02*
X28890Y-24341D01*
X27610Y-26856D02*
X27610Y-26600D01*
X27610Y-26600D02*
X28890Y-25321D01*
X28498Y-28215D02*
X25279Y-28215D01*
X29185Y-26856D02*
X29185Y-27055D01*
X29012Y-27700D02*
X28498Y-28215D01*
X29012Y-27228D02*
X29012Y-27700D01*
X29185Y-27055D02*
X29012Y-27228D01*
X28988Y-26856D02*
X28988Y-27051D01*
X28457Y-28071D02*
X28860Y-27668D01*
X26000Y-27680D02*
X26391Y-28071D01*
X26000Y-27680D02*
X25270Y-27680D01*
X26391Y-28071D02*
X28457Y-28071D01*
X28888Y-27640D02*
X28860Y-27668D01*
X28888Y-27152D02*
X28888Y-27640D01*
X28988Y-27051D02*
X28888Y-27152D01*
X29684Y-37498D02*
X30327Y-37498D01*
X29350Y-37290D02*
X29476Y-37290D01*
X30699Y-37126D02*
X31640Y-37126D01*
X30331Y-37495D02*
X30699Y-37126D01*
X29476Y-37290D02*
X29684Y-37498D01*
X25270Y-27180D02*
X25713Y-27180D01*
X28405Y-27927D02*
X28739Y-27592D01*
X26460Y-27927D02*
X28405Y-27927D01*
X25713Y-27180D02*
X26460Y-27927D01*
X28791Y-26856D02*
X28791Y-27013D01*
X28739Y-27065D02*
X28739Y-27592D01*
X28791Y-27013D02*
X28739Y-27065D01*
X32157Y-23441D02*
X32157Y-22311D01*
X30965Y-24632D02*
X32157Y-23441D01*
X30425Y-24632D02*
X30965Y-24632D01*
X32157Y-22311D02*
X32316Y-22152D01*
X32316Y-22152D02*
X32631Y-22152D01*
X32316Y-22152D02*
X32631Y-22152D01*
X30425Y-24435D02*
X30987Y-24435D01*
X32258Y-21652D02*
X32631Y-21652D01*
X31995Y-21915D02*
X32258Y-21652D01*
X31995Y-23428D02*
X31995Y-21915D01*
X30987Y-24435D02*
X31995Y-23428D01*
X29350Y-30930D02*
X30290Y-30930D01*
X30432Y-30787D02*
X31640Y-30787D01*
X30290Y-30930D02*
X30432Y-30787D01*
X30169Y-26856D02*
X31652Y-26856D01*
X31857Y-26652D02*
X32631Y-26652D01*
X31652Y-26856D02*
X31857Y-26652D01*
X32569Y-27090D02*
X32631Y-27152D01*
X30084Y-27090D02*
X32569Y-27090D01*
X29972Y-26978D02*
X30084Y-27090D01*
X29972Y-26856D02*
X29972Y-26978D01*
X29350Y-30430D02*
X31604Y-30430D01*
X31604Y-30430D02*
X31640Y-30394D01*
X32631Y-27652D02*
X32524Y-27652D01*
X29776Y-27061D02*
X29776Y-26856D01*
X29946Y-27231D02*
X29776Y-27061D01*
X32103Y-27231D02*
X29946Y-27231D01*
X32524Y-27652D02*
X32103Y-27231D01*
X29350Y-37790D02*
X29602Y-37790D01*
X30745Y-37520D02*
X31640Y-37520D01*
X30606Y-37660D02*
X30745Y-37520D01*
X29732Y-37660D02*
X30606Y-37660D01*
X29602Y-37790D02*
X29732Y-37660D01*
X29579Y-26856D02*
X29579Y-28116D01*
X29579Y-28116D02*
X29332Y-28364D01*
X29332Y-28364D02*
X25586Y-28364D01*
X25586Y-28364D02*
X25270Y-28680D01*
X25270Y-22180D02*
X25270Y-22204D01*
X25548Y-23597D02*
X25767Y-23816D01*
X25548Y-22482D02*
X25548Y-23597D01*
X25270Y-22204D02*
X25548Y-22482D01*
X26925Y-24570D02*
X26521Y-24570D01*
X26521Y-24570D02*
X25767Y-23816D01*
X27354Y-24828D02*
X27183Y-24828D01*
X26925Y-24570D02*
X27183Y-24828D01*
X25270Y-21680D02*
X25535Y-21680D01*
X25686Y-23561D02*
X25860Y-23735D01*
X25686Y-21831D02*
X25686Y-23561D01*
X25535Y-21680D02*
X25686Y-21831D01*
X27354Y-24632D02*
X27183Y-24632D01*
X26560Y-24435D02*
X25860Y-23735D01*
X26986Y-24435D02*
X26560Y-24435D01*
X27183Y-24632D02*
X26986Y-24435D01*
X29350Y-34790D02*
X29500Y-34790D01*
X30290Y-35158D02*
X31640Y-35158D01*
X30080Y-34948D02*
X30290Y-35158D01*
X29658Y-34948D02*
X30080Y-34948D01*
X29500Y-34790D02*
X29658Y-34948D01*
X32631Y-26152D02*
X32582Y-26152D01*
X30701Y-26403D02*
X30953Y-26152D01*
X30701Y-26403D02*
X30425Y-26403D01*
X31128Y-25977D02*
X30953Y-26152D01*
X31132Y-25973D02*
X31128Y-25977D01*
X32403Y-25973D02*
X31132Y-25973D01*
X32582Y-26152D02*
X32403Y-25973D01*
X32631Y-26152D02*
X32594Y-26152D01*
X31057Y-27892D02*
X31325Y-27892D01*
X30640Y-27475D02*
X31057Y-27892D01*
X32631Y-25652D02*
X32074Y-25652D01*
X30947Y-25848D02*
X30935Y-25859D01*
X31878Y-25848D02*
X30947Y-25848D01*
X32074Y-25652D02*
X31878Y-25848D01*
X29350Y-31430D02*
X30230Y-31430D01*
X30230Y-31430D02*
X30478Y-31181D01*
X30478Y-31181D02*
X31640Y-31181D01*
X30590Y-27892D02*
X30552Y-27892D01*
X30590Y-27892D02*
X30590Y-27825D01*
X30590Y-27825D02*
X30240Y-27475D01*
X30588Y-26206D02*
X30425Y-26206D01*
X30935Y-25859D02*
X30588Y-26206D01*
X32631Y-25152D02*
X32388Y-25152D01*
X30855Y-25724D02*
X30819Y-25760D01*
X31816Y-25724D02*
X30855Y-25724D01*
X32388Y-25152D02*
X31816Y-25724D01*
X30569Y-26009D02*
X30819Y-25760D01*
X30569Y-26009D02*
X30425Y-26009D01*
X29860Y-27892D02*
X29860Y-27480D01*
X29860Y-27480D02*
X29855Y-27475D01*
X28595Y-26856D02*
X28595Y-27539D01*
X25457Y-26680D02*
X25730Y-26953D01*
X26574Y-27797D02*
X25730Y-26953D01*
X28337Y-27797D02*
X26574Y-27797D01*
X28595Y-27539D02*
X28337Y-27797D01*
X25457Y-26680D02*
X25270Y-26680D01*
X26815Y-22210D02*
X26815Y-21970D01*
X26815Y-21970D02*
X26905Y-21880D01*
X26402Y-24784D02*
X26474Y-24784D01*
X26474Y-24784D02*
X26912Y-25222D01*
X27354Y-25222D02*
X26912Y-25222D01*
X27209Y-21971D02*
X27209Y-22210D01*
X27285Y-21895D02*
X27209Y-21971D01*
X27354Y-25025D02*
X27050Y-25025D01*
X27050Y-25025D02*
X26985Y-24960D01*
X29350Y-35290D02*
X29470Y-35290D01*
X30379Y-35551D02*
X31640Y-35551D01*
X30276Y-35448D02*
X30379Y-35551D01*
X29628Y-35448D02*
X30276Y-35448D01*
X29470Y-35290D02*
X29628Y-35448D01*
X27209Y-21580D02*
X27408Y-21580D01*
X27408Y-21580D02*
X27413Y-21575D01*
X29350Y-36290D02*
X29414Y-36290D01*
X30484Y-36339D02*
X31640Y-36339D01*
X30376Y-36448D02*
X30484Y-36339D01*
X29572Y-36448D02*
X30376Y-36448D01*
X29414Y-36290D02*
X29572Y-36448D01*
X27160Y-19409D02*
X27160Y-19681D01*
X27160Y-19681D02*
X27161Y-19682D01*
X25270Y-24680D02*
X25635Y-24680D01*
X26811Y-26206D02*
X27354Y-26206D01*
X25835Y-25230D02*
X26811Y-26206D01*
X25835Y-24880D02*
X25835Y-25230D01*
X25635Y-24680D02*
X25835Y-24880D01*
X26845Y-19094D02*
X27046Y-19094D01*
X27046Y-19094D02*
X27095Y-19143D01*
X25270Y-24180D02*
X25755Y-24180D01*
X26809Y-26009D02*
X27354Y-26009D01*
X26002Y-25202D02*
X26809Y-26009D01*
X26002Y-24427D02*
X26002Y-25202D01*
X25755Y-24180D02*
X26002Y-24427D01*
X26065Y-20650D02*
X26066Y-20650D01*
X26065Y-20650D02*
X26065Y-20125D01*
X25939Y-20000D02*
X26065Y-20125D01*
X26314Y-20898D02*
X26314Y-20922D01*
X26066Y-20650D02*
X26314Y-20898D01*
X26340Y-20907D02*
X26322Y-20907D01*
X26340Y-20907D02*
X26537Y-20907D01*
X26537Y-20907D02*
X26699Y-21070D01*
X26615Y-22903D02*
X26615Y-22985D01*
X27415Y-23785D02*
X27610Y-23785D01*
X26615Y-22985D02*
X27415Y-23785D01*
X31171Y-23064D02*
X31171Y-23373D01*
X31171Y-23373D02*
X31173Y-23374D01*
X31173Y-23374D02*
X31173Y-23844D01*
X31173Y-23844D02*
X30975Y-24041D01*
X30975Y-24041D02*
X30425Y-24041D01*
X26451Y-19094D02*
X26451Y-18893D01*
X25882Y-18826D02*
X25865Y-18843D01*
X26384Y-18826D02*
X25882Y-18826D01*
X26451Y-18893D02*
X26384Y-18826D01*
X29006Y-19137D02*
X28615Y-19137D01*
X28615Y-19137D02*
X28404Y-19348D01*
X30180Y-28207D02*
X29860Y-28207D01*
X30910Y-28207D02*
X30590Y-28207D01*
X31325Y-28207D02*
X31645Y-28207D01*
G54D53*
X28506Y-21004D02*
X28506Y-21003D01*
X28506Y-21003D02*
X27775Y-20272D01*
X28506Y-21004D02*
X28843Y-21004D01*
X28843Y-21004D02*
X28850Y-21011D01*
X27775Y-20272D02*
X27775Y-18611D01*
X27775Y-18611D02*
X27959Y-18611D01*
X27542Y-18611D02*
X27775Y-18611D01*
G54D54*
X27109Y-18611D02*
X27109Y-18125D01*
X27109Y-18125D02*
X27115Y-18119D01*
G54D55*
X28172Y-21431D02*
X28500Y-21431D01*
X28500Y-21431D02*
X28506Y-21437D01*
G54D54*
X28506Y-21437D02*
X28506Y-21611D01*
X28506Y-21611D02*
X28506Y-21612D01*
X28506Y-21612D02*
X28506Y-21611D01*
X28286Y-21849D02*
X28286Y-21700D01*
X28725Y-21711D02*
X28725Y-21845D01*
X28625Y-21611D02*
X28725Y-21711D01*
X28375Y-21611D02*
X28506Y-21611D01*
X28506Y-21611D02*
X28625Y-21611D01*
X28286Y-21700D02*
X28375Y-21611D01*
X28666Y-22965D02*
X28666Y-22685D01*
X28666Y-22685D02*
X28730Y-22621D01*
X28725Y-22278D02*
X28725Y-22616D01*
X28725Y-22616D02*
X28730Y-22621D01*
G54D51*
X28480Y-38427D02*
X28480Y-38760D01*
X28480Y-38760D02*
X28553Y-38832D01*
X28533Y-38480D02*
X28480Y-38427D01*
X29266Y-38758D02*
X29340Y-38832D01*
X29266Y-38427D02*
X29266Y-38758D01*
X27287Y-38331D02*
X27287Y-38500D01*
X27138Y-38648D02*
X27138Y-38783D01*
X27287Y-38500D02*
X27138Y-38648D01*
X27023Y-27024D02*
X27143Y-27024D01*
X27143Y-27024D02*
X27354Y-26813D01*
X27354Y-26600D02*
X27354Y-26812D01*
X27354Y-26812D02*
X27354Y-26813D01*
X27355Y-26600D02*
X27354Y-26600D01*
X30051Y-23213D02*
X30108Y-23213D01*
X30929Y-22536D02*
X31198Y-22536D01*
X30786Y-22536D02*
X30929Y-22536D01*
X30108Y-23213D02*
X30786Y-22536D01*
X29579Y-23785D02*
X29579Y-23685D01*
X29994Y-23271D02*
X30051Y-23213D01*
X29579Y-23685D02*
X29994Y-23271D01*
G54D52*
X28398Y-23785D02*
X28398Y-23439D01*
X28398Y-23439D02*
X28356Y-23397D01*
X28595Y-23785D02*
X28595Y-23468D01*
X28595Y-23468D02*
X28666Y-23398D01*
G54D54*
X28356Y-22964D02*
X28356Y-22694D01*
X28356Y-22694D02*
X28283Y-22621D01*
X28286Y-22282D02*
X28286Y-22618D01*
X28286Y-22618D02*
X28283Y-22621D01*
G54D51*
X26920Y-20720D02*
X26920Y-20720D01*
X26254Y-20564D02*
X26410Y-20720D01*
X26410Y-20720D02*
X26920Y-20720D01*
X26254Y-20315D02*
X26254Y-20564D01*
X27269Y-21069D02*
X27269Y-21090D01*
X26920Y-20720D02*
X27269Y-21069D01*
X27633Y-20845D02*
X27513Y-20845D01*
X27513Y-20845D02*
X27269Y-21090D01*
X32631Y-21152D02*
X32237Y-21152D01*
X31563Y-23373D02*
X31486Y-23373D01*
X31857Y-23079D02*
X31563Y-23373D01*
X31857Y-21532D02*
X31857Y-23079D01*
X32237Y-21152D02*
X31857Y-21532D01*
X26995Y-20255D02*
X26980Y-20240D01*
X26980Y-20240D02*
X26920Y-20240D01*
X26845Y-20315D02*
X26920Y-20240D01*
X27065Y-25419D02*
X27030Y-25455D01*
X27354Y-25419D02*
X27065Y-25419D01*
X26917Y-25689D02*
X26454Y-25226D01*
X27248Y-25616D02*
X27176Y-25689D01*
X27176Y-25689D02*
X26917Y-25689D01*
X27288Y-20444D02*
X27137Y-20595D01*
X26648Y-20315D02*
X26648Y-20508D01*
X26735Y-20595D02*
X27137Y-20595D01*
X26648Y-20508D02*
X26735Y-20595D01*
X27248Y-25616D02*
X27354Y-25616D01*
X26454Y-25146D02*
X26472Y-25128D01*
X26454Y-25226D02*
X26454Y-25146D01*
X29350Y-35790D02*
X29460Y-35790D01*
X29460Y-35790D02*
X29618Y-35948D01*
X29618Y-35948D02*
X31638Y-35948D01*
X31638Y-35948D02*
X31640Y-35945D01*
X26648Y-19094D02*
X26648Y-18764D01*
X26648Y-18764D02*
X26578Y-18694D01*
X25270Y-23680D02*
X25425Y-23680D01*
X26818Y-25813D02*
X27354Y-25813D01*
X26155Y-25150D02*
X26818Y-25813D01*
X26155Y-24410D02*
X26155Y-25150D01*
X25425Y-23680D02*
X26155Y-24410D01*
X29350Y-33790D02*
X29488Y-33790D01*
X30478Y-34370D02*
X31640Y-34370D01*
X30058Y-33950D02*
X30478Y-34370D01*
X29648Y-33950D02*
X30058Y-33950D01*
X29488Y-33790D02*
X29648Y-33950D01*
X31279Y-21783D02*
X31279Y-22087D01*
X31279Y-22087D02*
X31273Y-22094D01*
X30234Y-18914D02*
X30233Y-18915D01*
X30233Y-18915D02*
X30234Y-18914D01*
X30234Y-18914D02*
X30234Y-18916D01*
X30425Y-24238D02*
X30958Y-24238D01*
X31407Y-23790D02*
X31407Y-23685D01*
X30958Y-24238D02*
X31407Y-23790D01*
X29794Y-18645D02*
X29963Y-18645D01*
X30800Y-18990D02*
X31000Y-18790D01*
X30308Y-18990D02*
X30800Y-18990D01*
X29963Y-18645D02*
X30234Y-18916D01*
X30234Y-18916D02*
X30308Y-18990D01*
X31000Y-18790D02*
X31000Y-18577D01*
X31000Y-18790D02*
X31000Y-18577D01*
X30169Y-23785D02*
X30901Y-23785D01*
X31027Y-21642D02*
X31027Y-21414D01*
X30940Y-21730D02*
X31027Y-21642D01*
X30901Y-23785D02*
X30929Y-23758D01*
X31027Y-21414D02*
X31027Y-21395D01*
X30190Y-19533D02*
X29794Y-19137D01*
X30190Y-20110D02*
X30190Y-19533D01*
X30420Y-20340D02*
X30190Y-20110D01*
X30567Y-20340D02*
X30420Y-20340D01*
X30751Y-20524D02*
X30567Y-20340D01*
X30751Y-21119D02*
X30751Y-20524D01*
X31027Y-21395D02*
X30751Y-21119D01*
X30182Y-18432D02*
X29571Y-18432D01*
X30182Y-18432D02*
X30184Y-18430D01*
X30184Y-18430D02*
X30352Y-18430D01*
X30352Y-18430D02*
X30500Y-18577D01*
X29571Y-18432D02*
X29499Y-18504D01*
X29499Y-18504D02*
X29499Y-18897D01*
X29499Y-18897D02*
X29739Y-19137D01*
X29739Y-19137D02*
X29794Y-19137D01*
X26691Y-27668D02*
X28137Y-27668D01*
X28137Y-27668D02*
X28242Y-27564D01*
X28398Y-26960D02*
X28471Y-27033D01*
X28398Y-26960D02*
X28398Y-26856D01*
X28471Y-27335D02*
X28242Y-27564D01*
X28471Y-27033D02*
X28471Y-27335D01*
X26691Y-27668D02*
X26627Y-27668D01*
X25582Y-26623D02*
X25582Y-26559D01*
X26627Y-27668D02*
X25582Y-26623D01*
X25330Y-26180D02*
X25582Y-26432D01*
X25270Y-26180D02*
X25330Y-26180D01*
X25582Y-26559D02*
X25582Y-26432D01*
X28165Y-38427D02*
X28165Y-38112D01*
X28165Y-38112D02*
X28166Y-38112D01*
X28004Y-27085D02*
X27860Y-27230D01*
X28004Y-26856D02*
X28004Y-27085D01*
X25456Y-25180D02*
X25270Y-25180D01*
X26397Y-26121D02*
X25456Y-25180D01*
X25270Y-25180D02*
X25444Y-25180D01*
X28165Y-38427D02*
X28165Y-38721D01*
X28165Y-38721D02*
X28161Y-38725D01*
X27807Y-26856D02*
X27807Y-26950D01*
X27807Y-26950D02*
X27512Y-27246D01*
X27512Y-27246D02*
X27512Y-27272D01*
X26398Y-26851D02*
X26398Y-26865D01*
X25270Y-25723D02*
X26398Y-26851D01*
X25270Y-25723D02*
X25270Y-25680D01*
X28951Y-38115D02*
X28951Y-38427D01*
X28950Y-38114D02*
X28951Y-38115D01*
X28951Y-38427D02*
X28951Y-38724D01*
X28951Y-38724D02*
X28947Y-38728D01*
X25270Y-25680D02*
X25270Y-25726D01*
X29350Y-36790D02*
X29454Y-36790D01*
X29454Y-36790D02*
X29612Y-36948D01*
X29612Y-36948D02*
X30408Y-36948D01*
X30408Y-36948D02*
X30623Y-36732D01*
X30623Y-36732D02*
X31640Y-36732D01*
X28344Y-39308D02*
X28640Y-39604D01*
X27768Y-39308D02*
X28344Y-39308D01*
X27569Y-38832D02*
X27569Y-39109D01*
X28640Y-39604D02*
X28640Y-39700D01*
X27569Y-39109D02*
X27768Y-39308D01*
X27569Y-38832D02*
X27569Y-38348D01*
X28074Y-37843D02*
X28583Y-37843D01*
X27569Y-38348D02*
X28074Y-37843D01*
X28571Y-37894D02*
X28571Y-37894D01*
X26295Y-37422D02*
X26158Y-37422D01*
X26295Y-37422D02*
X26295Y-37413D01*
X26158Y-37422D02*
X25661Y-36925D01*
X25661Y-36925D02*
X25578Y-36925D01*
X26295Y-37413D02*
X26887Y-36821D01*
X28020Y-28872D02*
X26889Y-28872D01*
X26889Y-28872D02*
X26652Y-28635D01*
X31594Y-21783D02*
X31594Y-22073D01*
X31614Y-22093D02*
X31594Y-22073D01*
X26998Y-26696D02*
X26999Y-26697D01*
X26998Y-26448D02*
X26998Y-26696D01*
X31212Y-24746D02*
X31212Y-24932D01*
X31212Y-24932D02*
X31271Y-24991D01*
X29319Y-27303D02*
X29334Y-27288D01*
X29319Y-27652D02*
X29319Y-27303D01*
X25939Y-19409D02*
X25904Y-19409D01*
X25904Y-19409D02*
X25656Y-19161D01*
X25521Y-19026D02*
X25521Y-18843D01*
X25656Y-19161D02*
X25521Y-19026D01*
X29382Y-27263D02*
X29359Y-27263D01*
X29359Y-27263D02*
X29334Y-27288D01*
X29382Y-26856D02*
X29382Y-27263D01*
X27354Y-26403D02*
X27042Y-26403D01*
X27042Y-26403D02*
X26998Y-26448D01*
X27480Y-22952D02*
X28004Y-23476D01*
X28791Y-23785D02*
X28791Y-23690D01*
X29244Y-22945D02*
X29466Y-22945D01*
X28896Y-23294D02*
X29244Y-22945D01*
X28896Y-23586D02*
X28896Y-23294D01*
X28791Y-23690D02*
X28896Y-23586D01*
X27151Y-24041D02*
X27141Y-24041D01*
X27141Y-24041D02*
X27040Y-23940D01*
X27040Y-23940D02*
X26754Y-23940D01*
X27354Y-24041D02*
X27151Y-24041D01*
X26754Y-23940D02*
X26754Y-23598D01*
X26754Y-23598D02*
X26792Y-23560D01*
X31185Y-26478D02*
X31185Y-26510D01*
X31095Y-26601D02*
X30884Y-26601D01*
X31185Y-26510D02*
X31095Y-26601D01*
X30425Y-26600D02*
X30883Y-26600D01*
X30883Y-26600D02*
X30884Y-26601D01*
X30425Y-24828D02*
X30635Y-24828D01*
X31202Y-24756D02*
X31212Y-24746D01*
X30708Y-24756D02*
X31202Y-24756D01*
X30635Y-24828D02*
X30708Y-24756D01*
X30426Y-24828D02*
X30425Y-24828D01*
X29807Y-22945D02*
X30031Y-22945D01*
X30031Y-22945D02*
X30120Y-22857D01*
X31342Y-21414D02*
X31376Y-21414D01*
X31376Y-21414D02*
X31594Y-21632D01*
X31594Y-21632D02*
X31594Y-21783D01*
X27818Y-22952D02*
X27819Y-22953D01*
X27401Y-22952D02*
X27818Y-22952D01*
X26754Y-23940D02*
X26753Y-23939D01*
X29466Y-22945D02*
X29807Y-22945D01*
X27401Y-22952D02*
X27480Y-22952D01*
X28004Y-23476D02*
X28004Y-23785D01*
X27047Y-22952D02*
X27401Y-22952D01*
X28004Y-23785D02*
X27807Y-23785D01*
X28201Y-23785D02*
X28004Y-23785D01*
X29807Y-22945D02*
X29807Y-23268D01*
X29807Y-23268D02*
X29382Y-23692D01*
X29382Y-23692D02*
X29382Y-23785D01*
X29350Y-29500D02*
X25750Y-29500D01*
X26295Y-36822D02*
X26222Y-36822D01*
X26222Y-36822D02*
X25600Y-36200D01*
X25750Y-29500D02*
X25600Y-29650D01*
X25600Y-29650D02*
X25600Y-36200D01*
X28287Y-28773D02*
X28287Y-28794D01*
X28363Y-28870D02*
X29730Y-28870D01*
X28287Y-28794D02*
X28363Y-28870D01*
X28314Y-28755D02*
X28327Y-28755D01*
X29350Y-29930D02*
X31570Y-29930D01*
X31570Y-29930D02*
X31640Y-30000D01*
X29350Y-29930D02*
X29350Y-29500D01*
X29350Y-29500D02*
X29350Y-29450D01*
X29350Y-29450D02*
X29350Y-29250D01*
X29350Y-29250D02*
X29360Y-29240D01*
X32631Y-28652D02*
X32647Y-28652D01*
X29730Y-28870D02*
X29728Y-28872D01*
X29728Y-28872D02*
X29360Y-29240D01*
X32429Y-28870D02*
X29730Y-28870D01*
X32647Y-28652D02*
X32429Y-28870D01*
X28201Y-27185D02*
X28221Y-27205D01*
X28201Y-26856D02*
X28201Y-27185D01*
X25578Y-37425D02*
X25578Y-37435D01*
X26569Y-37894D02*
X26924Y-37894D01*
X26327Y-37652D02*
X26569Y-37894D01*
X25795Y-37652D02*
X26327Y-37652D01*
X25578Y-37435D02*
X25795Y-37652D01*
X27508Y-37894D02*
X26924Y-37894D01*
X26924Y-37894D02*
X26923Y-37894D01*
X26687Y-38131D02*
X26687Y-38331D01*
X26923Y-37894D02*
X26687Y-38131D01*
X25270Y-20680D02*
X25270Y-20706D01*
X25960Y-23480D02*
X26115Y-23635D01*
X25960Y-21396D02*
X25960Y-23480D01*
X25270Y-20706D02*
X25960Y-21396D01*
X27354Y-24238D02*
X27164Y-24238D01*
X26658Y-24178D02*
X26115Y-23635D01*
X27104Y-24178D02*
X26658Y-24178D01*
X27164Y-24238D02*
X27104Y-24178D01*
X29350Y-34290D02*
X29430Y-34290D01*
X30394Y-34764D02*
X31640Y-34764D01*
X30080Y-34450D02*
X30394Y-34764D01*
X29590Y-34450D02*
X30080Y-34450D01*
X29430Y-34290D02*
X29590Y-34450D01*
X25270Y-21180D02*
X25554Y-21180D01*
X25822Y-23519D02*
X25990Y-23687D01*
X25822Y-21448D02*
X25822Y-23519D01*
X25554Y-21180D02*
X25822Y-21448D01*
X27040Y-24310D02*
X26613Y-24310D01*
X27040Y-24310D02*
X27165Y-24435D01*
X27354Y-24435D02*
X27165Y-24435D01*
X26613Y-24310D02*
X25990Y-23687D01*
X29185Y-23785D02*
X29185Y-23691D01*
X29830Y-22200D02*
X29777Y-22254D01*
X29830Y-22200D02*
X30041Y-22200D01*
X29456Y-23421D02*
X29456Y-23261D01*
X29185Y-23691D02*
X29456Y-23421D01*
X30238Y-22397D02*
X30041Y-22200D01*
X30327Y-21422D02*
X30268Y-21422D01*
X30041Y-21649D02*
X30041Y-22200D01*
X30268Y-21422D02*
X30041Y-21649D01*
X29225Y-21836D02*
X29225Y-22131D01*
X29225Y-22131D02*
X29338Y-22244D01*
X28988Y-23785D02*
X28988Y-23691D01*
X28988Y-23691D02*
X29128Y-23552D01*
X29128Y-23552D02*
X29128Y-23390D01*
X29756Y-21875D02*
X29264Y-21875D01*
X29264Y-21875D02*
X29225Y-21836D01*
G54D10*
G36*
X26341Y-21257D02*
X26334Y-21257D01*
X26334Y-21265D01*
X26294Y-21265D01*
X26294Y-21257D01*
X26121Y-21257D01*
X26092Y-21286D01*
X26092Y-21338D01*
X26062Y-21293D01*
X25540Y-20770D01*
X25540Y-20502D01*
X25522Y-20459D01*
X25492Y-20430D01*
X25522Y-20400D01*
X25540Y-20357D01*
X25540Y-20312D01*
X25540Y-20002D01*
X25522Y-19959D01*
X25490Y-19927D01*
X25447Y-19910D01*
X25402Y-19910D01*
X25380Y-19910D01*
X25380Y-19062D01*
X25383Y-19063D01*
X25385Y-19072D01*
X25387Y-19081D01*
X25402Y-19105D01*
X25401Y-19110D01*
X25400Y-19211D01*
X25439Y-19305D01*
X25511Y-19377D01*
X25605Y-19415D01*
X25647Y-19415D01*
X25647Y-19479D01*
X25659Y-19508D01*
X25647Y-19536D01*
X25647Y-19582D01*
X25647Y-19676D01*
X25659Y-19705D01*
X25647Y-19733D01*
X25647Y-19779D01*
X25647Y-19873D01*
X25659Y-19901D01*
X25647Y-19930D01*
X25647Y-19975D01*
X25647Y-20070D01*
X25652Y-20082D01*
X25615Y-20119D01*
X25577Y-20213D01*
X25576Y-20314D01*
X25615Y-20408D01*
X25637Y-20429D01*
X25601Y-20465D01*
X25563Y-20559D01*
X25562Y-20660D01*
X25601Y-20754D01*
X25673Y-20826D01*
X25767Y-20864D01*
X25868Y-20865D01*
X25962Y-20826D01*
X25999Y-20788D01*
X26092Y-20881D01*
X26092Y-21053D01*
X26103Y-21080D01*
X26092Y-21106D01*
X26092Y-21188D01*
X26121Y-21217D01*
X26294Y-21217D01*
X26294Y-21209D01*
X26334Y-21209D01*
X26334Y-21217D01*
X26341Y-21217D01*
X26341Y-21257D01*
X26341Y-21257D01*
G37*
G54D51*
X26341Y-21257D02*
X26334Y-21257D01*
X26334Y-21265D01*
X26294Y-21265D01*
X26294Y-21257D01*
X26121Y-21257D01*
X26092Y-21286D01*
X26092Y-21338D01*
X26062Y-21293D01*
X25540Y-20770D01*
X25540Y-20502D01*
X25522Y-20459D01*
X25492Y-20430D01*
X25522Y-20400D01*
X25540Y-20357D01*
X25540Y-20312D01*
X25540Y-20002D01*
X25522Y-19959D01*
X25490Y-19927D01*
X25447Y-19910D01*
X25402Y-19910D01*
X25380Y-19910D01*
X25380Y-19062D01*
X25383Y-19063D01*
X25385Y-19072D01*
X25387Y-19081D01*
X25402Y-19105D01*
X25401Y-19110D01*
X25400Y-19211D01*
X25439Y-19305D01*
X25511Y-19377D01*
X25605Y-19415D01*
X25647Y-19415D01*
X25647Y-19479D01*
X25659Y-19508D01*
X25647Y-19536D01*
X25647Y-19582D01*
X25647Y-19676D01*
X25659Y-19705D01*
X25647Y-19733D01*
X25647Y-19779D01*
X25647Y-19873D01*
X25659Y-19901D01*
X25647Y-19930D01*
X25647Y-19975D01*
X25647Y-20070D01*
X25652Y-20082D01*
X25615Y-20119D01*
X25577Y-20213D01*
X25576Y-20314D01*
X25615Y-20408D01*
X25637Y-20429D01*
X25601Y-20465D01*
X25563Y-20559D01*
X25562Y-20660D01*
X25601Y-20754D01*
X25673Y-20826D01*
X25767Y-20864D01*
X25868Y-20865D01*
X25962Y-20826D01*
X25999Y-20788D01*
X26092Y-20881D01*
X26092Y-21053D01*
X26103Y-21080D01*
X26092Y-21106D01*
X26092Y-21188D01*
X26121Y-21217D01*
X26294Y-21217D01*
X26294Y-21209D01*
X26334Y-21209D01*
X26334Y-21217D01*
X26341Y-21217D01*
X26341Y-21257D01*
G54D10*
G36*
X26416Y-18495D02*
X26361Y-18549D01*
X26323Y-18643D01*
X26323Y-18681D01*
X26077Y-18681D01*
X26086Y-18659D01*
X26086Y-18577D01*
X26057Y-18548D01*
X25885Y-18548D01*
X25885Y-18556D01*
X25845Y-18556D01*
X25845Y-18548D01*
X25845Y-18508D01*
X25845Y-18333D01*
X25816Y-18305D01*
X25781Y-18305D01*
X25735Y-18305D01*
X25693Y-18322D01*
X25693Y-18322D01*
X25692Y-18322D01*
X25650Y-18305D01*
X25604Y-18305D01*
X25569Y-18305D01*
X25541Y-18333D01*
X25541Y-18508D01*
X25672Y-18508D01*
X25713Y-18508D01*
X25845Y-18508D01*
X25845Y-18548D01*
X25713Y-18548D01*
X25672Y-18548D01*
X25541Y-18548D01*
X25541Y-18556D01*
X25501Y-18556D01*
X25501Y-18548D01*
X25493Y-18548D01*
X25493Y-18508D01*
X25501Y-18508D01*
X25501Y-18333D01*
X25472Y-18305D01*
X25437Y-18305D01*
X25391Y-18305D01*
X25380Y-18309D01*
X25380Y-18252D01*
X25992Y-18252D01*
X25992Y-18305D01*
X25948Y-18305D01*
X25913Y-18305D01*
X25885Y-18333D01*
X25885Y-18508D01*
X26057Y-18508D01*
X26078Y-18488D01*
X26112Y-18495D01*
X26416Y-18495D01*
X26416Y-18495D01*
G37*
G54D51*
X26416Y-18495D02*
X26361Y-18549D01*
X26323Y-18643D01*
X26323Y-18681D01*
X26077Y-18681D01*
X26086Y-18659D01*
X26086Y-18577D01*
X26057Y-18548D01*
X25885Y-18548D01*
X25885Y-18556D01*
X25845Y-18556D01*
X25845Y-18548D01*
X25845Y-18508D01*
X25845Y-18333D01*
X25816Y-18305D01*
X25781Y-18305D01*
X25735Y-18305D01*
X25693Y-18322D01*
X25693Y-18322D01*
X25692Y-18322D01*
X25650Y-18305D01*
X25604Y-18305D01*
X25569Y-18305D01*
X25541Y-18333D01*
X25541Y-18508D01*
X25672Y-18508D01*
X25713Y-18508D01*
X25845Y-18508D01*
X25845Y-18548D01*
X25713Y-18548D01*
X25672Y-18548D01*
X25541Y-18548D01*
X25541Y-18556D01*
X25501Y-18556D01*
X25501Y-18548D01*
X25493Y-18548D01*
X25493Y-18508D01*
X25501Y-18508D01*
X25501Y-18333D01*
X25472Y-18305D01*
X25437Y-18305D01*
X25391Y-18305D01*
X25380Y-18309D01*
X25380Y-18252D01*
X25992Y-18252D01*
X25992Y-18305D01*
X25948Y-18305D01*
X25913Y-18305D01*
X25885Y-18333D01*
X25885Y-18508D01*
X26057Y-18508D01*
X26078Y-18488D01*
X26112Y-18495D01*
X26416Y-18495D01*
G54D10*
G36*
X26577Y-19725D02*
X26570Y-19725D01*
X26570Y-19732D01*
X26530Y-19732D01*
X26530Y-19725D01*
X26522Y-19725D01*
X26522Y-19685D01*
X26530Y-19685D01*
X26530Y-19677D01*
X26570Y-19677D01*
X26570Y-19685D01*
X26577Y-19685D01*
X26577Y-19725D01*
X26577Y-19725D01*
G37*
G54D51*
X26577Y-19725D02*
X26570Y-19725D01*
X26570Y-19732D01*
X26530Y-19732D01*
X26530Y-19725D01*
X26522Y-19725D01*
X26522Y-19685D01*
X26530Y-19685D01*
X26530Y-19677D01*
X26570Y-19677D01*
X26570Y-19685D01*
X26577Y-19685D01*
X26577Y-19725D01*
G54D10*
G36*
X26677Y-21762D02*
X26650Y-21829D01*
X26649Y-21930D01*
X26670Y-21979D01*
X26670Y-22034D01*
X26658Y-22046D01*
X26641Y-22088D01*
X26641Y-22134D01*
X26641Y-22331D01*
X26657Y-22371D01*
X26635Y-22393D01*
X26635Y-22568D01*
X26642Y-22568D01*
X26642Y-22608D01*
X26635Y-22608D01*
X26635Y-22616D01*
X26601Y-22616D01*
X26601Y-22383D01*
X26601Y-22301D01*
X26572Y-22272D01*
X26400Y-22272D01*
X26400Y-22441D01*
X26393Y-22457D01*
X26393Y-22539D01*
X26422Y-22568D01*
X26595Y-22568D01*
X26595Y-22399D01*
X26601Y-22383D01*
X26601Y-22616D01*
X26595Y-22616D01*
X26595Y-22608D01*
X26422Y-22608D01*
X26393Y-22637D01*
X26393Y-22719D01*
X26404Y-22746D01*
X26393Y-22772D01*
X26393Y-22817D01*
X26393Y-23034D01*
X26398Y-23046D01*
X26360Y-23085D01*
X26360Y-22447D01*
X26360Y-22272D01*
X26187Y-22272D01*
X26158Y-22301D01*
X26158Y-22383D01*
X26176Y-22426D01*
X26208Y-22458D01*
X26250Y-22476D01*
X26296Y-22476D01*
X26331Y-22476D01*
X26360Y-22447D01*
X26360Y-23085D01*
X26337Y-23107D01*
X26299Y-23201D01*
X26298Y-23302D01*
X26318Y-23349D01*
X26303Y-23356D01*
X26271Y-23388D01*
X26254Y-23430D01*
X26254Y-23476D01*
X26254Y-23511D01*
X26282Y-23540D01*
X26457Y-23540D01*
X26457Y-23532D01*
X26497Y-23532D01*
X26497Y-23540D01*
X26505Y-23540D01*
X26505Y-23580D01*
X26497Y-23580D01*
X26497Y-23752D01*
X26526Y-23781D01*
X26551Y-23781D01*
X26537Y-23795D01*
X26521Y-23836D01*
X26447Y-23762D01*
X26457Y-23752D01*
X26457Y-23580D01*
X26282Y-23580D01*
X26273Y-23588D01*
X26217Y-23532D01*
X26217Y-23532D01*
X26105Y-23419D01*
X26105Y-21399D01*
X26110Y-21411D01*
X26142Y-21443D01*
X26184Y-21461D01*
X26221Y-21461D01*
X26185Y-21549D01*
X26184Y-21650D01*
X26216Y-21727D01*
X26208Y-21731D01*
X26176Y-21763D01*
X26158Y-21806D01*
X26158Y-21851D01*
X26158Y-22068D01*
X26169Y-22095D01*
X26158Y-22121D01*
X26158Y-22203D01*
X26187Y-22232D01*
X26360Y-22232D01*
X26360Y-22224D01*
X26400Y-22224D01*
X26400Y-22232D01*
X26572Y-22232D01*
X26601Y-22203D01*
X26601Y-22121D01*
X26590Y-22094D01*
X26601Y-22068D01*
X26601Y-22023D01*
X26601Y-21806D01*
X26599Y-21801D01*
X26655Y-21745D01*
X26659Y-21745D01*
X26677Y-21762D01*
X26677Y-21762D01*
G37*
G54D51*
X26677Y-21762D02*
X26650Y-21829D01*
X26649Y-21930D01*
X26670Y-21979D01*
X26670Y-22034D01*
X26658Y-22046D01*
X26641Y-22088D01*
X26641Y-22134D01*
X26641Y-22331D01*
X26657Y-22371D01*
X26635Y-22393D01*
X26635Y-22568D01*
X26642Y-22568D01*
X26642Y-22608D01*
X26635Y-22608D01*
X26635Y-22616D01*
X26601Y-22616D01*
X26601Y-22383D01*
X26601Y-22301D01*
X26572Y-22272D01*
X26400Y-22272D01*
X26400Y-22441D01*
X26393Y-22457D01*
X26393Y-22539D01*
X26422Y-22568D01*
X26595Y-22568D01*
X26595Y-22399D01*
X26601Y-22383D01*
X26601Y-22616D01*
X26595Y-22616D01*
X26595Y-22608D01*
X26422Y-22608D01*
X26393Y-22637D01*
X26393Y-22719D01*
X26404Y-22746D01*
X26393Y-22772D01*
X26393Y-22817D01*
X26393Y-23034D01*
X26398Y-23046D01*
X26360Y-23085D01*
X26360Y-22447D01*
X26360Y-22272D01*
X26187Y-22272D01*
X26158Y-22301D01*
X26158Y-22383D01*
X26176Y-22426D01*
X26208Y-22458D01*
X26250Y-22476D01*
X26296Y-22476D01*
X26331Y-22476D01*
X26360Y-22447D01*
X26360Y-23085D01*
X26337Y-23107D01*
X26299Y-23201D01*
X26298Y-23302D01*
X26318Y-23349D01*
X26303Y-23356D01*
X26271Y-23388D01*
X26254Y-23430D01*
X26254Y-23476D01*
X26254Y-23511D01*
X26282Y-23540D01*
X26457Y-23540D01*
X26457Y-23532D01*
X26497Y-23532D01*
X26497Y-23540D01*
X26505Y-23540D01*
X26505Y-23580D01*
X26497Y-23580D01*
X26497Y-23752D01*
X26526Y-23781D01*
X26551Y-23781D01*
X26537Y-23795D01*
X26521Y-23836D01*
X26447Y-23762D01*
X26457Y-23752D01*
X26457Y-23580D01*
X26282Y-23580D01*
X26273Y-23588D01*
X26217Y-23532D01*
X26217Y-23532D01*
X26105Y-23419D01*
X26105Y-21399D01*
X26110Y-21411D01*
X26142Y-21443D01*
X26184Y-21461D01*
X26221Y-21461D01*
X26185Y-21549D01*
X26184Y-21650D01*
X26216Y-21727D01*
X26208Y-21731D01*
X26176Y-21763D01*
X26158Y-21806D01*
X26158Y-21851D01*
X26158Y-22068D01*
X26169Y-22095D01*
X26158Y-22121D01*
X26158Y-22203D01*
X26187Y-22232D01*
X26360Y-22232D01*
X26360Y-22224D01*
X26400Y-22224D01*
X26400Y-22232D01*
X26572Y-22232D01*
X26601Y-22203D01*
X26601Y-22121D01*
X26590Y-22094D01*
X26601Y-22068D01*
X26601Y-22023D01*
X26601Y-21806D01*
X26599Y-21801D01*
X26655Y-21745D01*
X26659Y-21745D01*
X26677Y-21762D01*
G54D10*
G36*
X26821Y-18614D02*
X26794Y-18549D01*
X26722Y-18477D01*
X26628Y-18439D01*
X26565Y-18438D01*
X26577Y-18420D01*
X26587Y-18375D01*
X26587Y-18252D01*
X26821Y-18252D01*
X26821Y-18478D01*
X26821Y-18546D01*
X26821Y-18614D01*
X26821Y-18614D01*
G37*
G54D51*
X26821Y-18614D02*
X26794Y-18549D01*
X26722Y-18477D01*
X26628Y-18439D01*
X26565Y-18438D01*
X26577Y-18420D01*
X26587Y-18375D01*
X26587Y-18252D01*
X26821Y-18252D01*
X26821Y-18478D01*
X26821Y-18546D01*
X26821Y-18614D01*
G54D10*
G36*
X27337Y-29355D02*
X26862Y-29355D01*
X26874Y-29349D01*
X26949Y-29275D01*
X26989Y-29177D01*
X26990Y-29072D01*
X26967Y-29017D01*
X27232Y-29017D01*
X27210Y-29072D01*
X27209Y-29177D01*
X27250Y-29274D01*
X27324Y-29349D01*
X27337Y-29355D01*
X27337Y-29355D01*
G37*
G54D51*
X27337Y-29355D02*
X26862Y-29355D01*
X26874Y-29349D01*
X26949Y-29275D01*
X26989Y-29177D01*
X26990Y-29072D01*
X26967Y-29017D01*
X27232Y-29017D01*
X27210Y-29072D01*
X27209Y-29177D01*
X27250Y-29274D01*
X27324Y-29349D01*
X27337Y-29355D01*
G54D10*
G36*
X27452Y-27523D02*
X26691Y-27523D01*
X26687Y-27523D01*
X25727Y-26562D01*
X25727Y-26559D01*
X25727Y-26432D01*
X25715Y-26376D01*
X25715Y-26376D01*
X25710Y-26369D01*
X26146Y-26804D01*
X26143Y-26814D01*
X26142Y-26915D01*
X26181Y-27009D01*
X26253Y-27081D01*
X26347Y-27119D01*
X26448Y-27120D01*
X26485Y-27104D01*
X26485Y-27107D01*
X26485Y-27153D01*
X26502Y-27195D01*
X26534Y-27227D01*
X26577Y-27245D01*
X26659Y-27245D01*
X26688Y-27216D01*
X26688Y-27044D01*
X26680Y-27044D01*
X26680Y-27004D01*
X26688Y-27004D01*
X26688Y-26831D01*
X26659Y-26802D01*
X26648Y-26802D01*
X26614Y-26720D01*
X26563Y-26669D01*
X26634Y-26669D01*
X26663Y-26640D01*
X26663Y-26468D01*
X26488Y-26468D01*
X26460Y-26496D01*
X26460Y-26531D01*
X26460Y-26577D01*
X26477Y-26619D01*
X26481Y-26623D01*
X26448Y-26610D01*
X26362Y-26609D01*
X25540Y-25787D01*
X25540Y-25502D01*
X25522Y-25459D01*
X25492Y-25430D01*
X25496Y-25425D01*
X26142Y-26071D01*
X26141Y-26171D01*
X26180Y-26265D01*
X26252Y-26337D01*
X26346Y-26375D01*
X26447Y-26376D01*
X26460Y-26370D01*
X26460Y-26399D01*
X26488Y-26428D01*
X26663Y-26428D01*
X26663Y-26420D01*
X26703Y-26420D01*
X26703Y-26428D01*
X26711Y-26428D01*
X26711Y-26468D01*
X26703Y-26468D01*
X26703Y-26640D01*
X26732Y-26669D01*
X26744Y-26669D01*
X26743Y-26747D01*
X26766Y-26802D01*
X26757Y-26802D01*
X26728Y-26831D01*
X26728Y-27004D01*
X26736Y-27004D01*
X26736Y-27044D01*
X26728Y-27044D01*
X26728Y-27216D01*
X26757Y-27245D01*
X26839Y-27245D01*
X26866Y-27234D01*
X26892Y-27245D01*
X26937Y-27245D01*
X27154Y-27245D01*
X27197Y-27227D01*
X27229Y-27195D01*
X27247Y-27153D01*
X27247Y-27125D01*
X27304Y-27067D01*
X27355Y-27068D01*
X27295Y-27127D01*
X27257Y-27221D01*
X27256Y-27322D01*
X27295Y-27416D01*
X27367Y-27488D01*
X27452Y-27523D01*
X27452Y-27523D01*
G37*
G54D51*
X27452Y-27523D02*
X26691Y-27523D01*
X26687Y-27523D01*
X25727Y-26562D01*
X25727Y-26559D01*
X25727Y-26432D01*
X25715Y-26376D01*
X25715Y-26376D01*
X25710Y-26369D01*
X26146Y-26804D01*
X26143Y-26814D01*
X26142Y-26915D01*
X26181Y-27009D01*
X26253Y-27081D01*
X26347Y-27119D01*
X26448Y-27120D01*
X26485Y-27104D01*
X26485Y-27107D01*
X26485Y-27153D01*
X26502Y-27195D01*
X26534Y-27227D01*
X26577Y-27245D01*
X26659Y-27245D01*
X26688Y-27216D01*
X26688Y-27044D01*
X26680Y-27044D01*
X26680Y-27004D01*
X26688Y-27004D01*
X26688Y-26831D01*
X26659Y-26802D01*
X26648Y-26802D01*
X26614Y-26720D01*
X26563Y-26669D01*
X26634Y-26669D01*
X26663Y-26640D01*
X26663Y-26468D01*
X26488Y-26468D01*
X26460Y-26496D01*
X26460Y-26531D01*
X26460Y-26577D01*
X26477Y-26619D01*
X26481Y-26623D01*
X26448Y-26610D01*
X26362Y-26609D01*
X25540Y-25787D01*
X25540Y-25502D01*
X25522Y-25459D01*
X25492Y-25430D01*
X25496Y-25425D01*
X26142Y-26071D01*
X26141Y-26171D01*
X26180Y-26265D01*
X26252Y-26337D01*
X26346Y-26375D01*
X26447Y-26376D01*
X26460Y-26370D01*
X26460Y-26399D01*
X26488Y-26428D01*
X26663Y-26428D01*
X26663Y-26420D01*
X26703Y-26420D01*
X26703Y-26428D01*
X26711Y-26428D01*
X26711Y-26468D01*
X26703Y-26468D01*
X26703Y-26640D01*
X26732Y-26669D01*
X26744Y-26669D01*
X26743Y-26747D01*
X26766Y-26802D01*
X26757Y-26802D01*
X26728Y-26831D01*
X26728Y-27004D01*
X26736Y-27004D01*
X26736Y-27044D01*
X26728Y-27044D01*
X26728Y-27216D01*
X26757Y-27245D01*
X26839Y-27245D01*
X26866Y-27234D01*
X26892Y-27245D01*
X26937Y-27245D01*
X27154Y-27245D01*
X27197Y-27227D01*
X27229Y-27195D01*
X27247Y-27153D01*
X27247Y-27125D01*
X27304Y-27067D01*
X27355Y-27068D01*
X27295Y-27127D01*
X27257Y-27221D01*
X27256Y-27322D01*
X27295Y-27416D01*
X27367Y-27488D01*
X27452Y-27523D01*
G54D10*
G36*
X27638Y-26876D02*
X27630Y-26876D01*
X27630Y-26884D01*
X27600Y-26884D01*
X27608Y-26863D01*
X27608Y-26828D01*
X27630Y-26828D01*
X27630Y-26836D01*
X27638Y-26836D01*
X27638Y-26876D01*
X27638Y-26876D01*
G37*
G54D51*
X27638Y-26876D02*
X27630Y-26876D01*
X27630Y-26884D01*
X27600Y-26884D01*
X27608Y-26863D01*
X27608Y-26828D01*
X27630Y-26828D01*
X27630Y-26836D01*
X27638Y-26836D01*
X27638Y-26876D01*
G54D10*
G36*
X27754Y-39450D02*
X27743Y-39460D01*
X27690Y-39589D01*
X27690Y-39591D01*
X27590Y-39491D01*
X27434Y-39426D01*
X27266Y-39426D01*
X27110Y-39490D01*
X26995Y-39605D01*
X26995Y-39350D01*
X26963Y-39193D01*
X26874Y-39060D01*
X26781Y-38997D01*
X26803Y-38975D01*
X26803Y-38803D01*
X26628Y-38803D01*
X26600Y-38831D01*
X26600Y-38866D01*
X26600Y-38912D01*
X26613Y-38946D01*
X26584Y-38940D01*
X26427Y-38971D01*
X26294Y-39060D01*
X26205Y-39193D01*
X26174Y-39350D01*
X26174Y-39968D01*
X26205Y-40125D01*
X26255Y-40200D01*
X26190Y-40200D01*
X26190Y-40115D01*
X26187Y-40100D01*
X26187Y-40086D01*
X26141Y-39857D01*
X26119Y-39804D01*
X25989Y-39610D01*
X25989Y-39610D01*
X25989Y-39610D01*
X25969Y-39590D01*
X25949Y-39570D01*
X25949Y-39570D01*
X25872Y-39518D01*
X26052Y-39518D01*
X26094Y-39500D01*
X26126Y-39468D01*
X26144Y-39426D01*
X26144Y-39380D01*
X26144Y-38789D01*
X26132Y-38761D01*
X26272Y-38703D01*
X26434Y-38542D01*
X26447Y-38511D01*
X26447Y-38578D01*
X26464Y-38621D01*
X26496Y-38653D01*
X26539Y-38671D01*
X26584Y-38671D01*
X26600Y-38671D01*
X26600Y-38699D01*
X26600Y-38734D01*
X26628Y-38763D01*
X26803Y-38763D01*
X26803Y-38755D01*
X26843Y-38755D01*
X26843Y-38763D01*
X26851Y-38763D01*
X26851Y-38803D01*
X26843Y-38803D01*
X26843Y-38975D01*
X26872Y-39004D01*
X26954Y-39004D01*
X26981Y-38993D01*
X27007Y-39004D01*
X27052Y-39004D01*
X27269Y-39004D01*
X27297Y-38992D01*
X27304Y-39009D01*
X27392Y-39097D01*
X27424Y-39110D01*
X27433Y-39155D01*
X27435Y-39164D01*
X27466Y-39211D01*
X27665Y-39410D01*
X27712Y-39441D01*
X27754Y-39450D01*
X27754Y-39450D01*
G37*
G54D51*
X27754Y-39450D02*
X27743Y-39460D01*
X27690Y-39589D01*
X27690Y-39591D01*
X27590Y-39491D01*
X27434Y-39426D01*
X27266Y-39426D01*
X27110Y-39490D01*
X26995Y-39605D01*
X26995Y-39350D01*
X26963Y-39193D01*
X26874Y-39060D01*
X26781Y-38997D01*
X26803Y-38975D01*
X26803Y-38803D01*
X26628Y-38803D01*
X26600Y-38831D01*
X26600Y-38866D01*
X26600Y-38912D01*
X26613Y-38946D01*
X26584Y-38940D01*
X26427Y-38971D01*
X26294Y-39060D01*
X26205Y-39193D01*
X26174Y-39350D01*
X26174Y-39968D01*
X26205Y-40125D01*
X26255Y-40200D01*
X26190Y-40200D01*
X26190Y-40115D01*
X26187Y-40100D01*
X26187Y-40086D01*
X26141Y-39857D01*
X26119Y-39804D01*
X25989Y-39610D01*
X25989Y-39610D01*
X25989Y-39610D01*
X25969Y-39590D01*
X25949Y-39570D01*
X25949Y-39570D01*
X25872Y-39518D01*
X26052Y-39518D01*
X26094Y-39500D01*
X26126Y-39468D01*
X26144Y-39426D01*
X26144Y-39380D01*
X26144Y-38789D01*
X26132Y-38761D01*
X26272Y-38703D01*
X26434Y-38542D01*
X26447Y-38511D01*
X26447Y-38578D01*
X26464Y-38621D01*
X26496Y-38653D01*
X26539Y-38671D01*
X26584Y-38671D01*
X26600Y-38671D01*
X26600Y-38699D01*
X26600Y-38734D01*
X26628Y-38763D01*
X26803Y-38763D01*
X26803Y-38755D01*
X26843Y-38755D01*
X26843Y-38763D01*
X26851Y-38763D01*
X26851Y-38803D01*
X26843Y-38803D01*
X26843Y-38975D01*
X26872Y-39004D01*
X26954Y-39004D01*
X26981Y-38993D01*
X27007Y-39004D01*
X27052Y-39004D01*
X27269Y-39004D01*
X27297Y-38992D01*
X27304Y-39009D01*
X27392Y-39097D01*
X27424Y-39110D01*
X27433Y-39155D01*
X27435Y-39164D01*
X27466Y-39211D01*
X27665Y-39410D01*
X27712Y-39441D01*
X27754Y-39450D01*
G54D10*
G36*
X27765Y-20623D02*
X27762Y-20622D01*
X27716Y-20622D01*
X27503Y-20622D01*
X27461Y-20639D01*
X27429Y-20671D01*
X27417Y-20699D01*
X27384Y-20699D01*
X27236Y-20699D01*
X27237Y-20698D01*
X27338Y-20699D01*
X27432Y-20660D01*
X27504Y-20588D01*
X27542Y-20494D01*
X27543Y-20393D01*
X27504Y-20299D01*
X27432Y-20227D01*
X27338Y-20189D01*
X27243Y-20188D01*
X27232Y-20162D01*
X27360Y-20162D01*
X27402Y-20145D01*
X27434Y-20112D01*
X27452Y-20070D01*
X27452Y-20049D01*
X27423Y-20020D01*
X27180Y-20020D01*
X27180Y-20028D01*
X27140Y-20028D01*
X27140Y-20020D01*
X27132Y-20020D01*
X27132Y-19980D01*
X27140Y-19980D01*
X27140Y-19972D01*
X27180Y-19972D01*
X27180Y-19980D01*
X27423Y-19980D01*
X27452Y-19951D01*
X27452Y-19930D01*
X27434Y-19887D01*
X27402Y-19855D01*
X27364Y-19839D01*
X27377Y-19826D01*
X27415Y-19732D01*
X27416Y-19631D01*
X27386Y-19560D01*
X27402Y-19554D01*
X27434Y-19522D01*
X27452Y-19479D01*
X27452Y-19434D01*
X27452Y-19339D01*
X27434Y-19297D01*
X27402Y-19264D01*
X27360Y-19247D01*
X27327Y-19247D01*
X27349Y-19193D01*
X27350Y-19092D01*
X27311Y-18998D01*
X27239Y-18926D01*
X27145Y-18888D01*
X27044Y-18887D01*
X27007Y-18903D01*
X27007Y-18894D01*
X27001Y-18880D01*
X27520Y-18880D01*
X27520Y-20272D01*
X27539Y-20369D01*
X27594Y-20452D01*
X27765Y-20623D01*
X27765Y-20623D01*
G37*
G54D51*
X27765Y-20623D02*
X27762Y-20622D01*
X27716Y-20622D01*
X27503Y-20622D01*
X27461Y-20639D01*
X27429Y-20671D01*
X27417Y-20699D01*
X27384Y-20699D01*
X27236Y-20699D01*
X27237Y-20698D01*
X27338Y-20699D01*
X27432Y-20660D01*
X27504Y-20588D01*
X27542Y-20494D01*
X27543Y-20393D01*
X27504Y-20299D01*
X27432Y-20227D01*
X27338Y-20189D01*
X27243Y-20188D01*
X27232Y-20162D01*
X27360Y-20162D01*
X27402Y-20145D01*
X27434Y-20112D01*
X27452Y-20070D01*
X27452Y-20049D01*
X27423Y-20020D01*
X27180Y-20020D01*
X27180Y-20028D01*
X27140Y-20028D01*
X27140Y-20020D01*
X27132Y-20020D01*
X27132Y-19980D01*
X27140Y-19980D01*
X27140Y-19972D01*
X27180Y-19972D01*
X27180Y-19980D01*
X27423Y-19980D01*
X27452Y-19951D01*
X27452Y-19930D01*
X27434Y-19887D01*
X27402Y-19855D01*
X27364Y-19839D01*
X27377Y-19826D01*
X27415Y-19732D01*
X27416Y-19631D01*
X27386Y-19560D01*
X27402Y-19554D01*
X27434Y-19522D01*
X27452Y-19479D01*
X27452Y-19434D01*
X27452Y-19339D01*
X27434Y-19297D01*
X27402Y-19264D01*
X27360Y-19247D01*
X27327Y-19247D01*
X27349Y-19193D01*
X27350Y-19092D01*
X27311Y-18998D01*
X27239Y-18926D01*
X27145Y-18888D01*
X27044Y-18887D01*
X27007Y-18903D01*
X27007Y-18894D01*
X27001Y-18880D01*
X27520Y-18880D01*
X27520Y-20272D01*
X27539Y-20369D01*
X27594Y-20452D01*
X27765Y-20623D01*
G54D10*
G36*
X27859Y-23558D02*
X27807Y-23547D01*
X27745Y-23560D01*
X27709Y-23584D01*
X27672Y-23560D01*
X27610Y-23547D01*
X27548Y-23560D01*
X27496Y-23595D01*
X27469Y-23634D01*
X27011Y-23176D01*
X27176Y-23176D01*
X27218Y-23158D01*
X27224Y-23153D01*
X27229Y-23158D01*
X27272Y-23176D01*
X27317Y-23176D01*
X27498Y-23176D01*
X27859Y-23536D01*
X27859Y-23558D01*
X27859Y-23558D01*
G37*
G54D51*
X27859Y-23558D02*
X27807Y-23547D01*
X27745Y-23560D01*
X27709Y-23584D01*
X27672Y-23560D01*
X27610Y-23547D01*
X27548Y-23560D01*
X27496Y-23595D01*
X27469Y-23634D01*
X27011Y-23176D01*
X27176Y-23176D01*
X27218Y-23158D01*
X27224Y-23153D01*
X27229Y-23158D01*
X27272Y-23176D01*
X27317Y-23176D01*
X27498Y-23176D01*
X27859Y-23536D01*
X27859Y-23558D01*
G54D10*
G36*
X28017Y-22352D02*
X27995Y-22352D01*
X27995Y-22409D01*
X27990Y-22407D01*
X27898Y-22407D01*
X27870Y-22436D01*
X27870Y-22601D01*
X27877Y-22601D01*
X27877Y-22641D01*
X27870Y-22641D01*
X27870Y-22648D01*
X27830Y-22648D01*
X27830Y-22641D01*
X27645Y-22641D01*
X27617Y-22669D01*
X27617Y-22680D01*
X27594Y-22657D01*
X27421Y-22657D01*
X27421Y-22665D01*
X27381Y-22665D01*
X27381Y-22657D01*
X27239Y-22657D01*
X27208Y-22657D01*
X27067Y-22657D01*
X27067Y-22665D01*
X27027Y-22665D01*
X27027Y-22657D01*
X27019Y-22657D01*
X27019Y-22617D01*
X27027Y-22617D01*
X27027Y-22443D01*
X26998Y-22414D01*
X26972Y-22414D01*
X26992Y-22394D01*
X26992Y-22230D01*
X26989Y-22230D01*
X26989Y-22190D01*
X26992Y-22190D01*
X26992Y-22182D01*
X27032Y-22182D01*
X27032Y-22190D01*
X27035Y-22190D01*
X27035Y-22230D01*
X27032Y-22230D01*
X27032Y-22394D01*
X27060Y-22423D01*
X27086Y-22423D01*
X27067Y-22443D01*
X27067Y-22617D01*
X27208Y-22617D01*
X27239Y-22617D01*
X27381Y-22617D01*
X27381Y-22609D01*
X27421Y-22609D01*
X27421Y-22617D01*
X27594Y-22617D01*
X27616Y-22596D01*
X27629Y-22596D01*
X27637Y-22592D01*
X27645Y-22601D01*
X27830Y-22601D01*
X27830Y-22436D01*
X27819Y-22426D01*
X27833Y-22391D01*
X27834Y-22290D01*
X27821Y-22260D01*
X27821Y-22066D01*
X27810Y-22040D01*
X27821Y-22013D01*
X27821Y-21931D01*
X27792Y-21902D01*
X27620Y-21902D01*
X27620Y-21910D01*
X27580Y-21910D01*
X27580Y-21902D01*
X27572Y-21902D01*
X27572Y-21862D01*
X27580Y-21862D01*
X27580Y-21854D01*
X27620Y-21854D01*
X27620Y-21862D01*
X27792Y-21862D01*
X27821Y-21833D01*
X27821Y-21751D01*
X27803Y-21708D01*
X27771Y-21676D01*
X27729Y-21659D01*
X27683Y-21659D01*
X27654Y-21659D01*
X27660Y-21644D01*
X27690Y-21644D01*
X27719Y-21615D01*
X27719Y-21451D01*
X27711Y-21451D01*
X27711Y-21411D01*
X27719Y-21411D01*
X27719Y-21403D01*
X27759Y-21403D01*
X27759Y-21411D01*
X27766Y-21411D01*
X27766Y-21451D01*
X27759Y-21451D01*
X27759Y-21615D01*
X27787Y-21644D01*
X27879Y-21644D01*
X27884Y-21642D01*
X27884Y-21700D01*
X28017Y-21700D01*
X28017Y-22352D01*
X28017Y-22352D01*
G37*
G54D51*
X28017Y-22352D02*
X27995Y-22352D01*
X27995Y-22409D01*
X27990Y-22407D01*
X27898Y-22407D01*
X27870Y-22436D01*
X27870Y-22601D01*
X27877Y-22601D01*
X27877Y-22641D01*
X27870Y-22641D01*
X27870Y-22648D01*
X27830Y-22648D01*
X27830Y-22641D01*
X27645Y-22641D01*
X27617Y-22669D01*
X27617Y-22680D01*
X27594Y-22657D01*
X27421Y-22657D01*
X27421Y-22665D01*
X27381Y-22665D01*
X27381Y-22657D01*
X27239Y-22657D01*
X27208Y-22657D01*
X27067Y-22657D01*
X27067Y-22665D01*
X27027Y-22665D01*
X27027Y-22657D01*
X27019Y-22657D01*
X27019Y-22617D01*
X27027Y-22617D01*
X27027Y-22443D01*
X26998Y-22414D01*
X26972Y-22414D01*
X26992Y-22394D01*
X26992Y-22230D01*
X26989Y-22230D01*
X26989Y-22190D01*
X26992Y-22190D01*
X26992Y-22182D01*
X27032Y-22182D01*
X27032Y-22190D01*
X27035Y-22190D01*
X27035Y-22230D01*
X27032Y-22230D01*
X27032Y-22394D01*
X27060Y-22423D01*
X27086Y-22423D01*
X27067Y-22443D01*
X27067Y-22617D01*
X27208Y-22617D01*
X27239Y-22617D01*
X27381Y-22617D01*
X27381Y-22609D01*
X27421Y-22609D01*
X27421Y-22617D01*
X27594Y-22617D01*
X27616Y-22596D01*
X27629Y-22596D01*
X27637Y-22592D01*
X27645Y-22601D01*
X27830Y-22601D01*
X27830Y-22436D01*
X27819Y-22426D01*
X27833Y-22391D01*
X27834Y-22290D01*
X27821Y-22260D01*
X27821Y-22066D01*
X27810Y-22040D01*
X27821Y-22013D01*
X27821Y-21931D01*
X27792Y-21902D01*
X27620Y-21902D01*
X27620Y-21910D01*
X27580Y-21910D01*
X27580Y-21902D01*
X27572Y-21902D01*
X27572Y-21862D01*
X27580Y-21862D01*
X27580Y-21854D01*
X27620Y-21854D01*
X27620Y-21862D01*
X27792Y-21862D01*
X27821Y-21833D01*
X27821Y-21751D01*
X27803Y-21708D01*
X27771Y-21676D01*
X27729Y-21659D01*
X27683Y-21659D01*
X27654Y-21659D01*
X27660Y-21644D01*
X27690Y-21644D01*
X27719Y-21615D01*
X27719Y-21451D01*
X27711Y-21451D01*
X27711Y-21411D01*
X27719Y-21411D01*
X27719Y-21403D01*
X27759Y-21403D01*
X27759Y-21411D01*
X27766Y-21411D01*
X27766Y-21451D01*
X27759Y-21451D01*
X27759Y-21615D01*
X27787Y-21644D01*
X27879Y-21644D01*
X27884Y-21642D01*
X27884Y-21700D01*
X28017Y-21700D01*
X28017Y-22352D01*
G54D10*
G36*
X28087Y-29355D02*
X27612Y-29355D01*
X27624Y-29349D01*
X27699Y-29275D01*
X27739Y-29177D01*
X27740Y-29072D01*
X27717Y-29017D01*
X27982Y-29017D01*
X27960Y-29072D01*
X27959Y-29177D01*
X28000Y-29274D01*
X28074Y-29349D01*
X28087Y-29355D01*
X28087Y-29355D01*
G37*
G54D51*
X28087Y-29355D02*
X27612Y-29355D01*
X27624Y-29349D01*
X27699Y-29275D01*
X27739Y-29177D01*
X27740Y-29072D01*
X27717Y-29017D01*
X27982Y-29017D01*
X27960Y-29072D01*
X27959Y-29177D01*
X28000Y-29274D01*
X28074Y-29349D01*
X28087Y-29355D01*
G54D10*
G36*
X28188Y-39060D02*
X28181Y-39060D01*
X28181Y-39068D01*
X28141Y-39068D01*
X28141Y-39060D01*
X27968Y-39060D01*
X27939Y-39089D01*
X27939Y-39163D01*
X27828Y-39163D01*
X27753Y-39088D01*
X27833Y-39009D01*
X27880Y-38895D01*
X27880Y-38771D01*
X27833Y-38656D01*
X27745Y-38568D01*
X27714Y-38555D01*
X27714Y-38409D01*
X27925Y-38197D01*
X27949Y-38256D01*
X27956Y-38262D01*
X27942Y-38297D01*
X27942Y-38343D01*
X27942Y-38556D01*
X27948Y-38572D01*
X27939Y-38594D01*
X27939Y-38639D01*
X27939Y-38856D01*
X27950Y-38883D01*
X27939Y-38909D01*
X27939Y-38991D01*
X27968Y-39020D01*
X28141Y-39020D01*
X28141Y-39012D01*
X28181Y-39012D01*
X28181Y-39020D01*
X28188Y-39020D01*
X28188Y-39060D01*
X28188Y-39060D01*
G37*
G54D51*
X28188Y-39060D02*
X28181Y-39060D01*
X28181Y-39068D01*
X28141Y-39068D01*
X28141Y-39060D01*
X27968Y-39060D01*
X27939Y-39089D01*
X27939Y-39163D01*
X27828Y-39163D01*
X27753Y-39088D01*
X27833Y-39009D01*
X27880Y-38895D01*
X27880Y-38771D01*
X27833Y-38656D01*
X27745Y-38568D01*
X27714Y-38555D01*
X27714Y-38409D01*
X27925Y-38197D01*
X27949Y-38256D01*
X27956Y-38262D01*
X27942Y-38297D01*
X27942Y-38343D01*
X27942Y-38556D01*
X27948Y-38572D01*
X27939Y-38594D01*
X27939Y-38639D01*
X27939Y-38856D01*
X27950Y-38883D01*
X27939Y-38909D01*
X27939Y-38991D01*
X27968Y-39020D01*
X28141Y-39020D01*
X28141Y-39012D01*
X28181Y-39012D01*
X28181Y-39020D01*
X28188Y-39020D01*
X28188Y-39060D01*
G54D10*
G36*
X28237Y-21162D02*
X27884Y-21162D01*
X27884Y-21219D01*
X27879Y-21217D01*
X27854Y-21217D01*
X27854Y-21209D01*
X27825Y-21180D01*
X27653Y-21180D01*
X27653Y-21188D01*
X27613Y-21188D01*
X27613Y-21180D01*
X27605Y-21180D01*
X27605Y-21140D01*
X27613Y-21140D01*
X27613Y-21132D01*
X27653Y-21132D01*
X27653Y-21140D01*
X27825Y-21140D01*
X27854Y-21111D01*
X27854Y-21029D01*
X27843Y-21002D01*
X27854Y-20976D01*
X27854Y-20931D01*
X27854Y-20714D01*
X27853Y-20710D01*
X28237Y-21094D01*
X28237Y-21162D01*
X28237Y-21162D01*
G37*
G54D51*
X28237Y-21162D02*
X27884Y-21162D01*
X27884Y-21219D01*
X27879Y-21217D01*
X27854Y-21217D01*
X27854Y-21209D01*
X27825Y-21180D01*
X27653Y-21180D01*
X27653Y-21188D01*
X27613Y-21188D01*
X27613Y-21180D01*
X27605Y-21180D01*
X27605Y-21140D01*
X27613Y-21140D01*
X27613Y-21132D01*
X27653Y-21132D01*
X27653Y-21140D01*
X27825Y-21140D01*
X27854Y-21111D01*
X27854Y-21029D01*
X27843Y-21002D01*
X27854Y-20976D01*
X27854Y-20931D01*
X27854Y-20714D01*
X27853Y-20710D01*
X28237Y-21094D01*
X28237Y-21162D01*
G54D10*
G36*
X28918Y-25341D02*
X28910Y-25341D01*
X28910Y-25348D01*
X28870Y-25348D01*
X28870Y-25341D01*
X28862Y-25341D01*
X28862Y-25301D01*
X28870Y-25301D01*
X28870Y-25293D01*
X28910Y-25293D01*
X28910Y-25301D01*
X28918Y-25301D01*
X28918Y-25341D01*
X28918Y-25341D01*
G37*
G54D51*
X28918Y-25341D02*
X28910Y-25341D01*
X28910Y-25348D01*
X28870Y-25348D01*
X28870Y-25341D01*
X28862Y-25341D01*
X28862Y-25301D01*
X28870Y-25301D01*
X28870Y-25293D01*
X28910Y-25293D01*
X28910Y-25301D01*
X28918Y-25301D01*
X28918Y-25341D01*
G54D10*
G36*
X29127Y-36540D02*
X29097Y-36569D01*
X29080Y-36612D01*
X29080Y-36657D01*
X29080Y-36790D01*
X29067Y-36785D01*
X28966Y-36784D01*
X28872Y-36823D01*
X28800Y-36895D01*
X28789Y-36922D01*
X28745Y-36922D01*
X28620Y-36922D01*
X28591Y-36951D01*
X28591Y-37125D01*
X28599Y-37125D01*
X28599Y-37165D01*
X28591Y-37165D01*
X28591Y-37325D01*
X28591Y-37340D01*
X28591Y-37500D01*
X28599Y-37500D01*
X28599Y-37540D01*
X28591Y-37540D01*
X28591Y-37547D01*
X28551Y-37547D01*
X28551Y-37540D01*
X28551Y-37500D01*
X28551Y-37340D01*
X28551Y-37325D01*
X28551Y-37165D01*
X28551Y-37125D01*
X28551Y-36951D01*
X28522Y-36922D01*
X28397Y-36922D01*
X28351Y-36922D01*
X28309Y-36940D01*
X28277Y-36972D01*
X28259Y-37014D01*
X28259Y-37097D01*
X28288Y-37125D01*
X28551Y-37125D01*
X28551Y-37165D01*
X28288Y-37165D01*
X28259Y-37194D01*
X28259Y-37277D01*
X28277Y-37319D01*
X28290Y-37332D01*
X28277Y-37346D01*
X28259Y-37388D01*
X28259Y-37471D01*
X28288Y-37500D01*
X28551Y-37500D01*
X28551Y-37540D01*
X28288Y-37540D01*
X28259Y-37568D01*
X28259Y-37651D01*
X28277Y-37693D01*
X28281Y-37698D01*
X28074Y-37698D01*
X28019Y-37709D01*
X27972Y-37740D01*
X27820Y-37892D01*
X27820Y-37762D01*
X27802Y-37720D01*
X27770Y-37688D01*
X27728Y-37670D01*
X27682Y-37670D01*
X27288Y-37670D01*
X27246Y-37688D01*
X27227Y-37707D01*
X27227Y-37568D01*
X27227Y-37469D01*
X27198Y-37441D01*
X26907Y-37441D01*
X26907Y-37632D01*
X26935Y-37661D01*
X27089Y-37661D01*
X27134Y-37661D01*
X27177Y-37643D01*
X27209Y-37611D01*
X27227Y-37568D01*
X27227Y-37707D01*
X27214Y-37720D01*
X27202Y-37749D01*
X26924Y-37749D01*
X26923Y-37749D01*
X26629Y-37749D01*
X26542Y-37662D01*
X26542Y-37662D01*
X26585Y-37644D01*
X26591Y-37638D01*
X26596Y-37643D01*
X26639Y-37661D01*
X26684Y-37661D01*
X26838Y-37661D01*
X26867Y-37632D01*
X26867Y-37441D01*
X26859Y-37441D01*
X26859Y-37401D01*
X26867Y-37401D01*
X26867Y-37209D01*
X26838Y-37181D01*
X26732Y-37181D01*
X26852Y-37061D01*
X27134Y-37061D01*
X27177Y-37043D01*
X27196Y-37023D01*
X27196Y-37060D01*
X27196Y-37218D01*
X27177Y-37198D01*
X27134Y-37181D01*
X27089Y-37181D01*
X26935Y-37181D01*
X26907Y-37209D01*
X26907Y-37401D01*
X27198Y-37401D01*
X27227Y-37372D01*
X27227Y-37332D01*
X27246Y-37351D01*
X27288Y-37369D01*
X27334Y-37369D01*
X27728Y-37369D01*
X27770Y-37351D01*
X27802Y-37319D01*
X27820Y-37277D01*
X27820Y-37231D01*
X27820Y-37014D01*
X27802Y-36972D01*
X27770Y-36940D01*
X27728Y-36922D01*
X27682Y-36922D01*
X27288Y-36922D01*
X27246Y-36940D01*
X27227Y-36959D01*
X27227Y-36923D01*
X27227Y-36673D01*
X27209Y-36630D01*
X27177Y-36598D01*
X27134Y-36581D01*
X27089Y-36581D01*
X26639Y-36581D01*
X26596Y-36598D01*
X26590Y-36604D01*
X26585Y-36599D01*
X26542Y-36582D01*
X26497Y-36582D01*
X26187Y-36582D01*
X25745Y-36139D01*
X25745Y-29710D01*
X25810Y-29645D01*
X26408Y-29645D01*
X26372Y-29733D01*
X26371Y-29840D01*
X26412Y-29939D01*
X26488Y-30015D01*
X26540Y-30037D01*
X26489Y-30057D01*
X26413Y-30133D01*
X26372Y-30233D01*
X26371Y-30340D01*
X26412Y-30439D01*
X26488Y-30515D01*
X26540Y-30537D01*
X26489Y-30557D01*
X26413Y-30633D01*
X26372Y-30733D01*
X26371Y-30840D01*
X26412Y-30939D01*
X26488Y-31015D01*
X26540Y-31037D01*
X26489Y-31057D01*
X26413Y-31133D01*
X26372Y-31233D01*
X26371Y-31340D01*
X26412Y-31439D01*
X26488Y-31515D01*
X26540Y-31537D01*
X26489Y-31557D01*
X26413Y-31633D01*
X26372Y-31733D01*
X26371Y-31840D01*
X26412Y-31939D01*
X26488Y-32015D01*
X26540Y-32037D01*
X26489Y-32057D01*
X26413Y-32133D01*
X26372Y-32233D01*
X26371Y-32340D01*
X26412Y-32439D01*
X26488Y-32515D01*
X26540Y-32537D01*
X26489Y-32557D01*
X26413Y-32633D01*
X26372Y-32733D01*
X26371Y-32840D01*
X26412Y-32939D01*
X26488Y-33015D01*
X26540Y-33037D01*
X26489Y-33057D01*
X26413Y-33133D01*
X26372Y-33233D01*
X26371Y-33340D01*
X26412Y-33439D01*
X26488Y-33515D01*
X26540Y-33537D01*
X26489Y-33557D01*
X26413Y-33633D01*
X26372Y-33733D01*
X26371Y-33840D01*
X26412Y-33939D01*
X26488Y-34015D01*
X26540Y-34037D01*
X26489Y-34057D01*
X26413Y-34133D01*
X26372Y-34233D01*
X26371Y-34340D01*
X26412Y-34439D01*
X26488Y-34515D01*
X26540Y-34537D01*
X26489Y-34557D01*
X26413Y-34633D01*
X26372Y-34733D01*
X26371Y-34840D01*
X26412Y-34939D01*
X26488Y-35015D01*
X26540Y-35037D01*
X26489Y-35057D01*
X26413Y-35133D01*
X26372Y-35233D01*
X26371Y-35340D01*
X26412Y-35439D01*
X26488Y-35515D01*
X26540Y-35537D01*
X26489Y-35557D01*
X26413Y-35633D01*
X26372Y-35733D01*
X26371Y-35840D01*
X26412Y-35939D01*
X26488Y-36015D01*
X26540Y-36037D01*
X26489Y-36057D01*
X26413Y-36133D01*
X26372Y-36233D01*
X26371Y-36340D01*
X26412Y-36439D01*
X26488Y-36515D01*
X26588Y-36556D01*
X26695Y-36557D01*
X26794Y-36516D01*
X26870Y-36440D01*
X26892Y-36388D01*
X26912Y-36439D01*
X26988Y-36515D01*
X27088Y-36556D01*
X27195Y-36557D01*
X27294Y-36516D01*
X27370Y-36440D01*
X27392Y-36388D01*
X27412Y-36439D01*
X27488Y-36515D01*
X27588Y-36556D01*
X27695Y-36557D01*
X27794Y-36516D01*
X27870Y-36440D01*
X27892Y-36388D01*
X27912Y-36439D01*
X27988Y-36515D01*
X28088Y-36556D01*
X28195Y-36557D01*
X28294Y-36516D01*
X28370Y-36440D01*
X28392Y-36388D01*
X28412Y-36439D01*
X28488Y-36515D01*
X28588Y-36556D01*
X28695Y-36557D01*
X28794Y-36516D01*
X28870Y-36440D01*
X28911Y-36340D01*
X28912Y-36233D01*
X28871Y-36134D01*
X28795Y-36058D01*
X28743Y-36036D01*
X28794Y-36016D01*
X28870Y-35940D01*
X28911Y-35840D01*
X28912Y-35733D01*
X28871Y-35634D01*
X28795Y-35558D01*
X28743Y-35536D01*
X28794Y-35516D01*
X28870Y-35440D01*
X28911Y-35340D01*
X28912Y-35233D01*
X28871Y-35134D01*
X28795Y-35058D01*
X28743Y-35036D01*
X28794Y-35016D01*
X28870Y-34940D01*
X28911Y-34840D01*
X28912Y-34733D01*
X28871Y-34634D01*
X28795Y-34558D01*
X28743Y-34536D01*
X28794Y-34516D01*
X28870Y-34440D01*
X28911Y-34340D01*
X28912Y-34233D01*
X28871Y-34134D01*
X28795Y-34058D01*
X28743Y-34036D01*
X28794Y-34016D01*
X28870Y-33940D01*
X28911Y-33840D01*
X28912Y-33733D01*
X28900Y-33706D01*
X28918Y-33706D01*
X29012Y-33667D01*
X29084Y-33595D01*
X29113Y-33525D01*
X29127Y-33540D01*
X29097Y-33569D01*
X29080Y-33612D01*
X29080Y-33657D01*
X29080Y-33967D01*
X29097Y-34010D01*
X29127Y-34040D01*
X29097Y-34069D01*
X29080Y-34112D01*
X29080Y-34157D01*
X29080Y-34467D01*
X29097Y-34510D01*
X29127Y-34540D01*
X29097Y-34569D01*
X29080Y-34612D01*
X29080Y-34657D01*
X29080Y-34967D01*
X29097Y-35010D01*
X29127Y-35040D01*
X29097Y-35069D01*
X29080Y-35112D01*
X29080Y-35157D01*
X29080Y-35467D01*
X29097Y-35510D01*
X29127Y-35540D01*
X29097Y-35569D01*
X29080Y-35612D01*
X29080Y-35657D01*
X29080Y-35967D01*
X29097Y-36010D01*
X29127Y-36040D01*
X29097Y-36069D01*
X29080Y-36112D01*
X29080Y-36157D01*
X29080Y-36467D01*
X29097Y-36510D01*
X29127Y-36540D01*
X29127Y-36540D01*
G37*
G54D51*
X29127Y-36540D02*
X29097Y-36569D01*
X29080Y-36612D01*
X29080Y-36657D01*
X29080Y-36790D01*
X29067Y-36785D01*
X28966Y-36784D01*
X28872Y-36823D01*
X28800Y-36895D01*
X28789Y-36922D01*
X28745Y-36922D01*
X28620Y-36922D01*
X28591Y-36951D01*
X28591Y-37125D01*
X28599Y-37125D01*
X28599Y-37165D01*
X28591Y-37165D01*
X28591Y-37325D01*
X28591Y-37340D01*
X28591Y-37500D01*
X28599Y-37500D01*
X28599Y-37540D01*
X28591Y-37540D01*
X28591Y-37547D01*
X28551Y-37547D01*
X28551Y-37540D01*
X28551Y-37500D01*
X28551Y-37340D01*
X28551Y-37325D01*
X28551Y-37165D01*
X28551Y-37125D01*
X28551Y-36951D01*
X28522Y-36922D01*
X28397Y-36922D01*
X28351Y-36922D01*
X28309Y-36940D01*
X28277Y-36972D01*
X28259Y-37014D01*
X28259Y-37097D01*
X28288Y-37125D01*
X28551Y-37125D01*
X28551Y-37165D01*
X28288Y-37165D01*
X28259Y-37194D01*
X28259Y-37277D01*
X28277Y-37319D01*
X28290Y-37332D01*
X28277Y-37346D01*
X28259Y-37388D01*
X28259Y-37471D01*
X28288Y-37500D01*
X28551Y-37500D01*
X28551Y-37540D01*
X28288Y-37540D01*
X28259Y-37568D01*
X28259Y-37651D01*
X28277Y-37693D01*
X28281Y-37698D01*
X28074Y-37698D01*
X28019Y-37709D01*
X27972Y-37740D01*
X27820Y-37892D01*
X27820Y-37762D01*
X27802Y-37720D01*
X27770Y-37688D01*
X27728Y-37670D01*
X27682Y-37670D01*
X27288Y-37670D01*
X27246Y-37688D01*
X27227Y-37707D01*
X27227Y-37568D01*
X27227Y-37469D01*
X27198Y-37441D01*
X26907Y-37441D01*
X26907Y-37632D01*
X26935Y-37661D01*
X27089Y-37661D01*
X27134Y-37661D01*
X27177Y-37643D01*
X27209Y-37611D01*
X27227Y-37568D01*
X27227Y-37707D01*
X27214Y-37720D01*
X27202Y-37749D01*
X26924Y-37749D01*
X26923Y-37749D01*
X26629Y-37749D01*
X26542Y-37662D01*
X26542Y-37662D01*
X26585Y-37644D01*
X26591Y-37638D01*
X26596Y-37643D01*
X26639Y-37661D01*
X26684Y-37661D01*
X26838Y-37661D01*
X26867Y-37632D01*
X26867Y-37441D01*
X26859Y-37441D01*
X26859Y-37401D01*
X26867Y-37401D01*
X26867Y-37209D01*
X26838Y-37181D01*
X26732Y-37181D01*
X26852Y-37061D01*
X27134Y-37061D01*
X27177Y-37043D01*
X27196Y-37023D01*
X27196Y-37060D01*
X27196Y-37218D01*
X27177Y-37198D01*
X27134Y-37181D01*
X27089Y-37181D01*
X26935Y-37181D01*
X26907Y-37209D01*
X26907Y-37401D01*
X27198Y-37401D01*
X27227Y-37372D01*
X27227Y-37332D01*
X27246Y-37351D01*
X27288Y-37369D01*
X27334Y-37369D01*
X27728Y-37369D01*
X27770Y-37351D01*
X27802Y-37319D01*
X27820Y-37277D01*
X27820Y-37231D01*
X27820Y-37014D01*
X27802Y-36972D01*
X27770Y-36940D01*
X27728Y-36922D01*
X27682Y-36922D01*
X27288Y-36922D01*
X27246Y-36940D01*
X27227Y-36959D01*
X27227Y-36923D01*
X27227Y-36673D01*
X27209Y-36630D01*
X27177Y-36598D01*
X27134Y-36581D01*
X27089Y-36581D01*
X26639Y-36581D01*
X26596Y-36598D01*
X26590Y-36604D01*
X26585Y-36599D01*
X26542Y-36582D01*
X26497Y-36582D01*
X26187Y-36582D01*
X25745Y-36139D01*
X25745Y-29710D01*
X25810Y-29645D01*
X26408Y-29645D01*
X26372Y-29733D01*
X26371Y-29840D01*
X26412Y-29939D01*
X26488Y-30015D01*
X26540Y-30037D01*
X26489Y-30057D01*
X26413Y-30133D01*
X26372Y-30233D01*
X26371Y-30340D01*
X26412Y-30439D01*
X26488Y-30515D01*
X26540Y-30537D01*
X26489Y-30557D01*
X26413Y-30633D01*
X26372Y-30733D01*
X26371Y-30840D01*
X26412Y-30939D01*
X26488Y-31015D01*
X26540Y-31037D01*
X26489Y-31057D01*
X26413Y-31133D01*
X26372Y-31233D01*
X26371Y-31340D01*
X26412Y-31439D01*
X26488Y-31515D01*
X26540Y-31537D01*
X26489Y-31557D01*
X26413Y-31633D01*
X26372Y-31733D01*
X26371Y-31840D01*
X26412Y-31939D01*
X26488Y-32015D01*
X26540Y-32037D01*
X26489Y-32057D01*
X26413Y-32133D01*
X26372Y-32233D01*
X26371Y-32340D01*
X26412Y-32439D01*
X26488Y-32515D01*
X26540Y-32537D01*
X26489Y-32557D01*
X26413Y-32633D01*
X26372Y-32733D01*
X26371Y-32840D01*
X26412Y-32939D01*
X26488Y-33015D01*
X26540Y-33037D01*
X26489Y-33057D01*
X26413Y-33133D01*
X26372Y-33233D01*
X26371Y-33340D01*
X26412Y-33439D01*
X26488Y-33515D01*
X26540Y-33537D01*
X26489Y-33557D01*
X26413Y-33633D01*
X26372Y-33733D01*
X26371Y-33840D01*
X26412Y-33939D01*
X26488Y-34015D01*
X26540Y-34037D01*
X26489Y-34057D01*
X26413Y-34133D01*
X26372Y-34233D01*
X26371Y-34340D01*
X26412Y-34439D01*
X26488Y-34515D01*
X26540Y-34537D01*
X26489Y-34557D01*
X26413Y-34633D01*
X26372Y-34733D01*
X26371Y-34840D01*
X26412Y-34939D01*
X26488Y-35015D01*
X26540Y-35037D01*
X26489Y-35057D01*
X26413Y-35133D01*
X26372Y-35233D01*
X26371Y-35340D01*
X26412Y-35439D01*
X26488Y-35515D01*
X26540Y-35537D01*
X26489Y-35557D01*
X26413Y-35633D01*
X26372Y-35733D01*
X26371Y-35840D01*
X26412Y-35939D01*
X26488Y-36015D01*
X26540Y-36037D01*
X26489Y-36057D01*
X26413Y-36133D01*
X26372Y-36233D01*
X26371Y-36340D01*
X26412Y-36439D01*
X26488Y-36515D01*
X26588Y-36556D01*
X26695Y-36557D01*
X26794Y-36516D01*
X26870Y-36440D01*
X26892Y-36388D01*
X26912Y-36439D01*
X26988Y-36515D01*
X27088Y-36556D01*
X27195Y-36557D01*
X27294Y-36516D01*
X27370Y-36440D01*
X27392Y-36388D01*
X27412Y-36439D01*
X27488Y-36515D01*
X27588Y-36556D01*
X27695Y-36557D01*
X27794Y-36516D01*
X27870Y-36440D01*
X27892Y-36388D01*
X27912Y-36439D01*
X27988Y-36515D01*
X28088Y-36556D01*
X28195Y-36557D01*
X28294Y-36516D01*
X28370Y-36440D01*
X28392Y-36388D01*
X28412Y-36439D01*
X28488Y-36515D01*
X28588Y-36556D01*
X28695Y-36557D01*
X28794Y-36516D01*
X28870Y-36440D01*
X28911Y-36340D01*
X28912Y-36233D01*
X28871Y-36134D01*
X28795Y-36058D01*
X28743Y-36036D01*
X28794Y-36016D01*
X28870Y-35940D01*
X28911Y-35840D01*
X28912Y-35733D01*
X28871Y-35634D01*
X28795Y-35558D01*
X28743Y-35536D01*
X28794Y-35516D01*
X28870Y-35440D01*
X28911Y-35340D01*
X28912Y-35233D01*
X28871Y-35134D01*
X28795Y-35058D01*
X28743Y-35036D01*
X28794Y-35016D01*
X28870Y-34940D01*
X28911Y-34840D01*
X28912Y-34733D01*
X28871Y-34634D01*
X28795Y-34558D01*
X28743Y-34536D01*
X28794Y-34516D01*
X28870Y-34440D01*
X28911Y-34340D01*
X28912Y-34233D01*
X28871Y-34134D01*
X28795Y-34058D01*
X28743Y-34036D01*
X28794Y-34016D01*
X28870Y-33940D01*
X28911Y-33840D01*
X28912Y-33733D01*
X28900Y-33706D01*
X28918Y-33706D01*
X29012Y-33667D01*
X29084Y-33595D01*
X29113Y-33525D01*
X29127Y-33540D01*
X29097Y-33569D01*
X29080Y-33612D01*
X29080Y-33657D01*
X29080Y-33967D01*
X29097Y-34010D01*
X29127Y-34040D01*
X29097Y-34069D01*
X29080Y-34112D01*
X29080Y-34157D01*
X29080Y-34467D01*
X29097Y-34510D01*
X29127Y-34540D01*
X29097Y-34569D01*
X29080Y-34612D01*
X29080Y-34657D01*
X29080Y-34967D01*
X29097Y-35010D01*
X29127Y-35040D01*
X29097Y-35069D01*
X29080Y-35112D01*
X29080Y-35157D01*
X29080Y-35467D01*
X29097Y-35510D01*
X29127Y-35540D01*
X29097Y-35569D01*
X29080Y-35612D01*
X29080Y-35657D01*
X29080Y-35967D01*
X29097Y-36010D01*
X29127Y-36040D01*
X29097Y-36069D01*
X29080Y-36112D01*
X29080Y-36157D01*
X29080Y-36467D01*
X29097Y-36510D01*
X29127Y-36540D01*
G54D10*
G36*
X29346Y-27987D02*
X29339Y-27987D01*
X29339Y-27995D01*
X29299Y-27995D01*
X29299Y-27987D01*
X29138Y-27987D01*
X29126Y-27987D01*
X29097Y-28016D01*
X29097Y-28098D01*
X29115Y-28141D01*
X29138Y-28164D01*
X29147Y-28173D01*
X29189Y-28191D01*
X29235Y-28191D01*
X29270Y-28191D01*
X29298Y-28162D01*
X29298Y-28191D01*
X29299Y-28191D01*
X29299Y-28191D01*
X29299Y-28191D01*
X29271Y-28219D01*
X29138Y-28219D01*
X28699Y-28219D01*
X29108Y-27809D01*
X29108Y-27810D01*
X29097Y-27836D01*
X29097Y-27918D01*
X29126Y-27947D01*
X29138Y-27947D01*
X29299Y-27947D01*
X29299Y-27939D01*
X29339Y-27939D01*
X29339Y-27947D01*
X29346Y-27947D01*
X29346Y-27987D01*
X29346Y-27987D01*
G37*
G54D51*
X29346Y-27987D02*
X29339Y-27987D01*
X29339Y-27995D01*
X29299Y-27995D01*
X29299Y-27987D01*
X29138Y-27987D01*
X29126Y-27987D01*
X29097Y-28016D01*
X29097Y-28098D01*
X29115Y-28141D01*
X29138Y-28164D01*
X29147Y-28173D01*
X29189Y-28191D01*
X29235Y-28191D01*
X29270Y-28191D01*
X29298Y-28162D01*
X29298Y-28191D01*
X29299Y-28191D01*
X29299Y-28191D01*
X29299Y-28191D01*
X29271Y-28219D01*
X29138Y-28219D01*
X28699Y-28219D01*
X29108Y-27809D01*
X29108Y-27810D01*
X29097Y-27836D01*
X29097Y-27918D01*
X29126Y-27947D01*
X29138Y-27947D01*
X29299Y-27947D01*
X29299Y-27939D01*
X29339Y-27939D01*
X29339Y-27947D01*
X29346Y-27947D01*
X29346Y-27987D01*
G54D10*
G36*
X29534Y-32697D02*
X29490Y-32762D01*
X29469Y-32814D01*
X29442Y-32946D01*
X29442Y-32946D01*
X29442Y-32946D01*
X29442Y-33003D01*
X29442Y-33003D01*
X29446Y-33020D01*
X29172Y-33020D01*
X29138Y-33034D01*
X29129Y-33037D01*
X29097Y-33069D01*
X29080Y-33112D01*
X29080Y-33157D01*
X29080Y-33302D01*
X29012Y-33234D01*
X28918Y-33196D01*
X28817Y-33195D01*
X28723Y-33234D01*
X28651Y-33306D01*
X28613Y-33400D01*
X28612Y-33501D01*
X28619Y-33516D01*
X28588Y-33516D01*
X28489Y-33557D01*
X28413Y-33633D01*
X28391Y-33685D01*
X28371Y-33634D01*
X28295Y-33558D01*
X28243Y-33536D01*
X28294Y-33516D01*
X28370Y-33440D01*
X28411Y-33340D01*
X28412Y-33233D01*
X28371Y-33134D01*
X28295Y-33058D01*
X28243Y-33036D01*
X28294Y-33016D01*
X28370Y-32940D01*
X28411Y-32840D01*
X28412Y-32733D01*
X28371Y-32634D01*
X28295Y-32558D01*
X28243Y-32536D01*
X28294Y-32516D01*
X28370Y-32440D01*
X28411Y-32340D01*
X28412Y-32233D01*
X28371Y-32134D01*
X28295Y-32058D01*
X28243Y-32036D01*
X28294Y-32016D01*
X28370Y-31940D01*
X28411Y-31840D01*
X28412Y-31733D01*
X28371Y-31634D01*
X28295Y-31558D01*
X28243Y-31536D01*
X28294Y-31516D01*
X28370Y-31440D01*
X28411Y-31340D01*
X28412Y-31233D01*
X28371Y-31134D01*
X28295Y-31058D01*
X28243Y-31036D01*
X28294Y-31016D01*
X28370Y-30940D01*
X28411Y-30840D01*
X28412Y-30733D01*
X28371Y-30634D01*
X28295Y-30558D01*
X28243Y-30536D01*
X28294Y-30516D01*
X28370Y-30440D01*
X28411Y-30340D01*
X28412Y-30233D01*
X28371Y-30134D01*
X28295Y-30058D01*
X28243Y-30036D01*
X28294Y-30016D01*
X28370Y-29940D01*
X28411Y-29840D01*
X28412Y-29733D01*
X28375Y-29645D01*
X29138Y-29645D01*
X29205Y-29645D01*
X29205Y-29660D01*
X29172Y-29660D01*
X29138Y-29674D01*
X29129Y-29677D01*
X29097Y-29709D01*
X29080Y-29752D01*
X29080Y-29797D01*
X29080Y-30107D01*
X29097Y-30150D01*
X29127Y-30180D01*
X29097Y-30209D01*
X29080Y-30252D01*
X29080Y-30297D01*
X29080Y-30607D01*
X29097Y-30650D01*
X29127Y-30680D01*
X29097Y-30709D01*
X29080Y-30752D01*
X29080Y-30797D01*
X29080Y-31107D01*
X29097Y-31150D01*
X29127Y-31180D01*
X29097Y-31209D01*
X29080Y-31252D01*
X29080Y-31297D01*
X29080Y-31607D01*
X29097Y-31650D01*
X29127Y-31680D01*
X29097Y-31709D01*
X29080Y-31752D01*
X29080Y-31797D01*
X29080Y-32107D01*
X29097Y-32150D01*
X29127Y-32180D01*
X29097Y-32209D01*
X29080Y-32252D01*
X29080Y-32297D01*
X29080Y-32607D01*
X29097Y-32650D01*
X29129Y-32682D01*
X29138Y-32685D01*
X29172Y-32700D01*
X29217Y-32700D01*
X29527Y-32700D01*
X29534Y-32697D01*
X29534Y-32697D01*
G37*
G54D51*
X29534Y-32697D02*
X29490Y-32762D01*
X29469Y-32814D01*
X29442Y-32946D01*
X29442Y-32946D01*
X29442Y-32946D01*
X29442Y-33003D01*
X29442Y-33003D01*
X29446Y-33020D01*
X29172Y-33020D01*
X29138Y-33034D01*
X29129Y-33037D01*
X29097Y-33069D01*
X29080Y-33112D01*
X29080Y-33157D01*
X29080Y-33302D01*
X29012Y-33234D01*
X28918Y-33196D01*
X28817Y-33195D01*
X28723Y-33234D01*
X28651Y-33306D01*
X28613Y-33400D01*
X28612Y-33501D01*
X28619Y-33516D01*
X28588Y-33516D01*
X28489Y-33557D01*
X28413Y-33633D01*
X28391Y-33685D01*
X28371Y-33634D01*
X28295Y-33558D01*
X28243Y-33536D01*
X28294Y-33516D01*
X28370Y-33440D01*
X28411Y-33340D01*
X28412Y-33233D01*
X28371Y-33134D01*
X28295Y-33058D01*
X28243Y-33036D01*
X28294Y-33016D01*
X28370Y-32940D01*
X28411Y-32840D01*
X28412Y-32733D01*
X28371Y-32634D01*
X28295Y-32558D01*
X28243Y-32536D01*
X28294Y-32516D01*
X28370Y-32440D01*
X28411Y-32340D01*
X28412Y-32233D01*
X28371Y-32134D01*
X28295Y-32058D01*
X28243Y-32036D01*
X28294Y-32016D01*
X28370Y-31940D01*
X28411Y-31840D01*
X28412Y-31733D01*
X28371Y-31634D01*
X28295Y-31558D01*
X28243Y-31536D01*
X28294Y-31516D01*
X28370Y-31440D01*
X28411Y-31340D01*
X28412Y-31233D01*
X28371Y-31134D01*
X28295Y-31058D01*
X28243Y-31036D01*
X28294Y-31016D01*
X28370Y-30940D01*
X28411Y-30840D01*
X28412Y-30733D01*
X28371Y-30634D01*
X28295Y-30558D01*
X28243Y-30536D01*
X28294Y-30516D01*
X28370Y-30440D01*
X28411Y-30340D01*
X28412Y-30233D01*
X28371Y-30134D01*
X28295Y-30058D01*
X28243Y-30036D01*
X28294Y-30016D01*
X28370Y-29940D01*
X28411Y-29840D01*
X28412Y-29733D01*
X28375Y-29645D01*
X29138Y-29645D01*
X29205Y-29645D01*
X29205Y-29660D01*
X29172Y-29660D01*
X29138Y-29674D01*
X29129Y-29677D01*
X29097Y-29709D01*
X29080Y-29752D01*
X29080Y-29797D01*
X29080Y-30107D01*
X29097Y-30150D01*
X29127Y-30180D01*
X29097Y-30209D01*
X29080Y-30252D01*
X29080Y-30297D01*
X29080Y-30607D01*
X29097Y-30650D01*
X29127Y-30680D01*
X29097Y-30709D01*
X29080Y-30752D01*
X29080Y-30797D01*
X29080Y-31107D01*
X29097Y-31150D01*
X29127Y-31180D01*
X29097Y-31209D01*
X29080Y-31252D01*
X29080Y-31297D01*
X29080Y-31607D01*
X29097Y-31650D01*
X29127Y-31680D01*
X29097Y-31709D01*
X29080Y-31752D01*
X29080Y-31797D01*
X29080Y-32107D01*
X29097Y-32150D01*
X29127Y-32180D01*
X29097Y-32209D01*
X29080Y-32252D01*
X29080Y-32297D01*
X29080Y-32607D01*
X29097Y-32650D01*
X29129Y-32682D01*
X29138Y-32685D01*
X29172Y-32700D01*
X29217Y-32700D01*
X29527Y-32700D01*
X29534Y-32697D01*
G54D10*
G36*
X29834Y-22650D02*
X29827Y-22650D01*
X29827Y-22658D01*
X29787Y-22658D01*
X29787Y-22650D01*
X29658Y-22650D01*
X29614Y-22650D01*
X29486Y-22650D01*
X29486Y-22658D01*
X29446Y-22658D01*
X29446Y-22650D01*
X29376Y-22650D01*
X29367Y-22641D01*
X29183Y-22641D01*
X29183Y-22648D01*
X29143Y-22648D01*
X29143Y-22641D01*
X29138Y-22641D01*
X29135Y-22641D01*
X29135Y-22601D01*
X29138Y-22601D01*
X29143Y-22601D01*
X29143Y-22593D01*
X29183Y-22593D01*
X29183Y-22601D01*
X29263Y-22601D01*
X29273Y-22610D01*
X29446Y-22610D01*
X29446Y-22602D01*
X29486Y-22602D01*
X29486Y-22610D01*
X29614Y-22610D01*
X29658Y-22610D01*
X29787Y-22610D01*
X29787Y-22602D01*
X29827Y-22602D01*
X29827Y-22610D01*
X29834Y-22610D01*
X29834Y-22650D01*
X29834Y-22650D01*
G37*
G54D51*
X29834Y-22650D02*
X29827Y-22650D01*
X29827Y-22658D01*
X29787Y-22658D01*
X29787Y-22650D01*
X29658Y-22650D01*
X29614Y-22650D01*
X29486Y-22650D01*
X29486Y-22658D01*
X29446Y-22658D01*
X29446Y-22650D01*
X29376Y-22650D01*
X29367Y-22641D01*
X29183Y-22641D01*
X29183Y-22648D01*
X29143Y-22648D01*
X29143Y-22641D01*
X29138Y-22641D01*
X29135Y-22641D01*
X29135Y-22601D01*
X29138Y-22601D01*
X29143Y-22601D01*
X29143Y-22593D01*
X29183Y-22593D01*
X29183Y-22601D01*
X29263Y-22601D01*
X29273Y-22610D01*
X29446Y-22610D01*
X29446Y-22602D01*
X29486Y-22602D01*
X29486Y-22610D01*
X29614Y-22610D01*
X29658Y-22610D01*
X29787Y-22610D01*
X29787Y-22602D01*
X29827Y-22602D01*
X29827Y-22610D01*
X29834Y-22610D01*
X29834Y-22650D01*
G54D10*
G36*
X30713Y-30197D02*
X30698Y-30233D01*
X30698Y-30279D01*
X30698Y-30285D01*
X30120Y-30285D01*
X30120Y-30228D01*
X30091Y-30200D01*
X29870Y-30200D01*
X29870Y-30207D01*
X29830Y-30207D01*
X29830Y-30200D01*
X29608Y-30200D01*
X29600Y-30208D01*
X29572Y-30180D01*
X29600Y-30151D01*
X29608Y-30160D01*
X29830Y-30160D01*
X29830Y-30152D01*
X29870Y-30152D01*
X29870Y-30160D01*
X30091Y-30160D01*
X30120Y-30131D01*
X30120Y-30075D01*
X30698Y-30075D01*
X30698Y-30161D01*
X30713Y-30197D01*
X30713Y-30197D01*
G37*
G54D51*
X30713Y-30197D02*
X30698Y-30233D01*
X30698Y-30279D01*
X30698Y-30285D01*
X30120Y-30285D01*
X30120Y-30228D01*
X30091Y-30200D01*
X29870Y-30200D01*
X29870Y-30207D01*
X29830Y-30207D01*
X29830Y-30200D01*
X29608Y-30200D01*
X29600Y-30208D01*
X29572Y-30180D01*
X29600Y-30151D01*
X29608Y-30160D01*
X29830Y-30160D01*
X29830Y-30152D01*
X29870Y-30152D01*
X29870Y-30160D01*
X30091Y-30160D01*
X30120Y-30131D01*
X30120Y-30075D01*
X30698Y-30075D01*
X30698Y-30161D01*
X30713Y-30197D01*
G54D10*
G36*
X31139Y-22314D02*
X31067Y-22314D01*
X31024Y-22332D01*
X30992Y-22364D01*
X30981Y-22391D01*
X30929Y-22391D01*
X30786Y-22391D01*
X30777Y-22392D01*
X30777Y-22377D01*
X30748Y-22377D01*
X30777Y-22348D01*
X30777Y-22313D01*
X30777Y-22267D01*
X30759Y-22225D01*
X30727Y-22193D01*
X30684Y-22175D01*
X30629Y-22175D01*
X30629Y-22065D01*
X30629Y-22020D01*
X30629Y-21924D01*
X30600Y-21895D01*
X30347Y-21895D01*
X30347Y-22129D01*
X30375Y-22157D01*
X30537Y-22157D01*
X30579Y-22140D01*
X30611Y-22108D01*
X30629Y-22065D01*
X30629Y-22175D01*
X30602Y-22175D01*
X30573Y-22204D01*
X30573Y-22377D01*
X30581Y-22377D01*
X30581Y-22417D01*
X30573Y-22417D01*
X30573Y-22425D01*
X30533Y-22425D01*
X30533Y-22417D01*
X30525Y-22417D01*
X30525Y-22377D01*
X30533Y-22377D01*
X30533Y-22204D01*
X30504Y-22175D01*
X30422Y-22175D01*
X30396Y-22186D01*
X30369Y-22175D01*
X30324Y-22175D01*
X30222Y-22175D01*
X30204Y-22157D01*
X30278Y-22157D01*
X30307Y-22129D01*
X30307Y-21895D01*
X30299Y-21895D01*
X30299Y-21855D01*
X30307Y-21855D01*
X30307Y-21847D01*
X30347Y-21847D01*
X30347Y-21855D01*
X30600Y-21855D01*
X30629Y-21826D01*
X30629Y-21731D01*
X30629Y-21685D01*
X30614Y-21649D01*
X30629Y-21613D01*
X30629Y-21567D01*
X30629Y-21232D01*
X30611Y-21190D01*
X30579Y-21158D01*
X30537Y-21140D01*
X30491Y-21140D01*
X30117Y-21140D01*
X30075Y-21158D01*
X30042Y-21190D01*
X30041Y-21192D01*
X30040Y-21190D01*
X30008Y-21158D01*
X29966Y-21140D01*
X29805Y-21140D01*
X29776Y-21169D01*
X29776Y-21402D01*
X29784Y-21402D01*
X29784Y-21442D01*
X29776Y-21442D01*
X29776Y-21450D01*
X29736Y-21450D01*
X29736Y-21442D01*
X29736Y-21402D01*
X29736Y-21169D01*
X29707Y-21140D01*
X29546Y-21140D01*
X29505Y-21157D01*
X29516Y-21132D01*
X29516Y-21086D01*
X29516Y-21059D01*
X29516Y-20962D01*
X29516Y-20935D01*
X29516Y-20889D01*
X29498Y-20847D01*
X29466Y-20815D01*
X29423Y-20797D01*
X29331Y-20797D01*
X29303Y-20826D01*
X29303Y-20991D01*
X29487Y-20991D01*
X29516Y-20962D01*
X29516Y-21059D01*
X29487Y-21031D01*
X29303Y-21031D01*
X29303Y-21195D01*
X29331Y-21224D01*
X29423Y-21224D01*
X29464Y-21207D01*
X29454Y-21232D01*
X29454Y-21278D01*
X29454Y-21374D01*
X29483Y-21402D01*
X29736Y-21402D01*
X29736Y-21442D01*
X29483Y-21442D01*
X29454Y-21471D01*
X29454Y-21567D01*
X29454Y-21613D01*
X29469Y-21649D01*
X29454Y-21685D01*
X29454Y-21730D01*
X29446Y-21730D01*
X29446Y-21705D01*
X29435Y-21679D01*
X29446Y-21652D01*
X29446Y-21570D01*
X29446Y-21472D01*
X29446Y-21390D01*
X29428Y-21347D01*
X29396Y-21315D01*
X29354Y-21298D01*
X29308Y-21298D01*
X29273Y-21298D01*
X29245Y-21326D01*
X29245Y-21501D01*
X29417Y-21501D01*
X29446Y-21472D01*
X29446Y-21570D01*
X29417Y-21541D01*
X29245Y-21541D01*
X29245Y-21549D01*
X29205Y-21549D01*
X29205Y-21541D01*
X29205Y-21501D01*
X29205Y-21326D01*
X29176Y-21298D01*
X29141Y-21298D01*
X29138Y-21298D01*
X29095Y-21298D01*
X29053Y-21315D01*
X29021Y-21347D01*
X29003Y-21390D01*
X29003Y-21472D01*
X29032Y-21501D01*
X29138Y-21501D01*
X29205Y-21501D01*
X29205Y-21541D01*
X29138Y-21541D01*
X29032Y-21541D01*
X29003Y-21570D01*
X29003Y-21652D01*
X29014Y-21679D01*
X29003Y-21705D01*
X29003Y-21750D01*
X29003Y-21967D01*
X29021Y-22010D01*
X29053Y-22042D01*
X29080Y-22053D01*
X29080Y-22131D01*
X29089Y-22177D01*
X29089Y-22177D01*
X29083Y-22193D01*
X29082Y-22294D01*
X29121Y-22388D01*
X29138Y-22404D01*
X29142Y-22409D01*
X29142Y-22436D01*
X29138Y-22431D01*
X29114Y-22407D01*
X29022Y-22407D01*
X29018Y-22409D01*
X29018Y-22352D01*
X28994Y-22352D01*
X28994Y-21557D01*
X28881Y-21557D01*
X28880Y-21555D01*
X28780Y-21455D01*
X28775Y-21451D01*
X28775Y-21280D01*
X29138Y-21280D01*
X29138Y-21222D01*
X29142Y-21224D01*
X29234Y-21224D01*
X29263Y-21195D01*
X29263Y-21031D01*
X29255Y-21031D01*
X29255Y-20991D01*
X29263Y-20991D01*
X29263Y-20826D01*
X29234Y-20797D01*
X29142Y-20797D01*
X29138Y-20799D01*
X29138Y-20742D01*
X28775Y-20742D01*
X28775Y-20716D01*
X28638Y-20716D01*
X28625Y-20716D01*
X28625Y-19794D01*
X28625Y-19712D01*
X28596Y-19683D01*
X28424Y-19683D01*
X28424Y-19858D01*
X28452Y-19887D01*
X28487Y-19887D01*
X28533Y-19887D01*
X28575Y-19869D01*
X28607Y-19837D01*
X28625Y-19794D01*
X28625Y-20716D01*
X28579Y-20716D01*
X28384Y-20520D01*
X28384Y-19858D01*
X28384Y-19683D01*
X28211Y-19683D01*
X28182Y-19712D01*
X28182Y-19794D01*
X28200Y-19837D01*
X28232Y-19869D01*
X28274Y-19887D01*
X28320Y-19887D01*
X28355Y-19887D01*
X28384Y-19858D01*
X28384Y-20520D01*
X28030Y-20166D01*
X28030Y-18880D01*
X28247Y-18880D01*
X28247Y-18822D01*
X28251Y-18824D01*
X28343Y-18824D01*
X28372Y-18795D01*
X28372Y-18631D01*
X28364Y-18631D01*
X28364Y-18591D01*
X28372Y-18591D01*
X28372Y-18426D01*
X28343Y-18397D01*
X28251Y-18397D01*
X28247Y-18399D01*
X28247Y-18252D01*
X30001Y-18252D01*
X29966Y-18287D01*
X29571Y-18287D01*
X29515Y-18298D01*
X29499Y-18308D01*
X29468Y-18329D01*
X29396Y-18401D01*
X29365Y-18448D01*
X29363Y-18457D01*
X29354Y-18504D01*
X29354Y-18839D01*
X29278Y-18764D01*
X29278Y-18720D01*
X29278Y-18523D01*
X29260Y-18481D01*
X29228Y-18449D01*
X29186Y-18431D01*
X29140Y-18431D01*
X28825Y-18431D01*
X28783Y-18449D01*
X28751Y-18481D01*
X28733Y-18523D01*
X28733Y-18569D01*
X28733Y-18766D01*
X28751Y-18808D01*
X28783Y-18840D01*
X28825Y-18858D01*
X28871Y-18858D01*
X28962Y-18858D01*
X29027Y-18923D01*
X28825Y-18923D01*
X28783Y-18941D01*
X28751Y-18973D01*
X28743Y-18992D01*
X28625Y-18992D01*
X28625Y-18732D01*
X28625Y-18686D01*
X28625Y-18659D01*
X28625Y-18562D01*
X28625Y-18535D01*
X28625Y-18489D01*
X28607Y-18447D01*
X28575Y-18415D01*
X28532Y-18397D01*
X28440Y-18397D01*
X28412Y-18426D01*
X28412Y-18591D01*
X28596Y-18591D01*
X28625Y-18562D01*
X28625Y-18659D01*
X28596Y-18631D01*
X28412Y-18631D01*
X28412Y-18795D01*
X28440Y-18824D01*
X28532Y-18824D01*
X28575Y-18806D01*
X28607Y-18774D01*
X28625Y-18732D01*
X28625Y-18992D01*
X28615Y-18992D01*
X28560Y-19003D01*
X28512Y-19034D01*
X28422Y-19125D01*
X28274Y-19125D01*
X28232Y-19142D01*
X28200Y-19174D01*
X28182Y-19217D01*
X28182Y-19262D01*
X28182Y-19479D01*
X28193Y-19506D01*
X28182Y-19532D01*
X28182Y-19614D01*
X28211Y-19643D01*
X28384Y-19643D01*
X28384Y-19635D01*
X28424Y-19635D01*
X28424Y-19643D01*
X28596Y-19643D01*
X28625Y-19614D01*
X28625Y-19532D01*
X28614Y-19505D01*
X28625Y-19479D01*
X28625Y-19434D01*
X28625Y-19332D01*
X28675Y-19282D01*
X28743Y-19282D01*
X28751Y-19300D01*
X28783Y-19332D01*
X28825Y-19350D01*
X28871Y-19350D01*
X29186Y-19350D01*
X29228Y-19332D01*
X29240Y-19321D01*
X29240Y-19444D01*
X29228Y-19433D01*
X29186Y-19415D01*
X29140Y-19415D01*
X29054Y-19415D01*
X29026Y-19444D01*
X29026Y-19609D01*
X29033Y-19609D01*
X29033Y-19649D01*
X29026Y-19649D01*
X29026Y-19813D01*
X29054Y-19842D01*
X29140Y-19842D01*
X29186Y-19842D01*
X29228Y-19824D01*
X29240Y-19813D01*
X29240Y-19936D01*
X29228Y-19925D01*
X29186Y-19907D01*
X29140Y-19907D01*
X28986Y-19907D01*
X28986Y-19813D01*
X28986Y-19649D01*
X28986Y-19609D01*
X28986Y-19444D01*
X28957Y-19415D01*
X28871Y-19415D01*
X28825Y-19415D01*
X28783Y-19433D01*
X28751Y-19465D01*
X28733Y-19507D01*
X28733Y-19580D01*
X28762Y-19609D01*
X28986Y-19609D01*
X28986Y-19649D01*
X28762Y-19649D01*
X28733Y-19677D01*
X28733Y-19750D01*
X28751Y-19792D01*
X28783Y-19824D01*
X28825Y-19842D01*
X28871Y-19842D01*
X28957Y-19842D01*
X28986Y-19813D01*
X28986Y-19907D01*
X28825Y-19907D01*
X28783Y-19925D01*
X28751Y-19957D01*
X28733Y-19999D01*
X28733Y-20045D01*
X28733Y-20242D01*
X28751Y-20284D01*
X28783Y-20316D01*
X28825Y-20334D01*
X28871Y-20334D01*
X29186Y-20334D01*
X29228Y-20316D01*
X29260Y-20284D01*
X29268Y-20266D01*
X29385Y-20266D01*
X29531Y-20266D01*
X29539Y-20284D01*
X29571Y-20316D01*
X29613Y-20334D01*
X29649Y-20334D01*
X29649Y-20535D01*
X29608Y-20551D01*
X29536Y-20623D01*
X29498Y-20717D01*
X29497Y-20818D01*
X29536Y-20912D01*
X29608Y-20984D01*
X29702Y-21022D01*
X29803Y-21023D01*
X29897Y-20984D01*
X29955Y-20925D01*
X29971Y-20964D01*
X30043Y-21036D01*
X30137Y-21074D01*
X30238Y-21075D01*
X30332Y-21036D01*
X30338Y-21029D01*
X30370Y-21068D01*
X30440Y-21106D01*
X30448Y-21107D01*
X30480Y-21084D01*
X30480Y-20802D01*
X30472Y-20802D01*
X30472Y-20762D01*
X30480Y-20762D01*
X30480Y-20754D01*
X30520Y-20754D01*
X30520Y-20762D01*
X30527Y-20762D01*
X30527Y-20802D01*
X30520Y-20802D01*
X30520Y-21084D01*
X30551Y-21107D01*
X30559Y-21106D01*
X30606Y-21081D01*
X30606Y-21119D01*
X30615Y-21165D01*
X30617Y-21174D01*
X30648Y-21221D01*
X30804Y-21377D01*
X30804Y-21510D01*
X30795Y-21513D01*
X30723Y-21585D01*
X30685Y-21679D01*
X30684Y-21780D01*
X30723Y-21874D01*
X30795Y-21946D01*
X30889Y-21984D01*
X30990Y-21985D01*
X31052Y-21959D01*
X31018Y-22043D01*
X31017Y-22144D01*
X31056Y-22238D01*
X31128Y-22310D01*
X31139Y-22314D01*
X31139Y-22314D01*
G37*
G54D51*
X31139Y-22314D02*
X31067Y-22314D01*
X31024Y-22332D01*
X30992Y-22364D01*
X30981Y-22391D01*
X30929Y-22391D01*
X30786Y-22391D01*
X30777Y-22392D01*
X30777Y-22377D01*
X30748Y-22377D01*
X30777Y-22348D01*
X30777Y-22313D01*
X30777Y-22267D01*
X30759Y-22225D01*
X30727Y-22193D01*
X30684Y-22175D01*
X30629Y-22175D01*
X30629Y-22065D01*
X30629Y-22020D01*
X30629Y-21924D01*
X30600Y-21895D01*
X30347Y-21895D01*
X30347Y-22129D01*
X30375Y-22157D01*
X30537Y-22157D01*
X30579Y-22140D01*
X30611Y-22108D01*
X30629Y-22065D01*
X30629Y-22175D01*
X30602Y-22175D01*
X30573Y-22204D01*
X30573Y-22377D01*
X30581Y-22377D01*
X30581Y-22417D01*
X30573Y-22417D01*
X30573Y-22425D01*
X30533Y-22425D01*
X30533Y-22417D01*
X30525Y-22417D01*
X30525Y-22377D01*
X30533Y-22377D01*
X30533Y-22204D01*
X30504Y-22175D01*
X30422Y-22175D01*
X30396Y-22186D01*
X30369Y-22175D01*
X30324Y-22175D01*
X30222Y-22175D01*
X30204Y-22157D01*
X30278Y-22157D01*
X30307Y-22129D01*
X30307Y-21895D01*
X30299Y-21895D01*
X30299Y-21855D01*
X30307Y-21855D01*
X30307Y-21847D01*
X30347Y-21847D01*
X30347Y-21855D01*
X30600Y-21855D01*
X30629Y-21826D01*
X30629Y-21731D01*
X30629Y-21685D01*
X30614Y-21649D01*
X30629Y-21613D01*
X30629Y-21567D01*
X30629Y-21232D01*
X30611Y-21190D01*
X30579Y-21158D01*
X30537Y-21140D01*
X30491Y-21140D01*
X30117Y-21140D01*
X30075Y-21158D01*
X30042Y-21190D01*
X30041Y-21192D01*
X30040Y-21190D01*
X30008Y-21158D01*
X29966Y-21140D01*
X29805Y-21140D01*
X29776Y-21169D01*
X29776Y-21402D01*
X29784Y-21402D01*
X29784Y-21442D01*
X29776Y-21442D01*
X29776Y-21450D01*
X29736Y-21450D01*
X29736Y-21442D01*
X29736Y-21402D01*
X29736Y-21169D01*
X29707Y-21140D01*
X29546Y-21140D01*
X29505Y-21157D01*
X29516Y-21132D01*
X29516Y-21086D01*
X29516Y-21059D01*
X29516Y-20962D01*
X29516Y-20935D01*
X29516Y-20889D01*
X29498Y-20847D01*
X29466Y-20815D01*
X29423Y-20797D01*
X29331Y-20797D01*
X29303Y-20826D01*
X29303Y-20991D01*
X29487Y-20991D01*
X29516Y-20962D01*
X29516Y-21059D01*
X29487Y-21031D01*
X29303Y-21031D01*
X29303Y-21195D01*
X29331Y-21224D01*
X29423Y-21224D01*
X29464Y-21207D01*
X29454Y-21232D01*
X29454Y-21278D01*
X29454Y-21374D01*
X29483Y-21402D01*
X29736Y-21402D01*
X29736Y-21442D01*
X29483Y-21442D01*
X29454Y-21471D01*
X29454Y-21567D01*
X29454Y-21613D01*
X29469Y-21649D01*
X29454Y-21685D01*
X29454Y-21730D01*
X29446Y-21730D01*
X29446Y-21705D01*
X29435Y-21679D01*
X29446Y-21652D01*
X29446Y-21570D01*
X29446Y-21472D01*
X29446Y-21390D01*
X29428Y-21347D01*
X29396Y-21315D01*
X29354Y-21298D01*
X29308Y-21298D01*
X29273Y-21298D01*
X29245Y-21326D01*
X29245Y-21501D01*
X29417Y-21501D01*
X29446Y-21472D01*
X29446Y-21570D01*
X29417Y-21541D01*
X29245Y-21541D01*
X29245Y-21549D01*
X29205Y-21549D01*
X29205Y-21541D01*
X29205Y-21501D01*
X29205Y-21326D01*
X29176Y-21298D01*
X29141Y-21298D01*
X29138Y-21298D01*
X29095Y-21298D01*
X29053Y-21315D01*
X29021Y-21347D01*
X29003Y-21390D01*
X29003Y-21472D01*
X29032Y-21501D01*
X29138Y-21501D01*
X29205Y-21501D01*
X29205Y-21541D01*
X29138Y-21541D01*
X29032Y-21541D01*
X29003Y-21570D01*
X29003Y-21652D01*
X29014Y-21679D01*
X29003Y-21705D01*
X29003Y-21750D01*
X29003Y-21967D01*
X29021Y-22010D01*
X29053Y-22042D01*
X29080Y-22053D01*
X29080Y-22131D01*
X29089Y-22177D01*
X29089Y-22177D01*
X29083Y-22193D01*
X29082Y-22294D01*
X29121Y-22388D01*
X29138Y-22404D01*
X29142Y-22409D01*
X29142Y-22436D01*
X29138Y-22431D01*
X29114Y-22407D01*
X29022Y-22407D01*
X29018Y-22409D01*
X29018Y-22352D01*
X28994Y-22352D01*
X28994Y-21557D01*
X28881Y-21557D01*
X28880Y-21555D01*
X28780Y-21455D01*
X28775Y-21451D01*
X28775Y-21280D01*
X29138Y-21280D01*
X29138Y-21222D01*
X29142Y-21224D01*
X29234Y-21224D01*
X29263Y-21195D01*
X29263Y-21031D01*
X29255Y-21031D01*
X29255Y-20991D01*
X29263Y-20991D01*
X29263Y-20826D01*
X29234Y-20797D01*
X29142Y-20797D01*
X29138Y-20799D01*
X29138Y-20742D01*
X28775Y-20742D01*
X28775Y-20716D01*
X28638Y-20716D01*
X28625Y-20716D01*
X28625Y-19794D01*
X28625Y-19712D01*
X28596Y-19683D01*
X28424Y-19683D01*
X28424Y-19858D01*
X28452Y-19887D01*
X28487Y-19887D01*
X28533Y-19887D01*
X28575Y-19869D01*
X28607Y-19837D01*
X28625Y-19794D01*
X28625Y-20716D01*
X28579Y-20716D01*
X28384Y-20520D01*
X28384Y-19858D01*
X28384Y-19683D01*
X28211Y-19683D01*
X28182Y-19712D01*
X28182Y-19794D01*
X28200Y-19837D01*
X28232Y-19869D01*
X28274Y-19887D01*
X28320Y-19887D01*
X28355Y-19887D01*
X28384Y-19858D01*
X28384Y-20520D01*
X28030Y-20166D01*
X28030Y-18880D01*
X28247Y-18880D01*
X28247Y-18822D01*
X28251Y-18824D01*
X28343Y-18824D01*
X28372Y-18795D01*
X28372Y-18631D01*
X28364Y-18631D01*
X28364Y-18591D01*
X28372Y-18591D01*
X28372Y-18426D01*
X28343Y-18397D01*
X28251Y-18397D01*
X28247Y-18399D01*
X28247Y-18252D01*
X30001Y-18252D01*
X29966Y-18287D01*
X29571Y-18287D01*
X29515Y-18298D01*
X29499Y-18308D01*
X29468Y-18329D01*
X29396Y-18401D01*
X29365Y-18448D01*
X29363Y-18457D01*
X29354Y-18504D01*
X29354Y-18839D01*
X29278Y-18764D01*
X29278Y-18720D01*
X29278Y-18523D01*
X29260Y-18481D01*
X29228Y-18449D01*
X29186Y-18431D01*
X29140Y-18431D01*
X28825Y-18431D01*
X28783Y-18449D01*
X28751Y-18481D01*
X28733Y-18523D01*
X28733Y-18569D01*
X28733Y-18766D01*
X28751Y-18808D01*
X28783Y-18840D01*
X28825Y-18858D01*
X28871Y-18858D01*
X28962Y-18858D01*
X29027Y-18923D01*
X28825Y-18923D01*
X28783Y-18941D01*
X28751Y-18973D01*
X28743Y-18992D01*
X28625Y-18992D01*
X28625Y-18732D01*
X28625Y-18686D01*
X28625Y-18659D01*
X28625Y-18562D01*
X28625Y-18535D01*
X28625Y-18489D01*
X28607Y-18447D01*
X28575Y-18415D01*
X28532Y-18397D01*
X28440Y-18397D01*
X28412Y-18426D01*
X28412Y-18591D01*
X28596Y-18591D01*
X28625Y-18562D01*
X28625Y-18659D01*
X28596Y-18631D01*
X28412Y-18631D01*
X28412Y-18795D01*
X28440Y-18824D01*
X28532Y-18824D01*
X28575Y-18806D01*
X28607Y-18774D01*
X28625Y-18732D01*
X28625Y-18992D01*
X28615Y-18992D01*
X28560Y-19003D01*
X28512Y-19034D01*
X28422Y-19125D01*
X28274Y-19125D01*
X28232Y-19142D01*
X28200Y-19174D01*
X28182Y-19217D01*
X28182Y-19262D01*
X28182Y-19479D01*
X28193Y-19506D01*
X28182Y-19532D01*
X28182Y-19614D01*
X28211Y-19643D01*
X28384Y-19643D01*
X28384Y-19635D01*
X28424Y-19635D01*
X28424Y-19643D01*
X28596Y-19643D01*
X28625Y-19614D01*
X28625Y-19532D01*
X28614Y-19505D01*
X28625Y-19479D01*
X28625Y-19434D01*
X28625Y-19332D01*
X28675Y-19282D01*
X28743Y-19282D01*
X28751Y-19300D01*
X28783Y-19332D01*
X28825Y-19350D01*
X28871Y-19350D01*
X29186Y-19350D01*
X29228Y-19332D01*
X29240Y-19321D01*
X29240Y-19444D01*
X29228Y-19433D01*
X29186Y-19415D01*
X29140Y-19415D01*
X29054Y-19415D01*
X29026Y-19444D01*
X29026Y-19609D01*
X29033Y-19609D01*
X29033Y-19649D01*
X29026Y-19649D01*
X29026Y-19813D01*
X29054Y-19842D01*
X29140Y-19842D01*
X29186Y-19842D01*
X29228Y-19824D01*
X29240Y-19813D01*
X29240Y-19936D01*
X29228Y-19925D01*
X29186Y-19907D01*
X29140Y-19907D01*
X28986Y-19907D01*
X28986Y-19813D01*
X28986Y-19649D01*
X28986Y-19609D01*
X28986Y-19444D01*
X28957Y-19415D01*
X28871Y-19415D01*
X28825Y-19415D01*
X28783Y-19433D01*
X28751Y-19465D01*
X28733Y-19507D01*
X28733Y-19580D01*
X28762Y-19609D01*
X28986Y-19609D01*
X28986Y-19649D01*
X28762Y-19649D01*
X28733Y-19677D01*
X28733Y-19750D01*
X28751Y-19792D01*
X28783Y-19824D01*
X28825Y-19842D01*
X28871Y-19842D01*
X28957Y-19842D01*
X28986Y-19813D01*
X28986Y-19907D01*
X28825Y-19907D01*
X28783Y-19925D01*
X28751Y-19957D01*
X28733Y-19999D01*
X28733Y-20045D01*
X28733Y-20242D01*
X28751Y-20284D01*
X28783Y-20316D01*
X28825Y-20334D01*
X28871Y-20334D01*
X29186Y-20334D01*
X29228Y-20316D01*
X29260Y-20284D01*
X29268Y-20266D01*
X29385Y-20266D01*
X29531Y-20266D01*
X29539Y-20284D01*
X29571Y-20316D01*
X29613Y-20334D01*
X29649Y-20334D01*
X29649Y-20535D01*
X29608Y-20551D01*
X29536Y-20623D01*
X29498Y-20717D01*
X29497Y-20818D01*
X29536Y-20912D01*
X29608Y-20984D01*
X29702Y-21022D01*
X29803Y-21023D01*
X29897Y-20984D01*
X29955Y-20925D01*
X29971Y-20964D01*
X30043Y-21036D01*
X30137Y-21074D01*
X30238Y-21075D01*
X30332Y-21036D01*
X30338Y-21029D01*
X30370Y-21068D01*
X30440Y-21106D01*
X30448Y-21107D01*
X30480Y-21084D01*
X30480Y-20802D01*
X30472Y-20802D01*
X30472Y-20762D01*
X30480Y-20762D01*
X30480Y-20754D01*
X30520Y-20754D01*
X30520Y-20762D01*
X30527Y-20762D01*
X30527Y-20802D01*
X30520Y-20802D01*
X30520Y-21084D01*
X30551Y-21107D01*
X30559Y-21106D01*
X30606Y-21081D01*
X30606Y-21119D01*
X30615Y-21165D01*
X30617Y-21174D01*
X30648Y-21221D01*
X30804Y-21377D01*
X30804Y-21510D01*
X30795Y-21513D01*
X30723Y-21585D01*
X30685Y-21679D01*
X30684Y-21780D01*
X30723Y-21874D01*
X30795Y-21946D01*
X30889Y-21984D01*
X30990Y-21985D01*
X31052Y-21959D01*
X31018Y-22043D01*
X31017Y-22144D01*
X31056Y-22238D01*
X31128Y-22310D01*
X31139Y-22314D01*
G54D10*
G36*
X31661Y-24525D02*
X31658Y-24524D01*
X31576Y-24524D01*
X31547Y-24553D01*
X31547Y-24726D01*
X31555Y-24726D01*
X31555Y-24766D01*
X31547Y-24766D01*
X31547Y-24938D01*
X31576Y-24967D01*
X31616Y-24967D01*
X31514Y-25069D01*
X31525Y-25041D01*
X31526Y-24940D01*
X31507Y-24895D01*
X31507Y-24766D01*
X31499Y-24766D01*
X31499Y-24726D01*
X31507Y-24726D01*
X31507Y-24553D01*
X31478Y-24524D01*
X31396Y-24524D01*
X31369Y-24535D01*
X31343Y-24524D01*
X31298Y-24524D01*
X31278Y-24524D01*
X31661Y-24142D01*
X31661Y-24525D01*
X31661Y-24525D01*
G37*
G54D51*
X31661Y-24525D02*
X31658Y-24524D01*
X31576Y-24524D01*
X31547Y-24553D01*
X31547Y-24726D01*
X31555Y-24726D01*
X31555Y-24766D01*
X31547Y-24766D01*
X31547Y-24938D01*
X31576Y-24967D01*
X31616Y-24967D01*
X31514Y-25069D01*
X31525Y-25041D01*
X31526Y-24940D01*
X31507Y-24895D01*
X31507Y-24766D01*
X31499Y-24766D01*
X31499Y-24726D01*
X31507Y-24726D01*
X31507Y-24553D01*
X31478Y-24524D01*
X31396Y-24524D01*
X31369Y-24535D01*
X31343Y-24524D01*
X31298Y-24524D01*
X31278Y-24524D01*
X31661Y-24142D01*
X31661Y-24525D01*
G54D10*
G36*
X31712Y-23018D02*
X31710Y-23020D01*
X31686Y-23043D01*
X31681Y-23043D01*
X31710Y-23015D01*
X31710Y-22980D01*
X31710Y-22934D01*
X31692Y-22892D01*
X31660Y-22860D01*
X31617Y-22842D01*
X31535Y-22842D01*
X31506Y-22871D01*
X31506Y-23044D01*
X31514Y-23044D01*
X31514Y-23084D01*
X31506Y-23084D01*
X31506Y-23091D01*
X31466Y-23091D01*
X31466Y-23084D01*
X31458Y-23084D01*
X31458Y-23044D01*
X31466Y-23044D01*
X31466Y-22871D01*
X31437Y-22842D01*
X31355Y-22842D01*
X31328Y-22853D01*
X31302Y-22842D01*
X31257Y-22842D01*
X31040Y-22842D01*
X30997Y-22860D01*
X30965Y-22892D01*
X30948Y-22934D01*
X30948Y-22980D01*
X30948Y-23193D01*
X30958Y-23218D01*
X30948Y-23243D01*
X30948Y-23289D01*
X30948Y-23419D01*
X30918Y-23347D01*
X30846Y-23275D01*
X30752Y-23237D01*
X30707Y-23237D01*
X30708Y-23169D01*
X30669Y-23075D01*
X30597Y-23003D01*
X30544Y-22982D01*
X30846Y-22681D01*
X30929Y-22681D01*
X30981Y-22681D01*
X30992Y-22707D01*
X31024Y-22739D01*
X31067Y-22757D01*
X31112Y-22757D01*
X31329Y-22757D01*
X31356Y-22746D01*
X31382Y-22757D01*
X31464Y-22757D01*
X31493Y-22728D01*
X31493Y-22556D01*
X31485Y-22556D01*
X31485Y-22516D01*
X31493Y-22516D01*
X31493Y-22508D01*
X31533Y-22508D01*
X31533Y-22516D01*
X31541Y-22516D01*
X31541Y-22556D01*
X31533Y-22556D01*
X31533Y-22728D01*
X31562Y-22757D01*
X31644Y-22757D01*
X31687Y-22739D01*
X31712Y-22715D01*
X31712Y-23018D01*
X31712Y-23018D01*
G37*
G54D51*
X31712Y-23018D02*
X31710Y-23020D01*
X31686Y-23043D01*
X31681Y-23043D01*
X31710Y-23015D01*
X31710Y-22980D01*
X31710Y-22934D01*
X31692Y-22892D01*
X31660Y-22860D01*
X31617Y-22842D01*
X31535Y-22842D01*
X31506Y-22871D01*
X31506Y-23044D01*
X31514Y-23044D01*
X31514Y-23084D01*
X31506Y-23084D01*
X31506Y-23091D01*
X31466Y-23091D01*
X31466Y-23084D01*
X31458Y-23084D01*
X31458Y-23044D01*
X31466Y-23044D01*
X31466Y-22871D01*
X31437Y-22842D01*
X31355Y-22842D01*
X31328Y-22853D01*
X31302Y-22842D01*
X31257Y-22842D01*
X31040Y-22842D01*
X30997Y-22860D01*
X30965Y-22892D01*
X30948Y-22934D01*
X30948Y-22980D01*
X30948Y-23193D01*
X30958Y-23218D01*
X30948Y-23243D01*
X30948Y-23289D01*
X30948Y-23419D01*
X30918Y-23347D01*
X30846Y-23275D01*
X30752Y-23237D01*
X30707Y-23237D01*
X30708Y-23169D01*
X30669Y-23075D01*
X30597Y-23003D01*
X30544Y-22982D01*
X30846Y-22681D01*
X30929Y-22681D01*
X30981Y-22681D01*
X30992Y-22707D01*
X31024Y-22739D01*
X31067Y-22757D01*
X31112Y-22757D01*
X31329Y-22757D01*
X31356Y-22746D01*
X31382Y-22757D01*
X31464Y-22757D01*
X31493Y-22728D01*
X31493Y-22556D01*
X31485Y-22556D01*
X31485Y-22516D01*
X31493Y-22516D01*
X31493Y-22508D01*
X31533Y-22508D01*
X31533Y-22516D01*
X31541Y-22516D01*
X31541Y-22556D01*
X31533Y-22556D01*
X31533Y-22728D01*
X31562Y-22757D01*
X31644Y-22757D01*
X31687Y-22739D01*
X31712Y-22715D01*
X31712Y-23018D01*
G54D10*
G36*
X32015Y-20447D02*
X32000Y-20444D01*
X31922Y-20459D01*
X31856Y-20503D01*
X31811Y-20570D01*
X31798Y-20637D01*
X31701Y-20637D01*
X31688Y-20570D01*
X31643Y-20503D01*
X31577Y-20459D01*
X31500Y-20444D01*
X31422Y-20459D01*
X31356Y-20503D01*
X31311Y-20570D01*
X31298Y-20637D01*
X31201Y-20637D01*
X31188Y-20570D01*
X31143Y-20503D01*
X31077Y-20459D01*
X31000Y-20444D01*
X30922Y-20459D01*
X30887Y-20482D01*
X30884Y-20468D01*
X30884Y-20468D01*
X30853Y-20421D01*
X30699Y-20267D01*
X31201Y-20267D01*
X31230Y-20238D01*
X31230Y-19700D01*
X31222Y-19700D01*
X31222Y-19660D01*
X31230Y-19660D01*
X31230Y-19121D01*
X31201Y-19092D01*
X30902Y-19092D01*
X30902Y-19092D01*
X31102Y-18892D01*
X31102Y-18892D01*
X31113Y-18876D01*
X31143Y-18856D01*
X31188Y-18789D01*
X31203Y-18712D01*
X31203Y-18443D01*
X31188Y-18365D01*
X31143Y-18299D01*
X31077Y-18255D01*
X31062Y-18252D01*
X31479Y-18252D01*
X31479Y-18275D01*
X31448Y-18252D01*
X31440Y-18253D01*
X31370Y-18291D01*
X31319Y-18353D01*
X31296Y-18429D01*
X31296Y-18557D01*
X31480Y-18557D01*
X31480Y-18549D01*
X31520Y-18549D01*
X31520Y-18557D01*
X31703Y-18557D01*
X31703Y-18429D01*
X31680Y-18353D01*
X31629Y-18291D01*
X31559Y-18253D01*
X31551Y-18252D01*
X31520Y-18275D01*
X31520Y-18252D01*
X31937Y-18252D01*
X31922Y-18255D01*
X31856Y-18299D01*
X31811Y-18365D01*
X31796Y-18443D01*
X31796Y-18712D01*
X31811Y-18789D01*
X31856Y-18856D01*
X31922Y-18900D01*
X31934Y-18902D01*
X32015Y-18983D01*
X32015Y-19092D01*
X31703Y-19092D01*
X31703Y-18725D01*
X31703Y-18597D01*
X31520Y-18597D01*
X31520Y-18879D01*
X31551Y-18902D01*
X31559Y-18901D01*
X31629Y-18863D01*
X31680Y-18801D01*
X31703Y-18725D01*
X31703Y-19092D01*
X31480Y-19092D01*
X31480Y-18879D01*
X31480Y-18597D01*
X31296Y-18597D01*
X31296Y-18725D01*
X31319Y-18801D01*
X31370Y-18863D01*
X31440Y-18901D01*
X31448Y-18902D01*
X31480Y-18879D01*
X31480Y-19092D01*
X31298Y-19092D01*
X31270Y-19121D01*
X31270Y-19660D01*
X31277Y-19660D01*
X31277Y-19700D01*
X31270Y-19700D01*
X31270Y-20238D01*
X31298Y-20267D01*
X32015Y-20267D01*
X32015Y-20447D01*
X32015Y-20447D01*
G37*
G54D51*
X32015Y-20447D02*
X32000Y-20444D01*
X31922Y-20459D01*
X31856Y-20503D01*
X31811Y-20570D01*
X31798Y-20637D01*
X31701Y-20637D01*
X31688Y-20570D01*
X31643Y-20503D01*
X31577Y-20459D01*
X31500Y-20444D01*
X31422Y-20459D01*
X31356Y-20503D01*
X31311Y-20570D01*
X31298Y-20637D01*
X31201Y-20637D01*
X31188Y-20570D01*
X31143Y-20503D01*
X31077Y-20459D01*
X31000Y-20444D01*
X30922Y-20459D01*
X30887Y-20482D01*
X30884Y-20468D01*
X30884Y-20468D01*
X30853Y-20421D01*
X30699Y-20267D01*
X31201Y-20267D01*
X31230Y-20238D01*
X31230Y-19700D01*
X31222Y-19700D01*
X31222Y-19660D01*
X31230Y-19660D01*
X31230Y-19121D01*
X31201Y-19092D01*
X30902Y-19092D01*
X30902Y-19092D01*
X31102Y-18892D01*
X31102Y-18892D01*
X31113Y-18876D01*
X31143Y-18856D01*
X31188Y-18789D01*
X31203Y-18712D01*
X31203Y-18443D01*
X31188Y-18365D01*
X31143Y-18299D01*
X31077Y-18255D01*
X31062Y-18252D01*
X31479Y-18252D01*
X31479Y-18275D01*
X31448Y-18252D01*
X31440Y-18253D01*
X31370Y-18291D01*
X31319Y-18353D01*
X31296Y-18429D01*
X31296Y-18557D01*
X31480Y-18557D01*
X31480Y-18549D01*
X31520Y-18549D01*
X31520Y-18557D01*
X31703Y-18557D01*
X31703Y-18429D01*
X31680Y-18353D01*
X31629Y-18291D01*
X31559Y-18253D01*
X31551Y-18252D01*
X31520Y-18275D01*
X31520Y-18252D01*
X31937Y-18252D01*
X31922Y-18255D01*
X31856Y-18299D01*
X31811Y-18365D01*
X31796Y-18443D01*
X31796Y-18712D01*
X31811Y-18789D01*
X31856Y-18856D01*
X31922Y-18900D01*
X31934Y-18902D01*
X32015Y-18983D01*
X32015Y-19092D01*
X31703Y-19092D01*
X31703Y-18725D01*
X31703Y-18597D01*
X31520Y-18597D01*
X31520Y-18879D01*
X31551Y-18902D01*
X31559Y-18901D01*
X31629Y-18863D01*
X31680Y-18801D01*
X31703Y-18725D01*
X31703Y-19092D01*
X31480Y-19092D01*
X31480Y-18879D01*
X31480Y-18597D01*
X31296Y-18597D01*
X31296Y-18725D01*
X31319Y-18801D01*
X31370Y-18863D01*
X31440Y-18901D01*
X31448Y-18902D01*
X31480Y-18879D01*
X31480Y-19092D01*
X31298Y-19092D01*
X31270Y-19121D01*
X31270Y-19660D01*
X31277Y-19660D01*
X31277Y-19700D01*
X31270Y-19700D01*
X31270Y-20238D01*
X31298Y-20267D01*
X32015Y-20267D01*
X32015Y-20447D01*
G54D10*
G36*
X32408Y-26402D02*
X32378Y-26431D01*
X32361Y-26474D01*
X32361Y-26507D01*
X31857Y-26507D01*
X31801Y-26518D01*
X31754Y-26549D01*
X31724Y-26579D01*
X31724Y-26561D01*
X31724Y-26526D01*
X31724Y-26429D01*
X31724Y-26394D01*
X31724Y-26348D01*
X31706Y-26306D01*
X31674Y-26274D01*
X31631Y-26256D01*
X31549Y-26256D01*
X31520Y-26285D01*
X31520Y-26458D01*
X31695Y-26458D01*
X31724Y-26429D01*
X31724Y-26526D01*
X31695Y-26498D01*
X31520Y-26498D01*
X31520Y-26670D01*
X31549Y-26699D01*
X31604Y-26699D01*
X31592Y-26711D01*
X31185Y-26711D01*
X31197Y-26703D01*
X31201Y-26699D01*
X31316Y-26699D01*
X31343Y-26688D01*
X31369Y-26699D01*
X31451Y-26699D01*
X31480Y-26670D01*
X31480Y-26498D01*
X31472Y-26498D01*
X31472Y-26458D01*
X31480Y-26458D01*
X31480Y-26285D01*
X31451Y-26256D01*
X31369Y-26256D01*
X31342Y-26267D01*
X31316Y-26256D01*
X31271Y-26256D01*
X31054Y-26256D01*
X31053Y-26256D01*
X31055Y-26254D01*
X31055Y-26254D01*
X31055Y-26254D01*
X31192Y-26118D01*
X32342Y-26118D01*
X32361Y-26136D01*
X32361Y-26329D01*
X32378Y-26372D01*
X32408Y-26402D01*
X32408Y-26402D01*
G37*
G54D51*
X32408Y-26402D02*
X32378Y-26431D01*
X32361Y-26474D01*
X32361Y-26507D01*
X31857Y-26507D01*
X31801Y-26518D01*
X31754Y-26549D01*
X31724Y-26579D01*
X31724Y-26561D01*
X31724Y-26526D01*
X31724Y-26429D01*
X31724Y-26394D01*
X31724Y-26348D01*
X31706Y-26306D01*
X31674Y-26274D01*
X31631Y-26256D01*
X31549Y-26256D01*
X31520Y-26285D01*
X31520Y-26458D01*
X31695Y-26458D01*
X31724Y-26429D01*
X31724Y-26526D01*
X31695Y-26498D01*
X31520Y-26498D01*
X31520Y-26670D01*
X31549Y-26699D01*
X31604Y-26699D01*
X31592Y-26711D01*
X31185Y-26711D01*
X31197Y-26703D01*
X31201Y-26699D01*
X31316Y-26699D01*
X31343Y-26688D01*
X31369Y-26699D01*
X31451Y-26699D01*
X31480Y-26670D01*
X31480Y-26498D01*
X31472Y-26498D01*
X31472Y-26458D01*
X31480Y-26458D01*
X31480Y-26285D01*
X31451Y-26256D01*
X31369Y-26256D01*
X31342Y-26267D01*
X31316Y-26256D01*
X31271Y-26256D01*
X31054Y-26256D01*
X31053Y-26256D01*
X31055Y-26254D01*
X31055Y-26254D01*
X31055Y-26254D01*
X31192Y-26118D01*
X32342Y-26118D01*
X32361Y-26136D01*
X32361Y-26329D01*
X32378Y-26372D01*
X32408Y-26402D01*
G54D10*
G36*
X32510Y-19882D02*
X32453Y-19882D01*
X32410Y-19899D01*
X32378Y-19931D01*
X32361Y-19974D01*
X32361Y-20019D01*
X32361Y-20329D01*
X32378Y-20372D01*
X32408Y-20402D01*
X32378Y-20431D01*
X32361Y-20474D01*
X32361Y-20519D01*
X32361Y-20829D01*
X32378Y-20872D01*
X32408Y-20902D01*
X32378Y-20931D01*
X32361Y-20974D01*
X32361Y-21007D01*
X32237Y-21007D01*
X32190Y-21016D01*
X32181Y-21018D01*
X32165Y-21028D01*
X32188Y-20994D01*
X32203Y-20916D01*
X32203Y-20783D01*
X32262Y-20724D01*
X32262Y-20724D01*
X32283Y-20693D01*
X32293Y-20677D01*
X32293Y-20677D01*
X32304Y-20622D01*
X32305Y-20622D01*
X32305Y-18923D01*
X32293Y-18867D01*
X32293Y-18867D01*
X32283Y-18851D01*
X32262Y-18820D01*
X32262Y-18820D01*
X32195Y-18753D01*
X32203Y-18712D01*
X32203Y-18443D01*
X32188Y-18365D01*
X32143Y-18299D01*
X32077Y-18255D01*
X32062Y-18252D01*
X32510Y-18252D01*
X32510Y-19882D01*
X32510Y-19882D01*
G37*
G54D51*
X32510Y-19882D02*
X32453Y-19882D01*
X32410Y-19899D01*
X32378Y-19931D01*
X32361Y-19974D01*
X32361Y-20019D01*
X32361Y-20329D01*
X32378Y-20372D01*
X32408Y-20402D01*
X32378Y-20431D01*
X32361Y-20474D01*
X32361Y-20519D01*
X32361Y-20829D01*
X32378Y-20872D01*
X32408Y-20902D01*
X32378Y-20931D01*
X32361Y-20974D01*
X32361Y-21007D01*
X32237Y-21007D01*
X32190Y-21016D01*
X32181Y-21018D01*
X32165Y-21028D01*
X32188Y-20994D01*
X32203Y-20916D01*
X32203Y-20783D01*
X32262Y-20724D01*
X32262Y-20724D01*
X32283Y-20693D01*
X32293Y-20677D01*
X32293Y-20677D01*
X32304Y-20622D01*
X32305Y-20622D01*
X32305Y-18923D01*
X32293Y-18867D01*
X32293Y-18867D01*
X32283Y-18851D01*
X32262Y-18820D01*
X32262Y-18820D01*
X32195Y-18753D01*
X32203Y-18712D01*
X32203Y-18443D01*
X32188Y-18365D01*
X32143Y-18299D01*
X32077Y-18255D01*
X32062Y-18252D01*
X32510Y-18252D01*
X32510Y-19882D01*
G54D10*
G36*
X32510Y-28172D02*
X32389Y-28172D01*
X32361Y-28200D01*
X32361Y-28329D01*
X32378Y-28372D01*
X32408Y-28402D01*
X32378Y-28431D01*
X32361Y-28474D01*
X32361Y-28519D01*
X32361Y-28725D01*
X31820Y-28725D01*
X31848Y-28696D01*
X31866Y-28653D01*
X31866Y-28571D01*
X31837Y-28542D01*
X31665Y-28542D01*
X31665Y-28550D01*
X31625Y-28550D01*
X31625Y-28542D01*
X31452Y-28542D01*
X31423Y-28571D01*
X31423Y-28653D01*
X31441Y-28696D01*
X31469Y-28725D01*
X31085Y-28725D01*
X31113Y-28696D01*
X31131Y-28653D01*
X31131Y-28571D01*
X31102Y-28542D01*
X30930Y-28542D01*
X30930Y-28550D01*
X30890Y-28550D01*
X30890Y-28542D01*
X30717Y-28542D01*
X30688Y-28571D01*
X30688Y-28653D01*
X30706Y-28696D01*
X30734Y-28725D01*
X30355Y-28725D01*
X30383Y-28696D01*
X30401Y-28653D01*
X30401Y-28571D01*
X30372Y-28542D01*
X30200Y-28542D01*
X30200Y-28550D01*
X30160Y-28550D01*
X30160Y-28542D01*
X29987Y-28542D01*
X29958Y-28571D01*
X29958Y-28653D01*
X29976Y-28696D01*
X30004Y-28725D01*
X29730Y-28725D01*
X29138Y-28725D01*
X28511Y-28725D01*
X28511Y-28643D01*
X28493Y-28601D01*
X28461Y-28569D01*
X28418Y-28551D01*
X28373Y-28551D01*
X28156Y-28551D01*
X28129Y-28562D01*
X28103Y-28551D01*
X28058Y-28551D01*
X27841Y-28551D01*
X27798Y-28569D01*
X27766Y-28601D01*
X27749Y-28643D01*
X27749Y-28689D01*
X27749Y-28727D01*
X26949Y-28727D01*
X26906Y-28684D01*
X26907Y-28584D01*
X26875Y-28509D01*
X29138Y-28509D01*
X29332Y-28509D01*
X29332Y-28508D01*
X29378Y-28499D01*
X29387Y-28497D01*
X29387Y-28497D01*
X29434Y-28466D01*
X29638Y-28262D01*
X29638Y-28338D01*
X29656Y-28381D01*
X29688Y-28413D01*
X29730Y-28431D01*
X29776Y-28431D01*
X29958Y-28431D01*
X29958Y-28473D01*
X29987Y-28502D01*
X30160Y-28502D01*
X30160Y-28494D01*
X30200Y-28494D01*
X30200Y-28502D01*
X30372Y-28502D01*
X30401Y-28473D01*
X30401Y-28396D01*
X30418Y-28413D01*
X30460Y-28431D01*
X30506Y-28431D01*
X30688Y-28431D01*
X30688Y-28473D01*
X30717Y-28502D01*
X30890Y-28502D01*
X30890Y-28494D01*
X30930Y-28494D01*
X30930Y-28502D01*
X31102Y-28502D01*
X31131Y-28473D01*
X31131Y-28391D01*
X31153Y-28413D01*
X31195Y-28431D01*
X31241Y-28431D01*
X31423Y-28431D01*
X31423Y-28473D01*
X31452Y-28502D01*
X31625Y-28502D01*
X31625Y-28494D01*
X31665Y-28494D01*
X31665Y-28502D01*
X31837Y-28502D01*
X31866Y-28473D01*
X31866Y-28391D01*
X31855Y-28364D01*
X31866Y-28338D01*
X31866Y-28293D01*
X31866Y-28076D01*
X31848Y-28033D01*
X31816Y-28001D01*
X31774Y-27984D01*
X31728Y-27984D01*
X31546Y-27984D01*
X31546Y-27978D01*
X31546Y-27761D01*
X31528Y-27718D01*
X31521Y-27711D01*
X31569Y-27691D01*
X31641Y-27619D01*
X31662Y-27569D01*
X31678Y-27609D01*
X31750Y-27681D01*
X31844Y-27719D01*
X31945Y-27720D01*
X32039Y-27681D01*
X32111Y-27609D01*
X32149Y-27515D01*
X32149Y-27483D01*
X32361Y-27694D01*
X32361Y-27829D01*
X32378Y-27872D01*
X32408Y-27902D01*
X32378Y-27931D01*
X32361Y-27974D01*
X32361Y-28103D01*
X32389Y-28132D01*
X32510Y-28132D01*
X32510Y-28172D01*
X32510Y-28172D01*
G37*
G54D51*
X32510Y-28172D02*
X32389Y-28172D01*
X32361Y-28200D01*
X32361Y-28329D01*
X32378Y-28372D01*
X32408Y-28402D01*
X32378Y-28431D01*
X32361Y-28474D01*
X32361Y-28519D01*
X32361Y-28725D01*
X31820Y-28725D01*
X31848Y-28696D01*
X31866Y-28653D01*
X31866Y-28571D01*
X31837Y-28542D01*
X31665Y-28542D01*
X31665Y-28550D01*
X31625Y-28550D01*
X31625Y-28542D01*
X31452Y-28542D01*
X31423Y-28571D01*
X31423Y-28653D01*
X31441Y-28696D01*
X31469Y-28725D01*
X31085Y-28725D01*
X31113Y-28696D01*
X31131Y-28653D01*
X31131Y-28571D01*
X31102Y-28542D01*
X30930Y-28542D01*
X30930Y-28550D01*
X30890Y-28550D01*
X30890Y-28542D01*
X30717Y-28542D01*
X30688Y-28571D01*
X30688Y-28653D01*
X30706Y-28696D01*
X30734Y-28725D01*
X30355Y-28725D01*
X30383Y-28696D01*
X30401Y-28653D01*
X30401Y-28571D01*
X30372Y-28542D01*
X30200Y-28542D01*
X30200Y-28550D01*
X30160Y-28550D01*
X30160Y-28542D01*
X29987Y-28542D01*
X29958Y-28571D01*
X29958Y-28653D01*
X29976Y-28696D01*
X30004Y-28725D01*
X29730Y-28725D01*
X29138Y-28725D01*
X28511Y-28725D01*
X28511Y-28643D01*
X28493Y-28601D01*
X28461Y-28569D01*
X28418Y-28551D01*
X28373Y-28551D01*
X28156Y-28551D01*
X28129Y-28562D01*
X28103Y-28551D01*
X28058Y-28551D01*
X27841Y-28551D01*
X27798Y-28569D01*
X27766Y-28601D01*
X27749Y-28643D01*
X27749Y-28689D01*
X27749Y-28727D01*
X26949Y-28727D01*
X26906Y-28684D01*
X26907Y-28584D01*
X26875Y-28509D01*
X29138Y-28509D01*
X29332Y-28509D01*
X29332Y-28508D01*
X29378Y-28499D01*
X29387Y-28497D01*
X29387Y-28497D01*
X29434Y-28466D01*
X29638Y-28262D01*
X29638Y-28338D01*
X29656Y-28381D01*
X29688Y-28413D01*
X29730Y-28431D01*
X29776Y-28431D01*
X29958Y-28431D01*
X29958Y-28473D01*
X29987Y-28502D01*
X30160Y-28502D01*
X30160Y-28494D01*
X30200Y-28494D01*
X30200Y-28502D01*
X30372Y-28502D01*
X30401Y-28473D01*
X30401Y-28396D01*
X30418Y-28413D01*
X30460Y-28431D01*
X30506Y-28431D01*
X30688Y-28431D01*
X30688Y-28473D01*
X30717Y-28502D01*
X30890Y-28502D01*
X30890Y-28494D01*
X30930Y-28494D01*
X30930Y-28502D01*
X31102Y-28502D01*
X31131Y-28473D01*
X31131Y-28391D01*
X31153Y-28413D01*
X31195Y-28431D01*
X31241Y-28431D01*
X31423Y-28431D01*
X31423Y-28473D01*
X31452Y-28502D01*
X31625Y-28502D01*
X31625Y-28494D01*
X31665Y-28494D01*
X31665Y-28502D01*
X31837Y-28502D01*
X31866Y-28473D01*
X31866Y-28391D01*
X31855Y-28364D01*
X31866Y-28338D01*
X31866Y-28293D01*
X31866Y-28076D01*
X31848Y-28033D01*
X31816Y-28001D01*
X31774Y-27984D01*
X31728Y-27984D01*
X31546Y-27984D01*
X31546Y-27978D01*
X31546Y-27761D01*
X31528Y-27718D01*
X31521Y-27711D01*
X31569Y-27691D01*
X31641Y-27619D01*
X31662Y-27569D01*
X31678Y-27609D01*
X31750Y-27681D01*
X31844Y-27719D01*
X31945Y-27720D01*
X32039Y-27681D01*
X32111Y-27609D01*
X32149Y-27515D01*
X32149Y-27483D01*
X32361Y-27694D01*
X32361Y-27829D01*
X32378Y-27872D01*
X32408Y-27902D01*
X32378Y-27931D01*
X32361Y-27974D01*
X32361Y-28103D01*
X32389Y-28132D01*
X32510Y-28132D01*
X32510Y-28172D01*
G54D10*
G36*
X32510Y-38942D02*
X32489Y-38894D01*
X32429Y-38862D01*
X32168Y-39124D01*
X32173Y-39129D01*
X32145Y-39157D01*
X32140Y-39152D01*
X32111Y-39180D01*
X32111Y-39124D01*
X31850Y-38862D01*
X31790Y-38894D01*
X31728Y-39045D01*
X31730Y-39209D01*
X31790Y-39353D01*
X31850Y-39385D01*
X32111Y-39124D01*
X32111Y-39180D01*
X31878Y-39413D01*
X31910Y-39473D01*
X32018Y-39517D01*
X31940Y-39570D01*
X31940Y-39570D01*
X31920Y-39590D01*
X31900Y-39610D01*
X31900Y-39610D01*
X31770Y-39804D01*
X31770Y-39804D01*
X31748Y-39857D01*
X31702Y-40086D01*
X31702Y-40100D01*
X31700Y-40115D01*
X31700Y-40200D01*
X31638Y-40200D01*
X31688Y-40125D01*
X31719Y-39968D01*
X31719Y-39350D01*
X31688Y-39193D01*
X31599Y-39060D01*
X31466Y-38971D01*
X31309Y-38940D01*
X31152Y-38971D01*
X31019Y-39060D01*
X30930Y-39193D01*
X30898Y-39350D01*
X30898Y-39609D01*
X30780Y-39491D01*
X30624Y-39426D01*
X30514Y-39426D01*
X30514Y-39051D01*
X30324Y-38861D01*
X30135Y-39051D01*
X30154Y-39101D01*
X30270Y-39146D01*
X30394Y-39143D01*
X30495Y-39101D01*
X30514Y-39051D01*
X30514Y-39426D01*
X30456Y-39426D01*
X30300Y-39490D01*
X30202Y-39587D01*
X30150Y-39460D01*
X30051Y-39362D01*
X29922Y-39308D01*
X29782Y-39308D01*
X29653Y-39361D01*
X29554Y-39460D01*
X29501Y-39589D01*
X29501Y-39729D01*
X29554Y-39858D01*
X29653Y-39957D01*
X29782Y-40010D01*
X29922Y-40010D01*
X30051Y-39957D01*
X30116Y-39892D01*
X30116Y-39933D01*
X30180Y-40089D01*
X30290Y-40200D01*
X29480Y-40200D01*
X29480Y-39947D01*
X29480Y-39902D01*
X29480Y-39748D01*
X29480Y-39651D01*
X29480Y-39497D01*
X29480Y-39452D01*
X29462Y-39409D01*
X29430Y-39377D01*
X29387Y-39360D01*
X29288Y-39360D01*
X29260Y-39388D01*
X29260Y-39680D01*
X29451Y-39680D01*
X29480Y-39651D01*
X29480Y-39748D01*
X29451Y-39720D01*
X29260Y-39720D01*
X29260Y-40011D01*
X29288Y-40040D01*
X29387Y-40040D01*
X29430Y-40022D01*
X29462Y-39990D01*
X29480Y-39947D01*
X29480Y-40200D01*
X29220Y-40200D01*
X29220Y-40011D01*
X29220Y-39720D01*
X29220Y-39680D01*
X29220Y-39388D01*
X29191Y-39360D01*
X29138Y-39360D01*
X29092Y-39360D01*
X29049Y-39377D01*
X29017Y-39409D01*
X29000Y-39452D01*
X29000Y-39497D01*
X29000Y-39651D01*
X29028Y-39680D01*
X29138Y-39680D01*
X29220Y-39680D01*
X29220Y-39720D01*
X29138Y-39720D01*
X29028Y-39720D01*
X29000Y-39748D01*
X29000Y-39902D01*
X29000Y-39947D01*
X29017Y-39990D01*
X29049Y-40022D01*
X29092Y-40040D01*
X29138Y-40040D01*
X29191Y-40040D01*
X29220Y-40011D01*
X29220Y-40200D01*
X29138Y-40200D01*
X27599Y-40200D01*
X27708Y-40090D01*
X27773Y-39934D01*
X27773Y-39888D01*
X27842Y-39957D01*
X27971Y-40010D01*
X28111Y-40010D01*
X28240Y-39957D01*
X28339Y-39858D01*
X28392Y-39729D01*
X28392Y-39590D01*
X28372Y-39541D01*
X28400Y-39569D01*
X28400Y-39947D01*
X28417Y-39990D01*
X28449Y-40022D01*
X28492Y-40040D01*
X28537Y-40040D01*
X28787Y-40040D01*
X28830Y-40022D01*
X28862Y-39990D01*
X28880Y-39947D01*
X28880Y-39902D01*
X28880Y-39452D01*
X28862Y-39409D01*
X28830Y-39377D01*
X28787Y-39360D01*
X28742Y-39360D01*
X28601Y-39360D01*
X28446Y-39205D01*
X28399Y-39174D01*
X28390Y-39172D01*
X28382Y-39170D01*
X28382Y-39099D01*
X28490Y-39144D01*
X28615Y-39144D01*
X28725Y-39099D01*
X28725Y-39174D01*
X28743Y-39217D01*
X28775Y-39249D01*
X28817Y-39267D01*
X28863Y-39267D01*
X28898Y-39267D01*
X28927Y-39238D01*
X28927Y-39063D01*
X28919Y-39063D01*
X28919Y-39023D01*
X28927Y-39023D01*
X28927Y-39015D01*
X28967Y-39015D01*
X28967Y-39023D01*
X28974Y-39023D01*
X28974Y-39063D01*
X28967Y-39063D01*
X28967Y-39238D01*
X28995Y-39267D01*
X29030Y-39267D01*
X29076Y-39267D01*
X29118Y-39249D01*
X29138Y-39230D01*
X29150Y-39217D01*
X29168Y-39174D01*
X29168Y-39099D01*
X29278Y-39144D01*
X29402Y-39144D01*
X29517Y-39097D01*
X29604Y-39009D01*
X29652Y-38895D01*
X29652Y-38771D01*
X29605Y-38656D01*
X29517Y-38568D01*
X29489Y-38557D01*
X29490Y-38556D01*
X29490Y-38510D01*
X29490Y-38396D01*
X29551Y-38488D01*
X29591Y-38528D01*
X29591Y-38528D01*
X29591Y-38528D01*
X29709Y-38607D01*
X29762Y-38629D01*
X29762Y-38629D01*
X29901Y-38657D01*
X29915Y-38657D01*
X29930Y-38660D01*
X30062Y-38660D01*
X30056Y-38662D01*
X30011Y-38778D01*
X30014Y-38902D01*
X30056Y-39003D01*
X30106Y-39022D01*
X30296Y-38832D01*
X30291Y-38827D01*
X30319Y-38799D01*
X30324Y-38804D01*
X30330Y-38799D01*
X30358Y-38827D01*
X30353Y-38832D01*
X30543Y-39022D01*
X30593Y-39003D01*
X30638Y-38887D01*
X30635Y-38763D01*
X30593Y-38662D01*
X30586Y-38660D01*
X31577Y-38660D01*
X31620Y-38703D01*
X31832Y-38790D01*
X31901Y-38790D01*
X31878Y-38834D01*
X32140Y-39095D01*
X32401Y-38834D01*
X32369Y-38774D01*
X32234Y-38719D01*
X32272Y-38703D01*
X32316Y-38660D01*
X32510Y-38660D01*
X32510Y-38942D01*
X32510Y-38942D01*
G37*
G54D51*
X32510Y-38942D02*
X32489Y-38894D01*
X32429Y-38862D01*
X32168Y-39124D01*
X32173Y-39129D01*
X32145Y-39157D01*
X32140Y-39152D01*
X32111Y-39180D01*
X32111Y-39124D01*
X31850Y-38862D01*
X31790Y-38894D01*
X31728Y-39045D01*
X31730Y-39209D01*
X31790Y-39353D01*
X31850Y-39385D01*
X32111Y-39124D01*
X32111Y-39180D01*
X31878Y-39413D01*
X31910Y-39473D01*
X32018Y-39517D01*
X31940Y-39570D01*
X31940Y-39570D01*
X31920Y-39590D01*
X31900Y-39610D01*
X31900Y-39610D01*
X31770Y-39804D01*
X31770Y-39804D01*
X31748Y-39857D01*
X31702Y-40086D01*
X31702Y-40100D01*
X31700Y-40115D01*
X31700Y-40200D01*
X31638Y-40200D01*
X31688Y-40125D01*
X31719Y-39968D01*
X31719Y-39350D01*
X31688Y-39193D01*
X31599Y-39060D01*
X31466Y-38971D01*
X31309Y-38940D01*
X31152Y-38971D01*
X31019Y-39060D01*
X30930Y-39193D01*
X30898Y-39350D01*
X30898Y-39609D01*
X30780Y-39491D01*
X30624Y-39426D01*
X30514Y-39426D01*
X30514Y-39051D01*
X30324Y-38861D01*
X30135Y-39051D01*
X30154Y-39101D01*
X30270Y-39146D01*
X30394Y-39143D01*
X30495Y-39101D01*
X30514Y-39051D01*
X30514Y-39426D01*
X30456Y-39426D01*
X30300Y-39490D01*
X30202Y-39587D01*
X30150Y-39460D01*
X30051Y-39362D01*
X29922Y-39308D01*
X29782Y-39308D01*
X29653Y-39361D01*
X29554Y-39460D01*
X29501Y-39589D01*
X29501Y-39729D01*
X29554Y-39858D01*
X29653Y-39957D01*
X29782Y-40010D01*
X29922Y-40010D01*
X30051Y-39957D01*
X30116Y-39892D01*
X30116Y-39933D01*
X30180Y-40089D01*
X30290Y-40200D01*
X29480Y-40200D01*
X29480Y-39947D01*
X29480Y-39902D01*
X29480Y-39748D01*
X29480Y-39651D01*
X29480Y-39497D01*
X29480Y-39452D01*
X29462Y-39409D01*
X29430Y-39377D01*
X29387Y-39360D01*
X29288Y-39360D01*
X29260Y-39388D01*
X29260Y-39680D01*
X29451Y-39680D01*
X29480Y-39651D01*
X29480Y-39748D01*
X29451Y-39720D01*
X29260Y-39720D01*
X29260Y-40011D01*
X29288Y-40040D01*
X29387Y-40040D01*
X29430Y-40022D01*
X29462Y-39990D01*
X29480Y-39947D01*
X29480Y-40200D01*
X29220Y-40200D01*
X29220Y-40011D01*
X29220Y-39720D01*
X29220Y-39680D01*
X29220Y-39388D01*
X29191Y-39360D01*
X29138Y-39360D01*
X29092Y-39360D01*
X29049Y-39377D01*
X29017Y-39409D01*
X29000Y-39452D01*
X29000Y-39497D01*
X29000Y-39651D01*
X29028Y-39680D01*
X29138Y-39680D01*
X29220Y-39680D01*
X29220Y-39720D01*
X29138Y-39720D01*
X29028Y-39720D01*
X29000Y-39748D01*
X29000Y-39902D01*
X29000Y-39947D01*
X29017Y-39990D01*
X29049Y-40022D01*
X29092Y-40040D01*
X29138Y-40040D01*
X29191Y-40040D01*
X29220Y-40011D01*
X29220Y-40200D01*
X29138Y-40200D01*
X27599Y-40200D01*
X27708Y-40090D01*
X27773Y-39934D01*
X27773Y-39888D01*
X27842Y-39957D01*
X27971Y-40010D01*
X28111Y-40010D01*
X28240Y-39957D01*
X28339Y-39858D01*
X28392Y-39729D01*
X28392Y-39590D01*
X28372Y-39541D01*
X28400Y-39569D01*
X28400Y-39947D01*
X28417Y-39990D01*
X28449Y-40022D01*
X28492Y-40040D01*
X28537Y-40040D01*
X28787Y-40040D01*
X28830Y-40022D01*
X28862Y-39990D01*
X28880Y-39947D01*
X28880Y-39902D01*
X28880Y-39452D01*
X28862Y-39409D01*
X28830Y-39377D01*
X28787Y-39360D01*
X28742Y-39360D01*
X28601Y-39360D01*
X28446Y-39205D01*
X28399Y-39174D01*
X28390Y-39172D01*
X28382Y-39170D01*
X28382Y-39099D01*
X28490Y-39144D01*
X28615Y-39144D01*
X28725Y-39099D01*
X28725Y-39174D01*
X28743Y-39217D01*
X28775Y-39249D01*
X28817Y-39267D01*
X28863Y-39267D01*
X28898Y-39267D01*
X28927Y-39238D01*
X28927Y-39063D01*
X28919Y-39063D01*
X28919Y-39023D01*
X28927Y-39023D01*
X28927Y-39015D01*
X28967Y-39015D01*
X28967Y-39023D01*
X28974Y-39023D01*
X28974Y-39063D01*
X28967Y-39063D01*
X28967Y-39238D01*
X28995Y-39267D01*
X29030Y-39267D01*
X29076Y-39267D01*
X29118Y-39249D01*
X29138Y-39230D01*
X29150Y-39217D01*
X29168Y-39174D01*
X29168Y-39099D01*
X29278Y-39144D01*
X29402Y-39144D01*
X29517Y-39097D01*
X29604Y-39009D01*
X29652Y-38895D01*
X29652Y-38771D01*
X29605Y-38656D01*
X29517Y-38568D01*
X29489Y-38557D01*
X29490Y-38556D01*
X29490Y-38510D01*
X29490Y-38396D01*
X29551Y-38488D01*
X29591Y-38528D01*
X29591Y-38528D01*
X29591Y-38528D01*
X29709Y-38607D01*
X29762Y-38629D01*
X29762Y-38629D01*
X29901Y-38657D01*
X29915Y-38657D01*
X29930Y-38660D01*
X30062Y-38660D01*
X30056Y-38662D01*
X30011Y-38778D01*
X30014Y-38902D01*
X30056Y-39003D01*
X30106Y-39022D01*
X30296Y-38832D01*
X30291Y-38827D01*
X30319Y-38799D01*
X30324Y-38804D01*
X30330Y-38799D01*
X30358Y-38827D01*
X30353Y-38832D01*
X30543Y-39022D01*
X30593Y-39003D01*
X30638Y-38887D01*
X30635Y-38763D01*
X30593Y-38662D01*
X30586Y-38660D01*
X31577Y-38660D01*
X31620Y-38703D01*
X31832Y-38790D01*
X31901Y-38790D01*
X31878Y-38834D01*
X32140Y-39095D01*
X32401Y-38834D01*
X32369Y-38774D01*
X32234Y-38719D01*
X32272Y-38703D01*
X32316Y-38660D01*
X32510Y-38660D01*
X32510Y-38942D01*
M02*
