G04 (created by PCBNEW (2013-mar-13)-testing) date Fri 20 Dec 2013 02:45:34 PM CET*
%MOIN*%
G04 Gerber Fmt 3.4, Leading zero omitted, Abs format*
%FSLAX34Y34*%
G01*
G70*
G90*
G04 APERTURE LIST*
%ADD10C,0.003937*%
%ADD11C,0.092000*%
%ADD12R,0.059100X0.059100*%
%ADD13C,0.059100*%
%ADD14C,0.030000*%
%ADD15O,0.059055X0.118110*%
%ADD16C,0.047244*%
%ADD17C,0.039370*%
%ADD18R,0.031000X0.031000*%
%ADD19C,0.031000*%
%ADD20C,0.028000*%
%ADD21C,0.006000*%
G04 APERTURE END LIST*
G54D10*
G54D11*
X31947Y-38216D03*
X25947Y-38216D03*
G54D12*
X25734Y-39108D03*
G54D13*
X32140Y-39124D03*
G54D14*
X27475Y-29125D03*
X28225Y-29125D03*
X26725Y-29125D03*
G54D15*
X31309Y-39659D03*
X26584Y-39659D03*
G54D16*
X28041Y-39659D03*
X29852Y-39659D03*
G54D17*
X27569Y-38832D03*
X28553Y-38832D03*
X29340Y-38832D03*
X30324Y-38832D03*
G54D18*
X29350Y-33290D03*
X29350Y-37790D03*
X29350Y-37290D03*
X29350Y-36790D03*
X29350Y-36290D03*
X29350Y-35790D03*
X29350Y-35290D03*
X29350Y-34790D03*
X29350Y-34290D03*
X29350Y-33790D03*
X29850Y-37198D03*
X29850Y-36698D03*
X29850Y-36198D03*
X29850Y-35698D03*
X29850Y-35198D03*
X29850Y-34698D03*
X29850Y-34198D03*
X29850Y-33698D03*
G54D19*
X26642Y-34787D03*
X27142Y-34787D03*
X27642Y-34787D03*
X28142Y-34787D03*
X28642Y-34787D03*
X27642Y-35287D03*
X28142Y-35287D03*
X28642Y-35287D03*
X27142Y-35287D03*
X26642Y-35287D03*
X26642Y-34287D03*
X27142Y-34287D03*
X27642Y-34287D03*
X28142Y-34287D03*
X28642Y-34287D03*
X26642Y-33787D03*
X27142Y-33787D03*
X27642Y-33787D03*
X28142Y-33787D03*
X28642Y-33787D03*
X26642Y-35787D03*
X26642Y-36287D03*
X27142Y-36287D03*
X27142Y-35787D03*
X27642Y-35787D03*
X27642Y-36287D03*
X28142Y-35787D03*
X28142Y-36287D03*
X28642Y-35787D03*
X28642Y-36287D03*
X26642Y-33287D03*
X27142Y-33287D03*
X27642Y-33287D03*
X28142Y-33287D03*
X28142Y-32787D03*
X27642Y-32787D03*
X27142Y-32787D03*
X26642Y-32787D03*
X26642Y-32287D03*
X27142Y-32287D03*
X27642Y-32287D03*
X28142Y-32287D03*
X28142Y-31787D03*
X27642Y-31787D03*
X27142Y-31787D03*
X26642Y-31787D03*
X26642Y-31287D03*
X27142Y-31287D03*
X27642Y-31287D03*
X28142Y-31287D03*
X28142Y-30787D03*
X27642Y-30787D03*
X27142Y-30787D03*
X26642Y-30787D03*
X26642Y-30287D03*
X27142Y-30287D03*
X27642Y-30287D03*
X27642Y-29787D03*
X27142Y-29787D03*
X26642Y-29787D03*
X28142Y-29787D03*
X28142Y-30287D03*
X25578Y-36925D03*
G54D18*
X25578Y-37425D03*
X25270Y-24180D03*
X25270Y-23680D03*
X25270Y-23180D03*
X25270Y-22680D03*
X25270Y-22180D03*
X25270Y-21680D03*
X25270Y-21180D03*
X25270Y-20680D03*
X25270Y-20180D03*
X25270Y-28680D03*
X25270Y-28180D03*
X25270Y-27680D03*
X25270Y-27180D03*
X25270Y-26680D03*
X25270Y-26180D03*
X25270Y-25680D03*
X25270Y-25180D03*
X25270Y-24680D03*
X32631Y-24152D03*
X32631Y-23652D03*
X32631Y-23152D03*
X32631Y-22652D03*
X32631Y-22152D03*
X32631Y-21652D03*
X32631Y-21152D03*
X32631Y-20652D03*
X32631Y-20152D03*
X32631Y-28652D03*
X32631Y-28152D03*
X32631Y-27652D03*
X32631Y-27152D03*
X32631Y-26652D03*
X32631Y-26152D03*
X32631Y-25652D03*
X32631Y-25152D03*
X32631Y-24652D03*
X29350Y-29930D03*
X29350Y-30430D03*
X29350Y-30930D03*
X29350Y-31430D03*
X29350Y-31930D03*
X29350Y-32430D03*
X29850Y-30180D03*
X29850Y-30680D03*
X29850Y-31180D03*
X29850Y-31680D03*
X29850Y-32180D03*
G54D20*
X31895Y-27465D03*
X30612Y-32398D03*
X30803Y-24990D03*
X27579Y-22341D03*
X26440Y-21600D03*
X29753Y-20768D03*
X30453Y-23220D03*
X26005Y-19160D03*
X31251Y-21060D03*
X30702Y-23492D03*
X32338Y-18434D03*
X26178Y-18585D03*
X26710Y-18363D03*
X28541Y-33212D03*
X27850Y-29125D03*
X26414Y-38722D03*
X27090Y-39370D03*
X27705Y-36773D03*
X27471Y-28617D03*
X31513Y-22799D03*
X27100Y-29125D03*
X26403Y-26478D03*
X26550Y-19705D03*
X30800Y-19500D03*
X31250Y-19680D03*
X31700Y-19900D03*
X27411Y-23373D03*
X32147Y-28574D03*
X31501Y-26208D03*
X28979Y-28105D03*
X25486Y-19576D03*
X28427Y-18912D03*
X31521Y-24413D03*
X28900Y-25800D03*
X28000Y-24800D03*
X29800Y-24800D03*
X28890Y-26300D03*
X29800Y-25800D03*
X28000Y-25800D03*
X27998Y-24334D03*
X29796Y-24332D03*
X28000Y-26300D03*
X29800Y-26300D03*
X29800Y-25300D03*
X28000Y-25300D03*
X28900Y-24800D03*
X28900Y-24332D03*
X28890Y-25321D03*
X29015Y-37540D03*
X29017Y-37040D03*
X30640Y-27475D03*
X30240Y-27475D03*
X29855Y-27475D03*
X26905Y-21880D03*
X26402Y-24784D03*
X26554Y-23252D03*
X25818Y-20610D03*
X27285Y-21895D03*
X26985Y-24960D03*
X25832Y-20264D03*
X27413Y-21575D03*
X27161Y-19682D03*
X30188Y-20820D03*
X27095Y-19143D03*
X27354Y-26813D03*
X30051Y-23213D03*
X26995Y-20255D03*
X27030Y-25455D03*
X27288Y-20444D03*
X26472Y-25128D03*
X26578Y-18694D03*
X31425Y-27475D03*
X31273Y-22094D03*
X30234Y-18914D03*
X31407Y-23685D03*
X28868Y-33451D03*
X30182Y-18432D03*
X30940Y-21730D03*
X30929Y-23758D03*
X28242Y-27564D03*
X28166Y-38112D03*
X27860Y-27230D03*
X26397Y-26121D03*
X27512Y-27272D03*
X26398Y-26865D03*
X28950Y-38114D03*
X26652Y-28635D03*
X26754Y-23940D03*
X31614Y-22093D03*
X30884Y-26601D03*
X26999Y-26697D03*
X31271Y-24991D03*
X25656Y-19161D03*
X29334Y-27288D03*
X30120Y-22857D03*
X27819Y-22953D03*
X28221Y-27205D03*
X29777Y-22254D03*
X29456Y-23261D03*
X29338Y-22244D03*
X29128Y-23390D03*
G54D21*
X31895Y-26910D02*
X31895Y-27465D01*
X32130Y-24345D02*
X32130Y-26675D01*
X32130Y-26675D02*
X32005Y-26800D01*
X32005Y-26800D02*
X31895Y-26910D01*
X32631Y-23152D02*
X32631Y-23199D01*
X32130Y-24345D02*
X32130Y-24345D01*
X32130Y-24030D02*
X32130Y-24345D01*
X32380Y-23780D02*
X32130Y-24030D01*
X32380Y-23450D02*
X32380Y-23780D01*
X32631Y-23199D02*
X32380Y-23450D01*
X29015Y-34040D02*
X29540Y-34040D01*
X25270Y-20227D02*
X25555Y-20512D01*
X25555Y-20512D02*
X25555Y-21211D01*
X25555Y-21211D02*
X26166Y-21822D01*
X26166Y-21822D02*
X26166Y-27038D01*
X26166Y-27038D02*
X26384Y-27256D01*
X26384Y-27256D02*
X26384Y-33973D01*
X26384Y-33973D02*
X26451Y-34040D01*
X26451Y-34040D02*
X29015Y-34040D01*
X25270Y-20180D02*
X25270Y-20227D01*
X29600Y-34408D02*
X29881Y-34689D01*
X29600Y-34100D02*
X29600Y-34408D01*
X29540Y-34040D02*
X29600Y-34100D01*
X29155Y-31680D02*
X29544Y-31680D01*
X31275Y-28755D02*
X32380Y-27650D01*
X32631Y-24152D02*
X32518Y-24152D01*
X32518Y-24152D02*
X32380Y-24290D01*
X32380Y-24290D02*
X32380Y-24455D01*
X32380Y-24455D02*
X32380Y-27650D01*
X29665Y-28755D02*
X28979Y-29440D01*
X28979Y-29440D02*
X28979Y-31504D01*
X28979Y-31504D02*
X29155Y-31680D01*
X29665Y-28755D02*
X31275Y-28755D01*
X29600Y-31930D02*
X29850Y-32180D01*
X29600Y-31736D02*
X29600Y-31930D01*
X29544Y-31680D02*
X29600Y-31736D01*
X32631Y-23652D02*
X32631Y-23709D01*
X28855Y-31935D02*
X29350Y-32430D01*
X28855Y-29390D02*
X28855Y-31935D01*
X29615Y-28630D02*
X28855Y-29390D01*
X31165Y-28630D02*
X29615Y-28630D01*
X32130Y-27665D02*
X31165Y-28630D01*
X32130Y-26855D02*
X32130Y-27665D01*
X32255Y-26730D02*
X32130Y-26855D01*
X32255Y-24400D02*
X32255Y-26730D01*
X32255Y-24400D02*
X32255Y-24400D01*
X32255Y-24085D02*
X32255Y-24400D01*
X32631Y-23709D02*
X32255Y-24085D01*
X32631Y-28152D02*
X32569Y-28152D01*
X32569Y-28152D02*
X32147Y-28574D01*
X32631Y-28152D02*
X32588Y-28152D01*
X32631Y-28152D02*
X32559Y-28152D01*
X25270Y-28180D02*
X25359Y-28180D01*
X26642Y-37540D02*
X29015Y-37540D01*
X25517Y-36415D02*
X26642Y-37540D01*
X25517Y-28338D02*
X25517Y-36415D01*
X25359Y-28180D02*
X25517Y-28338D01*
X25270Y-27180D02*
X25270Y-27218D01*
X26337Y-37040D02*
X29017Y-37040D01*
X25644Y-36347D02*
X26337Y-37040D01*
X25644Y-27592D02*
X25644Y-36347D01*
X25270Y-27218D02*
X25644Y-27592D01*
X29350Y-30430D02*
X29349Y-30430D01*
X29102Y-29498D02*
X29152Y-29448D01*
X29102Y-30183D02*
X29102Y-29498D01*
X29349Y-30430D02*
X29102Y-30183D01*
X31345Y-28880D02*
X31403Y-28880D01*
X29152Y-29448D02*
X29720Y-28880D01*
X29720Y-28880D02*
X31345Y-28880D01*
X31403Y-28880D02*
X32631Y-27652D01*
X29350Y-30430D02*
X29350Y-30380D01*
X29012Y-35037D02*
X29545Y-35037D01*
X25916Y-25278D02*
X25916Y-27146D01*
X25916Y-27146D02*
X26135Y-27365D01*
X26135Y-27365D02*
X26135Y-34857D01*
X26135Y-34857D02*
X26315Y-35037D01*
X25916Y-25278D02*
X25916Y-22872D01*
X25270Y-22180D02*
X25916Y-22826D01*
X25916Y-22872D02*
X25916Y-22826D01*
X26315Y-35037D02*
X29012Y-35037D01*
X29850Y-35642D02*
X29850Y-35698D01*
X29600Y-35392D02*
X29850Y-35642D01*
X29600Y-35092D02*
X29600Y-35392D01*
X29545Y-35037D02*
X29600Y-35092D01*
X29600Y-35590D02*
X29600Y-35582D01*
X29600Y-35590D02*
X29600Y-35892D01*
X29600Y-35892D02*
X29850Y-36142D01*
X29850Y-36198D02*
X29850Y-36142D01*
X26193Y-35540D02*
X26010Y-35357D01*
X29558Y-35540D02*
X26193Y-35540D01*
X29600Y-35582D02*
X29558Y-35540D01*
X27285Y-22521D02*
X27285Y-21895D01*
X26554Y-23252D02*
X27285Y-22521D01*
X26010Y-35357D02*
X26010Y-27419D01*
X25790Y-27199D02*
X26010Y-27419D01*
X25790Y-25331D02*
X25790Y-27199D01*
X25270Y-23180D02*
X25790Y-23700D01*
X25790Y-25331D02*
X25790Y-23700D01*
X27285Y-21895D02*
X27285Y-21803D01*
X26711Y-21503D02*
X25818Y-20610D01*
X26985Y-21503D02*
X26711Y-21503D01*
X27285Y-21803D02*
X26985Y-21503D01*
X27413Y-21575D02*
X27413Y-21388D01*
X26289Y-20264D02*
X25832Y-20264D01*
X27413Y-21388D02*
X26289Y-20264D01*
X29564Y-36040D02*
X26009Y-36040D01*
X29564Y-36040D02*
X29600Y-36076D01*
X29600Y-36076D02*
X29600Y-36392D01*
X29600Y-36392D02*
X29850Y-36642D01*
X29850Y-36698D02*
X29850Y-36642D01*
X26009Y-36040D02*
X25887Y-35918D01*
X25887Y-27477D02*
X25887Y-35918D01*
X25650Y-25380D02*
X25650Y-24560D01*
X25650Y-24560D02*
X25270Y-24180D01*
X25650Y-25404D02*
X25650Y-25380D01*
X25650Y-25404D02*
X25650Y-27240D01*
X25650Y-27240D02*
X25887Y-27477D01*
X25887Y-27477D02*
X25889Y-27477D01*
X25889Y-27477D02*
X25887Y-27477D01*
X27354Y-26813D02*
X27357Y-26813D01*
X30050Y-23215D02*
X30051Y-23213D01*
X30050Y-25900D02*
X30050Y-23215D01*
X29910Y-26040D02*
X30050Y-25900D01*
X27920Y-26040D02*
X29910Y-26040D01*
X27750Y-26210D02*
X27920Y-26040D01*
X27750Y-26420D02*
X27750Y-26210D01*
X27357Y-26813D02*
X27750Y-26420D01*
X30051Y-23213D02*
X30050Y-23213D01*
X32255Y-23395D02*
X32255Y-21580D01*
X32255Y-21580D02*
X32380Y-21455D01*
X29100Y-33485D02*
X29100Y-33492D01*
X32000Y-26625D02*
X31660Y-26965D01*
X31660Y-26965D02*
X31660Y-27770D01*
X31660Y-27770D02*
X30925Y-28505D01*
X30925Y-28505D02*
X29560Y-28505D01*
X29560Y-28505D02*
X28730Y-29335D01*
X28730Y-29335D02*
X28730Y-32180D01*
X28730Y-32180D02*
X29100Y-32550D01*
X29100Y-32550D02*
X29100Y-33485D01*
X32005Y-24295D02*
X32005Y-26625D01*
X32005Y-26625D02*
X32000Y-26625D01*
X29692Y-33540D02*
X29850Y-33698D01*
X29148Y-33540D02*
X29692Y-33540D01*
X29100Y-33492D02*
X29148Y-33540D01*
X32631Y-21204D02*
X32380Y-21455D01*
X32631Y-21152D02*
X32631Y-21204D01*
X32255Y-23395D02*
X32255Y-23730D01*
X32255Y-23730D02*
X32005Y-23980D01*
X32005Y-23980D02*
X32005Y-24295D01*
X32005Y-24295D02*
X32005Y-24295D01*
X32116Y-21219D02*
X32116Y-23694D01*
X32116Y-23694D02*
X32005Y-23805D01*
X31880Y-26570D02*
X31875Y-26570D01*
X32631Y-20704D02*
X32380Y-20955D01*
X32380Y-20955D02*
X32380Y-20955D01*
X32380Y-20955D02*
X32116Y-21219D01*
X32005Y-23805D02*
X31880Y-23930D01*
X31880Y-23930D02*
X31880Y-24240D01*
X31880Y-24240D02*
X31880Y-24240D01*
X31880Y-24240D02*
X31880Y-26570D01*
X32631Y-20652D02*
X32631Y-20704D01*
X31425Y-27020D02*
X31425Y-27475D01*
X31875Y-26570D02*
X31425Y-27020D01*
X28868Y-33451D02*
X28868Y-32550D01*
X28868Y-32550D02*
X28600Y-32282D01*
X31969Y-20845D02*
X31969Y-23617D01*
X31969Y-23617D02*
X31755Y-23832D01*
X31185Y-27075D02*
X31185Y-27915D01*
X31185Y-27915D02*
X30720Y-28380D01*
X30720Y-28380D02*
X29505Y-28380D01*
X29505Y-28380D02*
X28600Y-29285D01*
X28600Y-29285D02*
X28600Y-32282D01*
X32631Y-20152D02*
X32631Y-20184D01*
X31755Y-23832D02*
X31755Y-26505D01*
X32631Y-20184D02*
X31969Y-20845D01*
X31755Y-26505D02*
X31185Y-27075D01*
X29018Y-36539D02*
X29539Y-36539D01*
X29539Y-36539D02*
X29600Y-36600D01*
X29600Y-36600D02*
X29600Y-36890D01*
X29600Y-36890D02*
X29850Y-37140D01*
X29850Y-37140D02*
X29850Y-37198D01*
X29018Y-36539D02*
X29017Y-36540D01*
X29017Y-36540D02*
X26154Y-36540D01*
X26154Y-36540D02*
X25766Y-36152D01*
X25766Y-27533D02*
X25766Y-36152D01*
X25520Y-25430D02*
X25520Y-27287D01*
X25520Y-27287D02*
X25766Y-27533D01*
X25766Y-27533D02*
X25766Y-27533D01*
X25766Y-27533D02*
X25766Y-27533D01*
X25520Y-25430D02*
X25270Y-25180D01*
X26999Y-26697D02*
X26991Y-26697D01*
X26716Y-23978D02*
X26754Y-23940D01*
X26716Y-26422D02*
X26716Y-23978D01*
X26991Y-26697D02*
X26716Y-26422D01*
X30120Y-22857D02*
X30120Y-22130D01*
X26437Y-19942D02*
X25656Y-19161D01*
X27932Y-19942D02*
X26437Y-19942D01*
X30120Y-22130D02*
X27932Y-19942D01*
X31271Y-24991D02*
X31271Y-24053D01*
X31170Y-23095D02*
X30932Y-22857D01*
X31170Y-23952D02*
X31170Y-23095D01*
X31271Y-24053D02*
X31170Y-23952D01*
X31614Y-22093D02*
X31614Y-22175D01*
X31614Y-22175D02*
X30932Y-22857D01*
X30932Y-22857D02*
X30120Y-22857D01*
X31271Y-25600D02*
X31271Y-24991D01*
X30884Y-25987D02*
X31271Y-25600D01*
X30884Y-26601D02*
X30884Y-25987D01*
X30884Y-26601D02*
X30884Y-26926D01*
X30884Y-26926D02*
X30710Y-27100D01*
X26999Y-26697D02*
X26997Y-26697D01*
X26999Y-26697D02*
X26999Y-27345D01*
X26999Y-27345D02*
X27009Y-27355D01*
X27452Y-27798D02*
X28824Y-27798D01*
X28824Y-27798D02*
X29334Y-27288D01*
X27452Y-27798D02*
X27009Y-27355D01*
X29700Y-27100D02*
X30710Y-27100D01*
X29334Y-27288D02*
X29522Y-27100D01*
X29522Y-27100D02*
X29700Y-27100D01*
X27915Y-22857D02*
X30120Y-22857D01*
X27819Y-22953D02*
X27915Y-22857D01*
X29017Y-34539D02*
X29547Y-34539D01*
X26260Y-34354D02*
X26260Y-27313D01*
X26260Y-27313D02*
X26044Y-27097D01*
X26044Y-27097D02*
X26044Y-25230D01*
X26044Y-25230D02*
X26042Y-25228D01*
X25270Y-21180D02*
X25523Y-21433D01*
X26042Y-21952D02*
X25523Y-21433D01*
X26042Y-25228D02*
X26042Y-21952D01*
X27228Y-34539D02*
X26445Y-34539D01*
X28643Y-34539D02*
X27228Y-34539D01*
X29017Y-34539D02*
X28643Y-34539D01*
X26445Y-34539D02*
X26260Y-34354D01*
X29850Y-35144D02*
X29850Y-35198D01*
X29600Y-34894D02*
X29850Y-35144D01*
X29600Y-34592D02*
X29600Y-34894D01*
X29547Y-34539D02*
X29600Y-34592D01*
G54D10*
G36*
X29080Y-36790D02*
X29067Y-36785D01*
X28966Y-36784D01*
X28872Y-36823D01*
X28801Y-36895D01*
X26397Y-36895D01*
X26187Y-36685D01*
X29017Y-36685D01*
X29017Y-36684D01*
X29022Y-36684D01*
X29022Y-36684D01*
X29080Y-36684D01*
X29080Y-36790D01*
X29080Y-36790D01*
G37*
G54D21*
X29080Y-36790D02*
X29067Y-36785D01*
X28966Y-36784D01*
X28872Y-36823D01*
X28801Y-36895D01*
X26397Y-36895D01*
X26187Y-36685D01*
X29017Y-36685D01*
X29017Y-36684D01*
X29022Y-36684D01*
X29022Y-36684D01*
X29080Y-36684D01*
X29080Y-36790D01*
G54D10*
G36*
X31610Y-26444D02*
X31082Y-26972D01*
X31051Y-27019D01*
X31049Y-27028D01*
X31040Y-27075D01*
X31040Y-27854D01*
X30659Y-28235D01*
X30280Y-28235D01*
X29505Y-28235D01*
X29449Y-28246D01*
X29402Y-28277D01*
X28497Y-29182D01*
X28472Y-29219D01*
X28489Y-29177D01*
X28490Y-29072D01*
X28449Y-28975D01*
X28375Y-28900D01*
X28277Y-28860D01*
X28172Y-28859D01*
X28075Y-28900D01*
X28000Y-28974D01*
X27960Y-29072D01*
X27959Y-29177D01*
X28000Y-29274D01*
X28074Y-29349D01*
X28172Y-29389D01*
X28277Y-29390D01*
X28374Y-29349D01*
X28449Y-29275D01*
X28463Y-29241D01*
X28455Y-29285D01*
X28455Y-32282D01*
X28464Y-32328D01*
X28466Y-32337D01*
X28497Y-32384D01*
X28723Y-32610D01*
X28723Y-33235D01*
X28651Y-33306D01*
X28613Y-33400D01*
X28612Y-33501D01*
X28619Y-33516D01*
X28588Y-33516D01*
X28489Y-33557D01*
X28413Y-33633D01*
X28391Y-33685D01*
X28371Y-33634D01*
X28295Y-33558D01*
X28243Y-33536D01*
X28294Y-33516D01*
X28370Y-33440D01*
X28411Y-33340D01*
X28412Y-33233D01*
X28371Y-33134D01*
X28295Y-33058D01*
X28243Y-33036D01*
X28294Y-33016D01*
X28370Y-32940D01*
X28411Y-32840D01*
X28412Y-32733D01*
X28371Y-32634D01*
X28295Y-32558D01*
X28243Y-32536D01*
X28294Y-32516D01*
X28370Y-32440D01*
X28411Y-32340D01*
X28412Y-32233D01*
X28371Y-32134D01*
X28295Y-32058D01*
X28243Y-32036D01*
X28294Y-32016D01*
X28370Y-31940D01*
X28411Y-31840D01*
X28412Y-31733D01*
X28371Y-31634D01*
X28295Y-31558D01*
X28243Y-31536D01*
X28294Y-31516D01*
X28370Y-31440D01*
X28411Y-31340D01*
X28412Y-31233D01*
X28371Y-31134D01*
X28295Y-31058D01*
X28243Y-31036D01*
X28294Y-31016D01*
X28370Y-30940D01*
X28411Y-30840D01*
X28412Y-30733D01*
X28371Y-30634D01*
X28295Y-30558D01*
X28243Y-30536D01*
X28294Y-30516D01*
X28370Y-30440D01*
X28411Y-30340D01*
X28412Y-30233D01*
X28371Y-30134D01*
X28295Y-30058D01*
X28243Y-30036D01*
X28294Y-30016D01*
X28370Y-29940D01*
X28411Y-29840D01*
X28412Y-29733D01*
X28371Y-29634D01*
X28295Y-29558D01*
X28195Y-29517D01*
X28088Y-29516D01*
X27989Y-29557D01*
X27913Y-29633D01*
X27891Y-29685D01*
X27871Y-29634D01*
X27795Y-29558D01*
X27740Y-29535D01*
X27740Y-29072D01*
X27699Y-28975D01*
X27625Y-28900D01*
X27527Y-28860D01*
X27422Y-28859D01*
X27325Y-28900D01*
X27250Y-28974D01*
X27210Y-29072D01*
X27209Y-29177D01*
X27250Y-29274D01*
X27324Y-29349D01*
X27422Y-29389D01*
X27527Y-29390D01*
X27624Y-29349D01*
X27699Y-29275D01*
X27739Y-29177D01*
X27740Y-29072D01*
X27740Y-29535D01*
X27695Y-29517D01*
X27588Y-29516D01*
X27489Y-29557D01*
X27413Y-29633D01*
X27391Y-29685D01*
X27371Y-29634D01*
X27295Y-29558D01*
X27195Y-29517D01*
X27088Y-29516D01*
X26989Y-29557D01*
X26913Y-29633D01*
X26891Y-29685D01*
X26871Y-29634D01*
X26795Y-29558D01*
X26695Y-29517D01*
X26588Y-29516D01*
X26529Y-29541D01*
X26529Y-29303D01*
X26574Y-29349D01*
X26672Y-29389D01*
X26777Y-29390D01*
X26874Y-29349D01*
X26949Y-29275D01*
X26989Y-29177D01*
X26990Y-29072D01*
X26949Y-28975D01*
X26875Y-28900D01*
X26777Y-28860D01*
X26775Y-28860D01*
X26796Y-28851D01*
X26868Y-28779D01*
X26906Y-28685D01*
X26907Y-28584D01*
X26868Y-28490D01*
X26796Y-28418D01*
X26702Y-28380D01*
X26601Y-28379D01*
X26529Y-28409D01*
X26529Y-27256D01*
X26517Y-27200D01*
X26517Y-27200D01*
X26507Y-27184D01*
X26486Y-27153D01*
X26486Y-27153D01*
X26451Y-27118D01*
X26542Y-27081D01*
X26614Y-27009D01*
X26652Y-26915D01*
X26653Y-26814D01*
X26614Y-26720D01*
X26542Y-26648D01*
X26448Y-26610D01*
X26347Y-26609D01*
X26311Y-26625D01*
X26311Y-26361D01*
X26346Y-26375D01*
X26447Y-26376D01*
X26541Y-26337D01*
X26571Y-26307D01*
X26571Y-26422D01*
X26580Y-26468D01*
X26582Y-26477D01*
X26613Y-26524D01*
X26744Y-26655D01*
X26743Y-26747D01*
X26782Y-26841D01*
X26854Y-26912D01*
X26854Y-27345D01*
X26863Y-27391D01*
X26865Y-27400D01*
X26896Y-27447D01*
X26906Y-27457D01*
X27349Y-27900D01*
X27349Y-27900D01*
X27380Y-27921D01*
X27396Y-27931D01*
X27396Y-27931D01*
X27452Y-27943D01*
X28824Y-27943D01*
X28824Y-27942D01*
X28870Y-27933D01*
X28879Y-27931D01*
X28879Y-27931D01*
X28926Y-27900D01*
X29284Y-27542D01*
X29384Y-27543D01*
X29478Y-27504D01*
X29550Y-27432D01*
X29588Y-27338D01*
X29589Y-27245D01*
X29700Y-27245D01*
X29743Y-27245D01*
X29710Y-27258D01*
X29638Y-27330D01*
X29600Y-27424D01*
X29599Y-27525D01*
X29638Y-27619D01*
X29710Y-27691D01*
X29804Y-27729D01*
X29905Y-27730D01*
X29999Y-27691D01*
X30047Y-27643D01*
X30095Y-27691D01*
X30189Y-27729D01*
X30280Y-27730D01*
X30290Y-27730D01*
X30384Y-27691D01*
X30440Y-27635D01*
X30495Y-27691D01*
X30589Y-27729D01*
X30690Y-27730D01*
X30784Y-27691D01*
X30856Y-27619D01*
X30894Y-27525D01*
X30895Y-27424D01*
X30856Y-27330D01*
X30784Y-27258D01*
X30737Y-27239D01*
X30756Y-27235D01*
X30765Y-27233D01*
X30765Y-27233D01*
X30812Y-27202D01*
X30986Y-27028D01*
X30986Y-27028D01*
X31017Y-26981D01*
X31017Y-26981D01*
X31029Y-26926D01*
X31029Y-26816D01*
X31100Y-26745D01*
X31138Y-26651D01*
X31139Y-26550D01*
X31100Y-26456D01*
X31029Y-26385D01*
X31029Y-26047D01*
X31373Y-25702D01*
X31373Y-25702D01*
X31404Y-25655D01*
X31416Y-25600D01*
X31416Y-25206D01*
X31487Y-25135D01*
X31525Y-25041D01*
X31526Y-24940D01*
X31487Y-24846D01*
X31416Y-24775D01*
X31416Y-24053D01*
X31404Y-23997D01*
X31404Y-23997D01*
X31394Y-23981D01*
X31373Y-23950D01*
X31373Y-23950D01*
X31363Y-23939D01*
X31457Y-23940D01*
X31551Y-23901D01*
X31610Y-23842D01*
X31610Y-26444D01*
X31610Y-26444D01*
G37*
G54D21*
X31610Y-26444D02*
X31082Y-26972D01*
X31051Y-27019D01*
X31049Y-27028D01*
X31040Y-27075D01*
X31040Y-27854D01*
X30659Y-28235D01*
X30280Y-28235D01*
X29505Y-28235D01*
X29449Y-28246D01*
X29402Y-28277D01*
X28497Y-29182D01*
X28472Y-29219D01*
X28489Y-29177D01*
X28490Y-29072D01*
X28449Y-28975D01*
X28375Y-28900D01*
X28277Y-28860D01*
X28172Y-28859D01*
X28075Y-28900D01*
X28000Y-28974D01*
X27960Y-29072D01*
X27959Y-29177D01*
X28000Y-29274D01*
X28074Y-29349D01*
X28172Y-29389D01*
X28277Y-29390D01*
X28374Y-29349D01*
X28449Y-29275D01*
X28463Y-29241D01*
X28455Y-29285D01*
X28455Y-32282D01*
X28464Y-32328D01*
X28466Y-32337D01*
X28497Y-32384D01*
X28723Y-32610D01*
X28723Y-33235D01*
X28651Y-33306D01*
X28613Y-33400D01*
X28612Y-33501D01*
X28619Y-33516D01*
X28588Y-33516D01*
X28489Y-33557D01*
X28413Y-33633D01*
X28391Y-33685D01*
X28371Y-33634D01*
X28295Y-33558D01*
X28243Y-33536D01*
X28294Y-33516D01*
X28370Y-33440D01*
X28411Y-33340D01*
X28412Y-33233D01*
X28371Y-33134D01*
X28295Y-33058D01*
X28243Y-33036D01*
X28294Y-33016D01*
X28370Y-32940D01*
X28411Y-32840D01*
X28412Y-32733D01*
X28371Y-32634D01*
X28295Y-32558D01*
X28243Y-32536D01*
X28294Y-32516D01*
X28370Y-32440D01*
X28411Y-32340D01*
X28412Y-32233D01*
X28371Y-32134D01*
X28295Y-32058D01*
X28243Y-32036D01*
X28294Y-32016D01*
X28370Y-31940D01*
X28411Y-31840D01*
X28412Y-31733D01*
X28371Y-31634D01*
X28295Y-31558D01*
X28243Y-31536D01*
X28294Y-31516D01*
X28370Y-31440D01*
X28411Y-31340D01*
X28412Y-31233D01*
X28371Y-31134D01*
X28295Y-31058D01*
X28243Y-31036D01*
X28294Y-31016D01*
X28370Y-30940D01*
X28411Y-30840D01*
X28412Y-30733D01*
X28371Y-30634D01*
X28295Y-30558D01*
X28243Y-30536D01*
X28294Y-30516D01*
X28370Y-30440D01*
X28411Y-30340D01*
X28412Y-30233D01*
X28371Y-30134D01*
X28295Y-30058D01*
X28243Y-30036D01*
X28294Y-30016D01*
X28370Y-29940D01*
X28411Y-29840D01*
X28412Y-29733D01*
X28371Y-29634D01*
X28295Y-29558D01*
X28195Y-29517D01*
X28088Y-29516D01*
X27989Y-29557D01*
X27913Y-29633D01*
X27891Y-29685D01*
X27871Y-29634D01*
X27795Y-29558D01*
X27740Y-29535D01*
X27740Y-29072D01*
X27699Y-28975D01*
X27625Y-28900D01*
X27527Y-28860D01*
X27422Y-28859D01*
X27325Y-28900D01*
X27250Y-28974D01*
X27210Y-29072D01*
X27209Y-29177D01*
X27250Y-29274D01*
X27324Y-29349D01*
X27422Y-29389D01*
X27527Y-29390D01*
X27624Y-29349D01*
X27699Y-29275D01*
X27739Y-29177D01*
X27740Y-29072D01*
X27740Y-29535D01*
X27695Y-29517D01*
X27588Y-29516D01*
X27489Y-29557D01*
X27413Y-29633D01*
X27391Y-29685D01*
X27371Y-29634D01*
X27295Y-29558D01*
X27195Y-29517D01*
X27088Y-29516D01*
X26989Y-29557D01*
X26913Y-29633D01*
X26891Y-29685D01*
X26871Y-29634D01*
X26795Y-29558D01*
X26695Y-29517D01*
X26588Y-29516D01*
X26529Y-29541D01*
X26529Y-29303D01*
X26574Y-29349D01*
X26672Y-29389D01*
X26777Y-29390D01*
X26874Y-29349D01*
X26949Y-29275D01*
X26989Y-29177D01*
X26990Y-29072D01*
X26949Y-28975D01*
X26875Y-28900D01*
X26777Y-28860D01*
X26775Y-28860D01*
X26796Y-28851D01*
X26868Y-28779D01*
X26906Y-28685D01*
X26907Y-28584D01*
X26868Y-28490D01*
X26796Y-28418D01*
X26702Y-28380D01*
X26601Y-28379D01*
X26529Y-28409D01*
X26529Y-27256D01*
X26517Y-27200D01*
X26517Y-27200D01*
X26507Y-27184D01*
X26486Y-27153D01*
X26486Y-27153D01*
X26451Y-27118D01*
X26542Y-27081D01*
X26614Y-27009D01*
X26652Y-26915D01*
X26653Y-26814D01*
X26614Y-26720D01*
X26542Y-26648D01*
X26448Y-26610D01*
X26347Y-26609D01*
X26311Y-26625D01*
X26311Y-26361D01*
X26346Y-26375D01*
X26447Y-26376D01*
X26541Y-26337D01*
X26571Y-26307D01*
X26571Y-26422D01*
X26580Y-26468D01*
X26582Y-26477D01*
X26613Y-26524D01*
X26744Y-26655D01*
X26743Y-26747D01*
X26782Y-26841D01*
X26854Y-26912D01*
X26854Y-27345D01*
X26863Y-27391D01*
X26865Y-27400D01*
X26896Y-27447D01*
X26906Y-27457D01*
X27349Y-27900D01*
X27349Y-27900D01*
X27380Y-27921D01*
X27396Y-27931D01*
X27396Y-27931D01*
X27452Y-27943D01*
X28824Y-27943D01*
X28824Y-27942D01*
X28870Y-27933D01*
X28879Y-27931D01*
X28879Y-27931D01*
X28926Y-27900D01*
X29284Y-27542D01*
X29384Y-27543D01*
X29478Y-27504D01*
X29550Y-27432D01*
X29588Y-27338D01*
X29589Y-27245D01*
X29700Y-27245D01*
X29743Y-27245D01*
X29710Y-27258D01*
X29638Y-27330D01*
X29600Y-27424D01*
X29599Y-27525D01*
X29638Y-27619D01*
X29710Y-27691D01*
X29804Y-27729D01*
X29905Y-27730D01*
X29999Y-27691D01*
X30047Y-27643D01*
X30095Y-27691D01*
X30189Y-27729D01*
X30280Y-27730D01*
X30290Y-27730D01*
X30384Y-27691D01*
X30440Y-27635D01*
X30495Y-27691D01*
X30589Y-27729D01*
X30690Y-27730D01*
X30784Y-27691D01*
X30856Y-27619D01*
X30894Y-27525D01*
X30895Y-27424D01*
X30856Y-27330D01*
X30784Y-27258D01*
X30737Y-27239D01*
X30756Y-27235D01*
X30765Y-27233D01*
X30765Y-27233D01*
X30812Y-27202D01*
X30986Y-27028D01*
X30986Y-27028D01*
X31017Y-26981D01*
X31017Y-26981D01*
X31029Y-26926D01*
X31029Y-26816D01*
X31100Y-26745D01*
X31138Y-26651D01*
X31139Y-26550D01*
X31100Y-26456D01*
X31029Y-26385D01*
X31029Y-26047D01*
X31373Y-25702D01*
X31373Y-25702D01*
X31404Y-25655D01*
X31416Y-25600D01*
X31416Y-25206D01*
X31487Y-25135D01*
X31525Y-25041D01*
X31526Y-24940D01*
X31487Y-24846D01*
X31416Y-24775D01*
X31416Y-24053D01*
X31404Y-23997D01*
X31404Y-23997D01*
X31394Y-23981D01*
X31373Y-23950D01*
X31373Y-23950D01*
X31363Y-23939D01*
X31457Y-23940D01*
X31551Y-23901D01*
X31610Y-23842D01*
X31610Y-26444D01*
G54D10*
G36*
X31824Y-23557D02*
X31661Y-23719D01*
X31662Y-23634D01*
X31623Y-23540D01*
X31551Y-23468D01*
X31457Y-23430D01*
X31356Y-23429D01*
X31315Y-23447D01*
X31315Y-23095D01*
X31303Y-23039D01*
X31303Y-23039D01*
X31293Y-23023D01*
X31272Y-22992D01*
X31272Y-22992D01*
X31137Y-22856D01*
X31646Y-22348D01*
X31664Y-22348D01*
X31758Y-22309D01*
X31824Y-22243D01*
X31824Y-23557D01*
X31824Y-23557D01*
G37*
G54D21*
X31824Y-23557D02*
X31661Y-23719D01*
X31662Y-23634D01*
X31623Y-23540D01*
X31551Y-23468D01*
X31457Y-23430D01*
X31356Y-23429D01*
X31315Y-23447D01*
X31315Y-23095D01*
X31303Y-23039D01*
X31303Y-23039D01*
X31293Y-23023D01*
X31272Y-22992D01*
X31272Y-22992D01*
X31137Y-22856D01*
X31646Y-22348D01*
X31664Y-22348D01*
X31758Y-22309D01*
X31824Y-22243D01*
X31824Y-23557D01*
G54D10*
G36*
X32510Y-19882D02*
X32453Y-19882D01*
X32410Y-19899D01*
X32378Y-19931D01*
X32361Y-19974D01*
X32361Y-20019D01*
X32361Y-20248D01*
X31866Y-20742D01*
X31835Y-20790D01*
X31833Y-20799D01*
X31824Y-20845D01*
X31824Y-21942D01*
X31758Y-21876D01*
X31664Y-21838D01*
X31563Y-21837D01*
X31506Y-21861D01*
X31506Y-21009D01*
X31467Y-20915D01*
X31395Y-20843D01*
X31301Y-20805D01*
X31200Y-20804D01*
X31106Y-20843D01*
X31034Y-20915D01*
X30996Y-21009D01*
X30995Y-21110D01*
X31034Y-21204D01*
X31106Y-21276D01*
X31200Y-21314D01*
X31301Y-21315D01*
X31395Y-21276D01*
X31467Y-21204D01*
X31505Y-21110D01*
X31506Y-21009D01*
X31506Y-21861D01*
X31469Y-21876D01*
X31443Y-21903D01*
X31417Y-21877D01*
X31323Y-21839D01*
X31222Y-21838D01*
X31160Y-21864D01*
X31194Y-21780D01*
X31195Y-21679D01*
X31156Y-21585D01*
X31084Y-21513D01*
X30990Y-21475D01*
X30889Y-21474D01*
X30795Y-21513D01*
X30723Y-21585D01*
X30685Y-21679D01*
X30684Y-21780D01*
X30723Y-21874D01*
X30795Y-21946D01*
X30889Y-21984D01*
X30990Y-21985D01*
X31052Y-21959D01*
X31018Y-22043D01*
X31017Y-22144D01*
X31056Y-22238D01*
X31128Y-22310D01*
X31222Y-22348D01*
X31234Y-22348D01*
X30871Y-22712D01*
X30489Y-22712D01*
X30489Y-18863D01*
X30450Y-18769D01*
X30378Y-18697D01*
X30292Y-18662D01*
X30326Y-18648D01*
X30398Y-18576D01*
X30436Y-18482D01*
X30437Y-18381D01*
X30398Y-18287D01*
X30326Y-18215D01*
X30232Y-18177D01*
X30131Y-18176D01*
X30037Y-18215D01*
X29965Y-18287D01*
X29927Y-18381D01*
X29926Y-18482D01*
X29965Y-18576D01*
X30037Y-18648D01*
X30123Y-18683D01*
X30089Y-18697D01*
X30017Y-18769D01*
X29979Y-18863D01*
X29978Y-18964D01*
X30017Y-19058D01*
X30089Y-19130D01*
X30183Y-19168D01*
X30284Y-19169D01*
X30378Y-19130D01*
X30450Y-19058D01*
X30488Y-18964D01*
X30489Y-18863D01*
X30489Y-22712D01*
X30443Y-22712D01*
X30443Y-20769D01*
X30404Y-20675D01*
X30332Y-20603D01*
X30238Y-20565D01*
X30137Y-20564D01*
X30043Y-20603D01*
X29985Y-20662D01*
X29969Y-20623D01*
X29897Y-20551D01*
X29803Y-20513D01*
X29702Y-20512D01*
X29608Y-20551D01*
X29536Y-20623D01*
X29498Y-20717D01*
X29497Y-20818D01*
X29536Y-20912D01*
X29608Y-20984D01*
X29702Y-21022D01*
X29803Y-21023D01*
X29897Y-20984D01*
X29955Y-20925D01*
X29971Y-20964D01*
X30043Y-21036D01*
X30137Y-21074D01*
X30238Y-21075D01*
X30332Y-21036D01*
X30404Y-20964D01*
X30442Y-20870D01*
X30443Y-20769D01*
X30443Y-22712D01*
X30335Y-22712D01*
X30265Y-22641D01*
X30265Y-22130D01*
X30255Y-22083D01*
X30253Y-22074D01*
X30253Y-22074D01*
X30222Y-22027D01*
X30222Y-22027D01*
X28034Y-19839D01*
X27987Y-19808D01*
X27978Y-19806D01*
X27932Y-19797D01*
X27389Y-19797D01*
X27415Y-19732D01*
X27416Y-19631D01*
X27377Y-19537D01*
X27350Y-19510D01*
X27350Y-19092D01*
X27311Y-18998D01*
X27239Y-18926D01*
X27145Y-18888D01*
X27044Y-18887D01*
X26950Y-18926D01*
X26878Y-18998D01*
X26840Y-19092D01*
X26839Y-19193D01*
X26878Y-19287D01*
X26950Y-19359D01*
X27044Y-19397D01*
X27145Y-19398D01*
X27239Y-19359D01*
X27311Y-19287D01*
X27349Y-19193D01*
X27350Y-19092D01*
X27350Y-19510D01*
X27305Y-19465D01*
X27211Y-19427D01*
X27110Y-19426D01*
X27016Y-19465D01*
X26944Y-19537D01*
X26906Y-19631D01*
X26905Y-19732D01*
X26932Y-19797D01*
X26833Y-19797D01*
X26833Y-18643D01*
X26794Y-18549D01*
X26722Y-18477D01*
X26628Y-18439D01*
X26527Y-18438D01*
X26433Y-18477D01*
X26361Y-18549D01*
X26323Y-18643D01*
X26322Y-18744D01*
X26361Y-18838D01*
X26433Y-18910D01*
X26527Y-18948D01*
X26628Y-18949D01*
X26722Y-18910D01*
X26794Y-18838D01*
X26832Y-18744D01*
X26833Y-18643D01*
X26833Y-19797D01*
X26497Y-19797D01*
X26097Y-19397D01*
X26149Y-19376D01*
X26221Y-19304D01*
X26259Y-19210D01*
X26260Y-19109D01*
X26221Y-19015D01*
X26149Y-18943D01*
X26055Y-18905D01*
X25954Y-18904D01*
X25860Y-18943D01*
X25830Y-18974D01*
X25800Y-18944D01*
X25706Y-18906D01*
X25605Y-18905D01*
X25511Y-18944D01*
X25439Y-19016D01*
X25401Y-19110D01*
X25400Y-19211D01*
X25439Y-19305D01*
X25511Y-19377D01*
X25605Y-19415D01*
X25705Y-19416D01*
X26334Y-20044D01*
X26381Y-20075D01*
X26381Y-20075D01*
X26390Y-20077D01*
X26437Y-20087D01*
X26802Y-20087D01*
X26778Y-20110D01*
X26740Y-20204D01*
X26739Y-20305D01*
X26778Y-20399D01*
X26850Y-20471D01*
X26944Y-20509D01*
X27039Y-20510D01*
X27071Y-20588D01*
X27143Y-20660D01*
X27237Y-20698D01*
X27338Y-20699D01*
X27432Y-20660D01*
X27504Y-20588D01*
X27542Y-20494D01*
X27543Y-20393D01*
X27504Y-20299D01*
X27432Y-20227D01*
X27338Y-20189D01*
X27243Y-20188D01*
X27211Y-20110D01*
X27187Y-20087D01*
X27871Y-20087D01*
X29783Y-21999D01*
X29726Y-21998D01*
X29632Y-22037D01*
X29560Y-22109D01*
X29559Y-22112D01*
X29554Y-22099D01*
X29482Y-22027D01*
X29388Y-21989D01*
X29287Y-21988D01*
X29193Y-22027D01*
X29121Y-22099D01*
X29083Y-22193D01*
X29082Y-22294D01*
X29121Y-22388D01*
X29193Y-22460D01*
X29287Y-22498D01*
X29388Y-22499D01*
X29482Y-22460D01*
X29554Y-22388D01*
X29555Y-22385D01*
X29560Y-22398D01*
X29632Y-22470D01*
X29726Y-22508D01*
X29827Y-22509D01*
X29921Y-22470D01*
X29975Y-22416D01*
X29975Y-22641D01*
X29904Y-22712D01*
X27915Y-22712D01*
X27907Y-22713D01*
X27869Y-22698D01*
X27768Y-22697D01*
X27674Y-22736D01*
X27602Y-22808D01*
X27564Y-22902D01*
X27563Y-23003D01*
X27602Y-23097D01*
X27674Y-23169D01*
X27768Y-23207D01*
X27869Y-23208D01*
X27963Y-23169D01*
X28035Y-23097D01*
X28073Y-23003D01*
X28073Y-23002D01*
X29902Y-23002D01*
X29835Y-23068D01*
X29796Y-23162D01*
X29796Y-23264D01*
X29835Y-23357D01*
X29905Y-23427D01*
X29905Y-23930D01*
X29711Y-23930D01*
X29711Y-23210D01*
X29672Y-23116D01*
X29600Y-23044D01*
X29506Y-23006D01*
X29405Y-23005D01*
X29311Y-23044D01*
X29239Y-23116D01*
X29224Y-23153D01*
X29178Y-23135D01*
X29077Y-23134D01*
X28983Y-23173D01*
X28911Y-23245D01*
X28873Y-23339D01*
X28872Y-23440D01*
X28911Y-23534D01*
X28983Y-23606D01*
X29077Y-23644D01*
X29178Y-23645D01*
X29272Y-23606D01*
X29344Y-23534D01*
X29359Y-23497D01*
X29405Y-23515D01*
X29506Y-23516D01*
X29600Y-23477D01*
X29672Y-23405D01*
X29710Y-23311D01*
X29711Y-23210D01*
X29711Y-23930D01*
X27500Y-23929D01*
X27500Y-26464D01*
X27406Y-26558D01*
X27404Y-26558D01*
X27303Y-26557D01*
X27230Y-26588D01*
X27215Y-26552D01*
X27143Y-26480D01*
X27049Y-26442D01*
X26948Y-26441D01*
X26943Y-26444D01*
X26861Y-26361D01*
X26861Y-25646D01*
X26885Y-25671D01*
X26979Y-25709D01*
X27080Y-25710D01*
X27174Y-25671D01*
X27246Y-25599D01*
X27284Y-25505D01*
X27285Y-25404D01*
X27246Y-25310D01*
X27174Y-25238D01*
X27080Y-25200D01*
X27071Y-25200D01*
X27129Y-25176D01*
X27201Y-25104D01*
X27239Y-25010D01*
X27240Y-24909D01*
X27201Y-24815D01*
X27129Y-24743D01*
X27035Y-24705D01*
X26934Y-24704D01*
X26861Y-24735D01*
X26861Y-24171D01*
X26898Y-24156D01*
X26970Y-24084D01*
X27008Y-23990D01*
X27009Y-23889D01*
X26970Y-23795D01*
X26898Y-23723D01*
X26804Y-23685D01*
X26703Y-23684D01*
X26609Y-23723D01*
X26537Y-23795D01*
X26499Y-23889D01*
X26498Y-23990D01*
X26537Y-24084D01*
X26571Y-24117D01*
X26571Y-24592D01*
X26546Y-24567D01*
X26452Y-24529D01*
X26351Y-24528D01*
X26311Y-24545D01*
X26311Y-23331D01*
X26337Y-23396D01*
X26409Y-23468D01*
X26503Y-23506D01*
X26604Y-23507D01*
X26698Y-23468D01*
X26770Y-23396D01*
X26808Y-23302D01*
X26809Y-23202D01*
X27387Y-22623D01*
X27387Y-22623D01*
X27418Y-22576D01*
X27418Y-22576D01*
X27420Y-22567D01*
X27424Y-22547D01*
X27434Y-22557D01*
X27528Y-22595D01*
X27629Y-22596D01*
X27723Y-22557D01*
X27795Y-22485D01*
X27833Y-22391D01*
X27834Y-22290D01*
X27795Y-22196D01*
X27723Y-22124D01*
X27629Y-22086D01*
X27528Y-22085D01*
X27434Y-22124D01*
X27430Y-22129D01*
X27430Y-22110D01*
X27501Y-22039D01*
X27539Y-21945D01*
X27540Y-21844D01*
X27523Y-21805D01*
X27557Y-21791D01*
X27629Y-21719D01*
X27667Y-21625D01*
X27668Y-21524D01*
X27629Y-21430D01*
X27557Y-21358D01*
X27551Y-21356D01*
X27548Y-21341D01*
X27546Y-21332D01*
X27546Y-21332D01*
X27515Y-21285D01*
X27515Y-21285D01*
X26391Y-20161D01*
X26344Y-20130D01*
X26335Y-20128D01*
X26289Y-20119D01*
X26047Y-20119D01*
X25976Y-20047D01*
X25882Y-20009D01*
X25781Y-20008D01*
X25687Y-20047D01*
X25615Y-20119D01*
X25577Y-20213D01*
X25576Y-20314D01*
X25587Y-20339D01*
X25540Y-20291D01*
X25540Y-20002D01*
X25522Y-19959D01*
X25490Y-19927D01*
X25447Y-19910D01*
X25402Y-19910D01*
X25380Y-19910D01*
X25380Y-18132D01*
X32510Y-18132D01*
X32510Y-19882D01*
X32510Y-19882D01*
G37*
G54D21*
X32510Y-19882D02*
X32453Y-19882D01*
X32410Y-19899D01*
X32378Y-19931D01*
X32361Y-19974D01*
X32361Y-20019D01*
X32361Y-20248D01*
X31866Y-20742D01*
X31835Y-20790D01*
X31833Y-20799D01*
X31824Y-20845D01*
X31824Y-21942D01*
X31758Y-21876D01*
X31664Y-21838D01*
X31563Y-21837D01*
X31506Y-21861D01*
X31506Y-21009D01*
X31467Y-20915D01*
X31395Y-20843D01*
X31301Y-20805D01*
X31200Y-20804D01*
X31106Y-20843D01*
X31034Y-20915D01*
X30996Y-21009D01*
X30995Y-21110D01*
X31034Y-21204D01*
X31106Y-21276D01*
X31200Y-21314D01*
X31301Y-21315D01*
X31395Y-21276D01*
X31467Y-21204D01*
X31505Y-21110D01*
X31506Y-21009D01*
X31506Y-21861D01*
X31469Y-21876D01*
X31443Y-21903D01*
X31417Y-21877D01*
X31323Y-21839D01*
X31222Y-21838D01*
X31160Y-21864D01*
X31194Y-21780D01*
X31195Y-21679D01*
X31156Y-21585D01*
X31084Y-21513D01*
X30990Y-21475D01*
X30889Y-21474D01*
X30795Y-21513D01*
X30723Y-21585D01*
X30685Y-21679D01*
X30684Y-21780D01*
X30723Y-21874D01*
X30795Y-21946D01*
X30889Y-21984D01*
X30990Y-21985D01*
X31052Y-21959D01*
X31018Y-22043D01*
X31017Y-22144D01*
X31056Y-22238D01*
X31128Y-22310D01*
X31222Y-22348D01*
X31234Y-22348D01*
X30871Y-22712D01*
X30489Y-22712D01*
X30489Y-18863D01*
X30450Y-18769D01*
X30378Y-18697D01*
X30292Y-18662D01*
X30326Y-18648D01*
X30398Y-18576D01*
X30436Y-18482D01*
X30437Y-18381D01*
X30398Y-18287D01*
X30326Y-18215D01*
X30232Y-18177D01*
X30131Y-18176D01*
X30037Y-18215D01*
X29965Y-18287D01*
X29927Y-18381D01*
X29926Y-18482D01*
X29965Y-18576D01*
X30037Y-18648D01*
X30123Y-18683D01*
X30089Y-18697D01*
X30017Y-18769D01*
X29979Y-18863D01*
X29978Y-18964D01*
X30017Y-19058D01*
X30089Y-19130D01*
X30183Y-19168D01*
X30284Y-19169D01*
X30378Y-19130D01*
X30450Y-19058D01*
X30488Y-18964D01*
X30489Y-18863D01*
X30489Y-22712D01*
X30443Y-22712D01*
X30443Y-20769D01*
X30404Y-20675D01*
X30332Y-20603D01*
X30238Y-20565D01*
X30137Y-20564D01*
X30043Y-20603D01*
X29985Y-20662D01*
X29969Y-20623D01*
X29897Y-20551D01*
X29803Y-20513D01*
X29702Y-20512D01*
X29608Y-20551D01*
X29536Y-20623D01*
X29498Y-20717D01*
X29497Y-20818D01*
X29536Y-20912D01*
X29608Y-20984D01*
X29702Y-21022D01*
X29803Y-21023D01*
X29897Y-20984D01*
X29955Y-20925D01*
X29971Y-20964D01*
X30043Y-21036D01*
X30137Y-21074D01*
X30238Y-21075D01*
X30332Y-21036D01*
X30404Y-20964D01*
X30442Y-20870D01*
X30443Y-20769D01*
X30443Y-22712D01*
X30335Y-22712D01*
X30265Y-22641D01*
X30265Y-22130D01*
X30255Y-22083D01*
X30253Y-22074D01*
X30253Y-22074D01*
X30222Y-22027D01*
X30222Y-22027D01*
X28034Y-19839D01*
X27987Y-19808D01*
X27978Y-19806D01*
X27932Y-19797D01*
X27389Y-19797D01*
X27415Y-19732D01*
X27416Y-19631D01*
X27377Y-19537D01*
X27350Y-19510D01*
X27350Y-19092D01*
X27311Y-18998D01*
X27239Y-18926D01*
X27145Y-18888D01*
X27044Y-18887D01*
X26950Y-18926D01*
X26878Y-18998D01*
X26840Y-19092D01*
X26839Y-19193D01*
X26878Y-19287D01*
X26950Y-19359D01*
X27044Y-19397D01*
X27145Y-19398D01*
X27239Y-19359D01*
X27311Y-19287D01*
X27349Y-19193D01*
X27350Y-19092D01*
X27350Y-19510D01*
X27305Y-19465D01*
X27211Y-19427D01*
X27110Y-19426D01*
X27016Y-19465D01*
X26944Y-19537D01*
X26906Y-19631D01*
X26905Y-19732D01*
X26932Y-19797D01*
X26833Y-19797D01*
X26833Y-18643D01*
X26794Y-18549D01*
X26722Y-18477D01*
X26628Y-18439D01*
X26527Y-18438D01*
X26433Y-18477D01*
X26361Y-18549D01*
X26323Y-18643D01*
X26322Y-18744D01*
X26361Y-18838D01*
X26433Y-18910D01*
X26527Y-18948D01*
X26628Y-18949D01*
X26722Y-18910D01*
X26794Y-18838D01*
X26832Y-18744D01*
X26833Y-18643D01*
X26833Y-19797D01*
X26497Y-19797D01*
X26097Y-19397D01*
X26149Y-19376D01*
X26221Y-19304D01*
X26259Y-19210D01*
X26260Y-19109D01*
X26221Y-19015D01*
X26149Y-18943D01*
X26055Y-18905D01*
X25954Y-18904D01*
X25860Y-18943D01*
X25830Y-18974D01*
X25800Y-18944D01*
X25706Y-18906D01*
X25605Y-18905D01*
X25511Y-18944D01*
X25439Y-19016D01*
X25401Y-19110D01*
X25400Y-19211D01*
X25439Y-19305D01*
X25511Y-19377D01*
X25605Y-19415D01*
X25705Y-19416D01*
X26334Y-20044D01*
X26381Y-20075D01*
X26381Y-20075D01*
X26390Y-20077D01*
X26437Y-20087D01*
X26802Y-20087D01*
X26778Y-20110D01*
X26740Y-20204D01*
X26739Y-20305D01*
X26778Y-20399D01*
X26850Y-20471D01*
X26944Y-20509D01*
X27039Y-20510D01*
X27071Y-20588D01*
X27143Y-20660D01*
X27237Y-20698D01*
X27338Y-20699D01*
X27432Y-20660D01*
X27504Y-20588D01*
X27542Y-20494D01*
X27543Y-20393D01*
X27504Y-20299D01*
X27432Y-20227D01*
X27338Y-20189D01*
X27243Y-20188D01*
X27211Y-20110D01*
X27187Y-20087D01*
X27871Y-20087D01*
X29783Y-21999D01*
X29726Y-21998D01*
X29632Y-22037D01*
X29560Y-22109D01*
X29559Y-22112D01*
X29554Y-22099D01*
X29482Y-22027D01*
X29388Y-21989D01*
X29287Y-21988D01*
X29193Y-22027D01*
X29121Y-22099D01*
X29083Y-22193D01*
X29082Y-22294D01*
X29121Y-22388D01*
X29193Y-22460D01*
X29287Y-22498D01*
X29388Y-22499D01*
X29482Y-22460D01*
X29554Y-22388D01*
X29555Y-22385D01*
X29560Y-22398D01*
X29632Y-22470D01*
X29726Y-22508D01*
X29827Y-22509D01*
X29921Y-22470D01*
X29975Y-22416D01*
X29975Y-22641D01*
X29904Y-22712D01*
X27915Y-22712D01*
X27907Y-22713D01*
X27869Y-22698D01*
X27768Y-22697D01*
X27674Y-22736D01*
X27602Y-22808D01*
X27564Y-22902D01*
X27563Y-23003D01*
X27602Y-23097D01*
X27674Y-23169D01*
X27768Y-23207D01*
X27869Y-23208D01*
X27963Y-23169D01*
X28035Y-23097D01*
X28073Y-23003D01*
X28073Y-23002D01*
X29902Y-23002D01*
X29835Y-23068D01*
X29796Y-23162D01*
X29796Y-23264D01*
X29835Y-23357D01*
X29905Y-23427D01*
X29905Y-23930D01*
X29711Y-23930D01*
X29711Y-23210D01*
X29672Y-23116D01*
X29600Y-23044D01*
X29506Y-23006D01*
X29405Y-23005D01*
X29311Y-23044D01*
X29239Y-23116D01*
X29224Y-23153D01*
X29178Y-23135D01*
X29077Y-23134D01*
X28983Y-23173D01*
X28911Y-23245D01*
X28873Y-23339D01*
X28872Y-23440D01*
X28911Y-23534D01*
X28983Y-23606D01*
X29077Y-23644D01*
X29178Y-23645D01*
X29272Y-23606D01*
X29344Y-23534D01*
X29359Y-23497D01*
X29405Y-23515D01*
X29506Y-23516D01*
X29600Y-23477D01*
X29672Y-23405D01*
X29710Y-23311D01*
X29711Y-23210D01*
X29711Y-23930D01*
X27500Y-23929D01*
X27500Y-26464D01*
X27406Y-26558D01*
X27404Y-26558D01*
X27303Y-26557D01*
X27230Y-26588D01*
X27215Y-26552D01*
X27143Y-26480D01*
X27049Y-26442D01*
X26948Y-26441D01*
X26943Y-26444D01*
X26861Y-26361D01*
X26861Y-25646D01*
X26885Y-25671D01*
X26979Y-25709D01*
X27080Y-25710D01*
X27174Y-25671D01*
X27246Y-25599D01*
X27284Y-25505D01*
X27285Y-25404D01*
X27246Y-25310D01*
X27174Y-25238D01*
X27080Y-25200D01*
X27071Y-25200D01*
X27129Y-25176D01*
X27201Y-25104D01*
X27239Y-25010D01*
X27240Y-24909D01*
X27201Y-24815D01*
X27129Y-24743D01*
X27035Y-24705D01*
X26934Y-24704D01*
X26861Y-24735D01*
X26861Y-24171D01*
X26898Y-24156D01*
X26970Y-24084D01*
X27008Y-23990D01*
X27009Y-23889D01*
X26970Y-23795D01*
X26898Y-23723D01*
X26804Y-23685D01*
X26703Y-23684D01*
X26609Y-23723D01*
X26537Y-23795D01*
X26499Y-23889D01*
X26498Y-23990D01*
X26537Y-24084D01*
X26571Y-24117D01*
X26571Y-24592D01*
X26546Y-24567D01*
X26452Y-24529D01*
X26351Y-24528D01*
X26311Y-24545D01*
X26311Y-23331D01*
X26337Y-23396D01*
X26409Y-23468D01*
X26503Y-23506D01*
X26604Y-23507D01*
X26698Y-23468D01*
X26770Y-23396D01*
X26808Y-23302D01*
X26809Y-23202D01*
X27387Y-22623D01*
X27387Y-22623D01*
X27418Y-22576D01*
X27418Y-22576D01*
X27420Y-22567D01*
X27424Y-22547D01*
X27434Y-22557D01*
X27528Y-22595D01*
X27629Y-22596D01*
X27723Y-22557D01*
X27795Y-22485D01*
X27833Y-22391D01*
X27834Y-22290D01*
X27795Y-22196D01*
X27723Y-22124D01*
X27629Y-22086D01*
X27528Y-22085D01*
X27434Y-22124D01*
X27430Y-22129D01*
X27430Y-22110D01*
X27501Y-22039D01*
X27539Y-21945D01*
X27540Y-21844D01*
X27523Y-21805D01*
X27557Y-21791D01*
X27629Y-21719D01*
X27667Y-21625D01*
X27668Y-21524D01*
X27629Y-21430D01*
X27557Y-21358D01*
X27551Y-21356D01*
X27548Y-21341D01*
X27546Y-21332D01*
X27546Y-21332D01*
X27515Y-21285D01*
X27515Y-21285D01*
X26391Y-20161D01*
X26344Y-20130D01*
X26335Y-20128D01*
X26289Y-20119D01*
X26047Y-20119D01*
X25976Y-20047D01*
X25882Y-20009D01*
X25781Y-20008D01*
X25687Y-20047D01*
X25615Y-20119D01*
X25577Y-20213D01*
X25576Y-20314D01*
X25587Y-20339D01*
X25540Y-20291D01*
X25540Y-20002D01*
X25522Y-19959D01*
X25490Y-19927D01*
X25447Y-19910D01*
X25402Y-19910D01*
X25380Y-19910D01*
X25380Y-18132D01*
X32510Y-18132D01*
X32510Y-19882D01*
G54D10*
G36*
X32510Y-28172D02*
X32389Y-28172D01*
X32361Y-28200D01*
X32361Y-28329D01*
X32378Y-28372D01*
X32408Y-28402D01*
X32378Y-28431D01*
X32361Y-28474D01*
X32361Y-28519D01*
X32361Y-28829D01*
X32373Y-28860D01*
X31628Y-28860D01*
X32372Y-28115D01*
X32389Y-28132D01*
X32510Y-28132D01*
X32510Y-28172D01*
X32510Y-28172D01*
G37*
G54D21*
X32510Y-28172D02*
X32389Y-28172D01*
X32361Y-28200D01*
X32361Y-28329D01*
X32378Y-28372D01*
X32408Y-28402D01*
X32378Y-28431D01*
X32361Y-28474D01*
X32361Y-28519D01*
X32361Y-28829D01*
X32373Y-28860D01*
X31628Y-28860D01*
X32372Y-28115D01*
X32389Y-28132D01*
X32510Y-28132D01*
X32510Y-28172D01*
G54D10*
G36*
X32510Y-32485D02*
X30851Y-32485D01*
X30866Y-32448D01*
X30867Y-32347D01*
X30828Y-32253D01*
X30756Y-32181D01*
X30662Y-32143D01*
X30561Y-32142D01*
X30467Y-32181D01*
X30395Y-32253D01*
X30357Y-32347D01*
X30356Y-32448D01*
X30372Y-32485D01*
X30280Y-32485D01*
X29930Y-32485D01*
X29915Y-32487D01*
X29901Y-32487D01*
X29769Y-32514D01*
X29769Y-32514D01*
X29717Y-32535D01*
X29620Y-32600D01*
X29620Y-32562D01*
X29620Y-32422D01*
X29629Y-32432D01*
X29672Y-32450D01*
X29717Y-32450D01*
X30027Y-32450D01*
X30070Y-32432D01*
X30102Y-32400D01*
X30120Y-32357D01*
X30120Y-32312D01*
X30120Y-32002D01*
X30102Y-31959D01*
X30072Y-31930D01*
X30102Y-31900D01*
X30120Y-31857D01*
X30120Y-31812D01*
X30120Y-31502D01*
X30102Y-31459D01*
X30072Y-31430D01*
X30102Y-31400D01*
X30120Y-31357D01*
X30120Y-31312D01*
X30120Y-31002D01*
X30102Y-30959D01*
X30072Y-30930D01*
X30102Y-30900D01*
X30120Y-30857D01*
X30120Y-30812D01*
X30120Y-30502D01*
X30102Y-30459D01*
X30072Y-30430D01*
X30102Y-30400D01*
X30120Y-30357D01*
X30120Y-30228D01*
X30120Y-30131D01*
X30120Y-30002D01*
X30102Y-29959D01*
X30070Y-29927D01*
X30027Y-29910D01*
X29982Y-29910D01*
X29898Y-29910D01*
X29870Y-29938D01*
X29870Y-30160D01*
X30091Y-30160D01*
X30120Y-30131D01*
X30120Y-30228D01*
X30091Y-30200D01*
X29870Y-30200D01*
X29870Y-30207D01*
X29830Y-30207D01*
X29830Y-30200D01*
X29608Y-30200D01*
X29600Y-30208D01*
X29572Y-30180D01*
X29600Y-30151D01*
X29608Y-30160D01*
X29830Y-30160D01*
X29830Y-29938D01*
X29801Y-29910D01*
X29717Y-29910D01*
X29672Y-29910D01*
X29629Y-29927D01*
X29620Y-29937D01*
X29620Y-29767D01*
X29709Y-29827D01*
X29762Y-29849D01*
X29762Y-29849D01*
X29901Y-29877D01*
X29915Y-29877D01*
X29930Y-29880D01*
X30280Y-29880D01*
X32510Y-29880D01*
X32510Y-32485D01*
X32510Y-32485D01*
G37*
G54D21*
X32510Y-32485D02*
X30851Y-32485D01*
X30866Y-32448D01*
X30867Y-32347D01*
X30828Y-32253D01*
X30756Y-32181D01*
X30662Y-32143D01*
X30561Y-32142D01*
X30467Y-32181D01*
X30395Y-32253D01*
X30357Y-32347D01*
X30356Y-32448D01*
X30372Y-32485D01*
X30280Y-32485D01*
X29930Y-32485D01*
X29915Y-32487D01*
X29901Y-32487D01*
X29769Y-32514D01*
X29769Y-32514D01*
X29717Y-32535D01*
X29620Y-32600D01*
X29620Y-32562D01*
X29620Y-32422D01*
X29629Y-32432D01*
X29672Y-32450D01*
X29717Y-32450D01*
X30027Y-32450D01*
X30070Y-32432D01*
X30102Y-32400D01*
X30120Y-32357D01*
X30120Y-32312D01*
X30120Y-32002D01*
X30102Y-31959D01*
X30072Y-31930D01*
X30102Y-31900D01*
X30120Y-31857D01*
X30120Y-31812D01*
X30120Y-31502D01*
X30102Y-31459D01*
X30072Y-31430D01*
X30102Y-31400D01*
X30120Y-31357D01*
X30120Y-31312D01*
X30120Y-31002D01*
X30102Y-30959D01*
X30072Y-30930D01*
X30102Y-30900D01*
X30120Y-30857D01*
X30120Y-30812D01*
X30120Y-30502D01*
X30102Y-30459D01*
X30072Y-30430D01*
X30102Y-30400D01*
X30120Y-30357D01*
X30120Y-30228D01*
X30120Y-30131D01*
X30120Y-30002D01*
X30102Y-29959D01*
X30070Y-29927D01*
X30027Y-29910D01*
X29982Y-29910D01*
X29898Y-29910D01*
X29870Y-29938D01*
X29870Y-30160D01*
X30091Y-30160D01*
X30120Y-30131D01*
X30120Y-30228D01*
X30091Y-30200D01*
X29870Y-30200D01*
X29870Y-30207D01*
X29830Y-30207D01*
X29830Y-30200D01*
X29608Y-30200D01*
X29600Y-30208D01*
X29572Y-30180D01*
X29600Y-30151D01*
X29608Y-30160D01*
X29830Y-30160D01*
X29830Y-29938D01*
X29801Y-29910D01*
X29717Y-29910D01*
X29672Y-29910D01*
X29629Y-29927D01*
X29620Y-29937D01*
X29620Y-29767D01*
X29709Y-29827D01*
X29762Y-29849D01*
X29762Y-29849D01*
X29901Y-29877D01*
X29915Y-29877D01*
X29930Y-29880D01*
X30280Y-29880D01*
X32510Y-29880D01*
X32510Y-32485D01*
G54D10*
G36*
X32510Y-38942D02*
X32489Y-38894D01*
X32429Y-38862D01*
X32168Y-39124D01*
X32173Y-39129D01*
X32145Y-39157D01*
X32140Y-39152D01*
X32111Y-39180D01*
X32111Y-39124D01*
X31850Y-38862D01*
X31790Y-38894D01*
X31728Y-39045D01*
X31730Y-39209D01*
X31790Y-39353D01*
X31850Y-39385D01*
X32111Y-39124D01*
X32111Y-39180D01*
X31878Y-39413D01*
X31910Y-39473D01*
X32018Y-39517D01*
X31940Y-39570D01*
X31940Y-39570D01*
X31920Y-39590D01*
X31900Y-39610D01*
X31900Y-39610D01*
X31770Y-39804D01*
X31770Y-39804D01*
X31748Y-39857D01*
X31702Y-40086D01*
X31702Y-40100D01*
X31700Y-40115D01*
X31700Y-40200D01*
X31638Y-40200D01*
X31688Y-40125D01*
X31719Y-39968D01*
X31719Y-39350D01*
X31688Y-39193D01*
X31599Y-39060D01*
X31466Y-38971D01*
X31309Y-38940D01*
X31152Y-38971D01*
X31019Y-39060D01*
X30930Y-39193D01*
X30898Y-39350D01*
X30898Y-39968D01*
X30930Y-40125D01*
X30979Y-40200D01*
X30514Y-40200D01*
X30514Y-39051D01*
X30324Y-38861D01*
X30280Y-38906D01*
X30135Y-39051D01*
X30154Y-39101D01*
X30270Y-39146D01*
X30280Y-39145D01*
X30394Y-39143D01*
X30495Y-39101D01*
X30514Y-39051D01*
X30514Y-40200D01*
X30280Y-40200D01*
X30203Y-40200D01*
X30203Y-39590D01*
X30150Y-39460D01*
X30051Y-39362D01*
X29922Y-39308D01*
X29782Y-39308D01*
X29653Y-39361D01*
X29652Y-39362D01*
X29652Y-38771D01*
X29605Y-38656D01*
X29517Y-38568D01*
X29403Y-38521D01*
X29278Y-38520D01*
X29164Y-38568D01*
X29076Y-38655D01*
X29028Y-38770D01*
X29028Y-38894D01*
X29076Y-39009D01*
X29163Y-39097D01*
X29278Y-39144D01*
X29402Y-39144D01*
X29517Y-39097D01*
X29604Y-39009D01*
X29652Y-38895D01*
X29652Y-38771D01*
X29652Y-39362D01*
X29554Y-39460D01*
X29501Y-39589D01*
X29501Y-39729D01*
X29554Y-39858D01*
X29653Y-39957D01*
X29782Y-40010D01*
X29922Y-40010D01*
X30051Y-39957D01*
X30150Y-39858D01*
X30203Y-39729D01*
X30203Y-39590D01*
X30203Y-40200D01*
X28865Y-40200D01*
X28865Y-38771D01*
X28817Y-38656D01*
X28730Y-38568D01*
X28615Y-38521D01*
X28491Y-38520D01*
X28421Y-38550D01*
X28421Y-38061D01*
X28382Y-37967D01*
X28310Y-37895D01*
X28216Y-37857D01*
X28115Y-37856D01*
X28021Y-37895D01*
X27949Y-37967D01*
X27911Y-38061D01*
X27910Y-38162D01*
X27949Y-38256D01*
X28021Y-38328D01*
X28115Y-38366D01*
X28216Y-38367D01*
X28310Y-38328D01*
X28382Y-38256D01*
X28420Y-38162D01*
X28421Y-38061D01*
X28421Y-38550D01*
X28376Y-38568D01*
X28289Y-38655D01*
X28241Y-38770D01*
X28241Y-38894D01*
X28288Y-39009D01*
X28376Y-39097D01*
X28490Y-39144D01*
X28615Y-39144D01*
X28729Y-39097D01*
X28817Y-39009D01*
X28865Y-38895D01*
X28865Y-38771D01*
X28865Y-40200D01*
X28392Y-40200D01*
X28392Y-39590D01*
X28339Y-39460D01*
X28240Y-39362D01*
X28111Y-39308D01*
X27971Y-39308D01*
X27880Y-39345D01*
X27880Y-38771D01*
X27833Y-38656D01*
X27745Y-38568D01*
X27631Y-38521D01*
X27507Y-38520D01*
X27392Y-38568D01*
X27304Y-38655D01*
X27257Y-38770D01*
X27257Y-38894D01*
X27304Y-39009D01*
X27392Y-39097D01*
X27506Y-39144D01*
X27630Y-39144D01*
X27745Y-39097D01*
X27833Y-39009D01*
X27880Y-38895D01*
X27880Y-38771D01*
X27880Y-39345D01*
X27842Y-39361D01*
X27743Y-39460D01*
X27690Y-39589D01*
X27690Y-39729D01*
X27743Y-39858D01*
X27842Y-39957D01*
X27971Y-40010D01*
X28111Y-40010D01*
X28240Y-39957D01*
X28339Y-39858D01*
X28392Y-39729D01*
X28392Y-39590D01*
X28392Y-40200D01*
X26914Y-40200D01*
X26963Y-40125D01*
X26995Y-39968D01*
X26995Y-39350D01*
X26963Y-39193D01*
X26874Y-39060D01*
X26741Y-38971D01*
X26584Y-38940D01*
X26427Y-38971D01*
X26294Y-39060D01*
X26205Y-39193D01*
X26174Y-39350D01*
X26174Y-39968D01*
X26205Y-40125D01*
X26255Y-40200D01*
X26190Y-40200D01*
X26190Y-40115D01*
X26187Y-40100D01*
X26187Y-40086D01*
X26141Y-39857D01*
X26119Y-39804D01*
X25989Y-39610D01*
X25989Y-39610D01*
X25989Y-39610D01*
X25969Y-39590D01*
X25949Y-39570D01*
X25949Y-39570D01*
X25872Y-39518D01*
X26052Y-39518D01*
X26094Y-39500D01*
X26126Y-39468D01*
X26144Y-39426D01*
X26144Y-39380D01*
X26144Y-38789D01*
X26132Y-38761D01*
X26272Y-38703D01*
X26434Y-38542D01*
X26521Y-38330D01*
X26522Y-38102D01*
X26434Y-37890D01*
X26273Y-37728D01*
X26061Y-37641D01*
X25833Y-37640D01*
X25832Y-37641D01*
X25848Y-37602D01*
X25848Y-37557D01*
X25848Y-37247D01*
X25830Y-37204D01*
X25798Y-37172D01*
X25755Y-37155D01*
X25728Y-37155D01*
X25730Y-37154D01*
X25806Y-37078D01*
X25847Y-36978D01*
X25847Y-36951D01*
X26539Y-37642D01*
X26539Y-37642D01*
X26586Y-37673D01*
X26586Y-37673D01*
X26595Y-37675D01*
X26642Y-37685D01*
X28799Y-37685D01*
X28870Y-37756D01*
X28964Y-37794D01*
X29065Y-37795D01*
X29080Y-37789D01*
X29080Y-37891D01*
X29000Y-37859D01*
X28899Y-37858D01*
X28805Y-37897D01*
X28733Y-37969D01*
X28695Y-38063D01*
X28694Y-38164D01*
X28733Y-38258D01*
X28805Y-38330D01*
X28899Y-38368D01*
X29000Y-38369D01*
X29094Y-38330D01*
X29166Y-38258D01*
X29204Y-38164D01*
X29205Y-38063D01*
X29203Y-38060D01*
X29217Y-38060D01*
X29435Y-38060D01*
X29422Y-38121D01*
X29422Y-38121D01*
X29422Y-38121D01*
X29422Y-38178D01*
X29422Y-38178D01*
X29450Y-38317D01*
X29472Y-38370D01*
X29472Y-38370D01*
X29472Y-38370D01*
X29551Y-38488D01*
X29591Y-38528D01*
X29591Y-38528D01*
X29591Y-38528D01*
X29709Y-38607D01*
X29762Y-38629D01*
X29762Y-38629D01*
X29901Y-38657D01*
X29915Y-38657D01*
X29930Y-38660D01*
X30062Y-38660D01*
X30056Y-38662D01*
X30011Y-38778D01*
X30014Y-38902D01*
X30056Y-39003D01*
X30106Y-39022D01*
X30280Y-38849D01*
X30296Y-38832D01*
X30291Y-38827D01*
X30319Y-38799D01*
X30324Y-38804D01*
X30330Y-38799D01*
X30358Y-38827D01*
X30353Y-38832D01*
X30543Y-39022D01*
X30593Y-39003D01*
X30638Y-38887D01*
X30635Y-38763D01*
X30593Y-38662D01*
X30586Y-38660D01*
X31577Y-38660D01*
X31620Y-38703D01*
X31832Y-38790D01*
X31901Y-38790D01*
X31878Y-38834D01*
X32140Y-39095D01*
X32401Y-38834D01*
X32369Y-38774D01*
X32234Y-38719D01*
X32272Y-38703D01*
X32316Y-38660D01*
X32510Y-38660D01*
X32510Y-38942D01*
X32510Y-38942D01*
G37*
G54D21*
X32510Y-38942D02*
X32489Y-38894D01*
X32429Y-38862D01*
X32168Y-39124D01*
X32173Y-39129D01*
X32145Y-39157D01*
X32140Y-39152D01*
X32111Y-39180D01*
X32111Y-39124D01*
X31850Y-38862D01*
X31790Y-38894D01*
X31728Y-39045D01*
X31730Y-39209D01*
X31790Y-39353D01*
X31850Y-39385D01*
X32111Y-39124D01*
X32111Y-39180D01*
X31878Y-39413D01*
X31910Y-39473D01*
X32018Y-39517D01*
X31940Y-39570D01*
X31940Y-39570D01*
X31920Y-39590D01*
X31900Y-39610D01*
X31900Y-39610D01*
X31770Y-39804D01*
X31770Y-39804D01*
X31748Y-39857D01*
X31702Y-40086D01*
X31702Y-40100D01*
X31700Y-40115D01*
X31700Y-40200D01*
X31638Y-40200D01*
X31688Y-40125D01*
X31719Y-39968D01*
X31719Y-39350D01*
X31688Y-39193D01*
X31599Y-39060D01*
X31466Y-38971D01*
X31309Y-38940D01*
X31152Y-38971D01*
X31019Y-39060D01*
X30930Y-39193D01*
X30898Y-39350D01*
X30898Y-39968D01*
X30930Y-40125D01*
X30979Y-40200D01*
X30514Y-40200D01*
X30514Y-39051D01*
X30324Y-38861D01*
X30280Y-38906D01*
X30135Y-39051D01*
X30154Y-39101D01*
X30270Y-39146D01*
X30280Y-39145D01*
X30394Y-39143D01*
X30495Y-39101D01*
X30514Y-39051D01*
X30514Y-40200D01*
X30280Y-40200D01*
X30203Y-40200D01*
X30203Y-39590D01*
X30150Y-39460D01*
X30051Y-39362D01*
X29922Y-39308D01*
X29782Y-39308D01*
X29653Y-39361D01*
X29652Y-39362D01*
X29652Y-38771D01*
X29605Y-38656D01*
X29517Y-38568D01*
X29403Y-38521D01*
X29278Y-38520D01*
X29164Y-38568D01*
X29076Y-38655D01*
X29028Y-38770D01*
X29028Y-38894D01*
X29076Y-39009D01*
X29163Y-39097D01*
X29278Y-39144D01*
X29402Y-39144D01*
X29517Y-39097D01*
X29604Y-39009D01*
X29652Y-38895D01*
X29652Y-38771D01*
X29652Y-39362D01*
X29554Y-39460D01*
X29501Y-39589D01*
X29501Y-39729D01*
X29554Y-39858D01*
X29653Y-39957D01*
X29782Y-40010D01*
X29922Y-40010D01*
X30051Y-39957D01*
X30150Y-39858D01*
X30203Y-39729D01*
X30203Y-39590D01*
X30203Y-40200D01*
X28865Y-40200D01*
X28865Y-38771D01*
X28817Y-38656D01*
X28730Y-38568D01*
X28615Y-38521D01*
X28491Y-38520D01*
X28421Y-38550D01*
X28421Y-38061D01*
X28382Y-37967D01*
X28310Y-37895D01*
X28216Y-37857D01*
X28115Y-37856D01*
X28021Y-37895D01*
X27949Y-37967D01*
X27911Y-38061D01*
X27910Y-38162D01*
X27949Y-38256D01*
X28021Y-38328D01*
X28115Y-38366D01*
X28216Y-38367D01*
X28310Y-38328D01*
X28382Y-38256D01*
X28420Y-38162D01*
X28421Y-38061D01*
X28421Y-38550D01*
X28376Y-38568D01*
X28289Y-38655D01*
X28241Y-38770D01*
X28241Y-38894D01*
X28288Y-39009D01*
X28376Y-39097D01*
X28490Y-39144D01*
X28615Y-39144D01*
X28729Y-39097D01*
X28817Y-39009D01*
X28865Y-38895D01*
X28865Y-38771D01*
X28865Y-40200D01*
X28392Y-40200D01*
X28392Y-39590D01*
X28339Y-39460D01*
X28240Y-39362D01*
X28111Y-39308D01*
X27971Y-39308D01*
X27880Y-39345D01*
X27880Y-38771D01*
X27833Y-38656D01*
X27745Y-38568D01*
X27631Y-38521D01*
X27507Y-38520D01*
X27392Y-38568D01*
X27304Y-38655D01*
X27257Y-38770D01*
X27257Y-38894D01*
X27304Y-39009D01*
X27392Y-39097D01*
X27506Y-39144D01*
X27630Y-39144D01*
X27745Y-39097D01*
X27833Y-39009D01*
X27880Y-38895D01*
X27880Y-38771D01*
X27880Y-39345D01*
X27842Y-39361D01*
X27743Y-39460D01*
X27690Y-39589D01*
X27690Y-39729D01*
X27743Y-39858D01*
X27842Y-39957D01*
X27971Y-40010D01*
X28111Y-40010D01*
X28240Y-39957D01*
X28339Y-39858D01*
X28392Y-39729D01*
X28392Y-39590D01*
X28392Y-40200D01*
X26914Y-40200D01*
X26963Y-40125D01*
X26995Y-39968D01*
X26995Y-39350D01*
X26963Y-39193D01*
X26874Y-39060D01*
X26741Y-38971D01*
X26584Y-38940D01*
X26427Y-38971D01*
X26294Y-39060D01*
X26205Y-39193D01*
X26174Y-39350D01*
X26174Y-39968D01*
X26205Y-40125D01*
X26255Y-40200D01*
X26190Y-40200D01*
X26190Y-40115D01*
X26187Y-40100D01*
X26187Y-40086D01*
X26141Y-39857D01*
X26119Y-39804D01*
X25989Y-39610D01*
X25989Y-39610D01*
X25989Y-39610D01*
X25969Y-39590D01*
X25949Y-39570D01*
X25949Y-39570D01*
X25872Y-39518D01*
X26052Y-39518D01*
X26094Y-39500D01*
X26126Y-39468D01*
X26144Y-39426D01*
X26144Y-39380D01*
X26144Y-38789D01*
X26132Y-38761D01*
X26272Y-38703D01*
X26434Y-38542D01*
X26521Y-38330D01*
X26522Y-38102D01*
X26434Y-37890D01*
X26273Y-37728D01*
X26061Y-37641D01*
X25833Y-37640D01*
X25832Y-37641D01*
X25848Y-37602D01*
X25848Y-37557D01*
X25848Y-37247D01*
X25830Y-37204D01*
X25798Y-37172D01*
X25755Y-37155D01*
X25728Y-37155D01*
X25730Y-37154D01*
X25806Y-37078D01*
X25847Y-36978D01*
X25847Y-36951D01*
X26539Y-37642D01*
X26539Y-37642D01*
X26586Y-37673D01*
X26586Y-37673D01*
X26595Y-37675D01*
X26642Y-37685D01*
X28799Y-37685D01*
X28870Y-37756D01*
X28964Y-37794D01*
X29065Y-37795D01*
X29080Y-37789D01*
X29080Y-37891D01*
X29000Y-37859D01*
X28899Y-37858D01*
X28805Y-37897D01*
X28733Y-37969D01*
X28695Y-38063D01*
X28694Y-38164D01*
X28733Y-38258D01*
X28805Y-38330D01*
X28899Y-38368D01*
X29000Y-38369D01*
X29094Y-38330D01*
X29166Y-38258D01*
X29204Y-38164D01*
X29205Y-38063D01*
X29203Y-38060D01*
X29217Y-38060D01*
X29435Y-38060D01*
X29422Y-38121D01*
X29422Y-38121D01*
X29422Y-38121D01*
X29422Y-38178D01*
X29422Y-38178D01*
X29450Y-38317D01*
X29472Y-38370D01*
X29472Y-38370D01*
X29472Y-38370D01*
X29551Y-38488D01*
X29591Y-38528D01*
X29591Y-38528D01*
X29591Y-38528D01*
X29709Y-38607D01*
X29762Y-38629D01*
X29762Y-38629D01*
X29901Y-38657D01*
X29915Y-38657D01*
X29930Y-38660D01*
X30062Y-38660D01*
X30056Y-38662D01*
X30011Y-38778D01*
X30014Y-38902D01*
X30056Y-39003D01*
X30106Y-39022D01*
X30280Y-38849D01*
X30296Y-38832D01*
X30291Y-38827D01*
X30319Y-38799D01*
X30324Y-38804D01*
X30330Y-38799D01*
X30358Y-38827D01*
X30353Y-38832D01*
X30543Y-39022D01*
X30593Y-39003D01*
X30638Y-38887D01*
X30635Y-38763D01*
X30593Y-38662D01*
X30586Y-38660D01*
X31577Y-38660D01*
X31620Y-38703D01*
X31832Y-38790D01*
X31901Y-38790D01*
X31878Y-38834D01*
X32140Y-39095D01*
X32401Y-38834D01*
X32369Y-38774D01*
X32234Y-38719D01*
X32272Y-38703D01*
X32316Y-38660D01*
X32510Y-38660D01*
X32510Y-38942D01*
G54D10*
G36*
X30110Y-26550D02*
X30030Y-26550D01*
X30030Y-26254D01*
X30030Y-25754D01*
X30030Y-25254D01*
X30030Y-24754D01*
X30026Y-24744D01*
X30026Y-24286D01*
X29991Y-24201D01*
X29926Y-24137D01*
X29841Y-24102D01*
X29750Y-24101D01*
X29665Y-24136D01*
X29601Y-24201D01*
X29566Y-24286D01*
X29565Y-24377D01*
X29600Y-24462D01*
X29665Y-24526D01*
X29750Y-24561D01*
X29841Y-24562D01*
X29926Y-24527D01*
X29990Y-24462D01*
X30025Y-24377D01*
X30026Y-24286D01*
X30026Y-24744D01*
X29995Y-24669D01*
X29930Y-24605D01*
X29845Y-24570D01*
X29754Y-24569D01*
X29669Y-24604D01*
X29605Y-24669D01*
X29570Y-24754D01*
X29569Y-24845D01*
X29604Y-24930D01*
X29669Y-24994D01*
X29754Y-25029D01*
X29845Y-25030D01*
X29930Y-24995D01*
X29994Y-24930D01*
X30029Y-24845D01*
X30030Y-24754D01*
X30030Y-25254D01*
X29995Y-25169D01*
X29930Y-25105D01*
X29845Y-25070D01*
X29754Y-25069D01*
X29669Y-25104D01*
X29605Y-25169D01*
X29570Y-25254D01*
X29569Y-25345D01*
X29604Y-25430D01*
X29669Y-25494D01*
X29754Y-25529D01*
X29845Y-25530D01*
X29930Y-25495D01*
X29994Y-25430D01*
X30029Y-25345D01*
X30030Y-25254D01*
X30030Y-25754D01*
X29995Y-25669D01*
X29930Y-25605D01*
X29845Y-25570D01*
X29754Y-25569D01*
X29669Y-25604D01*
X29605Y-25669D01*
X29570Y-25754D01*
X29569Y-25845D01*
X29604Y-25930D01*
X29669Y-25994D01*
X29754Y-26029D01*
X29845Y-26030D01*
X29930Y-25995D01*
X29994Y-25930D01*
X30029Y-25845D01*
X30030Y-25754D01*
X30030Y-26254D01*
X29995Y-26169D01*
X29930Y-26105D01*
X29845Y-26070D01*
X29754Y-26069D01*
X29669Y-26104D01*
X29605Y-26169D01*
X29570Y-26254D01*
X29569Y-26345D01*
X29604Y-26430D01*
X29669Y-26494D01*
X29754Y-26529D01*
X29845Y-26530D01*
X29930Y-26495D01*
X29994Y-26430D01*
X30029Y-26345D01*
X30030Y-26254D01*
X30030Y-26550D01*
X29130Y-26550D01*
X29130Y-25754D01*
X29130Y-24754D01*
X29130Y-24286D01*
X29095Y-24201D01*
X29030Y-24137D01*
X28945Y-24102D01*
X28854Y-24101D01*
X28769Y-24136D01*
X28705Y-24201D01*
X28670Y-24286D01*
X28669Y-24377D01*
X28704Y-24462D01*
X28769Y-24526D01*
X28854Y-24561D01*
X28945Y-24562D01*
X29030Y-24527D01*
X29094Y-24462D01*
X29129Y-24377D01*
X29130Y-24286D01*
X29130Y-24754D01*
X29095Y-24669D01*
X29030Y-24605D01*
X28945Y-24570D01*
X28854Y-24569D01*
X28769Y-24604D01*
X28705Y-24669D01*
X28670Y-24754D01*
X28669Y-24845D01*
X28704Y-24930D01*
X28769Y-24994D01*
X28854Y-25029D01*
X28945Y-25030D01*
X29030Y-24995D01*
X29094Y-24930D01*
X29129Y-24845D01*
X29130Y-24754D01*
X29130Y-25754D01*
X29120Y-25730D01*
X29120Y-25275D01*
X29085Y-25190D01*
X29020Y-25126D01*
X28936Y-25091D01*
X28844Y-25090D01*
X28760Y-25125D01*
X28695Y-25190D01*
X28660Y-25275D01*
X28660Y-25366D01*
X28695Y-25451D01*
X28759Y-25515D01*
X28844Y-25550D01*
X28935Y-25551D01*
X29020Y-25516D01*
X29085Y-25451D01*
X29120Y-25366D01*
X29120Y-25275D01*
X29120Y-25730D01*
X29095Y-25669D01*
X29030Y-25605D01*
X28945Y-25570D01*
X28854Y-25569D01*
X28769Y-25604D01*
X28705Y-25669D01*
X28670Y-25754D01*
X28669Y-25845D01*
X28704Y-25930D01*
X28769Y-25994D01*
X28854Y-26029D01*
X28945Y-26030D01*
X29030Y-25995D01*
X29094Y-25930D01*
X29129Y-25845D01*
X29130Y-25754D01*
X29130Y-26550D01*
X29120Y-26550D01*
X29120Y-26254D01*
X29085Y-26169D01*
X29020Y-26105D01*
X28936Y-26070D01*
X28844Y-26069D01*
X28760Y-26104D01*
X28695Y-26169D01*
X28660Y-26254D01*
X28660Y-26345D01*
X28695Y-26430D01*
X28759Y-26494D01*
X28844Y-26529D01*
X28935Y-26530D01*
X29020Y-26495D01*
X29085Y-26430D01*
X29120Y-26345D01*
X29120Y-26254D01*
X29120Y-26550D01*
X28230Y-26550D01*
X28230Y-26254D01*
X28230Y-25754D01*
X28230Y-25254D01*
X28230Y-24754D01*
X28228Y-24749D01*
X28228Y-24288D01*
X28193Y-24203D01*
X28128Y-24139D01*
X28043Y-24104D01*
X27952Y-24103D01*
X27867Y-24138D01*
X27803Y-24203D01*
X27768Y-24288D01*
X27767Y-24379D01*
X27802Y-24464D01*
X27867Y-24528D01*
X27952Y-24563D01*
X28043Y-24564D01*
X28128Y-24529D01*
X28192Y-24464D01*
X28227Y-24379D01*
X28228Y-24288D01*
X28228Y-24749D01*
X28195Y-24669D01*
X28130Y-24605D01*
X28045Y-24570D01*
X27954Y-24569D01*
X27869Y-24604D01*
X27805Y-24669D01*
X27770Y-24754D01*
X27769Y-24845D01*
X27804Y-24930D01*
X27869Y-24994D01*
X27954Y-25029D01*
X28045Y-25030D01*
X28130Y-24995D01*
X28194Y-24930D01*
X28229Y-24845D01*
X28230Y-24754D01*
X28230Y-25254D01*
X28195Y-25169D01*
X28130Y-25105D01*
X28045Y-25070D01*
X27954Y-25069D01*
X27869Y-25104D01*
X27805Y-25169D01*
X27770Y-25254D01*
X27769Y-25345D01*
X27804Y-25430D01*
X27869Y-25494D01*
X27954Y-25529D01*
X28045Y-25530D01*
X28130Y-25495D01*
X28194Y-25430D01*
X28229Y-25345D01*
X28230Y-25254D01*
X28230Y-25754D01*
X28195Y-25669D01*
X28130Y-25605D01*
X28045Y-25570D01*
X27954Y-25569D01*
X27869Y-25604D01*
X27805Y-25669D01*
X27770Y-25754D01*
X27769Y-25845D01*
X27804Y-25930D01*
X27869Y-25994D01*
X27954Y-26029D01*
X28045Y-26030D01*
X28130Y-25995D01*
X28194Y-25930D01*
X28229Y-25845D01*
X28230Y-25754D01*
X28230Y-26254D01*
X28195Y-26169D01*
X28130Y-26105D01*
X28045Y-26070D01*
X27954Y-26069D01*
X27869Y-26104D01*
X27805Y-26169D01*
X27770Y-26254D01*
X27769Y-26345D01*
X27804Y-26430D01*
X27869Y-26494D01*
X27954Y-26529D01*
X28045Y-26530D01*
X28130Y-26495D01*
X28194Y-26430D01*
X28229Y-26345D01*
X28230Y-26254D01*
X28230Y-26550D01*
X27670Y-26550D01*
X27670Y-24090D01*
X30110Y-24090D01*
X30110Y-26550D01*
X30110Y-26550D01*
G37*
G54D21*
X30110Y-26550D02*
X30030Y-26550D01*
X30030Y-26254D01*
X30030Y-25754D01*
X30030Y-25254D01*
X30030Y-24754D01*
X30026Y-24744D01*
X30026Y-24286D01*
X29991Y-24201D01*
X29926Y-24137D01*
X29841Y-24102D01*
X29750Y-24101D01*
X29665Y-24136D01*
X29601Y-24201D01*
X29566Y-24286D01*
X29565Y-24377D01*
X29600Y-24462D01*
X29665Y-24526D01*
X29750Y-24561D01*
X29841Y-24562D01*
X29926Y-24527D01*
X29990Y-24462D01*
X30025Y-24377D01*
X30026Y-24286D01*
X30026Y-24744D01*
X29995Y-24669D01*
X29930Y-24605D01*
X29845Y-24570D01*
X29754Y-24569D01*
X29669Y-24604D01*
X29605Y-24669D01*
X29570Y-24754D01*
X29569Y-24845D01*
X29604Y-24930D01*
X29669Y-24994D01*
X29754Y-25029D01*
X29845Y-25030D01*
X29930Y-24995D01*
X29994Y-24930D01*
X30029Y-24845D01*
X30030Y-24754D01*
X30030Y-25254D01*
X29995Y-25169D01*
X29930Y-25105D01*
X29845Y-25070D01*
X29754Y-25069D01*
X29669Y-25104D01*
X29605Y-25169D01*
X29570Y-25254D01*
X29569Y-25345D01*
X29604Y-25430D01*
X29669Y-25494D01*
X29754Y-25529D01*
X29845Y-25530D01*
X29930Y-25495D01*
X29994Y-25430D01*
X30029Y-25345D01*
X30030Y-25254D01*
X30030Y-25754D01*
X29995Y-25669D01*
X29930Y-25605D01*
X29845Y-25570D01*
X29754Y-25569D01*
X29669Y-25604D01*
X29605Y-25669D01*
X29570Y-25754D01*
X29569Y-25845D01*
X29604Y-25930D01*
X29669Y-25994D01*
X29754Y-26029D01*
X29845Y-26030D01*
X29930Y-25995D01*
X29994Y-25930D01*
X30029Y-25845D01*
X30030Y-25754D01*
X30030Y-26254D01*
X29995Y-26169D01*
X29930Y-26105D01*
X29845Y-26070D01*
X29754Y-26069D01*
X29669Y-26104D01*
X29605Y-26169D01*
X29570Y-26254D01*
X29569Y-26345D01*
X29604Y-26430D01*
X29669Y-26494D01*
X29754Y-26529D01*
X29845Y-26530D01*
X29930Y-26495D01*
X29994Y-26430D01*
X30029Y-26345D01*
X30030Y-26254D01*
X30030Y-26550D01*
X29130Y-26550D01*
X29130Y-25754D01*
X29130Y-24754D01*
X29130Y-24286D01*
X29095Y-24201D01*
X29030Y-24137D01*
X28945Y-24102D01*
X28854Y-24101D01*
X28769Y-24136D01*
X28705Y-24201D01*
X28670Y-24286D01*
X28669Y-24377D01*
X28704Y-24462D01*
X28769Y-24526D01*
X28854Y-24561D01*
X28945Y-24562D01*
X29030Y-24527D01*
X29094Y-24462D01*
X29129Y-24377D01*
X29130Y-24286D01*
X29130Y-24754D01*
X29095Y-24669D01*
X29030Y-24605D01*
X28945Y-24570D01*
X28854Y-24569D01*
X28769Y-24604D01*
X28705Y-24669D01*
X28670Y-24754D01*
X28669Y-24845D01*
X28704Y-24930D01*
X28769Y-24994D01*
X28854Y-25029D01*
X28945Y-25030D01*
X29030Y-24995D01*
X29094Y-24930D01*
X29129Y-24845D01*
X29130Y-24754D01*
X29130Y-25754D01*
X29120Y-25730D01*
X29120Y-25275D01*
X29085Y-25190D01*
X29020Y-25126D01*
X28936Y-25091D01*
X28844Y-25090D01*
X28760Y-25125D01*
X28695Y-25190D01*
X28660Y-25275D01*
X28660Y-25366D01*
X28695Y-25451D01*
X28759Y-25515D01*
X28844Y-25550D01*
X28935Y-25551D01*
X29020Y-25516D01*
X29085Y-25451D01*
X29120Y-25366D01*
X29120Y-25275D01*
X29120Y-25730D01*
X29095Y-25669D01*
X29030Y-25605D01*
X28945Y-25570D01*
X28854Y-25569D01*
X28769Y-25604D01*
X28705Y-25669D01*
X28670Y-25754D01*
X28669Y-25845D01*
X28704Y-25930D01*
X28769Y-25994D01*
X28854Y-26029D01*
X28945Y-26030D01*
X29030Y-25995D01*
X29094Y-25930D01*
X29129Y-25845D01*
X29130Y-25754D01*
X29130Y-26550D01*
X29120Y-26550D01*
X29120Y-26254D01*
X29085Y-26169D01*
X29020Y-26105D01*
X28936Y-26070D01*
X28844Y-26069D01*
X28760Y-26104D01*
X28695Y-26169D01*
X28660Y-26254D01*
X28660Y-26345D01*
X28695Y-26430D01*
X28759Y-26494D01*
X28844Y-26529D01*
X28935Y-26530D01*
X29020Y-26495D01*
X29085Y-26430D01*
X29120Y-26345D01*
X29120Y-26254D01*
X29120Y-26550D01*
X28230Y-26550D01*
X28230Y-26254D01*
X28230Y-25754D01*
X28230Y-25254D01*
X28230Y-24754D01*
X28228Y-24749D01*
X28228Y-24288D01*
X28193Y-24203D01*
X28128Y-24139D01*
X28043Y-24104D01*
X27952Y-24103D01*
X27867Y-24138D01*
X27803Y-24203D01*
X27768Y-24288D01*
X27767Y-24379D01*
X27802Y-24464D01*
X27867Y-24528D01*
X27952Y-24563D01*
X28043Y-24564D01*
X28128Y-24529D01*
X28192Y-24464D01*
X28227Y-24379D01*
X28228Y-24288D01*
X28228Y-24749D01*
X28195Y-24669D01*
X28130Y-24605D01*
X28045Y-24570D01*
X27954Y-24569D01*
X27869Y-24604D01*
X27805Y-24669D01*
X27770Y-24754D01*
X27769Y-24845D01*
X27804Y-24930D01*
X27869Y-24994D01*
X27954Y-25029D01*
X28045Y-25030D01*
X28130Y-24995D01*
X28194Y-24930D01*
X28229Y-24845D01*
X28230Y-24754D01*
X28230Y-25254D01*
X28195Y-25169D01*
X28130Y-25105D01*
X28045Y-25070D01*
X27954Y-25069D01*
X27869Y-25104D01*
X27805Y-25169D01*
X27770Y-25254D01*
X27769Y-25345D01*
X27804Y-25430D01*
X27869Y-25494D01*
X27954Y-25529D01*
X28045Y-25530D01*
X28130Y-25495D01*
X28194Y-25430D01*
X28229Y-25345D01*
X28230Y-25254D01*
X28230Y-25754D01*
X28195Y-25669D01*
X28130Y-25605D01*
X28045Y-25570D01*
X27954Y-25569D01*
X27869Y-25604D01*
X27805Y-25669D01*
X27770Y-25754D01*
X27769Y-25845D01*
X27804Y-25930D01*
X27869Y-25994D01*
X27954Y-26029D01*
X28045Y-26030D01*
X28130Y-25995D01*
X28194Y-25930D01*
X28229Y-25845D01*
X28230Y-25754D01*
X28230Y-26254D01*
X28195Y-26169D01*
X28130Y-26105D01*
X28045Y-26070D01*
X27954Y-26069D01*
X27869Y-26104D01*
X27805Y-26169D01*
X27770Y-26254D01*
X27769Y-26345D01*
X27804Y-26430D01*
X27869Y-26494D01*
X27954Y-26529D01*
X28045Y-26530D01*
X28130Y-26495D01*
X28194Y-26430D01*
X28229Y-26345D01*
X28230Y-26254D01*
X28230Y-26550D01*
X27670Y-26550D01*
X27670Y-24090D01*
X30110Y-24090D01*
X30110Y-26550D01*
M02*
