G04 ================== begin FILE IDENTIFICATION RECORD ==================*
G04 Layout Name:  C:/DesigSync_WORKDIR/evm/em/CC2538_EM/Cadence/CC2538EM.brd*
G04 Film Name:    assembly_bottom*
G04 File Format:  Gerber RS274X*
G04 File Origin:  Cadence Allegro 16.5-S010*
G04 Origin Date:  Mon Aug 27 15:01:23 2012*
G04 *
G04 Layer:  REF DES/ASSEMBLY_BOTTOM*
G04 Layer:  PACKAGE GEOMETRY/ASSEMBLY_BOTTOM*
G04 Layer:  BOARD GEOMETRY/OUTLINE*
G04 *
G04 Offset:    (0.000 0.000)*
G04 Mirror:    No*
G04 Mode:      Positive*
G04 Rotation:  0*
G04 FullContactRelief:  No*
G04 UndefLineWidth:     0.100*
G04 ================== end FILE IDENTIFICATION RECORD ====================*
%FSLAX44Y44*MOMM*%
%IR0*IPPOS*OFA0.00000B0.00000*MIA0B0*SFA1.00000B1.00000*%
%ADD10C,.05*%
%ADD11C,.1*%
%ADD12C,.003*%
G75*
%LPD*%
G75*
G54D10*
G01X1100540Y1321900D02*
Y1327500D01*
X1098260D01*
G01X1099100Y1324790D02*
X1100540D01*
G01X1096020Y1327500D02*
X1094580D01*
G01X1095300D02*
Y1321900D01*
G01X1096020D02*
X1094580D01*
G01X1092520D02*
Y1327500D01*
X1091320D01*
X1090840Y1327220D01*
X1090480Y1326850D01*
X1090180Y1326290D01*
X1089940Y1325630D01*
X1089880Y1324700D01*
X1089940Y1323770D01*
X1090180Y1323110D01*
X1090480Y1322550D01*
X1090840Y1322180D01*
X1091320Y1321900D01*
X1092520D01*
G01X1088420Y1327500D02*
Y1323490D01*
X1088180Y1322650D01*
X1087700Y1322090D01*
X1087100Y1321900D01*
X1086500Y1322090D01*
X1086020Y1322650D01*
X1085780Y1323490D01*
Y1327500D01*
G01X1082280Y1321900D02*
Y1327500D01*
X1084500Y1323490D01*
X1081500D01*
G01X1444240Y941400D02*
Y947000D01*
X1441960D01*
G01X1442800Y944290D02*
X1444240D01*
G01X1439720Y947000D02*
X1438280D01*
G01X1439000D02*
Y941400D01*
G01X1439720D02*
X1438280D01*
G01X1436220D02*
Y947000D01*
X1435020D01*
X1434540Y946720D01*
X1434180Y946350D01*
X1433880Y945790D01*
X1433640Y945130D01*
X1433580Y944200D01*
X1433640Y943270D01*
X1433880Y942610D01*
X1434180Y942050D01*
X1434540Y941680D01*
X1435020Y941400D01*
X1436220D01*
G01X1432120Y947000D02*
Y942990D01*
X1431880Y942150D01*
X1431400Y941590D01*
X1430800Y941400D01*
X1430200Y941590D01*
X1429720Y942150D01*
X1429480Y942990D01*
Y947000D01*
G01X1427840Y943730D02*
X1427420Y944390D01*
X1427060Y944760D01*
X1426580Y944950D01*
X1426160Y944760D01*
X1425860Y944390D01*
X1425620Y943830D01*
X1425560Y943170D01*
X1425620Y942610D01*
X1425860Y942050D01*
X1426220Y941590D01*
X1426640Y941400D01*
X1427120Y941590D01*
X1427540Y942150D01*
X1427780Y942990D01*
X1427840Y943920D01*
X1427720Y945130D01*
X1427540Y945790D01*
X1427240Y946440D01*
X1426820Y946910D01*
X1426400Y947000D01*
X1425980Y946810D01*
X1425680Y946350D01*
G01X1444640Y1317700D02*
Y1323300D01*
X1442360D01*
G01X1443200Y1320590D02*
X1444640D01*
G01X1440120Y1323300D02*
X1438680D01*
G01X1439400D02*
Y1317700D01*
G01X1440120D02*
X1438680D01*
G01X1436620D02*
Y1323300D01*
X1435420D01*
X1434940Y1323020D01*
X1434580Y1322650D01*
X1434280Y1322090D01*
X1434040Y1321430D01*
X1433980Y1320500D01*
X1434040Y1319570D01*
X1434280Y1318910D01*
X1434580Y1318350D01*
X1434940Y1317980D01*
X1435420Y1317700D01*
X1436620D01*
G01X1432520Y1323300D02*
Y1319290D01*
X1432280Y1318450D01*
X1431800Y1317890D01*
X1431200Y1317700D01*
X1430600Y1317890D01*
X1430120Y1318450D01*
X1429880Y1319290D01*
Y1323300D01*
G01X1428420Y1318540D02*
X1428060Y1318070D01*
X1427640Y1317790D01*
X1427100Y1317700D01*
X1426560Y1317890D01*
X1426140Y1318260D01*
X1425840Y1318910D01*
X1425780Y1319660D01*
X1425900Y1320410D01*
X1426200Y1320870D01*
X1426620Y1321250D01*
X1427040Y1321340D01*
X1427460Y1321250D01*
X1428000Y1320870D01*
X1427820Y1323300D01*
X1426200D01*
G54D11*
G01X1117600Y1135830D02*
X1108700D01*
Y1133510D01*
X1109150Y1132740D01*
X1110180Y1132160D01*
X1111370Y1131970D01*
X1112560Y1132160D01*
X1113450Y1132640D01*
X1113890Y1133510D01*
Y1135830D01*
G01X1117600Y1127300D02*
X1108700D01*
X1110480Y1128460D01*
G01X1117600D02*
Y1126140D01*
G01X1291590Y999690D02*
Y1008590D01*
X1289270D01*
X1288500Y1008140D01*
X1287920Y1007110D01*
X1287730Y1005920D01*
X1287920Y1004730D01*
X1288400Y1003840D01*
X1289270Y1003400D01*
X1291590D01*
G01X1285190Y1001470D02*
X1284610Y1000430D01*
X1283830Y999840D01*
X1282960Y999690D01*
X1282190Y999840D01*
X1281420Y1000580D01*
X1280930Y1001470D01*
X1280840Y1002360D01*
X1281030Y1003400D01*
X1281710Y1004140D01*
X1282380Y1004440D01*
X1283250D01*
G01X1282380D02*
X1281800Y1004880D01*
X1281320Y1005620D01*
X1281130Y1006510D01*
X1281320Y1007400D01*
X1281800Y1008140D01*
X1282670Y1008590D01*
X1283540Y1008440D01*
X1284410Y1007850D01*
G01X1421400Y1136230D02*
X1412500D01*
Y1133910D01*
X1412950Y1133140D01*
X1413980Y1132560D01*
X1415170Y1132370D01*
X1416360Y1132560D01*
X1417250Y1133040D01*
X1417690Y1133910D01*
Y1136230D01*
G01X1413980Y1129540D02*
X1413090Y1128960D01*
X1412650Y1128280D01*
X1412500Y1127510D01*
X1412800Y1126540D01*
X1413540Y1125860D01*
X1414430Y1125670D01*
X1415320Y1125770D01*
X1416060Y1126150D01*
X1417540Y1128090D01*
X1418580Y1128960D01*
X1420070Y1129540D01*
X1421400Y1129730D01*
Y1125670D01*
G01X1063500Y900000D02*
X1127500D01*
Y917500D01*
X1214500D01*
Y900000D01*
X1465000D01*
Y1404600D01*
X1063500D01*
Y900000D01*
G01X1101590Y980620D02*
X1103870Y982910D01*
G01X1116570D02*
X1114290Y980620D01*
G01X1109460Y982910D02*
X1111750Y980620D01*
G01X1106670Y977440D02*
Y963480D01*
G01X1119370D02*
X1106670D01*
G01X1124450Y980620D02*
X1114290D01*
G01D02*
Y990780D01*
G01X1111750Y980620D02*
Y990780D01*
G01X1101590Y980620D02*
X1111750D01*
G01X1101590Y990780D02*
Y980620D01*
G01X1128260Y977440D02*
X1097780D01*
G01Y1087940D02*
Y977440D01*
G01X1109460Y1001190D02*
Y995610D01*
G01Y982910D02*
X1103870D01*
G01X1109460Y1021010D02*
X1103870D01*
G01Y995610D02*
Y1001190D01*
G01Y1026590D02*
X1109460D01*
G01Y1008310D02*
X1103870D01*
G01X1101590Y1003480D02*
X1103870Y1001190D01*
G01D02*
X1109460D01*
G01D02*
X1111750Y1003480D01*
G01X1109460Y1013890D02*
Y1008310D01*
G01D02*
X1111750Y1006020D01*
G01X1101590D02*
X1103870Y1008310D01*
G01D02*
Y1013890D01*
G01Y988490D02*
X1109460D01*
G01X1116570Y995610D02*
X1114290Y993320D01*
G01X1109460Y1026590D02*
Y1021010D01*
G01D02*
X1111750Y1018720D01*
G01X1109460Y1026590D02*
X1111750Y1028880D01*
G01X1101590Y1018720D02*
X1103870Y1021010D01*
G01D02*
Y1026590D01*
G01X1101590Y1028880D02*
X1103870Y1026590D01*
G01Y982910D02*
Y988490D01*
G01X1101590Y990780D02*
X1103870Y988490D01*
G01X1116570Y1001190D02*
X1114290Y1003480D01*
G01X1116570Y1013890D02*
X1114290Y1016180D01*
G01X1109460Y988490D02*
Y982910D01*
G01Y988490D02*
X1111750Y990780D01*
G01X1116570Y1021010D02*
X1114290Y1018720D01*
G01X1116570Y1008310D02*
X1114290Y1006020D01*
G01X1116570Y988490D02*
X1114290Y990780D01*
G01X1101590Y1016180D02*
X1103870Y1013890D01*
G01D02*
X1109460D01*
G01D02*
X1111750Y1016180D01*
G01X1109460Y995610D02*
X1111750Y993320D01*
G01X1109460Y995610D02*
X1103870D01*
G01X1101590Y993320D02*
X1103870Y995610D01*
G01X1114290Y990780D02*
X1124450D01*
G01Y993320D02*
X1114290D01*
G01D02*
Y1003480D01*
G01D02*
X1124450D01*
G01Y1006020D02*
X1114290D01*
G01D02*
Y1016180D01*
G01D02*
X1124450D01*
G01Y1018720D02*
X1114290D01*
G01D02*
Y1028880D01*
G01X1111750Y990780D02*
X1101590D01*
G01X1111750Y1003480D02*
X1101590D01*
G01X1111750Y993320D02*
Y1003480D01*
G01X1101590Y993320D02*
X1111750D01*
G01X1101590Y1003480D02*
Y993320D01*
G01X1111750Y1016180D02*
X1101590D01*
G01X1111750Y1006020D02*
Y1016180D01*
G01X1101590Y1006020D02*
X1111750D01*
G01X1101590Y1016180D02*
Y1006020D01*
G01X1111750Y1018720D02*
Y1028880D01*
G01X1101590Y1018720D02*
X1111750D01*
G01X1101590Y1028880D02*
Y1018720D01*
G01X1107210Y1009600D02*
G02X1105090Y1010820I-546J1503D01*
G01Y1011380D02*
G02X1107210Y1012600I1574J-283D01*
G01X1103870Y1011590D02*
X1105090Y1011380D01*
G01X1103870Y1010610D02*
X1105090Y1010820D01*
G01X1107210Y1009600D02*
X1107220Y1009590D01*
G01X1107670Y1008360D02*
X1107220Y1009590D01*
G01X1107670Y1013840D02*
X1107220Y1012610D01*
G01D02*
X1107210Y1012600D01*
G01X1105820Y1008310D02*
G02X1103870Y1010250I842J2796D01*
G01X1109460D02*
G02X1107520Y1008310I-2792J852D01*
G01Y1013890D02*
G02X1109460Y1011950I-852J-2792D01*
G01X1103870D02*
G02X1105820Y1013890I2792J-856D01*
G01X1108540Y1008860D02*
X1107660Y1009920D01*
G01X1108540Y1013340D02*
X1107660Y1012280D01*
G01X1105150Y1011600D02*
G02Y1010600I-388J-500D01*
G01X1097780Y1010460D02*
X1094600D01*
G01D02*
G02Y1011740I0J640D01*
G01D02*
X1097780D01*
G01X1094600Y1008560D02*
G02Y1013640I2J2540D01*
G01X1107940Y1009590D02*
Y1008560D01*
G01Y1011960D02*
Y1010240D01*
G01Y1013640D02*
Y1012610D01*
G01X1108110Y1008560D02*
X1107940D01*
G01X1107590D02*
X1107940D01*
G01X1094600D02*
X1097780D01*
G01X1107940Y1013640D02*
X1107590D01*
G01X1107940D02*
X1108110D01*
G01X1094600D02*
X1097780D01*
G01X1107210Y984200D02*
G02X1105090Y985420I-546J1503D01*
G01Y985980D02*
G02X1107210Y987200I1574J-283D01*
G01X1103870Y986190D02*
X1105090Y985980D01*
G01X1103870Y985210D02*
X1105090Y985420D01*
G01X1107210Y984200D02*
X1107220Y984190D01*
G01X1107670Y982960D02*
X1107220Y984190D01*
G01X1107670Y988440D02*
X1107220Y987210D01*
G01D02*
X1107210Y987200D01*
G01X1105820Y982910D02*
G02X1103870Y984850I842J2796D01*
G01X1109460D02*
G02X1107520Y982910I-2792J852D01*
G01Y988490D02*
G02X1109460Y986550I-852J-2792D01*
G01X1103870D02*
G02X1105820Y988490I2792J-856D01*
G01X1108540Y983460D02*
X1107660Y984520D01*
G01X1108540Y987940D02*
X1107660Y986880D01*
G01X1105150Y986200D02*
G02Y985200I-388J-500D01*
G01X1097780Y985060D02*
X1094600D01*
G01D02*
G02Y986340I0J640D01*
G01D02*
X1097780D01*
G01X1094600Y983160D02*
G02Y988240I2J2540D01*
G01X1107940Y984190D02*
Y983160D01*
G01Y986560D02*
Y984840D01*
G01Y988240D02*
Y987210D01*
G01X1108110Y983160D02*
X1107940D01*
G01X1107590D02*
X1107940D01*
G01X1094600D02*
X1097780D01*
G01X1107940Y988240D02*
X1107590D01*
G01X1107940D02*
X1108110D01*
G01X1094600D02*
X1097780D01*
G01X1107210Y1022300D02*
G02X1105090Y1023520I-546J1503D01*
G01Y1024080D02*
G02X1107210Y1025300I1574J-283D01*
G01X1103870Y1024290D02*
X1105090Y1024080D01*
G01X1103870Y1023310D02*
X1105090Y1023520D01*
G01X1107210Y1022300D02*
X1107220Y1022290D01*
G01X1107670Y1021060D02*
X1107220Y1022290D01*
G01X1107670Y1026540D02*
X1107220Y1025310D01*
G01D02*
X1107210Y1025300D01*
G01X1105820Y1021010D02*
G02X1103870Y1022950I842J2796D01*
G01X1109460D02*
G02X1107520Y1021010I-2792J852D01*
G01Y1026590D02*
G02X1109460Y1024650I-852J-2792D01*
G01X1103870D02*
G02X1105820Y1026590I2792J-856D01*
G01X1108540Y1021560D02*
X1107660Y1022620D01*
G01X1108540Y1026040D02*
X1107660Y1024980D01*
G01X1105150Y1024300D02*
G02Y1023300I-388J-500D01*
G01X1097780Y1023160D02*
X1094600D01*
G01D02*
G02Y1024440I0J640D01*
G01D02*
X1097780D01*
G01X1094600Y1021260D02*
G02Y1026340I2J2540D01*
G01X1107940Y1022290D02*
Y1021260D01*
G01Y1024660D02*
Y1022940D01*
G01Y1026340D02*
Y1025310D01*
G01X1108110Y1021260D02*
X1107940D01*
G01X1107590D02*
X1107940D01*
G01X1094600D02*
X1097780D01*
G01X1107940Y1026340D02*
X1107590D01*
G01X1107940D02*
X1108110D01*
G01X1094600D02*
X1097780D01*
G01X1107210Y996900D02*
G02X1105090Y998120I-546J1503D01*
G01Y998680D02*
G02X1107210Y999900I1574J-283D01*
G01X1103870Y998890D02*
X1105090Y998680D01*
G01X1103870Y997910D02*
X1105090Y998120D01*
G01X1107210Y996900D02*
X1107220Y996890D01*
G01X1107670Y995660D02*
X1107220Y996890D01*
G01X1107670Y1001140D02*
X1107220Y999910D01*
G01D02*
X1107210Y999900D01*
G01X1105820Y995610D02*
G02X1103870Y997550I842J2796D01*
G01X1109460D02*
G02X1107520Y995610I-2792J852D01*
G01Y1001190D02*
G02X1109460Y999250I-852J-2792D01*
G01X1103870D02*
G02X1105820Y1001190I2792J-856D01*
G01X1108540Y996160D02*
X1107660Y997220D01*
G01X1108540Y1000640D02*
X1107660Y999580D01*
G01X1105150Y998900D02*
G02Y997900I-388J-500D01*
G01X1097780Y997760D02*
X1094600D01*
G01D02*
G02Y999040I0J640D01*
G01D02*
X1097780D01*
G01X1094600Y995860D02*
G02Y1000940I2J2540D01*
G01X1107940Y996890D02*
Y995860D01*
G01Y999260D02*
Y997540D01*
G01Y1000940D02*
Y999910D01*
G01X1108110Y995860D02*
X1107940D01*
G01X1107590D02*
X1107940D01*
G01X1094600D02*
X1097780D01*
G01X1107940Y1000940D02*
X1107590D01*
G01X1107940D02*
X1108110D01*
G01X1094600D02*
X1097780D01*
G01X1103870Y1046410D02*
Y1051990D01*
G01X1109460Y1046410D02*
X1103870D01*
G01X1101590Y1044120D02*
X1103870Y1046410D01*
G01X1109460Y1059110D02*
X1103870D01*
G01X1109460Y1071810D02*
X1111750Y1069520D01*
G01X1101590Y1056820D02*
X1103870Y1059110D01*
G01D02*
Y1064690D01*
G01X1101590Y1069520D02*
X1103870Y1071810D01*
G01X1101590Y1066980D02*
X1103870Y1064690D01*
G01D02*
X1109460D01*
G01Y1033710D02*
X1103870D01*
G01Y1039290D02*
X1109460D01*
G01D02*
Y1033710D01*
G01D02*
X1111750Y1031420D01*
G01X1109460Y1039290D02*
X1111750Y1041580D01*
G01X1116570Y1033710D02*
X1114290Y1031420D01*
G01X1116570Y1039290D02*
X1114290Y1041580D01*
G01X1116570Y1051990D02*
X1114290Y1054280D01*
G01X1101590D02*
X1103870Y1051990D01*
G01D02*
X1109460D01*
G01X1101590Y1031420D02*
X1103870Y1033710D01*
G01D02*
Y1039290D01*
G01X1101590Y1041580D02*
X1103870Y1039290D01*
G01X1109460Y1064690D02*
Y1059110D01*
G01D02*
X1111750Y1056820D01*
G01X1109460Y1064690D02*
X1111750Y1066980D01*
G01X1109460Y1051990D02*
Y1046410D01*
G01D02*
X1111750Y1044120D01*
G01X1109460Y1051990D02*
X1111750Y1054280D01*
G01X1116570Y1046410D02*
X1114290Y1044120D01*
G01X1116570Y1026590D02*
X1114290Y1028880D01*
G01X1116570Y1071810D02*
X1114290Y1069520D01*
G01X1116570Y1064690D02*
X1114290Y1066980D01*
G01X1116570Y1059110D02*
X1114290Y1056820D01*
G01Y1028880D02*
X1124450D01*
G01Y1031420D02*
X1114290D01*
G01D02*
Y1041580D01*
G01D02*
X1124450D01*
G01Y1044120D02*
X1114290D01*
G01D02*
Y1054280D01*
G01D02*
X1124450D01*
G01Y1056820D02*
X1114290D01*
G01D02*
Y1066980D01*
G01D02*
X1124450D01*
G01Y1069520D02*
X1114290D01*
G01D02*
Y1079680D01*
G01X1111750Y1028880D02*
X1101590D01*
G01X1111750Y1041580D02*
X1101590D01*
G01X1111750Y1031420D02*
Y1041580D01*
G01X1101590Y1031420D02*
X1111750D01*
G01X1101590Y1041580D02*
Y1031420D01*
G01X1111750Y1054280D02*
X1101590D01*
G01X1111750Y1044120D02*
Y1054280D01*
G01X1101590Y1044120D02*
X1111750D01*
G01X1101590Y1054280D02*
Y1044120D01*
G01X1111750Y1066980D02*
X1101590D01*
G01X1111750Y1056820D02*
Y1066980D01*
G01X1101590Y1056820D02*
X1111750D01*
G01X1101590Y1066980D02*
Y1056820D01*
G01X1111750Y1069520D02*
Y1079680D01*
G01X1101590Y1069520D02*
X1111750D01*
G01X1101590Y1079680D02*
Y1069520D01*
G01X1107210Y1047700D02*
G02X1105090Y1048920I-546J1503D01*
G01Y1049480D02*
G02X1107210Y1050700I1574J-283D01*
G01X1103870Y1049690D02*
X1105090Y1049480D01*
G01X1103870Y1048710D02*
X1105090Y1048920D01*
G01X1107210Y1047700D02*
X1107220Y1047690D01*
G01X1107670Y1046460D02*
X1107220Y1047690D01*
G01X1107670Y1051940D02*
X1107220Y1050710D01*
G01D02*
X1107210Y1050700D01*
G01X1105820Y1046410D02*
G02X1103870Y1048350I842J2796D01*
G01X1109460D02*
G02X1107520Y1046410I-2792J852D01*
G01Y1051990D02*
G02X1109460Y1050050I-852J-2792D01*
G01X1103870D02*
G02X1105820Y1051990I2792J-856D01*
G01X1108540Y1046960D02*
X1107660Y1048020D01*
G01X1108540Y1051440D02*
X1107660Y1050380D01*
G01X1105150Y1049700D02*
G02Y1048700I-388J-500D01*
G01X1097780Y1048560D02*
X1094600D01*
G01D02*
G02Y1049840I0J640D01*
G01D02*
X1097780D01*
G01X1094600Y1046660D02*
G02Y1051740I2J2540D01*
G01X1107940Y1047690D02*
Y1046660D01*
G01Y1050060D02*
Y1048340D01*
G01Y1051740D02*
Y1050710D01*
G01X1108110Y1046660D02*
X1107940D01*
G01X1107590D02*
X1107940D01*
G01X1094600D02*
X1097780D01*
G01X1107940Y1051740D02*
X1107590D01*
G01X1107940D02*
X1108110D01*
G01X1094600D02*
X1097780D01*
G01X1107210Y1060400D02*
G02X1105090Y1061620I-546J1503D01*
G01Y1062180D02*
G02X1107210Y1063400I1574J-283D01*
G01X1103870Y1062390D02*
X1105090Y1062180D01*
G01X1103870Y1061410D02*
X1105090Y1061620D01*
G01X1107210Y1060400D02*
X1107220Y1060390D01*
G01X1107670Y1059160D02*
X1107220Y1060390D01*
G01X1107670Y1064640D02*
X1107220Y1063410D01*
G01D02*
X1107210Y1063400D01*
G01X1105820Y1059110D02*
G02X1103870Y1061050I842J2796D01*
G01X1109460D02*
G02X1107520Y1059110I-2792J852D01*
G01Y1064690D02*
G02X1109460Y1062750I-852J-2792D01*
G01X1103870D02*
G02X1105820Y1064690I2792J-856D01*
G01X1108540Y1059660D02*
X1107660Y1060720D01*
G01X1108540Y1064140D02*
X1107660Y1063080D01*
G01X1105150Y1062400D02*
G02Y1061400I-388J-500D01*
G01X1097780Y1061260D02*
X1094600D01*
G01D02*
G02Y1062540I0J640D01*
G01D02*
X1097780D01*
G01X1094600Y1059360D02*
G02Y1064440I2J2540D01*
G01X1107940Y1060390D02*
Y1059360D01*
G01Y1062760D02*
Y1061040D01*
G01Y1064440D02*
Y1063410D01*
G01X1108110Y1059360D02*
X1107940D01*
G01X1107590D02*
X1107940D01*
G01X1094600D02*
X1097780D01*
G01X1107940Y1064440D02*
X1107590D01*
G01X1107940D02*
X1108110D01*
G01X1094600D02*
X1097780D01*
G01X1107210Y1035000D02*
G02X1105090Y1036220I-546J1503D01*
G01Y1036780D02*
G02X1107210Y1038000I1574J-283D01*
G01X1103870Y1036990D02*
X1105090Y1036780D01*
G01X1103870Y1036010D02*
X1105090Y1036220D01*
G01X1107210Y1035000D02*
X1107220Y1034990D01*
G01X1107670Y1033760D02*
X1107220Y1034990D01*
G01X1107670Y1039240D02*
X1107220Y1038010D01*
G01D02*
X1107210Y1038000D01*
G01X1105820Y1033710D02*
G02X1103870Y1035650I842J2796D01*
G01X1109460D02*
G02X1107520Y1033710I-2792J852D01*
G01Y1039290D02*
G02X1109460Y1037350I-852J-2792D01*
G01X1103870D02*
G02X1105820Y1039290I2792J-856D01*
G01X1108540Y1034260D02*
X1107660Y1035320D01*
G01X1108540Y1038740D02*
X1107660Y1037680D01*
G01X1105150Y1037000D02*
G02Y1036000I-388J-500D01*
G01X1097780Y1035860D02*
X1094600D01*
G01D02*
G02Y1037140I0J640D01*
G01D02*
X1097780D01*
G01X1094600Y1033960D02*
G02Y1039040I2J2540D01*
G01X1107940Y1034990D02*
Y1033960D01*
G01Y1037360D02*
Y1035640D01*
G01Y1039040D02*
Y1038010D01*
G01X1108110Y1033960D02*
X1107940D01*
G01X1107590D02*
X1107940D01*
G01X1094600D02*
X1097780D01*
G01X1107940Y1039040D02*
X1107590D01*
G01X1107940D02*
X1108110D01*
G01X1094600D02*
X1097780D01*
G01X1109460Y1102790D02*
Y1097210D01*
G01Y1071810D02*
X1103870D01*
G01X1109460Y1077390D02*
Y1071810D01*
G01X1103870D02*
Y1077390D01*
G01Y1097210D02*
Y1102790D01*
G01X1109460Y1097210D02*
X1111750Y1094920D01*
G01X1109460Y1097210D02*
X1103870D01*
G01X1101590Y1094920D02*
X1103870Y1097210D01*
G01X1101590Y1105080D02*
X1103870Y1102790D01*
G01D02*
X1109460D01*
G01D02*
X1111750Y1105080D01*
G01X1116570Y1097210D02*
X1114290Y1094920D01*
G01X1101590Y1079680D02*
X1103870Y1077390D01*
G01D02*
X1109460D01*
G01D02*
X1111750Y1079680D01*
G01X1116570Y1102790D02*
X1114290Y1105080D01*
G01X1116570Y1077390D02*
X1114290Y1079680D01*
G01X1109460Y1090090D02*
X1111750Y1092380D01*
G01X1109460Y1084510D02*
X1111750Y1082220D01*
G01X1101590D02*
X1103870Y1084510D01*
G01X1101590Y1092380D02*
X1103870Y1090090D01*
G01X1106670Y1108260D02*
Y1122220D01*
G01X1114290Y1079680D02*
X1124450D01*
G01Y1094920D02*
X1114290D01*
G01D02*
Y1105080D01*
G01D02*
X1124450D01*
G01X1111750D02*
X1101590D01*
G01X1111750Y1094920D02*
Y1105080D01*
G01X1101590Y1094920D02*
X1111750D01*
G01X1101590Y1105080D02*
Y1094920D01*
G01X1111750Y1079680D02*
X1101590D01*
G01X1111750Y1092380D02*
X1101590D01*
G01X1111750Y1082220D02*
Y1092380D01*
G01X1101590Y1082220D02*
X1111750D01*
G01X1101590Y1092380D02*
Y1082220D01*
G01X1091430Y1108260D02*
Y1087940D01*
G01D02*
X1097780D01*
G01X1103870Y1090090D02*
X1109460D01*
G01D02*
Y1084510D01*
G01D02*
X1103870D01*
G01D02*
Y1090090D01*
G01X1124450Y1082220D02*
X1114290D01*
G01Y1092380D02*
X1124450D01*
G01X1114290Y1082220D02*
Y1092380D01*
G01X1116570Y1084510D02*
X1114290Y1082220D01*
G01X1116570Y1090090D02*
X1114290Y1092380D01*
G01X1091430Y1108260D02*
X1128260D01*
G01X1107210Y1098500D02*
G02X1105090Y1099720I-546J1503D01*
G01Y1100280D02*
G02X1107210Y1101500I1574J-283D01*
G01X1103870Y1100490D02*
X1105090Y1100280D01*
G01X1103870Y1099510D02*
X1105090Y1099720D01*
G01X1107210Y1098500D02*
X1107220Y1098490D01*
G01X1107670Y1097260D02*
X1107220Y1098490D01*
G01X1107670Y1102740D02*
X1107220Y1101510D01*
G01D02*
X1107210Y1101500D01*
G01X1105820Y1097210D02*
G02X1103870Y1099150I842J2796D01*
G01X1109460D02*
G02X1107520Y1097210I-2792J852D01*
G01Y1102790D02*
G02X1109460Y1100850I-852J-2792D01*
G01X1103870D02*
G02X1105820Y1102790I2792J-856D01*
G01X1108540Y1097760D02*
X1107660Y1098820D01*
G01X1108540Y1102240D02*
X1107660Y1101180D01*
G01X1105150Y1100500D02*
G02Y1099500I-388J-500D01*
G01X1107940Y1098490D02*
Y1097460D01*
G01Y1100860D02*
Y1099140D01*
G01Y1102540D02*
Y1101510D01*
G01X1108110Y1097460D02*
X1107940D01*
G01X1107590D02*
X1107940D01*
G01Y1102540D02*
X1107590D01*
G01X1107940D02*
X1108110D01*
G01X1107210Y1073100D02*
G02X1105090Y1074320I-546J1503D01*
G01Y1074880D02*
G02X1107210Y1076100I1574J-283D01*
G01X1103870Y1075090D02*
X1105090Y1074880D01*
G01X1103870Y1074110D02*
X1105090Y1074320D01*
G01X1107210Y1073100D02*
X1107220Y1073090D01*
G01X1107670Y1071860D02*
X1107220Y1073090D01*
G01X1107670Y1077340D02*
X1107220Y1076110D01*
G01D02*
X1107210Y1076100D01*
G01X1105820Y1071810D02*
G02X1103870Y1073750I842J2796D01*
G01X1109460D02*
G02X1107520Y1071810I-2792J852D01*
G01Y1077390D02*
G02X1109460Y1075450I-852J-2792D01*
G01X1103870D02*
G02X1105820Y1077390I2792J-856D01*
G01X1108540Y1072360D02*
X1107660Y1073420D01*
G01X1108540Y1076840D02*
X1107660Y1075780D01*
G01X1105150Y1075100D02*
G02Y1074100I-388J-500D01*
G01X1097780Y1073960D02*
X1094600D01*
G01D02*
G02Y1075240I0J640D01*
G01D02*
X1097780D01*
G01X1094600Y1072060D02*
G02Y1077140I2J2540D01*
G01X1107940Y1073090D02*
Y1072060D01*
G01Y1075460D02*
Y1073740D01*
G01Y1077140D02*
Y1076110D01*
G01X1108110Y1072060D02*
X1107940D01*
G01X1107590D02*
X1107940D01*
G01X1094600D02*
X1097780D01*
G01X1107940Y1077140D02*
X1107590D01*
G01X1107940D02*
X1108110D01*
G01X1094600D02*
X1097780D01*
G01X1107210Y1085800D02*
G02X1105090Y1087020I-546J1503D01*
G01Y1087580D02*
G02X1107210Y1088800I1574J-283D01*
G01X1103870Y1087790D02*
X1105090Y1087580D01*
G01X1103870Y1086810D02*
X1105090Y1087020D01*
G01X1107210Y1085800D02*
X1107220Y1085790D01*
G01X1107670Y1084560D02*
X1107220Y1085790D01*
G01X1107670Y1090040D02*
X1107220Y1088810D01*
G01D02*
X1107210Y1088800D01*
G01X1105820Y1084510D02*
G02X1103870Y1086450I842J2796D01*
G01X1109460D02*
G02X1107520Y1084510I-2792J852D01*
G01Y1090090D02*
G02X1109460Y1088150I-852J-2792D01*
G01X1103870D02*
G02X1105820Y1090090I2792J-856D01*
G01X1108540Y1085060D02*
X1107660Y1086120D01*
G01X1108540Y1089540D02*
X1107660Y1088480D01*
G01X1105150Y1087800D02*
G02Y1086800I-388J-500D01*
G01X1097780Y1086660D02*
X1094600D01*
G01D02*
G02Y1087940I0J640D01*
G01Y1084760D02*
G02X1092140Y1087940I0J2542D01*
G01X1107940Y1085790D02*
Y1084760D01*
G01Y1088160D02*
Y1086440D01*
G01Y1089840D02*
Y1088810D01*
G01X1108110Y1084760D02*
X1107940D01*
G01X1107590D02*
X1107940D01*
G01X1094600D02*
X1097780D01*
G01X1107940Y1089840D02*
X1107590D01*
G01X1107940D02*
X1108110D01*
G01X1119370Y1122220D02*
X1106670D01*
G01X1102800Y1305700D02*
G03I-10500J0D01*
G01X1124450Y980620D02*
X1122160Y982910D01*
G01X1119370Y963480D02*
Y977440D01*
G01X1124450Y990780D02*
Y980620D01*
G01X1128260Y1108260D02*
Y977440D01*
G01X1116570Y988490D02*
Y982910D01*
G01X1122160Y1021010D02*
Y1026590D01*
G01Y1008310D02*
Y1013890D01*
G01Y982910D02*
Y988490D01*
G01Y1026590D02*
X1116570D01*
G01X1124450Y1028880D02*
X1122160Y1026590D01*
G01X1116570Y1013890D02*
Y1008310D01*
G01Y995610D02*
X1122160D01*
G01X1116570Y1001190D02*
Y995610D01*
G01X1122160D02*
Y1001190D01*
G01X1124450Y993320D02*
X1122160Y995610D01*
G01Y1001190D02*
X1116570D01*
G01X1124450Y1003480D02*
X1122160Y1001190D01*
G01X1116570Y982910D02*
X1122160D01*
G01X1116570Y1021010D02*
X1122160D01*
G01X1124450Y1018720D02*
X1122160Y1021010D01*
G01Y1013890D02*
X1116570D01*
G01X1124450Y1016180D02*
X1122160Y1013890D01*
G01X1116570Y1026590D02*
Y1021010D01*
G01Y1008310D02*
X1122160D01*
G01X1124450Y1006020D02*
X1122160Y1008310D01*
G01Y988490D02*
X1116570D01*
G01X1124450Y990780D02*
X1122160Y988490D01*
G01X1124450Y1003480D02*
Y993320D01*
G01Y1016180D02*
Y1006020D01*
G01Y1028880D02*
Y1018720D01*
G01X1118820Y1012600D02*
G02X1120940Y1011380I547J-1502D01*
G01Y1010820D02*
G02X1118820Y1009600I-1573J282D01*
G01X1122160Y1010610D02*
X1120940Y1010820D01*
G01X1122160Y1011590D02*
X1120940Y1011380D01*
G01X1118820Y1012600D02*
Y1012610D01*
G01X1118370Y1013840D02*
X1118820Y1012610D01*
G01X1118370Y1008360D02*
X1118820Y1009590D01*
G01D02*
Y1009600D01*
G01X1120220Y1013890D02*
G02X1122160Y1011950I-852J-2792D01*
G01X1116570D02*
G02X1118520Y1013890I2792J-856D01*
G01Y1008310D02*
G02X1116570Y1010250I842J2796D01*
G01X1122160D02*
G02X1120220Y1008310I-2792J852D01*
G01X1117490Y1013340D02*
X1118380Y1012280D01*
G01X1117490Y1008860D02*
X1118380Y1009920D01*
G01X1120880Y1010600D02*
G02Y1011600I392J500D01*
G01X1128260Y1011740D02*
X1131430D01*
G01D02*
G02Y1010460I0J-640D01*
G01D02*
X1128260D01*
G01X1131430Y1013640D02*
G02Y1008560I2J-2540D01*
G01X1118100Y1012610D02*
Y1013640D01*
G01Y1010240D02*
Y1011960D01*
G01Y1008560D02*
Y1009590D01*
G01X1117920Y1013640D02*
X1118100D01*
G01X1118440D02*
X1118100D01*
G01X1131430D02*
X1128260D01*
G01X1118100Y1008560D02*
X1118440D01*
G01X1118100D02*
X1117920D01*
G01X1131430D02*
X1128260D01*
G01X1118820Y987200D02*
G02X1120940Y985980I547J-1502D01*
G01Y985420D02*
G02X1118820Y984200I-1573J282D01*
G01X1122160Y985210D02*
X1120940Y985420D01*
G01X1122160Y986190D02*
X1120940Y985980D01*
G01X1118820Y987200D02*
Y987210D01*
G01X1118370Y988440D02*
X1118820Y987210D01*
G01X1118370Y982960D02*
X1118820Y984190D01*
G01D02*
Y984200D01*
G01X1120220Y988490D02*
G02X1122160Y986550I-852J-2792D01*
G01X1116570D02*
G02X1118520Y988490I2792J-856D01*
G01Y982910D02*
G02X1116570Y984850I842J2796D01*
G01X1122160D02*
G02X1120220Y982910I-2792J852D01*
G01X1117490Y987940D02*
X1118380Y986880D01*
G01X1117490Y983460D02*
X1118380Y984520D01*
G01X1120880Y985200D02*
G02Y986200I392J500D01*
G01X1128260Y986340D02*
X1131430D01*
G01D02*
G02Y985060I0J-640D01*
G01D02*
X1128260D01*
G01X1131430Y988240D02*
G02Y983160I2J-2540D01*
G01X1118100Y987210D02*
Y988240D01*
G01Y984840D02*
Y986560D01*
G01Y983160D02*
Y984190D01*
G01X1117920Y988240D02*
X1118100D01*
G01X1118440D02*
X1118100D01*
G01X1131430D02*
X1128260D01*
G01X1118100Y983160D02*
X1118440D01*
G01X1118100D02*
X1117920D01*
G01X1131430D02*
X1128260D01*
G01X1118820Y999900D02*
G02X1120940Y998680I547J-1502D01*
G01Y998120D02*
G02X1118820Y996900I-1573J282D01*
G01X1122160Y997910D02*
X1120940Y998120D01*
G01X1122160Y998890D02*
X1120940Y998680D01*
G01X1118820Y999900D02*
Y999910D01*
G01X1118370Y1001140D02*
X1118820Y999910D01*
G01X1118370Y995660D02*
X1118820Y996890D01*
G01D02*
Y996900D01*
G01X1120220Y1001190D02*
G02X1122160Y999250I-852J-2792D01*
G01X1116570D02*
G02X1118520Y1001190I2792J-856D01*
G01Y995610D02*
G02X1116570Y997550I842J2796D01*
G01X1122160D02*
G02X1120220Y995610I-2792J852D01*
G01X1117490Y1000640D02*
X1118380Y999580D01*
G01X1117490Y996160D02*
X1118380Y997220D01*
G01X1120880Y997900D02*
G02Y998900I392J500D01*
G01X1128260Y999040D02*
X1131430D01*
G01D02*
G02Y997760I0J-640D01*
G01D02*
X1128260D01*
G01X1131430Y1000940D02*
G02Y995860I2J-2540D01*
G01X1118100Y999910D02*
Y1000940D01*
G01Y997540D02*
Y999260D01*
G01Y995860D02*
Y996890D01*
G01X1117920Y1000940D02*
X1118100D01*
G01X1118440D02*
X1118100D01*
G01X1131430D02*
X1128260D01*
G01X1118100Y995860D02*
X1118440D01*
G01X1118100D02*
X1117920D01*
G01X1131430D02*
X1128260D01*
G01X1118820Y1025300D02*
G02X1120940Y1024080I547J-1502D01*
G01Y1023520D02*
G02X1118820Y1022300I-1573J282D01*
G01X1122160Y1023310D02*
X1120940Y1023520D01*
G01X1122160Y1024290D02*
X1120940Y1024080D01*
G01X1118820Y1025300D02*
Y1025310D01*
G01X1118370Y1026540D02*
X1118820Y1025310D01*
G01X1118370Y1021060D02*
X1118820Y1022290D01*
G01D02*
Y1022300D01*
G01X1120220Y1026590D02*
G02X1122160Y1024650I-852J-2792D01*
G01X1116570D02*
G02X1118520Y1026590I2792J-856D01*
G01Y1021010D02*
G02X1116570Y1022950I842J2796D01*
G01X1122160D02*
G02X1120220Y1021010I-2792J852D01*
G01X1117490Y1026040D02*
X1118380Y1024980D01*
G01X1117490Y1021560D02*
X1118380Y1022620D01*
G01X1120880Y1023300D02*
G02Y1024300I392J500D01*
G01X1128260Y1024440D02*
X1131430D01*
G01D02*
G02Y1023160I0J-640D01*
G01D02*
X1128260D01*
G01X1131430Y1026340D02*
G02Y1021260I2J-2540D01*
G01X1118100Y1025310D02*
Y1026340D01*
G01Y1022940D02*
Y1024660D01*
G01Y1021260D02*
Y1022290D01*
G01X1117920Y1026340D02*
X1118100D01*
G01X1118440D02*
X1118100D01*
G01X1131430D02*
X1128260D01*
G01X1118100Y1021260D02*
X1118440D01*
G01X1118100D02*
X1117920D01*
G01X1131430D02*
X1128260D01*
G01X1122160Y1064690D02*
X1116570D01*
G01X1122160Y1039290D02*
X1116570D01*
G01X1122160Y1051990D02*
X1116570D01*
G01Y1033710D02*
X1122160D01*
G01Y1059110D02*
Y1064690D01*
G01X1124450Y1066980D02*
X1122160Y1064690D01*
G01X1116570Y1039290D02*
Y1033710D01*
G01X1122160D02*
Y1039290D01*
G01X1124450Y1031420D02*
X1122160Y1033710D01*
G01X1124450Y1041580D02*
X1122160Y1039290D01*
G01X1116570Y1051990D02*
Y1046410D01*
G01X1122160D02*
Y1051990D01*
G01X1124450Y1054280D02*
X1122160Y1051990D01*
G01X1116570Y1046410D02*
X1122160D01*
G01X1124450Y1044120D02*
X1122160Y1046410D01*
G01X1116570Y1064690D02*
Y1059110D01*
G01X1124450Y1069520D02*
X1122160Y1071810D01*
G01X1116570Y1059110D02*
X1122160D01*
G01X1124450Y1056820D02*
X1122160Y1059110D01*
G01X1124450Y1041580D02*
Y1031420D01*
G01Y1054280D02*
Y1044120D01*
G01Y1066980D02*
Y1056820D01*
G01Y1079680D02*
Y1069520D01*
G01X1118820Y1050700D02*
G02X1120940Y1049480I547J-1502D01*
G01Y1048920D02*
G02X1118820Y1047700I-1573J282D01*
G01X1122160Y1048710D02*
X1120940Y1048920D01*
G01X1122160Y1049690D02*
X1120940Y1049480D01*
G01X1118820Y1050700D02*
Y1050710D01*
G01X1118370Y1051940D02*
X1118820Y1050710D01*
G01X1118370Y1046460D02*
X1118820Y1047690D01*
G01D02*
Y1047700D01*
G01X1120220Y1051990D02*
G02X1122160Y1050050I-852J-2792D01*
G01X1116570D02*
G02X1118520Y1051990I2792J-856D01*
G01Y1046410D02*
G02X1116570Y1048350I842J2796D01*
G01X1122160D02*
G02X1120220Y1046410I-2792J852D01*
G01X1117490Y1051440D02*
X1118380Y1050380D01*
G01X1117490Y1046960D02*
X1118380Y1048020D01*
G01X1120880Y1048700D02*
G02Y1049700I392J500D01*
G01X1128260Y1049840D02*
X1131430D01*
G01D02*
G02Y1048560I0J-640D01*
G01D02*
X1128260D01*
G01X1131430Y1051740D02*
G02Y1046660I2J-2540D01*
G01X1118100Y1050710D02*
Y1051740D01*
G01Y1048340D02*
Y1050060D01*
G01Y1046660D02*
Y1047690D01*
G01X1117920Y1051740D02*
X1118100D01*
G01X1118440D02*
X1118100D01*
G01X1131430D02*
X1128260D01*
G01X1118100Y1046660D02*
X1118440D01*
G01X1118100D02*
X1117920D01*
G01X1131430D02*
X1128260D01*
G01X1118820Y1063400D02*
G02X1120940Y1062180I547J-1502D01*
G01Y1061620D02*
G02X1118820Y1060400I-1573J282D01*
G01X1122160Y1061410D02*
X1120940Y1061620D01*
G01X1122160Y1062390D02*
X1120940Y1062180D01*
G01X1118820Y1063400D02*
Y1063410D01*
G01X1118370Y1064640D02*
X1118820Y1063410D01*
G01X1118370Y1059160D02*
X1118820Y1060390D01*
G01D02*
Y1060400D01*
G01X1120220Y1064690D02*
G02X1122160Y1062750I-852J-2792D01*
G01X1116570D02*
G02X1118520Y1064690I2792J-856D01*
G01Y1059110D02*
G02X1116570Y1061050I842J2796D01*
G01X1122160D02*
G02X1120220Y1059110I-2792J852D01*
G01X1117490Y1064140D02*
X1118380Y1063080D01*
G01X1117490Y1059660D02*
X1118380Y1060720D01*
G01X1120880Y1061400D02*
G02Y1062400I392J500D01*
G01X1128260Y1062540D02*
X1131430D01*
G01D02*
G02Y1061260I0J-640D01*
G01D02*
X1128260D01*
G01X1131430Y1064440D02*
G02Y1059360I2J-2540D01*
G01X1118100Y1063410D02*
Y1064440D01*
G01Y1061040D02*
Y1062760D01*
G01Y1059360D02*
Y1060390D01*
G01X1117920Y1064440D02*
X1118100D01*
G01X1118440D02*
X1118100D01*
G01X1131430D02*
X1128260D01*
G01X1118100Y1059360D02*
X1118440D01*
G01X1118100D02*
X1117920D01*
G01X1131430D02*
X1128260D01*
G01X1118820Y1038000D02*
G02X1120940Y1036780I547J-1502D01*
G01Y1036220D02*
G02X1118820Y1035000I-1573J282D01*
G01X1122160Y1036010D02*
X1120940Y1036220D01*
G01X1122160Y1036990D02*
X1120940Y1036780D01*
G01X1118820Y1038000D02*
Y1038010D01*
G01X1118370Y1039240D02*
X1118820Y1038010D01*
G01X1118370Y1033760D02*
X1118820Y1034990D01*
G01D02*
Y1035000D01*
G01X1120220Y1039290D02*
G02X1122160Y1037350I-852J-2792D01*
G01X1116570D02*
G02X1118520Y1039290I2792J-856D01*
G01Y1033710D02*
G02X1116570Y1035650I842J2796D01*
G01X1122160D02*
G02X1120220Y1033710I-2792J852D01*
G01X1117490Y1038740D02*
X1118380Y1037680D01*
G01X1117490Y1034260D02*
X1118380Y1035320D01*
G01X1120880Y1036000D02*
G02Y1037000I392J500D01*
G01X1128260Y1037140D02*
X1131430D01*
G01D02*
G02Y1035860I0J-640D01*
G01D02*
X1128260D01*
G01X1131430Y1039040D02*
G02Y1033960I2J-2540D01*
G01X1118100Y1038010D02*
Y1039040D01*
G01Y1035640D02*
Y1037360D01*
G01Y1033960D02*
Y1034990D01*
G01X1117920Y1039040D02*
X1118100D01*
G01X1118440D02*
X1118100D01*
G01X1131430D02*
X1128260D01*
G01X1118100Y1033960D02*
X1118440D01*
G01X1118100D02*
X1117920D01*
G01X1131430D02*
X1128260D01*
G01X1116570Y1097210D02*
X1122160D01*
G01X1116570Y1102790D02*
Y1097210D01*
G01Y1071810D02*
X1122160D01*
G01Y1097210D02*
Y1102790D01*
G01X1124450Y1094920D02*
X1122160Y1097210D01*
G01X1116570Y1077390D02*
Y1071810D01*
G01X1122160Y1102790D02*
X1116570D01*
G01X1124450Y1105080D02*
X1122160Y1102790D01*
G01Y1071810D02*
Y1077390D01*
G01D02*
X1116570D01*
G01X1124450Y1079680D02*
X1122160Y1077390D01*
G01X1119370Y1122220D02*
Y1108260D01*
G01X1124450Y1105080D02*
Y1094920D01*
G01Y1092380D02*
Y1082220D01*
G01D02*
X1122160Y1084510D01*
G01X1124450Y1092380D02*
X1122160Y1090090D01*
G01Y1084510D02*
Y1090090D01*
G01X1116570Y1084510D02*
X1122160D01*
G01Y1090090D02*
X1116570D01*
G01D02*
Y1084510D01*
G01X1118820Y1076100D02*
G02X1120940Y1074880I547J-1502D01*
G01Y1074320D02*
G02X1118820Y1073100I-1573J282D01*
G01X1122160Y1074110D02*
X1120940Y1074320D01*
G01X1122160Y1075090D02*
X1120940Y1074880D01*
G01X1118820Y1076100D02*
Y1076110D01*
G01X1118370Y1077340D02*
X1118820Y1076110D01*
G01X1118370Y1071860D02*
X1118820Y1073090D01*
G01D02*
Y1073100D01*
G01X1120220Y1077390D02*
G02X1122160Y1075450I-852J-2792D01*
G01X1116570D02*
G02X1118520Y1077390I2792J-856D01*
G01Y1071810D02*
G02X1116570Y1073750I842J2796D01*
G01X1122160D02*
G02X1120220Y1071810I-2792J852D01*
G01X1117490Y1076840D02*
X1118380Y1075780D01*
G01X1117490Y1072360D02*
X1118380Y1073420D01*
G01X1120880Y1074100D02*
G02Y1075100I392J500D01*
G01X1128260Y1075240D02*
X1131430D01*
G01D02*
G02Y1073960I0J-640D01*
G01D02*
X1128260D01*
G01X1131430Y1077140D02*
G02Y1072060I2J-2540D01*
G01X1118100Y1076110D02*
Y1077140D01*
G01Y1073740D02*
Y1075460D01*
G01Y1072060D02*
Y1073090D01*
G01X1117920Y1077140D02*
X1118100D01*
G01X1118440D02*
X1118100D01*
G01X1131430D02*
X1128260D01*
G01X1118100Y1072060D02*
X1118440D01*
G01X1118100D02*
X1117920D01*
G01X1131430D02*
X1128260D01*
G01X1118820Y1088800D02*
G02X1120940Y1087580I547J-1502D01*
G01Y1087020D02*
G02X1118820Y1085800I-1573J282D01*
G01X1122160Y1086810D02*
X1120940Y1087020D01*
G01X1122160Y1087790D02*
X1120940Y1087580D01*
G01X1118820Y1088800D02*
Y1088810D01*
G01X1118370Y1090040D02*
X1118820Y1088810D01*
G01X1118370Y1084560D02*
X1118820Y1085790D01*
G01D02*
Y1085800D01*
G01X1120220Y1090090D02*
G02X1122160Y1088150I-852J-2792D01*
G01X1116570D02*
G02X1118520Y1090090I2792J-856D01*
G01Y1084510D02*
G02X1116570Y1086450I842J2796D01*
G01X1122160D02*
G02X1120220Y1084510I-2792J852D01*
G01X1117490Y1089540D02*
X1118380Y1088480D01*
G01X1117490Y1085060D02*
X1118380Y1086120D01*
G01X1120880Y1086800D02*
G02Y1087800I392J500D01*
G01X1128260Y1087940D02*
X1131430D01*
G01D02*
G02Y1086660I0J-640D01*
G01D02*
X1128260D01*
G01X1131430Y1089840D02*
G02Y1084760I2J-2540D01*
G01X1118100Y1088810D02*
Y1089840D01*
G01Y1086440D02*
Y1088160D01*
G01Y1084760D02*
Y1085790D01*
G01X1117920Y1089840D02*
X1118100D01*
G01X1118440D02*
X1118100D01*
G01X1131430D02*
X1128260D01*
G01X1118100Y1084760D02*
X1118440D01*
G01X1118100D02*
X1117920D01*
G01X1131430D02*
X1128260D01*
G01X1118820Y1101500D02*
G02X1120940Y1100280I547J-1502D01*
G01Y1099720D02*
G02X1118820Y1098500I-1573J282D01*
G01X1122160Y1099510D02*
X1120940Y1099720D01*
G01X1122160Y1100490D02*
X1120940Y1100280D01*
G01X1118820Y1101500D02*
Y1101510D01*
G01X1118370Y1102740D02*
X1118820Y1101510D01*
G01X1118370Y1097260D02*
X1118820Y1098490D01*
G01D02*
Y1098500D01*
G01X1120220Y1102790D02*
G02X1122160Y1100850I-852J-2792D01*
G01X1116570D02*
G02X1118520Y1102790I2792J-856D01*
G01Y1097210D02*
G02X1116570Y1099150I842J2796D01*
G01X1122160D02*
G02X1120220Y1097210I-2792J852D01*
G01X1117490Y1102240D02*
X1118380Y1101180D01*
G01X1117490Y1097760D02*
X1118380Y1098820D01*
G01X1120880Y1099500D02*
G02Y1100500I392J500D01*
G01X1128260Y1100640D02*
X1131430D01*
G01D02*
G02Y1099360I0J-640D01*
G01D02*
X1128260D01*
G01X1131430Y1102540D02*
G02Y1097460I2J-2540D01*
G01X1118100Y1101510D02*
Y1102540D01*
G01Y1099140D02*
Y1100860D01*
G01Y1097460D02*
Y1098490D01*
G01X1117920Y1102540D02*
X1118100D01*
G01X1118440D02*
X1118100D01*
G01X1131430D02*
X1128260D01*
G01X1118100Y1097460D02*
X1118440D01*
G01X1118100D02*
X1117920D01*
G01X1131430D02*
X1128260D01*
G01X1203130Y981480D02*
X1205420Y983770D01*
G01X1203130Y981480D02*
Y991640D01*
G01X1213290Y981480D02*
X1203130D01*
G01X1330770Y977680D02*
X1199960D01*
G01D02*
Y1008160D01*
G01X1203130Y1004340D02*
X1205420Y1002060D01*
G01Y989360D02*
X1203130Y991640D01*
G01X1205420Y996470D02*
X1203130Y994180D01*
G01X1199960Y999260D02*
X1185990D01*
G01Y986560D02*
Y999260D01*
G01Y986560D02*
X1199960D01*
G01X1203130Y991640D02*
X1213290D01*
G01X1203130Y994180D02*
X1213290D01*
G01X1203130Y1004340D02*
Y994180D01*
G01X1213290Y1004340D02*
X1203130D01*
G01X1310450Y1008160D02*
X1199960D01*
G01X1215830Y981480D02*
X1218120Y983770D01*
G01X1225990Y981480D02*
X1223710Y983770D01*
G01X1241230Y981480D02*
X1243520Y983770D01*
G01X1238690Y981480D02*
X1236410Y983770D01*
G01X1228530Y981480D02*
X1230820Y983770D01*
G01X1213290Y981480D02*
X1211010Y983770D01*
G01X1213290Y991640D02*
Y981480D01*
G01X1215830D02*
Y991640D01*
G01X1225990D02*
Y981480D01*
G01D02*
X1215830D01*
G01X1228530D02*
Y991640D01*
G01X1238690D02*
Y981480D01*
G01D02*
X1228530D01*
G01X1241230D02*
Y991640D01*
G01X1251390Y981480D02*
X1241230D01*
G01X1234250Y977680D02*
Y974500D01*
G01D02*
G02X1232980I-635J0D01*
G01D02*
Y977680D01*
G01X1236150Y974500D02*
G02X1231070I-2540J0D01*
G01X1236150D02*
Y977680D01*
G01X1231070Y974500D02*
Y977680D01*
G01X1208850D02*
Y974500D01*
G01D02*
G02X1207580I-635J0D01*
G01D02*
Y977680D01*
G01X1210750Y974500D02*
G02X1205670I-2540J0D01*
G01X1210750D02*
Y977680D01*
G01X1205670Y974500D02*
Y977680D01*
G01X1221550D02*
Y974500D01*
G01D02*
G02X1220280I-635J0D01*
G01D02*
Y977680D01*
G01X1223450Y974500D02*
G02X1218370I-2540J0D01*
G01X1223450D02*
Y977680D01*
G01X1218370Y974500D02*
Y977680D01*
G01X1246950D02*
Y974500D01*
G01D02*
G02X1245680I-635J0D01*
G01D02*
Y977680D01*
G01X1248850Y974500D02*
G02X1243770I-2540J0D01*
G01X1248850D02*
Y977680D01*
G01X1243770Y974500D02*
Y977680D01*
G01X1223710Y996470D02*
X1218120D01*
G01X1211010Y989360D02*
X1205420D01*
G01X1243520Y983770D02*
X1249110D01*
G01X1230820D02*
X1236410D01*
G01X1205420D02*
X1211010D01*
G01X1205420Y996470D02*
Y1002060D01*
G01X1243520Y996470D02*
Y1002060D01*
G01X1218120D02*
X1223710D01*
G01X1249110Y983770D02*
Y989360D01*
G01X1251390Y981480D02*
X1249110Y983770D01*
G01Y1002060D02*
Y996470D01*
G01X1230820D02*
Y1002060D01*
G01X1225990Y1004340D02*
X1223710Y1002060D01*
G01D02*
Y996470D01*
G01D02*
X1225990Y994180D01*
G01X1236410Y996470D02*
X1230820D01*
G01D02*
X1228530Y994180D01*
G01X1236410Y989360D02*
X1230820D01*
G01X1228530Y1004340D02*
X1230820Y1002060D01*
G01D02*
X1236410D01*
G01X1218120Y989360D02*
Y983770D01*
G01X1211010Y1002060D02*
Y996470D01*
G01X1218120Y989360D02*
X1215830Y991640D01*
G01X1223710Y989360D02*
X1218120D01*
G01X1249110Y996470D02*
X1243520D01*
G01D02*
X1241230Y994180D01*
G01X1249110Y996470D02*
X1251390Y994180D01*
G01X1218120Y983770D02*
X1223710D01*
G01X1241230Y1004340D02*
X1243520Y1002060D01*
G01D02*
X1249110D01*
G01X1251390Y1004340D02*
X1249110Y1002060D01*
G01X1205420D02*
X1211010D01*
G01X1213290Y1004340D02*
X1211010Y1002060D01*
G01X1223710Y983770D02*
Y989360D01*
G01D02*
X1225990Y991640D01*
G01X1205420Y989360D02*
Y983770D01*
G01X1243520Y989360D02*
Y983770D01*
G01X1236410D02*
Y989360D01*
G01D02*
X1238690Y991640D01*
G01X1211010Y996470D02*
X1205420D01*
G01X1211010D02*
X1213290Y994180D01*
G01X1243520Y989360D02*
X1241230Y991640D01*
G01X1249110Y989360D02*
X1243520D01*
G01X1249110D02*
X1251390Y991640D01*
G01X1230820Y989360D02*
Y983770D01*
G01Y989360D02*
X1228530Y991640D01*
G01X1211010Y983770D02*
Y989360D01*
G01D02*
X1213290Y991640D01*
G01X1238690Y1004340D02*
X1236410Y1002060D01*
G01D02*
Y996470D01*
G01D02*
X1238690Y994180D01*
G01X1218120Y996470D02*
X1215830Y994180D01*
G01X1218120Y996470D02*
Y1002060D01*
G01X1215830Y1004340D02*
X1218120Y1002060D01*
G01X1215830Y991640D02*
X1225990D01*
G01X1228530D02*
X1238690D01*
G01X1241230D02*
X1251390D01*
G01X1213290Y994180D02*
Y1004340D01*
G01X1225990Y994180D02*
Y1004340D01*
G01X1215830Y994180D02*
X1225990D01*
G01X1215830Y1004340D02*
Y994180D01*
G01X1225990Y1004340D02*
X1215830D01*
G01X1238690Y994180D02*
Y1004340D01*
G01X1228530Y994180D02*
X1238690D01*
G01X1228530Y1004340D02*
Y994180D01*
G01X1238690Y1004340D02*
X1228530D01*
G01X1241230Y994180D02*
X1251390D01*
G01X1241230Y1004340D02*
Y994180D01*
G01X1251390Y1004340D02*
X1241230D01*
G01X1235120Y987110D02*
G02X1233890Y984990I-1506J-543D01*
G01X1233330D02*
G02X1232110Y987110I283J1574D01*
G01X1233120Y983770D02*
X1233330Y984990D01*
G01X1234100Y983770D02*
X1233890Y984990D01*
G01X1236360Y987560D02*
X1235120Y987110D01*
G01X1230870Y987560D02*
X1232110Y987110D01*
G01X1236410Y985710D02*
G02X1234460Y983770I-2794J858D01*
G01Y989360D02*
G02X1236410Y987420I-844J-2798D01*
G01X1230820D02*
G02X1232760Y989360I2794J-854D01*
G01Y983770D02*
G02X1230820Y985710I854J2794D01*
G01X1235850Y988440D02*
X1234790Y987560D01*
G01X1231370Y988440D02*
X1232430Y987560D01*
G01X1233110Y985050D02*
G02X1234120I505J-388D01*
G01X1235130Y987840D02*
X1236150D01*
G01X1232750D02*
X1234480D01*
G01X1231070D02*
X1232100D01*
G01X1236150Y988010D02*
Y987840D01*
G01Y987490D02*
Y987840D01*
G01X1231070D02*
Y987490D01*
G01Y987840D02*
Y988010D01*
G01X1209720Y987110D02*
G02X1208490Y984990I-1506J-543D01*
G01X1207930D02*
G02X1206710Y987110I283J1574D01*
G01X1207720Y983770D02*
X1207930Y984990D01*
G01X1208700Y983770D02*
X1208490Y984990D01*
G01X1210960Y987560D02*
X1209720Y987110D01*
G01X1205470Y987560D02*
X1206710Y987110D01*
G01X1211010Y985710D02*
G02X1209060Y983770I-2794J858D01*
G01Y989360D02*
G02X1211010Y987420I-844J-2798D01*
G01X1205420D02*
G02X1207360Y989360I2794J-854D01*
G01Y983770D02*
G02X1205420Y985710I854J2794D01*
G01X1210450Y988440D02*
X1209390Y987560D01*
G01X1205970Y988440D02*
X1207030Y987560D01*
G01X1207710Y985050D02*
G02X1208720I505J-388D01*
G01X1209730Y987840D02*
X1210750D01*
G01X1207350D02*
X1209080D01*
G01X1205670D02*
X1206700D01*
G01X1210750Y988010D02*
Y987840D01*
G01Y987490D02*
Y987840D01*
G01X1205670D02*
Y987490D01*
G01Y987840D02*
Y988010D01*
G01X1232110Y998720D02*
G02X1233330Y1000840I1503J546D01*
G01X1233890D02*
G02X1235120Y998720I-276J-1577D01*
G01X1234100Y1002060D02*
X1233890Y1000840D01*
G01X1233120Y1002060D02*
X1233330Y1000840D01*
G01X1230870Y998270D02*
X1232110Y998720D01*
G01X1236360Y998270D02*
X1235120Y998720D01*
G01X1230820Y1000120D02*
G02X1232760Y1002060I2794J-854D01*
G01Y996470D02*
G02X1230820Y998410I854J2794D01*
G01X1236410D02*
G02X1234460Y996470I-2794J858D01*
G01Y1002060D02*
G02X1236410Y1000120I-844J-2798D01*
G01X1231370Y997390D02*
X1232430Y998280D01*
G01X1235850Y997390D02*
X1234790Y998280D01*
G01X1234120Y1000780D02*
G02X1233110I-505J388D01*
G01X1232980Y1008160D02*
Y1011330D01*
G01D02*
G02X1234250I635J0D01*
G01D02*
Y1008160D01*
G01X1231070Y1011330D02*
G02X1236150I2540J0D01*
G01X1232100Y998000D02*
X1231070D01*
G01X1234480D02*
X1232750D01*
G01X1236150D02*
X1235130D01*
G01X1231070Y997820D02*
Y998000D01*
G01Y998340D02*
Y998000D01*
G01Y1011330D02*
Y1008160D01*
G01X1236150Y998000D02*
Y998340D01*
G01Y998000D02*
Y997820D01*
G01Y1011330D02*
Y1008160D01*
G01X1206710Y998720D02*
G02X1207930Y1000840I1503J546D01*
G01X1208490D02*
G02X1209720Y998720I-276J-1577D01*
G01X1208700Y1002060D02*
X1208490Y1000840D01*
G01X1207720Y1002060D02*
X1207930Y1000840D01*
G01X1205470Y998270D02*
X1206710Y998720D01*
G01X1210960Y998270D02*
X1209720Y998720D01*
G01X1205420Y1000120D02*
G02X1207360Y1002060I2794J-854D01*
G01Y996470D02*
G02X1205420Y998410I854J2794D01*
G01X1211010D02*
G02X1209060Y996470I-2794J858D01*
G01Y1002060D02*
G02X1211010Y1000120I-844J-2798D01*
G01X1205970Y997390D02*
X1207030Y998280D01*
G01X1210450Y997390D02*
X1209390Y998280D01*
G01X1208720Y1000780D02*
G02X1207710I-505J388D01*
G01X1207580Y1008160D02*
Y1011330D01*
G01D02*
G02X1208850I635J0D01*
G01D02*
Y1008160D01*
G01X1205670Y1011330D02*
G02X1210750I2540J0D01*
G01X1206700Y998000D02*
X1205670D01*
G01X1209080D02*
X1207350D01*
G01X1210750D02*
X1209730D01*
G01X1205670Y997820D02*
Y998000D01*
G01Y998340D02*
Y998000D01*
G01Y1011330D02*
Y1008160D01*
G01X1210750Y998000D02*
Y998340D01*
G01Y998000D02*
Y997820D01*
G01Y1011330D02*
Y1008160D01*
G01X1222420Y987110D02*
G02X1221190Y984990I-1506J-543D01*
G01X1220630D02*
G02X1219410Y987110I283J1574D01*
G01X1220420Y983770D02*
X1220630Y984990D01*
G01X1221400Y983770D02*
X1221190Y984990D01*
G01X1223660Y987560D02*
X1222420Y987110D01*
G01X1218170Y987560D02*
X1219410Y987110D01*
G01X1223710Y985710D02*
G02X1221760Y983770I-2794J858D01*
G01Y989360D02*
G02X1223710Y987420I-844J-2798D01*
G01X1218120D02*
G02X1220060Y989360I2794J-854D01*
G01Y983770D02*
G02X1218120Y985710I854J2794D01*
G01X1223150Y988440D02*
X1222090Y987560D01*
G01X1218670Y988440D02*
X1219730Y987560D01*
G01X1220410Y985050D02*
G02X1221420I505J-388D01*
G01X1222430Y987840D02*
X1223450D01*
G01X1220050D02*
X1221780D01*
G01X1218370D02*
X1219400D01*
G01X1223450Y988010D02*
Y987840D01*
G01Y987490D02*
Y987840D01*
G01X1218370D02*
Y987490D01*
G01Y987840D02*
Y988010D01*
G01X1244810Y998720D02*
G02X1246030Y1000840I1503J546D01*
G01X1246590D02*
G02X1247820Y998720I-276J-1577D01*
G01X1246800Y1002060D02*
X1246590Y1000840D01*
G01X1245820Y1002060D02*
X1246030Y1000840D01*
G01X1243570Y998270D02*
X1244810Y998720D01*
G01X1249060Y998270D02*
X1247820Y998720D01*
G01X1243520Y1000120D02*
G02X1245460Y1002060I2794J-854D01*
G01Y996470D02*
G02X1243520Y998410I854J2794D01*
G01X1249110D02*
G02X1247160Y996470I-2794J858D01*
G01Y1002060D02*
G02X1249110Y1000120I-844J-2798D01*
G01X1244070Y997390D02*
X1245130Y998280D01*
G01X1248550Y997390D02*
X1247490Y998280D01*
G01X1246820Y1000780D02*
G02X1245810I-505J388D01*
G01X1245680Y1008160D02*
Y1011330D01*
G01D02*
G02X1246950I635J0D01*
G01D02*
Y1008160D01*
G01X1243770Y1011330D02*
G02X1248850I2540J0D01*
G01X1244800Y998000D02*
X1243770D01*
G01X1247180D02*
X1245450D01*
G01X1248850D02*
X1247830D01*
G01X1243770Y997820D02*
Y998000D01*
G01Y998340D02*
Y998000D01*
G01Y1011330D02*
Y1008160D01*
G01X1248850Y998000D02*
Y998340D01*
G01Y998000D02*
Y997820D01*
G01Y1011330D02*
Y1008160D01*
G01X1219410Y998720D02*
G02X1220630Y1000840I1503J546D01*
G01X1221190D02*
G02X1222420Y998720I-276J-1577D01*
G01X1221400Y1002060D02*
X1221190Y1000840D01*
G01X1220420Y1002060D02*
X1220630Y1000840D01*
G01X1218170Y998270D02*
X1219410Y998720D01*
G01X1223660Y998270D02*
X1222420Y998720D01*
G01X1218120Y1000120D02*
G02X1220060Y1002060I2794J-854D01*
G01Y996470D02*
G02X1218120Y998410I854J2794D01*
G01X1223710D02*
G02X1221760Y996470I-2794J858D01*
G01Y1002060D02*
G02X1223710Y1000120I-844J-2798D01*
G01X1218670Y997390D02*
X1219730Y998280D01*
G01X1223150Y997390D02*
X1222090Y998280D01*
G01X1221420Y1000780D02*
G02X1220410I-505J388D01*
G01X1220280Y1008160D02*
Y1011330D01*
G01D02*
G02X1221550I635J0D01*
G01D02*
Y1008160D01*
G01X1218370Y1011330D02*
G02X1223450I2540J0D01*
G01X1219400Y998000D02*
X1218370D01*
G01X1221780D02*
X1220050D01*
G01X1223450D02*
X1222430D01*
G01X1218370Y997820D02*
Y998000D01*
G01Y998340D02*
Y998000D01*
G01Y1011330D02*
Y1008160D01*
G01X1223450Y998000D02*
Y998340D01*
G01Y998000D02*
Y997820D01*
G01Y1011330D02*
Y1008160D01*
G01X1247820Y987110D02*
G02X1246590Y984990I-1506J-543D01*
G01X1246030D02*
G02X1244810Y987110I283J1574D01*
G01X1245820Y983770D02*
X1246030Y984990D01*
G01X1246800Y983770D02*
X1246590Y984990D01*
G01X1249060Y987560D02*
X1247820Y987110D01*
G01X1243570Y987560D02*
X1244810Y987110D01*
G01X1249110Y985710D02*
G02X1247160Y983770I-2794J858D01*
G01Y989360D02*
G02X1249110Y987420I-844J-2798D01*
G01X1243520D02*
G02X1245460Y989360I2794J-854D01*
G01Y983770D02*
G02X1243520Y985710I854J2794D01*
G01X1248550Y988440D02*
X1247490Y987560D01*
G01X1244070Y988440D02*
X1245130Y987560D01*
G01X1245810Y985050D02*
G02X1246820I505J-388D01*
G01X1247830Y987840D02*
X1248850D01*
G01X1245450D02*
X1247180D01*
G01X1243770D02*
X1244800D01*
G01X1248850Y988010D02*
Y987840D01*
G01Y987490D02*
Y987840D01*
G01X1243770D02*
Y987490D01*
G01Y987840D02*
Y988010D01*
G01X1289490Y981480D02*
X1287210Y983770D01*
G01X1253930Y981480D02*
X1256220Y983770D01*
G01X1264090Y981480D02*
X1261810Y983770D01*
G01X1276790Y981480D02*
X1274510Y983770D01*
G01X1266630Y981480D02*
X1268920Y983770D01*
G01X1292030Y981480D02*
X1294320Y983770D01*
G01X1279330Y981480D02*
X1281620Y983770D01*
G01X1251390Y991640D02*
Y981480D01*
G01X1253930D02*
Y991640D01*
G01X1264090D02*
Y981480D01*
G01D02*
X1253930D01*
G01X1266630D02*
Y991640D01*
G01X1276790D02*
Y981480D01*
G01D02*
X1266630D01*
G01X1279330D02*
Y991640D01*
G01X1289490D02*
Y981480D01*
G01D02*
X1279330D01*
G01X1292030D02*
Y991640D01*
G01X1302190Y981480D02*
X1292030D01*
G01X1272350Y977680D02*
Y974500D01*
G01D02*
G02X1271080I-635J0D01*
G01D02*
Y977680D01*
G01X1274250Y974500D02*
G02X1269170I-2540J0D01*
G01X1274250D02*
Y977680D01*
G01X1269170Y974500D02*
Y977680D01*
G01X1285050D02*
Y974500D01*
G01D02*
G02X1283780I-635J0D01*
G01D02*
Y977680D01*
G01X1286950Y974500D02*
G02X1281870I-2540J0D01*
G01X1286950D02*
Y977680D01*
G01X1281870Y974500D02*
Y977680D01*
G01X1259650D02*
Y974500D01*
G01D02*
G02X1258380I-635J0D01*
G01D02*
Y977680D01*
G01X1261550Y974500D02*
G02X1256470I-2540J0D01*
G01X1261550D02*
Y977680D01*
G01X1256470Y974500D02*
Y977680D01*
G01X1268920Y1002060D02*
X1274510D01*
G01X1268920Y996470D02*
Y1002060D01*
G01X1266630Y1004340D02*
X1268920Y1002060D01*
G01X1281620Y996470D02*
Y1002060D01*
G01X1294320Y996470D02*
Y1002060D01*
G01X1299910Y996470D02*
X1294320D01*
G01D02*
X1292030Y994180D01*
G01X1279330Y1004340D02*
X1281620Y1002060D01*
G01D02*
X1287210D01*
G01Y983770D02*
Y989360D01*
G01X1261810Y983770D02*
Y989360D01*
G01X1292030Y1004340D02*
X1294320Y1002060D01*
G01D02*
X1299910D01*
G01X1289490Y1004340D02*
X1287210Y1002060D01*
G01D02*
Y996470D01*
G01X1274510Y983770D02*
Y989360D01*
G01X1256220D02*
Y983770D01*
G01Y996470D02*
Y1002060D01*
G01X1261810D02*
Y996470D01*
G01D02*
X1256220D01*
G01D02*
X1253930Y994180D01*
G01X1261810Y996470D02*
X1264090Y994180D01*
G01X1281620Y983770D02*
X1287210D01*
G01X1256220Y989360D02*
X1253930Y991640D01*
G01X1261810Y989360D02*
X1256220D01*
G01X1261810D02*
X1264090Y991640D01*
G01X1256220Y983770D02*
X1261810D01*
G01X1274510Y989360D02*
X1268920D01*
G01X1274510D02*
X1276790Y991640D01*
G01Y1004340D02*
X1274510Y1002060D01*
G01D02*
Y996470D01*
G01X1253930Y1004340D02*
X1256220Y1002060D01*
G01D02*
X1261810D01*
G01X1264090Y1004340D02*
X1261810Y1002060D01*
G01X1268920Y983770D02*
X1274510D01*
G01X1287210Y996470D02*
X1281620D01*
G01D02*
X1279330Y994180D01*
G01X1287210Y996470D02*
X1289490Y994180D01*
G01X1274510Y996470D02*
X1268920D01*
G01D02*
X1266630Y994180D01*
G01X1274510Y996470D02*
X1276790Y994180D01*
G01X1294320Y989360D02*
Y983770D01*
G01X1268920Y989360D02*
Y983770D01*
G01Y989360D02*
X1266630Y991640D01*
G01X1294320Y989360D02*
X1292030Y991640D01*
G01X1299910Y989360D02*
X1294320D01*
G01X1287210D02*
X1281620D01*
G01X1287210D02*
X1289490Y991640D01*
G01X1294320Y983770D02*
X1299910D01*
G01X1281620Y989360D02*
Y983770D01*
G01Y989360D02*
X1279330Y991640D01*
G01X1253930D02*
X1264090D01*
G01X1266630D02*
X1276790D01*
G01X1279330D02*
X1289490D01*
G01X1292030D02*
X1302190D01*
G01X1251390Y994180D02*
Y1004340D01*
G01X1264090Y994180D02*
Y1004340D01*
G01X1253930Y994180D02*
X1264090D01*
G01X1253930Y1004340D02*
Y994180D01*
G01X1264090Y1004340D02*
X1253930D01*
G01X1276790Y994180D02*
Y1004340D01*
G01X1266630Y994180D02*
X1276790D01*
G01X1266630Y1004340D02*
Y994180D01*
G01X1276790Y1004340D02*
X1266630D01*
G01X1289490Y994180D02*
Y1004340D01*
G01X1279330Y994180D02*
X1289490D01*
G01X1279330Y1004340D02*
Y994180D01*
G01X1289490Y1004340D02*
X1279330D01*
G01X1292030Y994180D02*
X1302190D01*
G01X1292030Y1004340D02*
Y994180D01*
G01X1302190Y1004340D02*
X1292030D01*
G01X1294370Y987560D02*
X1295610Y987110D01*
G01X1294320Y987420D02*
G02X1296260Y989360I2794J-854D01*
G01Y983770D02*
G02X1294320Y985710I854J2794D01*
G01X1273220Y987110D02*
G02X1271990Y984990I-1506J-543D01*
G01X1271430D02*
G02X1270210Y987110I283J1574D01*
G01X1271220Y983770D02*
X1271430Y984990D01*
G01X1272200Y983770D02*
X1271990Y984990D01*
G01X1274460Y987560D02*
X1273220Y987110D01*
G01X1268970Y987560D02*
X1270210Y987110D01*
G01X1274510Y985710D02*
G02X1272560Y983770I-2794J858D01*
G01Y989360D02*
G02X1274510Y987420I-844J-2798D01*
G01X1268920D02*
G02X1270860Y989360I2794J-854D01*
G01Y983770D02*
G02X1268920Y985710I854J2794D01*
G01X1273950Y988440D02*
X1272890Y987560D01*
G01X1269470Y988440D02*
X1270530Y987560D01*
G01X1271210Y985050D02*
G02X1272220I505J-388D01*
G01X1273230Y987840D02*
X1274250D01*
G01X1270850D02*
X1272580D01*
G01X1269170D02*
X1270200D01*
G01X1274250Y988010D02*
Y987840D01*
G01Y987490D02*
Y987840D01*
G01X1269170D02*
Y987490D01*
G01Y987840D02*
Y988010D01*
G01X1270210Y998720D02*
G02X1271430Y1000840I1503J546D01*
G01X1271990D02*
G02X1273220Y998720I-276J-1577D01*
G01X1272200Y1002060D02*
X1271990Y1000840D01*
G01X1271220Y1002060D02*
X1271430Y1000840D01*
G01X1268970Y998270D02*
X1270210Y998720D01*
G01X1274460Y998270D02*
X1273220Y998720D01*
G01X1268920Y1000120D02*
G02X1270860Y1002060I2794J-854D01*
G01Y996470D02*
G02X1268920Y998410I854J2794D01*
G01X1274510D02*
G02X1272560Y996470I-2794J858D01*
G01Y1002060D02*
G02X1274510Y1000120I-844J-2798D01*
G01X1269470Y997390D02*
X1270530Y998280D01*
G01X1273950Y997390D02*
X1272890Y998280D01*
G01X1272220Y1000780D02*
G02X1271210I-505J388D01*
G01X1271080Y1008160D02*
Y1011330D01*
G01D02*
G02X1272350I635J0D01*
G01D02*
Y1008160D01*
G01X1269170Y1011330D02*
G02X1274250I2540J0D01*
G01X1270200Y998000D02*
X1269170D01*
G01X1272580D02*
X1270850D01*
G01X1274250D02*
X1273230D01*
G01X1269170Y997820D02*
Y998000D01*
G01Y998340D02*
Y998000D01*
G01Y1011330D02*
Y1008160D01*
G01X1274250Y998000D02*
Y998340D01*
G01Y998000D02*
Y997820D01*
G01Y1011330D02*
Y1008160D01*
G01X1285920Y987110D02*
G02X1284690Y984990I-1506J-543D01*
G01X1284130D02*
G02X1282910Y987110I283J1574D01*
G01X1283920Y983770D02*
X1284130Y984990D01*
G01X1284900Y983770D02*
X1284690Y984990D01*
G01X1287160Y987560D02*
X1285920Y987110D01*
G01X1281670Y987560D02*
X1282910Y987110D01*
G01X1287210Y985710D02*
G02X1285260Y983770I-2794J858D01*
G01Y989360D02*
G02X1287210Y987420I-844J-2798D01*
G01X1281620D02*
G02X1283560Y989360I2794J-854D01*
G01Y983770D02*
G02X1281620Y985710I854J2794D01*
G01X1286650Y988440D02*
X1285590Y987560D01*
G01X1282170Y988440D02*
X1283230Y987560D01*
G01X1283910Y985050D02*
G02X1284920I505J-388D01*
G01X1285930Y987840D02*
X1286950D01*
G01X1283550D02*
X1285280D01*
G01X1281870D02*
X1282900D01*
G01X1286950Y988010D02*
Y987840D01*
G01Y987490D02*
Y987840D01*
G01X1281870D02*
Y987490D01*
G01Y987840D02*
Y988010D01*
G01X1260520Y987110D02*
G02X1259290Y984990I-1506J-543D01*
G01X1258730D02*
G02X1257510Y987110I283J1574D01*
G01X1258520Y983770D02*
X1258730Y984990D01*
G01X1259500Y983770D02*
X1259290Y984990D01*
G01X1261760Y987560D02*
X1260520Y987110D01*
G01X1256270Y987560D02*
X1257510Y987110D01*
G01X1261810Y985710D02*
G02X1259860Y983770I-2794J858D01*
G01Y989360D02*
G02X1261810Y987420I-844J-2798D01*
G01X1256220D02*
G02X1258160Y989360I2794J-854D01*
G01Y983770D02*
G02X1256220Y985710I854J2794D01*
G01X1261250Y988440D02*
X1260190Y987560D01*
G01X1256770Y988440D02*
X1257830Y987560D01*
G01X1258510Y985050D02*
G02X1259520I505J-388D01*
G01X1260530Y987840D02*
X1261550D01*
G01X1258150D02*
X1259880D01*
G01X1256470D02*
X1257500D01*
G01X1261550Y988010D02*
Y987840D01*
G01Y987490D02*
Y987840D01*
G01X1256470D02*
Y987490D01*
G01Y987840D02*
Y988010D01*
G01X1282910Y998720D02*
G02X1284130Y1000840I1503J546D01*
G01X1284690D02*
G02X1285920Y998720I-276J-1577D01*
G01X1284900Y1002060D02*
X1284690Y1000840D01*
G01X1283920Y1002060D02*
X1284130Y1000840D01*
G01X1281670Y998270D02*
X1282910Y998720D01*
G01X1287160Y998270D02*
X1285920Y998720D01*
G01X1281620Y1000120D02*
G02X1283560Y1002060I2794J-854D01*
G01Y996470D02*
G02X1281620Y998410I854J2794D01*
G01X1287210D02*
G02X1285260Y996470I-2794J858D01*
G01Y1002060D02*
G02X1287210Y1000120I-844J-2798D01*
G01X1282170Y997390D02*
X1283230Y998280D01*
G01X1286650Y997390D02*
X1285590Y998280D01*
G01X1284920Y1000780D02*
G02X1283910I-505J388D01*
G01X1283780Y1008160D02*
Y1011330D01*
G01D02*
G02X1285050I635J0D01*
G01D02*
Y1008160D01*
G01X1281870Y1011330D02*
G02X1286950I2540J0D01*
G01X1282900Y998000D02*
X1281870D01*
G01X1285280D02*
X1283550D01*
G01X1286950D02*
X1285930D01*
G01X1281870Y997820D02*
Y998000D01*
G01Y998340D02*
Y998000D01*
G01Y1011330D02*
Y1008160D01*
G01X1286950Y998000D02*
Y998340D01*
G01Y998000D02*
Y997820D01*
G01Y1011330D02*
Y1008160D01*
G01X1257510Y998720D02*
G02X1258730Y1000840I1503J546D01*
G01X1259290D02*
G02X1260520Y998720I-276J-1577D01*
G01X1259500Y1002060D02*
X1259290Y1000840D01*
G01X1258520Y1002060D02*
X1258730Y1000840D01*
G01X1256270Y998270D02*
X1257510Y998720D01*
G01X1261760Y998270D02*
X1260520Y998720D01*
G01X1256220Y1000120D02*
G02X1258160Y1002060I2794J-854D01*
G01Y996470D02*
G02X1256220Y998410I854J2794D01*
G01X1261810D02*
G02X1259860Y996470I-2794J858D01*
G01Y1002060D02*
G02X1261810Y1000120I-844J-2798D01*
G01X1256770Y997390D02*
X1257830Y998280D01*
G01X1261250Y997390D02*
X1260190Y998280D01*
G01X1259520Y1000780D02*
G02X1258510I-505J388D01*
G01X1258380Y1008160D02*
Y1011330D01*
G01D02*
G02X1259650I635J0D01*
G01D02*
Y1008160D01*
G01X1256470Y1011330D02*
G02X1261550I2540J0D01*
G01X1257500Y998000D02*
X1256470D01*
G01X1259880D02*
X1258150D01*
G01X1261550D02*
X1260530D01*
G01X1256470Y997820D02*
Y998000D01*
G01Y998340D02*
Y998000D01*
G01Y1011330D02*
Y1008160D01*
G01X1261550Y998000D02*
Y998340D01*
G01Y998000D02*
Y997820D01*
G01Y1011330D02*
Y1008160D01*
G01X1294370Y998270D02*
X1295610Y998720D01*
G01X1294320Y1000120D02*
G02X1296260Y1002060I2794J-854D01*
G01Y996470D02*
G02X1294320Y998410I854J2794D01*
G01X1317430Y981480D02*
X1319720Y983770D01*
G01X1327590Y981480D02*
X1325310Y983770D01*
G01X1302190Y981480D02*
X1299910Y983770D01*
G01X1302190Y991640D02*
Y981480D01*
G01X1317430D02*
Y991640D01*
G01X1327590D02*
Y981480D01*
G01D02*
X1317430D01*
G01X1314890D02*
X1304730D01*
G01D02*
Y991640D01*
G01Y981480D02*
X1307020Y983770D01*
G01X1314890Y981480D02*
X1312610Y983770D01*
G01X1314890Y991640D02*
Y981480D01*
G01X1330770Y1014500D02*
Y977680D01*
G01X1297750D02*
Y974500D01*
G01D02*
G02X1296480I-635J0D01*
G01D02*
Y977680D01*
G01X1299650Y974500D02*
G02X1294570I-2540J0D01*
G01X1299650D02*
Y977680D01*
G01X1294570Y974500D02*
Y977680D01*
G01X1310450D02*
Y974500D01*
G01D02*
G02X1309180I-635J0D01*
G01D02*
Y977680D01*
G01X1312350Y974500D02*
G02X1307270I-2540J0D01*
G01X1312350D02*
Y977680D01*
G01X1307270Y974500D02*
Y977680D01*
G01X1323150D02*
Y974500D01*
G01D02*
G02X1321880I-635J0D01*
G01D02*
Y977680D01*
G01X1325050Y974500D02*
G02X1319970I-2540J0D01*
G01X1325050D02*
Y977680D01*
G01X1319970Y974500D02*
Y977680D01*
G01X1319720Y989360D02*
Y983770D01*
G01X1325310Y996470D02*
X1319720D01*
G01Y1002060D02*
X1325310D01*
G01X1319720Y996470D02*
X1317430Y994180D01*
G01X1319720Y996470D02*
Y1002060D01*
G01X1317430Y1004340D02*
X1319720Y1002060D01*
G01X1327590Y1004340D02*
X1325310Y1002060D01*
G01D02*
Y996470D01*
G01D02*
X1327590Y994180D01*
G01X1319720Y989360D02*
X1317430Y991640D01*
G01X1325310Y989360D02*
X1319720D01*
G01X1302190Y1004340D02*
X1299910Y1002060D01*
G01D02*
Y996470D01*
G01D02*
X1302190Y994180D01*
G01X1319720Y983770D02*
X1325310D01*
G01D02*
Y989360D01*
G01D02*
X1327590Y991640D01*
G01X1299910Y983770D02*
Y989360D01*
G01D02*
X1302190Y991640D01*
G01X1312610Y996470D02*
X1314890Y994180D01*
G01X1307020Y996470D02*
X1304730Y994180D01*
G01Y1004340D02*
X1307020Y1002060D01*
G01X1314890Y1004340D02*
X1312610Y1002060D01*
G01X1344740Y986560D02*
X1330770D01*
G01Y999260D02*
X1344740D01*
G01X1317430Y991640D02*
X1327590D01*
G01Y994180D02*
Y1004340D01*
G01X1317430Y994180D02*
X1327590D01*
G01X1317430Y1004340D02*
Y994180D01*
G01X1327590Y1004340D02*
X1317430D01*
G01X1302190Y994180D02*
Y1004340D01*
G01X1314890Y994180D02*
Y1004340D01*
G01X1304730Y994180D02*
X1314890D01*
G01X1304730Y1004340D02*
Y994180D01*
G01X1314890Y1004340D02*
X1304730D01*
G01X1330770Y1014500D02*
X1310450D01*
G01D02*
Y1008160D01*
G01X1312610Y1002060D02*
Y996470D01*
G01D02*
X1307020D01*
G01D02*
Y1002060D01*
G01D02*
X1312610D01*
G01X1304730Y991640D02*
X1314890D01*
G01X1307020Y989360D02*
X1304730Y991640D01*
G01X1312610Y989360D02*
X1314890Y991640D01*
G01X1307020Y983770D02*
X1312610D01*
G01X1307020Y989360D02*
Y983770D01*
G01X1312610D02*
Y989360D01*
G01D02*
X1307020D01*
G01X1298620Y987110D02*
G02X1297390Y984990I-1506J-543D01*
G01X1296830D02*
G02X1295610Y987110I283J1574D01*
G01X1296620Y983770D02*
X1296830Y984990D01*
G01X1297600Y983770D02*
X1297390Y984990D01*
G01X1299860Y987560D02*
X1298620Y987110D01*
G01X1299910Y985710D02*
G02X1297960Y983770I-2794J858D01*
G01Y989360D02*
G02X1299910Y987420I-844J-2798D01*
G01X1299350Y988440D02*
X1298290Y987560D01*
G01X1294870Y988440D02*
X1295930Y987560D01*
G01X1296610Y985050D02*
G02X1297620I505J-388D01*
G01X1298630Y987840D02*
X1299650D01*
G01X1296250D02*
X1297980D01*
G01X1294570D02*
X1295600D01*
G01X1299650Y988010D02*
Y987840D01*
G01Y987490D02*
Y987840D01*
G01X1294570D02*
Y987490D01*
G01Y987840D02*
Y988010D01*
G01X1311320Y987110D02*
G02X1310090Y984990I-1506J-543D01*
G01X1309530D02*
G02X1308310Y987110I283J1574D01*
G01X1309320Y983770D02*
X1309530Y984990D01*
G01X1310300Y983770D02*
X1310090Y984990D01*
G01X1312560Y987560D02*
X1311320Y987110D01*
G01X1307070Y987560D02*
X1308310Y987110D01*
G01X1312610Y985710D02*
G02X1310660Y983770I-2794J858D01*
G01Y989360D02*
G02X1312610Y987420I-844J-2798D01*
G01X1307020D02*
G02X1308960Y989360I2794J-854D01*
G01Y983770D02*
G02X1307020Y985710I854J2794D01*
G01X1312050Y988440D02*
X1310990Y987560D01*
G01X1307570Y988440D02*
X1308630Y987560D01*
G01X1309310Y985050D02*
G02X1310320I505J-388D01*
G01X1311330Y987840D02*
X1312350D01*
G01X1308950D02*
X1310680D01*
G01X1307270D02*
X1308300D01*
G01X1312350Y988010D02*
Y987840D01*
G01Y987490D02*
Y987840D01*
G01X1307270D02*
Y987490D01*
G01Y987840D02*
Y988010D01*
G01X1324020Y987110D02*
G02X1322790Y984990I-1506J-543D01*
G01X1322230D02*
G02X1321010Y987110I283J1574D01*
G01X1322020Y983770D02*
X1322230Y984990D01*
G01X1323000Y983770D02*
X1322790Y984990D01*
G01X1325260Y987560D02*
X1324020Y987110D01*
G01X1319770Y987560D02*
X1321010Y987110D01*
G01X1325310Y985710D02*
G02X1323360Y983770I-2794J858D01*
G01Y989360D02*
G02X1325310Y987420I-844J-2798D01*
G01X1319720D02*
G02X1321660Y989360I2794J-854D01*
G01Y983770D02*
G02X1319720Y985710I854J2794D01*
G01X1324750Y988440D02*
X1323690Y987560D01*
G01X1320270Y988440D02*
X1321330Y987560D01*
G01X1322010Y985050D02*
G02X1323020I505J-388D01*
G01X1324030Y987840D02*
X1325050D01*
G01X1321650D02*
X1323380D01*
G01X1319970D02*
X1321000D01*
G01X1325050Y988010D02*
Y987840D01*
G01Y987490D02*
Y987840D01*
G01X1319970D02*
Y987490D01*
G01Y987840D02*
Y988010D01*
G01X1321010Y998720D02*
G02X1322230Y1000840I1503J546D01*
G01X1322790D02*
G02X1324020Y998720I-276J-1577D01*
G01X1323000Y1002060D02*
X1322790Y1000840D01*
G01X1322020Y1002060D02*
X1322230Y1000840D01*
G01X1319770Y998270D02*
X1321010Y998720D01*
G01X1325260Y998270D02*
X1324020Y998720D01*
G01X1319720Y1000120D02*
G02X1321660Y1002060I2794J-854D01*
G01Y996470D02*
G02X1319720Y998410I854J2794D01*
G01X1325310D02*
G02X1323360Y996470I-2794J858D01*
G01Y1002060D02*
G02X1325310Y1000120I-844J-2798D01*
G01X1320270Y997390D02*
X1321330Y998280D01*
G01X1324750Y997390D02*
X1323690Y998280D01*
G01X1323020Y1000780D02*
G02X1322010I-505J388D01*
G01X1321000Y998000D02*
X1319970D01*
G01X1323380D02*
X1321650D01*
G01X1325050D02*
X1324030D01*
G01X1319970Y997820D02*
Y998000D01*
G01Y998340D02*
Y998000D01*
G01X1325050D02*
Y998340D01*
G01Y998000D02*
Y997820D01*
G01X1295610Y998720D02*
G02X1296830Y1000840I1503J546D01*
G01X1297390D02*
G02X1298620Y998720I-276J-1577D01*
G01X1297600Y1002060D02*
X1297390Y1000840D01*
G01X1296620Y1002060D02*
X1296830Y1000840D01*
G01X1299860Y998270D02*
X1298620Y998720D01*
G01X1299910Y998410D02*
G02X1297960Y996470I-2794J858D01*
G01Y1002060D02*
G02X1299910Y1000120I-844J-2798D01*
G01X1294870Y997390D02*
X1295930Y998280D01*
G01X1299350Y997390D02*
X1298290Y998280D01*
G01X1297620Y1000780D02*
G02X1296610I-505J388D01*
G01X1296480Y1008160D02*
Y1011330D01*
G01D02*
G02X1297750I635J0D01*
G01D02*
Y1008160D01*
G01X1294570Y1011330D02*
G02X1299650I2540J0D01*
G01X1295600Y998000D02*
X1294570D01*
G01X1297980D02*
X1296250D01*
G01X1299650D02*
X1298630D01*
G01X1294570Y997820D02*
Y998000D01*
G01Y998340D02*
Y998000D01*
G01Y1011330D02*
Y1008160D01*
G01X1299650Y998000D02*
Y998340D01*
G01Y998000D02*
Y997820D01*
G01Y1011330D02*
Y1008160D01*
G01X1308310Y998720D02*
G02X1309530Y1000840I1503J546D01*
G01X1310090D02*
G02X1311320Y998720I-276J-1577D01*
G01X1310300Y1002060D02*
X1310090Y1000840D01*
G01X1309320Y1002060D02*
X1309530Y1000840D01*
G01X1307070Y998270D02*
X1308310Y998720D01*
G01X1312560Y998270D02*
X1311320Y998720D01*
G01X1307020Y1000120D02*
G02X1308960Y1002060I2794J-854D01*
G01Y996470D02*
G02X1307020Y998410I854J2794D01*
G01X1312610D02*
G02X1310660Y996470I-2794J858D01*
G01Y1002060D02*
G02X1312610Y1000120I-844J-2798D01*
G01X1307570Y997390D02*
X1308630Y998280D01*
G01X1312050Y997390D02*
X1310990Y998280D01*
G01X1310320Y1000780D02*
G02X1309310I-505J388D01*
G01X1309180Y1008160D02*
Y1011330D01*
G01D02*
G02X1310450I635J0D01*
G01X1307270D02*
G02X1310450Y1013790I2542J0D01*
G01X1308300Y998000D02*
X1307270D01*
G01X1310680D02*
X1308950D01*
G01X1312350D02*
X1311330D01*
G01X1307270Y997820D02*
Y998000D01*
G01Y998340D02*
Y998000D01*
G01Y1011330D02*
Y1008160D01*
G01X1312350Y998000D02*
Y998340D01*
G01Y998000D02*
Y997820D01*
G01X1344740Y986560D02*
Y999260D01*
G01X1445800Y929200D02*
G03I-10500J0D01*
G01X1406390Y980620D02*
X1408670Y982910D01*
G01X1421370D02*
X1419090Y980620D01*
G01X1429250D02*
X1426960Y982910D01*
G01X1414260D02*
X1416550Y980620D01*
G01X1411470Y977440D02*
Y963480D01*
G01X1424170D02*
X1411470D01*
G01X1424170D02*
Y977440D01*
G01X1429250Y980620D02*
X1419090D01*
G01D02*
Y990780D01*
G01X1416550Y980620D02*
Y990780D01*
G01X1406390Y980620D02*
X1416550D01*
G01X1406390Y990780D02*
Y980620D01*
G01X1433060Y977440D02*
X1402580D01*
G01Y1087940D02*
Y977440D01*
G01X1414260Y1001190D02*
Y995610D01*
G01X1421370Y988490D02*
Y982910D01*
G01X1426960Y1021010D02*
Y1026590D01*
G01Y1008310D02*
Y1013890D01*
G01Y982910D02*
Y988490D01*
G01X1414260Y982910D02*
X1408670D01*
G01X1414260Y1021010D02*
X1408670D01*
G01Y995610D02*
Y1001190D01*
G01X1426960Y1026590D02*
X1421370D01*
G01X1429250Y1028880D02*
X1426960Y1026590D01*
G01X1408670D02*
X1414260D01*
G01Y1008310D02*
X1408670D01*
G01X1406390Y1003480D02*
X1408670Y1001190D01*
G01D02*
X1414260D01*
G01D02*
X1416550Y1003480D01*
G01X1414260Y1013890D02*
Y1008310D01*
G01D02*
X1416550Y1006020D01*
G01X1421370Y1013890D02*
Y1008310D01*
G01X1406390Y1006020D02*
X1408670Y1008310D01*
G01D02*
Y1013890D01*
G01X1421370Y995610D02*
X1426960D01*
G01X1408670Y988490D02*
X1414260D01*
G01X1421370Y995610D02*
X1419090Y993320D01*
G01X1421370Y1001190D02*
Y995610D01*
G01X1414260Y1026590D02*
Y1021010D01*
G01D02*
X1416550Y1018720D01*
G01X1414260Y1026590D02*
X1416550Y1028880D01*
G01X1426960Y995610D02*
Y1001190D01*
G01X1429250Y993320D02*
X1426960Y995610D01*
G01X1406390Y1018720D02*
X1408670Y1021010D01*
G01D02*
Y1026590D01*
G01X1406390Y1028880D02*
X1408670Y1026590D01*
G01Y982910D02*
Y988490D01*
G01X1406390Y990780D02*
X1408670Y988490D01*
G01X1426960Y1001190D02*
X1421370D01*
G01X1429250Y1003480D02*
X1426960Y1001190D01*
G01X1421370D02*
X1419090Y1003480D01*
G01X1421370Y982910D02*
X1426960D01*
G01X1421370Y1021010D02*
X1426960D01*
G01X1429250Y1018720D02*
X1426960Y1021010D01*
G01Y1013890D02*
X1421370D01*
G01X1429250Y1016180D02*
X1426960Y1013890D01*
G01X1421370D02*
X1419090Y1016180D01*
G01X1414260Y988490D02*
Y982910D01*
G01Y988490D02*
X1416550Y990780D01*
G01X1421370Y1021010D02*
X1419090Y1018720D01*
G01X1421370Y1026590D02*
Y1021010D01*
G01Y1026590D02*
X1419090Y1028880D01*
G01X1421370Y1008310D02*
X1426960D01*
G01X1421370D02*
X1419090Y1006020D01*
G01X1429250D02*
X1426960Y1008310D01*
G01Y988490D02*
X1421370D01*
G01X1429250Y990780D02*
X1426960Y988490D01*
G01X1421370D02*
X1419090Y990780D01*
G01X1406390Y1016180D02*
X1408670Y1013890D01*
G01D02*
X1414260D01*
G01D02*
X1416550Y1016180D01*
G01X1414260Y995610D02*
X1416550Y993320D01*
G01X1414260Y995610D02*
X1408670D01*
G01X1406390Y993320D02*
X1408670Y995610D01*
G01X1419090Y990780D02*
X1429250D01*
G01Y993320D02*
X1419090D01*
G01D02*
Y1003480D01*
G01D02*
X1429250D01*
G01Y1006020D02*
X1419090D01*
G01D02*
Y1016180D01*
G01D02*
X1429250D01*
G01Y1018720D02*
X1419090D01*
G01D02*
Y1028880D01*
G01X1416550Y990780D02*
X1406390D01*
G01X1416550Y1003480D02*
X1406390D01*
G01X1416550Y993320D02*
Y1003480D01*
G01X1406390Y993320D02*
X1416550D01*
G01X1406390Y1003480D02*
Y993320D01*
G01X1416550Y1016180D02*
X1406390D01*
G01X1416550Y1006020D02*
Y1016180D01*
G01X1406390Y1006020D02*
X1416550D01*
G01X1406390Y1016180D02*
Y1006020D01*
G01X1416550Y1018720D02*
Y1028880D01*
G01X1406390Y1018720D02*
X1416550D01*
G01X1406390Y1028880D02*
Y1018720D01*
G01X1423620Y1012600D02*
G02X1425740Y1011380I547J-1502D01*
G01Y1010820D02*
G02X1423620Y1009600I-1573J282D01*
G01X1426960Y1010610D02*
X1425740Y1010820D01*
G01X1426960Y1011590D02*
X1425740Y1011380D01*
G01X1423620Y1012600D02*
Y1012610D01*
G01X1423170Y1013840D02*
X1423620Y1012610D01*
G01X1423170Y1008360D02*
X1423620Y1009590D01*
G01D02*
Y1009600D01*
G01X1425020Y1013890D02*
G02X1426960Y1011950I-852J-2792D01*
G01X1421370D02*
G02X1423320Y1013890I2792J-856D01*
G01Y1008310D02*
G02X1421370Y1010250I842J2796D01*
G01X1426960D02*
G02X1425020Y1008310I-2792J852D01*
G01X1422290Y1013340D02*
X1423180Y1012280D01*
G01X1422290Y1008860D02*
X1423180Y1009920D01*
G01X1425680Y1010600D02*
G02Y1011600I392J500D01*
G01X1422900Y1012610D02*
Y1013640D01*
G01Y1010240D02*
Y1011960D01*
G01Y1008560D02*
Y1009590D01*
G01X1422720Y1013640D02*
X1422900D01*
G01X1423240D02*
X1422900D01*
G01Y1008560D02*
X1423240D01*
G01X1422900D02*
X1422720D01*
G01X1423620Y987200D02*
G02X1425740Y985980I547J-1502D01*
G01Y985420D02*
G02X1423620Y984200I-1573J282D01*
G01X1426960Y985210D02*
X1425740Y985420D01*
G01X1426960Y986190D02*
X1425740Y985980D01*
G01X1423620Y987200D02*
Y987210D01*
G01X1423170Y988440D02*
X1423620Y987210D01*
G01X1423170Y982960D02*
X1423620Y984190D01*
G01D02*
Y984200D01*
G01X1425020Y988490D02*
G02X1426960Y986550I-852J-2792D01*
G01X1421370D02*
G02X1423320Y988490I2792J-856D01*
G01Y982910D02*
G02X1421370Y984850I842J2796D01*
G01X1426960D02*
G02X1425020Y982910I-2792J852D01*
G01X1422290Y987940D02*
X1423180Y986880D01*
G01X1422290Y983460D02*
X1423180Y984520D01*
G01X1425680Y985200D02*
G02Y986200I392J500D01*
G01X1422900Y987210D02*
Y988240D01*
G01Y984840D02*
Y986560D01*
G01Y983160D02*
Y984190D01*
G01X1422720Y988240D02*
X1422900D01*
G01X1423240D02*
X1422900D01*
G01Y983160D02*
X1423240D01*
G01X1422900D02*
X1422720D01*
G01X1412010Y1009600D02*
G02X1409890Y1010820I-546J1503D01*
G01Y1011380D02*
G02X1412010Y1012600I1574J-283D01*
G01X1408670Y1011590D02*
X1409890Y1011380D01*
G01X1408670Y1010610D02*
X1409890Y1010820D01*
G01X1412010Y1009600D02*
X1412020Y1009590D01*
G01X1412470Y1008360D02*
X1412020Y1009590D01*
G01X1412470Y1013840D02*
X1412020Y1012610D01*
G01D02*
X1412010Y1012600D01*
G01X1410620Y1008310D02*
G02X1408670Y1010250I842J2796D01*
G01X1414260D02*
G02X1412320Y1008310I-2792J852D01*
G01Y1013890D02*
G02X1414260Y1011950I-852J-2792D01*
G01X1408670D02*
G02X1410620Y1013890I2792J-856D01*
G01X1413340Y1008860D02*
X1412460Y1009920D01*
G01X1413340Y1013340D02*
X1412460Y1012280D01*
G01X1409950Y1011600D02*
G02Y1010600I-388J-500D01*
G01X1402580Y1010460D02*
X1399400D01*
G01D02*
G02Y1011740I0J640D01*
G01D02*
X1402580D01*
G01X1399400Y1008560D02*
G02Y1013640I2J2540D01*
G01X1412740Y1009590D02*
Y1008560D01*
G01Y1011960D02*
Y1010240D01*
G01Y1013640D02*
Y1012610D01*
G01X1412910Y1008560D02*
X1412740D01*
G01X1412390D02*
X1412740D01*
G01X1399400D02*
X1402580D01*
G01X1412740Y1013640D02*
X1412390D01*
G01X1412740D02*
X1412910D01*
G01X1399400D02*
X1402580D01*
G01X1412010Y984200D02*
G02X1409890Y985420I-546J1503D01*
G01Y985980D02*
G02X1412010Y987200I1574J-283D01*
G01X1408670Y986190D02*
X1409890Y985980D01*
G01X1408670Y985210D02*
X1409890Y985420D01*
G01X1412010Y984200D02*
X1412020Y984190D01*
G01X1412470Y982960D02*
X1412020Y984190D01*
G01X1412470Y988440D02*
X1412020Y987210D01*
G01D02*
X1412010Y987200D01*
G01X1410620Y982910D02*
G02X1408670Y984850I842J2796D01*
G01X1414260D02*
G02X1412320Y982910I-2792J852D01*
G01Y988490D02*
G02X1414260Y986550I-852J-2792D01*
G01X1408670D02*
G02X1410620Y988490I2792J-856D01*
G01X1413340Y983460D02*
X1412460Y984520D01*
G01X1413340Y987940D02*
X1412460Y986880D01*
G01X1409950Y986200D02*
G02Y985200I-388J-500D01*
G01X1402580Y985060D02*
X1399400D01*
G01D02*
G02Y986340I0J640D01*
G01D02*
X1402580D01*
G01X1399400Y983160D02*
G02Y988240I2J2540D01*
G01X1412740Y984190D02*
Y983160D01*
G01Y986560D02*
Y984840D01*
G01Y988240D02*
Y987210D01*
G01X1412910Y983160D02*
X1412740D01*
G01X1412390D02*
X1412740D01*
G01X1399400D02*
X1402580D01*
G01X1412740Y988240D02*
X1412390D01*
G01X1412740D02*
X1412910D01*
G01X1399400D02*
X1402580D01*
G01X1423620Y999900D02*
G02X1425740Y998680I547J-1502D01*
G01Y998120D02*
G02X1423620Y996900I-1573J282D01*
G01X1426960Y997910D02*
X1425740Y998120D01*
G01X1426960Y998890D02*
X1425740Y998680D01*
G01X1423620Y999900D02*
Y999910D01*
G01X1423170Y1001140D02*
X1423620Y999910D01*
G01X1423170Y995660D02*
X1423620Y996890D01*
G01D02*
Y996900D01*
G01X1425020Y1001190D02*
G02X1426960Y999250I-852J-2792D01*
G01X1421370D02*
G02X1423320Y1001190I2792J-856D01*
G01Y995610D02*
G02X1421370Y997550I842J2796D01*
G01X1426960D02*
G02X1425020Y995610I-2792J852D01*
G01X1422290Y1000640D02*
X1423180Y999580D01*
G01X1422290Y996160D02*
X1423180Y997220D01*
G01X1425680Y997900D02*
G02Y998900I392J500D01*
G01X1422900Y999910D02*
Y1000940D01*
G01Y997540D02*
Y999260D01*
G01Y995860D02*
Y996890D01*
G01X1422720Y1000940D02*
X1422900D01*
G01X1423240D02*
X1422900D01*
G01Y995860D02*
X1423240D01*
G01X1422900D02*
X1422720D01*
G01X1412010Y1022300D02*
G02X1409890Y1023520I-546J1503D01*
G01Y1024080D02*
G02X1412010Y1025300I1574J-283D01*
G01X1408670Y1024290D02*
X1409890Y1024080D01*
G01X1408670Y1023310D02*
X1409890Y1023520D01*
G01X1412010Y1022300D02*
X1412020Y1022290D01*
G01X1412470Y1021060D02*
X1412020Y1022290D01*
G01X1412470Y1026540D02*
X1412020Y1025310D01*
G01D02*
X1412010Y1025300D01*
G01X1410620Y1021010D02*
G02X1408670Y1022950I842J2796D01*
G01X1414260D02*
G02X1412320Y1021010I-2792J852D01*
G01Y1026590D02*
G02X1414260Y1024650I-852J-2792D01*
G01X1408670D02*
G02X1410620Y1026590I2792J-856D01*
G01X1413340Y1021560D02*
X1412460Y1022620D01*
G01X1413340Y1026040D02*
X1412460Y1024980D01*
G01X1409950Y1024300D02*
G02Y1023300I-388J-500D01*
G01X1402580Y1023160D02*
X1399400D01*
G01D02*
G02Y1024440I0J640D01*
G01D02*
X1402580D01*
G01X1399400Y1021260D02*
G02Y1026340I2J2540D01*
G01X1412740Y1022290D02*
Y1021260D01*
G01Y1024660D02*
Y1022940D01*
G01Y1026340D02*
Y1025310D01*
G01X1412910Y1021260D02*
X1412740D01*
G01X1412390D02*
X1412740D01*
G01X1399400D02*
X1402580D01*
G01X1412740Y1026340D02*
X1412390D01*
G01X1412740D02*
X1412910D01*
G01X1399400D02*
X1402580D01*
G01X1412010Y996900D02*
G02X1409890Y998120I-546J1503D01*
G01Y998680D02*
G02X1412010Y999900I1574J-283D01*
G01X1408670Y998890D02*
X1409890Y998680D01*
G01X1408670Y997910D02*
X1409890Y998120D01*
G01X1412010Y996900D02*
X1412020Y996890D01*
G01X1412470Y995660D02*
X1412020Y996890D01*
G01X1412470Y1001140D02*
X1412020Y999910D01*
G01D02*
X1412010Y999900D01*
G01X1410620Y995610D02*
G02X1408670Y997550I842J2796D01*
G01X1414260D02*
G02X1412320Y995610I-2792J852D01*
G01Y1001190D02*
G02X1414260Y999250I-852J-2792D01*
G01X1408670D02*
G02X1410620Y1001190I2792J-856D01*
G01X1413340Y996160D02*
X1412460Y997220D01*
G01X1413340Y1000640D02*
X1412460Y999580D01*
G01X1409950Y998900D02*
G02Y997900I-388J-500D01*
G01X1402580Y997760D02*
X1399400D01*
G01D02*
G02Y999040I0J640D01*
G01D02*
X1402580D01*
G01X1399400Y995860D02*
G02Y1000940I2J2540D01*
G01X1412740Y996890D02*
Y995860D01*
G01Y999260D02*
Y997540D01*
G01Y1000940D02*
Y999910D01*
G01X1412910Y995860D02*
X1412740D01*
G01X1412390D02*
X1412740D01*
G01X1399400D02*
X1402580D01*
G01X1412740Y1000940D02*
X1412390D01*
G01X1412740D02*
X1412910D01*
G01X1399400D02*
X1402580D01*
G01X1423620Y1025300D02*
G02X1425740Y1024080I547J-1502D01*
G01Y1023520D02*
G02X1423620Y1022300I-1573J282D01*
G01X1426960Y1023310D02*
X1425740Y1023520D01*
G01X1426960Y1024290D02*
X1425740Y1024080D01*
G01X1423620Y1025300D02*
Y1025310D01*
G01X1423170Y1026540D02*
X1423620Y1025310D01*
G01X1423170Y1021060D02*
X1423620Y1022290D01*
G01D02*
Y1022300D01*
G01X1425020Y1026590D02*
G02X1426960Y1024650I-852J-2792D01*
G01X1421370D02*
G02X1423320Y1026590I2792J-856D01*
G01Y1021010D02*
G02X1421370Y1022950I842J2796D01*
G01X1426960D02*
G02X1425020Y1021010I-2792J852D01*
G01X1422290Y1026040D02*
X1423180Y1024980D01*
G01X1422290Y1021560D02*
X1423180Y1022620D01*
G01X1425680Y1023300D02*
G02Y1024300I392J500D01*
G01X1422900Y1025310D02*
Y1026340D01*
G01Y1022940D02*
Y1024660D01*
G01Y1021260D02*
Y1022290D01*
G01X1422720Y1026340D02*
X1422900D01*
G01X1423240D02*
X1422900D01*
G01Y1021260D02*
X1423240D01*
G01X1422900D02*
X1422720D01*
G01X1408670Y1046410D02*
Y1051990D01*
G01X1414260Y1046410D02*
X1408670D01*
G01X1406390Y1044120D02*
X1408670Y1046410D01*
G01X1414260Y1059110D02*
X1408670D01*
G01X1414260Y1071810D02*
X1416550Y1069520D01*
G01X1406390Y1056820D02*
X1408670Y1059110D01*
G01D02*
Y1064690D01*
G01X1426960D02*
X1421370D01*
G01X1426960Y1039290D02*
X1421370D01*
G01X1406390Y1069520D02*
X1408670Y1071810D01*
G01X1406390Y1066980D02*
X1408670Y1064690D01*
G01D02*
X1414260D01*
G01X1426960Y1051990D02*
X1421370D01*
G01Y1033710D02*
X1426960D01*
G01X1414260D02*
X1408670D01*
G01Y1039290D02*
X1414260D01*
G01D02*
Y1033710D01*
G01D02*
X1416550Y1031420D01*
G01X1414260Y1039290D02*
X1416550Y1041580D01*
G01X1426960Y1059110D02*
Y1064690D01*
G01X1429250Y1066980D02*
X1426960Y1064690D01*
G01X1421370Y1033710D02*
X1419090Y1031420D01*
G01X1421370Y1039290D02*
Y1033710D01*
G01Y1039290D02*
X1419090Y1041580D01*
G01X1426960Y1033710D02*
Y1039290D01*
G01X1429250Y1031420D02*
X1426960Y1033710D01*
G01X1429250Y1041580D02*
X1426960Y1039290D01*
G01X1421370Y1051990D02*
Y1046410D01*
G01Y1051990D02*
X1419090Y1054280D01*
G01X1406390D02*
X1408670Y1051990D01*
G01D02*
X1414260D01*
G01X1406390Y1031420D02*
X1408670Y1033710D01*
G01D02*
Y1039290D01*
G01X1406390Y1041580D02*
X1408670Y1039290D01*
G01X1426960Y1046410D02*
Y1051990D01*
G01X1429250Y1054280D02*
X1426960Y1051990D01*
G01X1414260Y1064690D02*
Y1059110D01*
G01D02*
X1416550Y1056820D01*
G01X1414260Y1064690D02*
X1416550Y1066980D01*
G01X1414260Y1051990D02*
Y1046410D01*
G01D02*
X1416550Y1044120D01*
G01X1414260Y1051990D02*
X1416550Y1054280D01*
G01X1421370Y1046410D02*
X1426960D01*
G01X1421370D02*
X1419090Y1044120D01*
G01X1429250D02*
X1426960Y1046410D01*
G01X1421370Y1071810D02*
X1419090Y1069520D01*
G01X1421370Y1064690D02*
Y1059110D01*
G01Y1064690D02*
X1419090Y1066980D01*
G01X1429250Y1069520D02*
X1426960Y1071810D01*
G01X1421370Y1059110D02*
X1426960D01*
G01X1421370D02*
X1419090Y1056820D01*
G01X1429250D02*
X1426960Y1059110D01*
G01X1419090Y1028880D02*
X1429250D01*
G01Y1031420D02*
X1419090D01*
G01D02*
Y1041580D01*
G01D02*
X1429250D01*
G01Y1044120D02*
X1419090D01*
G01D02*
Y1054280D01*
G01D02*
X1429250D01*
G01Y1056820D02*
X1419090D01*
G01D02*
Y1066980D01*
G01D02*
X1429250D01*
G01Y1069520D02*
X1419090D01*
G01D02*
Y1079680D01*
G01X1416550Y1028880D02*
X1406390D01*
G01X1416550Y1041580D02*
X1406390D01*
G01X1416550Y1031420D02*
Y1041580D01*
G01X1406390Y1031420D02*
X1416550D01*
G01X1406390Y1041580D02*
Y1031420D01*
G01X1416550Y1054280D02*
X1406390D01*
G01X1416550Y1044120D02*
Y1054280D01*
G01X1406390Y1044120D02*
X1416550D01*
G01X1406390Y1054280D02*
Y1044120D01*
G01X1416550Y1066980D02*
X1406390D01*
G01X1416550Y1056820D02*
Y1066980D01*
G01X1406390Y1056820D02*
X1416550D01*
G01X1406390Y1066980D02*
Y1056820D01*
G01X1416550Y1069520D02*
Y1079680D01*
G01X1406390Y1069520D02*
X1416550D01*
G01X1406390Y1079680D02*
Y1069520D01*
G01X1423620Y1050700D02*
G02X1425740Y1049480I547J-1502D01*
G01Y1048920D02*
G02X1423620Y1047700I-1573J282D01*
G01X1426960Y1048710D02*
X1425740Y1048920D01*
G01X1426960Y1049690D02*
X1425740Y1049480D01*
G01X1423620Y1050700D02*
Y1050710D01*
G01X1423170Y1051940D02*
X1423620Y1050710D01*
G01X1423170Y1046460D02*
X1423620Y1047690D01*
G01D02*
Y1047700D01*
G01X1425020Y1051990D02*
G02X1426960Y1050050I-852J-2792D01*
G01X1421370D02*
G02X1423320Y1051990I2792J-856D01*
G01Y1046410D02*
G02X1421370Y1048350I842J2796D01*
G01X1426960D02*
G02X1425020Y1046410I-2792J852D01*
G01X1422290Y1051440D02*
X1423180Y1050380D01*
G01X1422290Y1046960D02*
X1423180Y1048020D01*
G01X1425680Y1048700D02*
G02Y1049700I392J500D01*
G01X1422900Y1050710D02*
Y1051740D01*
G01Y1048340D02*
Y1050060D01*
G01Y1046660D02*
Y1047690D01*
G01X1422720Y1051740D02*
X1422900D01*
G01X1423240D02*
X1422900D01*
G01Y1046660D02*
X1423240D01*
G01X1422900D02*
X1422720D01*
G01X1412010Y1047700D02*
G02X1409890Y1048920I-546J1503D01*
G01Y1049480D02*
G02X1412010Y1050700I1574J-283D01*
G01X1408670Y1049690D02*
X1409890Y1049480D01*
G01X1408670Y1048710D02*
X1409890Y1048920D01*
G01X1412010Y1047700D02*
X1412020Y1047690D01*
G01X1412470Y1046460D02*
X1412020Y1047690D01*
G01X1412470Y1051940D02*
X1412020Y1050710D01*
G01D02*
X1412010Y1050700D01*
G01X1410620Y1046410D02*
G02X1408670Y1048350I842J2796D01*
G01X1414260D02*
G02X1412320Y1046410I-2792J852D01*
G01Y1051990D02*
G02X1414260Y1050050I-852J-2792D01*
G01X1408670D02*
G02X1410620Y1051990I2792J-856D01*
G01X1413340Y1046960D02*
X1412460Y1048020D01*
G01X1413340Y1051440D02*
X1412460Y1050380D01*
G01X1409950Y1049700D02*
G02Y1048700I-388J-500D01*
G01X1402580Y1048560D02*
X1399400D01*
G01D02*
G02Y1049840I0J640D01*
G01D02*
X1402580D01*
G01X1399400Y1046660D02*
G02Y1051740I2J2540D01*
G01X1412740Y1047690D02*
Y1046660D01*
G01Y1050060D02*
Y1048340D01*
G01Y1051740D02*
Y1050710D01*
G01X1412910Y1046660D02*
X1412740D01*
G01X1412390D02*
X1412740D01*
G01X1399400D02*
X1402580D01*
G01X1412740Y1051740D02*
X1412390D01*
G01X1412740D02*
X1412910D01*
G01X1399400D02*
X1402580D01*
G01X1423620Y1063400D02*
G02X1425740Y1062180I547J-1502D01*
G01Y1061620D02*
G02X1423620Y1060400I-1573J282D01*
G01X1426960Y1061410D02*
X1425740Y1061620D01*
G01X1426960Y1062390D02*
X1425740Y1062180D01*
G01X1423620Y1063400D02*
Y1063410D01*
G01X1423170Y1064640D02*
X1423620Y1063410D01*
G01X1423170Y1059160D02*
X1423620Y1060390D01*
G01D02*
Y1060400D01*
G01X1425020Y1064690D02*
G02X1426960Y1062750I-852J-2792D01*
G01X1421370D02*
G02X1423320Y1064690I2792J-856D01*
G01Y1059110D02*
G02X1421370Y1061050I842J2796D01*
G01X1426960D02*
G02X1425020Y1059110I-2792J852D01*
G01X1422290Y1064140D02*
X1423180Y1063080D01*
G01X1422290Y1059660D02*
X1423180Y1060720D01*
G01X1425680Y1061400D02*
G02Y1062400I392J500D01*
G01X1422900Y1063410D02*
Y1064440D01*
G01Y1061040D02*
Y1062760D01*
G01Y1059360D02*
Y1060390D01*
G01X1422720Y1064440D02*
X1422900D01*
G01X1423240D02*
X1422900D01*
G01Y1059360D02*
X1423240D01*
G01X1422900D02*
X1422720D01*
G01X1423620Y1038000D02*
G02X1425740Y1036780I547J-1502D01*
G01Y1036220D02*
G02X1423620Y1035000I-1573J282D01*
G01X1426960Y1036010D02*
X1425740Y1036220D01*
G01X1426960Y1036990D02*
X1425740Y1036780D01*
G01X1423620Y1038000D02*
Y1038010D01*
G01X1423170Y1039240D02*
X1423620Y1038010D01*
G01X1423170Y1033760D02*
X1423620Y1034990D01*
G01D02*
Y1035000D01*
G01X1425020Y1039290D02*
G02X1426960Y1037350I-852J-2792D01*
G01X1421370D02*
G02X1423320Y1039290I2792J-856D01*
G01Y1033710D02*
G02X1421370Y1035650I842J2796D01*
G01X1426960D02*
G02X1425020Y1033710I-2792J852D01*
G01X1422290Y1038740D02*
X1423180Y1037680D01*
G01X1422290Y1034260D02*
X1423180Y1035320D01*
G01X1425680Y1036000D02*
G02Y1037000I392J500D01*
G01X1422900Y1038010D02*
Y1039040D01*
G01Y1035640D02*
Y1037360D01*
G01Y1033960D02*
Y1034990D01*
G01X1422720Y1039040D02*
X1422900D01*
G01X1423240D02*
X1422900D01*
G01Y1033960D02*
X1423240D01*
G01X1422900D02*
X1422720D01*
G01X1412010Y1060400D02*
G02X1409890Y1061620I-546J1503D01*
G01Y1062180D02*
G02X1412010Y1063400I1574J-283D01*
G01X1408670Y1062390D02*
X1409890Y1062180D01*
G01X1408670Y1061410D02*
X1409890Y1061620D01*
G01X1412010Y1060400D02*
X1412020Y1060390D01*
G01X1412470Y1059160D02*
X1412020Y1060390D01*
G01X1412470Y1064640D02*
X1412020Y1063410D01*
G01D02*
X1412010Y1063400D01*
G01X1410620Y1059110D02*
G02X1408670Y1061050I842J2796D01*
G01X1414260D02*
G02X1412320Y1059110I-2792J852D01*
G01Y1064690D02*
G02X1414260Y1062750I-852J-2792D01*
G01X1408670D02*
G02X1410620Y1064690I2792J-856D01*
G01X1413340Y1059660D02*
X1412460Y1060720D01*
G01X1413340Y1064140D02*
X1412460Y1063080D01*
G01X1409950Y1062400D02*
G02Y1061400I-388J-500D01*
G01X1402580Y1061260D02*
X1399400D01*
G01D02*
G02Y1062540I0J640D01*
G01D02*
X1402580D01*
G01X1399400Y1059360D02*
G02Y1064440I2J2540D01*
G01X1412740Y1060390D02*
Y1059360D01*
G01Y1062760D02*
Y1061040D01*
G01Y1064440D02*
Y1063410D01*
G01X1412910Y1059360D02*
X1412740D01*
G01X1412390D02*
X1412740D01*
G01X1399400D02*
X1402580D01*
G01X1412740Y1064440D02*
X1412390D01*
G01X1412740D02*
X1412910D01*
G01X1399400D02*
X1402580D01*
G01X1412010Y1035000D02*
G02X1409890Y1036220I-546J1503D01*
G01Y1036780D02*
G02X1412010Y1038000I1574J-283D01*
G01X1408670Y1036990D02*
X1409890Y1036780D01*
G01X1408670Y1036010D02*
X1409890Y1036220D01*
G01X1412010Y1035000D02*
X1412020Y1034990D01*
G01X1412470Y1033760D02*
X1412020Y1034990D01*
G01X1412470Y1039240D02*
X1412020Y1038010D01*
G01D02*
X1412010Y1038000D01*
G01X1410620Y1033710D02*
G02X1408670Y1035650I842J2796D01*
G01X1414260D02*
G02X1412320Y1033710I-2792J852D01*
G01Y1039290D02*
G02X1414260Y1037350I-852J-2792D01*
G01X1408670D02*
G02X1410620Y1039290I2792J-856D01*
G01X1413340Y1034260D02*
X1412460Y1035320D01*
G01X1413340Y1038740D02*
X1412460Y1037680D01*
G01X1409950Y1037000D02*
G02Y1036000I-388J-500D01*
G01X1402580Y1035860D02*
X1399400D01*
G01D02*
G02Y1037140I0J640D01*
G01D02*
X1402580D01*
G01X1399400Y1033960D02*
G02Y1039040I2J2540D01*
G01X1412740Y1034990D02*
Y1033960D01*
G01Y1037360D02*
Y1035640D01*
G01Y1039040D02*
Y1038010D01*
G01X1412910Y1033960D02*
X1412740D01*
G01X1412390D02*
X1412740D01*
G01X1399400D02*
X1402580D01*
G01X1412740Y1039040D02*
X1412390D01*
G01X1412740D02*
X1412910D01*
G01X1399400D02*
X1402580D01*
G01X1421370Y1097210D02*
X1426960D01*
G01X1414260Y1102790D02*
Y1097210D01*
G01Y1071810D02*
X1408670D01*
G01X1414260Y1077390D02*
Y1071810D01*
G01X1408670D02*
Y1077390D01*
G01Y1097210D02*
Y1102790D01*
G01X1414260Y1097210D02*
X1416550Y1094920D01*
G01X1414260Y1097210D02*
X1408670D01*
G01X1406390Y1094920D02*
X1408670Y1097210D01*
G01X1406390Y1105080D02*
X1408670Y1102790D01*
G01D02*
X1414260D01*
G01D02*
X1416550Y1105080D01*
G01X1421370Y1097210D02*
X1419090Y1094920D01*
G01X1421370Y1102790D02*
Y1097210D01*
G01X1406390Y1079680D02*
X1408670Y1077390D01*
G01D02*
X1414260D01*
G01D02*
X1416550Y1079680D01*
G01X1421370Y1071810D02*
X1426960D01*
G01Y1097210D02*
Y1102790D01*
G01X1429250Y1094920D02*
X1426960Y1097210D01*
G01X1421370Y1077390D02*
Y1071810D01*
G01X1426960Y1102790D02*
X1421370D01*
G01X1429250Y1105080D02*
X1426960Y1102790D01*
G01X1421370D02*
X1419090Y1105080D01*
G01X1426960Y1071810D02*
Y1077390D01*
G01D02*
X1421370D01*
G01X1429250Y1079680D02*
X1426960Y1077390D01*
G01X1421370D02*
X1419090Y1079680D01*
G01X1414260Y1090090D02*
X1416550Y1092380D01*
G01X1414260Y1084510D02*
X1416550Y1082220D01*
G01X1406390D02*
X1408670Y1084510D01*
G01X1406390Y1092380D02*
X1408670Y1090090D01*
G01X1424170Y1122220D02*
Y1108260D01*
G01X1411470D02*
Y1122220D01*
G01X1419090Y1079680D02*
X1429250D01*
G01Y1094920D02*
X1419090D01*
G01D02*
Y1105080D01*
G01D02*
X1429250D01*
G01X1416550D02*
X1406390D01*
G01X1416550Y1094920D02*
Y1105080D01*
G01X1406390Y1094920D02*
X1416550D01*
G01X1406390Y1105080D02*
Y1094920D01*
G01X1416550Y1079680D02*
X1406390D01*
G01X1416550Y1092380D02*
X1406390D01*
G01X1416550Y1082220D02*
Y1092380D01*
G01X1406390Y1082220D02*
X1416550D01*
G01X1406390Y1092380D02*
Y1082220D01*
G01X1396230Y1108260D02*
Y1087940D01*
G01D02*
X1402580D01*
G01X1408670Y1090090D02*
X1414260D01*
G01D02*
Y1084510D01*
G01D02*
X1408670D01*
G01D02*
Y1090090D01*
G01X1429250Y1082220D02*
X1419090D01*
G01X1429250D02*
X1426960Y1084510D01*
G01X1429250Y1092380D02*
X1426960Y1090090D01*
G01X1419090Y1092380D02*
X1429250D01*
G01X1419090Y1082220D02*
Y1092380D01*
G01X1421370Y1084510D02*
X1419090Y1082220D01*
G01X1421370Y1090090D02*
X1419090Y1092380D01*
G01X1396230Y1108260D02*
X1433060D01*
G01X1426960Y1084510D02*
Y1090090D01*
G01X1421370Y1084510D02*
X1426960D01*
G01Y1090090D02*
X1421370D01*
G01D02*
Y1084510D01*
G01X1423620Y1076100D02*
G02X1425740Y1074880I547J-1502D01*
G01Y1074320D02*
G02X1423620Y1073100I-1573J282D01*
G01X1426960Y1074110D02*
X1425740Y1074320D01*
G01X1426960Y1075090D02*
X1425740Y1074880D01*
G01X1423620Y1076100D02*
Y1076110D01*
G01X1423170Y1077340D02*
X1423620Y1076110D01*
G01X1423170Y1071860D02*
X1423620Y1073090D01*
G01D02*
Y1073100D01*
G01X1425020Y1077390D02*
G02X1426960Y1075450I-852J-2792D01*
G01X1421370D02*
G02X1423320Y1077390I2792J-856D01*
G01Y1071810D02*
G02X1421370Y1073750I842J2796D01*
G01X1426960D02*
G02X1425020Y1071810I-2792J852D01*
G01X1422290Y1076840D02*
X1423180Y1075780D01*
G01X1422290Y1072360D02*
X1423180Y1073420D01*
G01X1425680Y1074100D02*
G02Y1075100I392J500D01*
G01X1422900Y1076110D02*
Y1077140D01*
G01Y1073740D02*
Y1075460D01*
G01Y1072060D02*
Y1073090D01*
G01X1422720Y1077140D02*
X1422900D01*
G01X1423240D02*
X1422900D01*
G01Y1072060D02*
X1423240D01*
G01X1422900D02*
X1422720D01*
G01X1423620Y1088800D02*
G02X1425740Y1087580I547J-1502D01*
G01Y1087020D02*
G02X1423620Y1085800I-1573J282D01*
G01X1426960Y1086810D02*
X1425740Y1087020D01*
G01X1426960Y1087790D02*
X1425740Y1087580D01*
G01X1423620Y1088800D02*
Y1088810D01*
G01X1423170Y1090040D02*
X1423620Y1088810D01*
G01X1423170Y1084560D02*
X1423620Y1085790D01*
G01D02*
Y1085800D01*
G01X1425020Y1090090D02*
G02X1426960Y1088150I-852J-2792D01*
G01X1421370D02*
G02X1423320Y1090090I2792J-856D01*
G01Y1084510D02*
G02X1421370Y1086450I842J2796D01*
G01X1426960D02*
G02X1425020Y1084510I-2792J852D01*
G01X1422290Y1089540D02*
X1423180Y1088480D01*
G01X1422290Y1085060D02*
X1423180Y1086120D01*
G01X1425680Y1086800D02*
G02Y1087800I392J500D01*
G01X1422900Y1088810D02*
Y1089840D01*
G01Y1086440D02*
Y1088160D01*
G01Y1084760D02*
Y1085790D01*
G01X1422720Y1089840D02*
X1422900D01*
G01X1423240D02*
X1422900D01*
G01Y1084760D02*
X1423240D01*
G01X1422900D02*
X1422720D01*
G01X1423620Y1101500D02*
G02X1425740Y1100280I547J-1502D01*
G01Y1099720D02*
G02X1423620Y1098500I-1573J282D01*
G01X1426960Y1099510D02*
X1425740Y1099720D01*
G01X1426960Y1100490D02*
X1425740Y1100280D01*
G01X1423620Y1101500D02*
Y1101510D01*
G01X1423170Y1102740D02*
X1423620Y1101510D01*
G01X1423170Y1097260D02*
X1423620Y1098490D01*
G01D02*
Y1098500D01*
G01X1425020Y1102790D02*
G02X1426960Y1100850I-852J-2792D01*
G01X1421370D02*
G02X1423320Y1102790I2792J-856D01*
G01Y1097210D02*
G02X1421370Y1099150I842J2796D01*
G01X1426960D02*
G02X1425020Y1097210I-2792J852D01*
G01X1422290Y1102240D02*
X1423180Y1101180D01*
G01X1422290Y1097760D02*
X1423180Y1098820D01*
G01X1425680Y1099500D02*
G02Y1100500I392J500D01*
G01X1422900Y1101510D02*
Y1102540D01*
G01Y1099140D02*
Y1100860D01*
G01Y1097460D02*
Y1098490D01*
G01X1422720Y1102540D02*
X1422900D01*
G01X1423240D02*
X1422900D01*
G01Y1097460D02*
X1423240D01*
G01X1422900D02*
X1422720D01*
G01X1412010Y1098500D02*
G02X1409890Y1099720I-546J1503D01*
G01Y1100280D02*
G02X1412010Y1101500I1574J-283D01*
G01X1408670Y1100490D02*
X1409890Y1100280D01*
G01X1408670Y1099510D02*
X1409890Y1099720D01*
G01X1412010Y1098500D02*
X1412020Y1098490D01*
G01X1412470Y1097260D02*
X1412020Y1098490D01*
G01X1412470Y1102740D02*
X1412020Y1101510D01*
G01D02*
X1412010Y1101500D01*
G01X1410620Y1097210D02*
G02X1408670Y1099150I842J2796D01*
G01X1414260D02*
G02X1412320Y1097210I-2792J852D01*
G01Y1102790D02*
G02X1414260Y1100850I-852J-2792D01*
G01X1408670D02*
G02X1410620Y1102790I2792J-856D01*
G01X1413340Y1097760D02*
X1412460Y1098820D01*
G01X1413340Y1102240D02*
X1412460Y1101180D01*
G01X1409950Y1100500D02*
G02Y1099500I-388J-500D01*
G01X1412740Y1098490D02*
Y1097460D01*
G01Y1100860D02*
Y1099140D01*
G01Y1102540D02*
Y1101510D01*
G01X1412910Y1097460D02*
X1412740D01*
G01X1412390D02*
X1412740D01*
G01Y1102540D02*
X1412390D01*
G01X1412740D02*
X1412910D01*
G01X1412010Y1073100D02*
G02X1409890Y1074320I-546J1503D01*
G01Y1074880D02*
G02X1412010Y1076100I1574J-283D01*
G01X1408670Y1075090D02*
X1409890Y1074880D01*
G01X1408670Y1074110D02*
X1409890Y1074320D01*
G01X1412010Y1073100D02*
X1412020Y1073090D01*
G01X1412470Y1071860D02*
X1412020Y1073090D01*
G01X1412470Y1077340D02*
X1412020Y1076110D01*
G01D02*
X1412010Y1076100D01*
G01X1410620Y1071810D02*
G02X1408670Y1073750I842J2796D01*
G01X1414260D02*
G02X1412320Y1071810I-2792J852D01*
G01Y1077390D02*
G02X1414260Y1075450I-852J-2792D01*
G01X1408670D02*
G02X1410620Y1077390I2792J-856D01*
G01X1413340Y1072360D02*
X1412460Y1073420D01*
G01X1413340Y1076840D02*
X1412460Y1075780D01*
G01X1409950Y1075100D02*
G02Y1074100I-388J-500D01*
G01X1402580Y1073960D02*
X1399400D01*
G01D02*
G02Y1075240I0J640D01*
G01D02*
X1402580D01*
G01X1399400Y1072060D02*
G02Y1077140I2J2540D01*
G01X1412740Y1073090D02*
Y1072060D01*
G01Y1075460D02*
Y1073740D01*
G01Y1077140D02*
Y1076110D01*
G01X1412910Y1072060D02*
X1412740D01*
G01X1412390D02*
X1412740D01*
G01X1399400D02*
X1402580D01*
G01X1412740Y1077140D02*
X1412390D01*
G01X1412740D02*
X1412910D01*
G01X1399400D02*
X1402580D01*
G01X1412010Y1085800D02*
G02X1409890Y1087020I-546J1503D01*
G01Y1087580D02*
G02X1412010Y1088800I1574J-283D01*
G01X1408670Y1087790D02*
X1409890Y1087580D01*
G01X1408670Y1086810D02*
X1409890Y1087020D01*
G01X1412010Y1085800D02*
X1412020Y1085790D01*
G01X1412470Y1084560D02*
X1412020Y1085790D01*
G01X1412470Y1090040D02*
X1412020Y1088810D01*
G01D02*
X1412010Y1088800D01*
G01X1410620Y1084510D02*
G02X1408670Y1086450I842J2796D01*
G01X1414260D02*
G02X1412320Y1084510I-2792J852D01*
G01Y1090090D02*
G02X1414260Y1088150I-852J-2792D01*
G01X1408670D02*
G02X1410620Y1090090I2792J-856D01*
G01X1413340Y1085060D02*
X1412460Y1086120D01*
G01X1413340Y1089540D02*
X1412460Y1088480D01*
G01X1409950Y1087800D02*
G02Y1086800I-388J-500D01*
G01X1402580Y1086660D02*
X1399400D01*
G01D02*
G02Y1087940I0J640D01*
G01Y1084760D02*
G02X1396940Y1087940I0J2542D01*
G01X1412740Y1085790D02*
Y1084760D01*
G01Y1088160D02*
Y1086440D01*
G01Y1089840D02*
Y1088810D01*
G01X1412910Y1084760D02*
X1412740D01*
G01X1412390D02*
X1412740D01*
G01X1399400D02*
X1402580D01*
G01X1412740Y1089840D02*
X1412390D01*
G01X1412740D02*
X1412910D01*
G01X1424170Y1122220D02*
X1411470D01*
G01X1445800Y1302700D02*
G03I-10500J0D01*
G01X1429250Y990780D02*
Y980620D01*
G01X1433060Y1108260D02*
Y977440D01*
G01X1429250Y1003480D02*
Y993320D01*
G01Y1016180D02*
Y1006020D01*
G01Y1028880D02*
Y1018720D01*
G01X1433060Y1011740D02*
X1436230D01*
G01D02*
G02Y1010460I0J-640D01*
G01D02*
X1433060D01*
G01X1436230Y1013640D02*
G02Y1008560I2J-2540D01*
G01Y1013640D02*
X1433060D01*
G01X1436230Y1008560D02*
X1433060D01*
G01Y986340D02*
X1436230D01*
G01D02*
G02Y985060I0J-640D01*
G01D02*
X1433060D01*
G01X1436230Y988240D02*
G02Y983160I2J-2540D01*
G01Y988240D02*
X1433060D01*
G01X1436230Y983160D02*
X1433060D01*
G01Y999040D02*
X1436230D01*
G01D02*
G02Y997760I0J-640D01*
G01D02*
X1433060D01*
G01X1436230Y1000940D02*
G02Y995860I2J-2540D01*
G01Y1000940D02*
X1433060D01*
G01X1436230Y995860D02*
X1433060D01*
G01Y1024440D02*
X1436230D01*
G01D02*
G02Y1023160I0J-640D01*
G01D02*
X1433060D01*
G01X1436230Y1026340D02*
G02Y1021260I2J-2540D01*
G01Y1026340D02*
X1433060D01*
G01X1436230Y1021260D02*
X1433060D01*
G01X1429250Y1041580D02*
Y1031420D01*
G01Y1054280D02*
Y1044120D01*
G01Y1066980D02*
Y1056820D01*
G01Y1079680D02*
Y1069520D01*
G01X1433060Y1049840D02*
X1436230D01*
G01D02*
G02Y1048560I0J-640D01*
G01D02*
X1433060D01*
G01X1436230Y1051740D02*
G02Y1046660I2J-2540D01*
G01Y1051740D02*
X1433060D01*
G01X1436230Y1046660D02*
X1433060D01*
G01Y1062540D02*
X1436230D01*
G01D02*
G02Y1061260I0J-640D01*
G01D02*
X1433060D01*
G01X1436230Y1064440D02*
G02Y1059360I2J-2540D01*
G01Y1064440D02*
X1433060D01*
G01X1436230Y1059360D02*
X1433060D01*
G01Y1037140D02*
X1436230D01*
G01D02*
G02Y1035860I0J-640D01*
G01D02*
X1433060D01*
G01X1436230Y1039040D02*
G02Y1033960I2J-2540D01*
G01Y1039040D02*
X1433060D01*
G01X1436230Y1033960D02*
X1433060D01*
G01X1429250Y1105080D02*
Y1094920D01*
G01Y1092380D02*
Y1082220D01*
G01X1433060Y1075240D02*
X1436230D01*
G01D02*
G02Y1073960I0J-640D01*
G01D02*
X1433060D01*
G01X1436230Y1077140D02*
G02Y1072060I2J-2540D01*
G01Y1077140D02*
X1433060D01*
G01X1436230Y1072060D02*
X1433060D01*
G01Y1087940D02*
X1436230D01*
G01D02*
G02Y1086660I0J-640D01*
G01D02*
X1433060D01*
G01X1436230Y1089840D02*
G02Y1084760I2J-2540D01*
G01Y1089840D02*
X1433060D01*
G01X1436230Y1084760D02*
X1433060D01*
G01Y1100640D02*
X1436230D01*
G01D02*
G02Y1099360I0J-640D01*
G01D02*
X1433060D01*
G01X1436230Y1102540D02*
G02Y1097460I2J-2540D01*
G01Y1102540D02*
X1433060D01*
G01X1436230Y1097460D02*
X1433060D01*
G54D12*
G01X1119180Y1341830D02*
X1119130Y1342100D01*
G01X1119070D02*
X1119130Y1341830D01*
G01X1119200Y1341930D02*
X1119050D01*
G01Y1342000D02*
X1119200D01*
G01X1119000Y1341900D02*
Y1342100D01*
X1118930D01*
X1118910Y1342090D01*
X1118900Y1342080D01*
X1118890Y1342050D01*
X1118900Y1342020D01*
X1118910Y1342010D01*
X1118930Y1342000D01*
X1119000D01*
G01X1118930D02*
X1118890Y1341900D01*
G01X1118710D02*
X1118820D01*
Y1342100D01*
X1118710D01*
G01X1118750Y1342000D02*
X1118820D01*
G01X1118630Y1341900D02*
Y1342100D01*
X1118540D01*
G01X1118570Y1342000D02*
X1118630D01*
G01X1118460Y1341900D02*
Y1342100D01*
X1118410D01*
X1118390Y1342090D01*
X1118370Y1342080D01*
X1118360Y1342060D01*
X1118350Y1342030D01*
Y1342000D01*
Y1341970D01*
X1118360Y1341940D01*
X1118370Y1341920D01*
X1118390Y1341910D01*
X1118410Y1341900D01*
X1118460D01*
G01X1118170D02*
X1118280D01*
Y1342100D01*
X1118170D01*
G01X1118210Y1342000D02*
X1118280D01*
G01X1118100Y1341930D02*
X1118080Y1341910D01*
X1118060Y1341900D01*
X1118030D01*
X1118010Y1341910D01*
X1118000Y1341930D01*
X1117990Y1341950D01*
X1118000Y1341970D01*
X1118010Y1341990D01*
X1118030Y1342010D01*
X1118060D01*
X1118080Y1342030D01*
X1118090Y1342050D01*
X1118080Y1342070D01*
X1118070Y1342090D01*
X1118050Y1342100D01*
X1118030D01*
X1118020Y1342090D01*
X1118000Y1342080D01*
M02*
