G04 ================== begin FILE IDENTIFICATION RECORD ==================*
G04 Layout Name:  C:/DesigSync_WORKDIR/evm/em/CC2538_EM/Cadence/CC2538EM.brd*
G04 Film Name:    Layer4*
G04 File Format:  Gerber RS274X*
G04 File Origin:  Cadence Allegro 16.5-S010*
G04 Origin Date:  Mon Aug 27 15:01:23 2012*
G04 *
G04 Layer:  VIA CLASS/BOTTOM*
G04 Layer:  PIN/BOTTOM*
G04 Layer:  ETCH/BOTTOM*
G04 *
G04 Offset:    (0.000 0.000)*
G04 Mirror:    No*
G04 Mode:      Positive*
G04 Rotation:  0*
G04 FullContactRelief:  No*
G04 UndefLineWidth:     0.100*
G04 ================== end FILE IDENTIFICATION RECORD ====================*
%FSLAX44Y44*MOMM*%
%IR0*IPPOS*OFA0.00000B0.00000*MIA0B0*SFA1.00000B1.00000*%
%ADD12O,2.05X.65*%
%ADD15O,.65X2.05*%
%ADD13C,1.45*%
%ADD11C,.099*%
%ADD14O,1.X1.*%
%ADD10C,.5*%
%ADD16C,.3*%
%ADD17C,.6*%
%ADD18C,.15*%
%ADD20C,1.806*%
%ADD21C,1.754*%
%ADD23O,2.354X.954*%
%ADD22O,.954X2.354*%
%ADD19C,.758*%
G75*
%LPD*%
G75*
G36*
G01X1063790Y1327010D02*
G02X1064500Y1327300I705J-711D01*
G01X1464000D01*
G02X1464710Y1327010I5J-1001D01*
G02X1465000Y1326300I-711J-705D01*
G01Y901000D01*
G02X1464000Y900000I-1000J0D01*
G01X1215500D01*
G02X1214500Y901000I0J1000D01*
G01Y917000D01*
G03X1213500Y918000I-1000J0D01*
G01X1128500D01*
G03X1127500Y917000I0J-1000D01*
G01Y901000D01*
G02X1126500Y900000I-1000J0D01*
G01X1064500D01*
G02X1063500Y901000I0J1000D01*
G01Y1326300D01*
G02X1063790Y1327010I1001J5D01*
G37*
%LPC*%
G75*
G36*
G01X1397800Y1079370D02*
X1411950D01*
G02X1412010I30J-1000D01*
G01X1412170Y1079360D01*
X1412520Y1079480D01*
X1413840Y1080590D01*
X1414020Y1080920D01*
X1414040Y1081100D01*
G02X1414110Y1081450I3747J-567D01*
G03X1414130Y1081830I-973J242D01*
G03X1412900Y1082660I-992J-143D01*
G02X1411800Y1082530I-1106J4639D01*
G01X1397800D01*
G02X1393240Y1085890I0J4774D01*
G01X1393170Y1086110D01*
X1392880Y1086430D01*
X1391020Y1087190D01*
X1390590Y1087170D01*
X1390390Y1087060D01*
G02X1388730Y1094190I-1789J3342D01*
G01X1388930Y1094180D01*
X1389320Y1094330D01*
X1389670Y1094680D01*
G03Y1096090I-710J705D01*
G01X1389570Y1096190D01*
X1389350Y1096310D01*
X1389220Y1096350D01*
G02X1392180Y1103250I1008J3653D01*
G01X1392310Y1103170D01*
X1392630Y1103100D01*
X1394150Y1103250D01*
X1394440Y1103390D01*
X1394560Y1103500D01*
G02X1397800Y1104770I3240J-3498D01*
G01X1411800D01*
G02X1416410Y1098770I0J-4771D01*
G03X1416580Y1097900I965J-263D01*
G01X1417850Y1096250D01*
X1418090D01*
X1422250Y1092090D01*
X1422720Y1091940D01*
X1422970Y1091990D01*
G02X1423840Y1092070I870J-4691D01*
G01X1437840D01*
G02Y1082530I0J-4770D01*
G01X1423680D01*
X1423640D01*
X1423460Y1082540D01*
X1423080Y1082400D01*
X1421900Y1081280D01*
G03X1421590Y1080550I691J-724D01*
G01Y1080470D01*
X1421580Y1080270D01*
X1421730Y1079880D01*
X1422220Y1079390D01*
X1422690Y1079240D01*
X1422940Y1079290D01*
G02X1423840Y1079370I871J-4693D01*
G01X1437840D01*
G02Y1069830I0J-4770D01*
G01X1423840D01*
G02X1419140Y1075440I0J4774D01*
G01X1419190Y1075680D01*
X1419040Y1076150D01*
X1418520Y1076670D01*
X1418130Y1076820D01*
X1417930Y1076810D01*
G03X1417200Y1076470I22J-1001D01*
G01X1416770Y1075970D01*
G03X1416530Y1075190I754J-659D01*
G02X1411800Y1069830I-4730J-593D01*
G01X1397800D01*
G02X1393670Y1072210I0J4773D01*
G03X1393160Y1072640I-862J-505D01*
G01X1392580Y1072860D01*
G03X1391930Y1072880I-354J-935D01*
G02X1393560Y1079090I-1132J3616D01*
G03X1394290Y1078770I733J680D01*
G01X1395240D01*
G03X1395670Y1078870I-6J999D01*
G01X1395680D01*
G02X1397800Y1079370I2126J-4269D01*
G37*
G36*
G01X1437840Y1095230D02*
X1423840D01*
G02X1420960Y1096200I0J4760D01*
G01X1420550Y1096500D01*
G02X1420350Y1096700I603J803D01*
G01X1420050Y1097110D01*
G02X1423840Y1104770I3790J2892D01*
G01X1437840D01*
G02Y1095230I0J-4770D01*
G37*
G36*
G01X1311290Y1224620D02*
G03X1311900Y1225320I-362J932D01*
G01X1312340Y1227150D01*
X1312220Y1227610D01*
X1312050Y1227800D01*
G02X1311970Y1227900I2918J2416D01*
G03X1311690Y1228140I-779J-626D01*
G03X1310420Y1227930I-510J-859D01*
G03X1310330Y1227810I752J-658D01*
G02X1309470Y1232750I-3230J1982D01*
G01X1309620Y1232630D01*
X1309970Y1232510D01*
X1311700Y1232630D01*
X1312040Y1232790D01*
X1312160Y1232920D01*
G02X1316310Y1226780I2738J-2622D01*
G03X1315700Y1226080I362J-932D01*
G01X1315260Y1224250D01*
X1315380Y1223790D01*
X1315550Y1223600D01*
G02X1311290Y1224620I-2851J-2499D01*
G37*
G36*
G01X1387880Y1209460D02*
G02X1384380Y1213480I-3782J241D01*
G03X1386520Y1215340I144J1995D01*
G02X1390020Y1211320I3782J-241D01*
G03X1387880Y1209460I-144J-1995D01*
G37*
G36*
G01X1379890Y1170280D02*
G03X1379740Y1171050I-978J209D01*
G01X1378810Y1172410D01*
X1378470Y1172630D01*
X1378270Y1172660D01*
G02X1376240Y1179100I629J3738D01*
G01X1376380Y1179240D01*
X1376520Y1179560D01*
X1376610Y1181290D01*
X1376490Y1181640D01*
X1376370Y1181790D01*
G02X1381960Y1181500I2928J2409D01*
G01X1381820Y1181360D01*
X1381680Y1181040D01*
X1381590Y1179310D01*
X1381710Y1178960D01*
X1381830Y1178810D01*
G02X1382610Y1175620I-2930J-2407D01*
G03X1382760Y1174850I978J-209D01*
G01X1383690Y1173490D01*
X1384030Y1173270D01*
X1384230Y1173240D01*
G02X1379890Y1170280I-630J-3739D01*
G37*
G36*
G01X1174960Y1155120D02*
X1175110Y1155270D01*
X1175270Y1155640D01*
X1175240Y1157510D01*
X1175080Y1157880D01*
X1174920Y1158020D01*
G02X1178000Y1164560I2577J2782D01*
G01X1178200Y1164530D01*
X1178580Y1164630D01*
X1179860Y1165590D01*
G03X1180250Y1166250I-601J800D01*
G02X1187780Y1166000I3751J-547D01*
G01X1187790Y1165800D01*
X1187980Y1165440D01*
X1189400Y1164260D01*
X1189790Y1164150D01*
X1189990Y1164170D01*
G02X1186620Y1160100I409J-3769D01*
G01X1186610Y1160300D01*
X1186420Y1160660D01*
X1185000Y1161840D01*
X1184610Y1161950D01*
X1184410Y1161930D01*
G02X1183500Y1161940I-414J3769D01*
G01X1183300Y1161970D01*
X1182920Y1161870D01*
X1181640Y1160910D01*
G03X1181250Y1160250I601J-800D01*
G02X1180140Y1158080I-3750J549D01*
G01X1179990Y1157930D01*
X1179830Y1157560D01*
X1179860Y1155690D01*
X1180020Y1155320D01*
X1180180Y1155180D01*
G02X1174960Y1155120I-2578J-2779D01*
G37*
G36*
G01X1164540Y1144630D02*
G02X1164450Y1140300I3062J-2230D01*
G03X1161160Y1140370I-1669J-1106D01*
G02X1161250Y1144700I-3062J2230D01*
G03X1164540Y1144630I1669J1106D01*
G37*
G36*
G01X1139730Y1124570D02*
X1139740D01*
G03X1140560Y1124730I236J971D01*
G01X1141810Y1125650D01*
G03X1142220Y1126400I-588J809D01*
G02X1142370Y1127280I3783J-192D01*
G03X1140840Y1128380I-959J280D01*
G02X1135800Y1133970I-2168J3112D01*
G03X1135850Y1136530I-1512J1310D01*
G02X1140060Y1142470I2956J2367D01*
G01X1140070D01*
G03X1140800Y1142500I327J945D01*
G01X1142250Y1143160D01*
X1142510Y1143430D01*
X1142580Y1143610D01*
G02X1144210Y1145490I3522J-1407D01*
G01X1144230D01*
X1144440Y1145620D01*
X1144690Y1146010D01*
X1144870Y1147890D01*
G03X1144530Y1148740I-996J95D01*
G02X1148890Y1148320I2477J2869D01*
G01X1148870D01*
X1148660Y1148190D01*
X1148410Y1147800D01*
X1148230Y1145920D01*
G03X1148570Y1145070I996J-95D01*
G02X1144840Y1138630I-2476J-2866D01*
G01X1144830D01*
G03X1144100Y1138600I-327J-945D01*
G01X1142650Y1137940D01*
X1142390Y1137670D01*
X1142320Y1137490D01*
G02X1141680Y1136430I-3523J1404D01*
G03X1141630Y1133870I1512J-1310D01*
G02X1142470Y1131680I-2944J-2385D01*
G01X1142480Y1131450D01*
X1142690Y1131050D01*
X1144150Y1130010D01*
G03X1144990Y1129850I589J806D01*
G02X1145080Y1122530I1016J-3648D01*
G01X1145060D01*
G03X1144240Y1122370I-236J-971D01*
G01X1142990Y1121450D01*
G03X1142580Y1120700I588J-809D01*
G02X1139730Y1124570I-3782J199D01*
G37*
G36*
G01X1365330Y1088380D02*
X1365420Y1088520D01*
X1365510Y1088830D01*
X1365430Y1090190D01*
G03X1365210Y1090760I-999J-58D01*
G01X1365200Y1090770D01*
G02X1365160Y1095600I2900J2439D01*
G01X1365270Y1095730D01*
X1365390Y1096050D01*
X1365410Y1097640D01*
X1365310Y1097940D01*
X1365200Y1098080D01*
G02X1365450Y1103010I2999J2319D01*
G03X1365720Y1103640I-728J685D01*
G01X1365760Y1104280D01*
G03X1365560Y1104940I-999J58D01*
G02X1365710Y1109650I3041J2261D01*
G01X1365830Y1109790D01*
X1365950Y1110130D01*
X1365910Y1111650D01*
G03X1365640Y1112310I-1000J-24D01*
G02X1370720Y1117900I2767J2589D01*
G03X1373200Y1117940I1215J1585D01*
G02X1378360Y1112410I2397J-2936D01*
G03X1378090Y1111750I730J-684D01*
G01X1378060Y1110410D01*
G03X1378290Y1109750I999J-22D01*
G02X1378410Y1105000I-2891J-2450D01*
G01Y1104990D01*
X1378400D01*
G03X1378200Y1104410I802J-601D01*
G01X1378180Y1103050D01*
X1378280Y1102740D01*
X1378380Y1102610D01*
G02X1378240Y1098010I-3080J-2208D01*
G03X1378020Y1097380I781J-626D01*
G01Y1096120D01*
G03X1378240Y1095490I1001J-4D01*
G02X1378130Y1090580I-2940J-2390D01*
G03X1377880Y1089940I750J-662D01*
G01X1377860Y1089300D01*
G03X1378080Y1088650I999J-24D01*
G02X1372740Y1083330I-2973J-2355D01*
G03X1372120Y1083550I-626J-779D01*
G01X1371480D01*
G03X1370860Y1083330I6J-999D01*
G02X1365330Y1088380I-2363J2965D01*
G37*
G36*
G01X1305370Y1052620D02*
X1305510Y1052750D01*
X1305680Y1053100D01*
X1305780Y1054700D01*
G03X1305540Y1055420I-996J68D01*
G02X1308280Y1061690I2862J2483D01*
G01X1308480D01*
X1308830Y1061850D01*
X1310090Y1063200D01*
X1310220Y1063560D01*
X1310210Y1063760D01*
G02X1317760Y1063440I3788J139D01*
G01Y1063420D01*
G03X1318010Y1062650I993J-103D01*
G01X1319010Y1061520D01*
G03X1319760Y1061190I743J671D01*
G02X1320040Y1061180I5J-3789D01*
G01X1320050D01*
G03X1320840Y1061500I56J997D01*
G01X1322050Y1062810D01*
X1322180Y1063240D01*
X1322150Y1063460D01*
G02X1325660Y1060220I3750J541D01*
G01X1325650D01*
G03X1324860Y1059900I-56J-997D01*
G01X1323650Y1058590D01*
X1323520Y1058160D01*
X1323550Y1057940D01*
G02X1316040Y1057860I-3750J-544D01*
G01Y1057880D01*
X1316060Y1058090D01*
X1315940Y1058490D01*
X1314790Y1059780D01*
G03X1314040Y1060110I-743J-671D01*
G02X1313210Y1060190I-53J3791D01*
G03X1312000Y1059160I-210J-979D01*
G03X1312040Y1058940I999J68D01*
G02X1310930Y1055080I-3642J-1042D01*
G01X1310790Y1054950D01*
X1310620Y1054600D01*
X1310520Y1053000D01*
G03X1310760Y1052280I996J-68D01*
G02X1305370Y1052620I-2862J-2481D01*
G37*
G36*
G01X1107000Y1069830D02*
X1092990D01*
G02X1092180Y1069900I4J4770D01*
G03X1091010Y1068760I-180J-986D01*
G03X1091040Y1068640I985J182D01*
G02X1091170Y1067980I-3637J-1059D01*
G03X1091510Y1067330I995J106D01*
G01X1092000Y1066900D01*
G03X1092720Y1066660I653J760D01*
G02X1093000Y1066670I310J-4758D01*
G01X1107000D01*
G02Y1057130I0J-4770D01*
G01X1093000D01*
G02X1092950I-25J4771D01*
G03X1092230Y1056820I3J-998D01*
G01X1091770Y1056350D01*
G03X1091490Y1055610I718J-695D01*
G02Y1055370I-3788J-120D01*
G01X1091480Y1055170D01*
X1091630Y1054780D01*
X1092150Y1054260D01*
G03X1092880Y1053970I705J710D01*
G01X1107000D01*
G02Y1044430I0J-4770D01*
G01X1093000D01*
G02X1088250Y1049690I0J4775D01*
G01X1088270Y1049870D01*
X1088180Y1050220D01*
X1087230Y1051580D01*
X1086940Y1051790D01*
X1086760Y1051830D01*
G02Y1059170I942J3670D01*
G01X1086780D01*
G03X1087340Y1059570I-267J965D01*
G01X1088200Y1060810D01*
X1088280Y1061170D01*
X1088260Y1061340D01*
G02X1088230Y1061920I4741J536D01*
G01Y1061930D01*
G03X1088010Y1062560I-1002J4D01*
G01X1087090Y1063680D01*
X1086800Y1063860D01*
X1086630Y1063890D01*
G02X1086720Y1071330I770J3711D01*
G01X1086910Y1071360D01*
X1087250Y1071580D01*
X1088170Y1072930D01*
G03X1088320Y1073680I-831J556D01*
G02X1088240Y1074960I4679J935D01*
G01X1088260Y1075150D01*
X1088150Y1075490D01*
X1087220Y1076700D01*
G03X1086610Y1077070I-789J-613D01*
G02X1086630Y1084530I687J3728D01*
G01X1086820Y1084560D01*
X1087140Y1084760D01*
X1088070Y1086020D01*
G03X1088260Y1086740I-802J597D01*
G02X1093000Y1092070I4740J557D01*
G01X1107000D01*
G02X1107870Y1091990I0J-4771D01*
G01X1108110Y1091940D01*
X1108580Y1092090D01*
X1110500Y1094010D01*
G03X1110550Y1095370I-705J707D01*
G01X1110420Y1095530D01*
G03X1109200Y1095770I-761J-650D01*
G02X1107000Y1095230I-2207J4238D01*
G01X1093000D01*
G02Y1104770I0J4770D01*
G01X1107000D01*
G02X1110820Y1097140I0J-4771D01*
G01X1110590Y1096840D01*
X1110650Y1096100D01*
X1111210Y1095540D01*
X1112030D01*
X1112060Y1095570D01*
X1112720D01*
G03X1113550Y1096000I8J1001D01*
G01X1114620Y1097570D01*
X1114680Y1098060D01*
X1114590Y1098290D01*
G02X1119040Y1104770I4450J1712D01*
G01X1133040D01*
G02X1136970Y1102700I0J-4766D01*
G03X1137800Y1102270I823J572D01*
G01X1138830D01*
G02X1139530Y1101980I-4J-1000D01*
G01X1140350Y1101160D01*
G03X1141050Y1100870I704J710D01*
G01X1187910D01*
G03X1188640Y1101190I-3J1000D01*
G02X1195130Y1097930I2761J-2594D01*
G03X1195350Y1097110I984J-175D01*
G01X1196330Y1095930D01*
G03X1197100Y1095570I768J640D01*
G01X1201760D01*
G02X1202460Y1095280I-4J-1000D01*
G01X1202470Y1095270D01*
X1203100D01*
G03X1203830Y1095590I-3J1000D01*
G02X1203840Y1090410I2771J-2585D01*
G03X1203110Y1090730I-733J-680D01*
G01X1202340D01*
G03X1201590Y1090390I1J-1000D01*
G01X1200450Y1089100D01*
X1200330Y1088700D01*
X1200360Y1088480D01*
G02X1193840Y1085410I-3758J-476D01*
G03X1193110Y1085730I-733J-680D01*
G01X1140350D01*
G03X1139650Y1085440I4J-1000D01*
G01X1139530Y1085320D01*
G02X1138830Y1085030I-704J710D01*
G01X1137800D01*
G03X1136970Y1084600I-7J-1002D01*
G02X1133040Y1082530I-3930J2696D01*
G01X1119040D01*
G02X1114570Y1088960I0J4769D01*
G01X1114670Y1089240D01*
X1114550Y1089800D01*
X1114340Y1090010D01*
G03X1112920I-710J-704D01*
G01X1111790Y1088880D01*
X1111640Y1088410D01*
X1111690Y1088170D01*
G02X1107000Y1082530I-4690J-870D01*
G01X1093000D01*
G02X1092190Y1082600I4J4770D01*
G03X1091020Y1081560I-171J-986D01*
G03X1091030Y1081440I997J23D01*
G02X1091090Y1080670I-3727J-678D01*
G01X1091080Y1080470D01*
X1091230Y1080080D01*
X1091840Y1079470D01*
X1092270Y1079320D01*
X1092490Y1079340D01*
G02X1093000Y1079370I535J-4739D01*
G01X1107000D01*
G02Y1069830I0J-4770D01*
G37*
G36*
G01X1342160Y1035400D02*
X1342270Y1035530D01*
X1342390Y1035850D01*
X1342410Y1037440D01*
X1342310Y1037740D01*
X1342200Y1037880D01*
G02X1342160Y1042460I3000J2316D01*
G01X1342260Y1042590D01*
X1342350Y1042880D01*
Y1044420D01*
X1342260Y1044710D01*
X1342160Y1044840D01*
G02X1342510Y1049770I3041J2262D01*
G01X1342650Y1049910D01*
X1342790Y1050230D01*
X1342860Y1051760D01*
G03X1342660Y1052420I-998J58D01*
G01X1342650Y1052430D01*
G02X1347770Y1057900I2952J2368D01*
G03X1348350Y1057720I573J821D01*
G01X1348950D01*
G03X1349530Y1057900I7J1001D01*
G02X1354560Y1052320I2168J-3102D01*
G03X1354320Y1051650I758J-650D01*
G01X1354340Y1050130D01*
X1354470Y1049800D01*
X1354600Y1049660D01*
G02X1354790Y1044780I-2800J-2553D01*
G03X1354580Y1044160I791J-613D01*
G01Y1042940D01*
G03X1354790Y1042320I1000J-7D01*
G02X1354840Y1037740I-2992J-2323D01*
G01X1354740Y1037610D01*
X1354650Y1037320D01*
Y1035780D01*
X1354740Y1035490D01*
X1354840Y1035360D01*
G02X1349450Y1030130I-3044J-2255D01*
G03X1348810Y1030340I-613J-789D01*
G01X1348170D01*
G03X1347540Y1030100I21J-1001D01*
G02X1342160Y1035400I-2442J2902D01*
G37*
G36*
G01X1107010Y1019030D02*
X1093000D01*
G02X1089620Y1020430I0J4780D01*
G03X1089050Y1020720I-715J-699D01*
G01X1088440Y1020800D01*
G03X1087820Y1020690I-144J-990D01*
G02X1088000Y1027210I-1840J3313D01*
G03X1088610Y1027060I531J845D01*
G01X1089220Y1027100D01*
G03X1089810Y1027350I-75J998D01*
G02X1093000Y1028570I3190J-3561D01*
G01X1107000D01*
G02X1108000Y1028460I-18J-4768D01*
G03X1108040Y1028450I262J965D01*
G03X1109170Y1029730I172J987D01*
G01Y1029740D01*
G02X1109080Y1030110I3630J1079D01*
G01Y1030120D01*
X1109040Y1030290D01*
X1108870Y1030580D01*
X1107590Y1031620D01*
X1107250Y1031730D01*
X1093000D01*
G02X1089720Y1033040I0J4761D01*
G03X1089140Y1033310I-691J-726D01*
G01X1088520Y1033370D01*
G03X1087910Y1033240I-107J-993D01*
G02Y1039760I-1930J3260D01*
G03X1088520Y1039630I503J863D01*
G01X1089140Y1039690D01*
G03X1089720Y1039960I-111J996D01*
G02X1093000Y1041270I3280J-3451D01*
G01X1107000D01*
G02X1111760Y1036160I0J-4772D01*
G03X1112000Y1035430I996J-77D01*
G01X1112430Y1034940D01*
G03X1113110Y1034600I754J658D01*
G02X1113230Y1034590I-255J-3783D01*
G01X1114010Y1035400D01*
G03X1114280Y1036160I-728J687D01*
G02X1119040Y1041270I4760J338D01*
G01X1133040D01*
G02X1136230Y1040050I0J-4781D01*
G03X1136820Y1039800I665J748D01*
G01X1137420Y1039760D01*
G03X1138030Y1039910I79J996D01*
G02X1138220Y1033390I2021J-3204D01*
G03X1137600Y1033500I-476J-880D01*
G01X1136990Y1033420D01*
G03X1136420Y1033130I145J-989D01*
G02X1133040Y1031730I-3380J3380D01*
G01X1119040D01*
G02X1118250Y1031790I-35J4773D01*
G03X1117470Y1031590I-163J-985D01*
G01X1116590Y1030900D01*
G02Y1030690I-3790J-105D01*
G01X1116580Y1030490D01*
X1116730Y1030100D01*
X1118140Y1028690D01*
X1118530Y1028550D01*
X1118750Y1028560D01*
G02X1119040Y1028570I309J-4759D01*
G01X1133040D01*
G02Y1019030I0J-4770D01*
G01X1119040D01*
G02X1118080Y1019130I12J4769D01*
G03X1116880Y1018070I-202J-980D01*
G03X1116920Y1017840I998J55D01*
G02X1117020Y1017480I-3595J-1192D01*
G01X1117050Y1017310D01*
X1117230Y1017020D01*
X1118360Y1016090D01*
G03X1119000Y1015870I627J782D01*
G01X1133040D01*
G02Y1006330I0J-4770D01*
G01X1119040D01*
G02X1114280Y1011410I0J4770D01*
G03X1114040Y1012130I-999J67D01*
G01X1113610Y1012620D01*
G03X1112950Y1012970I-765J-645D01*
G02X1112830Y1012980I254J3778D01*
G01X1112040Y1012170D01*
G03X1111760Y1011400I717J-696D01*
G02X1107000Y1006330I-4760J-301D01*
G01X1093000D01*
G02X1089770Y1007590I0J4770D01*
G03X1089180Y1007850I-676J-735D01*
G01X1088570Y1007910D01*
G03X1087960Y1007770I-92J-998D01*
G02X1087860Y1014290I-1981J3230D01*
G03X1088480Y1014160I505J864D01*
G01X1089090Y1014240D01*
G03X1089660Y1014510I-121J992D01*
G02X1093000Y1015870I3340J-3421D01*
G01X1107000D01*
G02X1107420Y1015850I-17J-4769D01*
G01X1107450D01*
G03X1108120Y1016040I79J997D01*
G01X1109350Y1016960D01*
X1109550Y1017280D01*
X1109580Y1017460D01*
G02X1109720Y1017980I3720J-723D01*
G03X1108470Y1019260I-944J328D01*
G02X1107010Y1019030I-1463J4541D01*
G37*
G36*
G01X1179130Y1010620D02*
G02X1174570Y1012620I-3429J-1619D01*
G03X1175770Y1015380I-605J1904D01*
G02X1180330Y1013380I3429J1619D01*
G03X1179130Y1010620I605J-1904D01*
G37*
G36*
G01X1397800Y1028570D02*
X1411930D01*
X1411970D01*
X1412140Y1028560D01*
X1412520Y1028700D01*
X1413690Y1029800D01*
G03X1414010Y1030510I-679J733D01*
G02X1414030Y1030770I3786J-160D01*
G01X1413180Y1031520D01*
G03X1412390Y1031770I-670J-744D01*
G02X1411800Y1031730I-618J4742D01*
G01X1397800D01*
G02X1393620Y1034210I0J4763D01*
G01Y1034220D01*
G03X1392740Y1034730I-873J-492D01*
G01X1392500D01*
G03X1391770Y1034410I3J-1000D01*
G02X1391760Y1039590I-2771J2585D01*
G03X1392490Y1039270I733J680D01*
G01X1393430D01*
G03X1394190Y1039620I1J999D01*
G02X1397800Y1041270I3610J-3124D01*
G01X1411940D01*
X1411980D01*
X1412150Y1041260D01*
X1412520Y1041390D01*
X1413840Y1042580D01*
X1414010Y1042910D01*
X1414020Y1043100D01*
G02X1414060Y1043410I3776J-330D01*
G03X1414070Y1043540I-988J141D01*
G03X1412850Y1044550I-999J35D01*
G02X1411800Y1044430I-1063J4649D01*
G01X1397800D01*
G02X1396410Y1044640I10J4769D01*
G01X1396270Y1044680D01*
X1388890D01*
Y1044510D01*
X1372010D01*
G02X1371010Y1045510I0J1000D01*
G01Y1065790D01*
G02X1372010Y1066790I1000J0D01*
G01X1388890D01*
X1389260Y1066420D01*
X1396270D01*
X1396410Y1066460D01*
G02X1397800Y1066670I1400J-4559D01*
G01X1411800D01*
G02Y1057130I0J-4770D01*
G01X1397800D01*
G02X1396410Y1057340I10J4769D01*
G01X1396270Y1057380D01*
X1389890D01*
G03X1388890Y1056380I0J-1000D01*
G01Y1054720D01*
G03X1389890Y1053720I1000J0D01*
G01X1396270D01*
X1396410Y1053760D01*
G02X1397800Y1053970I1400J-4559D01*
G01X1411800D01*
G02X1416370Y1047850I0J-4766D01*
G03X1416360Y1047820I943J-331D01*
G03X1417370Y1046570I970J-250D01*
G01X1417430D01*
G02X1418200I385J-3770D01*
G03X1419270Y1047850I110J995D01*
G02X1423840Y1053970I4570J1354D01*
G01X1437840D01*
G02X1441200Y1052580I-6J-4771D01*
G03X1441850Y1052290I707J712D01*
G01X1442480Y1052250D01*
G03X1443140Y1052450I57J1000D01*
G02X1443310Y1046250I2261J-3040D01*
G03X1442640Y1046400I-540J-842D01*
G01X1442000Y1046330D01*
G03X1441380Y1046000I130J-992D01*
G02X1437840Y1044430I-3540J3206D01*
G01X1423840D01*
G02X1422760Y1044560I26J4767D01*
G03X1422440Y1044580I-222J-975D01*
G03X1421540Y1043420I87J-997D01*
G02X1421590Y1042670I-3739J-626D01*
G01X1421580Y1042470D01*
X1421730Y1042080D01*
X1422310Y1041500D01*
G03X1423150Y1041220I703J710D01*
G01X1423160D01*
G02X1423840Y1041270I689J-4719D01*
G01X1437840D01*
G02Y1031730I0J-4770D01*
G01X1423840D01*
G02X1422790Y1031850I13J4769D01*
G03X1421570Y1030930I-221J-975D01*
G03Y1030760I995J-85D01*
G02X1421590Y1030510I-3765J-427D01*
G01X1421600Y1030300D01*
X1421750Y1029950D01*
X1423100Y1028690D01*
X1423460Y1028560D01*
X1423660Y1028570D01*
X1437840D01*
G02Y1019030I0J-4770D01*
G01X1423840D01*
G02X1423510Y1019040I-21J4771D01*
G01X1423310Y1019050D01*
X1422940Y1018930D01*
X1421570Y1017750D01*
X1421390Y1017400D01*
X1421380Y1017200D01*
G02X1421330Y1016850I-3772J360D01*
G03Y1016510I985J-170D01*
G03X1422580Y1015700I988J155D01*
G02X1423840Y1015870I1262J-4600D01*
G01X1437840D01*
G02X1441220Y1014470I0J-4780D01*
G03X1441790Y1014180I715J699D01*
G01X1442400Y1014100D01*
G03X1443020Y1014210I144J990D01*
G02X1442830Y1007690I1831J-3316D01*
G03X1442220Y1007840I-531J-846D01*
G01X1441620Y1007800D01*
G03X1441030Y1007550I75J-998D01*
G02X1437840Y1006330I-3190J3561D01*
G01X1423780D01*
G03X1423120Y1006080I1J-1000D01*
G01X1421950Y1005040D01*
X1421790Y1004720D01*
X1421770Y1004530D01*
G02X1421730Y1004230I-3773J350D01*
G03X1422910Y1003080I985J-170D01*
G02X1423820Y1003170I922J-4681D01*
G01X1437840D01*
G02X1441220Y1001770I0J-4780D01*
G03X1441790Y1001480I715J699D01*
G01X1442400Y1001400D01*
G03X1443020Y1001510I144J990D01*
G02X1442830Y994990I1831J-3316D01*
G03X1442220Y995140I-531J-846D01*
G01X1441620Y995100D01*
G03X1441030Y994850I75J-998D01*
G02X1437840Y993630I-3190J3561D01*
G01X1423840D01*
G02X1419290Y999820I0J4767D01*
G03X1418260Y1001120I-955J301D01*
G02X1417440Y1001150I-272J3780D01*
G03X1416340Y999860I-147J-989D01*
G02X1411800Y993630I-4540J-1461D01*
G01X1397800D01*
G02X1394610Y994850I0J4781D01*
G03X1394020Y995100I-665J-748D01*
G01X1393410Y995140D01*
G03X1392800Y994990I-79J-995D01*
G02X1392620Y1001510I-2020J3207D01*
G03X1393240Y1001400I476J880D01*
G01X1393850Y1001480D01*
G03X1394420Y1001770I-145J989D01*
G02X1397800Y1003170I3380J-3380D01*
G01X1411800D01*
G02X1413040Y1003010I15J-4772D01*
G03X1414280Y1004170I261J963D01*
G02X1414210Y1005030I3719J736D01*
G01X1414220Y1005230D01*
X1414070Y1005620D01*
X1413380Y1006310D01*
X1412910Y1006460D01*
X1412670Y1006410D01*
G02X1411800Y1006330I-870J4691D01*
G01X1397800D01*
G02Y1015870I0J4770D01*
G01X1411820D01*
G02X1412680Y1015790I-10J-4771D01*
G03X1413850Y1016920I184J981D01*
G02X1413810Y1017630I3750J567D01*
G01X1413820Y1017830D01*
X1413670Y1018220D01*
X1412960Y1018930D01*
X1412530Y1019080D01*
X1412310Y1019060D01*
G02X1411800Y1019030I-535J4739D01*
G01X1397800D01*
G02Y1028570I0J4770D01*
G37*
G36*
G01X1357370Y966470D02*
G03X1356680Y966750I-694J-719D01*
G01X1355100Y966760D01*
X1354740Y966610D01*
X1354600Y966480D01*
G02X1349240Y971840I-2626J2734D01*
G03X1349520Y972530I-719J694D01*
G01Y973910D01*
G03X1349240Y974600I-999J-4D01*
G02X1354610Y979950I2734J2626D01*
G03X1355300Y979670I694J719D01*
G01X1356880Y979660D01*
X1357240Y979810D01*
X1357380Y979940D01*
G02X1362740Y974580I2626J-2734D01*
G03X1362460Y973890I719J-694D01*
G01Y972510D01*
G03X1362740Y971820I999J4D01*
G02X1357370Y966470I-2734J-2626D01*
G37*
G36*
G01X1279640Y998910D02*
Y1012930D01*
G02X1289180I4770J0D01*
G01Y998930D01*
G02X1289110Y998100I-4771J-16D01*
G01X1289070Y997860D01*
X1289210Y997400D01*
X1289680Y996930D01*
X1290070Y996780D01*
X1290270Y996790D01*
X1290360D01*
G03X1291070Y997090I-4J1000D01*
G01X1292060Y998110D01*
G03X1292340Y998830I-720J694D01*
G01Y1012930D01*
G02X1301880I4770J0D01*
G01Y998930D01*
G02X1296430Y994210I-4769J0D01*
G01X1296420D01*
G03X1295680Y994020I-140J-989D01*
G01X1294390Y993040D01*
X1294180Y992690D01*
X1294160Y992500D01*
G02X1294150Y992460I-3661J894D01*
G03X1295410Y991350I990J-147D01*
G03X1295480Y991370I-239J969D01*
G02X1301880Y986890I1632J-4480D01*
G01Y972890D01*
G02X1292340I-4770J0D01*
G01Y986890D01*
G02X1292490Y988090I4772J13D01*
G03X1291290Y989320I-966J258D01*
G02X1290900Y989240I-955J3667D01*
G01X1290720Y989220D01*
X1290390Y989040D01*
X1289400Y987840D01*
G03X1289170Y987150I768J-639D01*
G02X1289180Y986890I-4758J-313D01*
G01Y972890D01*
G02X1287960Y969700I-4781J0D01*
G03X1287710Y969120I747J-666D01*
G01X1287660Y968500D01*
G03X1287810Y967890I996J-78D01*
G02X1281280Y967720I-3215J-2009D01*
G03X1281400Y968340I-869J490D01*
G01X1281320Y968950D01*
G03X1281030Y969520I-989J-144D01*
G02X1279640Y972890I3390J3370D01*
G01Y986890D01*
G02X1279700Y987660I4771J16D01*
G03X1278420Y988780I-985J165D01*
G02X1277770Y988640I-1120J3621D01*
G03X1277140Y988300I129J-993D01*
G01X1276720Y987810D01*
G03X1276470Y987110I750J-662D01*
G02X1276480Y986890I-4755J-326D01*
G01Y972890D01*
G02X1266940I-4770J0D01*
G01Y986900D01*
G03X1266710Y987540I-1000J2D01*
G01X1265780Y988660D01*
X1265470Y988840D01*
X1265310Y988870D01*
G02X1264960Y988960I768J3710D01*
G03X1264450Y988970I-274J-961D01*
G03X1263670Y988000I220J-975D01*
G03X1263690Y987810I1001J9D01*
G02X1263780Y986890I-4680J-922D01*
G01Y972890D01*
G02X1262470Y969610I-4761J0D01*
G03X1262200Y969030I726J-691D01*
G01X1262140Y968410D01*
G03X1262270Y967800I993J-107D01*
G02X1255740Y967810I-3268J-1920D01*
G03X1255870Y968420I-863J503D01*
G01X1255810Y969040D01*
G03X1255540Y969620I-995J-111D01*
G02X1254240Y972890I3463J3270D01*
G01Y987010D01*
Y987030D01*
X1254250Y987210D01*
X1254130Y987550D01*
X1253040Y988850D01*
X1252710Y989030D01*
X1252540Y989050D01*
G02X1252180Y989120I543J3753D01*
G03X1250940Y988070I-243J-970D01*
G03X1250960Y987930I997J71D01*
G02X1251080Y986890I-4647J-1063D01*
G01Y972890D01*
G02X1241540I-4770J0D01*
G01Y986890D01*
G02X1247040Y991600I4767J0D01*
G01X1247060D01*
G03X1247800Y991780I151J989D01*
G01X1249110Y992760D01*
X1249320Y993110D01*
X1249340Y993310D01*
G02X1249360Y993390I3669J-875D01*
G03X1248010Y994470I-989J147D01*
G02X1241540Y998930I-1698J4460D01*
G01Y1012930D01*
G02X1251080I4770J0D01*
G01Y998930D01*
G02X1251070Y998690I-4767J78D01*
G03X1251350Y997950I998J-45D01*
G01X1252350Y996900D01*
G03X1253080Y996590I724J691D01*
G02X1253230I75J-3790D01*
G01X1253430Y996580D01*
X1253820Y996730D01*
X1254260Y997170D01*
X1254410Y997660D01*
X1254350Y997910D01*
G02X1254240Y998930I4674J1020D01*
G01Y1012930D01*
G02X1263780I4770J0D01*
G01Y998920D01*
G02X1263550Y997460I-4771J3D01*
G03X1264810Y996200I949J-311D01*
G02X1265330Y996330I1177J-3603D01*
G01X1265510Y996360D01*
X1265830Y996560D01*
X1266880Y997940D01*
X1266980Y998300D01*
X1266960Y998480D01*
G02X1266940Y998930I4751J437D01*
G01Y1012930D01*
G02X1276480I4770J0D01*
G01Y998930D01*
G02X1276440Y998330I-4769J17D01*
G01X1276420Y998140D01*
X1276510Y997780D01*
X1277530Y996360D01*
X1277860Y996150D01*
X1278040Y996120D01*
G02X1278660Y995940I-743J-3718D01*
G03X1279950Y997230I359J931D01*
G02X1279640Y998910I4461J1692D01*
G37*
G36*
G01X1434800Y939220D02*
X1435800D01*
G02X1435300Y919180I-507J-10014D01*
G02X1434800Y939220I7J10026D01*
G37*
G36*
G01X1411800Y980930D02*
X1397800D01*
G02X1394610Y982150I0J4781D01*
G03X1394020Y982400I-665J-748D01*
G01X1393410Y982440D01*
G03X1392800Y982290I-79J-995D01*
G02X1392620Y988810I-2020J3207D01*
G03X1393240Y988700I476J880D01*
G01X1393850Y988780D01*
G03X1394420Y989070I-145J989D01*
G02X1397800Y990470I3380J-3380D01*
G01X1411800D01*
G02Y980930I0J-4770D01*
G37*
G36*
G01X1133050Y1044430D02*
X1119040D01*
G02Y1053970I0J4770D01*
G01X1133040D01*
G02X1137200Y1051530I0J-4766D01*
G03X1137710Y1051080I878J481D01*
G01X1138300Y1050850D01*
G03X1138950Y1050830I354J936D01*
G02X1137290Y1044610I1102J-3626D01*
G03X1136560Y1044930I-733J-680D01*
G01X1135180D01*
X1134980Y1044840D01*
G02X1133050Y1044430I-1935J4361D01*
G37*
G36*
G01X1133040Y1057130D02*
X1119040D01*
G02Y1066670I0J4770D01*
G01X1133040D01*
G02X1136120Y1065540I0J-4763D01*
G03X1136720Y1065300I652J760D01*
G01X1137940Y1065250D01*
G03X1138550Y1065420I51J997D01*
G02X1138890Y1058970I2150J-3121D01*
G01X1138880D01*
G03X1138260Y1059080I-476J-878D01*
G01X1137040Y1058890D01*
G03X1136490Y1058610I157J-988D01*
G01X1136480Y1058600D01*
G02X1133040Y1057130I-3440J3290D01*
G37*
G36*
G01X1437840D02*
X1423840D01*
G02Y1066670I0J4770D01*
G01X1437840D01*
G02X1441200Y1065280I-6J-4771D01*
G03X1441850Y1064990I707J712D01*
G01X1442480Y1064950D01*
G03X1443140Y1065150I57J1000D01*
G02X1443310Y1058950I2261J-3040D01*
G03X1442640Y1059100I-540J-842D01*
G01X1442000Y1059030D01*
G03X1441380Y1058700I130J-992D01*
G02X1437840Y1057130I-3540J3206D01*
G37*
G36*
G01X1292570Y1067390D02*
G03X1295090Y1067060I1461J1366D01*
G02X1294330Y1061260I2010J-3213D01*
G03X1291810Y1061590I-1461J-1366D01*
G02X1292570Y1067390I-2010J3213D01*
G37*
G36*
G01X1307140Y1083780D02*
X1306550Y1083630D01*
G03X1306020Y1083290I248J-970D01*
G02X1299340Y1086170I-2920J2413D01*
G03X1299210Y1086800I-993J124D01*
G01X1298580Y1087860D01*
G03X1298100Y1088280I-864J-503D01*
G02X1303260Y1091330I1400J3521D01*
G03X1303390Y1090700I993J-124D01*
G01X1304020Y1089640D01*
G03X1304500Y1089220I864J503D01*
G02X1304520Y1089210I-1677J-3379D01*
G03X1305130Y1089170I367J932D01*
G01X1306070Y1089410D01*
G02X1306120Y1089480I3107J-2166D01*
G01X1306130Y1089490D01*
G03X1306310Y1090090I-820J573D01*
G01X1306280Y1091310D01*
G03X1306050Y1091910I-997J-38D01*
G01Y1091920D01*
G02X1311760Y1096890I2951J2375D01*
G03X1312490Y1096570I733J680D01*
G01X1312580D01*
X1312690Y1096680D01*
G02X1313390Y1096970I704J-710D01*
G01X1325330D01*
G02X1326030Y1096680I-4J-1000D01*
G01X1344180Y1078530D01*
X1344570Y1078380D01*
X1344770Y1078390D01*
G02X1347550Y1077310I128J-3788D01*
G03X1348250Y1077020I704J708D01*
G01X1349650D01*
G03X1350350Y1077310I-3J998D01*
G02X1352870Y1070810I2649J-2711D01*
G01X1352670Y1070820D01*
X1352280Y1070670D01*
X1349130Y1067520D01*
G02X1348430Y1067230I-704J710D01*
G01X1341970D01*
G02X1341270Y1067520I4J1000D01*
G01X1337330Y1071460D01*
Y1071470D01*
X1321550Y1087240D01*
G03X1320850Y1087530I-704J-710D01*
G01X1317720D01*
G03X1317020Y1087240I4J-1000D01*
G01X1315050Y1085270D01*
G02X1314350Y1084980I-704J710D01*
G01X1312680D01*
G03X1311940Y1084660I-7J-1000D01*
G02X1307760Y1083730I-2769J2588D01*
G03X1307140Y1083780I-386J-923D01*
G37*
G36*
G01X1133040Y1069830D02*
X1119040D01*
G02Y1079370I0J4770D01*
G01X1133040D01*
G02X1136460Y1077920I0J-4758D01*
G03X1137030Y1077630I714J699D01*
G01X1137640Y1077530D01*
G03X1138260Y1077640I144J991D01*
G02X1137990Y1071130I1793J-3335D01*
G03X1137370Y1071290I-547J-840D01*
G01X1136760Y1071240D01*
G03X1136170Y1071000I62J-997D01*
G02X1133040Y1069830I-3130J3602D01*
G37*
G36*
G01X1273610Y1213960D02*
G03X1274770Y1213840I664J750D01*
G03X1274920Y1213950I-515J859D01*
G02X1274900Y1208220I2470J-2874D01*
G03X1273740Y1208340I-664J-750D01*
G03X1273590Y1208230I515J-859D01*
G02X1273610Y1213960I-2470J2874D01*
G37*
G36*
G01X1434800Y1312720D02*
X1435800D01*
G02X1435300Y1292680I-507J-10014D01*
G02X1434800Y1312720I7J10026D01*
G37*
G36*
G01X1091800Y1315720D02*
X1092800D01*
G02X1092300Y1295680I-507J-10014D01*
G02X1091800Y1315720I7J10026D01*
G37*
G36*
G01X1112960Y996370D02*
X1114140Y997550D01*
X1114290Y997940D01*
X1114280Y998150D01*
G02X1119040Y1003170I4760J253D01*
G01X1133040D01*
G02Y993630I0J-4770D01*
G01X1119040D01*
G02X1117620Y993850I12J4768D01*
G03X1116610Y993600I-300J-954D01*
G01X1116510Y993500D01*
G03X1116220Y992730I708J-706D01*
G02Y992340I-3921J-195D01*
G03X1116560Y991550I1002J-37D01*
G01X1117570Y990660D01*
G03X1118360Y990420I660J751D01*
G01X1118370D01*
G02X1119040Y990470I689J-4719D01*
G01X1133040D01*
G02Y980930I0J-4770D01*
G01X1132620D01*
G03X1131620Y979930I0J-1000D01*
G01Y979800D01*
X1131660Y979670D01*
G02X1124220Y978970I-3660J-987D01*
G01X1124240Y979190D01*
X1124090Y979600D01*
X1124060Y979630D01*
G02X1123770Y980330I710J704D01*
G01Y980350D01*
X1123190Y980930D01*
X1119040D01*
G02X1114640Y987540I0J4769D01*
G03X1113900Y988910I-924J386D01*
G02X1113120Y988650I-1627J3581D01*
G03X1112490Y988230I198J-980D01*
G01X1111740Y987090D01*
X1111670Y986720D01*
X1111700Y986530D01*
G02X1107000Y980930I-4700J-828D01*
G01X1093000D01*
G02Y990470I0J4770D01*
G01X1107000D01*
G02X1107520Y990440I-14J-4769D01*
G03X1107630Y990430I146J991D01*
G03X1108600Y991190I-2J1002D01*
G02X1108380Y992360I3703J1302D01*
G03X1108060Y993050I-1001J-45D01*
G01X1107730Y993360D01*
G03X1107030Y993630I-684J-730D01*
G01X1093000D01*
G02X1089660Y994990I0J4781D01*
G03X1089090Y995260I-691J-722D01*
G01X1088480Y995340D01*
G03X1087860Y995210I-115J-994D01*
G02X1087960Y1001730I-1881J3290D01*
G03X1088570Y1001590I518J858D01*
G01X1089180Y1001650D01*
G03X1089770Y1001910I-86J995D01*
G02X1093000Y1003170I3230J-3510D01*
G01X1107000D01*
G02X1111720Y997680I0J-4774D01*
G03X1112000Y996820I987J-154D01*
G01X1112120Y996700D01*
G03X1112710Y996410I710J700D01*
G02X1112960Y996370I-496J-3898D01*
G37*
G54D20*
X1417820Y1115880D03*
Y969820D03*
X1338390Y992910D03*
X1192330D03*
X1113020Y1115880D03*
Y969820D03*
G54D21*
X1089700Y1188400D03*
Y1163000D03*
G54D23*
X1430840Y985700D03*
G54D22*
X1208210Y979890D03*
Y1005930D03*
X1220910Y979890D03*
X1233610D03*
X1220910Y1005930D03*
X1233610D03*
X1309810Y979890D03*
X1322510D03*
X1309810Y1005930D03*
X1322510D03*
G54D19*
X1395500Y1203100D03*
X1394600Y1192800D03*
X1373400Y1195500D03*
X1383000Y1153200D03*
X1334200Y1164500D03*
X1331500Y1110300D03*
X1279700Y1232900D03*
X1293270Y1231910D03*
X1286500Y1092200D03*
X1260300Y1049600D03*
X1269200Y1063500D03*
X1279100Y1066500D03*
X1230900Y1231100D03*
X1226400Y1117900D03*
X1252800Y1093000D03*
X1250580Y1043980D03*
X1221500Y1063400D03*
X1231200Y1063600D03*
X1234700Y914400D03*
X1203900Y1184900D03*
X1177500Y1175300D03*
X1208320Y1134500D03*
X1179600Y1142500D03*
X1141500Y1160100D03*
X1153700Y1008200D03*
X1147600Y970900D03*
%LPD*%
G75*
G36*
G01X1373300Y1045800D02*
G02X1372300Y1046800I0J1000D01*
G01Y1064500D01*
G02X1373300Y1065500I1000J0D01*
G01X1386600D01*
G02X1387600Y1064500I0J-1000D01*
G01Y1046800D01*
G02X1386600Y1045800I-1000J0D01*
G01X1373300D01*
G37*
G54D10*
X1071870Y905560D03*
X1068570Y917560D03*
Y927560D03*
Y937720D03*
X1068550Y957690D03*
Y977850D03*
Y967690D03*
X1068570Y947720D03*
X1068560Y997880D03*
X1067550Y1028150D03*
Y1017990D03*
Y1007990D03*
X1068550Y987850D03*
X1067550Y1038150D03*
X1067650Y1048190D03*
Y1068350D03*
Y1058190D03*
Y1088590D03*
Y1108750D03*
Y1098590D03*
Y1118750D03*
Y1078350D03*
X1067660Y1128780D03*
X1069320Y1140080D03*
Y1150080D03*
Y1160240D03*
X1069330Y1180270D03*
X1069170Y1190050D03*
Y1200050D03*
X1069320Y1170240D03*
X1069150Y1230310D03*
Y1220150D03*
Y1240310D03*
Y1250340D03*
Y1210150D03*
X1068990Y1270130D03*
Y1290280D03*
Y1280280D03*
Y1260130D03*
X1068960Y1320470D03*
Y1310310D03*
X1069000Y1300320D03*
X1083470Y914760D03*
X1105470Y913260D03*
X1117070Y905560D03*
X1096870Y905260D03*
X1084970Y905560D03*
X1083170Y928760D03*
X1108770Y928160D03*
X1098070Y939460D03*
X1088570Y954360D03*
X1109070Y953160D03*
X1084670Y969560D03*
X1100000Y978680D03*
X1113300Y1016740D03*
X1112300Y992500D03*
X1085980Y1024000D03*
Y1011000D03*
Y998500D03*
X1087400Y1067600D03*
X1087700Y1055500D03*
X1112800Y1030820D03*
X1085980Y1036500D03*
X1100000Y1107300D03*
X1087300Y1080800D03*
X1112300Y1144100D03*
X1079570Y1135570D03*
X1116300Y1189000D03*
X1100970Y1224270D03*
X1088470Y1236170D03*
X1081370Y1217070D03*
X1102000Y1213100D03*
X1112600Y1279500D03*
X1111800Y1297500D03*
X1100370Y1267670D03*
X1092670Y1285570D03*
X1116300Y1257500D03*
X1090870Y1255770D03*
X1115110Y1323400D03*
X1095110D03*
X1105110D03*
X1086410D03*
X1076910D03*
X1125600Y932100D03*
X1127100Y956400D03*
X1138500Y967220D03*
X1147300Y981580D03*
X1128000Y978680D03*
X1147600Y970900D03*
X1153700Y1008200D03*
X1140050Y1074300D03*
X1140700Y1062300D03*
X1140050Y1047200D03*
Y1036700D03*
X1147600Y1106700D03*
X1145700Y1082400D03*
X1134870Y1111870D03*
X1155070Y1112770D03*
X1153670Y1076170D03*
X1141500Y1160100D03*
X1147000Y1151610D03*
X1158100Y1142600D03*
X1138800Y1120900D03*
X1146000Y1126200D03*
X1138680Y1131500D03*
X1138800Y1138900D03*
X1146100Y1142200D03*
X1130100Y1206700D03*
X1138470Y1177270D03*
X1137800Y1189300D03*
X1121300Y1178400D03*
X1133070Y1227270D03*
X1137730Y1245100D03*
X1151500Y1231330D03*
X1119970Y1243870D03*
X1121770Y1217070D03*
X1153600Y1217900D03*
X1138830Y1213100D03*
X1145200Y1219520D03*
X1130300Y1277800D03*
X1151500Y1287330D03*
Y1258870D03*
X1124500Y1309100D03*
X1156240Y1323170D03*
X1146240D03*
X1136240D03*
X1125110Y1323400D03*
X1151500Y1314870D03*
X1137730Y1301100D03*
X1195420Y974500D03*
X1194900Y1010400D03*
X1164800Y1019220D03*
X1179200Y1017000D03*
X1175700Y1009000D03*
X1179000Y1061200D03*
X1166170Y1065970D03*
X1198380Y1114900D03*
X1206600Y1093000D03*
X1191400Y1098600D03*
X1196600Y1088000D03*
X1177500Y1160800D03*
X1167600Y1142400D03*
X1198200Y1124500D03*
X1190400Y1160400D03*
X1179600Y1142500D03*
X1177600Y1152400D03*
X1208320Y1134500D03*
X1177500Y1175300D03*
X1189600Y1200100D03*
X1183570Y1189870D03*
X1196880Y1205500D03*
X1198400Y1190100D03*
X1198000Y1198000D03*
X1184000Y1165700D03*
X1203900Y1184900D03*
X1204600Y1222300D03*
X1193730Y1245100D03*
X1207400Y1231330D03*
X1188100Y1228800D03*
X1165270Y1245100D03*
X1169200Y1227600D03*
X1203700Y1212570D03*
X1179900Y1219720D03*
X1186470Y1213300D03*
X1207500Y1287330D03*
Y1258870D03*
X1206140Y1323070D03*
X1196140D03*
X1186240Y1323170D03*
X1176240D03*
X1166240D03*
X1193730Y1301100D03*
X1207500Y1314870D03*
X1165270Y1301100D03*
X1240020Y904700D03*
X1225010Y904710D03*
X1217650Y931950D03*
X1243330Y930500D03*
X1252200Y938920D03*
X1239800Y938680D03*
X1234700Y914400D03*
X1233610Y966110D03*
X1214750Y956450D03*
X1253100Y992800D03*
X1227940Y1018600D03*
X1231200Y1063600D03*
X1221500Y1063400D03*
X1250580Y1043980D03*
X1252800Y1093000D03*
X1226400Y1117900D03*
X1240380Y1156790D03*
X1250380D03*
X1250460Y1146750D03*
X1240460D03*
X1250430Y1136790D03*
X1240430D03*
X1250440Y1186750D03*
X1240440D03*
X1240450Y1176830D03*
X1250450D03*
X1250460Y1166900D03*
X1240460D03*
X1240870Y1226270D03*
X1241470Y1217170D03*
X1243200Y1245270D03*
X1236680Y1238800D03*
X1241820Y1232700D03*
X1221500Y1229500D03*
X1218480Y1223300D03*
X1218380Y1214800D03*
X1221270Y1245100D03*
X1230900Y1231100D03*
X1244500Y1272500D03*
X1235800Y1278300D03*
X1244000Y1302700D03*
X1234300Y1306800D03*
X1237300Y1318400D03*
X1221270Y1301000D03*
X1292000Y914000D03*
X1275500Y905000D03*
X1285070Y904690D03*
X1255090Y904740D03*
X1259000Y965880D03*
X1297110Y964990D03*
X1284600Y965880D03*
X1297110Y1020290D03*
X1290400Y993000D03*
X1277300Y992400D03*
X1266000Y992600D03*
X1289800Y1064800D03*
X1297100Y1063850D03*
X1279100Y1066500D03*
X1269200Y1063500D03*
X1260300Y1049600D03*
X1277700Y1093290D03*
X1286500Y1092200D03*
X1260380Y1156790D03*
X1270380D03*
X1290400Y1156770D03*
X1280400D03*
X1280480Y1146730D03*
X1290480D03*
X1270460Y1146750D03*
X1260460D03*
X1280450Y1136770D03*
X1290450D03*
X1270430Y1136790D03*
X1260430D03*
X1280460Y1186730D03*
X1290460D03*
X1270440Y1186750D03*
X1260440D03*
X1260450Y1176830D03*
X1270450D03*
X1290470Y1176810D03*
X1280470D03*
Y1166880D03*
X1290470D03*
X1270460Y1166900D03*
X1260460D03*
X1280470Y1252070D03*
X1268000Y1245270D03*
X1274720Y1238920D03*
X1272100Y1233220D03*
X1286500Y1232500D03*
X1293270Y1231910D03*
X1279700Y1232900D03*
X1277390Y1211080D03*
X1271120Y1211100D03*
X1287070Y1271070D03*
X1290970Y1285070D03*
X1263700Y1287770D03*
X1263600Y1274830D03*
X1270220Y1281300D03*
X1282300Y1310800D03*
X1267060Y1322950D03*
X1285760D03*
X1275760D03*
X1295760D03*
X1287370Y1298970D03*
X1263700Y1300330D03*
Y1313270D03*
X1270220Y1306800D03*
X1330010Y904760D03*
X1315160Y904720D03*
X1300080Y904680D03*
X1337900Y1007700D03*
X1313370Y1026470D03*
X1333570Y1056770D03*
X1328270Y1040470D03*
X1307900Y1049800D03*
X1308400Y1057900D03*
X1314000Y1063900D03*
X1319800Y1057400D03*
X1325900Y1064000D03*
X1304370Y1116070D03*
X1311370Y1114070D03*
X1309000Y1094300D03*
X1309180Y1087250D03*
X1299500Y1091800D03*
X1303100Y1085700D03*
X1331500Y1110300D03*
X1334010Y1120200D03*
X1332420Y1174200D03*
X1332220Y1194400D03*
X1334200Y1164500D03*
X1312930Y1244200D03*
X1319400Y1237780D03*
X1326180Y1230800D03*
X1332700Y1224330D03*
X1299870Y1245770D03*
X1299800Y1233610D03*
X1312700Y1221100D03*
X1314900Y1230300D03*
X1307100Y1229790D03*
X1341000Y1273400D03*
X1328300D03*
X1313900Y1295500D03*
X1330800Y1301900D03*
X1307400Y1313600D03*
X1305760Y1322950D03*
X1316890Y1322720D03*
X1326890D03*
X1336890D03*
X1299970Y1307270D03*
X1375060Y904740D03*
X1359990Y904710D03*
X1345170D03*
X1387600Y972700D03*
X1351980Y977220D03*
X1360000Y977200D03*
Y969200D03*
X1351980Y969220D03*
X1356300Y1021000D03*
X1348800Y1013700D03*
X1359300Y1009270D03*
X1351580Y1000500D03*
X1360100Y991730D03*
X1344900Y1074600D03*
X1353000D03*
X1345200Y1047100D03*
Y1040200D03*
X1345100Y1033000D03*
X1351800Y1033100D03*
Y1040000D03*
Y1047100D03*
X1351700Y1054800D03*
X1345600D03*
X1383800Y1049200D03*
X1383700Y1061900D03*
X1375800Y1049300D03*
Y1061900D03*
X1375600Y1115000D03*
X1368400Y1114900D03*
X1375400Y1107300D03*
X1368600Y1107200D03*
X1375300Y1100400D03*
X1368200D03*
X1375300Y1093100D03*
X1368100Y1093200D03*
X1368500Y1086300D03*
X1375100D03*
X1360170Y1161970D03*
X1367570Y1148970D03*
X1351170Y1145970D03*
X1360070Y1136770D03*
X1387400Y1139420D03*
X1383000Y1153200D03*
X1378900Y1176400D03*
X1379300Y1184200D03*
X1383600Y1169500D03*
X1373400Y1195500D03*
X1351500Y1240700D03*
X1349500Y1250900D03*
X1384100Y1209700D03*
X1361600Y1270900D03*
X1349910Y1259200D03*
X1384000Y1302600D03*
X1356890Y1322720D03*
X1386570Y1322760D03*
X1376570D03*
X1366570D03*
X1346890Y1322720D03*
X1349600Y1299200D03*
X1370300Y1300800D03*
X1416000Y917700D03*
X1420110Y904710D03*
X1405040Y904680D03*
X1390070Y904740D03*
X1412870Y937170D03*
X1420770Y957970D03*
X1430840Y977840D03*
X1390780Y985500D03*
X1417800Y1030400D03*
X1418000Y1004900D03*
X1390780Y998200D03*
X1417600Y1017500D03*
X1417800Y1042800D03*
X1389000Y1037000D03*
X1425710Y1107490D03*
X1390800Y1076500D03*
X1417800Y1080600D03*
X1390230Y1100000D03*
X1388600Y1090400D03*
X1396170Y1130900D03*
X1401470Y1209070D03*
X1421700Y1206200D03*
X1412470Y1190670D03*
X1421970Y1175770D03*
X1394600Y1192800D03*
X1395500Y1203100D03*
X1396600Y1232900D03*
X1422900Y1235300D03*
X1408870Y1242370D03*
X1405870Y1222170D03*
X1394000Y1243000D03*
X1389870Y1222170D03*
X1390300Y1215100D03*
X1405400Y1296200D03*
X1417200Y1262200D03*
X1416570Y1287570D03*
X1397570Y1285870D03*
X1403870Y1267070D03*
X1388400Y1313200D03*
X1406000Y1308700D03*
X1396570Y1322760D03*
X1406570D03*
X1417360Y1322790D03*
X1427360D03*
X1392500Y1299000D03*
X1459570Y910670D03*
X1450120Y904710D03*
X1435120D03*
X1460470Y938670D03*
Y930370D03*
X1433500Y954700D03*
X1460480Y968860D03*
X1460320Y978640D03*
X1446370Y973770D03*
X1460470Y958830D03*
Y948830D03*
X1447970Y951770D03*
X1460470Y1018030D03*
Y1008030D03*
X1460480Y1028060D03*
X1460470Y997870D03*
Y987870D03*
X1444850Y1010900D03*
Y998200D03*
X1461970Y1069030D03*
Y1058870D03*
Y1048870D03*
X1460320Y1037840D03*
X1445400Y1062100D03*
Y1049400D03*
X1461820Y1098840D03*
X1459020Y1119230D03*
Y1109230D03*
X1461980Y1089060D03*
X1461970Y1079030D03*
X1458870Y1159210D03*
X1459030Y1149420D03*
X1443370Y1150170D03*
X1459030Y1129390D03*
Y1139390D03*
Y1199530D03*
Y1189530D03*
Y1179370D03*
X1438670Y1188270D03*
X1440370Y1165070D03*
X1459030Y1169370D03*
X1440100Y1245300D03*
X1458860Y1239450D03*
Y1249450D03*
X1458870Y1219350D03*
Y1229350D03*
X1459040Y1209560D03*
X1442770Y1213870D03*
X1442170Y1276270D03*
X1458860Y1279640D03*
X1458700Y1289420D03*
X1458860Y1269600D03*
Y1259600D03*
X1440400Y1256000D03*
X1458700Y1309580D03*
X1447160Y1322790D03*
X1458360Y1320490D03*
X1437360Y1322790D03*
X1458700Y1299420D03*
G54D11*
X1113020Y969820D03*
Y1115880D03*
X1192330Y992910D03*
X1338390D03*
X1417820Y969820D03*
Y1115880D03*
G54D12*
X1126040Y985700D03*
X1100000D03*
X1126040Y998400D03*
Y1011100D03*
Y1023800D03*
X1100000Y998400D03*
Y1011100D03*
Y1023800D03*
X1126040Y1036500D03*
Y1049200D03*
Y1061900D03*
Y1074600D03*
X1100000Y1036500D03*
Y1049200D03*
Y1061900D03*
Y1074600D03*
X1126040Y1087300D03*
Y1100000D03*
X1100000Y1087300D03*
Y1100000D03*
X1430840Y985700D03*
X1404800D03*
X1430840Y998400D03*
Y1011100D03*
Y1023800D03*
X1404800Y998400D03*
Y1011100D03*
Y1023800D03*
X1430840Y1036500D03*
Y1049200D03*
Y1061900D03*
Y1074600D03*
X1404800Y1036500D03*
Y1049200D03*
Y1061900D03*
Y1074600D03*
X1430840Y1087300D03*
Y1100000D03*
X1404800Y1087300D03*
Y1100000D03*
G54D13*
X1089700Y1163000D03*
Y1188400D03*
G54D14*
X1092300Y1305700D03*
X1435300Y929200D03*
Y1302700D03*
G54D15*
X1208210Y979890D03*
Y1005930D03*
X1220910Y979890D03*
X1233610D03*
X1246310D03*
X1220910Y1005930D03*
X1233610D03*
X1246310D03*
X1259010Y979890D03*
X1271710D03*
X1284410D03*
X1297110D03*
X1259010Y1005930D03*
X1271710D03*
X1284410D03*
X1297110D03*
X1309810Y979890D03*
X1322510D03*
X1309810Y1005930D03*
X1322510D03*
G54D16*
G01X1100000Y985700D02*
Y978680D01*
G01Y1100000D02*
Y1107300D01*
G01X1233610Y979890D02*
Y966110D01*
G01Y979890D02*
Y1005930D01*
G01D02*
Y1012930D01*
X1227940Y1018600D01*
G01X1297110Y979890D02*
Y1005930D01*
G01Y979890D02*
Y964990D01*
G01Y1005930D02*
Y1020290D01*
G01X1430840Y1100000D02*
Y1102360D01*
X1425710Y1107490D01*
G01X1430840Y985700D02*
Y977840D01*
G54D17*
G01X1404800Y1061900D02*
X1383700D01*
G01X1404800Y1049200D02*
X1383800D01*
G01X1383700Y1061900D02*
X1375800D01*
G01X1383800Y1049200D02*
X1383220D01*
X1383120Y1049300D01*
X1375800D01*
G54D18*
G01X1100000Y985700D02*
Y991470D01*
G01X1087230Y985700D02*
X1100000D01*
G01D02*
X1112770D01*
G01X1113300Y1016740D02*
X1118940Y1011100D01*
X1126040D01*
G01Y1023800D02*
X1119500D01*
X1118000Y1025300D01*
Y1025620D01*
X1112800Y1030820D01*
G01X1126040Y998400D02*
X1118200D01*
X1112300Y992500D01*
G01X1085980Y1024000D02*
X1087700D01*
X1087900Y1023800D01*
X1100000D01*
G01X1085980Y1011000D02*
X1087630D01*
X1087730Y1011100D01*
X1100000D01*
G01X1085980Y998500D02*
X1087630D01*
X1087730Y998400D01*
X1100000D01*
G01X1087400Y1067600D02*
X1091600Y1063400D01*
X1098500D01*
X1100000Y1061900D01*
G01X1087700Y1055500D02*
X1094000Y1049200D01*
X1100000D01*
G01X1085980Y1036500D02*
X1100000D01*
G01Y1094230D02*
Y1100000D01*
G01X1087230D02*
X1100000D01*
G01D02*
X1112770D01*
G01X1206600Y1093000D02*
X1201530D01*
X1201230Y1093300D01*
X1113000D01*
X1107000Y1087300D01*
X1100000D01*
G01Y1074600D02*
X1098200Y1076400D01*
X1091700D01*
X1087300Y1080800D01*
G01X1128000Y978680D02*
Y978900D01*
X1126040Y980860D01*
Y985700D01*
G01X1140700Y1062300D02*
X1126440D01*
X1126040Y1061900D01*
G01Y1049200D02*
X1134200D01*
X1136200Y1047200D01*
X1140050D01*
G01Y1036700D02*
X1138000D01*
X1137900Y1036800D01*
X1126340D01*
X1126040Y1036500D01*
G01X1191400Y1098600D02*
X1139700D01*
X1138300Y1100000D01*
X1126040D01*
G01X1196600Y1088000D02*
X1139000D01*
X1138300Y1087300D01*
X1126040D01*
G01X1140050Y1074300D02*
X1137700D01*
X1137400Y1074600D01*
X1126040D01*
G01X1227840Y979890D02*
X1233610D01*
G01D02*
X1239380D01*
G01X1227840Y1005930D02*
X1233610D01*
G01D02*
X1239380D01*
G01X1259000Y965880D02*
Y972980D01*
X1259010Y972990D01*
Y979890D01*
G01X1291340D02*
X1297110D01*
G01X1284600Y965880D02*
Y966000D01*
X1284410Y966190D01*
Y979890D01*
G01X1266000Y992600D02*
X1271710Y986890D01*
Y979890D01*
G01X1253100Y992800D02*
X1259010Y998710D01*
Y1005930D01*
G01X1291340D02*
X1297110D01*
G01X1284410D02*
Y998990D01*
X1290400Y993000D01*
G01X1277300Y992400D02*
X1271710Y997990D01*
Y1005930D01*
G01X1297110Y979890D02*
X1302880D01*
G01X1297110Y1005930D02*
X1302880D01*
G01X1309000Y1094300D02*
X1313520D01*
X1313920Y1094700D01*
X1324800D01*
X1344900Y1074600D01*
G01X1309180Y1087250D02*
X1313820D01*
X1316370Y1089800D01*
X1322200D01*
X1339600Y1072410D01*
Y1072400D01*
X1342500Y1069500D01*
X1347900D01*
X1353000Y1074600D01*
G01X1418070Y985700D02*
X1430840D01*
G01X1417800Y1030400D02*
Y1026400D01*
X1420400Y1023800D01*
X1430840D01*
G01X1418000Y1004900D02*
X1413300Y1009600D01*
X1406300D01*
X1404800Y1011100D01*
G01X1390780Y998200D02*
X1392700D01*
X1392900Y998400D01*
X1404800D01*
G01X1390780Y985500D02*
X1393500D01*
X1393700Y985700D01*
X1404800D01*
G01X1404600Y1024000D02*
X1404800Y1023800D01*
G01D02*
X1411300D01*
X1417600Y1017500D01*
G01X1417800Y1042800D02*
X1424100Y1036500D01*
X1430840D01*
G01X1389000Y1037000D02*
X1404300D01*
X1404800Y1036500D01*
G01X1418070Y1100000D02*
X1430840D01*
G01X1390800Y1076500D02*
X1396000D01*
X1397900Y1074600D01*
X1404800D01*
G01X1417800Y1080600D02*
X1423400Y1075000D01*
X1430440D01*
X1430840Y1074600D01*
G01X1390230Y1100000D02*
X1404800D01*
G01X1388600Y1090400D02*
X1392180Y1093980D01*
X1417150D01*
X1423840Y1087300D01*
X1430840D01*
G01Y985700D02*
Y991470D01*
G01Y985700D02*
X1443610D01*
G01X1444850Y1010900D02*
X1443200D01*
X1443000Y1011100D01*
X1430840D01*
G01X1444850Y998200D02*
X1444400D01*
X1444200Y998400D01*
X1430840D01*
G01Y1061900D02*
X1443900D01*
X1444100Y1062100D01*
X1445400D01*
G01Y1049400D02*
X1443000D01*
X1442900Y1049500D01*
X1431140D01*
X1430840Y1049200D01*
G01Y1094230D02*
Y1100000D01*
G01D02*
X1443610D01*
M02*
