G04 ================== begin FILE IDENTIFICATION RECORD ==================*
G04 Layout Name:  C:/DesigSync_WORKDIR/evm/em/CC2538_EM/Cadence/CC2538EM.brd*
G04 Film Name:    paste_bottom*
G04 File Format:  Gerber RS274X*
G04 File Origin:  Cadence Allegro 16.5-S010*
G04 Origin Date:  Mon Aug 27 15:01:23 2012*
G04 *
G04 Layer:  PIN/FILMMASKBOTTOM*
G04 Layer:  BOARD GEOMETRY/OUTLINE*
G04 *
G04 Offset:    (0.000 0.000)*
G04 Mirror:    No*
G04 Mode:      Positive*
G04 Rotation:  0*
G04 FullContactRelief:  No*
G04 UndefLineWidth:     0.100*
G04 ================== end FILE IDENTIFICATION RECORD ====================*
%FSLAX44Y44*MOMM*%
%IR0*IPPOS*OFA0.00000B0.00000*MIA0B0*SFA1.00000B1.00000*%
%ADD10O,2.05X.65*%
%ADD11O,.65X2.05*%
%ADD12C,.1*%
G75*
%LPD*%
G75*
G54D10*
X1126040Y985700D03*
X1100000D03*
X1126040Y998400D03*
Y1011100D03*
Y1023800D03*
X1100000Y998400D03*
Y1011100D03*
Y1023800D03*
X1126040Y1036500D03*
Y1049200D03*
Y1061900D03*
Y1074600D03*
X1100000Y1036500D03*
Y1049200D03*
Y1061900D03*
Y1074600D03*
X1126040Y1087300D03*
Y1100000D03*
X1100000Y1087300D03*
Y1100000D03*
X1430840Y985700D03*
X1404800D03*
X1430840Y998400D03*
Y1011100D03*
Y1023800D03*
X1404800Y998400D03*
Y1011100D03*
Y1023800D03*
X1430840Y1036500D03*
Y1049200D03*
Y1061900D03*
Y1074600D03*
X1404800Y1036500D03*
Y1049200D03*
Y1061900D03*
Y1074600D03*
X1430840Y1087300D03*
Y1100000D03*
X1404800Y1087300D03*
Y1100000D03*
G54D11*
X1208210Y979890D03*
Y1005930D03*
X1220910Y979890D03*
X1233610D03*
X1246310D03*
X1220910Y1005930D03*
X1233610D03*
X1246310D03*
X1259010Y979890D03*
X1271710D03*
X1284410D03*
X1297110D03*
X1259010Y1005930D03*
X1271710D03*
X1284410D03*
X1297110D03*
X1309810Y979890D03*
X1322510D03*
X1309810Y1005930D03*
X1322510D03*
G54D12*
G01X1063500Y900000D02*
X1127500D01*
Y917500D01*
X1214500D01*
Y900000D01*
X1465000D01*
Y1404600D01*
X1063500D01*
Y900000D01*
M02*
