G04 ================== begin FILE IDENTIFICATION RECORD ==================*
G04 Layout Name:  C:/DesigSync_WORKDIR/evm/em/CC2538_EM/Cadence/CC2538EM.brd*
G04 Film Name:    silk_bottom*
G04 File Format:  Gerber RS274X*
G04 File Origin:  Cadence Allegro 16.5-S010*
G04 Origin Date:  Mon Aug 27 15:01:23 2012*
G04 *
G04 Layer:  REF DES/SILKSCREEN_BOTTOM*
G04 Layer:  PACKAGE GEOMETRY/SILKSCREEN_BOTTOM*
G04 Layer:  MANUFACTURING/AUTOSILK_BOTTOM*
G04 Layer:  BOARD GEOMETRY/OUTLINE*
G04 *
G04 Offset:    (0.000 0.000)*
G04 Mirror:    No*
G04 Mode:      Positive*
G04 Rotation:  0*
G04 FullContactRelief:  No*
G04 UndefLineWidth:     0.100*
G04 ================== end FILE IDENTIFICATION RECORD ====================*
%FSLAX44Y44*MOMM*%
%IR0*IPPOS*OFA0.00000B0.00000*MIA0B0*SFA1.00000B1.00000*%
%ADD10C,.05*%
%ADD11C,.1*%
%ADD12C,.003*%
G75*
%LPD*%
G75*
G36*
G01X1079100Y1363500D02*
Y1370640D01*
X1092740D01*
G03X1074340Y1383690I-17209J-4767D01*
G01Y1390840D01*
G02Y1340900I1204J-24970D01*
G01Y1348050D01*
G03X1093230Y1363510I1189J17818D01*
G01X1079100Y1363500D01*
G37*
G36*
G01D02*
Y1370640D01*
X1092740D01*
G03X1074340Y1383690I-17209J-4767D01*
G01Y1390840D01*
G02Y1340900I1204J-24970D01*
G01Y1348050D01*
G03X1093230Y1363510I1189J17818D01*
G01X1079100Y1363500D01*
G37*
G36*
G01X1117200Y1383690D02*
Y1390840D01*
G02Y1340900I1202J-24970D01*
G01Y1348050D01*
G03Y1383690I1177J17820D01*
G37*
G36*
G01D02*
Y1390840D01*
G02Y1340900I1202J-24970D01*
G01Y1348050D01*
G03Y1383690I1177J17820D01*
G37*
G54D10*
G01X1115900Y1127500D02*
Y1133100D01*
X1114460D01*
X1113980Y1132820D01*
X1113620Y1132170D01*
X1113500Y1131420D01*
X1113620Y1130670D01*
X1113920Y1130110D01*
X1114460Y1129830D01*
X1115900D01*
G01X1110600Y1127500D02*
Y1133100D01*
X1111320Y1131980D01*
G01Y1127500D02*
X1109880D01*
G01X1106640Y1286200D02*
Y1291800D01*
X1104360D01*
G01X1105200Y1289090D02*
X1106640D01*
G01X1102120Y1291800D02*
X1100680D01*
G01X1101400D02*
Y1286200D01*
G01X1102120D02*
X1100680D01*
G01X1098620D02*
Y1291800D01*
X1097420D01*
X1096940Y1291520D01*
X1096580Y1291150D01*
X1096280Y1290590D01*
X1096040Y1289930D01*
X1095980Y1289000D01*
X1096040Y1288070D01*
X1096280Y1287410D01*
X1096580Y1286850D01*
X1096940Y1286480D01*
X1097420Y1286200D01*
X1098620D01*
G01X1094520Y1291800D02*
Y1287790D01*
X1094280Y1286950D01*
X1093800Y1286390D01*
X1093200Y1286200D01*
X1092600Y1286390D01*
X1092120Y1286950D01*
X1091880Y1287790D01*
Y1291800D01*
G01X1088380Y1286200D02*
Y1291800D01*
X1090600Y1287790D01*
X1087600D01*
G01X1354510Y1018330D02*
X1348910D01*
Y1016890D01*
X1349190Y1016410D01*
X1349840Y1016050D01*
X1350590Y1015930D01*
X1351340Y1016050D01*
X1351900Y1016350D01*
X1352180Y1016890D01*
Y1018330D01*
G01X1353390Y1014350D02*
X1354040Y1013990D01*
X1354420Y1013510D01*
X1354510Y1012970D01*
X1354420Y1012490D01*
X1353950Y1012010D01*
X1353390Y1011710D01*
X1352830Y1011650D01*
X1352180Y1011770D01*
X1351710Y1012190D01*
X1351520Y1012610D01*
Y1013150D01*
G01Y1012610D02*
X1351240Y1012250D01*
X1350780Y1011950D01*
X1350220Y1011830D01*
X1349660Y1011950D01*
X1349190Y1012250D01*
X1348910Y1012790D01*
X1349000Y1013330D01*
X1349380Y1013870D01*
G01X1420700Y1127200D02*
Y1132800D01*
X1419260D01*
X1418780Y1132520D01*
X1418420Y1131870D01*
X1418300Y1131120D01*
X1418420Y1130370D01*
X1418720Y1129810D01*
X1419260Y1129530D01*
X1420700D01*
G01X1416540Y1131870D02*
X1416180Y1132430D01*
X1415760Y1132710D01*
X1415280Y1132800D01*
X1414680Y1132610D01*
X1414260Y1132150D01*
X1414140Y1131590D01*
X1414200Y1131030D01*
X1414440Y1130560D01*
X1415640Y1129630D01*
X1416180Y1128970D01*
X1416540Y1128040D01*
X1416660Y1127200D01*
X1414140D01*
G01X1449640Y909700D02*
Y915300D01*
X1447360D01*
G01X1448200Y912590D02*
X1449640D01*
G01X1445120Y915300D02*
X1443680D01*
G01X1444400D02*
Y909700D01*
G01X1445120D02*
X1443680D01*
G01X1441620D02*
Y915300D01*
X1440420D01*
X1439940Y915020D01*
X1439580Y914650D01*
X1439280Y914090D01*
X1439040Y913430D01*
X1438980Y912500D01*
X1439040Y911570D01*
X1439280Y910910D01*
X1439580Y910350D01*
X1439940Y909980D01*
X1440420Y909700D01*
X1441620D01*
G01X1437520Y915300D02*
Y911290D01*
X1437280Y910450D01*
X1436800Y909890D01*
X1436200Y909700D01*
X1435600Y909890D01*
X1435120Y910450D01*
X1434880Y911290D01*
Y915300D01*
G01X1433240Y912030D02*
X1432820Y912690D01*
X1432460Y913060D01*
X1431980Y913250D01*
X1431560Y913060D01*
X1431260Y912690D01*
X1431020Y912130D01*
X1430960Y911470D01*
X1431020Y910910D01*
X1431260Y910350D01*
X1431620Y909890D01*
X1432040Y909700D01*
X1432520Y909890D01*
X1432940Y910450D01*
X1433180Y911290D01*
X1433240Y912220D01*
X1433120Y913430D01*
X1432940Y914090D01*
X1432640Y914740D01*
X1432220Y915210D01*
X1431800Y915300D01*
X1431380Y915110D01*
X1431080Y914650D01*
G01X1449640Y1283200D02*
Y1288800D01*
X1447360D01*
G01X1448200Y1286090D02*
X1449640D01*
G01X1445120Y1288800D02*
X1443680D01*
G01X1444400D02*
Y1283200D01*
G01X1445120D02*
X1443680D01*
G01X1441620D02*
Y1288800D01*
X1440420D01*
X1439940Y1288520D01*
X1439580Y1288150D01*
X1439280Y1287590D01*
X1439040Y1286930D01*
X1438980Y1286000D01*
X1439040Y1285070D01*
X1439280Y1284410D01*
X1439580Y1283850D01*
X1439940Y1283480D01*
X1440420Y1283200D01*
X1441620D01*
G01X1437520Y1288800D02*
Y1284790D01*
X1437280Y1283950D01*
X1436800Y1283390D01*
X1436200Y1283200D01*
X1435600Y1283390D01*
X1435120Y1283950D01*
X1434880Y1284790D01*
Y1288800D01*
G01X1433420Y1284040D02*
X1433060Y1283570D01*
X1432640Y1283290D01*
X1432100Y1283200D01*
X1431560Y1283390D01*
X1431140Y1283760D01*
X1430840Y1284410D01*
X1430780Y1285160D01*
X1430900Y1285910D01*
X1431200Y1286370D01*
X1431620Y1286750D01*
X1432040Y1286840D01*
X1432460Y1286750D01*
X1433000Y1286370D01*
X1432820Y1288800D01*
X1431200D01*
G54D11*
G01X1096000Y980500D02*
Y975500D01*
X1104500D01*
G01X1105500Y1110000D02*
X1094500D01*
X1089500Y1105000D01*
G01X1092300Y1317700D02*
G03Y1293700I0J-12000D01*
G03Y1317700I0J12000D01*
G01X1121500Y975500D02*
X1130000D01*
Y980500D01*
G01X1122000Y1110000D02*
X1130000D01*
Y1105000D01*
G01X1198010Y984430D02*
Y975930D01*
X1203010D01*
G01Y1009930D02*
X1198010D01*
Y1001430D01*
G01X1332510Y983930D02*
Y975930D01*
X1327510D01*
G01X1332510Y1000430D02*
Y1011430D01*
X1327510Y1016430D01*
G01X1435300Y941200D02*
G03Y917200I0J-12000D01*
G03Y941200I0J12000D01*
G01X1441030Y952700D02*
Y959050D01*
X1439270Y953760D01*
X1437510Y959050D01*
Y952700D01*
G01X1432470D02*
Y956930D01*
G01Y956190D02*
X1432740Y956620D01*
X1433150Y956830D01*
X1433620Y956930D01*
X1434100Y956720D01*
X1434500Y956300D01*
X1434770Y955660D01*
X1434910Y954820D01*
X1434770Y953970D01*
X1434500Y953330D01*
X1434100Y952910D01*
X1433620Y952700D01*
X1433150Y952810D01*
X1432740Y953120D01*
X1432470Y953550D01*
G01X1429120Y956930D02*
X1427100Y952700D01*
G01Y956930D02*
X1429120Y952700D01*
G01X1418440Y953970D02*
X1418030Y953230D01*
X1417490Y952810D01*
X1416880Y952700D01*
X1416340Y952810D01*
X1415800Y953330D01*
X1415460Y953970D01*
X1415390Y954600D01*
X1415530Y955350D01*
X1416000Y955870D01*
X1416480Y956090D01*
X1417090D01*
G01X1416480D02*
X1416070Y956400D01*
X1415730Y956930D01*
X1415600Y957570D01*
X1415730Y958200D01*
X1416070Y958730D01*
X1416680Y959050D01*
X1417290Y958940D01*
X1417900Y958520D01*
G01X1411370Y952490D02*
X1411510Y952590D01*
Y952810D01*
X1411370Y952910D01*
X1411230Y952810D01*
Y952590D01*
X1411370Y952490D01*
G01X1407080Y955350D02*
X1406600Y956090D01*
X1406200Y956510D01*
X1405650Y956720D01*
X1405180Y956510D01*
X1404840Y956090D01*
X1404570Y955450D01*
X1404500Y954710D01*
X1404570Y954080D01*
X1404840Y953440D01*
X1405250Y952910D01*
X1405720Y952700D01*
X1406260Y952910D01*
X1406740Y953550D01*
X1407010Y954500D01*
X1407080Y955560D01*
X1406940Y956930D01*
X1406740Y957670D01*
X1406400Y958410D01*
X1405930Y958940D01*
X1405450Y959050D01*
X1404980Y958840D01*
X1404640Y958310D01*
G01X1401900Y959050D02*
X1400210Y952700D01*
X1398520Y959050D01*
G01X1426300Y975500D02*
X1434800D01*
Y980500D01*
G01X1400800D02*
Y975500D01*
X1409300D01*
G01X1426800Y1110000D02*
X1434800D01*
Y1105000D01*
G01X1410300Y1110000D02*
X1399300D01*
X1394300Y1105000D01*
G01X1435300Y1314700D02*
G03Y1290700I0J-12000D01*
G03Y1314700I0J12000D01*
G01X1063500Y900000D02*
X1127500D01*
Y917500D01*
X1214500D01*
Y900000D01*
X1465000D01*
Y1404600D01*
X1063500D01*
Y900000D01*
G54D12*
G01X1119180Y1341830D02*
X1119130Y1342100D01*
G01X1119070D02*
X1119130Y1341830D01*
G01X1119200Y1341930D02*
X1119050D01*
G01Y1342000D02*
X1119200D01*
G01X1119000Y1341900D02*
Y1342100D01*
X1118930D01*
X1118910Y1342090D01*
X1118900Y1342080D01*
X1118890Y1342050D01*
X1118900Y1342020D01*
X1118910Y1342010D01*
X1118930Y1342000D01*
X1119000D01*
G01X1118930D02*
X1118890Y1341900D01*
G01X1118710D02*
X1118820D01*
Y1342100D01*
X1118710D01*
G01X1118750Y1342000D02*
X1118820D01*
G01X1118630Y1341900D02*
Y1342100D01*
X1118540D01*
G01X1118570Y1342000D02*
X1118630D01*
G01X1118460Y1341900D02*
Y1342100D01*
X1118410D01*
X1118390Y1342090D01*
X1118370Y1342080D01*
X1118360Y1342060D01*
X1118350Y1342030D01*
Y1342000D01*
Y1341970D01*
X1118360Y1341940D01*
X1118370Y1341920D01*
X1118390Y1341910D01*
X1118410Y1341900D01*
X1118460D01*
G01X1118170D02*
X1118280D01*
Y1342100D01*
X1118170D01*
G01X1118210Y1342000D02*
X1118280D01*
G01X1118100Y1341930D02*
X1118080Y1341910D01*
X1118060Y1341900D01*
X1118030D01*
X1118010Y1341910D01*
X1118000Y1341930D01*
X1117990Y1341950D01*
X1118000Y1341970D01*
X1118010Y1341990D01*
X1118030Y1342010D01*
X1118060D01*
X1118080Y1342030D01*
X1118090Y1342050D01*
X1118080Y1342070D01*
X1118070Y1342090D01*
X1118050Y1342100D01*
X1118030D01*
X1118020Y1342090D01*
X1118000Y1342080D01*
M02*
