G04 (created by PCBNEW (2013-mar-13)-testing) date Thu 19 Dec 2013 01:16:45 PM CET*
%MOIN*%
G04 Gerber Fmt 3.4, Leading zero omitted, Abs format*
%FSLAX34Y34*%
G01*
G70*
G90*
G04 APERTURE LIST*
%ADD10C,0.005906*%
%ADD11R,0.072000X0.072000*%
%ADD12C,0.072000*%
%ADD13R,0.071055X0.110425*%
%ADD14R,0.110425X0.071055*%
%ADD15R,0.027748X0.061213*%
%ADD16C,0.172000*%
%ADD17R,0.067000X0.067000*%
%ADD18C,0.067000*%
%ADD19C,0.104520*%
%ADD20C,0.051370*%
%ADD21R,0.051370X0.051370*%
%ADD22R,0.082900X0.028000*%
%ADD23C,0.071100*%
%ADD24C,0.090700*%
%ADD25R,0.037000X0.057000*%
%ADD26R,0.071100X0.071100*%
G04 APERTURE END LIST*
G54D10*
G54D11*
X44500Y-36000D03*
G54D12*
X44500Y-35000D03*
X45500Y-36000D03*
X45500Y-35000D03*
X46500Y-36000D03*
X46500Y-35000D03*
X47500Y-36000D03*
X47500Y-35000D03*
X48500Y-36000D03*
X48500Y-35000D03*
X49500Y-36000D03*
X49500Y-35000D03*
X50500Y-36000D03*
X50500Y-35000D03*
G54D13*
X71472Y-34767D03*
X71472Y-36421D03*
X75527Y-34767D03*
X75527Y-36421D03*
G54D14*
X74366Y-37287D03*
X72633Y-37287D03*
G54D15*
X74011Y-36549D03*
X73755Y-36549D03*
X73500Y-36549D03*
X73244Y-36549D03*
X72988Y-36549D03*
G54D16*
X77800Y-56800D03*
X41200Y-35200D03*
G54D17*
X53500Y-35000D03*
G54D18*
X54500Y-35000D03*
X55500Y-35000D03*
X56500Y-35000D03*
X57500Y-35000D03*
X58500Y-35000D03*
G54D16*
X77800Y-35200D03*
X41200Y-56800D03*
G54D19*
X47500Y-51602D03*
G54D20*
X47007Y-44200D03*
X47007Y-44988D03*
X47007Y-45775D03*
X47007Y-46562D03*
X47007Y-47350D03*
G54D21*
X47007Y-43413D03*
G54D19*
X47500Y-48000D03*
G54D21*
X47992Y-43413D03*
G54D20*
X47992Y-47350D03*
X47992Y-46562D03*
X47992Y-45775D03*
X47992Y-44988D03*
X47992Y-44200D03*
X48779Y-43807D03*
X48779Y-44594D03*
X48779Y-45381D03*
X48779Y-46169D03*
X48779Y-46956D03*
X46220Y-43807D03*
X46220Y-44594D03*
X46220Y-45381D03*
X46220Y-46169D03*
X46220Y-46956D03*
X48779Y-48531D03*
X47992Y-48925D03*
X48779Y-49318D03*
X47992Y-49712D03*
X48779Y-50106D03*
X47992Y-50500D03*
X48779Y-50893D03*
X46220Y-48531D03*
X47007Y-48925D03*
X46220Y-49318D03*
X47007Y-49712D03*
X46220Y-50106D03*
X47007Y-50500D03*
X46220Y-50893D03*
G54D19*
X55500Y-51602D03*
G54D20*
X55007Y-44200D03*
X55007Y-44988D03*
X55007Y-45775D03*
X55007Y-46562D03*
X55007Y-47350D03*
G54D21*
X55007Y-43413D03*
G54D19*
X55500Y-48000D03*
G54D21*
X55992Y-43413D03*
G54D20*
X55992Y-47350D03*
X55992Y-46562D03*
X55992Y-45775D03*
X55992Y-44988D03*
X55992Y-44200D03*
X56779Y-43807D03*
X56779Y-44594D03*
X56779Y-45381D03*
X56779Y-46169D03*
X56779Y-46956D03*
X54220Y-43807D03*
X54220Y-44594D03*
X54220Y-45381D03*
X54220Y-46169D03*
X54220Y-46956D03*
X56779Y-48531D03*
X55992Y-48925D03*
X56779Y-49318D03*
X55992Y-49712D03*
X56779Y-50106D03*
X55992Y-50500D03*
X56779Y-50893D03*
X54220Y-48531D03*
X55007Y-48925D03*
X54220Y-49318D03*
X55007Y-49712D03*
X54220Y-50106D03*
X55007Y-50500D03*
X54220Y-50893D03*
G54D19*
X63500Y-51602D03*
G54D20*
X63007Y-44200D03*
X63007Y-44988D03*
X63007Y-45775D03*
X63007Y-46562D03*
X63007Y-47350D03*
G54D21*
X63007Y-43413D03*
G54D19*
X63500Y-48000D03*
G54D21*
X63992Y-43413D03*
G54D20*
X63992Y-47350D03*
X63992Y-46562D03*
X63992Y-45775D03*
X63992Y-44988D03*
X63992Y-44200D03*
X64779Y-43807D03*
X64779Y-44594D03*
X64779Y-45381D03*
X64779Y-46169D03*
X64779Y-46956D03*
X62220Y-43807D03*
X62220Y-44594D03*
X62220Y-45381D03*
X62220Y-46169D03*
X62220Y-46956D03*
X64779Y-48531D03*
X63992Y-48925D03*
X64779Y-49318D03*
X63992Y-49712D03*
X64779Y-50106D03*
X63992Y-50500D03*
X64779Y-50893D03*
X62220Y-48531D03*
X63007Y-48925D03*
X62220Y-49318D03*
X63007Y-49712D03*
X62220Y-50106D03*
X63007Y-50500D03*
X62220Y-50893D03*
G54D19*
X71500Y-51602D03*
G54D20*
X71007Y-44200D03*
X71007Y-44988D03*
X71007Y-45775D03*
X71007Y-46562D03*
X71007Y-47350D03*
G54D21*
X71007Y-43413D03*
G54D19*
X71500Y-48000D03*
G54D21*
X71992Y-43413D03*
G54D20*
X71992Y-47350D03*
X71992Y-46562D03*
X71992Y-45775D03*
X71992Y-44988D03*
X71992Y-44200D03*
X72779Y-43807D03*
X72779Y-44594D03*
X72779Y-45381D03*
X72779Y-46169D03*
X72779Y-46956D03*
X70220Y-43807D03*
X70220Y-44594D03*
X70220Y-45381D03*
X70220Y-46169D03*
X70220Y-46956D03*
X72779Y-48531D03*
X71992Y-48925D03*
X72779Y-49318D03*
X71992Y-49712D03*
X72779Y-50106D03*
X71992Y-50500D03*
X72779Y-50893D03*
X70220Y-48531D03*
X71007Y-48925D03*
X70220Y-49318D03*
X71007Y-49712D03*
X70220Y-50106D03*
X71007Y-50500D03*
X70220Y-50893D03*
G54D22*
X62100Y-35850D03*
X62100Y-36100D03*
X62100Y-36360D03*
X62100Y-36620D03*
X62100Y-36870D03*
X62100Y-37130D03*
X62100Y-37390D03*
X62100Y-37640D03*
X62100Y-37900D03*
X62100Y-38150D03*
X62100Y-38410D03*
X62100Y-38670D03*
X62100Y-38920D03*
X62100Y-39180D03*
X64900Y-39180D03*
X64900Y-38920D03*
X64900Y-38680D03*
X64900Y-38410D03*
X64900Y-38150D03*
X64900Y-37900D03*
X64900Y-37640D03*
X64900Y-37390D03*
X64900Y-37130D03*
X64900Y-36870D03*
X64900Y-36620D03*
X64900Y-36360D03*
X64900Y-36100D03*
X64900Y-35850D03*
G54D23*
X69246Y-34900D03*
X67554Y-34900D03*
G54D24*
X69778Y-35884D03*
X67022Y-35884D03*
G54D25*
X69209Y-37790D03*
X69809Y-37790D03*
X69209Y-37110D03*
X69809Y-37110D03*
X63800Y-40000D03*
X63200Y-40000D03*
X68300Y-37100D03*
X67700Y-37100D03*
X68300Y-37800D03*
X67700Y-37800D03*
X71620Y-37650D03*
X71020Y-37650D03*
X67200Y-37100D03*
X66600Y-37100D03*
X67200Y-37800D03*
X66600Y-37800D03*
G54D23*
X69270Y-40470D03*
X68286Y-40470D03*
X70254Y-40470D03*
X70254Y-39210D03*
X69270Y-39210D03*
X68286Y-39210D03*
X77000Y-50500D03*
X77000Y-49500D03*
X77000Y-48500D03*
X77000Y-47500D03*
X77000Y-46500D03*
X77000Y-45500D03*
X77000Y-44500D03*
X77000Y-43500D03*
X77000Y-42500D03*
X77000Y-41500D03*
X77000Y-40500D03*
X77000Y-39500D03*
X77000Y-38500D03*
G54D26*
X77000Y-37500D03*
X78000Y-37500D03*
G54D23*
X78000Y-38500D03*
X78000Y-39500D03*
X78000Y-40500D03*
X78000Y-41500D03*
X78000Y-42500D03*
X78000Y-43500D03*
X78000Y-44500D03*
X78000Y-45500D03*
X78000Y-46500D03*
X78000Y-47500D03*
X78000Y-48500D03*
X78000Y-49500D03*
X78000Y-50500D03*
X78000Y-51500D03*
X78000Y-52500D03*
X78000Y-53500D03*
X78000Y-54500D03*
X77000Y-51500D03*
X77000Y-52500D03*
X77000Y-53500D03*
X77000Y-54500D03*
X41000Y-50500D03*
X41000Y-49500D03*
X41000Y-48500D03*
X41000Y-47500D03*
X41000Y-46500D03*
X41000Y-45500D03*
X41000Y-44500D03*
X41000Y-43500D03*
X41000Y-42500D03*
X41000Y-41500D03*
X41000Y-40500D03*
X41000Y-39500D03*
X41000Y-38500D03*
G54D26*
X41000Y-37500D03*
X42000Y-37500D03*
G54D23*
X42000Y-38500D03*
X42000Y-39500D03*
X42000Y-40500D03*
X42000Y-41500D03*
X42000Y-42500D03*
X42000Y-43500D03*
X42000Y-44500D03*
X42000Y-45500D03*
X42000Y-46500D03*
X42000Y-47500D03*
X42000Y-48500D03*
X42000Y-49500D03*
X42000Y-50500D03*
X42000Y-51500D03*
X42000Y-52500D03*
X42000Y-53500D03*
X42000Y-54500D03*
X41000Y-51500D03*
X41000Y-52500D03*
X41000Y-53500D03*
X41000Y-54500D03*
X49000Y-55000D03*
X49000Y-56000D03*
X49000Y-57000D03*
X49000Y-54000D03*
X50000Y-54000D03*
X50000Y-55000D03*
X50000Y-56000D03*
X50000Y-57000D03*
X51000Y-57000D03*
X51000Y-56000D03*
X51000Y-55000D03*
X51000Y-54000D03*
X48000Y-54000D03*
X48000Y-55000D03*
X48000Y-56000D03*
X48000Y-57000D03*
X47000Y-57000D03*
X47000Y-56000D03*
X47000Y-55000D03*
X47000Y-54000D03*
X52000Y-54000D03*
X52000Y-55000D03*
X52000Y-56000D03*
X52000Y-57000D03*
X46000Y-54000D03*
X46000Y-55000D03*
X46000Y-56000D03*
X46000Y-57000D03*
X56000Y-56000D03*
X56000Y-55000D03*
X56000Y-54000D03*
X56000Y-57000D03*
X55000Y-57000D03*
X55000Y-56000D03*
X55000Y-55000D03*
X55000Y-54000D03*
X54000Y-54000D03*
X54000Y-55000D03*
X54000Y-56000D03*
X54000Y-57000D03*
X57000Y-57000D03*
X57000Y-56000D03*
X57000Y-55000D03*
X57000Y-54000D03*
X58000Y-54000D03*
X58000Y-55000D03*
X58000Y-56000D03*
X58000Y-57000D03*
X53000Y-57000D03*
X53000Y-56000D03*
X53000Y-55000D03*
X53000Y-54000D03*
X59000Y-57000D03*
X59000Y-56000D03*
X59000Y-55000D03*
X59000Y-54000D03*
X63000Y-56000D03*
X63000Y-55000D03*
X63000Y-54000D03*
X63000Y-57000D03*
X62000Y-57000D03*
X62000Y-56000D03*
X62000Y-55000D03*
X62000Y-54000D03*
X61000Y-54000D03*
X61000Y-55000D03*
X61000Y-56000D03*
X61000Y-57000D03*
X64000Y-57000D03*
X64000Y-56000D03*
X64000Y-55000D03*
X64000Y-54000D03*
X65000Y-54000D03*
X65000Y-55000D03*
X65000Y-56000D03*
X65000Y-57000D03*
X60000Y-57000D03*
X60000Y-56000D03*
X60000Y-55000D03*
X60000Y-54000D03*
X66000Y-57000D03*
X66000Y-56000D03*
X66000Y-55000D03*
X66000Y-54000D03*
X70000Y-56000D03*
X70000Y-55000D03*
X70000Y-54000D03*
X70000Y-57000D03*
X69000Y-57000D03*
X69000Y-56000D03*
X69000Y-55000D03*
X69000Y-54000D03*
X68000Y-54000D03*
X68000Y-55000D03*
X68000Y-56000D03*
X68000Y-57000D03*
X71000Y-57000D03*
X71000Y-56000D03*
X71000Y-55000D03*
X71000Y-54000D03*
X72000Y-54000D03*
X72000Y-55000D03*
X72000Y-56000D03*
X72000Y-57000D03*
X67000Y-57000D03*
X67000Y-56000D03*
X67000Y-55000D03*
X67000Y-54000D03*
X73000Y-57000D03*
X73000Y-56000D03*
X73000Y-55000D03*
X73000Y-54000D03*
M02*
