G04 (created by PCBNEW (2013-mar-13)-testing) date Thu 19 Dec 2013 01:16:45 PM CET*
%MOIN*%
G04 Gerber Fmt 3.4, Leading zero omitted, Abs format*
%FSLAX34Y34*%
G01*
G70*
G90*
G04 APERTURE LIST*
%ADD10C,0.005906*%
%ADD11R,0.059055X0.098425*%
%ADD12R,0.098425X0.059055*%
%ADD13R,0.015748X0.049213*%
%ADD14R,0.070900X0.016000*%
%ADD15R,0.025000X0.045000*%
G04 APERTURE END LIST*
G54D10*
G54D11*
X71472Y-34767D03*
X71472Y-36421D03*
X75527Y-34767D03*
X75527Y-36421D03*
G54D12*
X74366Y-37287D03*
X72633Y-37287D03*
G54D13*
X74011Y-36549D03*
X73755Y-36549D03*
X73500Y-36549D03*
X73244Y-36549D03*
X72988Y-36549D03*
G54D14*
X62100Y-35850D03*
X62100Y-36100D03*
X62100Y-36360D03*
X62100Y-36620D03*
X62100Y-36870D03*
X62100Y-37130D03*
X62100Y-37390D03*
X62100Y-37640D03*
X62100Y-37900D03*
X62100Y-38150D03*
X62100Y-38410D03*
X62100Y-38670D03*
X62100Y-38920D03*
X62100Y-39180D03*
X64900Y-39180D03*
X64900Y-38920D03*
X64900Y-38680D03*
X64900Y-38410D03*
X64900Y-38150D03*
X64900Y-37900D03*
X64900Y-37640D03*
X64900Y-37390D03*
X64900Y-37130D03*
X64900Y-36870D03*
X64900Y-36620D03*
X64900Y-36360D03*
X64900Y-36100D03*
X64900Y-35850D03*
G54D15*
X69209Y-37790D03*
X69809Y-37790D03*
X69209Y-37110D03*
X69809Y-37110D03*
X63800Y-40000D03*
X63200Y-40000D03*
X68300Y-37100D03*
X67700Y-37100D03*
X68300Y-37800D03*
X67700Y-37800D03*
X71620Y-37650D03*
X71020Y-37650D03*
X67200Y-37100D03*
X66600Y-37100D03*
X67200Y-37800D03*
X66600Y-37800D03*
M02*
