M48
;DRILL file {Pcbnew (2013-mar-13)-testing} date Thu 19 Dec 2013 01:16:47 PM CET
;FORMAT={-:-/ absolute / inch / decimal}
FMAT,2
INCH,TZ
T1C0.016
T2C0.020
T3C0.032
T4C0.039
T5C0.040
T6C0.047
T7C0.059
T8C0.093
T9C0.120
%
G90
G05
M72
T1
X4.281Y-5.584
X4.301Y-4.773
X4.31Y-3.47
X4.31Y-3.64
X4.36Y-3.77
X4.413Y-5.735
X4.418Y-5.526
X4.429Y-5.324
X4.436Y-4.77
X4.59Y-3.69
X4.59Y-3.85
X4.59Y-4.02
X4.61Y-4.775
X4.671Y-5.3
X4.84Y-4.11
X4.868Y-4.771
X4.87Y-3.74
X4.98Y-5.17
X5.03Y-4.11
X5.032Y-4.77
X5.04Y-5.303
X5.14Y-5.17
X5.15Y-3.74
X5.191Y-4.771
X5.26Y-4.11
X5.31Y-5.17
X5.384Y-5.303
X5.39Y-3.74
X5.393Y-4.772
X5.4556Y-4.3127
X5.47Y-4.11
X5.5904Y-3.582
X5.666Y-5.171
X5.7Y-4.15
X5.71Y-3.91
X5.716Y-3.7082
X5.7792Y-5.1716
X5.817Y-5.302
X5.86Y-3.75
X5.89Y-4.12
X5.9Y-3.91
X5.939Y-5.171
X6.Y-3.75
X6.05Y-4.12
X6.0514Y-4.2296
X6.07Y-3.91
X6.107Y-5.171
X6.13Y-3.75
X6.156Y-5.304
X6.235Y-5.165
X6.244Y-4.3384
X6.3152Y-3.662
X6.3194Y-3.8066
X6.3196Y-3.9102
X6.3228Y-3.5888
X6.3966Y-3.6792
X6.443Y-5.304
X6.4535Y-3.9722
X6.4535Y-4.0415
X6.46Y-5.17
X6.47Y-4.78
X6.5392Y-4.2516
X6.5475Y-3.9857
X6.5687Y-3.8511
X6.58Y-5.09
X6.58Y-5.17
X6.5907Y-4.0455
X6.612Y-4.8
X6.6294Y-3.8804
X6.7Y-5.09
X6.7Y-5.17
X6.752Y-5.304
X6.774Y-4.8
X6.83Y-5.09
X6.83Y-5.17
X6.8301Y-3.6536
X6.914Y-4.8
X6.922Y-3.656
X6.95Y-5.09
X6.95Y-5.17
X7.024Y-5.305
X7.028Y-4.78
X7.26Y-4.784
X7.267Y-5.301
X7.38Y-4.778
X7.4543Y-3.6563
X7.471Y-5.252
X7.493Y-5.592
X7.493Y-5.727
X7.496Y-5.418
X7.5014Y-3.821
X7.599Y-4.778
X7.619Y-5.584
T2
X4.622Y-4.3807
X4.622Y-4.4594
X4.622Y-4.5382
X4.622Y-4.6169
X4.622Y-4.6957
X4.622Y-4.8531
X4.622Y-4.9319
X4.622Y-5.0106
X4.622Y-5.0894
X4.7008Y-4.3413
X4.7008Y-4.4201
X4.7008Y-4.4988
X4.7008Y-4.5776
X4.7008Y-4.6563
X4.7008Y-4.735
X4.7008Y-4.8925
X4.7008Y-4.9713
X4.7008Y-5.05
X4.7992Y-4.3413
X4.7992Y-4.4201
X4.7992Y-4.4988
X4.7992Y-4.5776
X4.7992Y-4.6563
X4.7992Y-4.735
X4.7992Y-4.8925
X4.7992Y-4.9713
X4.7992Y-5.05
X4.878Y-4.3807
X4.878Y-4.4594
X4.878Y-4.5382
X4.878Y-4.6169
X4.878Y-4.6957
X4.878Y-4.8531
X4.878Y-4.9319
X4.878Y-5.0106
X4.878Y-5.0894
X5.422Y-4.3807
X5.422Y-4.4594
X5.422Y-4.5382
X5.422Y-4.6169
X5.422Y-4.6957
X5.422Y-4.8531
X5.422Y-4.9319
X5.422Y-5.0106
X5.422Y-5.0894
X5.5008Y-4.3413
X5.5008Y-4.4201
X5.5008Y-4.4988
X5.5008Y-4.5776
X5.5008Y-4.6563
X5.5008Y-4.735
X5.5008Y-4.8925
X5.5008Y-4.9713
X5.5008Y-5.05
X5.5992Y-4.3413
X5.5992Y-4.4201
X5.5992Y-4.4988
X5.5992Y-4.5776
X5.5992Y-4.6563
X5.5992Y-4.735
X5.5992Y-4.8925
X5.5992Y-4.9713
X5.5992Y-5.05
X5.678Y-4.3807
X5.678Y-4.4594
X5.678Y-4.5382
X5.678Y-4.6169
X5.678Y-4.6957
X5.678Y-4.8531
X5.678Y-4.9319
X5.678Y-5.0106
X5.678Y-5.0894
X6.222Y-4.3807
X6.222Y-4.4594
X6.222Y-4.5382
X6.222Y-4.6169
X6.222Y-4.6957
X6.222Y-4.8531
X6.222Y-4.9319
X6.222Y-5.0106
X6.222Y-5.0894
X6.3008Y-4.3413
X6.3008Y-4.4201
X6.3008Y-4.4988
X6.3008Y-4.5776
X6.3008Y-4.6563
X6.3008Y-4.735
X6.3008Y-4.8925
X6.3008Y-4.9713
X6.3008Y-5.05
X6.3992Y-4.3413
X6.3992Y-4.4201
X6.3992Y-4.4988
X6.3992Y-4.5776
X6.3992Y-4.6563
X6.3992Y-4.735
X6.3992Y-4.8925
X6.3992Y-4.9713
X6.3992Y-5.05
X6.478Y-4.3807
X6.478Y-4.4594
X6.478Y-4.5382
X6.478Y-4.6169
X6.478Y-4.6957
X6.478Y-4.8531
X6.478Y-4.9319
X6.478Y-5.0106
X6.478Y-5.0894
X7.022Y-4.3807
X7.022Y-4.4594
X7.022Y-4.5382
X7.022Y-4.6169
X7.022Y-4.6957
X7.022Y-4.8531
X7.022Y-4.9319
X7.022Y-5.0106
X7.022Y-5.0894
X7.1008Y-4.3413
X7.1008Y-4.4201
X7.1008Y-4.4988
X7.1008Y-4.5776
X7.1008Y-4.6563
X7.1008Y-4.735
X7.1008Y-4.8925
X7.1008Y-4.9713
X7.1008Y-5.05
X7.1992Y-4.3413
X7.1992Y-4.4201
X7.1992Y-4.4988
X7.1992Y-4.5776
X7.1992Y-4.6563
X7.1992Y-4.735
X7.1992Y-4.8925
X7.1992Y-4.9713
X7.1992Y-5.05
X7.278Y-4.3807
X7.278Y-4.4594
X7.278Y-4.5382
X7.278Y-4.6169
X7.278Y-4.6957
X7.278Y-4.8531
X7.278Y-4.9319
X7.278Y-5.0106
X7.278Y-5.0894
T3
X5.35Y-3.5
X5.45Y-3.5
X5.55Y-3.5
X5.65Y-3.5
X5.75Y-3.5
X5.85Y-3.5
T4
X4.1Y-3.75
X4.1Y-3.85
X4.1Y-3.95
X4.1Y-4.05
X4.1Y-4.15
X4.1Y-4.25
X4.1Y-4.35
X4.1Y-4.45
X4.1Y-4.55
X4.1Y-4.65
X4.1Y-4.75
X4.1Y-4.85
X4.1Y-4.95
X4.1Y-5.05
X4.1Y-5.15
X4.1Y-5.25
X4.1Y-5.35
X4.1Y-5.45
X4.2Y-3.75
X4.2Y-3.85
X4.2Y-3.95
X4.2Y-4.05
X4.2Y-4.15
X4.2Y-4.25
X4.2Y-4.35
X4.2Y-4.45
X4.2Y-4.55
X4.2Y-4.65
X4.2Y-4.75
X4.2Y-4.85
X4.2Y-4.95
X4.2Y-5.05
X4.2Y-5.15
X4.2Y-5.25
X4.2Y-5.35
X4.2Y-5.45
X4.6Y-5.4
X4.6Y-5.5
X4.6Y-5.6
X4.6Y-5.7
X4.7Y-5.4
X4.7Y-5.5
X4.7Y-5.6
X4.7Y-5.7
X4.8Y-5.4
X4.8Y-5.5
X4.8Y-5.6
X4.8Y-5.7
X4.9Y-5.4
X4.9Y-5.5
X4.9Y-5.6
X4.9Y-5.7
X5.Y-5.4
X5.Y-5.5
X5.Y-5.6
X5.Y-5.7
X5.1Y-5.4
X5.1Y-5.5
X5.1Y-5.6
X5.1Y-5.7
X5.2Y-5.4
X5.2Y-5.5
X5.2Y-5.6
X5.2Y-5.7
X5.3Y-5.4
X5.3Y-5.5
X5.3Y-5.6
X5.3Y-5.7
X5.4Y-5.4
X5.4Y-5.5
X5.4Y-5.6
X5.4Y-5.7
X5.5Y-5.4
X5.5Y-5.5
X5.5Y-5.6
X5.5Y-5.7
X5.6Y-5.4
X5.6Y-5.5
X5.6Y-5.6
X5.6Y-5.7
X5.7Y-5.4
X5.7Y-5.5
X5.7Y-5.6
X5.7Y-5.7
X5.8Y-5.4
X5.8Y-5.5
X5.8Y-5.6
X5.8Y-5.7
X5.9Y-5.4
X5.9Y-5.5
X5.9Y-5.6
X5.9Y-5.7
X6.Y-5.4
X6.Y-5.5
X6.Y-5.6
X6.Y-5.7
X6.1Y-5.4
X6.1Y-5.5
X6.1Y-5.6
X6.1Y-5.7
X6.2Y-5.4
X6.2Y-5.5
X6.2Y-5.6
X6.2Y-5.7
X6.3Y-5.4
X6.3Y-5.5
X6.3Y-5.6
X6.3Y-5.7
X6.4Y-5.4
X6.4Y-5.5
X6.4Y-5.6
X6.4Y-5.7
X6.5Y-5.4
X6.5Y-5.5
X6.5Y-5.6
X6.5Y-5.7
X6.6Y-5.4
X6.6Y-5.5
X6.6Y-5.6
X6.6Y-5.7
X6.7Y-5.4
X6.7Y-5.5
X6.7Y-5.6
X6.7Y-5.7
X6.7554Y-3.49
X6.8Y-5.4
X6.8Y-5.5
X6.8Y-5.6
X6.8Y-5.7
X6.8286Y-3.921
X6.8286Y-4.047
X6.9Y-5.4
X6.9Y-5.5
X6.9Y-5.6
X6.9Y-5.7
X6.9246Y-3.49
X6.927Y-3.921
X6.927Y-4.047
X7.Y-5.4
X7.Y-5.5
X7.Y-5.6
X7.Y-5.7
X7.0254Y-3.921
X7.0254Y-4.047
X7.1Y-5.4
X7.1Y-5.5
X7.1Y-5.6
X7.1Y-5.7
X7.2Y-5.4
X7.2Y-5.5
X7.2Y-5.6
X7.2Y-5.7
X7.3Y-5.4
X7.3Y-5.5
X7.3Y-5.6
X7.3Y-5.7
X7.7Y-3.75
X7.7Y-3.85
X7.7Y-3.95
X7.7Y-4.05
X7.7Y-4.15
X7.7Y-4.25
X7.7Y-4.35
X7.7Y-4.45
X7.7Y-4.55
X7.7Y-4.65
X7.7Y-4.75
X7.7Y-4.85
X7.7Y-4.95
X7.7Y-5.05
X7.7Y-5.15
X7.7Y-5.25
X7.7Y-5.35
X7.7Y-5.45
X7.8Y-3.75
X7.8Y-3.85
X7.8Y-3.95
X7.8Y-4.05
X7.8Y-4.15
X7.8Y-4.25
X7.8Y-4.35
X7.8Y-4.45
X7.8Y-4.55
X7.8Y-4.65
X7.8Y-4.75
X7.8Y-4.85
X7.8Y-4.95
X7.8Y-5.05
X7.8Y-5.15
X7.8Y-5.25
X7.8Y-5.35
X7.8Y-5.45
T5
X4.45Y-3.5
X4.45Y-3.6
X4.55Y-3.5
X4.55Y-3.6
X4.65Y-3.5
X4.65Y-3.6
X4.75Y-3.5
X4.75Y-3.6
X4.85Y-3.5
X4.85Y-3.6
X4.95Y-3.5
X4.95Y-3.6
X5.05Y-3.5
X5.05Y-3.6
T6
X6.9778Y-3.5884
T7
X6.7022Y-3.5884
T8
X4.75Y-4.8
X4.75Y-5.1602
X5.55Y-4.8
X5.55Y-5.1602
X6.35Y-4.8
X6.35Y-5.1602
X7.15Y-4.8
X7.15Y-5.1602
T9
X4.12Y-3.52
X4.12Y-5.68
X7.78Y-3.52
X7.78Y-5.68
T0
M30
